<svg height="512" viewBox="0 0 509.6 509.6" width="512" xmlns="http://www.w3.org/2000/svg"><path d="m79.462 165.504-7.859-14.77H42.624l-18.157 14.77c-10.73 27.7-16.628 57.807-16.628 89.296 0 24.362 3.54 47.894 10.104 70.129l13.358 16.578 32.656-3.999 6.832-12.579c-8.124-21.333-12.656-44.438-12.839-68.579-.254-32.661 7.544-63.566 21.512-90.846zM500.213 221.591s-10.367-23.625-11.066-23.625c-.7 0-32.18 1.866-32.18 1.866l-7.417 21.759a198.184 198.184 0 0 1 2.78 31.659c.25 32.264-7.361 62.812-21.011 89.847l3.861 11.336h40.877l10.135-11.336c10.487-27.425 16.248-57.186 16.248-88.297a249.686 249.686 0 0 0-2.227-33.209z" fill="#f37c7c"/><path d="M449.38 248.62h-32.32l-17.775 15.561 2.799 27.541 14.976 9.358h32.32c8.86 0 16.04-7.18 16.04-16.04v-20.37c0-8.86-7.18-16.05-16.04-16.05z" fill="#f9b1b1"/><path d="M449.38 279.709h-32.32l-14.976-9.358-.804-7.916-1.994 1.746 2.799 27.541 14.976 9.358h32.32c8.86 0 16.04-7.18 16.04-16.04v-20.37c0-.169-.02-.333-.025-.5-.268 8.626-7.325 15.539-16.016 15.539z" fill="#f79595"/><path d="M166.01 248.62H59.22c-8.86 0-16.04 7.19-16.04 16.05v20.37c0 8.86 7.18 16.04 16.04 16.04h106.79l16.446-8.38v-32.038z" fill="#fed2a4"/><path d="M59.22 279.709c-8.691 0-15.748-6.913-16.015-15.54-.005.168-.025.331-.025.5v20.37c0 8.86 7.18 16.04 16.04 16.04h106.79l16.446-8.38v-21.37l-16.446 8.38z" fill="#ffbd86"/><path d="M166.01 248.62h251.05v52.46H166.01z" fill="#f9f7f8"/><path d="M166.01 279.709h251.05v21.37H166.01z" fill="#efedef"/><path d="M253.589 451.99c-43.42-.33-83.5-14.71-115.92-38.8-.77-.56-.84-1.68-.17-2.35l273.68-273.68c.67-.67 1.79-.6 2.35.17 18.11 24.372 30.727 53.076 36.018 84.271h.003l-.001-.01h50.664C483.987 100.717 380.456 7.5 255.139 7.5 150.085 7.5 60.354 73.016 24.52 165.411l54.942.092c32.94-64.33 100.208-108.49 177.227-107.893 43.42.33 83.5 14.71 115.92 38.8.77.56.84 1.68.17 2.35L99.099 372.44c-.67.67-1.79.6-2.35-.17a196.792 196.792 0 0 1-25.964-47.349l.003.008H17.943C48.178 427.348 142.921 502.1 255.139 502.1c105.468 0 195.495-66.032 231.044-159.003h-54.865C398.565 407.968 331.006 452.59 253.589 451.99z" fill="#f37c7c"/><g><path d="M289.376 134.343h-12.668c-7.851 0-14.216 6.365-14.216 14.216 0 7.851 6.365 14.216 14.216 14.216h71.045c30.006 0 54.331 24.325 54.331 54.331a4.485 4.485 0 0 1-4.485 4.485H374.64a4.485 4.485 0 0 1-4.485-4.485v-2.692c0-7.594-6.156-13.749-13.749-13.749H220.141c-26.445 0-47.883-21.438-47.883-47.883 0-26.445 21.438-47.883 47.883-47.883h68.26a7.492 7.492 0 0 1 7.475 6.987l.976 14.462c.291 4.325-3.14 7.995-7.476 7.995z" fill="#efedef"/></g><g><path d="M434.971 74.629C386.846 26.504 322.859 0 254.8 0S122.754 26.504 74.629 74.629 0 186.74 0 254.8s26.504 132.045 74.629 180.171C122.754 483.096 186.74 509.6 254.8 509.6s132.046-26.504 180.171-74.629C483.096 386.845 509.6 322.859 509.6 254.8s-26.504-132.046-74.629-180.171zm-10.607 349.735C379.072 469.656 318.853 494.6 254.8 494.6s-124.272-24.943-169.564-70.236C39.943 379.072 15 318.853 15 254.8S39.943 130.528 85.235 85.236C130.527 39.943 190.747 15 254.8 15s124.272 24.943 169.564 70.236C469.656 130.528 494.6 190.747 494.6 254.8s-24.944 124.272-70.236 169.564z"/><path d="M59.585 225.996a7.503 7.503 0 0 0 8.754-5.99c8.076-43.091 31.26-82.458 65.281-110.849 34.454-28.751 78.029-44.417 122.674-44.052 38.19.294 74.654 11.786 105.893 33.303l-56.867 56.867h-28.611c-3.703 0-6.716-3.013-6.716-6.716s3.013-6.716 6.716-6.716h20.682c4.143 0 7.5-3.358 7.5-7.5s-3.357-7.5-7.5-7.5h-20.682c-11.975 0-21.716 9.742-21.716 21.716s9.741 21.716 21.716 21.716h71.045c25.822 0 46.83 21.008 46.83 46.831v4.485c0 4.142 3.357 7.5 7.5 7.5s7.5-3.358 7.5-7.5v-4.485c0-18.635-8.299-35.358-21.381-46.704l22.984-22.985c14.957 21.771 25.33 46.72 30.126 72.574a7.502 7.502 0 0 0 8.742 6.006 7.5 7.5 0 0 0 6.006-8.742c-5.629-30.342-18.37-59.527-36.845-84.396a9.064 9.064 0 0 0-13.682-1.001l-30.024 30.024a61.424 61.424 0 0 0-27.756-6.606h-21.22l51.209-51.21a9.06 9.06 0 0 0 2.63-7.074 9.045 9.045 0 0 0-3.628-6.607c-35.018-26.013-76.629-39.941-120.336-40.279-48.182-.35-95.221 16.51-132.399 47.535-36.69 30.618-61.698 73.093-70.415 119.602a7.501 7.501 0 0 0 5.99 8.753zM439.48 324.173a7.502 7.502 0 0 0-9.829 3.986c-14.468 34.204-38.484 63.298-69.454 84.137-31.742 21.359-68.686 32.492-106.893 32.198-38.19-.294-74.654-11.786-105.892-33.303l31.097-31.096a7.5 7.5 0 0 0-10.607-10.606l-36.046 36.045a9.06 9.06 0 0 0-2.63 7.074 9.045 9.045 0 0 0 3.628 6.606c35.018 26.013 76.629 39.941 120.335 40.279.533.004 1.062.006 1.595.006 40.655-.001 79.97-12.003 113.787-34.759 33.392-22.469 59.29-53.846 74.895-90.738a7.5 7.5 0 0 0-3.986-9.829z"/><path d="M449.377 241.124H317.481l32.96-32.96h5.963a6.257 6.257 0 0 1 6.249 6.25v7.178c0 4.142 3.357 7.5 7.5 7.5s7.5-3.358 7.5-7.5v-7.178c0-11.717-9.532-21.25-21.249-21.25H220.141c-22.268 0-40.383-18.116-40.383-40.383 0-4.858.857-9.614 2.548-14.136a7.5 7.5 0 0 0-14.048-5.254 55.16 55.16 0 0 0-3.499 19.39c0 30.538 24.845 55.383 55.383 55.383h32.291l-32.96 32.96H59.223c-12.981 0-23.542 10.561-23.542 23.541v20.374c0 12.98 10.561 23.541 23.542 23.541h92.792l-53.604 53.604a189.635 189.635 0 0 1-18.584-34.008 7.5 7.5 0 0 0-13.83 5.808 204.657 204.657 0 0 0 24.386 42.757 9.044 9.044 0 0 0 7.273 3.656 9.062 9.062 0 0 0 6.409-2.655l169.58-169.579h55.583L190.503 346.888a7.5 7.5 0 0 0 5.304 12.803 7.478 7.478 0 0 0 5.304-2.197l48.915-48.915H322.9c4.143 0 7.5-3.358 7.5-7.5s-3.357-7.5-7.5-7.5h-57.875l37.456-37.456h107.076v37.456h-54.695c-4.143 0-7.5 3.358-7.5 7.5s3.357 7.5 7.5 7.5h94.515c12.981 0 23.542-10.561 23.542-23.541v-20.374c0-12.979-10.561-23.54-23.542-23.54zM173.515 287.08v-30.956h30.956zm-122.834-2.041v-20.374c0-4.709 3.832-8.541 8.542-8.541h99.292v37.456H59.223c-4.71 0-8.542-3.831-8.542-8.541zm407.238 0c0 4.709-3.832 8.541-8.542 8.541h-24.819v-37.456h24.819c4.71 0 8.542 3.832 8.542 8.541zM302.903 104.897a7.5 7.5 0 0 0-7.5-7.5H220.14a55.34 55.34 0 0 0-28.002 7.606 7.5 7.5 0 1 0 7.596 12.934 40.327 40.327 0 0 1 20.406-5.541h75.263a7.497 7.497 0 0 0 7.5-7.499z"/></g></svg>