<svg height="512" viewBox="0 0 64 64" width="512" xmlns="http://www.w3.org/2000/svg"><path d="M42 11v3.84c0 2.03-.32 4.05-.94 5.98-.53-.5-1.26-.82-2.06-.82h-1v-4.1a5 5 0 0 0 4-4.9z" fill="#656d78"/><path d="M40 8.14v.04c.43.14.81.39 1.12.7.54.54.88 1.29.88 2.12a5 5 0 0 1-5 5H25.49c-.97 0-1.84-.39-2.47-1.02-.4-.4-.71-.9-.87-1.47l-1.72 1.03A5.001 5.001 0 0 0 18 18.83V20h-1c-.8 0-1.52.31-2.05.81l-.6-2.43a11.556 11.556 0 0 1 3.04-10.99C19.48 5.3 22.38 4 25.58 4H29l1.45-.97A6.18 6.18 0 0 1 33.86 2c1.7 0 3.23.69 4.34 1.8S40 6.44 40 8.14z" fill="#656d78"/><path d="M16 62H8V47.1a8.8 8.8 0 0 1 1.94-5.52 8.815 8.815 0 0 1 5.31-3.17l4.97-.9L23 44l5-4 5 4 2.78-6.49 4.97.9c2.1.38 3.98 1.51 5.31 3.17A8.8 8.8 0 0 1 48 47.1V62h-8z" fill="#fcd770"/><path d="m33 37 2.78.51L33 44l-5-4zM28 40l-5 4-2.78-6.49L23 37z" fill="#ffc729"/><path d="M32.03 32.15 33 37l-5 3-5-3 .97-4.85c1.23.55 2.6.85 4.03.85 1.44 0 2.8-.3 4.03-.85zM18.46 26H17c-.83 0-1.58-.34-2.12-.88a2.993 2.993 0 0 1 .07-4.31c.53-.5 1.25-.81 2.05-.81h1v3c0 1.05.16 2.05.46 3z" fill="#f0d0b4"/><path d="M25.49 16H37c.34 0 .68-.03 1-.1V23c0 1.05-.16 2.05-.46 3-.08.26-.17.51-.27.76l-4.2-1.05-2.58-.65c-.16-.04-.33-.06-.49-.06-.92 0-1.72.62-1.94 1.51-.13.52-.05 1.06.22 1.52.28.46.72.78 1.23.91l2.59.65 2.76.69c-.82.77-1.78 1.41-2.83 1.87A9.83 9.83 0 0 1 28 33c-1.43 0-2.8-.3-4.03-.85A9.995 9.995 0 0 1 18 23v-4.17c0-1.76.92-3.38 2.43-4.29l1.72-1.03c.16.57.47 1.07.87 1.47.63.63 1.5 1.02 2.47 1.02z" fill="#f0d0b4"/><path d="M41.06 20.82a2.993 2.993 0 0 1 .06 4.3c-.54.54-1.29.88-2.12.88h-1.46c.3-.95.46-1.95.46-3v-3h1c.8 0 1.53.32 2.06.82z" fill="#f0d0b4"/><path d="M47.71 29.97c.28.46.36 1 .23 1.52-.22.89-1.02 1.51-1.94 1.51-.16 0-.33-.02-.49-.06l-10.65-2.66-2.76-.69.97-3.88 4.2 1.05 9.21 2.3c.52.13.96.45 1.23.91z" fill="#e6e9ed"/><path d="m30.49 25.06 2.58.65-.97 3.88-2.59-.65c-.51-.13-.95-.45-1.23-.91-.27-.46-.35-1-.22-1.52.22-.89 1.02-1.51 1.94-1.51.16 0 .33.02.49.06z" fill="#dfb28b"/><g><path d="M24 20a1 1 0 0 1-1-1h-2c0 1.654 1.346 3 3 3s3-1.346 3-3h-2a1 1 0 0 1-1 1zM32 22c1.654 0 3-1.346 3-3h-2a1 1 0 0 1-2 0h-2c0 1.654 1.346 3 3 3z"/><path d="m40.927 37.426-7.079-1.288-.686-3.429c.694-.37 1.348-.82 1.956-1.338l10.15 2.538a2.991 2.991 0 0 0 3.64-2.178 2.973 2.973 0 0 0-.335-2.271 2.966 2.966 0 0 0-1.848-1.369l-5.997-1.5A3.993 3.993 0 0 0 43 23c0-.913-.319-1.745-.836-2.419.545-1.868.836-3.795.836-5.743V11c0-1.487-.824-2.771-2.03-3.46C40.663 3.883 37.594 1 33.859 1a7.12 7.12 0 0 0-3.961 1.199L28.697 3h-3.122C18.642 3 13 8.642 13 15.575c0 1.026.126 2.052.376 3.05l.482 1.929A3.961 3.961 0 0 0 13 23c0 2.206 1.794 4 4 4h.764a11.057 11.057 0 0 0 5.074 5.708l-.686 3.43-7.079 1.287A9.834 9.834 0 0 0 7 47.098V63h42V47.098a9.874 9.874 0 0 0-2.154-6.142 9.835 9.835 0 0 0-5.919-3.53zm-6.557.84-1.771 4.133-2.851-2.281 3.443-2.066zm-4.614-10.297c-.26-.064-.478-.226-.615-.455s-.177-.497-.11-.76a.992.992 0 0 1 1.214-.724l1.616.404-.485 1.939zm17.101 2.517a1.004 1.004 0 0 1-1.104 1.484l-12.439-3.111.485-1.939 12.443 3.112c.26.064.478.225.615.454zm-5.882-15.004a18.439 18.439 0 0 1-.523 3.8A3.985 3.985 0 0 0 39 19v-2.35a5.993 5.993 0 0 0 1.975-1.168zM39 25h-.186A11 11 0 0 0 39 23v-2c1.103 0 2 .897 2 2s-.897 2-2 2zm-22 0c-1.103 0-2-.897-2-2s.897-2 2-2v2c0 .684.071 1.35.191 2zm0-6.169V19c-.495 0-.965.102-1.403.267l-.282-1.127A10.622 10.622 0 0 1 15 15.575C15 9.744 19.744 5 25.575 5h3.728l1.705-1.137A5.127 5.127 0 0 1 33.859 3c2.44 0 4.478 1.712 5.001 4.014A3.997 3.997 0 0 0 35 11h2c0-1.103.897-2 2-2s2 .897 2 2c0 2.206-1.794 4-4 4H25.487A2.49 2.49 0 0 1 23 12.513c0-1.072.684-2.02 1.699-2.358l.616-.205-.631-1.898-.617.206A4.476 4.476 0 0 0 21 12.513c0 .168.032.328.05.491l-1.137.682A6.03 6.03 0 0 0 17 18.831zM19 23v-4.169c0-1.396.744-2.711 1.942-3.43l.778-.467A4.482 4.482 0 0 0 25.487 17H37v6c0 .878-.124 1.738-.37 2.566l-5.902-1.476a3.01 3.01 0 0 0-3.638 2.179 2.973 2.973 0 0 0 .335 2.271 2.966 2.966 0 0 0 1.848 1.369l3.312.828A8.962 8.962 0 0 1 28 32c-4.963 0-9-4.037-9-9zm9 11a10.99 10.99 0 0 0 3.279-.505l.602 3.01L28 38.834l-3.881-2.329.601-3.005c1.036.324 2.138.5 3.28.5zm-5.192 4.051 3.444 2.066-2.851 2.281-1.771-4.133zM47 61h-6V50h-2v11H17V50h-2v11H9V47.098c0-1.771.609-3.509 1.717-4.892a7.82 7.82 0 0 1 4.714-2.813l4.181-.76 2.987 6.969L28 41.281l5.401 4.32 2.986-6.969 4.182.761A7.827 7.827 0 0 1 47 47.098zM56 7h1V5h-1c-1.654 0-3 1.346-3 3s1.346 3 3 3c2.757 0 5-2.243 5-5s-2.243-5-5-5h-.138A6.87 6.87 0 0 0 49 7.862c0 2.3 1.143 4.435 3.056 5.71A6.6 6.6 0 0 1 55 19.073a7.202 7.202 0 0 1-.756 3.202l-2.139 4.277 1.789.895 2.139-4.277A9.205 9.205 0 0 0 57 19.073a8.595 8.595 0 0 0-3.835-7.165A4.853 4.853 0 0 1 51 7.862 4.869 4.869 0 0 1 55.862 3H56c1.654 0 3 1.346 3 3s-1.346 3-3 3a1 1 0 0 1 0-2z"/><path d="M48.292 14H48c-1.654 0-3 1.351-3 3.061 0 .785.306 1.523.861 2.079a2.92 2.92 0 0 0 2.077.86H49v-2h-1.061a.935.935 0 0 1-.664-.275c-.177-.177-.275-.413-.275-.715 0-.557.448-1.01 1-1.01h.292A2.711 2.711 0 0 1 51 18.708a2.696 2.696 0 0 1-1.497 2.423A4.503 4.503 0 0 0 47 25.181V27h2v-1.819c0-.964.535-1.83 1.398-2.261A4.686 4.686 0 0 0 53 18.708 4.713 4.713 0 0 0 48.292 14z"/></g></svg>