<svg height="512" viewBox="0 0 64 64" width="512" xmlns="http://www.w3.org/2000/svg"><path d="M10 54V28.65c-2.5-1.18-4.59-3.09-6-5.44V56c0 2.21 1.79 4 4 4h20v-4c0-1.1.9-2 2-2H20zM60 26.54V18H29.86c-.32 2.21-1.15 4.25-2.37 6H54v30h4c.95 0 1.74.66 1.94 1.54.02 0 .04.01.06.02v-22.1c.3-.17.58-.39.83-.63C61.55 32.1 62 31.1 62 30c0-1.48-.8-2.77-2-3.46z" fill="#ccd1d9"/><path d="M54 24H27.49c-1.79 2.57-4.42 4.5-7.49 5.42-1.27.38-2.61.58-4 .58-2.14 0-4.18-.48-6-1.35V54h44z" fill="#ffeaa7"/><path d="M60 18H29.86c.09-.65.14-1.32.14-2 0-2.97-.93-5.73-2.51-8H56c2.21 0 4 1.79 4 4z" fill="#b4dd7f"/><path d="M38 54v8h-8c-1.1 0-2-.9-2-2v-4c0-1.1.9-2 2-2z" fill="#dfb28b"/><path d="M56 54v8H38v-8h16z" fill="#e6e9ed"/><path d="M60 55.56c1.14.23 2 1.23 2 2.44 0 1.23-.89 2.25-2.06 2.46-.2.88-.99 1.54-1.94 1.54h-2v-8h2c.95 0 1.74.66 1.94 1.54.02 0 .04.01.06.02z" fill="#ff826e"/><path d="M27.49 8c1.58 2.27 2.51 5.03 2.51 8 0 .68-.05 1.35-.14 2-.32 2.21-1.15 4.25-2.37 6-1.79 2.57-4.42 4.5-7.49 5.42-1.27.38-2.61.58-4 .58-2.14 0-4.18-.48-6-1.35-2.5-1.18-4.59-3.09-6-5.44C2.73 21.1 2 18.63 2 16 2 8.27 8.27 2 16 2c4.75 0 8.96 2.37 11.49 6z" fill="#fcd770"/><g><circle cx="16" cy="16" fill="#69d6f4" r="10"/></g><g><path d="M16 27c6.065 0 11-4.935 11-11S22.065 5 16 5 5 9.935 5 16s4.935 11 11 11zM15 7.059V9h2V7.059A9.011 9.011 0 0 1 24.941 15H23v2h1.941A9.011 9.011 0 0 1 17 24.941V23h-2v1.941A9.011 9.011 0 0 1 7.059 17H9v-2H7.059A9.011 9.011 0 0 1 15 7.059z"/><path d="M19 15h-2v-4h-2v6h4z"/><path d="M61 54.853V33.974c1.207-.914 2-2.348 2-3.974s-.793-3.061-2-3.974V12c0-2.757-2.243-5-5-5H27.972C25.232 3.365 20.893 1 16 1 7.729 1 1 7.729 1 16c0 2.713.735 5.253 2 7.452V56c0 2.757 2.243 5 5 5h19.184A2.996 2.996 0 0 0 30 63h28a2.982 2.982 0 0 0 2.711-1.721A3.492 3.492 0 0 0 63 58a3.482 3.482 0 0 0-2-3.147zM58 33a1 1 0 0 1 0-2h1v-2h-1c-1.654 0-3 1.346-3 3s1.346 3 3 3c.342 0 .677-.035 1-.101v18.278A3 3 0 0 0 58 53h-3v-5l.707.707 1.149-1.149A7.274 7.274 0 0 0 59 42.382a7.305 7.305 0 0 0-3.26-6.09l-.575-.384A4.853 4.853 0 0 1 53 31.862 4.869 4.869 0 0 1 57.862 27H58c1.654 0 3 1.346 3 3s-1.346 3-3 3zm-42-2c1.027 0 2.03-.105 3-.302V33h-8v-2.875c1.567.556 3.245.875 5 .875zm11.972-6H29v8h-8v-2.875A15.044 15.044 0 0 0 27.972 25zM53 27.025a6.84 6.84 0 0 0-2 4.837c0 .386.044.764.106 1.138H41v-8h12zM41 53v-8h7.092A3.453 3.453 0 0 0 47 47.528 3.477 3.477 0 0 0 50.472 51H52v-2h-1.528a1.473 1.473 0 0 1-.659-2.788l.586-.292C52.003 45.116 53 43.497 53 41.623A4.628 4.628 0 0 0 48.378 37H48c-1.654 0-3 1.346-3 3s1.346 3 3 3h-7v-8h10.764c.32.621.738 1.188 1.236 1.689V53zm7-12a1 1 0 0 1 0-2h.378C49.824 39 51 40.177 51 41.694c0 .471-.131.913-.346 1.306H49v-2zm-37-6h8v8h-8zm10 0h8v8h-8zm10 0h8v8h-8zm24 3.236a5.299 5.299 0 0 1 2 4.145 5.285 5.285 0 0 1-1.558 3.762l-.442.443zM39 33h-8v-8h8zM11 45h8v8h-8zm10 0h8v8h-8zm10 0h8v8h-8zm24 10v6H39v-6zm3-30h-.138c-1.022 0-1.99.231-2.862.633V23H29.257a14.9 14.9 0 0 0 1.441-4H59v6.101A4.995 4.995 0 0 0 58 25zM56 9c1.654 0 3 1.346 3 3v5H30.949c.022-.332.051-.662.051-1a14.9 14.9 0 0 0-1.743-7zM16 3c7.168 0 13 5.832 13 13s-5.832 13-13 13S3 23.168 3 16 8.832 3 16 3zM5 56V26.164a15.093 15.093 0 0 0 4 3.093V55h18.171c-.11.313-.171.649-.171 1v3H8c-1.654 0-3-1.346-3-3zm24 4v-4a1 1 0 0 1 1-1h7v6h-7a1 1 0 0 1-1-1zm30.767-.529-.647.116-.149.641A.995.995 0 0 1 58 61h-1v-6h1c.465 0 .863.317.97.772l.03.13V56h.023l.096.413.647.116a1.495 1.495 0 0 1 .001 2.942z"/></g></svg>