<svg height="512" viewBox="0 0 62.265 62" width="512" xmlns="http://www.w3.org/2000/svg"><path d="M48.225 11.11v9.47c0 8.42-4.07 16.32-10.93 21.21-1.29.46-2.64.8-4.03.99v-12.5c.93.47 1.96.72 3 .72 1.38 0 2.63-.56 3.54-1.46a5.022 5.022 0 0 0 0-7.08c-.91-.9-2.16-1.46-3.54-1.46-1.04 0-2.07.25-3 .72V19c0-2.21-1.79-4-4-4h-22c-1.1 0-2-.9-2-2 0-3.32 1.34-6.32 3.51-8.49S13.945 1 17.265 1h13c7.61 0 14.28 4.05 17.96 10.11z" fill="#656d78"/><path d="M32.545 42.88c.46.67.72 1.49.72 2.36 0 1.13-.45 2.21-1.24 3l-5.59 5.59c-.75.75-1.77 1.17-2.83 1.17h-7.34c-.55 0-1-.45-1-1v-7h6l4-4 .76-.76a4.246 4.246 0 0 1 6 0c.19.2.37.41.52.64z" fill="#ff826e"/><path d="M33.265 45.24V55h-3c-.55 0-1 .45-1 1v4c0 .55.45 1 1 1h-11v-6h4.34c1.06 0 2.08-.42 2.83-1.17l5.59-5.59c.79-.79 1.24-1.87 1.24-3z" fill="#ff826e"/><path d="M39.265 55h12v6h-12z" fill="#cf9e76"/><path d="M56.245 57.49a1.854 1.854 0 0 1-.83 3.51h-4.15v-6h2c1.1 0 2 .9 2 2z" fill="#ff826e"/><path d="M39.265 55v6h-9c-.55 0-1-.45-1-1v-4c0-.55.45-1 1-1h3z" fill="#ccd1d9"/><path d="m11.925 52.98 1.34 4.02-2.05.68c-.6.2-1.07.67-1.27 1.27l-.05.15a2.771 2.771 0 0 1-5.26 0l-.05-.15c-.2-.6-.67-1.07-1.27-1.27L1.265 57l3.37-10.1a2.771 2.771 0 0 1 5.26 0l.31.92-.06.06c-.54.54-.88 1.29-.88 2.12 0 1.55 1.16 2.81 2.66 2.98z" fill="#ffeaa7"/><path d="M15.265 47v6h-3a2.992 2.992 0 0 1-3-3c0-.83.34-1.58.88-2.12l.06-.06c.53-.5 1.26-.82 2.06-.82zM33.265 30.28v12.5l-.72.1c-.15-.23-.33-.44-.52-.64a4.246 4.246 0 0 0-6 0l-.76.76h-8c-3.31 0-6-2.69-6-6h8c1.1 0 2-.9 2-2v-2c0-1.1-.9-2-2-2h-8V15h18c2.21 0 4 1.79 4 4v2.72c.93-.47 1.96-.72 3-.72 1.38 0 2.63.56 3.54 1.46a5.022 5.022 0 0 1 0 7.08c-.91.9-2.16 1.46-3.54 1.46-1.04 0-2.07-.25-3-.72z" fill="#f0d0b4"/><g><path d="M34.265 27.236a2.222 2.222 0 0 1 2-1.236v-2a4.212 4.212 0 0 0-3.789 2.342l-.105.211 1.789.895zM19.558 18.293 15.851 22l3.707 3.707 1.414-1.414L18.679 22l2.293-2.293zM.265 32h6v2h-6zM2.554 25.705l1.414-1.414 5 4.999-1.414 1.414zM2.554 40.289l5-5 1.413 1.415-4.999 4.999z"/><path d="m56.688 56.593-.494-.247A3.006 3.006 0 0 0 53.265 54h-19v-8.758a5.17 5.17 0 0 0-.264-1.56 21.936 21.936 0 0 0 2.532-.592 7.692 7.692 0 0 0 5.012 5.39l7.403 2.468.633-1.896-7.403-2.468a5.716 5.716 0 0 1-3.913-5.43 5.689 5.689 0 0 1 3.164-5.118l3.812-1.905a5.444 5.444 0 0 0 3.025-4.895 5.495 5.495 0 0 0-2.189-4.378L42.532 22.2a5.694 5.694 0 0 1-2.267-4.533A5.673 5.673 0 0 1 45.932 12h1.333c1.654 0 3 1.346 3 3s-1.346 3-3 3a1.001 1.001 0 0 1 0-2h1v-2h-1c-1.654 0-3 1.346-3 3s1.346 3 3 3c2.757 0 5-2.243 5-5 0-2.187-1.42-4.03-3.38-4.707C44.827 3.844 37.897 0 30.265 0h-13c-7.168 0-13 5.832-13 13 0 1.654 1.346 3 3 3h3v16h9c.551 0 1 .448 1 1v2c0 .552-.449 1-1 1h-9v1c0 3.859 3.14 7 7 7h5.586l-2 2h-8.586c-.544 0-1.062.111-1.535.308A3.761 3.761 0 0 0 7.265 44a3.77 3.77 0 0 0-3.581 2.581L0 57.633l3 .999c.297.1.534.336.632.632l.052.155C4.199 60.963 5.638 62 7.265 62s3.066-1.037 3.582-2.582l.051-.153c.099-.297.335-.533.632-.633l3-.999L13.319 54h.946c0 1.103.897 2 2 2h2v6h37.146a2.857 2.857 0 0 0 2.854-2.854 2.84 2.84 0 0 0-1.577-2.553zm-45.791.142a3.017 3.017 0 0 0-1.898 1.897l-.051.153C8.707 59.513 8.03 60 7.265 60s-1.442-.487-1.683-1.213l-.052-.155a3.011 3.011 0 0 0-1.898-1.896l-1.102-.369 3.051-9.153C5.823 46.487 6.5 46 7.265 46s1.442.487 1.684 1.214l.131.393A3.956 3.956 0 0 0 8.265 50c0 1.817 1.225 3.337 2.887 3.823L12 56.367zM14.265 52h-2c-1.103 0-2-.897-2-2s.897-2 2-2h2zm36 4v4h-10v-4zm-5.389-29.542a3.488 3.488 0 0 1 1.389 2.778 3.452 3.452 0 0 1-1.919 3.105l-3.812 1.905a7.673 7.673 0 0 0-4.263 6.827c-.659.207-1.328.38-2.006.518V31.72a7.585 7.585 0 0 0 2 .279c3.309 0 6-2.691 6-6 0-.585-.088-1.149-.245-1.684zM6.265 13c0-6.065 4.935-11 11-11h13c6.384 0 12.224 2.961 15.992 8h-.326c-4.228 0-7.667 3.439-7.667 7.667 0 1.018.217 2.012.601 2.935a5.935 5.935 0 0 0-2.6-.602c-.682 0-1.352.103-2 .279V19c0-2.757-2.243-5-5-5h-22c-.551 0-1-.448-1-1zm11 29a5.008 5.008 0 0 1-4.899-4h6.899c1.654 0 3-1.346 3-3v-2c0-1.654-1.346-3-3-3h-7V16h17c1.654 0 3 1.346 3 3v2.154c-.071.044-.149.077-.219.124l-1.336.891 1.109 1.664 1.336-.891a5.58 5.58 0 0 1 3.11-.942c2.206 0 4 1.794 4 4s-1.794 4-4 4a5.582 5.582 0 0 1-3.109-.941l-1.336-.891-1.109 1.664 1.336.891c.07.047.147.079.219.124v10.309C31.37 40.443 30.252 40 29.022 40a5.212 5.212 0 0 0-3.707 1.535l-.464.465zm-1 6h4.586l1.707 1.707 1.414-1.414L22.679 47l4.05-4.05a3.223 3.223 0 0 1 2.293-.95 3.246 3.246 0 0 1 3.243 3.242c0 .867-.337 1.681-.95 2.293l-5.586 5.586a3.017 3.017 0 0 1-2.121.879h-7.343zm12 8v4h-8v-4h3.343a4.968 4.968 0 0 0 3.535-1.465l5.122-5.121V54h-2c-1.103 0-2 .897-2 2zm2 0h8v4h-8zm25.146 4h-3.146v-4h1c.551 0 1 .448 1 1v.618l1.527.764A.855.855 0 0 1 55.411 60z"/><path d="m55.399 39.051 4.249-2.124a4.712 4.712 0 0 0 2.617-4.235 4.73 4.73 0 0 0-3.238-4.492l-.446-.148-.631 1.898.445.147a2.732 2.732 0 0 1 1.87 2.595c0 1.043-.579 1.98-1.512 2.446l-4.25 2.124a4.03 4.03 0 0 0-2.239 3.624 4.07 4.07 0 0 0 2.629 3.793l2.504.939a4.44 4.44 0 0 1 2.867 4.138 4.45 4.45 0 0 1-1.294 3.124l-1.413 1.413 1.414 1.414 1.412-1.413a6.37 6.37 0 0 0 1.881-4.539 6.45 6.45 0 0 0-4.165-6.01l-2.504-.939a2.059 2.059 0 0 1-1.331-1.92 2.043 2.043 0 0 1 1.135-1.835zM57.496 17.149c.503.755.769 1.633.769 2.54a4.547 4.547 0 0 1-1.341 3.237l-1.366 1.366 1.414 1.414 1.366-1.366a6.533 6.533 0 0 0 1.927-4.651 6.553 6.553 0 0 0-1.105-3.649l-2.418-3.628a2.83 2.83 0 0 1-.477-1.574A2.841 2.841 0 0 1 59.103 8h.162a1.001 1.001 0 0 1 0 2h-1v2h1c1.654 0 3-1.346 3-3s-1.346-3-3-3h-.162a4.844 4.844 0 0 0-4.838 4.838c0 .958.281 1.886.813 2.684z"/><path d="M50.265 25.733c0 1.027.301 2.021.871 2.875l.426.64a4.17 4.17 0 0 1 .703 2.322 4.178 4.178 0 0 1-1.506 3.217l-2.503 2.085a5.52 5.52 0 0 0-1.991 4.251c0 1.478.576 2.867 1.621 3.911l1.672 1.673 1.414-1.414L49.3 43.62a3.51 3.51 0 0 1-1.035-2.497c0-1.052.463-2.041 1.271-2.714l2.503-2.086a6.172 6.172 0 0 0 2.226-4.753 6.166 6.166 0 0 0-1.039-3.432l-.426-.64a3.17 3.17 0 0 1-.535-1.766c0-.851.332-1.65.933-2.252l1.774-1.774-1.414-1.414-1.775 1.774a5.158 5.158 0 0 0-1.518 3.667z"/></g></svg>