<svg height="512" viewBox="0 0 512.003 512.003" width="512" xmlns="http://www.w3.org/2000/svg"><g clip-rule="evenodd" fill-rule="evenodd"><ellipse cx="41.745" cy="453.079" fill="#ddb9a3" rx="30" ry="50" transform="rotate(-14.98 41.884 452.765)"/><path d="M28.804 404.783c16.004-4.288 34.771 13.859 41.918 40.532s-.032 51.773-16.037 56.061l201.316-53.943 186.021-49.844a18.633 18.633 0 0 0 5.361-2.403c12.158-7.919 16.967-30.179 10.676-53.658-7.147-26.673-25.914-44.82-41.918-40.532l-23.752 6.364-82.163 22.016-54.224 14.529-191.378 51.28z" fill="#c68a65"/><path d="M447.383 395.186c-.001 0-.002.001 0 0zm-5.361 2.403-186.021 49.844 201.316 53.943c-16.004-4.289-23.184-29.388-16.037-56.061s25.914-44.82 41.918-40.532l-35.816-9.597a18.615 18.615 0 0 1-5.36 2.403z" fill="#d1a184"/><ellipse cx="470.258" cy="453.079" fill="#ddb9a3" rx="50" ry="30" transform="rotate(-74.99 470.348 453.025)"/><path d="m64.624 395.185 191.377-51.279-66.264-17.755-64.132-17.184-29.743-7.97c-16.004-4.288-34.772 13.859-41.919 40.532-6.291 23.48-1.479 45.738 10.681 53.656z" fill="#d1a184"/><path d="m189.737 326.15 66.264 17.755 54.224-14.529c17.404-70.967-14.271-118.448-37.775-140.595 7 58.5-42 94-42 94-17.5-13-19.5-40-19.5-40-22.883 22.883-31.105 47.861-21.213 83.369z" fill="#ff9346"/><path d="M189.737 326.15c-9.892-35.508-1.67-60.486 21.213-83.369 0 0 2 27 19.5 40 0 0 49-35.5 42-94 23.504 22.148 55.179 69.628 37.775 140.595l82.163-22.016c39.655-106.202-25.55-195.859-25.55-195.859-8 44.5-45 62.5-45 62.5 30.5-136.5-71.5-164-71.5-164 45.486 82.769-33 75.491-33 165 0-36.62-11-64-44.5-86.5 24.723 99.843-115.116 106.555-47.232 220.465z" fill="#ffc144"/></g><path d="M509.514 421.668c-3.975-13.895-12.623-23.57-23.728-26.545l-20.891-5.598a49.788 49.788 0 0 0 3.442-8.823c3.52-12.306 3.3-27.138-.619-41.763-8.708-32.498-32.502-53.409-54.165-47.603l-6.03 1.616c13.909-50.506 6.157-95.967-3.548-126.47-11.694-36.755-28.346-59.895-29.049-60.862a10 10 0 0 0-17.929 4.111c-3.362 18.702-12.411 32.089-21.009 41.003 7.06-59.412-12.229-95.86-31.052-116.635C281.546 8.282 254.098.658 252.942.346a9.998 9.998 0 0 0-11.367 14.471c22.371 40.708 12.48 54.12-3.905 76.34-6.754 9.158-14.333 19.437-20.226 32.759-7.911-17.224-20.729-31.424-39.031-43.716a10 10 0 0 0-15.283 10.705c9.876 39.881-9.72 62.993-30.466 87.462-23.772 28.039-50.379 59.44-26.288 115.094l-7.926-2.124c-21.664-5.807-45.458 15.105-54.166 47.604-5.078 18.951-3.755 37.461 2.829 50.584l-20.897 5.599c-11.104 2.975-19.752 12.65-23.727 26.545-3.521 12.306-3.301 27.137.618 41.764 3.919 14.625 11.145 27.58 20.347 36.477 8.155 7.886 17.504 12.08 26.519 12.08 2.47 0 4.914-.315 7.302-.955l.007-.002 198.72-53.247 198.728 53.249c2.432.652 4.889.967 7.35.967 19.465-.001 39.086-19.719 46.816-48.569 3.918-14.627 4.138-29.459.618-41.765zm-90.785-111.013c9.134-2.445 23.746 11.349 29.671 33.461a72.776 72.776 0 0 1 1.188 5.225l-18.461 4.947c-5.335 1.429-8.501 6.913-7.071 12.248 1.197 4.468 5.237 7.414 9.653 7.414.856 0 1.728-.111 2.594-.343l13.943-3.736a41.948 41.948 0 0 1-1.138 5.332c-1.995 6.976-5.521 11.614-9.674 12.727l-358.32 96.012c3.28-11.794 3.281-26.236-.733-41.215-3.86-14.408-10.933-27.186-19.94-36.068zM147.92 191.301c17.852-21.056 37.636-44.394 37.895-79.037 15.072 16.087 21.522 35.587 21.522 62.737 0 5.523 4.478 10 10 10s10-4.478 10-10c0-36.137 13.436-54.355 26.429-71.974 14.246-19.319 27.846-37.764 16.709-72.252 6.498 4.268 13.621 9.974 20.275 17.461 25.951 29.2 33.127 70.78 21.328 123.584a10 10 0 0 0 14.135 11.172c1.405-.684 29.068-14.495 43.528-47.023a234.137 234.137 0 0 1 15.387 37.245c13.619 43.26 13.473 85.572-.408 125.847l-61.557 16.494a177.206 177.206 0 0 0 1.355-10.833c.507-5.5-3.54-10.369-9.039-10.876-5.501-.519-10.369 3.539-10.877 9.039-.557 6.04-1.517 12.217-2.815 18.399l-45.784 12.268-58.015-15.545c-4.764-20.811-2.376-37.691 7.902-53.455 3.4 9.076 9.1 19.2 18.599 26.255a9.999 9.999 0 0 0 11.83.071c1.855-1.345 38.939-28.779 45.757-75.666a127.79 127.79 0 0 1 4.614 7.069c2.865 4.722 9.016 6.229 13.737 3.362 4.722-2.865 6.227-9.015 3.362-13.736-6.8-11.207-15.265-21.721-24.479-30.405a10.001 10.001 0 0 0-16.788 8.466c2.576 21.526-2.892 42.204-16.251 61.461-5.442 7.844-11.178 13.884-15.383 17.839-8.561-11.038-9.95-27.062-9.964-27.228a10 10 0 0 0-17.044-6.332c-22.476 22.476-31.313 47.104-27.247 76.576l-44.44-11.908c-30.829-54.155-10.232-78.456 15.727-109.075zM63.311 345.264l19.065 5.108c.867.232 1.737.343 2.594.343 4.415 0 8.456-2.947 9.653-7.414 1.43-5.335-1.736-10.818-7.071-12.248l-16.603-4.449c6.899-11.435 15.95-17.655 22.325-15.95l124.091 33.25-150.154 40.235c-5.53-6.839-8.225-21.66-3.9-38.875zM22.426 458.256c-2.95-11.014-3.209-22.344-.708-31.087 1.995-6.976 5.521-11.614 9.674-12.727a8.4 8.4 0 0 1 2.185-.278c3.765 0 8.216 2.266 12.557 6.463 6.537 6.321 11.979 16.263 14.93 27.276 5.926 22.113.154 41.37-8.966 43.813-4.145 1.113-9.524-1.142-14.74-6.185-6.538-6.321-11.981-16.263-14.932-27.275zm312.923-21.732c.155.049.305.107.463.15l30.83 8.261c.866.232 1.737.343 2.594.343 4.415 0 8.456-2.947 9.653-7.414 1.263-4.714-1.065-9.539-5.304-11.585l71.024-19.031a27.943 27.943 0 0 0 3.96-1.391l2.991.802c-9.006 8.883-16.08 21.66-19.939 36.068-4.014 14.979-4.013 29.421-.733 41.215l-136.251-36.508zm154.227 21.731c-5.926 22.115-20.565 35.903-29.671 33.461-9.12-2.444-14.892-21.7-8.966-43.814 2.951-11.013 8.393-20.955 14.93-27.275 4.342-4.198 8.791-6.463 12.557-6.463.758 0 1.488.092 2.185.278 4.152 1.113 7.679 5.751 9.674 12.727 2.5 8.743 2.243 20.073-.709 31.086z"/><path d="M301.967 258.881c0 5.523 4.481 10 10.004 10s10-4.477 10-10-4.478-10-10-10h-.008c-5.522 0-9.996 4.477-9.996 10zM125.221 438.999c.856 0 1.728-.111 2.594-.343l22.027-5.902c5.335-1.429 8.501-6.913 7.071-12.247s-6.914-8.501-12.247-7.071l-22.027 5.902c-5.335 1.429-8.501 6.913-7.071 12.247 1.197 4.468 5.237 7.414 9.653 7.414zM277.208 393.95c.856 0 1.728-.111 2.594-.343l22.026-5.902c5.335-1.429 8.501-6.913 7.071-12.248-1.43-5.334-6.913-8.502-12.247-7.071l-22.026 5.902c-5.335 1.429-8.501 6.913-7.071 12.248 1.197 4.468 5.237 7.414 9.653 7.414z"/></svg>