<svg height="511pt" viewBox="1 -17 511.999 511" width="511pt" xmlns="http://www.w3.org/2000/svg"><path d="M465.527 248.375h-42.05v-39.91c0-6.84 5.543-12.383 12.382-12.383h17.286c6.835 0 12.382 5.543 12.382 12.383zm0 0" fill="#38aaff"/><path d="M504.5 322.887c0-51.5-26.863-93.246-60-93.246s-59.996 41.746-59.996 93.246c0 51.496 26.86 93.242 59.996 93.242s60-41.746 60-93.242zm0 0" fill="#4c78a0"/><path d="M504.5 322.883c0 51.5-26.86 93.25-60 93.25-4.64 0-9.16-.82-13.5-2.371 26.64-9.52 46.5-46.59 46.5-90.88 0-44.28-19.86-81.35-46.5-90.87 4.34-1.551 8.86-2.371 13.5-2.371 33.14 0 60 41.75 60 93.242zm0 0" fill="#336686"/><path d="M316.895 469.418H157.289c-15.07 0-27.285-12.215-27.285-27.281V127.8c0-15.067 12.215-27.285 27.285-27.285h159.606c15.07 0 27.285 12.214 27.285 27.285v314.336c0 15.066-12.215 27.281-27.285 27.281zm0 0" fill="#4c78a0"/><path d="M344.176 127.8v314.333c0 15.074-12.215 27.289-27.281 27.289H285.46c15.062 0 27.277-12.215 27.277-27.29V127.802c0-15.063-12.215-27.278-27.277-27.278h31.434c15.066 0 27.28 12.215 27.28 27.278zm0 0" fill="#336686"/><path d="M344.176 127.8v13.942c0 15.063-12.215 27.281-27.281 27.281H157.289c-15.066 0-27.281-12.218-27.281-27.28V127.8c0-15.063 12.215-27.278 27.281-27.278h159.606c15.066 0 27.28 12.215 27.28 27.278zm0 0" fill="#628fb1"/><path d="M344.176 127.8v13.942c0 15.063-12.215 27.281-27.281 27.281h-4.153v-41.222c0-15.063-12.215-27.278-27.281-27.278h31.434c15.066 0 27.28 12.215 27.28 27.278zm0 0" fill="#4c78a0"/><path d="M313.027 77.547c0 38.41-31.136 69.547-69.547 69.547-38.41 0-69.546-31.137-69.546-69.547S205.07 8 243.48 8c38.41 0 69.547 31.137 69.547 69.547zm0 0" fill="#d9efec"/><path d="M290.738 77.547c0 26.098-21.156 47.258-47.258 47.258-26.097 0-47.257-21.16-47.257-47.258 0-26.102 21.16-47.258 47.257-47.258 26.102 0 47.258 21.156 47.258 47.258zm0 0" fill="#38aaff"/><path d="M213.117 247.375c0-24.465-19.832-44.297-44.297-44.297-16.355 0-30.629 8.867-38.3 22.05-7.676-13.183-21.95-22.05-38.301-22.05-24.465 0-44.297 19.832-44.297 44.297 0 61.988 82.598 115.367 82.598 115.367s82.597-53.379 82.597-115.367zm0 0" fill="#f55"/><path d="M213.117 247.375c0 61.988-82.605 115.371-82.605 115.371s-7.2-4.656-17.352-12.809c24.227-19.468 65.25-58.882 65.25-102.562 0-18.305-11.11-34.02-26.953-40.766a44.228 44.228 0 0 1 17.363-3.53c24.461 0 44.297 19.835 44.297 44.296zm0 0" fill="#f72b2b"/><path d="M493.234 252.895c-5.875-9.133-12.718-16.368-20.207-21.528v-22.902c0-10.965-8.922-19.883-19.882-19.883H452v-77.598c0-53.902-43.852-97.754-97.754-97.754-18.516 0-36.27 5.11-51.773 14.829C288.328 11.223 267.137.5 243.48.5c-42.48 0-77.046 34.563-77.046 77.047 0 5.297.539 10.469 1.562 15.469H157.29c-19.18 0-34.785 15.605-34.785 34.785v77.597c-8.7-6.27-19.277-9.82-30.29-9.82-28.558 0-51.796 23.234-51.796 51.797 0 27.738 14.617 56.73 43.441 86.176 15.844 16.183 31.528 27.828 38.645 32.812v21.262c0 4.14 3.36 7.5 7.5 7.5s7.5-3.36 7.5-7.5v-20.55c6.172-4.266 21.21-15.208 36.898-30.74a7.5 7.5 0 0 0 .051-10.605 7.497 7.497 0 0 0-10.605-.054c-13.563 13.433-26.856 23.386-33.328 27.972C114.328 342.172 55.418 297 55.418 247.375c0-20.29 16.508-36.797 36.797-36.797 13.047 0 25.242 7.02 31.82 18.324a7.5 7.5 0 0 0 12.965 0c6.578-11.304 18.77-18.324 31.816-18.324 20.29 0 36.797 16.504 36.797 36.797 0 16.746-6.789 34.684-20.18 53.316a7.501 7.501 0 0 0 1.712 10.47 7.501 7.501 0 0 0 10.468-1.716c15.262-21.238 23-42.12 23-62.07 0-28.563-23.238-51.797-51.797-51.797-11.453 0-22.425 3.852-31.312 10.598v-35.852a34.565 34.565 0 0 0 19.781 6.196h115.613v285.398H157.29c-10.91 0-19.785-8.875-19.785-19.781V421.8a7.5 7.5 0 1 0-15 0v20.336c0 19.18 15.605 34.781 34.785 34.781h159.606c19.18 0 34.785-15.602 34.785-34.781V234.8c0-4.14-3.36-7.5-7.5-7.5-4.14 0-7.5 3.36-7.5 7.5v207.336c0 10.906-8.875 19.781-19.785 19.781h-28.993V176.52h28.993a34.577 34.577 0 0 0 19.785-6.196v30.301c0 4.14 3.36 7.5 7.5 7.5 4.14 0 7.5-3.36 7.5-7.5v-72.824c0-18.489-14.5-33.649-32.727-34.719a77.131 77.131 0 0 0 1.574-15.535 76.554 76.554 0 0 0-9.554-37.113c12.992-8 27.816-12.204 43.277-12.204 45.629 0 82.754 37.125 82.754 82.754v77.598h-1.145c-10.964 0-19.882 8.918-19.882 19.883v22.902c-7.493 5.16-14.332 12.395-20.207 21.528-12.102 18.804-18.766 43.664-18.766 69.992s6.664 51.183 18.766 69.992c12.761 19.832 30.066 30.75 48.734 30.75 18.664 0 35.969-10.918 48.73-30.75C505.336 374.07 512 349.215 512 322.887s-6.664-51.188-18.766-69.992zM243.48 15.5c34.211 0 62.047 27.832 62.047 62.047 0 34.21-27.836 62.043-62.047 62.043-34.21 0-62.046-27.832-62.046-62.043 0-34.215 27.836-62.047 62.046-62.047zm-86.19 92.516h15.44a77.148 77.148 0 0 0 11.961 19.254h-47.16c.285-10.66 9.028-19.254 19.758-19.254zm159.605 0c10.91 0 19.785 8.875 19.785 19.785v13.937c0 10.91-8.875 19.782-19.785 19.782H157.289c-10.73 0-19.473-8.59-19.758-19.25h64.23c12.036 7.785 26.352 12.324 41.72 12.324 15.367 0 29.687-4.54 41.718-12.324h23.086c4.14 0 7.5-3.36 7.5-7.5s-3.36-7.5-7.5-7.5h-6.015a77.21 77.21 0 0 0 11.964-19.25h2.66zm114.082 100.449a4.89 4.89 0 0 1 4.882-4.883h17.286a4.89 4.89 0 0 1 4.882 4.883v15.644a47.501 47.501 0 0 0-13.527-1.968c-4.605 0-9.129.668-13.523 1.968zm49.644 176.297c-9.906 15.39-22.734 23.867-36.121 23.867s-26.21-8.477-36.117-23.867c-10.563-16.418-16.38-38.39-16.38-61.875s5.817-45.461 16.38-61.88c9.906-15.39 22.73-23.866 36.117-23.866s26.215 8.476 36.121 23.867C491.184 277.426 497 299.402 497 322.887s-5.816 45.457-16.379 61.875zm0 0"/><path d="M243.48 132.305c30.196 0 54.758-24.563 54.758-54.758s-24.562-54.758-54.758-54.758c-30.19 0-54.757 24.563-54.757 54.758s24.566 54.758 54.757 54.758zm0-94.516c21.922 0 39.758 17.832 39.758 39.758 0 21.922-17.836 39.758-39.758 39.758s-39.757-17.836-39.757-39.758c0-21.926 17.836-39.758 39.757-39.758zm0 0"/><path d="M243.48 66.605a7.5 7.5 0 0 0 7.5-7.5v-9.367a7.5 7.5 0 1 0-15 0v9.367c0 4.141 3.36 7.5 7.5 7.5zM270.719 85.047h.176a7.5 7.5 0 0 0 .066-15h-.113c-4.114-.063-7.528 3.289-7.563 7.433-.039 4.141 3.293 7.528 7.434 7.567zM243.36 110.055l.113.004h.066a7.5 7.5 0 0 0 .063-15l-.11-.004h-.066a7.501 7.501 0 0 0-.067 15zM218.922 85.047h.066a7.5 7.5 0 0 0 .067-15h-.114c-4.148-.063-7.527 3.289-7.566 7.433a7.499 7.499 0 0 0 7.434 7.563zM444.5 255.602c-4.14 0-7.5 3.359-7.5 7.5v117.945a7.5 7.5 0 1 0 15 0V263.102a7.5 7.5 0 0 0-7.5-7.5zM18.918 259.32h.059a7.5 7.5 0 0 0 .059-15l-11.477-.086H7.5a7.5 7.5 0 0 0-.059 15zM20.04 272.785l-9.985 5.664a7.5 7.5 0 1 0 7.402 13.047l9.98-5.664a7.497 7.497 0 0 0 2.825-10.223 7.502 7.502 0 0 0-10.223-2.824zM27.95 217.941l-9.895-5.816c-3.57-2.094-8.168-.902-10.266 2.668a7.506 7.506 0 0 0 2.668 10.27l9.895 5.812c1.195.7 2.5 1.031 3.793 1.031a7.497 7.497 0 0 0 3.805-13.965zM262.742 251.676a7.5 7.5 0 0 0-7.5-7.442h-.058l-11.477.086a7.5 7.5 0 0 0 .059 15h.054l11.477-.086a7.5 7.5 0 0 0 7.445-7.558zM252.684 278.45l-9.98-5.665a7.5 7.5 0 0 0-10.224 2.824 7.496 7.496 0 0 0 2.82 10.223l9.985 5.664a7.442 7.442 0 0 0 3.692.977 7.488 7.488 0 0 0 6.53-3.801 7.497 7.497 0 0 0-2.823-10.223zM244.684 212.125l-9.895 5.816a7.5 7.5 0 0 0-2.668 10.266 7.502 7.502 0 0 0 10.266 2.668l9.898-5.813a7.506 7.506 0 0 0 2.668-10.269 7.506 7.506 0 0 0-10.27-2.668zm0 0"/></svg>