<svg height="512pt" viewBox="-73 0 512 512.001" width="512pt" xmlns="http://www.w3.org/2000/svg"><path d="M230.734 156.508a57.229 57.229 0 0 1 9.426-.778c31.371 0 56.8 25.43 56.8 56.801 0 5.914-.905 11.617-2.581 16.98 0 0-12.61 27.536-16.461 30.454-3.852 2.918-55.586 13.82-72.148-5.207-16.56-19.031-28.364-51.457-28.364-51.457zm0 0" fill="#fe8f8d"/><path d="M250.746 83.016c-14.71-30.91-40.383-51.383-69.598-51.383-35.09 0-65.074 29.543-77.085 71.23v69.567l59.421 28.5zm0 0" fill="#ff5d5d"/><path d="M209.402 217.535s-1.199-99.207 92.305-96.027V83.414S146.84 70.633 146.84 189.704zM103.215 170.098V74.227c0-7.028-5.7-12.727-12.727-12.727H63.344c-7.028 0-12.727 5.7-12.727 12.727V181.52zm0 0" fill="#72d8ff"/><path d="M238.887 232.074s-17.535-17.531-77.438-24.105c-47.48-45.293-92.773-51.137-127.836-11.14-35.066 39.995-25.203 111.218-8.039 139.71 9.504 25.254 12.461 43.11 38.399 73.602 35.476 41.703 83.586 70.699 136.87 83.28l26.5 6.255a86.833 86.833 0 0 0 71.164-14.387l6.763-4.941a123.198 123.198 0 0 0 50.207-90.649 198.931 198.931 0 0 0-16.801-95.414l-7.38-16.512c-15.429-34.52-52.776-54.035-89.784-46.27-.867.18-1.742.372-2.625.571zm0 0" fill="#ff5d5d"/><path d="M335.832 313.68c.012.023.023.047.031.066 1.7 3.805 5.305 6.035 9.13 6.035 1.366 0 2.76-.285 4.105-.883 5.117-2.273 7.328-8.105 5.039-13.277-2.285-5.172-8.09-7.457-13.215-5.203-5.125 2.258-7.36 8.082-5.09 13.262zm0 0"/><path d="M363.422 342.824c-.86-5.453-5.98-9.18-11.438-8.312-5.453.86-9.175 5.98-8.312 11.437a189.372 189.372 0 0 1 1.828 43.035c-2.39 33.262-19.203 63.618-46.129 83.29l-6.762 4.937C279.363 486.887 263.695 492 247.293 492a76.927 76.927 0 0 1-17.652-2.055l-26.5-6.257c-51.22-12.094-97.938-40.516-131.551-80.028-14.942-17.566-21.68-30.344-26.856-43.504a9.94 9.94 0 0 0 .368-4.258c-.055-.43-4.977-43.62 55.933-71.347 41.774-19.016 61.317-51.535 68.117-65.555 45.797 6.32 61.559 19.211 62.73 20.223 2.419 2.562 5.755 3.39 9.208 2.61a167.63 167.63 0 0 1 2.476-.54c32.043-6.726 65.094 10.34 78.602 40.563 2.254 5.043 8.168 7.304 13.21 5.05 5.044-2.254 7.302-8.168 5.052-13.21-7.653-17.114-20.52-31.524-36.54-41.098.008-.035.024-.067.036-.102a66.78 66.78 0 0 0 3.035-19.965c0-1.363-.055-2.714-.133-4.058h6.938c5.52 0 10-4.477 10-10s-4.48-10-10-10H302.46a66.845 66.845 0 0 0-10.594-18.18l4.528-4.527c3.906-3.907 3.906-10.239 0-14.145-3.907-3.902-10.235-3.902-14.141 0l-5.234 5.235a66.42 66.42 0 0 0-27.52-10.457c13.25-10.598 30.656-15.618 51.867-14.895a9.985 9.985 0 0 0 7.293-2.805 9.99 9.99 0 0 0 3.047-7.187V83.414a9.998 9.998 0 0 0-9.176-9.965c-1.62-.133-20.347-1.558-44.695 1.371C246.949 53.754 231.625 38.105 214 29.418l7.078-10.566c3.074-4.59 1.844-10.801-2.746-13.872-4.586-3.074-10.797-1.847-13.871 2.743l-10.133 15.129a72.598 72.598 0 0 0-13.18-1.223 72.5 72.5 0 0 0-7.664.414V10c0-5.523-4.476-10-10-10s-10 4.477-10 10v17.102c-9.382 3.82-18.27 9.59-26.386 17.23-6.075 5.715-11.54 12.324-16.332 19.656-3.75-7.398-11.43-12.488-20.278-12.488H63.344c-12.532 0-22.727 10.195-22.727 22.727v102.222c-5.031 3.91-9.883 8.492-14.523 13.785C4.172 215.238-.191 248.004.008 271.086c.226 26.11 6.539 52.727 16.515 69.793 1.508 4.039 2.864 7.934 4.18 11.71 6.723 19.274 13.07 37.481 35.652 64.028 36.356 42.738 86.852 73.469 142.192 86.535l26.496 6.258a96.965 96.965 0 0 0 22.25 2.59c20.672 0 40.422-6.445 57.11-18.637l6.761-4.937c31.688-23.149 51.473-58.867 54.285-98.008a209.165 209.165 0 0 0-2.027-47.594zM241.39 221.332c-4.032-2.805-10.903-6.8-21.641-10.809.828-9.625 3.621-27.761 13.012-44.207a47.721 47.721 0 0 1 7.398-.586c25.805 0 46.8 20.997 46.8 46.801 0 3.973-.503 7.895-1.48 11.696-14.195-4.602-29.398-5.637-44.09-2.895zm50.316-128.277v18.5c-24.773 1.074-45.21 9.347-60.86 24.652-21.976 21.504-28.605 51.375-30.593 68.348-9.566-2.387-20.926-4.54-34.367-6.145a225.214 225.214 0 0 0-9.082-7.98c.015-.242.035-.48.035-.727 0-26.86 8.68-48.484 25.793-64.27 32.547-30.019 87.418-32.59 109.074-32.378zM181.148 41.629c5.012 0 9.95.738 14.754 2.14l.016.004c15.937 4.657 30.375 16.754 40.98 34.528-23.246 5.012-48.398 14.539-67.765 32.375-18.442 16.98-29.051 39.043-31.653 65.71-8.183-5.077-16.28-8.98-24.265-11.687v-57.824c.172-.402.332-.812.457-1.242 11.027-38.281 38.144-64.004 67.476-64.004zM60.618 74.227a2.729 2.729 0 0 1 2.726-2.727h27.144a2.729 2.729 0 0 1 2.727 2.727v86.168a75.538 75.538 0 0 0-9.98-.223 70.627 70.627 0 0 0-22.618 4.77zM41.132 203.422c12.926-14.746 27.39-22.574 42.992-23.27 19.895-.89 42.785 9.922 66.395 31.313-6.106 11.98-23.094 39.098-57.77 54.883-38.27 17.418-54.605 41.05-61.574 57.804-.117.286-.227.563-.344.844-12.64-28.004-19.437-87.656 10.3-121.574zm0 0"/><path d="M126.82 402.168c-4.25-3.527-10.554-2.938-14.082 1.312-3.523 4.25-2.937 10.555 1.313 14.079 27.05 22.445 59.449 38.578 93.687 46.664.774.183 1.547.27 2.309.27 4.531 0 8.637-3.102 9.723-7.704 1.27-5.375-2.06-10.762-7.434-12.031-31.254-7.38-60.824-22.11-85.516-42.59zM87.867 376.637c-4.176 3.617-4.648 9.902-1.035 14.074a9.982 9.982 0 0 0 7.691 3.598 9.943 9.943 0 0 0 6.395-2.317c4.242-3.535 4.816-9.84 1.281-14.082l-.203-.238c-3.617-4.176-9.957-4.652-14.129-1.035zm0 0"/></svg>