<svg height="512" viewBox="0 0 62 62" width="512" xmlns="http://www.w3.org/2000/svg"><path d="M15.83 28.66c.11.22.17.47.17.72 0 .9-.72 1.62-1.62 1.62H11v-6h3z" fill="#aab2bd"/><path d="M6 25h5v12.05c0 1.08-.87 1.95-1.95 1.95h-5.1A1.95 1.95 0 0 1 2 37.05c0-.66.33-1.27.87-1.63l1.26-.84c.54-.36.87-.97.87-1.63V24.9c.32.07.66.1 1 .1z" fill="#e6e9ed"/><path d="M9 15H6c-2.76 0-5 2.24-5 5 0 1.38.56 2.63 1.46 3.54A5.005 5.005 0 0 0 6 25h19V15z" fill="#e6e9ed"/><path d="M17 15v2c0 1.1-.9 2-2 2h-4c-1.1 0-2-.9-2-2v-2z" fill="#ccd1d9"/><path d="M58.49 47.87c.25 2-1.73 2.25-1.48 4.25v.04c0 1.56-1.26 2.84-2.83 2.84H48v-6c1.1 0 2-.9 2-2v-7c0-.73-.16-1.43-.44-2.06 1.94-.19 3.81-.85 5.44-1.94l.01.12c.25 2 2.23 1.75 2.48 3.75s-1.73 2.25-1.48 4.25 2.23 1.75 2.48 3.75zM42 35l8-10c.83 0 1.58-.34 2.12-.88a2.993 2.993 0 0 0 0-4.24c-.54-.54-1.29-.88-2.12-.88h-1v-1c0-2.76-2.24-5-5-5h-8l-.98.2a4.955 4.955 0 0 0-3.22 2.2l-1.24-.62A6.441 6.441 0 0 1 27 9.02c0-2.22.9-4.22 2.34-5.68A8.014 8.014 0 0 1 35 1h9.68C53.69 1 61 8.31 61 17.32c0 3.24-.96 6.34-2.66 8.94-1.3 1.99-3.05 3.71-5.13 4.98-.63.39-1.3.74-1.99 1.04L45 35h-1.28z" fill="#656d78"/><path d="M53.21 31.24c1.15 1.31 1.79 3 1.79 4.76a11.86 11.86 0 0 1-5.44 1.94c-.25-.55-.6-1.05-1.02-1.48-.91-.9-2.16-1.46-3.54-1.46l6.22-2.72c.69-.3 1.36-.65 1.99-1.04z" fill="#fcd770"/><path d="M50 40v7c0 1.1-.9 2-2 2h-6c-1.1 0-2-.9-2-2v-7c0-2.76 2.24-5 5-5 1.38 0 2.63.56 3.54 1.46.42.43.77.93 1.02 1.48.28.63.44 1.33.44 2.06z" fill="#ff826e"/><path d="M48 55v6h-6V49h6z" fill="#f0d0b4"/><path d="M43.72 35H45c-2.76 0-5 2.24-5 5v7c0 1.1.9 2 2 2v12H32V46.72c0-5.18 3.39-9.74 8.35-11.23 1.09-.32 2.23-.49 3.37-.49z" fill="#ff826e"/><path d="M52.12 19.88c-.54-.54-1.29-.88-2.12-.88h-1v-1c0-2.76-2.24-5-5-5h-8l-.98.2a4.955 4.955 0 0 0-3.22 2.2c-.51.78-.8 1.71-.8 2.7V25h12l-1 10 8-10c.83 0 1.58-.34 2.12-.88a2.993 2.993 0 0 0 0-4.24z" fill="#f0d0b4"/><path d="M2 59V45c0-1.1.9-2 2-2h12v-2.67a1.336 1.336 0 0 1 2.4-.8L21 43h5c1.1 0 2 .9 2 2v14c0 1.1-.9 2-2 2H4c-1.1 0-2-.9-2-2z" fill="#ffeaa7"/><path d="m43 25-1 10h-3c-4.42 0-8-3.58-8-8v-2z" fill="#5cd6b3"/><g><path d="M57.867 45.208c-.55-.432-.796-.646-.868-1.215-.071-.566.115-.835.542-1.388.472-.612 1.119-1.449.943-2.857s-1.009-2.061-1.618-2.537c-.549-.431-.795-.645-.86-1.149l-.008-.124h-.001a8.234 8.234 0 0 0-1.354-4.454A17.32 17.32 0 0 0 62 17.323C62 7.771 54.228 0 44.676 0H35c-4.962 0-9 4.048-9 9.022a7.396 7.396 0 0 0 4.111 6.651l.346.173A5.96 5.96 0 0 0 30 18.099V27c0 4.334 3.08 7.962 7.166 8.811C33.385 38.064 31 42.141 31 46.72V62h18v-6h5.179a3.797 3.797 0 0 0 2.73-1.145 3.799 3.799 0 0 0 1.099-2.748L58 52c-.071-.568.115-.838.542-1.392.472-.612 1.118-1.451.942-2.86s-1.009-2.062-1.617-2.54zm-3.89-9.745a10.954 10.954 0 0 1-3.88 1.387 6.033 6.033 0 0 0-2.128-2.057l3.651-1.597c.453-.198.892-.42 1.322-.653a6.246 6.246 0 0 1 1.035 2.92zM48 48h-6c-.551 0-1-.448-1-1v-7c0-2.206 1.794-4 4-4s4 1.794 4 4v7c0 .552-.449 1-1 1zM35.216 14.177l.883-.177H44c2.206 0 4 1.794 4 4v.586L42.586 24H32v-5.901a4.009 4.009 0 0 1 3.216-3.922zm8.744 11.277L49.414 20H50c1.103 0 2 .897 2 2s-.897 2-2 2c-.551 0-1-.448-1-1h-2c0 1.036.528 1.95 1.328 2.489l-4.996 6.245zM31.005 13.885A5.408 5.408 0 0 1 28 9.022C28 5.15 31.14 2 35 2h9.676C53.125 2 60 8.874 60 17.323c0 6.089-3.604 11.6-9.182 14.04L44.791 34h-.71l6.442-8.053C52.48 25.688 54 24.027 54 22c0-2.206-1.794-4-4-4 0-3.309-2.691-6-6-6h-8.528a1.474 1.474 0 0 1-.659-2.789l.633-.316-.894-1.789-.634.316A3.454 3.454 0 0 0 32 10.528c0 .932.374 1.776.974 2.4a5.971 5.971 0 0 0-1.457 1.212zM32 27v-1h9.895l-.8 8H39c-3.86 0-7-3.141-7-7zm1 19.72c0-4.548 2.794-8.504 7.014-10.052A5.961 5.961 0 0 0 39 40v7c0 1.302.839 2.402 2 2.816V60h-8zM43 60V50h4v10zm13.958-10.612c-.465.604-1.099 1.426-.949 2.798a1.813 1.813 0 0 1-.525 1.268 1.82 1.82 0 0 1-1.305.546H49v-4.184A2.996 2.996 0 0 0 51 47v-7c0-.431-.048-.851-.135-1.256a12.982 12.982 0 0 0 3.553-1.251c.343.605.824.987 1.215 1.293.549.431.795.645.866 1.211s-.115.834-.542 1.387c-.473.612-1.12 1.45-.943 2.858.176 1.409 1.009 2.063 1.618 2.541.55.432.796.646.867 1.214.072.567-.114.837-.541 1.391z"/><path d="M37 20c1.654 0 3-1.346 3-3v-1h-2v1a1.001 1.001 0 0 1-2 0v-1h-2v1c0 1.654 1.346 3 3 3zM26 42h-4.5l-2.299-3.066A2.346 2.346 0 0 0 17.333 38 2.336 2.336 0 0 0 15 40.333V42H4c-1.654 0-3 1.346-3 3v14c0 1.654 1.346 3 3 3h22c1.654 0 3-1.346 3-3V45c0-1.654-1.346-3-3-3zm1 17c0 .552-.449 1-1 1H4c-.551 0-1-.448-1-1V45c0-.552.449-1 1-1h13v-3.667c0-.287.427-.429.6-.2L20.5 44H26c.551 0 1 .448 1 1z"/><path d="M6 48H5v2h1a1.001 1.001 0 0 1 0 2H5v2h1a1.001 1.001 0 0 1 0 2H5v2h1c1.654 0 3-1.346 3-3a2.98 2.98 0 0 0-.78-2A2.98 2.98 0 0 0 9 51c0-1.654-1.346-3-3-3zM14 50c.551 0 1 .448 1 1h2c0-1.654-1.346-3-3-3s-3 1.346-3 3v4c0 1.654 1.346 3 3 3s3-1.346 3-3-1.346-3-3-3h-1v-1c0-.552.449-1 1-1zm0 4a1.001 1.001 0 1 1-1 1v-1zM22 46c-1.654 0-3 1.346-3 3s1.346 3 3 3 3-1.346 3-3-1.346-3-3-3zm0 4a1.001 1.001 0 0 1 0-2 1.001 1.001 0 0 1 0 2zM4 25.65v7.304a.954.954 0 0 1-.425.794l-1.26.84A2.95 2.95 0 0 0 1 37.046 2.957 2.957 0 0 0 3.954 40h5.092A2.957 2.957 0 0 0 12 37.046V32h2.382a2.621 2.621 0 0 0 2.342-3.789L15.618 26H26V14H6c-3.309 0-6 2.691-6 6 0 2.607 1.673 4.824 4 5.65zM9.046 38H3.954a.955.955 0 0 1-.529-1.748l1.26-.84A2.95 2.95 0 0 0 6 32.954V26h4v11.046a.955.955 0 0 1-.954.954zm5.889-8.895a.618.618 0 0 1-.553.895H12v-4h1.382zM24 24h-2v-8h2zm-14-8h6v1c0 .552-.449 1-1 1h-4c-.551 0-1-.448-1-1zm-4 0h2v1c0 1.654 1.346 3 3 3h4c1.654 0 3-1.346 3-3v-1h2v8H6c-2.206 0-4-1.794-4-4s1.794-4 4-4z"/></g></svg>