<svg height="512" width="512" xmlns="http://www.w3.org/2000/svg"><path d="M57.391 338.971c3.147-11.688 8.056-25.842-19.468-44.395S-.342 257.47 26.511 215.062s30.88-108.006 100.697-68.249c0 0 16.112 13.252 50.349 9.939s48.335 29.697 29.202 58.31c-22.153 33.131 25.846 31.143 18.461 92.104-7.384 60.961-40.95 58.31-68.474 56.985s-26.181 27.83-56.39 25.179c-30.21-2.651-49.343-26.671-42.965-50.359z" fill="#ffd0c7"/><circle cx="350.5" cy="256" fill="#fff" r="152.5"/><ellipse cx="133.5" cy="256" fill="#a0e5a5" rx="20" ry="20.5"/><circle cx="350.5" cy="256" fill="#ffd0c7" r="112.5"/><circle cx="458.21" cy="363.96" r="10"/><path d="M499.23 192.75a161.9 161.9 0 0 0-14.98-27.6c-5.82-8.61-12.49-16.7-19.85-24.05a163.72 163.72 0 0 0-24.04-19.85 163.072 163.072 0 0 0-27.61-14.98C392.72 97.8 371.44 93.5 349.5 93.5s-43.22 4.3-63.25 12.77a162.6 162.6 0 0 0-27.6 14.98c-8.61 5.82-16.7 12.49-24.05 19.85a163.237 163.237 0 0 0-18.374 21.922 38.963 38.963 0 0 0-6.39-6.802c-8.954-7.466-20.792-10.723-34.238-9.423-28.365 2.743-42.599-7.343-43.761-8.214-22.302-12.697-41.256-16.925-56.555-11.968-22.078 7.151-32.759 30.645-43.089 53.364-4.625 10.174-9.409 20.693-15.131 29.732-14.428 22.791-19.508 40.667-15.988 56.256 3.874 17.15 17.469 28.28 30.26 36.906 20.722 13.962 18.356 22.649 15.556 32.929-3.57 13.255-1.216 27.523 6.907 39.145 9.667 13.829 25.953 22.702 44.68 24.346 1.594.14 3.122.206 4.595.206 17.198-.001 26.357-9.06 33.188-15.817 6.071-6.006 10.757-9.946 19.673-9.51 18.71.917 46.147 2.26 63.174-21.187a163.37 163.37 0 0 0 15.493 17.916c7.35 7.36 15.44 14.03 24.05 19.85a163.37 163.37 0 0 0 27.6 14.979c20.03 8.471 41.31 12.771 63.25 12.771h.03c13.52 0 26.97-1.67 39.98-4.96 12.63-3.2 24.87-7.94 36.38-14.08 4.86-2.59 6.71-8.66 4.11-13.53a9.986 9.986 0 0 0-8.83-5.29c-1.63 0-3.25.4-4.7 1.18-20.75 11.06-43.28 16.68-66.969 16.68-38.05 0-73.84-14.83-100.76-41.74-24.538-24.548-39.018-56.473-41.388-90.76h20.058c5.105 62.887 57.909 112.5 122.089 112.5C417.047 378.5 472 323.547 472 256s-54.953-122.5-122.499-122.5c-64.18 0-116.984 49.613-122.089 112.5h-20.058c2.37-34.288 16.849-66.212 41.388-90.76 26.92-26.91 62.71-41.73 100.76-41.74 38.05.01 73.839 14.83 100.759 41.74C477.17 182.16 492 217.95 492 256c0 23.47-5.83 46.73-16.84 67.27a9.898 9.898 0 0 0-.77 7.61 9.98 9.98 0 0 0 4.85 5.93c1.45.78 3.08 1.19 4.72 1.19 3.69 0 7.08-2.02 8.82-5.28 6.2-11.54 10.98-23.84 14.21-36.53C510.32 283.12 512 269.6 512 256c0-21.94-4.3-43.22-12.77-63.25zM156.906 354.194c-17.696-.852-27.434 8.07-34.711 15.269-6.616 6.545-10.984 10.868-21.969 9.905-12.819-1.125-23.767-6.913-30.036-15.881-4.676-6.689-6-15.013-3.995-22.457 3.284-12.055 8.926-32.771-23.681-54.741-13.516-9.116-20.075-16.511-21.931-24.729-2.243-9.929 2.133-23.39 13.378-41.151 6.46-10.204 11.533-21.362 16.439-32.153 8.927-19.636 17.36-38.183 31.046-42.616 9.404-3.047 22.601.159 39.229 9.526 4.297 3.188 22.616 14.841 56.85 11.537 8.005-.778 14.748.911 19.503 4.876 3.608 3.009 5.95 7.195 6.879 12.199a160.966 160.966 0 0 0-4.136 8.971c-7.177 16.971-11.347 34.843-12.457 53.25h-26.477c-4.082-11.919-15.238-20.5-28.335-20.5-16.542 0-30 13.682-30 30.5s13.458 30.5 30 30.5c13.097 0 24.254-8.581 28.335-20.5h26.477c1.11 18.407 5.28 36.278 12.457 53.25a161.615 161.615 0 0 0 7.264 14.955c-9.549 20.388-26.024 21.172-50.129 19.99zM142.502 256c0 5.79-4.486 10.5-10 10.5s-10-4.71-10-10.5 4.486-10.5 10-10.5 10 4.71 10 10.5zm109.781 32.493c8.354-5.411 17.883-12.161 28.047-20.402 8.578 10.674 18.628 21.092 30.394 30.576a329.806 329.806 0 0 1 24.796 22.148c-12.667 10.762-24.53 19.149-34.515 25.465-22.769-12.28-40.39-32.922-48.722-57.787zm97.218 70.007c-8.916 0-17.569-1.147-25.821-3.296a333.397 333.397 0 0 0 25.65-19.882 315.274 315.274 0 0 1 17.695 21.674 102.787 102.787 0 0 1-17.524 1.504zm38.029-7.319a334.343 334.343 0 0 0-23.387-29.296 347.378 347.378 0 0 0 29.619-32.327c6.648-8.248 14.113-15.939 22.35-23.053a316.5 316.5 0 0 1 26.61 32.086c-10.935 23.841-30.753 42.791-55.192 52.59zM452 256c0 6.6-.635 13.053-1.832 19.31a337.66 337.66 0 0 0-18.175-21.125 214.049 214.049 0 0 1 19.092-11.86c.6 4.475.915 9.038.915 13.675zm-5.728-33.786c-10.156 5.314-19.688 11.183-28.566 17.587a349.841 349.841 0 0 0-21.44-18.783c-13.302-10.721-24.181-22.843-33.011-34.967 10.218-7.776 21.466-14.752 33.687-20.889 22.88 11.998 40.693 32.386 49.33 57.052zM349.501 153.5c7.754 0 15.307.871 22.573 2.51a226.842 226.842 0 0 0-19.824 13.294 226.71 226.71 0 0 1-8.456-15.643c1.889-.104 3.791-.161 5.707-.161zm-1.533 45.508c9.603 13.005 21.38 26.002 35.747 37.581a330.304 330.304 0 0 1 18.174 15.782c-8.687 7.616-16.603 15.833-23.697 24.634a327.767 327.767 0 0 1-27.815 30.375 349.825 349.825 0 0 0-27.101-24.284c-10.759-8.671-19.944-18.241-27.781-28.061a346.92 346.92 0 0 0 36.173-38.458c4.979-6.174 10.428-12.027 16.3-17.569zm-24.77-42.081a247.474 247.474 0 0 0 13.471 25.266c-7.464 6.818-14.333 14.097-20.569 21.829a327.166 327.166 0 0 1-32.362 34.663c-8.852-13.687-15.328-27.174-19.984-38.775 13.679-20.842 34.743-36.419 59.444-42.983zm-70.895 66.52c4.4 9.094 9.748 18.751 16.211 28.477a310.318 310.318 0 0 1-20.858 15.623 103.133 103.133 0 0 1-.654-11.547 102.05 102.05 0 0 1 5.301-32.553z"/></svg>