<svg height="512" viewBox="0 0 512.009 512.009" width="512" xmlns="http://www.w3.org/2000/svg"><g transform="translate(-4.035 66.497)"><path d="M442.58 204.527c0 98.225-83.533 160.03-186.576 160.03-103.043 0-180.656-84.743-180.656-182.967 0-98.224 77.614-174.09 180.656-174.09S442.58 106.302 442.58 204.527z" fill="#ffd3bd"/><path d="M204.84 15.782C126.672 41.508 76.088 98.058 76.088 179.37c0 98.225 89.452 188.147 192.495 188.147 58.485 0 98.097-22.878 132.306-58.056C112.056 288.42 168.794 94.65 204.84 15.782z" fill="#ffbe9d"/><ellipse cx="213.311" cy="217.24" fill="#cb9d82" rx="53.298" ry="47.249" style="stroke:#000;stroke-width:12.0002;stroke-linecap:round;stroke-miterlimit:4;stroke-dasharray:none;stroke-opacity:1;paint-order:normal"/><path d="M183.165 187.958c-10.129 7.208-16.618 18.267-16.618 30.676 0 21.72 19.86 39.327 44.36 39.327 6.525 0 12.715-1.26 18.294-3.502-25.817-18.699-39.749-41.976-46.036-66.501z" fill="#b7856b" style="stroke-width:.83232"/><ellipse cx="213.311" cy="217.24" fill="#b7856b" rx="20.327" ry="18.02" style="stroke:#000;stroke-width:12.0002;stroke-miterlimit:4;stroke-dasharray:none;stroke-opacity:1"/><g fill="#eda1ab"><ellipse cx="175.775" cy="120.756" rx="29.603" ry="23.574"/><ellipse cx="336.234" cy="120.756" rx="29.603" ry="23.574"/></g><path d="M200.528 98.062V85.96a7.5 7.5 0 0 0-7.5-7.5 7.5 7.5 0 0 0-7.5 7.5v12.102a7.5 7.5 0 0 0 15 0zM256.004 0c-36.312 0-72.186 11.835-103.745 34.225a7.5 7.5 0 1 0 8.68 12.234C189.947 25.878 222.82 15 256.004 15c98.583 0 179.076 95.012 179.076 189.527 0 32.384-9.291 61.229-27.614 85.734a7.5 7.5 0 0 0 1.516 10.498 7.5 7.5 0 0 0 10.498-1.515c20.018-26.773 30.601-59.526 30.601-94.717C450.081 102.908 364.067 0 256.004 0zm70.477 98.062V85.96a7.5 7.5 0 0 0-15 0v12.102a7.5 7.5 0 0 0 7.5 7.5 7.5 7.5 0 0 0 7.5-7.5zm-70.477 14.704a29.521 29.521 0 0 0 22.258-10.136 7.501 7.501 0 0 0-11.309-9.856 14.526 14.526 0 0 1-10.949 4.992 14.521 14.521 0 0 1-10.949-4.992 7.5 7.5 0 0 0-11.309 9.856 29.523 29.523 0 0 0 22.258 10.136z"/><path d="M264.075 379.015c36.312 0 72.186-11.835 103.745-34.225a7.5 7.5 0 1 0-8.68-12.234c-29.008 20.58-61.881 31.459-95.065 31.459-98.583 0-179.076-95.012-179.076-189.527 0-32.384 9.291-61.23 27.614-85.734a7.5 7.5 0 0 0-1.516-10.498 7.5 7.5 0 0 0-10.498 1.515c-20.018 26.773-30.601 59.526-30.601 94.717 0 101.619 86.014 204.527 194.077 204.527z" style="stroke-width:1.00002"/></g></svg>