<svg height="512pt" viewBox="-44 0 512 512.001" width="512pt" xmlns="http://www.w3.org/2000/svg"><path d="M417.55 271.5c0-51.086-91.777-92.5-204.991-92.5S7.562 220.414 7.562 271.5s91.782 92.496 204.997 92.496S417.55 322.586 417.55 271.5zm0 0" fill="#4d9ae8"/><path d="M325.191 194.21c32.61 16.38 52.461 38.036 52.461 61.79 0 51.086-91.78 92.496-204.996 92.496-41.605 0-80.308-5.598-112.633-15.207 37.528 18.848 91.957 30.707 152.536 30.707 113.214 0 204.992-41.414 204.992-92.496 0-32.313-36.723-60.75-92.36-77.29zm0 0" fill="#4181c2"/><path d="M303.055 354.512v26.984c0 43.008-34.989 78-77.996 78h-25c-43.008 0-78-34.992-78-78v-26.984c-16.348-3.637-31.465-8.227-44.996-13.61v40.594c0 67.82 55.175 122.996 122.996 122.996h25c67.82 0 122.996-55.176 122.996-122.996v-40.594c-13.532 5.383-28.649 9.973-45 13.61zm0 0" fill="#475a72"/><path d="M303.055 381.496a78.54 78.54 0 0 1-.184 5.094c16.418-3.645 31.602-8.246 45.184-13.652v-32.036c-13.532 5.383-28.653 9.973-45 13.61zM122.246 386.59a78.54 78.54 0 0 1-.183-5.094v-26.984c-16.352-3.637-31.47-8.227-45-13.61v32.036c13.582 5.406 28.761 10.007 45.183 13.652zm0 0" fill="#364457"/><path d="M307.555 102.504c0-52.918-43.262-95.727-96.348-94.988-51.977.722-94.047 43.757-93.644 95.734.136 17.918 5.238 34.652 13.992 48.902 13.363 21.754 19.968 46.989 19.968 72.524v17.883c0 24.629 19.965 44.593 44.594 44.593h32.88c24.628 0 44.593-19.965 44.593-44.593v-18.332c0-25.34 6.594-50.38 19.89-71.95 8.926-14.476 14.075-31.523 14.075-49.773zm0 0" fill="#ececee"/><path d="M211.207 7.516a94.257 94.257 0 0 0-18.848 2.164c42.711 9.297 74.7 47.324 74.7 92.824 0 18.25-5.149 35.3-14.075 49.773-13.297 21.57-19.89 46.61-19.89 71.95v18.332c0 23.343-17.942 42.484-40.785 44.418 1.257.105 2.527.175 3.808.175H229c24.625 0 44.59-19.964 44.59-44.593v-18.336c0-25.34 6.594-50.38 19.894-71.95 8.922-14.472 14.07-31.52 14.07-49.77 0-52.917-43.261-95.726-96.347-94.987zm0 0" fill="#d2d2d4"/><path d="M289.277 178.078a122.913 122.913 0 0 1 10.637-21.86c24.266-39.355 19.707-92.128-15.34-126.69-60.613-59.774-162.808-23.247-173.61 59.827a7.5 7.5 0 0 0 6.47 8.403 7.508 7.508 0 0 0 8.406-6.473c9.219-70.933 96.465-102.097 148.2-51.078 29.882 29.469 33.835 74.516 13.105 108.14-26.582 43.114-20.047 84.602-21.008 94.22 0 20.453-16.64 37.09-37.094 37.09h-32.879c-20.453 0-37.094-16.637-37.094-37.09V224.68a148.77 148.77 0 0 0-.015-2.133c-.367-26.797-7.63-52.45-21.063-74.317a86.61 86.61 0 0 1-11.668-31.152 7.495 7.495 0 0 0-8.636-6.156c-4.083.687-6.84 4.555-6.153 8.637 4.914 29.332 15.293 34.023 24.348 58.527-37.254 6.64-69.375 17.922-93.317 32.82-66.808 41.574-52.863 101.77 27.04 135.012v35.586C69.605 453.46 128.147 512 200.101 512h25c71.957 0 130.496-58.54 130.496-130.496v-35.55c114.879-48.716 83.683-141.161-66.32-167.876zm51.325 203.426c0 63.684-51.813 115.496-115.497 115.496h-25C136.418 497 84.61 445.187 84.61 381.504v-29.79c9.446 3.306 19.485 6.24 29.996 8.766 1.461 10.868-7.324 48.485 24.536 80.899 15.793 16.07 36.859 25.156 59.32 25.582 4.133.082 7.562-3.215 7.644-7.356a7.5 7.5 0 0 0-7.355-7.64c-38.125-.727-69.145-32.336-69.145-70.461v-17.977c51.813 10.149 111.922 11.008 165.997.38v17.597c0 38.125-31.016 69.734-69.141 70.46-4.14.079-7.434 3.5-7.356 7.641s3.532 7.438 7.641 7.356c46.078-.875 83.856-38.5 83.856-85.457V360.62c10.316-2.5 20.351-5.445 30-8.855zm-127.997-25c-107.054 0-197.496-38.926-197.496-84.996 0-34.051 51.125-66.082 125.153-78.957 4.504 18.562 3.808 30.965 3.812 50.015 0 28.723 23.367 52.094 52.09 52.094h32.883c28.723 0 52.09-23.37 52.09-52.094.52-15.964-1.606-27.894 3.758-50.027 74.058 12.871 125.207 44.906 125.207 78.969 0 46.07-90.446 84.996-197.497 84.996zm0 0"/></svg>