<svg height="512" viewBox="0 0 128 128" width="512" xmlns="http://www.w3.org/2000/svg"><g fill="#ffd5c8"><path d="M92.324 28.217C75.349 23.354 64.415 41.644 71.487 58.4c5.656 13.405-11.054 36.991 3.569 44.494 19.641 8.382 28.691-15.6 34.655-36.641s-1.126-33.966-17.387-38.036zM75.848 17.786c-.916-3.765-4.259-6.135-7.466-5.293s-5.064 4.577-4.148 8.342 4.258 6.135 7.465 5.293 5.064-4.577 4.149-8.342zM85.848 19.769c3.032-.212 5.349-3.351 5.174-7.012S88.246 6.3 85.214 6.511s-5.349 3.351-5.174 7.011 2.775 6.458 5.808 6.247zM99.753 20.751a4.792 4.792 0 0 0 5.325-4.089 4.671 4.671 0 0 0-3.547-5.616 4.793 4.793 0 0 0-5.325 4.089 4.671 4.671 0 0 0 3.547 5.616zM114.025 19.762a4.34 4.34 0 0 0-5.727 1.979 4.2 4.2 0 0 0 1.283 5.839 4.342 4.342 0 0 0 5.728-1.978 4.2 4.2 0 0 0-1.284-5.84zM119.524 30.59a3.221 3.221 0 0 0-3.924 2.21 3.131 3.131 0 0 0 1.78 4.081 3.221 3.221 0 0 0 3.92-2.211 3.129 3.129 0 0 0-1.776-4.08zM35.676 45.109c16.975-4.864 27.909 13.427 20.837 30.183-5.656 13.405 11.054 36.99-3.569 44.493-19.644 8.383-28.691-15.595-34.655-36.641s1.126-33.966 17.387-38.035zM52.152 34.678c.916-3.765 4.259-6.135 7.466-5.293s5.064 4.577 4.148 8.342-4.258 6.135-7.466 5.293-5.063-4.577-4.148-8.342zM42.152 36.66c-3.032-.211-5.349-3.35-5.174-7.011s2.776-6.457 5.808-6.246 5.349 3.35 5.174 7.011-2.775 6.458-5.808 6.246zM28.247 37.643a4.793 4.793 0 0 1-5.325-4.089 4.671 4.671 0 0 1 3.547-5.616 4.793 4.793 0 0 1 5.325 4.088 4.672 4.672 0 0 1-3.547 5.617zM13.975 36.654a4.341 4.341 0 0 1 5.725 1.978 4.2 4.2 0 0 1-1.283 5.84 4.342 4.342 0 0 1-5.728-1.979 4.2 4.2 0 0 1 1.286-5.839zM8.476 47.481a3.221 3.221 0 0 1 3.924 2.213 3.131 3.131 0 0 1-1.78 4.082 3.222 3.222 0 0 1-3.92-2.214 3.131 3.131 0 0 1 1.776-4.081z"/></g><g fill="#2c0d12"><path d="M92.805 26.534a23.452 23.452 0 0 0-2.141-.507 1.751 1.751 0 0 0-.641 3.442c.594.11 1.206.255 1.876.445 7.111 1.78 12.213 5.269 15.165 10.369 3.647 6.3 3.971 14.878.963 25.492-4.029 14.219-9.906 31.137-19.668 35.8-3.774 1.8-7.884 1.714-12.557-.266-7.231-3.757-5.424-12.317-3.332-22.224 1.582-7.488 3.217-15.232.629-21.365a23.743 23.743 0 0 1-.055-19.208 15.727 15.727 0 0 1 9.5-8.7 1.75 1.75 0 0 0-1.027-3.346 19.179 19.179 0 0 0-11.644 10.565 27.249 27.249 0 0 0 0 22.05c2.162 5.122.642 12.32-.828 19.281-2.193 10.386-4.462 21.125 5.212 26.088.037.02.074.037.112.053a21.259 21.259 0 0 0 8.35 1.852 16.4 16.4 0 0 0 7.147-1.622c10.964-5.237 17.035-22.149 21.528-38 3.276-11.561 2.838-21.048-1.3-28.2-3.445-5.954-9.281-9.995-17.289-11.999z"/><path d="M97.664 84.655a1.75 1.75 0 0 0 1.605-1.049 102.4 102.4 0 0 0 2.412-6.08 1.75 1.75 0 1 0-3.291-1.193 99.067 99.067 0 0 1-2.328 5.871 1.749 1.749 0 0 0 1.6 2.451zM72.144 27.82c4.119-1.081 6.543-5.767 5.4-10.448a9.18 9.18 0 0 0-4.1-5.737 7.146 7.146 0 0 0-5.512-.834c-4.118 1.082-6.542 5.768-5.4 10.447a9.172 9.172 0 0 0 4.1 5.737 7.316 7.316 0 0 0 3.758 1.062 6.889 6.889 0 0 0 1.754-.227zm-6.209-7.4c-.691-2.837.606-5.635 2.891-6.235a3.418 3.418 0 0 1 .873-.114 3.833 3.833 0 0 1 1.958.57 5.66 5.66 0 0 1 2.49 3.558c.691 2.838-.607 5.635-2.892 6.236a3.668 3.668 0 0 1-2.831-.457 5.659 5.659 0 0 1-2.489-3.557zM81.108 19.8a6.646 6.646 0 0 0 4.422 1.733c.146 0 .292 0 .439-.014 3.97-.277 7.021-4.244 6.8-8.841a8.847 8.847 0 0 0-2.817-6.191 6.632 6.632 0 0 0-4.861-1.718c-3.969.277-7.02 4.244-6.8 8.84a8.842 8.842 0 0 0 2.817 6.191zm4.227-11.543c.068 0 .136-.008.2-.008a3.158 3.158 0 0 1 2.09.85 5.322 5.322 0 0 1 1.646 3.742c.128 2.666-1.5 5.039-3.546 5.181a3.143 3.143 0 0 1-2.293-.841 5.33 5.33 0 0 1-1.646-3.742c-.125-2.666 1.499-5.039 3.549-5.182zM99.456 22.476a5.934 5.934 0 0 0 1 .085 6.644 6.644 0 0 0 6.346-5.583 6.882 6.882 0 0 0-1.076-5.152 5.972 5.972 0 0 0-3.9-2.505 6.555 6.555 0 0 0-7.344 5.5 6.88 6.88 0 0 0 1.077 5.152 5.973 5.973 0 0 0 3.897 2.503zm-1.528-7.026a3.049 3.049 0 0 1 3.306-2.679 2.5 2.5 0 0 1 1.62 1.058 3.362 3.362 0 0 1 .5 2.519 3.045 3.045 0 0 1-3.306 2.678 2.494 2.494 0 0 1-1.619-1.059 3.355 3.355 0 0 1-.501-2.517zM106.13 25.784a5.376 5.376 0 0 0 5.218 3.993 6.564 6.564 0 0 0 6.13-8.219 5.444 5.444 0 0 0-2.608-3.329 6.1 6.1 0 0 0-8.094 2.648 6.458 6.458 0 0 0-.646 4.907zm3.689-3.178a2.9 2.9 0 0 1 2.415-1.548 1.944 1.944 0 0 1 .947.238 1.954 1.954 0 0 1 .927 1.213 2.939 2.939 0 0 1-.322 2.228 2.6 2.6 0 0 1-3.361 1.31 1.954 1.954 0 0 1-.928-1.213 2.947 2.947 0 0 1 .322-2.228zM122.725 31.244a4.539 4.539 0 0 0-2.657-2.317 4.981 4.981 0 0 0-6.125 3.311 5.221 5.221 0 0 0 .237 3.992 4.54 4.54 0 0 0 2.656 2.317 4.458 4.458 0 0 0 1.39.222 5.11 5.11 0 0 0 4.735-3.535 5.221 5.221 0 0 0-.236-3.99zm-3.077 2.856a1.5 1.5 0 0 1-1.724 1.116 1.06 1.06 0 0 1-.612-.554 1.7 1.7 0 0 1-.056-1.3 1.623 1.623 0 0 1 1.412-1.163 1.007 1.007 0 0 1 .312.049 1.057 1.057 0 0 1 .613.555 1.7 1.7 0 0 1 .055 1.297zM58.125 75.973c4.068-9.64 2.746-20.326-3.369-27.223-4.909-5.539-12.039-7.479-19.505-5.339-8.064 2.019-13.9 6.06-17.345 12.011-4.139 7.151-4.577 16.639-1.3 28.2.507 1.79 1.037 3.6 1.593 5.41A1.75 1.75 0 0 0 21.543 88a255.324 255.324 0 0 1-1.57-5.337c-3.008-10.614-2.684-19.191.963-25.492 2.952-5.1 8.054-8.589 15.222-10.384 6.265-1.8 11.942-.276 15.979 4.28 5.146 5.805 6.256 15.265 2.764 23.54-2.589 6.134-.953 13.877.629 21.367 2.093 9.906 3.9 18.465-3.331 22.222-10.546 4.473-18.679-.7-25.586-16.254a1.75 1.75 0 0 0-3.2 1.42c5.871 13.228 13.216 19.879 21.91 19.878a21.148 21.148 0 0 0 8.307-1.849c.037-.016.075-.034.112-.053 9.674-4.963 7.405-15.7 5.212-26.088-1.47-6.957-2.99-14.15-.829-19.277z"/><path d="M24.568 96.94q-.608-1.611-1.177-3.258a1.75 1.75 0 0 0-3.308 1.144q.587 1.692 1.21 3.349a1.75 1.75 0 0 0 3.275-1.235zM60.062 27.692a7.16 7.16 0 0 0-5.512.834 9.184 9.184 0 0 0-4.1 5.738c-1.138 4.679 1.286 9.366 5.4 10.447a6.932 6.932 0 0 0 1.755.226 7.336 7.336 0 0 0 3.758-1.06 9.182 9.182 0 0 0 4.1-5.737c1.137-4.678-1.282-9.366-5.401-10.448zm2 9.621a5.67 5.67 0 0 1-2.49 3.559 3.668 3.668 0 0 1-2.831.455c-2.285-.6-3.582-3.4-2.892-6.236a5.67 5.67 0 0 1 2.49-3.56 3.678 3.678 0 0 1 2.83-.455c2.289.602 3.587 3.4 2.897 6.237zM42.031 38.406c.147.01.293.015.439.015a6.649 6.649 0 0 0 4.422-1.733 8.846 8.846 0 0 0 2.816-6.188c.22-4.6-2.831-8.563-6.8-8.84a6.635 6.635 0 0 0-4.86 1.717 8.842 8.842 0 0 0-2.818 6.192c-.22 4.595 2.832 8.561 6.801 8.837zM40.373 25.99a3.161 3.161 0 0 1 2.089-.848c.066 0 .134 0 .2.007 2.05.143 3.674 2.515 3.547 5.182a5.325 5.325 0 0 1-1.646 3.741 3.127 3.127 0 0 1-2.292.842c-2.051-.143-3.675-2.515-3.548-5.181a5.329 5.329 0 0 1 1.65-3.743zM27.546 39.452a5.82 5.82 0 0 0 1-.085 5.965 5.965 0 0 0 3.9-2.5 6.877 6.877 0 0 0 1.076-5.151 6.548 6.548 0 0 0-7.343-5.5 5.966 5.966 0 0 0-3.895 2.5 6.877 6.877 0 0 0-1.084 5.153 6.645 6.645 0 0 0 6.346 5.583zm-2.4-8.73a2.431 2.431 0 0 1 2.031-1.1 3.138 3.138 0 0 1 2.9 2.715 3.356 3.356 0 0 1-.5 2.516 2.492 2.492 0 0 1-1.619 1.06 3.05 3.05 0 0 1-3.307-2.68 3.356 3.356 0 0 1 .495-2.511zM16.653 46.669a5.378 5.378 0 0 0 5.218-3.993 6.46 6.46 0 0 0-.647-4.908 6.1 6.1 0 0 0-8.094-2.647 5.445 5.445 0 0 0-2.608 3.33 6.565 6.565 0 0 0 6.131 8.218zM13.891 39.4a1.952 1.952 0 0 1 .928-1.213 1.93 1.93 0 0 1 .946-.239 2.9 2.9 0 0 1 2.416 1.552 2.94 2.94 0 0 1 .321 2.227 1.951 1.951 0 0 1-.928 1.213 2.6 2.6 0 0 1-3.362-1.31 2.94 2.94 0 0 1-.321-2.23zM7.931 45.818a4.545 4.545 0 0 0-2.656 2.318 5.223 5.223 0 0 0-.236 3.991 5.107 5.107 0 0 0 4.733 3.533 4.446 4.446 0 0 0 1.392-.222 4.537 4.537 0 0 0 2.656-2.317 5.223 5.223 0 0 0 .237-3.991 4.976 4.976 0 0 0-6.126-3.312zm2.757 5.74a1.059 1.059 0 0 1-.613.554A1.5 1.5 0 0 1 8.352 51a1.7 1.7 0 0 1 .055-1.3 1.061 1.061 0 0 1 .613-.553 1.5 1.5 0 0 1 1.724 1.114 1.706 1.706 0 0 1-.056 1.297z"/></g></svg>