<svg height="512" width="512" xmlns="http://www.w3.org/2000/svg"><path d="M488 64v336c0 13.25-10.75 24-24 24H48c-13.25 0-24-10.75-24-24V64c0-13.25 10.75-24 24-24h416c13.25 0 24 10.75 24 24z" fill="#e2e0e0"/><path d="M464 40c13.25 0 24 10.75 24 24v56H24V64c0-13.25 10.75-24 24-24z" fill="#f79caf" style="fill:#aa87de"/><path d="M488 64v336c0 13.25-10.75 24-24 24h-40c13.25 0 24-10.75 24-24V64c0-13.25-10.75-24-24-24h40c13.25 0 24 10.75 24 24z" fill="#cecccc"/><path d="M488 64v56h-40V64c0-13.25-10.75-24-24-24h40c13.25 0 24 10.75 24 24z" fill="#e3889b" style="fill:#8d5fd3"/><path d="M128 24v40c0 8.837-7.163 16-16 16-8.809 0-16-7.136-16-16V24c0-8.837 7.163-16 16-16 8.809 0 16 7.136 16 16zM416 24v40c0 8.837-7.163 16-16 16-8.809 0-16-7.136-16-16V24c0-8.837 7.163-16 16-16 8.809 0 16 7.136 16 16z" fill="#f3d4b7" style="fill:#b3b3b3"/><path d="M383.7 424H192.31c-.56-9.09-.31-30.4-.31-120 0-52.93 43.07-96 96-96s96 43.07 96 96c0 89.71.24 111.09-.3 120z" fill="#cecccc"/><path d="M168 304v112c0 24.3 9.85 46.3 25.78 62.22 39.397 39.422 105.383 32.818 136.02-14.28 8.98-13.79 14.2-30.26 14.2-47.94V304z" fill="#acebe2" style="fill:#0ff"/><path d="M344 304v112c0 56.309-52.461 98.62-108.03 85.71C275.877 492.478 304 456.86 304 416V304z" fill="#98d7ce" style="fill:teal"/><circle cx="256" cy="304" fill="#f8e9d2" r="88" style="fill:#ffd3bd;fill-opacity:1"/><path d="M344 304c0 56.566-52.715 98.553-108 85.72 38.97-9.06 68-44 68-85.72s-29.03-76.66-68-85.72c55.335-12.841 108 29.197 108 85.72z" fill="#e4d5c1" style="fill:#ffbe9d;fill-opacity:1"/><path d="M464 32h-40v-8c0-13.233-10.767-24-24-24s-24 10.767-24 24v8H136v-8c0-13.233-10.766-24-24-24S88 10.767 88 24v8H48c-17.645 0-32 14.355-32 32v336c0 17.645 14.355 32 32 32h88a8 8 0 0 0 0-16H48c-8.822 0-16-7.178-16-16V128h448v272c0 8.822-7.178 16-16 16h-88a8 8 0 0 0 0 16h88c17.645 0 32-14.355 32-32V64c0-17.645-14.355-32-32-32zm-72-8c0-4.411 3.589-8 8-8s8 3.589 8 8v40c0 4.411-3.589 8-8 8s-8-3.589-8-8zm-288 0c0-4.411 3.589-8 8-8s8 3.589 8 8v40c0 4.411-3.589 8-8 8s-8-3.589-8-8zm-72 88V64c0-8.822 7.178-16 16-16h40v16c0 13.233 10.766 24 24 24s24-10.767 24-24V48h240v16c0 13.233 10.767 24 24 24s24-10.767 24-24V48h40c8.822 0 16 7.178 16 16v48z"/><path d="M256 208c-52.935 0-96 43.065-96 96v112c0 53.034 42.926 96 96 96 53.893 0 96-43.81 96-96V304c0-52.935-43.065-96-96-96zm-69.396 162.268c37.794 39.561 100.66 39.653 138.572.226-10.875 29.324-31.596 56.346-69.187 71.796-37.46-15.375-58.418-42.106-69.385-72.022zM256 496c-44.193 0-80-35.775-80-80v-29.774c18.806 41.795 58.202 79.188 137.901 84.995C298.945 486.938 278.169 496 256 496zm80-80c0 14.063-3.653 27.739-10.602 39.817-17.753-.625-33.48-2.833-47.416-6.343 26.066-14.405 45.483-35.528 58.017-63.251V416zm-80-32c-44.112 0-80-35.888-80-80 0-36.702 24.852-67.689 58.605-77.071-4.935 5.186-8.87 11.899-10.438 19.443C221.064 261.3 233.52 280 256 280c31.013 0 30.713-32.843 10.53-39.59a8 8 0 0 0-5.061 15.18c.022.007 2.283.969 2.94 2.94.322.965.365 2.33-.263 3.202-2.085 2.893-15.296 4.268-21.461-3.312-2.448-3.009-3.289-6.701-2.854-8.793C242.075 238.842 252.289 232 256 232c4.283 0 7.77-3.369 7.98-7.601C304.359 228.417 336 262.581 336 304c0 44.112-35.888 80-80 80z"/><path d="M232 296a8 8 0 0 0-16 0v8a8 8 0 0 0 16 0zM288 288a8 8 0 0 0-8 8v8a8 8 0 0 0 16 0v-8a8 8 0 0 0-8-8zM267.314 339.313c-6.239 6.237-16.391 6.239-22.628 0a8 8 0 0 0-11.314 11.314c12.475 12.473 32.777 12.477 45.254 0a8 8 0 0 0-11.312-11.314z"/></svg>