<svg id="Capa_1" enable-background="new 0 0 512 512" height="512" viewBox="0 0 512 512" width="512" xmlns="http://www.w3.org/2000/svg"><g><g><path d="m256 7.5c-137.243 0-248.5 111.257-248.5 248.5s111.257 248.5 248.5 248.5 248.5-111.257 248.5-248.5-111.257-248.5-248.5-248.5zm0 456.593c-114.743 0-208.093-93.35-208.093-208.093s93.35-208.093 208.093-208.093 208.093 93.35 208.093 208.093-93.35 208.093-208.093 208.093z" fill="#e28086"/></g><g><path d="m256 7.5c-137.243 0-248.5 111.257-248.5 248.5s111.257 248.5 248.5 248.5 248.5-111.257 248.5-248.5-111.257-248.5-248.5-248.5zm0 456.593c-114.743 0-208.093-93.35-208.093-208.093s93.35-208.093 208.093-208.093 208.093 93.35 208.093 208.093-93.35 208.093-208.093 208.093z" fill="#e28086"/></g><g><path d="m422.384 71.433c39.735 44.05 63.933 102.389 63.933 166.384 0 53.275-18.511 95.987-27.908 114.238-2.509 4.873-9.027 5.897-12.903 2.021l-3.95-3.95c-20.012 39.291-52.139 71.418-91.43 91.43l4.685 4.685c3.682 3.682 2.986 9.851-1.449 12.579-15.47 9.515-52.982 27.496-115.546 27.496-63.995 0-122.334-24.198-166.384-63.933 45.48 50.418 111.318 82.115 184.565 82.116 137.245.001 248.503-111.256 248.502-248.502 0-73.246-31.697-139.084-82.115-184.564z" fill="#dd636e"/></g><g><g><path d="m295.212 366.641 71.429-71.429-85.715-85.715s-54.286 54.286-71.429 71.429z" fill="#e4f6ff"/></g><g><path d="m262.355 228.069 85.715 85.715 18.572-18.572-85.715-85.715c-.001 0-7.923 7.922-18.572 18.572z" fill="#cbe2ff"/></g><g><path d="m277.436 206.007-82.225-82.225c-7.89-7.89-20.682-7.89-28.572 0l-42.858 42.858c-7.89 7.89-7.89 20.682 0 28.572l82.225 82.224c17.144-17.143 71.43-71.429 71.43-71.429z" fill="#b3e59f"/></g><g><path d="m166.64 123.782-18.572 18.572c7.89-7.89 20.682-7.89 28.572 0l82.22 82.22c11.059-11.059 18.577-18.567 18.577-18.567l-82.225-82.225c-7.891-7.89-20.683-7.89-28.572 0z" fill="#95d6a4"/></g><g><path d="m117.353 101.639-15.714 15.714 29.286 42.144 28.572-28.572z" fill="#3b66c1"/></g><g><path d="m338.991 349.092h101.016v80.813h-101.016z" fill="#61a2f9" transform="matrix(.707 .707 -.707 .707 389.499 -161.336)"/></g><g><path d="m326.193 261.543h32.325v161.626h-32.325z" fill="#dfedff" transform="matrix(.707 .707 -.707 .707 342.355 -141.808)"/></g><g><path d="m374.05 281.366h32.325v26.264h-32.325z" fill="#cbe2ff" transform="matrix(.707 .707 -.707 .707 322.532 -189.666)"/></g><g><path d="m419.765 355.115h32.325v161.626h-32.325z" fill="#dfedff" transform="matrix(.707 .707 -.707 .707 435.928 -180.567)"/></g></g><g><path d="m235.797 29.569h40.406v452.861h-40.406z" fill="#e28086" transform="matrix(.707 .707 -.707 .707 256 -106.039)"/></g><path d="m509.803 384.909-21.414-21.414c15.484-33.507 23.611-70.343 23.611-107.495 0-68.379-26.629-132.666-74.981-181.018s-112.64-74.982-181.019-74.982c-65.872 0-127.941 24.722-175.631 69.761l-67.565-67.564c-2.93-2.928-7.678-2.928-10.607 0-2.929 2.93-2.929 7.678 0 10.607l67.565 67.565c-45.04 47.69-69.762 109.759-69.762 175.631 0 68.379 26.629 132.666 74.981 181.018s112.64 74.982 181.019 74.982c37.152 0 73.988-8.127 107.495-23.61l21.414 21.414c1.465 1.464 3.385 2.196 5.304 2.196s3.839-.732 5.304-2.196l114.287-114.287c2.928-2.93 2.928-7.678-.001-10.608zm-494.803-128.909c0-63.751 24.893-121.791 65.455-164.937l17.969 17.969c-35.965 38.537-58.014 90.222-58.014 146.968 0 49.809 17.448 98.416 49.132 136.869 1.345 1.632 3.315 2.62 5.428 2.722.12.006.24.009.36.009 1.984 0 3.894-.787 5.304-2.196l110.472-110.472c.068-.063.141-.121.207-.187.067-.067.124-.139.188-.208l71.039-71.038c.067-.063.139-.119.204-.184.066-.066.122-.137.185-.205l47.155-47.155c2.929-2.93 2.929-7.678 0-10.607-2.93-2.928-7.678-2.928-10.607 0l-42.046 42.046-76.917-76.915c-5.232-5.233-12.189-8.115-19.589-8.115-7.398 0-14.355 2.882-19.589 8.114l-2.71 2.71-29.456-20.47c34.587-28.303 78.758-45.308 126.83-45.308 43.573 0 86.162 14.356 120.834 40.579l-32.607 32.607c-2.929 2.93-2.929 7.678.001 10.607 2.928 2.928 7.677 2.928 10.606 0l38.569-38.57c1.495-1.496 2.289-3.553 2.188-5.664-.102-2.112-1.09-4.083-2.722-5.428-38.453-31.682-87.06-49.131-136.869-49.131-56.746 0-108.431 22.049-146.968 58.015l-17.969-17.97c43.146-40.562 101.185-65.455 164.937-65.455 132.888 0 241 108.112 241 241 0 39.79-9.9 79.19-28.631 114.021l-15.299 15.299-14.606-14.606c21.687-34.353 33.126-73.876 33.126-114.714 0-49.809-17.448-98.416-49.132-136.869-1.345-1.632-3.315-2.62-5.428-2.722-2.106-.096-4.168.693-5.664 2.188l-292.769 292.769c-1.495 1.496-2.289 3.553-2.188 5.665s1.091 4.083 2.723 5.428c10.542 8.684 21.942 16.393 33.884 22.914 1.142.623 2.373.918 3.588.918 2.655 0 5.228-1.412 6.59-3.906 1.984-3.636.646-8.192-2.988-10.178-8.702-4.751-17.097-10.182-25.04-16.195l99.405-99.405 50.035 50.035-16.125 16.125c-2.929 2.93-2.929 7.678 0 10.607l22.857 22.857c1.465 1.464 3.385 2.196 5.304 2.196s3.839-.732 5.304-2.196l23.269-23.269 34.606 34.607c-31.271 19.009-66.968 29.02-103.819 29.02-22.244 0-44.102-3.632-64.965-10.794-3.916-1.338-8.183.74-9.529 4.658-1.345 3.918.741 8.185 4.658 9.529 22.435 7.701 45.931 11.606 69.836 11.606 40.838 0 80.361-11.439 114.714-33.125l14.606 14.606-15.299 15.299c-34.833 18.732-74.233 28.632-114.023 28.632-132.888 0-241-108.112-241-241zm177.765-95.485c1.465 1.464 3.385 2.196 5.304 2.196s3.839-.732 5.304-2.196l8.983-8.982 12.25 12.25-8.983 8.983c-2.929 2.93-2.929 7.678 0 10.607 1.465 1.464 3.385 2.196 5.304 2.196s3.839-.732 5.304-2.196l8.983-8.983 12.25 12.25-8.983 8.983c-2.929 2.93-2.929 7.678 0 10.607 1.465 1.464 3.385 2.196 5.304 2.196s3.839-.732 5.304-2.196l8.983-8.983 8.753 8.753-60.825 60.823-38.816-38.817c-2.929-2.927-7.677-2.929-10.607 0-2.929 2.93-2.929 7.678 0 10.607l38.816 38.817-99.403 99.403c-26.223-34.671-40.58-77.26-40.58-120.833 0-48.072 17.005-92.244 45.306-126.83l20.47 29.456-2.71 2.71c-5.232 5.233-8.114 12.19-8.114 19.589s2.882 14.356 8.114 19.588l13.359 13.36c1.465 1.465 3.384 2.197 5.304 2.197 1.919 0 3.839-.732 5.303-2.196 2.93-2.929 2.93-7.678.001-10.606l-13.36-13.361c-2.399-2.399-3.721-5.589-3.721-8.981 0-3.393 1.321-6.582 3.722-8.981l42.859-42.859c2.399-2.4 5.589-3.722 8.981-3.722 3.393 0 6.582 1.321 8.981 3.722l11.841 11.841-8.982 8.982c-2.928 2.928-2.928 7.676.001 10.606zm-60.801-12.667-20.588-29.626 3.414-3.414c.003-.003.007-.006.01-.009s.006-.007.009-.01l3.414-3.414 29.626 20.588zm263.963 294.615-60.107-60.108 17.964-17.964 60.107 60.107zm-99.286-42.142-12.251-12.251 103.68-103.68 12.251 12.251zm96.322-75.108 23.269-23.269c2.929-2.93 2.929-7.678 0-10.607l-22.857-22.857c-2.93-2.928-7.678-2.928-10.607 0l-16.125 16.125-50.035-50.035 99.404-99.404c26.221 34.672 40.578 77.261 40.578 120.834 0 36.851-10.011 72.548-29.02 103.819zm-86.964-80.035 50.035 50.035-60.821 60.821-50.035-50.035zm118.5 168.713-60.107-60.107 17.964-17.964 60.108 60.107zm-34.286 80.002-12.251-12.251 1.888-1.888c.037-.037.075-.073.111-.111l99.688-99.688c.033-.032.065-.065.097-.097l1.896-1.896 12.251 12.251z"/></g></svg>