<svg id="Capa_1" enable-background="new 0 0 512 512" height="512" viewBox="0 0 512 512" width="512" xmlns="http://www.w3.org/2000/svg"><g><g><path d="m295.212 366.641 71.429-71.429-85.715-85.715s-54.286 54.286-71.429 71.429z" fill="#e4f6ff"/></g><g><path d="m262.355 228.069 85.715 85.715 18.572-18.572-85.715-85.715c-.001 0-7.923 7.922-18.572 18.572z" fill="#cbe2ff"/></g><g><path d="m240.478 206.132h32.325v101.016h-32.325z" fill="#3b66c1" transform="matrix(.707 .707 -.707 .707 256.64 -106.304)"/></g><g><path d="m266.907 217.079h32.325v26.264h-32.325z" fill="#30579d" transform="matrix(.707 .707 -.707 .707 245.693 -132.733)"/></g><g><path d="m280.926 209.497-85.715-85.715c-7.89-7.89-20.682-7.89-28.572 0l-42.858 42.858c-7.89 7.89-7.89 20.682 0 28.572l85.715 85.715c17.144-17.144 71.43-71.43 71.43-71.43z" fill="#e7a2cb"/></g><g><path d="m166.64 123.782-18.572 18.572c7.89-7.89 20.682-7.89 28.572 0l85.715 85.715c11.059-11.059 18.572-18.572 18.572-18.572l-85.715-85.715c-7.891-7.89-20.683-7.89-28.572 0z" fill="#e278b1"/></g><g><path d="m117.353 101.639-15.714 15.714 29.286 42.143 28.572-28.571z" fill="#3b66c1"/></g><g><path d="m348.735 339.138h80.815v100.006h-80.815z" fill="#61a2f9" transform="matrix(.707 -.707 .707 .707 -161.187 389.168)"/></g><g><path d="m326.193 261.542h32.325v161.626h-32.325z" fill="#dfedff" transform="matrix(.707 .707 -.707 .707 342.355 -141.808)"/></g><g><path d="m374.051 281.366h32.325v26.264h-32.325z" fill="#cbe2ff" transform="matrix(.707 .707 -.707 .707 322.532 -189.666)"/></g><g><path d="m419.765 355.115h32.325v161.626h-32.325z" fill="#dfedff" transform="matrix(.707 .707 -.707 .707 435.928 -180.567)"/></g><path d="m509.804 384.91-22.857-22.857c-2.929-2.929-7.677-2.93-10.607 0l-23.265 23.265-24.641-24.641c-2.93-2.929-7.678-2.929-10.607 0s-2.929 7.678 0 10.606l24.641 24.641-17.968 17.968-60.108-60.108 17.968-17.968 10.717 10.717c1.465 1.465 3.384 2.197 5.304 2.197 1.919 0 3.839-.732 5.303-2.197 2.93-2.929 2.93-7.677.001-10.606l-10.717-10.718 23.265-23.265c2.929-2.929 2.929-7.678 0-10.606l-22.857-22.857c-2.93-2.929-7.678-2.929-10.607 0l-16.125 16.125-16.058-16.058c-2.93-2.929-7.678-2.93-10.607 0-2.929 2.929-2.929 7.678 0 10.606l16.058 16.059-60.823 60.823-52.251-52.251 60.824-60.823 11.452 11.452c1.465 1.464 3.385 2.197 5.304 2.197s3.839-.732 5.304-2.197c2.929-2.929 2.929-7.678 0-10.606l-125.334-125.332c-10.802-10.8-28.375-10.8-39.176 0l-2.711 2.711-36.993-25.707c-2.98-2.071-7.017-1.711-9.583.855l-2.554 2.554-96.693-96.692c-2.929-2.929-7.678-2.929-10.606 0-2.929 2.929-2.929 7.678 0 10.606l96.693 96.693-2.554 2.554c-2.566 2.566-2.927 6.603-.855 9.583l25.707 36.993-2.711 2.711c-10.801 10.801-10.801 28.375 0 39.176l9.27 9.27c2.929 2.929 7.678 2.929 10.606 0 2.929-2.929 2.929-7.678 0-10.606l-9.27-9.27c-4.953-4.953-4.953-13.011 0-17.963l42.86-42.86c4.953-4.952 13.011-4.952 17.963 0l11.841 11.841-8.983 8.983c-2.929 2.929-2.929 7.678 0 10.606 1.464 1.465 3.384 2.197 5.303 2.197s3.839-.732 5.303-2.197l8.983-8.983 12.251 12.251-8.983 8.983c-2.929 2.929-2.929 7.678 0 10.606 1.464 1.465 3.384 2.197 5.303 2.197s3.839-.732 5.303-2.197l8.983-8.983 12.251 12.251-8.983 8.983c-2.929 2.929-2.929 7.678 0 10.606 1.464 1.464 3.384 2.197 5.303 2.197s3.839-.732 5.303-2.197l8.983-8.983 12.251 12.251-60.823 60.823-46.403-46.403c-2.929-2.929-7.678-2.929-10.606 0-2.929 2.929-2.929 7.678 0 10.606l132.118 132.118-16.125 16.125c-2.929 2.929-2.929 7.678 0 10.606l22.857 22.857c1.465 1.464 3.385 2.197 5.304 2.197s3.839-.732 5.304-2.197l23.268-23.268 60.108 60.108-23.269 23.269c-1.406 1.406-2.196 3.314-2.196 5.303s.79 3.897 2.196 5.303l22.857 22.857c1.465 1.464 3.385 2.197 5.304 2.197s3.839-.732 5.304-2.197l114.287-114.287c1.406-1.406 2.196-3.314 2.196-5.303s-.789-3.894-2.195-5.3zm-398.428-266.687 6.847-6.847 29.627 20.588-15.886 15.886zm169.551 101.881 12.25 12.251-60.823 60.823-12.251-12.251zm15.714 180.217-12.251-12.251 103.68-103.68 12.251 12.251zm39.179-17.965 17.965-17.965 60.108 60.108-17.965 17.964zm54.393 111.537-12.251-12.251 103.681-103.68 12.251 12.251z"/></g></svg>