<svg id="Capa_1" enable-background="new 0 0 512 512" height="512" viewBox="0 0 512 512" width="512" xmlns="http://www.w3.org/2000/svg"><g><g><circle cx="317.539" cy="292.914" fill="#e175a5" r="16.163"/></g><g><path d="m399.504 246.754c-1.489-11.962-11.684-21.221-24.05-21.221-13.39 0-24.244 10.854-24.244 24.244s10.854 24.244 24.244 24.244c2.172 0 4.276-.29 6.279-.826 2.896 2.738 6.793 4.429 11.093 4.429 8.926 0 16.163-7.236 16.163-16.163 0-6.543-3.895-12.164-9.485-14.707z" fill="#e175a5"/></g><g><g><path d="m330.752 504.5v-46.001c0-37.082-25.238-69.406-61.213-78.4l-60.007-15.002h-80.812l-60.007 15.002c-35.975 8.994-61.213 41.318-61.213 78.4v46.001z" fill="#f8e883"/></g><g><path d="m241.412 373.067-31.88-7.97h-80.812l-31.88 7.97c3.983 36.367 34.876 64.762 72.286 64.762s68.303-28.394 72.286-64.762z" fill="#e6f7fe"/></g><g><path d="m269.539 380.099-1.409-.352c-10.53 32.969-30.269 65.843-58.613 94.187-11.658 11.658-24.082 21.86-36.964 30.567h158.199v-46.001c0-37.083-25.238-69.407-61.213-78.401z" fill="#f5de46"/></g><g><path d="m169.126 405.504c-22.316 0-40.407-18.091-40.407-40.406v-46.468h80.813v46.467c.001 22.316-18.09 40.407-40.406 40.407z" fill="#ffbd86"/></g><g><path d="m128.72 349.533c12.719 4.195 26.301 6.473 40.407 6.473s27.688-2.279 40.406-6.473v-30.903h-80.813z" fill="#f6a96c"/></g><g><path d="m68.11 127.709v98.996c0 55.79 45.227 101.016 101.016 101.016s101.016-45.227 101.016-101.016v-98.996z" fill="#fed2a4"/></g><g><path d="m229.736 127.709v98.996c0 48.871-34.705 89.634-80.813 98.994 6.528 1.325 13.284 2.023 20.203 2.023 55.79 0 101.016-45.227 101.016-101.016v-98.996h-40.406z" fill="#ffbd86"/></g><g><path d="m47.907 128.719v47.478h20.203v50.508l11.897-22.759c6.969-13.331 20.766-21.688 35.809-21.688h18.965c61.836 0 84.854-46.467 84.854-46.467h4.473c7.628 0 14.446 4.761 17.072 11.923l28.963 78.991v-50.508h20.203v-47.478c-.001-66.947-54.272-121.219-121.219-121.219-66.948 0-121.22 54.272-121.22 121.219z" fill="#b36d3c"/></g><g><path d="m290.345 176.197v-47.478c0-45.43-24.996-85.016-61.981-105.774 1.211 36.552-8.628 99.987-76.612 158.071 49.124-7.374 67.882-45.226 67.882-45.226h4.473c7.628 0 14.446 4.761 17.072 11.923l28.963 78.991v-50.508h20.203z" fill="#995e34"/></g><g><path d="m280.244 226.705h-10.102v-60.61h10.102c16.737 0 30.305 13.568 30.305 30.305 0 16.737-13.568 30.305-30.305 30.305z" fill="#ea9b58"/></g><g><path d="m58.008 226.705h10.102v-60.61h-10.102c-16.737 0-30.305 13.568-30.305 30.305 0 16.737 13.568 30.305 30.305 30.305z" fill="#ea9b58"/></g></g><g><path d="m200.821 99.772c0 20.642 16.734 37.376 37.376 37.376 0 20.642 16.734 37.376 37.376 37.376.679 0 1.353-.021 2.023-.056 4.145 10.301 14.224 17.576 26.009 17.576 6.386 0 12.27-2.139 16.983-5.735 9.99 3.704 20.793 5.735 32.071 5.735 11.279 0 22.082-2.031 32.072-5.735 4.713 3.596 10.598 5.735 16.984 5.735 11.784 0 21.863-7.275 26.009-17.576.67.036 1.344.056 2.023.056 20.642 0 37.376-16.734 37.376-37.376 20.642 0 37.376-16.734 37.376-37.376s-16.734-37.376-37.376-37.376c0-20.642-16.734-37.376-37.376-37.376-.679 0-1.353.021-2.023.056-4.145-10.301-14.224-17.576-26.008-17.576-6.386 0-12.27 2.14-16.984 5.735-9.991-3.704-20.793-5.735-32.072-5.735s-22.081 2.031-32.071 5.735c-4.714-3.596-10.598-5.735-16.984-5.735-11.784 0-21.863 7.275-26.009 17.576-.67-.036-1.344-.056-2.023-.056-20.642 0-37.376 16.734-37.376 37.376-20.642 0-37.376 16.734-37.376 37.376z" fill="#e175a5"/></g><g><path d="m467.124 62.396c0-15.357-9.265-28.544-22.507-34.294 2.88 56.395-48.938 120.558-128.806 153.33-7.739 3.175-15.496 5.947-23.232 8.341 3.386 1.452 7.108 2.272 11.026 2.272 6.386 0 12.27-2.139 16.983-5.735 9.99 3.704 20.792 5.735 32.071 5.735s22.082-2.031 32.072-5.735c4.713 3.596 10.598 5.735 16.984 5.735 11.784 0 21.864-7.275 26.009-17.576.67.036 1.344.056 2.023.056 20.642 0 37.376-16.734 37.376-37.376 20.642 0 37.376-16.734 37.376-37.376s-16.733-37.377-37.375-37.377z" fill="#de5791"/></g><g><g><path d="m395.087 130.077h-52.528v-60.61h52.528c4.463 0 8.081 3.618 8.081 8.081v44.447c0 4.464-3.618 8.082-8.081 8.082z" fill="#e6f7fe"/></g><g><path d="m342.559 130.077h-24.244c-4.463 0-8.081-3.618-8.081-8.081v-44.447c0-4.463 3.618-8.081 8.081-8.081h24.244z" fill="#abd641"/></g><g><path d="m310.234 115.935h-24.244c-4.463 0-8.081-3.618-8.081-8.081v-16.163c0-4.463 3.618-8.081 8.081-8.081h24.244z" fill="#62a4fb"/></g><g><path d="m403.168 83.61h32.325v32.325h-32.325z" fill="#b2e5fb"/></g></g><g><path d="m293.876 292.915c0 13.047 10.615 23.663 23.663 23.663 13.047 0 23.662-10.615 23.662-23.663s-10.615-23.663-23.662-23.663c-13.048 0-23.663 10.615-23.663 23.663zm32.325 0c0 4.776-3.886 8.663-8.662 8.663s-8.663-3.886-8.663-8.663 3.887-8.663 8.663-8.663 8.662 3.886 8.662 8.663z"/><path d="m406.223 241.972c-3.51-13.889-16.112-23.939-30.769-23.939-17.504 0-31.744 14.24-31.744 31.744s14.24 31.744 31.744 31.744c1.462 0 2.922-.101 4.369-.302 3.839 2.538 8.335 3.904 13.003 3.904 13.048 0 23.663-10.615 23.663-23.663 0-7.847-3.924-15.122-10.266-19.488zm-13.397 28.151c-2.209 0-4.318-.844-5.939-2.378-1.41-1.333-3.261-2.051-5.153-2.051-.647 0-1.299.083-1.939.255-1.416.379-2.876.571-4.34.571-9.232 0-16.744-7.511-16.744-16.744 0-9.232 7.512-16.744 16.744-16.744 8.428 0 15.567 6.297 16.607 14.648.322 2.586 1.964 4.821 4.337 5.9 3.093 1.407 5.091 4.5 5.091 7.88-.001 4.777-3.887 8.663-8.664 8.663z"/><path d="m169.126 276.465c-10.552 0-20.472 4.109-27.933 11.57-2.929 2.929-2.929 7.678.001 10.607 2.928 2.929 7.677 2.928 10.606 0 4.627-4.628 10.78-7.177 17.325-7.177s12.698 2.549 17.326 7.177c1.465 1.464 3.385 2.197 5.304 2.197s3.839-.732 5.304-2.197c2.929-2.929 2.929-7.678 0-10.606-7.461-7.462-17.381-11.571-27.933-11.571z"/><path d="m213.089 217.389c-3.864 1.689-8.387-.082-10.076-3.95-1.658-3.795-6.079-5.529-9.875-3.871s-5.529 6.079-3.871 9.875c2.422 5.545 6.858 9.815 12.492 12.023 2.68 1.051 5.479 1.575 8.272 1.575 3.08 0 6.154-.636 9.062-1.906 3.796-1.658 5.529-6.079 3.871-9.875-1.658-3.795-6.079-5.529-9.875-3.871z"/><path d="m148.985 219.443c1.658-3.796-.075-8.217-3.871-9.875-3.797-1.657-8.217.075-9.875 3.871-.818 1.873-2.316 3.315-4.22 4.062-1.905.747-3.985.706-5.856-.112-3.796-1.657-8.217.076-9.875 3.871-1.658 3.796.075 8.217 3.871 9.875 2.942 1.285 6.012 1.894 9.035 1.894 8.737 0 17.077-5.082 20.791-13.586z"/><path d="m474.081 55.439c-3.221-20.604-20.506-36.606-41.69-37.842-6.3-10.835-17.85-17.597-30.671-17.597-6.436 0-12.602 1.692-18.054 4.925-9.984-3.269-20.396-4.925-31.006-4.925s-21.02 1.655-31.002 4.924c-5.446-3.233-11.609-4.924-18.048-4.924-12.826 0-24.38 6.762-30.682 17.597-9.358.546-17.953 3.977-24.913 9.411-22.467-17.439-50.331-27.008-78.885-27.008-34.394 0-66.72 13.392-91.023 37.707-7.505 7.505-14.063 15.911-19.492 24.982-2.127 3.554-.97 8.16 2.584 10.287 1.206.722 2.534 1.065 3.845 1.065 2.551 0 5.037-1.302 6.442-3.649 4.797-8.015 10.593-15.443 17.229-22.08 21.472-21.481 50.03-33.312 80.415-33.312 24.823 0 49.049 8.185 68.726 23.12-3.325 5.15-5.632 11.017-6.617 17.319-21.454 3.354-37.919 21.956-37.919 44.331 0 14.588 7 27.569 17.813 35.771-6.156 9.826-28.568 39.217-76.353 39.217h-18.961c-16.402 0-31.431 8.279-40.21 21.87v-30.532c0-4.142-3.357-7.5-7.5-7.5h-10.101c-.874 0-1.738.041-2.598.099v-29.975c0-9.482 1.171-18.916 3.48-28.04 1.017-4.016-1.415-8.095-5.43-9.111-4.02-1.02-8.095 1.415-9.111 5.43-2.614 10.326-3.939 20.999-3.939 31.721v34.236c-12.004 6.342-20.207 18.95-20.207 33.444 0 20.846 16.959 37.805 37.805 37.805h2.865c2.707 39.453 26.593 73.173 60.347 89.851v35.189l-54.328 13.579c-39.385 9.843-66.892 45.074-66.892 85.676v46c0 4.142 3.357 7.5 7.5 7.5h323.25c4.143 0 7.5-3.358 7.5-7.5v-46c0-14.741-3.729-29.372-10.785-42.311-1.982-3.636-6.536-4.976-10.176-2.994-3.637 1.983-4.977 6.539-2.994 10.175 5.858 10.743 8.955 22.891 8.955 35.129v38.501h-55.709v-24.825c0-4.142-3.357-7.5-7.5-7.5s-7.5 3.358-7.5 7.5v24.825h-166.829v-24.825c0-4.142-3.357-7.5-7.5-7.5s-7.5 3.358-7.5 7.5v24.825h-55.712v-38.5c0-33.706 22.834-62.953 55.528-71.124l20.248-5.061c7.94 36.461 40.234 63.014 78.35 63.014 38.115 0 70.409-26.553 78.35-63.013l20.245 5.06c9.341 2.335 17.997 6.41 25.729 12.111 1.34.988 2.899 1.464 4.445 1.464 2.301 0 4.572-1.056 6.043-3.05 2.458-3.334 1.748-8.029-1.586-10.487-9.316-6.868-19.743-11.777-30.993-14.59l-54.326-13.579v-35.189c33.754-16.678 57.64-50.398 60.347-89.851h2.865c10.094 0 19.586-3.933 26.729-11.076 7.124-7.125 11.053-16.588 11.073-26.652 1.233-.55 2.442-1.159 3.612-1.853 7.396 2.415 15.067 3.954 22.858 4.582 4.125.328 7.745-2.745 8.078-6.873.333-4.129-2.744-7.746-6.873-8.078-7.72-.623-15.298-2.296-22.525-4.977-2.414-.896-5.117-.489-7.162 1.074-3.585 2.74-7.882 4.188-12.425 4.188-8.432 0-15.909-5.051-19.052-12.867-1.188-2.954-4.095-4.833-7.292-4.695-.56.025-1.128.042-1.696.042-16.471 0-29.87-13.4-29.87-29.87 0-4.142-3.357-7.5-7.5-7.5-16.476 0-29.88-13.404-29.88-29.88 0-16.47 13.404-29.87 29.88-29.87 4.143 0 7.5-3.358 7.5-7.5 0-16.476 13.399-29.88 29.87-29.88.53 0 1.06.016 1.582.047 3.204.188 6.202-1.695 7.406-4.689 3.145-7.823 10.624-12.878 19.052-12.878 4.534 0 8.831 1.452 12.425 4.199 2.046 1.564 4.751 1.969 7.166 1.072 9.417-3.498 19.328-5.271 29.459-5.271s20.042 1.773 29.459 5.271c2.41.895 5.114.493 7.16-1.067 3.604-2.75 7.907-4.204 12.44-4.204 8.423 0 15.897 5.055 19.041 12.877 1.202 2.993 4.185 4.88 7.406 4.69.522-.031 1.053-.047 1.583-.047 16.471 0 29.87 13.404 29.87 29.88 0 4.142 3.357 7.5 7.5 7.5 16.476 0 29.88 13.4 29.88 29.87 0 16.476-13.404 29.88-29.88 29.88-4.143 0-7.5 3.358-7.5 7.5 0 16.47-13.399 29.87-29.87 29.87-.568 0-1.137-.018-1.697-.042-3.198-.149-6.104 1.742-7.292 4.696-3.142 7.816-10.615 12.867-19.041 12.867-4.542 0-8.845-1.45-12.44-4.193-2.04-1.556-4.732-1.961-7.143-1.074-1.617.596-3.077 1.09-4.462 1.51-3.964 1.201-6.204 5.388-5.003 9.352 1.2 3.964 5.388 6.206 9.353 5.003.538-.163 1.083-.334 1.639-.516 5.447 3.229 11.614 4.918 18.057 4.918 12.826 0 24.379-6.762 30.677-17.597 21.181-1.237 38.462-17.236 41.685-37.832 21.452-3.356 37.918-21.962 37.918-44.342 0-22.375-16.465-40.978-37.919-44.331zm-438.878 140.961c0-12.575 10.23-22.805 22.805-22.805h2.602v45.609h-2.602c-12.574.001-22.805-10.229-22.805-22.804zm133.923 233.929c-31.138 0-57.504-21.791-63.798-51.652l16.819-4.204c4.372 21.941 23.771 38.53 46.979 38.53 23.207 0 42.607-16.589 46.979-38.53l16.819 4.204c-6.295 29.861-32.66 51.652-63.798 51.652zm32.906-65.231c0 18.145-14.762 32.906-32.906 32.906s-32.906-14.762-32.906-32.906v-34.982c10.384 3.312 21.439 5.106 32.906 5.106s22.522-1.794 32.906-5.106zm-32.906-44.876c-50.964 0-92.531-40.98-93.494-91.718l11.024-21.084c5.695-10.895 16.869-17.662 29.163-17.662h18.961c55.22 0 81.565-34.279 89.188-46.468h.142c2.853 0 5.584 1.166 7.568 3.161 1.248 5.895 3.658 11.363 6.977 16.16l23.972 65.382c-.693 50.974-42.366 92.229-93.501 92.229zm133.687-120.708c-.668 4.905-2.882 9.445-6.446 13.009-4.31 4.31-10.036 6.683-16.123 6.683h-2.602v-30.928c6.404 6.875 15.385 11.021 25.171 11.236z"/><path d="m285.989 123.435h16.817c.729 7.919 7.402 14.142 15.508 14.142h76.772c8.106 0 14.78-6.224 15.509-14.142h17.398v6.642c0 4.142 3.357 7.5 7.5 7.5s7.5-3.358 7.5-7.5v-60.61c0-4.142-3.357-7.5-7.5-7.5s-7.5 3.358-7.5 7.5v6.643h-17.398c-.729-7.919-7.403-14.143-15.509-14.143h-76.772c-8.106 0-14.779 6.224-15.508 14.143h-16.817c-8.592 0-15.581 6.99-15.581 15.581v.582h-20.784c-4.143 0-7.5 3.358-7.5 7.5s3.357 7.5 7.5 7.5h20.784v.581c0 8.591 6.989 15.581 15.581 15.581zm142.005-15h-17.325v-17.325h17.325zm-32.325-30.886v44.447c0 .32-.261.581-.582.581h-45.028v-45.61h45.028c.321 0 .582.261.582.582zm-77.936 0c0-.321.261-.582.581-.582h16.744v45.61h-16.744c-.32 0-.581-.261-.581-.581zm-32.325 14.142c0-.32.261-.581.581-.581h16.744v17.325h-16.744c-.32 0-.581-.261-.581-.582z"/></g></g></svg>