<svg height="512pt" viewBox="-29 0 512 512" width="512pt" xmlns="http://www.w3.org/2000/svg"><path d="m275.363281 247.636719-41.476562-42.191407c-6.566407-6.679687-10.238281-15.6875-10.210938-25.054687.007813-4.046875.019531-6.652344.03125-6.664063v-78.691406h-49.878906v89.183594c0 10.546875-5.847656 20.144531-15.089844 25.222656-17.207031 9.453125-30.710937 26.769532-37.816406 45.277344 1.414063.320312 2.878906.507812 4.394531.507812h2.984375c19.515625 0 35.335938 15.816407 35.335938 35.332032v176.90625c0 18.25-11.28125 33.542968-28.652344 36.71875 1.777344.398437 3.621094.613281 5.515625.613281h116.535156c13.859375 0 25.097656-11.238281 25.097656-25.097656v-197.121094c0-11.699219-2.417968-24.835937-6.769531-34.941406zm0 0" fill="#6fd844"/><path d="m195.636719 467.464844v-176.90625c0-33.152344-24.089844-60.773438-55.679688-66.308594-8.242187 8.785156-14.789062 19.40625-19.035156 30.46875 1.414063.320312 2.878906.507812 4.390625.507812h2.988281c19.515625 0 35.332031 15.816407 35.332031 35.332032v176.90625c0 18.25-11.277343 33.542968-28.648437 36.71875 1.777344.398437 3.621094.613281 5.515625.613281h43.804688c7.152343-10.691406 11.332031-23.53125 11.332031-37.332031zm0 0" fill="#5fbf32"/><path d="m219.882812 279.882812-34.238281-1.074218c-7.140625.730468-16.109375 2.046875-22.851562 3.902344.546875 2.53125.84375 5.15625.84375 7.84375v134.339843c39.617187 10.609375 84.550781 2.648438 118.496093-26.589843 0-16.988282 0-72.179688 0-89.230469-17.324218-14.921875-38.699218-25.273438-62.25-29.191407zm0 0" fill="#5fbf32"/><path d="m162.792969 282.710938c.546875 2.535156.84375 5.15625.84375 7.847656v134.335937c10.398437 2.785157 21.164062 4.277344 32 4.453125v-138.789062c0-3.910156-.351563-7.738282-.996094-11.46875l-8.996094-.28125c-7.144531.730468-16.109375 2.046875-22.851562 3.902344zm0 0" fill="#51aa22"/><path d="m409.339844 173.867188c-51.300782-51.300782-134.476563-51.300782-185.777344 0-51.300781 51.300781-51.300781 134.476562 0 185.777343s134.476562 51.300781 185.777344 0c51.300781-51.300781 51.300781-134.476562 0-185.777343zm-44.246094 177.375c-37.261719 21.484374-85.699219 16.296874-117.5625-15.566407s-37.050781-80.300781-15.566406-117.5625c2.191406-3.796875 7.394531-4.484375 10.492187-1.382812l124.019531 124.019531c3.101563 3.101562 2.414063 8.300781-1.382812 10.492188zm35.84375-35.84375c-2.1875 3.796874-7.390625 4.484374-10.492188 1.382812l-124.019531-124.019531c-3.097656-3.101563-2.414062-8.300781 1.382813-10.492188 37.265625-21.484375 85.699218-16.296875 117.5625 15.566407 31.863281 31.863281 37.050781 80.300781 15.566406 117.5625zm0 0" fill="#f25c5c"/><path d="m128.300781 253.226562h-2.984375c-10.914062 0-19.761718-10.847656-19.761718-21.761718h-37.871094c0 10.914062-8.847656 21.761718-19.757813 21.761718h-2.988281c-20.535156 0-37.332031 16.796876-37.332031 37.332032v176.90625c0 20.53125 16.800781 37.332031 37.332031 37.332031h83.367188c20.53125 0 37.332031-16.800781 37.332031-37.332031v-176.90625c-.003907-20.535156-16.800781-37.332032-37.335938-37.332032zm0 0" fill="#fcd286"/><path d="m37.605469 467.464844v-176.90625c0-20.535156 16.800781-37.332032 37.332031-37.332032h2.988281c10.914063 0 19.761719-10.847656 19.761719-21.761718h-30.003906c0 10.914062-8.847656 21.761718-19.761719 21.761718h-2.984375c-20.535156 0-37.335938 16.796876-37.335938 37.332032v176.90625c0 20.53125 16.800782 37.332031 37.335938 37.332031h30c-20.53125 0-37.332031-16.800781-37.332031-37.332031zm0 0" fill="#feb644"/><path d="m106.925781 183.753906h-40.613281c-7.054688 0-12.828125 5.773438-12.828125 12.824219v24.058594c0 7.054687 5.773437 12.828125 12.828125 12.828125h40.613281c7.054688 0 12.824219-5.773438 12.824219-12.828125v-24.058594c0-7.050781-5.769531-12.824219-12.824219-12.824219zm0 0" fill="#707487"/><path d="m83.488281 220.636719v-24.058594c0-7.050781 5.769531-12.824219 12.824219-12.824219h-30c-7.054688 0-12.828125 5.773438-12.828125 12.824219v24.058594c0 7.054687 5.773437 12.828125 12.828125 12.828125h30c-7.054688 0-12.824219-5.773438-12.824219-12.828125zm0 0" fill="#52586d"/><path d="m7.601562 449.167969h158.03125v-113.894531c-21.210937-18.273438-48.820312-29.320313-79.015624-29.320313-30.191407 0-57.804688 11.050781-79.015626 29.320313zm0 0" fill="#feb644"/><path d="m223.707031 97.035156v-33.660156c-1.441406.601562-3 .941406-4.632812.941406h-40.613281c-1.632813 0-3.191407-.339844-4.632813-.941406v33.660156zm0 0" fill="#5fbf32"/><path d="m219.074219 7.796875h-40.613281c-7.054688 0-12.828126 5.773437-12.828126 12.828125v32.933594c0 7.054687 5.773438 12.828125 12.828126 12.828125h40.613281c7.054687 0 12.824219-5.773438 12.824219-12.828125v-32.933594c0-7.054688-5.769532-12.828125-12.824219-12.828125zm0 0" fill="#707487"/><path d="m195.636719 53.558594v-32.933594c0-7.054688 5.769531-12.828125 12.824219-12.828125h-30c-7.054688 0-12.828126 5.773437-12.828126 12.828125v32.933594c0 7.054687 5.773438 12.828125 12.828126 12.828125h30c-7.054688 0-12.824219-5.773438-12.824219-12.828125zm0 0" fill="#52586d"/><path d="m253.5625 359.644531c-51.300781-51.300781-51.300781-134.476562 0-185.777343 21.832031-21.828126 49.429688-34.363282 77.890625-37.617188-38.425781-4.390625-78.417969 8.144531-107.890625 37.617188-51.300781 51.300781-51.300781 134.476562 0 185.777343 29.472656 29.472657 69.464844 42.007813 107.890625 37.617188-28.460937-3.253907-56.058594-15.789063-77.890625-37.617188zm0 0" fill="#e54a4a"/><path d="m37.605469 316.289062c-10.949219 4.851563-21.046875 11.269532-30.003907 18.984376v113.894531h30.003907zm0 0" fill="#f9972d"/><path d="m44.832031 512h83.367188c2.246093 0 4.449219-.171875 6.609375-.492188 1.855468.324219 3.726562.492188 5.589844.492188h48.699218c4.144532 0 7.5-3.359375 7.5-7.5 0-4.144531-3.355468-7.5-7.5-7.5h-27.441406c7.492188-8.398438 11.375-19.136719 11.375-29.832031 0-12.265625 0-20.347657 0-33.167969 35.480469 6.8125 71.914062-.789062 101.496094-20.828125v66.226563c0 9.707031-7.894532 17.601562-17.597656 17.601562h-32.828126c-4.144531 0-7.5 3.355469-7.5 7.5 0 4.140625 3.355469 7.5 7.5 7.5h32.828126c17.976562 0 32.601562-14.625 32.601562-32.601562v-76.652344c8.742188 1.699218 17.710938 2.578125 26.816406 2.578125 37.089844 0 71.964844-14.449219 98.195313-40.675781 20.96875-20.96875 34.457031-47.507813 39.003906-76.742188.636719-4.09375-2.164063-7.925781-6.257813-8.5625-4.089843-.640625-7.929687 2.164062-8.566406 6.257812-4.054687 26.070313-16.082031 49.738282-34.789062 68.441407-23.394532 23.394531-54.5 36.277343-87.585938 36.277343-52.082031 0-99.242187-32.617187-116.917968-83.007812-15.085938-43.390625-5.453126-93.648438 29.476562-128.578125 73.113281-73.113281 199.023438-28.820313 210.523438 73.851563.460937 4.117187 4.167968 7.078124 8.289062 6.621093 4.117188-.460937 7.082031-4.171875 6.621094-8.289062-7.839844-69.996094-66.917969-123.328125-137.988282-123.328125-31.28125 0-60.980468 10.273437-85.246093 29.21875 0-9.414063 0-76.589844 0-87.277344 4.960937-3.710938 8.191406-9.613281 8.191406-16.269531v-32.933594c0-11.210937-9.117187-20.328125-20.328125-20.328125h-40.613281c-11.207031 0-20.324219 9.117188-20.324219 20.328125v32.933594c0 6.660156 3.230469 12.5625 8.191406 16.273437v114.386719c0 7.742187-4.191406 14.832031-10.9375 18.503906-11.832031 6.4375-22.003906 15.382813-29.867187 26.085938 1.105469-2.503907 1.730469-5.265625 1.730469-8.171875v-24.058594c0-11.207031-9.117188-20.324219-20.324219-20.324219h-40.613281c-11.210938 0-20.328126 9.117188-20.328126 20.324219v24.058594c0 8.484375 5.230469 15.761718 12.632813 18.804687-3.886719 6.925781-10.792969 6.28125-13.683594 6.28125-24.722656 0-44.832031 20.113281-44.832031 44.832031v176.910157c0 24.71875 20.109375 44.832031 44.832031 44.832031zm225.703125-114.382812c-28.691406 21.386718-64.449218 28.257812-97.503906 21.085937 0-137.417969.023438-128.992187-.050781-130.605469 1.992187-.433594 4.003906-.820312 6.019531-1.152344 7.632812 51.183594 43.339844 93.878907 91.535156 110.671876zm-54.433594-308.378907h-34.875v-15.648437h34.875zm-43.070312-68.910156c0-2.9375 2.390625-5.328125 5.324219-5.328125h40.613281c2.9375 0 5.324219 2.390625 5.324219 5.328125v32.933594c0 3.011719-2.476563 5.328125-5.324219 5.328125h-40.613281c-2.871094 0-5.324219-2.335938-5.324219-5.328125zm-10.574219 195.273437c11.578125-6.300781 18.769531-18.441406 18.769531-31.679687v-79.683594h34.875v66.125c-25.671874 26.78125-39.957031 63.109375-38.4375 101.609375-2.648437.414063-5.289062.910156-7.90625 1.480469-6.382812-15.675781-20.941406-26.339844-37.511718-27.847656 6.964844-12.597657 17.429687-23.050781 30.210937-30.003907zm-41.035156 18.847657c-1.574219 2.539062-3.039063 5.152343-4.363281 7.847656-1.011719-.902344-1.875-1.964844-2.542969-3.152344 2.621094-1.078125 4.964844-2.6875 6.90625-4.695312zm-60.539063-38.167969c0-2.933594 2.390626-5.324219 5.324219-5.324219h40.613281c2.9375 0 5.324219 2.390625 5.324219 5.324219v24.058594c0 2.9375-2.386719 5.324218-5.324219 5.324218-14.03125 0-26.132812 0-40.613281 0-2.9375 0-5.324219-2.386718-5.324219-5.324218zm-45.882812 93.976562c0-16.445312 13.382812-29.828124 29.832031-29.828124h2.988281c12.429688 0 22.945313-8.367188 26.210938-19.761719h24.964844c3.414062 11.914062 14.394531 19.761719 26.214844 19.761719h2.984374c16.59375 0 29.835938 13.546874 29.835938 29.832031v29.613281c-43.273438-28.953125-99.75-28.960938-143.03125 0zm0 48.226563c41.625-33.742187 101.355469-33.78125 143.03125 0v102.886719h-143.03125zm0 117.886719h143.03125v10.796875c0 16.578125-13.539062 29.832031-29.835938 29.832031h-83.363281c-16.449219 0-29.832031-13.382812-29.832031-29.832031zm0 0"/><path d="m119.648438 355.511719h-66.265626c-4.144531 0-7.5 3.359375-7.5 7.5 0 4.144531 3.355469 7.5 7.5 7.5h66.265626c4.140624 0 7.5-3.355469 7.5-7.5 0-4.140625-3.359376-7.5-7.5-7.5zm0 0"/><path d="m241.789062 205.261719c-3.28125-3.28125-8.761718-2.832031-11.445312.996093-48.703125 69.414063 1.828125 165.257813 86.035156 165.25 20.921875 0 41.953125-6.261718 60.171875-19.042968 3.816407-2.679688 4.285157-8.152344.996094-11.445313-11.175781-11.179687-129.199219-129.199219-135.757813-135.757812zm32.738282 140.867187c-21.953125-11.488281-38.820313-32.230468-45.210938-56.839844 16.480469 4.335938 31.898438 12.160157 45.210938 22.992188zm0-52.503906c-14.503906-9.835938-30.777344-16.769531-47.945313-20.375-1.386719-18.238281 2.777344-35.714844 11.234375-50.75l31.097656 31.101562c3.726563 9.105469 5.613282 18.746094 5.613282 28.679688zm85.777344 51.367188c-13.71875 7.71875-28.851563 11.507812-43.921876 11.507812-9.085937 0-18.140624-1.398438-26.855468-4.128906 0-7.550782 0-62.226563 0-70.089844 0-2.839844-.136719-5.660156-.390625-8.460938zm0 0"/><path d="m402.351562 326.660156c29.304688-41.761718 24.347657-98.296875-11.777343-134.425781-36.128907-36.125-92.664063-41.082031-134.425781-11.78125-3.816407 2.679687-4.289063 8.152344-.996094 11.445313l135.757812 135.757812c3.304688 3.304688 8.773438 2.808594 11.441406-.996094zm-22.386718-123.816406c28.8125 28.8125 34.496094 72.769531 14.917968 107.570312l-122.488281-122.488281c34.800781-19.582031 78.753907-13.898437 107.570313 14.917969zm0 0"/></svg>