<svg height="480pt" viewBox="0 0 480.00015 480" width="480pt" xmlns="http://www.w3.org/2000/svg"><path d="m296 472h-112c-8.835938 0-16-7.164062-16-16v-129.464844c0-56.425781 16.703125-111.585937 48-158.535156v-128h48v128c31.296875 46.949219 48 102.109375 48 158.535156v129.464844c0 8.835938-7.164062 16-16 16zm0 0" fill="#6b9777"/><path d="m448 472h-80c-13.253906 0-24-10.746094-24-24v-262.398438c.003906-16.1875 7.363281-31.492187 20-41.601562s19.996094-25.414062 20-41.601562v-86.398438c0-4.417969 3.582031-8 8-8h32c4.417969 0 8 3.582031 8 8v86.398438c.003906 16.1875 7.363281 31.492187 20 41.601562s19.996094 25.414062 20 41.601562v262.398438c0 13.253906-10.746094 24-24 24zm0 0" fill="#da922a"/><path d="m104 472h-64c-17.671875 0-32-14.328125-32-32v-176.449219c.003906-4.964843 1.160156-9.867187 3.375-14.3125l33.25-66.476562c2.214844-4.445313 3.371094-9.347657 3.375-14.3125v-80.449219h48v80.449219c.003906 4.964843 1.160156 9.867187 3.375 14.3125l33.25 66.476562c2.214844 4.445313 3.371094 9.347657 3.375 14.3125v176.449219c0 17.671875-14.328125 32-32 32zm0 0" fill="#a45e14"/><path d="m272 40h-64v-24c0-4.417969 3.582031-8 8-8h48c4.417969 0 8 3.582031 8 8zm0 0" fill="#8d7761"/><path d="m216 40h48v64h-48zm0 0" fill="#ea9d2d"/><path d="m216 40h48v16h-48zm0 0" fill="#da922a"/><path d="m216 264v144h96v-81.464844c0-21.035156-2.320312-42.007812-6.929688-62.535156zm0 0" fill="#eaeae8"/><path d="m240 432h72v16h-72zm0 0" fill="#85bc94"/><path d="m208 432h16v16h-16zm0 0" fill="#85bc94"/><path d="m94.222656 88h-44.445312c-9.320313.464844-17.261719-6.683594-17.777344-16 .515625-9.3125 8.457031-16.464844 17.777344-16h44.445312c9.320313-.464844 17.261719 6.6875 17.777344 16-.515625 9.316406-8.457031 16.464844-17.777344 16zm0 0" fill="#a45e14"/><path d="m72 240 47.199219-17.6875-19.785157-39.550781c-.671874-1.503907-1.234374-3.054688-1.679687-4.640625-11.8125 6.910156-25.734375 13.878906-25.734375 13.878906l-25.320312-14.910156c-.507813 1.949218-1.195313 3.847656-2.054688 5.671875l-18.746094 37.46875zm0 0" fill="#ea9d2d"/><path d="m72 288c17.671875 0 32 14.328125 32 32v32c0 17.671875-14.328125 32-32 32s-32-14.328125-32-32v-32c0-17.671875 14.328125-32 32-32zm0 0" fill="#fbb540"/><path d="m104 448h30.871094c.714844-2.609375 1.09375-5.296875 1.128906-8v-8h-32zm0 0" fill="#b96a17"/><path d="m72 432h16v16h-16zm0 0" fill="#b96a17"/><path d="m40 432h16v16h-16zm0 0" fill="#b96a17"/><path d="m344 256h128v136h-128zm0 0" fill="#eaeae8"/><path d="m432 192c0 13.253906-10.746094 24-24 24s-24-10.746094-24-24 10.746094-24 24-24 24 10.746094 24 24zm0 0" fill="#fd9226"/><path d="m432 72h-48v-56c0-4.417969 3.582031-8 8-8h32c4.417969 0 8 3.582031 8 8zm0 0" fill="#e4e4e2"/><path d="m432 56h-48v-40c0-4.417969 3.582031-8 8-8h32c4.417969 0 8 3.582031 8 8zm0 0" fill="#dbdbdb"/><path d="m384 72h48v32h-48zm0 0" fill="#fd9226"/><path d="m432 40h-48v-24c0-4.417969 3.582031-8 8-8h32c4.417969 0 8 3.582031 8 8zm0 0" fill="#985713"/><g fill="#dbdbdb"><path d="m400 352h72v16h-72zm0 0"/><path d="m368 352h16v16h-16zm0 0"/><path d="m344 280h72v16h-72zm0 0"/><path d="m432 280h16v16h-16zm0 0"/></g><path d="m416 432h32v16h-32zm0 0" fill="#ea9d2d"/><path d="m384 432h16v16h-16zm0 0" fill="#ea9d2d"/><path d="m48 88h48v48h-48zm0 0" fill="#fbb540"/><path d="m48 88h48v16h-48zm0 0" fill="#ea9d2d"/><path d="m240 368h16v16h-16zm0 0" fill="#dbdbdb"/><path d="m272 368h16v16h-16zm0 0" fill="#dbdbdb"/><path d="m318.777344 300.953125c-.378906-4.226563-.839844-8.441406-1.386719-12.648437-.320313-2.402344-.628906-4.878907-1.007813-7.3125-.6875-4.375-1.511718-8.734376-2.398437-13.082032-7.371094-36.457031-21.621094-71.179687-41.984375-102.308594v-117.601562c4.417969 0 8-3.582031 8-8v-24c0-8.835938-7.164062-16-16-16h-48c-8.835938 0-16 7.164062-16 16v24c0 4.417969 3.582031 8 8 8v117.601562c-31.367188 47.804688-48.050781 103.75-48 160.925782v129.472656c0 13.253906 10.746094 24 24 24h112c13.253906 0 24-10.746094 24-24v-129.472656c0-6.398438-.273438-12.742188-.6875-19.109375-.113281-2.160157-.351562-4.3125-.535156-6.464844zm-18.121094-17.136719c.207031 1.335938.390625 2.671875.582031 4 .722657 5.152344 1.296875 10.332032 1.722657 15.542969.144531 1.710937.269531 3.417969.375 5.128906.390624 5.984375.664062 12 .664062 18.023438v73.488281h-80v-128h74.464844c.78125 3.929688 1.574218 7.847656 2.191406 11.816406zm-84.65625-267.816406h48v16h-48zm40 32v48h-32v-48zm48 400v8c0 4.417969-3.582031 8-8 8h-112c-4.417969 0-8-3.582031-8-8v-129.472656c-.050781-54.847656 16.1875-108.476563 46.65625-154.085938.875-1.316406 1.339844-2.863281 1.34375-4.441406v-56h32v56c.003906 1.578125.46875 3.125 1.34375 4.441406 17.011719 25.585938 29.648438 53.824219 37.398438 83.558594h-78.742188c-4.417969 0-8 3.582031-8 8v144c0 4.417969 3.582031 8 8 8h88v16h-64v16zm0 0"/><path d="m456.992188 137.753906c-10.765626-8.574218-17.023438-21.59375-16.992188-35.355468v-94.398438c0-4.417969-3.582031-8-8-8h-48c-4.417969 0-8 3.582031-8 8v94.398438c.03125 13.769531-6.230469 26.796874-17 35.371093-14.570312 11.59375-23.039062 29.210938-23 47.832031v262.398438c0 17.671875 14.328125 32 32 32h80c17.671875 0 32-14.328125 32-32v-262.398438c.042969-18.628906-8.433594-36.25-23.007812-47.847656zm-32.992188-41.753906h-32v-16h32zm-32-48h32v16h-32zm0-32h32v16h-32zm72 336h-64v16h64v16h-112v-88h64v-16h-64v-16h112zm-16 112h-80c-8.835938 0-16-7.164062-16-16v-48h112v48c0 8.835938-7.164062 16-16 16zm16-216h-112v-62.398438c-.03125-13.769531 6.230469-26.796874 17-35.371093 11.933594-9.503907 19.859375-23.152344 22.199219-38.230469h33.679687c2.335938 15.078125 10.25 28.726562 22.167969 38.25 10.75 8.578125 16.996094 21.597656 16.953125 35.351562zm0 0"/><path d="m104 480c22.082031-.027344 39.972656-17.917969 40-40v-176.449219c-.007812-6.207031-1.457031-12.328125-4.222656-17.886719l-33.242188-66.464843c-.386718-.859375-.707031-1.75-.949218-2.664063l-.265626-.800781c0-.078125-.097656-.132813-.128906-.214844-.75-2.285156-1.152344-4.667969-1.191406-7.070312v-74.265625c9.421875-3.355469 15.785156-12.183594 16-22.183594-.519531-13.730469-12.042969-24.460938-25.777344-24h-44.445312c-13.734375-.460938-25.257813 10.269531-25.777344 24 .214844 10 6.578125 18.828125 16 22.183594v74.265625c-.027344 2.132812-.34375 4.253906-.9375 6.304687 0 .0625-.070312.109375-.085938.175782-.375 1.457031-.878906 2.878906-1.511718 4.246093l-18.738282 37.480469-14.503906 29.007812c-2.765625 5.558594-4.2148435 11.679688-4.222656 17.886719v176.449219c.0273438 22.082031 17.917969 39.972656 40 40zm-48-384h32v32h-32zm32 48v24.449219c.015625 1.917969.175781 3.835937.472656 5.734375-6.199218 3.480468-12.367187 6.71875-16.191406 8.695312l-16.5625-9.75c.1875-1.554687.28125-3.117187.28125-4.679687v-24.449219zm-37.398438 44.6875 17.34375 10.207031c2.335938 1.375 5.214844 1.472657 7.640626.257813.445312-.222656 8.902343-4.464844 18.230468-9.601563l14.183594 28.394531-35.824219 13.4375-35.375-15.160156zm-.824218-124.6875h44.445312c4.894532-.433594 9.234375 3.117188 9.777344 8-.542969 4.882812-4.882812 8.433594-9.777344 8h-44.445312c-4.894532.433594-9.234375-3.117188-9.777344-8 .542969-4.882812 4.882812-8.433594 9.777344-8zm-33.777344 376v-176.449219c-.003906-3.730469.867188-7.414062 2.535156-10.75l11.128906-22.242187 39.199219 16.800781c1.894531.816406 4.03125.867187 5.960938.144531l40.375-15.167968 10.242187 20.488281c1.671875 3.328125 2.550782 7 2.558594 10.726562v168.449219h-24v16h22.527344c-3.378906 9.554688-12.394532 15.957031-22.527344 16h-64c-13.253906 0-24-10.746094-24-24zm0 0"/><path d="m208 432h16v16h-16zm0 0"/><path d="m72 392c22.082031-.027344 39.972656-17.917969 40-40v-32c0-22.089844-17.910156-40-40-40s-40 17.910156-40 40v32c.027344 22.082031 17.917969 39.972656 40 40zm-24-72c0-13.253906 10.746094-24 24-24s24 10.746094 24 24v32c0 13.253906-10.746094 24-24 24s-24-10.746094-24-24zm0 0"/><path d="m72 432h16v16h-16zm0 0"/><path d="m40 432h16v16h-16zm0 0"/><path d="m408 160c-17.671875 0-32 14.328125-32 32s14.328125 32 32 32 32-14.328125 32-32-14.328125-32-32-32zm0 48c-8.835938 0-16-7.164062-16-16s7.164062-16 16-16 16 7.164062 16 16-7.164062 16-16 16zm0 0"/><path d="m368 352h16v16h-16zm0 0"/><path d="m432 280h16v16h-16zm0 0"/><path d="m416 432h32v16h-32zm0 0"/><path d="m384 432h16v16h-16zm0 0"/><path d="m240 368h16v16h-16zm0 0"/><path d="m272 368h16v16h-16zm0 0"/></svg>