<svg height="512" viewBox="0 0 128 128" width="512" xmlns="http://www.w3.org/2000/svg"><g><g><path d="m48.635 96.232h30.73a20 20 0 0 1 20 20v5.268a0 0 0 0 1 0 0h-70.73a0 0 0 0 1 0 0v-5.268a20 20 0 0 1 20-20z" fill="#f5502f"/><path d="m64 106.016a9.208 9.208 0 0 1 -9.158-10.162l1.158-11.16h16l1.162 11.16a9.208 9.208 0 0 1 -9.162 10.162z" fill="#e18b87"/><path d="m78.364 26.23c5.359-1.646 18.006 5.078 12.861 27.535h-52.837c-5.68-8.636-3.421-28.056 12.72-32.941 17.662-5.346 27.256 5.406 27.256 5.406z" fill="#537980"/><ellipse cx="88.314" cy="57.824" fill="#e18b87" rx="5.775" ry="6.397"/><ellipse cx="39.686" cy="57.824" fill="#e18b87" rx="5.775" ry="6.397"/><path d="m87.765 63.309c0 1.466-.071 3.181-.187 5.029a23.626 23.626 0 0 1 -47.156 0c-.116-1.848-.187-3.563-.187-5.029a101.648 101.648 0 0 1 1.288-14.152c9.782-.08 21.669-2.354 31.308-7.178a23.271 23.271 0 0 0 13.628 7.107 101.054 101.054 0 0 1 1.306 14.223z" fill="#f8b098"/><g fill="#f9d42f"><path d="m13.5 6.5 2.163 4.383 4.837.703-3.5 3.411.826 4.818-4.326-2.275-4.326 2.275.826-4.818-3.5-3.411 4.837-.703z"/><path d="m114.5 6.5-2.163 4.383-4.837.703 3.5 3.411-.826 4.818 4.326-2.275 4.326 2.275-.826-4.818 3.5-3.411-4.837-.703z"/><path d="m104.474 27.128-1.854 3.757-4.146.602 3 2.925-.708 4.129 3.708-1.95 3.709 1.95-.709-4.129 3-2.925-4.146-.602z"/><path d="m23.526 27.128 1.854 3.757 4.146.602-3 2.925.708 4.129-3.708-1.95-3.709 1.95.709-4.129-3-2.925 4.146-.602z"/></g><path d="m71 74.136c-1.018 6.377-4.336 9.075-7 9.075s-5.982-2.7-7-9.075z" fill="#f5502f"/><g><path d="m111.963 72.723v-8.471h-12v8.471a6 6 0 0 1 -4.1 5.691l-1.34.448a6 6 0 0 0 -4.071 6.267l3.248 33.659a3 3 0 0 0 2.986 2.712h18.551a3 3 0 0 0 2.986-2.712l3.248-33.659a6 6 0 0 0 -4.071-6.267l-1.339-.448a6 6 0 0 1 -4.098-5.691z" fill="#95d70b"/><g fill="#90c202"><path d="m98.463 59.752h15v9h-15z"/><ellipse cx="105.963" cy="98.083" rx="4.5" ry="6"/></g></g><g><path d="m36.46 97.5-1.11 8.08-2.18 15.92h-15.419l-2.18-15.92-1.11-8.08z" fill="#ededf9"/><path d="m35.35 105.58-2.18 15.92h-15.419l-2.18-15.92z" fill="#95d70b"/></g></g><g fill="#061720"><path d="m45.355 28.953a17.233 17.233 0 0 0 -3.255 4.447 1.75 1.75 0 1 0 3.1 1.6 13.734 13.734 0 0 1 2.6-3.546 1.75 1.75 0 0 0 -2.446-2.5z"/><path d="m69.21 62.4a1.749 1.749 0 0 0 2.475 0l.883-.883.884.883a1.75 1.75 0 1 0 2.475-2.474l-.884-.884.884-.884a1.75 1.75 0 1 0 -2.475-2.474l-.884.883-.883-.883a1.75 1.75 0 1 0 -2.475 2.474l.884.884-.884.884a1.748 1.748 0 0 0 0 2.474z"/><path d="m52.073 62.4a1.749 1.749 0 0 0 2.475 0l.884-.883.883.883a1.75 1.75 0 0 0 2.475-2.47l-.884-.884.884-.884a1.75 1.75 0 0 0 -2.475-2.474l-.883.883-.884-.883a1.75 1.75 0 0 0 -2.475 2.474l.884.884-.884.884a1.75 1.75 0 0 0 0 2.47z"/><path d="m17.012 21.363a1.75 1.75 0 0 0 2.539-1.844l-.671-3.911 2.842-2.769a1.751 1.751 0 0 0 -.97-2.985l-3.927-.571-1.756-3.557a1.749 1.749 0 0 0 -3.138 0l-1.756 3.557-3.927.571a1.751 1.751 0 0 0 -.97 2.985l2.842 2.769-.671 3.911a1.75 1.75 0 0 0 2.539 1.844l3.512-1.845zm-5.512-4.748.227-1.322a1.753 1.753 0 0 0 -.5-1.549l-.961-.936 1.328-.194a1.747 1.747 0 0 0 1.317-.957l.594-1.2.594 1.2a1.747 1.747 0 0 0 1.317.957l1.328.194-.961.936a1.753 1.753 0 0 0 -.5 1.549l.227 1.322-1.188-.624a1.749 1.749 0 0 0 -1.628 0z"/><path d="m109.12 15.608-.671 3.911a1.75 1.75 0 0 0 2.539 1.844l3.512-1.845 3.512 1.845a1.75 1.75 0 0 0 2.539-1.844l-.671-3.911 2.842-2.769a1.751 1.751 0 0 0 -.97-2.985l-3.927-.571-1.756-3.557a1.749 1.749 0 0 0 -3.138 0l-1.756 3.557-3.927.571a1.751 1.751 0 0 0 -.97 2.985zm3.469-2.994a1.747 1.747 0 0 0 1.317-.957l.594-1.2.594 1.2a1.747 1.747 0 0 0 1.317.957l1.328.194-.961.936a1.753 1.753 0 0 0 -.5 1.549l.227 1.322-1.188-.624a1.749 1.749 0 0 0 -1.628 0l-1.188.624.227-1.322a1.753 1.753 0 0 0 -.5-1.549l-.961-.936z"/><path d="m99.6 35.023-.553 3.222a1.75 1.75 0 0 0 2.539 1.845l2.894-1.522 2.893 1.522a1.75 1.75 0 0 0 2.539-1.845l-.553-3.222 2.341-2.283a1.749 1.749 0 0 0 -.969-2.984l-3.237-.471-1.446-2.931a1.75 1.75 0 0 0 -3.139 0l-1.447 2.931-3.235.471a1.75 1.75 0 0 0 -.97 2.984zm3.277-2.407a1.746 1.746 0 0 0 1.317-.957l.286-.577.284.577a1.747 1.747 0 0 0 1.317.957l.638.093-.461.45a1.751 1.751 0 0 0 -.5 1.549l.108.634-.569-.3a1.751 1.751 0 0 0 -1.629 0l-.569.3.108-.634a1.751 1.751 0 0 0 -.5-1.549l-.462-.45z"/><path d="m21.956 26.354-1.446 2.931-3.237.471a1.749 1.749 0 0 0 -.973 2.984l2.342 2.283-.553 3.222a1.75 1.75 0 0 0 2.539 1.845l2.893-1.522 2.894 1.522a1.75 1.75 0 0 0 2.539-1.845l-.553-3.222 2.342-2.283a1.75 1.75 0 0 0 -.97-2.984l-3.235-.471-1.438-2.931a1.75 1.75 0 0 0 -3.139 0zm1.285 5.305.284-.577.286.577a1.746 1.746 0 0 0 1.317.957l.638.093-.462.45a1.751 1.751 0 0 0 -.5 1.549l.108.634-.569-.3a1.751 1.751 0 0 0 -1.629 0l-.569.3.108-.634a1.751 1.751 0 0 0 -.5-1.549l-.461-.45.638-.093a1.747 1.747 0 0 0 1.311-.957z"/><path d="m55.669 73a1.753 1.753 0 0 0 -.4 1.412c1.167 7.288 5.225 10.549 8.731 10.549s7.564-3.262 8.729-10.549a1.752 1.752 0 0 0 -1.729-2.026h-14a1.746 1.746 0 0 0 -1.331.614zm13.162 2.886c-1.078 3.814-3.15 5.575-4.831 5.575s-3.753-1.76-4.831-5.575z"/><path d="m120.134 98.968a1.763 1.763 0 0 0 -1.91 1.574l-.471 4.87a1.75 1.75 0 0 0 1.574 1.91c.057 0 .113.008.17.008a1.751 1.751 0 0 0 1.74-1.582l.471-4.87a1.751 1.751 0 0 0 -1.574-1.91z"/><path d="m117.957 77.2-1.348-.452a4.231 4.231 0 0 1 -2.9-4.029v-2.242a1.744 1.744 0 0 0 1.5-1.725v-9a1.749 1.749 0 0 0 -1.75-1.75h-15a1.749 1.749 0 0 0 -1.75 1.75v9a1.745 1.745 0 0 0 1.5 1.725v2.243a4.233 4.233 0 0 1 -2.909 4.031l-1.341.45a7.741 7.741 0 0 0 -5.255 8.1l1.148 11.887a21.788 21.788 0 0 0 -10.486-2.7h-4.6l-.455-4.452a25.369 25.369 0 0 0 15.01-21.581c.058-.938.1-1.79.133-2.582a7.984 7.984 0 0 0 6.386-8.053 8.422 8.422 0 0 0 -2.446-5.987c2.657-14.374-2.143-21.32-5.31-24.192-2.768-2.513-6.246-3.746-9.164-3.324-2.682-2.5-12.4-9.983-28.316-5.171a22.641 22.641 0 0 0 -14.449 12.767 26.613 26.613 0 0 0 -.934 19.371 8.351 8.351 0 0 0 -3.061 6.536 7.984 7.984 0 0 0 6.383 8.045c.031.792.074 1.643.132 2.58a25.1 25.1 0 0 0 2.605 9.726 1.75 1.75 0 1 0 3.131-1.565 21.6 21.6 0 0 1 -2.242-8.377c-.124-1.976-.184-3.585-.184-4.919a95.182 95.182 0 0 1 1.055-12.431 77.166 77.166 0 0 0 29.432-6.779 24.621 24.621 0 0 0 12.44 6.482 95.214 95.214 0 0 1 1.1 12.729c0 1.334-.06 2.943-.184 4.92a21.884 21.884 0 0 1 -36.348 14.974 1.75 1.75 0 0 0 -2.32 2.621 25.358 25.358 0 0 0 6.527 4.174l-.464 4.483h-4.593a21.8 21.8 0 0 0 -10.461 2.693 1.732 1.732 0 0 0 -.39-.823 1.751 1.751 0 0 0 -1.319-.6h-9.043a1.75 1.75 0 0 0 0 3.5h7.036l-.628 4.58h-16.725l-.627-4.58h1.449a1.75 1.75 0 0 0 0-3.5h-3.461a1.749 1.749 0 0 0 -1.733 1.988l3.29 24a1.749 1.749 0 0 0 1.733 1.513h97.489a4.712 4.712 0 0 0 4.722-4.292l.668-6.913a1.75 1.75 0 1 0 -3.484-.336l-.669 6.923a1.245 1.245 0 0 1 -1.237 1.118h-18.55a1.247 1.247 0 0 1 -1.248-1.128l-3.25-33.655a4.25 4.25 0 0 1 2.884-4.447l1.334-.449a7.725 7.725 0 0 0 5.3-7.351v-2.224h8.5v2.22a7.724 7.724 0 0 0 5.293 7.349l1.341.451a4.234 4.234 0 0 1 2.884 4.442l-.965 9.995a1.75 1.75 0 0 0 1.574 1.91c.057 0 .113.008.17.008a1.751 1.751 0 0 0 1.74-1.582l.965-9.993a7.722 7.722 0 0 0 -5.255-8.1zm-28.457-14.96c-.06-2.942-.349-6.121-.7-9a4.45 4.45 0 0 1 3.54 4.58 4.607 4.607 0 0 1 -2.84 4.42zm-53.84-4.42a4.449 4.449 0 0 1 3.54-4.583c-.35 2.884-.638 6.067-.7 9a4.607 4.607 0 0 1 -2.84-4.417zm38.44-17.046a1.753 1.753 0 0 0 -2.053-.361 72.88 72.88 0 0 1 -30.539 6.994 1.75 1.75 0 0 0 -1.715 1.493c-.038.248-.076.522-.115.784a6.986 6.986 0 0 0 -1.267.126 23.4 23.4 0 0 1 .94-16.465 19.226 19.226 0 0 1 12.266-10.845c16.305-4.929 25.075 4.5 25.438 4.9a1.755 1.755 0 0 0 1.821.507c1.542-.475 4.346.051 6.856 2.329 2.537 2.3 6.325 7.862 4.448 19.712a6.988 6.988 0 0 0 -1.864-.264c-.043-.288-.086-.587-.128-.859a1.749 1.749 0 0 0 -1.451-1.463 21.5 21.5 0 0 1 -12.637-6.588zm-10.1 51.435a25.48 25.48 0 0 0 6.925-.958l.49 4.728.028.36a7.458 7.458 0 1 1 -14.889.035l.524-5.128a25.421 25.421 0 0 0 6.922.963zm-44.723 27.541-1.7-12.42h15.767l-1.7 12.42zm15.9 0 2.478-18.077a18.273 18.273 0 0 1 10.975-3.693h4.489a11.009 11.009 0 0 0 2.9 6.337 10.945 10.945 0 0 0 15.958 0 11.006 11.006 0 0 0 2.9-6.337h4.493a18.235 18.235 0 0 1 10.915 3.651l1.673 17.328a4.768 4.768 0 0 0 .152.791zm65.036-58.25h11.5v5.5h-11.5z"/><path d="m105.963 90.333c-3.446 0-6.25 3.477-6.25 7.75s2.8 7.75 6.25 7.75 6.25-3.477 6.25-7.75-2.804-7.75-6.25-7.75zm0 12c-1.49 0-2.75-1.946-2.75-4.25s1.26-4.25 2.75-4.25 2.75 1.946 2.75 4.25-1.26 4.25-2.75 4.25z"/></g></g></svg>