<svg height="512" width="512" xmlns="http://www.w3.org/2000/svg"><path d="M229.929 342.5v45a5 5 0 0 0 5 5h50c44.183 0 80 35.817 80 80v12c0 11.046-8.954 20-20 20h-317c-11.046 0-20-8.954-20-20v-12c0-44.183 35.817-80 80-80h50a5 5 0 0 0 5-5v-45z" fill="#fbbd80"/><path d="M364.93 472.5v12c0 11.05-8.96 20-20 20h-30c11.04 0 20-8.95 20-20v-12c0-44.18-35.82-80-80-80h30c44.18 0 80 35.82 80 80z" fill="#f4aa73"/><path d="M293.929 198.5h26.5c16.845 0 30.5 13.655 30.5 30.5s-13.655 30.5-30.5 30.5h-26.5zM88.929 259.5h-36.5c-16.845 0-30.5-13.655-30.5-30.5s13.655-30.5 30.5-30.5h36.5z" fill="#fbbd80"/><path d="M303.929 138.5V240c0 64.893-52.606 117.5-117.5 117.5-64.893 0-117.5-52.606-117.5-117.5V138.5s235-1.978 235 0z" fill="#ffd18d"/><path d="M303.93 138.5V240c0 64.89-52.61 117.5-117.5 117.5-5.08 0-10.09-.32-15-.94 57.8-7.37 102.5-56.75 102.5-116.56V138.5c0-.55-18.22-.8-44.51-.86 41.38-.07 74.51.12 74.51.86z" fill="#fbbd80"/><path d="M73.929 409.5c0 6.9-2.8 13.16-7.32 17.68s-10.78 7.32-17.68 7.32c-9.67 0-18.05-5.48-22.2-13.51 10.79-12.82 25.54-22.2 42.37-26.25a24.82 24.82 0 0 1 4.83 14.76z" fill="#ff8d95"/><path d="M225.929 45.535V17.5c0-5.523-4.477-10-10-10h-10c-11.046 0-20 8.954-20 20l-10 18.188z" fill="#514751"/><path d="M145.929 46.299V17.5c0-5.523 4.477-10 10-10h10c11.046 0 20 8.954 20 20v17.36z" fill="#615260"/><path d="M333.93 142.5v59.15a30.266 30.266 0 0 0-13.5-3.15h-16.5V229h-10c-11.05 0-20-8.95-20-20v-6c0-8.28-6.72-15-15-15h-27.35c-6.13 0-11.64-3.74-13.92-9.43l-2.46-6.14c-2.28-5.7-7.79-9.43-13.93-9.43h-29.69a14.99 14.99 0 0 0-13.92 9.43l-2.46 6.14a15.007 15.007 0 0 1-13.93 9.43h-27.34c-8.28 0-15 6.72-15 15v6c0 7.4-4.02 13.86-10 17.31a19.838 19.838 0 0 1-10 2.69h-10v-30.5h-16.5c-4.85 0-9.43 1.13-13.5 3.15V142.5c0-57.99 47.01-105 105-105h85c57.99 0 105 47.01 105 105z" fill="#736572"/><path d="M333.93 142.5v59.15a30.266 30.266 0 0 0-13.5-3.15h-16.5v-56c0-57.99-47.01-105-105-105h30c57.99 0 105 47.01 105 105z" fill="#615260"/><path d="m308.778 467.017 48.269-11.773c6.942-1.693 14.23-1.558 21.05.575a96.899 96.899 0 0 0 28.974 4.406c53.572 0 97-43.428 97-97s-43.428-97-97-97-97 43.428-97 97a96.934 96.934 0 0 0 4.125 28.06c2.033 6.733 2.147 13.899.481 20.731l-11.941 48.959c-.889 3.642 2.399 6.93 6.042 6.042z" fill="#baf39a"/><path d="M504.07 363.22c0 26.79-10.86 51.04-28.41 68.59-17.56 17.55-41.8 28.41-68.59 28.41-5.1 0-10.12-.39-15.01-1.16 20.79-3.22 39.38-13.04 53.6-27.25 17.55-17.55 28.41-41.8 28.41-68.59 0-26.78-10.86-51.04-28.41-68.59-14.21-14.21-32.81-24.03-53.59-27.25 4.89-.77 9.9-1.16 15-1.16 26.79 0 51.03 10.86 68.59 28.41 17.55 17.55 28.41 41.81 28.41 68.59z" fill="#9ae59c"/><path d="M407.042 330.683c23.902 0 32.5 14.551 32.5 32.5 0 17.949-8.667 32.5-32.5 32.5s-32.5-14.551-32.5-32.5c0-17.949 8.667-32.5 32.5-32.5z" fill="#fcf1f2"/><g fill="#ff8d95"><path d="M239.929 452.5c-8.284 0-15-6.716-15-15 0-8.284 6.716-15 15-15 8.284 0 15 6.716 15 15 0 8.284-6.716 15-15 15zM239.929 504.5h-60c0-8.28 3.36-15.78 8.79-21.21s12.93-8.79 21.21-8.79 15.78 3.36 21.21 8.79 8.79 12.93 8.79 21.21zM270.429 482c-5.514 0-10-4.486-10-10s4.486-10 10-10 10 4.486 10 10-4.486 10-10 10zM100.929 474.5c-8.284 0-15-6.716-15-15 0-8.284 6.716-15 15-15 8.284 0 15 6.716 15 15 0 8.284-6.716 15-15 15z"/></g><g><path d="M223.008 304.533a7.5 7.5 0 0 0 4.833-13.238c-24.496-20.611-58.564-20.6-82.849.022a7.501 7.501 0 0 0 9.71 11.434c18.593-15.792 44.697-15.782 63.481.022a7.466 7.466 0 0 0 4.825 1.76zM243.929 251.5a7.5 7.5 0 0 0 7.5-7.5v-15a7.5 7.5 0 0 0-15 0v15a7.5 7.5 0 0 0 7.5 7.5zM128.929 221.5a7.5 7.5 0 0 0-7.5 7.5v15a7.5 7.5 0 0 0 15 0v-15a7.5 7.5 0 0 0-7.5-7.5z"/><path d="M459.898 273.043a7.5 7.5 0 0 0-7.593 12.937c27.304 16.026 44.265 45.625 44.265 77.246 0 49.35-40.149 89.5-89.5 89.5a89.437 89.437 0 0 1-26.735-4.064c-8.011-2.506-16.678-2.748-25.066-.703l-44.273 10.798 10.967-44.963c2.006-8.225 1.803-16.758-.587-24.676a89.513 89.513 0 0 1-3.805-25.893c0-49.351 40.149-89.5 89.5-89.5 4.995 0 10.003.414 14.885 1.231a7.5 7.5 0 0 0 2.476-14.794 105.444 105.444 0 0 0-17.361-1.437c-57.622 0-104.5 46.879-104.5 104.5 0 8.188.964 16.298 2.837 24.195a87.596 87.596 0 0 0-20.479-2.421h-47.5v-30.886c35.619-15.982 62.445-48.164 71.054-87.114h11.946c20.953 0 38-17.047 38-38 0-13.194-6.762-24.835-17-31.65V142.5c0-60.525-48.046-110.031-108-112.402V17.5c0-9.649-7.851-17.5-17.5-17.5h-10c-7.875 0-14.982 3.332-20 8.655-5.018-5.323-12.125-8.655-20-8.655h-10c-9.649 0-17.5 7.851-17.5 17.5v12.636c-59.488 2.878-107 52.175-107 112.364a7.5 7.5 0 0 0 15 0c0-53.762 43.738-97.5 97.5-97.5h85c53.762 0 97.5 43.738 97.5 97.5v48.978a38.042 38.042 0 0 0-6-.478h-16.5a7.5 7.5 0 0 0-7.5 7.5v23h-2.5c-3.339 0-6.478-1.3-8.839-3.661s-3.661-5.5-3.661-8.839v-6c0-6.01-2.34-11.661-6.59-15.911s-9.9-6.59-15.91-6.59h-27.344a7.464 7.464 0 0 1-6.963-4.715l-2.457-6.141c-3.437-8.592-11.636-14.144-20.89-14.144h-29.689c-9.254 0-17.454 5.552-20.89 14.144l-2.458 6.143a7.462 7.462 0 0 1-6.963 4.714H113.93c-12.406 0-22.5 10.093-22.5 22.499v6.002c0 6.892-5.607 12.499-12.5 12.499h-2.5v-23a7.5 7.5 0 0 0-7.5-7.5h-16.5c-2.042 0-4.045.167-6 .478V177.5a7.5 7.5 0 0 0-15 0v19.85c-10.237 6.815-17 18.456-17 31.65 0 20.953 17.047 38 38 38h11.946c8.61 38.95 35.435 71.132 71.054 87.114V385h-47.5c-48.248 0-87.5 39.252-87.5 87.5v12c0 15.164 12.336 27.5 27.5 27.5h317c15.164 0 27.5-12.336 27.5-27.5v-12a88.34 88.34 0 0 0-.647-10.491c1.381.23 2.743.551 4.075.968a104.45 104.45 0 0 0 31.213 4.748c57.622 0 104.5-46.878 104.5-104.5 0-36.918-19.8-71.474-51.673-90.182zM205.929 15h10c1.378 0 2.5 1.122 2.5 2.5V30h-25v-2.5c0-6.893 5.608-12.5 12.5-12.5zm-50 0h10c6.893 0 12.5 5.607 12.5 12.5V30h-25V17.5c0-1.378 1.122-2.5 2.5-2.5zm187.5 214c0 12.682-10.318 23-23 23h-9.579c.378-3.951.579-7.952.579-12v-3.5h9.5a7.5 7.5 0 0 0 0-15h-9.5V206h9c12.682 0 23 10.318 23 23zm-291 23c-12.682 0-23-10.318-23-23s10.318-23 23-23h9v15.5h-9.5a7.5 7.5 0 0 0 0 15h9.5v3.5c0 4.048.201 8.049.579 12zm24-12v-3.5h2.5c15.164 0 27.5-12.336 27.5-27.499v-6.002c0-4.135 3.364-7.5 7.5-7.5h27.345c9.254-.001 17.454-5.553 20.89-14.144l2.458-6.143a7.463 7.463 0 0 1 6.963-4.714h29.689a7.465 7.465 0 0 1 6.963 4.715l2.457 6.141c3.437 8.592 11.637 14.144 20.891 14.144h27.344c4.032-.083 7.584 3.469 7.5 7.5v6c0 7.346 2.86 14.252 8.054 19.446s12.1 8.055 19.446 8.055h2.5v3.5c0 60.654-49.346 110-110 110s-110-49.345-110-109.999zM65.401 403.602a17.47 17.47 0 0 1 1.028 5.898c0 4.677-1.819 9.073-5.123 12.376A17.389 17.389 0 0 1 48.929 427c-4.865 0-9.354-1.956-12.605-5.359a72.6 72.6 0 0 1 29.077-18.039zM188.734 497a22.414 22.414 0 0 1 5.289-8.407c4.252-4.252 9.901-6.593 15.907-6.593s11.655 2.341 15.907 6.594a22.402 22.402 0 0 1 5.289 8.406zm168.695-12.5c0 6.893-5.607 12.5-12.5 12.5H246.68c-1.446-7.154-4.956-13.732-10.237-19.013-7.084-7.085-16.5-10.987-26.514-10.987-10.012 0-19.428 3.902-26.513 10.986-5.282 5.281-8.792 11.859-10.237 19.014H27.929c-6.893 0-12.5-5.607-12.5-12.5v-12c0-14.4 4.237-27.821 11.505-39.115C32.863 438.823 40.71 442 48.929 442c8.684 0 16.846-3.38 22.983-9.517s9.517-14.299 9.517-22.983c0-3.101-.445-6.15-1.295-9.075a72.988 72.988 0 0 1 7.795-.425h50c6.893 0 12.5-5.607 12.5-12.5v-27.792c11.406 3.436 23.489 5.292 36 5.292s24.594-1.856 36-5.292V387.5c0 6.893 5.607 12.5 12.5 12.5h50a72.25 72.25 0 0 1 23.371 3.858 32.961 32.961 0 0 1-.911 6.381l-11.941 48.959a12.41 12.41 0 0 0 3.306 11.8c2.385 2.385 5.533 3.668 8.799 3.668.996 0 2.002-.119 3.002-.363l46.25-11.28c.408 3.132.625 6.305.625 9.477v12z"/><path d="M455.866 325.028a7.5 7.5 0 0 0 0-10.606 7.5 7.5 0 0 0-10.606 0l-14.723 14.724c-4.505-2.783-9.859-4.624-15.966-5.443V311.71a7.5 7.5 0 0 0-15 0v11.993c-6.106.819-11.461 2.66-15.966 5.443l-14.724-14.724a7.5 7.5 0 0 0-10.606 0 7.5 7.5 0 0 0 0 10.606l14.726 14.726c-2.781 4.505-4.621 9.859-5.438 15.964h-11.999a7.5 7.5 0 0 0 0 15h12.002c.819 6.103 2.66 11.455 5.442 15.958l-14.731 14.731a7.5 7.5 0 0 0 0 10.606 7.5 7.5 0 0 0 10.606 0l14.733-14.733c4.503 2.78 9.854 4.619 15.956 5.437v12.008a7.5 7.5 0 0 0 15 0v-12.008c6.102-.818 11.453-2.658 15.956-5.437l14.733 14.733a7.5 7.5 0 0 0 10.606 0 7.5 7.5 0 0 0 0-10.606l-14.731-14.731c2.782-4.503 4.623-9.855 5.442-15.958h12.001a7.5 7.5 0 0 0 0-15H446.58c-.818-6.105-2.658-11.459-5.438-15.964zm-48.795 63.181c-16.79 0-24.965-8.149-24.997-24.906 0-.029.004-.057.004-.086 0-.031-.004-.061-.005-.092.028-16.7 8.148-24.848 24.812-24.91.062.002.122.009.185.009s.123-.008.185-.009c16.693.062 24.815 8.236 24.815 24.994.001 16.823-8.177 25-24.999 25z"/><path d="M407.071 353.225c-5.514 0-10 4.486-10 10s4.486 10 10 10 10-4.486 10-10-4.486-10-10-10zM239.929 415c-12.407 0-22.5 10.093-22.5 22.5s10.093 22.5 22.5 22.5 22.5-10.093 22.5-22.5-10.093-22.5-22.5-22.5zm0 30c-4.136 0-7.5-3.364-7.5-7.5s3.364-7.5 7.5-7.5 7.5 3.364 7.5 7.5-3.364 7.5-7.5 7.5zM270.429 462c-5.514 0-10 4.486-10 10s4.486 10 10 10 10-4.486 10-10-4.486-10-10-10zM100.929 437c-12.407 0-22.5 10.093-22.5 22.5s10.093 22.5 22.5 22.5 22.5-10.093 22.5-22.5-10.093-22.5-22.5-22.5zm0 30c-4.136 0-7.5-3.364-7.5-7.5s3.364-7.5 7.5-7.5 7.5 3.364 7.5 7.5-3.364 7.5-7.5 7.5z"/></g></svg>