<svg width="512" height="512" xmlns="http://www.w3.org/2000/svg"><path style="fill:#fdc5cc" d="M254 500.5c1.292-1.375 2.574-2.5 2.849-2.5.275 0-.557 1.125-1.849 2.5-1.292 1.375-2.574 2.5-2.849 2.5-.275 0 .557-1.125 1.849-2.5zM97.812 458.317c.722-.289 1.585-.253 1.917.079.332.332-.258.568-1.312.525-1.165-.048-1.402-.285-.604-.604zM68.406 446.75 66.5 444.5l2.25 1.905c2.114 1.79 2.705 2.595 1.905 2.595-.19 0-1.202-1.012-2.25-2.25zM383.5 447c.995-1.1 2.035-2 2.31-2 .275 0-.315.9-1.31 2-.995 1.1-2.035 2-2.31 2-.275 0 .315-.9 1.31-2zm11.732-28c0-1.925.206-2.712.457-1.75.252.963.252 2.538 0 3.5-.251.963-.457.175-.457-1.75zM178.12 390.858c-12.918-3.754-17.042-18.87-7.698-28.213 12.034-12.034 32.584-.47 28.437 16.002-2.247 8.923-12.096 14.722-20.74 12.21zm109.14-27.956c-11.315-1.906-22.417-10.217-27.126-20.306-10.543-22.588 3.562-49.22 27.859-52.6 24.734-3.441 45.756 17.815 41.875 42.342-2.316 14.64-14.826 27.91-28.423 30.148-7.606 1.251-8.986 1.292-14.185.416zm5.817-34.825C299.518 321.635 295.11 311 286 311c-3.258 0-4.784.63-7.077 2.923-2.292 2.293-2.923 3.82-2.923 7.077 0 3.258.63 4.784 2.923 7.077 2.293 2.292 3.82 2.923 7.077 2.923 3.258 0 4.784-.63 7.077-2.923zM14.924 317.25 12.5 314.5l2.75 2.424c1.512 1.334 2.75 2.571 2.75 2.75 0 .785-.81.146-3.076-2.424zm103.44-21.42c-7.855-3.803-2.39-16.154 5.67-12.816 5.714 2.367 5.931 10.314.351 12.856-2.905 1.324-3.209 1.322-6.02-.04zm318.56-34.58-2.424-2.75 2.75 2.424c2.57 2.266 3.209 3.076 2.424 3.076-.179 0-1.416-1.238-2.75-2.75zm-248.269-22.732c-5.177-1.814-8.466-5.103-9.705-9.703-3.785-14.059 13.822-24.197 24.127-13.892 10.556 10.556-.414 28.502-14.422 23.595zM57.252 159.5c.011-2.2.216-2.982.455-1.738.24 1.244.23 3.044-.02 4s-.446-.062-.435-2.262zM68.5 132c.995-1.1 2.035-2 2.31-2 .275 0-.315.9-1.31 2-.995 1.1-2.035 2-2.31 2-.275 0 .315-.9 1.31-2zM198 78.5c1.292-1.375 2.574-2.5 2.849-2.5.275 0-.557 1.125-1.849 2.5-1.292 1.375-2.574 2.5-2.849 2.5-.275 0 .557-1.125 1.849-2.5z" transform="translate(-.296 .174)"/><path style="fill:#b8f198" d="M220.82 495.59c-9.728-2.588-16.48-10.865-17.768-21.777-.884-7.504-2.526-9.071-11.236-10.729-20.006-3.806-43.332-13.305-61.916-25.214-4.18-2.679-8.692-4.87-10.027-4.87-1.335 0-4.812 1.792-7.726 3.982-8.461 6.357-17.249 7.54-25.414 3.42-14.71-7.42-17.492-25.099-6.096-38.729 3.429-4.101 2.954-7.05-2.506-15.573-12.212-19.06-21.177-41.116-25.227-62.069C51.37 316.091 48.71 313 43.411 313c-5.697 0-11.045-1.995-15.445-5.76-6.861-5.874-9.638-13.845-7.818-22.44 2.114-9.976 10.447-17.089 21.848-18.648 7.74-1.058 9.256-2.63 10.938-11.336 4.038-20.896 12.982-42.883 25.18-61.898C80.8 188.728 83 184.17 83 182.79c0-1.38-1.571-4.485-3.491-6.9-6.758-8.499-8.052-18.026-3.62-26.644 4.136-8.04 11.593-12.595 20.611-12.59 6.29.003 10.686 1.708 17.444 6.765 1.895 1.418 4.55 2.578 5.9 2.578 1.351 0 5.884-2.199 10.074-4.886 19.07-12.233 40.99-21.139 62.05-25.21 7.94-1.535 11.032-4.195 11.032-9.493 0-8.346 5.322-17.44 12.35-21.106 13.826-7.21 31.339 1.354 34.14 16.695l.64 3.5-17.315-.207-17.315-.206 8.63 1.398c11.495 1.862 19.015 3.81 33.237 8.609 25.82 8.711 47.78 22.348 68.89 42.78 10.358 10.023 12.391 13.385 3.541 5.854-18.798-15.997-43.334-27.728-70.9-33.9-9.208-2.062-12.916-2.323-32.398-2.287-18.857.034-23.45.356-32.148 2.248-34.36 7.474-66.916 26.037-88.733 50.594-12.423 13.983-14.373 18.01-11.124 22.97 1.4 2.135 1.198 2.809-3.145 10.486-3.694 6.53-5.008 8.087-6.445 7.63-.993-.314-3.142.12-4.777.965-3.577 1.85-7.793 11.924-11.643 27.825-3.933 16.244-4.791 25.5-4.193 45.238.765 25.223 5.12 43.173 15.785 65.065 22.206 45.582 63.341 77.51 114.223 88.655 8.836 1.935 13.141 2.234 32.2 2.234 19.087 0 23.357-.297 32.249-2.244 27.192-5.954 52.944-18.335 71.501-34.374 3.162-2.734 5.75-4.593 5.75-4.13 0 1.093-15.925 16.67-23 22.497-23.9 19.684-57.462 34.446-89.384 39.315l-9.116 1.39 17.75-.22c19.626-.245 18.705-.603 16.59 6.457-3.411 11.382-16.394 18.54-28.02 15.448zm147.384-324.947c-4.548-5.7-18.128-19.152-24.598-24.366l-3.895-3.14 3.605-3.399c6.536-6.164 7.404-12.753 3.284-24.917-11.958-35.296 3.488-73.629 36.613-90.87 9.767-5.083 20.924-7.976 31.787-8.243 7.947-.194 8.858.001 14 3.005C452.241 32.287 467.287 55.599 469.848 82c3.184 32.835-12.627 63.92-40.848 80.306-5.037 2.925-6.161 3.178-13.354 3.005-4.32-.103-11.42-.959-15.777-1.9-6.487-1.402-8.634-1.499-11.85-.535-4.714 1.412-9.139 4.964-12.045 9.666-1.175 1.902-2.443 3.458-2.816 3.458-.374 0-2.603-2.41-4.954-5.357zm61.048-26.07c9.846-3.513 15.172-11.084 15.177-21.573.007-13.597-8.823-22.426-22.429-22.426-8.059 0-13.751 2.72-18.016 8.607-5.867 8.098-6.314 17.527-1.22 25.723 5.797 9.33 16.496 13.235 26.488 9.67zm-20-60C419.098 81.06 424.424 73.49 424.429 63c.007-13.597-8.823-22.426-22.429-22.426-8.059 0-13.751 2.72-18.016 8.607-5.867 8.098-6.314 17.527-1.22 25.723 5.797 9.33 16.496 13.235 26.488 9.67z" transform="translate(-.296 .174)"/><path style="fill:#fd8d96" d="M212.5 435.997c-63.087-6.706-114.237-51.223-129.024-112.292-6.637-27.41-4.78-59.256 4.965-85.145 3.087-8.2 3.222-11.897.536-14.583-2.266-2.266-2.364-1.94 3.793-12.642 3.228-5.613 3.756-6.085 5.888-5.275 3.682 1.4 6.607-.358 12.02-7.225 13.622-17.284 30.402-30.758 50.822-40.811 14.084-6.934 21.666-9.612 35.5-12.54 61.141-12.94 125.514 16.018 156.758 70.516 13.568 23.666 19.524 46.088 19.524 73.5s-5.956 49.834-19.524 73.5c-9.55 16.657-24.031 32.864-40.258 45.055-10.066 7.562-33.2 19.114-44.987 22.463-17.95 5.102-39.622 7.222-56.013 5.48zm-17.957-31.099c7.595-2.842 15.513-10.76 18.355-18.355 6.358-16.993-2.09-36.34-18.568-42.529-7.855-2.95-18.638-2.551-25.83.954-26.118 12.73-24.083 50.474 3.263 60.518 5.797 2.13 16.237 1.86 22.78-.588zm112.525-27.51c18.482-5.487 31.833-18.838 37.32-37.32.906-3.052 1.612-8.995 1.612-13.568 0-29.062-23.324-52.5-52.245-52.5C264.427 274 241 297.2 241 326.245c0 23.756 14.593 43.291 38 50.867 7.128 2.307 20.773 2.441 28.069.276zm-17.256-14.071c.722-.289 1.585-.253 1.917.079.332.332-.258.568-1.312.525-1.165-.048-1.402-.285-.604-.604zm6 0c.722-.289 1.585-.253 1.917.079.332.332-.258.568-1.312.525-1.165-.048-1.402-.285-.604-.604zm34.267-33.9c.048-1.165.285-1.402.604-.604.289.721.253 1.584-.079 1.916-.332.332-.568-.258-.525-1.312zm0-6c.048-1.165.285-1.402.604-.604.289.721.253 1.584-.079 1.916-.332.332-.568-.258-.525-1.312zm-40.267-34.1c.722-.289 1.585-.253 1.917.079.332.332-.258.568-1.312.525-1.165-.048-1.402-.285-.604-.604zm6 0c.722-.289 1.585-.253 1.917.079.332.332-.258.568-1.312.525-1.165-.048-1.402-.285-.604-.604zM132.12 309.206c15.432-8.062 15.926-29.922.88-38.956-19.927-11.966-42.554 10.301-30.978 30.487 6.182 10.78 18.851 14.344 30.098 8.469zm70.957-1.13C209.518 301.637 205.11 291 196 291c-3.258 0-4.784.63-7.077 2.923C182.482 300.365 186.89 311 196 311c3.258 0 4.784-.63 7.077-2.923zm.495-54.752c6.702-2.28 15.473-11.05 17.752-17.752 3.968-11.668 1.364-23.032-7.25-31.646-12.253-12.253-29.895-12.253-42.148 0-8.614 8.614-11.218 19.978-7.25 31.646 2.181 6.414 11.056 15.47 17.329 17.684 5.97 2.107 15.484 2.137 21.567.068zm89.505-25.247c2.292-2.293 2.923-3.82 2.923-7.077 0-9.111-10.635-13.518-17.077-7.077C272.482 220.365 276.89 231 286 231c3.258 0 4.784-.63 7.077-2.923z" transform="translate(-.296 .174)"/><path style="fill:#99e49a" d="M223.562 472.462c8.023-1.172 22.72-4.482 26.728-6.02 1.214-.465 1.272.003.364 2.905-1.354 4.326-3.017 4.666-22.154 4.535l-14-.097 9.062-1.323zm53.995-16.88C290.982 448.922 303.529 441 313 433.2c7.624-6.279 23-21.44 23-22.68 0-.56 1.475-2.197 3.277-3.635 1.802-1.438 6.468-6.388 10.368-11 20.44-24.17 32.863-51.067 37.82-81.885 1.983-12.339 1.983-36.661 0-49-5.465-33.979-21.06-65.24-44.342-88.88-4.127-4.19-7.436-7.906-7.352-8.256.281-1.17-19.171-19.359-27.292-25.52-12.593-9.554-27.127-17.949-41.479-23.957-7.458-3.122-5.368-2.955 7.215.579 13.843 3.887 27.445 9.74 42.563 18.313 11.85 6.721 12.47 6.948 17.79 6.507l5.512-.457 7.21 6.173c7.508 6.428 18.437 17.65 22.947 23.564 2.404 3.152 2.528 3.772 1.52 7.55-1.245 4.663-1.077 5.088 8.228 20.884 9.055 15.371 16.84 36.043 20.137 53.469 1.514 8 4.144 11.029 9.583 11.037 9.077.013 17.27 5.104 21.474 13.344 2.462 4.827 2.751 13.621.613 18.65-3.614 8.497-12.937 14.97-21.587 14.99-6.388.015-8.456 2.619-10.582 13.321-3.824 19.257-12.948 41.394-24.453 59.329-2.843 4.433-5.17 9.152-5.17 10.487 0 1.335 1.786 4.804 3.97 7.71 7.781 10.356 7.897 21.285.319 30.139-8.783 10.26-22.214 11.438-33.526 2.938-2.872-2.158-6.349-3.914-7.75-3.914-1.397 0-4.825 1.54-7.619 3.42-8.012 5.396-21.137 12.444-30.394 16.322-8.792 3.683-26.169 9.258-28.856 9.258-.841 0 4.294-2.888 11.413-6.419zM106.872 400.25c-1.243-1.586-1.208-1.621.378-.378.962.755 1.75 1.543 1.75 1.75 0 .823-.821.294-2.128-1.372zM429.5 162.03c22.46-13.143 37.748-36.936 40.3-62.717 3.28-33.142-12.175-63.755-40.663-80.546-5.69-3.354-3.68-3.591 7.089-.837 13.051 3.338 30.2 13.517 36.344 21.574 3.201 4.196 7.679 6.16 10.802 4.736 2.078-.947 2.553-.582 5.348 4.11 1.687 2.833 3.724 6.735 4.527 8.671 1.402 3.383 1.362 3.596-1.02 5.392-2.718 2.05-2.71 1.493-.282 20.938 2.335 18.696-3.963 39.331-16.87 55.27-9.016 11.133-24.236 20.712-38.85 24.45-10.898 2.787-12.77 2.497-6.725-1.041zm-12.326-34.344c-2.82-3.003-2.765-6.782.14-9.512 3.003-2.82 6.782-2.765 9.512.14 2.82 3.003 2.765 6.782-.14 9.512-3.003 2.82-6.782 2.765-9.512-.14zM242 110.384c-4.675-1.305-12.55-3.006-17.5-3.78l-9-1.408 14.125-.098c18.319-.127 19.653.157 21.006 4.483.589 1.88.8 3.364.47 3.298-.33-.067-4.426-1.19-9.101-2.495zm155.174-42.698c-2.82-3.003-2.765-6.782.14-9.512 3.003-2.82 6.782-2.765 9.512.14 2.82 3.003 2.765 6.782-.14 9.512-3.003 2.82-6.782 2.765-9.512-.14z" transform="translate(-.296 .174)"/><path style="fill:#8db874" d="M242.5 490c.995-1.1 2.035-2 2.31-2 .275 0-.315.9-1.31 2-.995 1.1-2.035 2-2.31 2-.275 0 .315-.9 1.31-2zM79.405 435.75 77.5 433.5l2.25 1.905c2.114 1.79 2.705 2.595 1.905 2.595-.19 0-1.202-1.012-2.25-2.25zm32.032-31-2.937-3.25 3.25 2.937c1.788 1.615 3.25 3.078 3.25 3.25 0 .773-.825.092-3.563-2.937zm230.521-1c4.144-4.415 5.042-5.21 5.042-4.458 0 .16-2.138 2.298-4.75 4.75l-4.75 4.458zm-316.553-98L23.5 303.5l2.25 1.905c2.114 1.79 2.705 2.595 1.905 2.595-.19 0-1.202-1.012-2.25-2.25zm400.467-33.5c-1.243-1.586-1.208-1.621.378-.378.963.755 1.75 1.543 1.75 1.75 0 .823-.821.294-2.128-1.372zM110.5 175c2.709-2.75 5.15-5 5.425-5 .275 0-1.716 2.25-4.425 5-2.709 2.75-5.15 5-5.425 5-.275 0 1.716-2.25 4.425-5zm231.5.5c-2.429-2.475-4.191-4.5-3.916-4.5.275 0 2.487 2.025 4.916 4.5 2.429 2.475 4.191 4.5 3.916 4.5-.275 0-2.487-2.025-4.916-4.5zm136-17.878c0-.207.787-.995 1.75-1.75 1.586-1.243 1.621-1.208.378.378-1.307 1.666-2.128 2.195-2.128 1.372zm4-4c0-.207.787-.995 1.75-1.75 1.586-1.243 1.621-1.208.378.378-1.307 1.666-2.128 2.195-2.128 1.372zM79.5 143c.995-1.1 2.035-2 2.31-2 .275 0-.315.9-1.31 2-.995 1.1-2.035 2-2.31 2-.275 0 .315-.9 1.31-2zm325.905-4.25-1.905-2.25 2.25 1.905c2.114 1.79 2.705 2.595 1.905 2.595-.19 0-1.202-1.012-2.25-2.25zm32.095.25c.995-1.1 2.035-2 2.31-2 .275 0-.315.9-1.31 2-.995 1.1-2.035 2-2.31 2-.275 0 .315-.9 1.31-2zm-32-32c.995-1.1 2.035-2 2.31-2 .275 0-.315.9-1.31 2-.995 1.1-2.035 2-2.31 2-.275 0 .315-.9 1.31-2zm31.905-.25-1.905-2.25 2.25 1.905c2.114 1.79 2.705 2.595 1.905 2.595-.19 0-1.202-1.012-2.25-2.25zm-95.326-11.333c.048-1.165.285-1.402.604-.604.289.721.253 1.584-.079 1.916-.332.332-.568-.258-.525-1.312zM209.5 89c.995-1.1 2.035-2 2.31-2 .275 0-.315.9-1.31 2-.995 1.1-2.035 2-2.31 2-.275 0 .315-.9 1.31-2zm282.579-2.583c.048-1.165.285-1.402.604-.604.289.721.253 1.584-.079 1.916-.332.332-.568-.258-.525-1.312zM385.405 78.75 383.5 76.5l2.25 1.905c2.114 1.79 2.705 2.595 1.905 2.595-.19 0-1.202-1.012-2.25-2.25zM417.5 79c.995-1.1 2.035-2 2.31-2 .275 0-.315.9-1.31 2-.995 1.1-2.035 2-2.31 2-.275 0 .315-.9 1.31-2zm-32-32c.995-1.1 2.035-2 2.31-2 .275 0-.315.9-1.31 2-.995 1.1-2.035 2-2.31 2-.275 0 .315-.9 1.31-2zm31.905-.25L415.5 44.5l2.25 1.905c1.238 1.048 2.25 2.06 2.25 2.25 0 .8-.805.21-2.595-1.905zm56.467-5.5c-1.243-1.586-1.208-1.621.378-.378 1.666 1.307 2.195 2.128 1.372 2.128-.207 0-.995-.787-1.75-1.75zM350 29.622c0-.207.787-.995 1.75-1.75 1.586-1.243 1.621-1.208.378.378-1.307 1.666-2.128 2.195-2.128 1.372zm132.872-1.372c-1.243-1.586-1.208-1.621.378-.378 1.666 1.307 2.195 2.128 1.372 2.128-.207 0-.995-.787-1.75-1.75zM354 25.622c0-.207.787-.995 1.75-1.75 1.586-1.243 1.621-1.208.378.378-1.307 1.666-2.128 2.195-2.128 1.372zm124.872-1.372c-1.243-1.586-1.208-1.621.378-.378.963.755 1.75 1.543 1.75 1.75 0 .823-.821.294-2.128-1.372z" transform="translate(-.296 .174)"/><path style="fill:#ac6166" d="M216.269 436.307c.973-.254 2.323-.237 3 .037.677.274-.119.481-1.769.461-1.65-.02-2.204-.244-1.231-.498zm18 0c.973-.254 2.323-.237 3 .037.677.274-.119.481-1.769.461-1.65-.02-2.204-.244-1.231-.498zM125.437 396.75l-2.937-3.25 3.25 2.937c3.03 2.738 3.71 3.563 2.937 3.563-.172 0-1.635-1.462-3.25-3.25zm33.487.5-2.424-2.75 2.75 2.424c2.57 2.266 3.209 3.076 2.424 3.076-.179 0-1.416-1.238-2.75-2.75zm46.076.25c1.292-1.375 2.574-2.5 2.849-2.5.275 0-.557 1.125-1.849 2.5-1.292 1.375-2.574 2.5-2.849 2.5-.275 0 .557-1.125 1.849-2.5zm121 0c1.292-1.375 2.574-2.5 2.849-2.5.275 0-.557 1.125-1.849 2.5-1.292 1.375-2.574 2.5-2.849 2.5-.275 0 .557-1.125 1.849-2.5zm-208.076-8.25-2.424-2.75 2.75 2.424c2.57 2.266 3.209 3.076 2.424 3.076-.179 0-1.416-1.238-2.75-2.75zM334 389.5c1.292-1.375 2.574-2.5 2.849-2.5.275 0-.557 1.125-1.849 2.5-1.292 1.375-2.574 2.5-2.849 2.5-.275 0 .557-1.125 1.849-2.5zm-175-38c1.292-1.375 2.574-2.5 2.849-2.5.275 0-.557 1.125-1.849 2.5-1.292 1.375-2.574 2.5-2.849 2.5-.275 0 .557-1.125 1.849-2.5zm45.924-.25-2.424-2.75 2.75 2.424c2.57 2.266 3.209 3.076 2.424 3.076-.179 0-1.416-1.238-2.75-2.75zm-100.052-46c-1.243-1.586-1.208-1.621.378-.378.963.755 1.75 1.543 1.75 1.75 0 .823-.821.294-2.128-1.372zM136 306.622c0-.207.787-.995 1.75-1.75 1.586-1.243 1.621-1.208.378.378-1.307 1.666-2.128 2.195-2.128 1.372zM79.195 298.5c.02-1.65.244-2.204.498-1.231.254.973.237 2.323-.037 3-.274.677-.481-.119-.461-1.769zm294 0c.02-1.65.244-2.204.498-1.231.254.973.237 2.323-.037 3-.274.677-.481-.119-.461-1.769zm-294-18c.02-1.65.244-2.204.498-1.231.254.973.237 2.323-.037 3-.274.677-.481-.119-.461-1.769zm294 0c.02-1.65.244-2.204.498-1.231.254.973.237 2.323-.037 3-.274.677-.481-.119-.461-1.769zM104 274.622c0-.207.787-.995 1.75-1.75 1.586-1.243 1.621-1.208.378.378-1.307 1.666-2.128 2.195-2.128 1.372zm32.872-1.372c-1.243-1.586-1.208-1.621.378-.378 1.666 1.307 2.195 2.128 1.372 2.128-.207 0-.995-.787-1.75-1.75zM181 215.622c0-.207.787-.995 1.75-1.75 1.586-1.243 1.621-1.208.378.378-1.307 1.666-2.128 2.195-2.128 1.372zM118 189.5c1.292-1.375 2.574-2.5 2.849-2.5.275 0-.557 1.125-1.849 2.5-1.292 1.375-2.574 2.5-2.849 2.5-.275 0 .557-1.125 1.849-2.5zm215.924-.25-2.424-2.75 2.75 2.424c1.512 1.334 2.75 2.571 2.75 2.75 0 .785-.81.146-3.076-2.424zm-8-8-2.424-2.75 2.75 2.424c2.57 2.266 3.209 3.076 2.424 3.076-.179 0-1.416-1.238-2.75-2.75zM126.5 181c.995-1.1 2.035-2 2.31-2 .275 0-.315.9-1.31 2-.995 1.1-2.035 2-2.31 2-.275 0 .315-.9 1.31-2zm89.75-38.69c.963-.25 2.538-.25 3.5 0 .963.252.175.458-1.75.458s-2.712-.206-1.75-.457zm18.019-.003c.973-.254 2.323-.237 3 .037.677.274-.119.481-1.769.46-1.65-.02-2.204-.244-1.231-.497z" transform="translate(-.296 .174)"/><path style="fill:#6d9762" d="M43.813 313.317c.721-.289 1.584-.253 1.916.079.332.332-.258.568-1.312.525-1.165-.048-1.402-.285-.605-.604zm344.266-9.9c.048-1.165.285-1.402.604-.604.289.721.253 1.584-.079 1.916-.332.332-.568-.258-.525-1.312zm0-28c.048-1.165.285-1.402.604-.604.289.721.253 1.584-.079 1.916-.332.332-.568-.258-.525-1.312zM371.158 183c0-1.375.227-1.938.504-1.25.278.688.278 1.813 0 2.5-.277.688-.504.125-.504-1.25zm20.654-20.683c.722-.289 1.585-.253 1.917.079.332.332-.258.568-1.312.525-1.165-.048-1.402-.285-.604-.604zm28.438-17.006c.963-.252 2.538-.252 3.5 0 .963.251.175.457-1.75.457s-2.712-.206-1.75-.457zM444.232 123c0-1.925.206-2.712.457-1.75.252.963.252 2.538 0 3.5-.251.963-.457.175-.457-1.75zm-23.982-22.69c.963-.25 2.538-.25 3.5 0 .963.252.175.458-1.75.458s-2.712-.206-1.75-.457zm71.829-2.893c.048-1.165.285-1.402.604-.604.289.721.253 1.584-.079 1.916-.332.332-.568-.258-.525-1.312zM400.25 85.31c.963-.252 2.538-.252 3.5 0 .963.251.175.457-1.75.457s-2.712-.206-1.75-.457zM424.232 63c0-1.925.206-2.712.457-1.75.252.963.252 2.538 0 3.5-.251.963-.457.175-.457-1.75zm55.518-18.662c.688-.278 1.813-.278 2.5 0 .688.277.125.504-1.25.504s-1.938-.227-1.25-.504zm-79.5-4.027c.963-.252 2.538-.252 3.5 0 .963.251.175.457-1.75.457s-2.712-.206-1.75-.457z" transform="translate(-.296 .174)"/><path style="fill:#5b5f51" d="m198.924 500.25-2.424-2.75 2.75 2.424c2.57 2.266 3.209 3.076 2.424 3.076-.179 0-1.416-1.238-2.75-2.75zm3.234-26.25c0-1.375.227-1.938.504-1.25.278.688.278 1.813 0 2.5-.277.688-.504.125-.504-1.25zm48.037-.5c.02-1.65.244-2.204.498-1.231.254.973.237 2.323-.037 3-.274.677-.481-.119-.461-1.769zm100.618-16.183c.721-.289 1.584-.253 1.916.079.332.332-.258.568-1.312.525-1.165-.048-1.402-.285-.604-.604zm-136.063-5.98c.688-.277 1.813-.277 2.5 0 .688.278.125.505-1.25.505s-1.938-.227-1.25-.504zm21 0c.688-.277 1.813-.277 2.5 0 .688.278.125.505-1.25.505s-1.938-.227-1.25-.504zM112 437.623c0-.207.787-.995 1.75-1.75 1.586-1.243 1.621-1.208.378.378-1.307 1.666-2.128 2.195-2.128 1.372zm226.872-1.372c-1.243-1.586-1.208-1.621.378-.378 1.666 1.307 2.195 2.128 1.372 2.128-.207 0-.995-.787-1.75-1.75zm-126.06.067c.722-.289 1.585-.253 1.917.079.332.332-.258.568-1.312.525-1.165-.048-1.402-.285-.604-.604zm26 0c.722-.289 1.585-.253 1.917.079.332.332-.258.568-1.312.525-1.165-.048-1.402-.285-.604-.604zm-180.733-21.9c.048-1.165.285-1.402.604-.604.289.721.253 1.584-.079 1.916-.332.332-.568-.258-.525-1.312zm60.793-3.167c-1.243-1.586-1.208-1.621.378-.378.963.755 1.75 1.543 1.75 1.75 0 .823-.821.294-2.128-1.372zM332 412.622c0-.207.787-.995 1.75-1.75 1.586-1.243 1.621-1.208.378.378-1.307 1.666-2.128 2.195-2.128 1.372zm-254-9c0-.207.787-.995 1.75-1.75 1.586-1.243 1.621-1.208.378.378-1.307 1.666-2.128 2.195-2.128 1.372zm294.872-1.372c-1.243-1.586-1.208-1.621.378-.378.963.755 1.75 1.543 1.75 1.75 0 .823-.821.294-2.128-1.372zm-269-6c-1.243-1.586-1.208-1.621.378-.378.962.755 1.75 1.543 1.75 1.75 0 .823-.821.294-2.128-1.372zm182.94-17.933c.722-.289 1.585-.253 1.917.079.332.332-.258.568-1.312.525-1.165-.048-1.402-.285-.604-.604zm12 0c.722-.289 1.585-.253 1.917.079.332.332-.258.568-1.312.525-1.165-.048-1.402-.285-.604-.604zm-42.888-15.067-2.424-2.75 2.75 2.424c2.57 2.266 3.209 3.076 2.424 3.076-.179 0-1.416-1.238-2.75-2.75zm74.076.25c1.292-1.375 2.574-2.5 2.849-2.5.275 0-.557 1.125-1.849 2.5-1.292 1.375-2.574 2.5-2.849 2.5-.275 0 .557-1.125 1.849-2.5zm-63.563-10.75-2.937-3.25 3.25 2.937c3.03 2.738 3.71 3.563 2.937 3.563-.172 0-1.635-1.462-3.25-3.25zM317 355.687c0-.172 1.462-1.635 3.25-3.25l3.25-2.937-2.937 3.25c-2.738 3.03-3.563 3.71-3.563 2.937zm28.079-23.27c.048-1.165.285-1.402.604-.604.289.721.253 1.584-.079 1.916-.332.332-.568-.258-.525-1.312zm0-12c.048-1.165.285-1.402.604-.604.289.721.253 1.584-.079 1.916-.332.332-.568-.258-.525-1.312zM437 316.5c1.292-1.375 2.574-2.5 2.849-2.5.275 0-.557 1.125-1.849 2.5-1.292 1.375-2.574 2.5-2.849 2.5-.275 0 .557-1.125 1.849-2.5zm-396.188-3.183c.722-.289 1.585-.253 1.917.079.332.332-.258.568-1.312.525-1.165-.048-1.402-.285-.605-.604zm368.457-.01c.973-.254 2.323-.237 3 .037.677.274-.119.481-1.769.461-1.65-.02-2.204-.245-1.231-.498zm-344.19-2.89c.048-1.165.285-1.402.604-.604.289.721.253 1.584-.079 1.916-.332.332-.568-.258-.525-1.312zm322 0c.048-1.165.285-1.402.604-.604.289.721.253 1.584-.079 1.916-.332.332-.568-.258-.525-1.312zM426 306.5c1.292-1.375 2.574-2.5 2.849-2.5.275 0-.557 1.125-1.849 2.5-1.292 1.375-2.574 2.5-2.849 2.5-.275 0 .557-1.125 1.849-2.5zm-346.921-4.083c.048-1.165.285-1.402.604-.604.289.721.253 1.584-.079 1.916-.332.332-.568-.258-.525-1.312zm294 0c.048-1.165.285-1.402.604-.604.289.721.253 1.584-.079 1.916-.332.332-.568-.258-.525-1.312zm-109.079.27c0-.172 1.462-1.635 3.25-3.25l3.25-2.937-2.937 3.25c-2.738 3.03-3.563 3.71-3.563 2.937zm55.437-2.937-2.937-3.25 3.25 2.937c1.788 1.615 3.25 3.078 3.25 3.25 0 .773-.825.092-3.563-2.937zm-255.28.25c0-1.375.228-1.938.505-1.25.278.688.278 1.813 0 2.5-.277.688-.504.125-.504-1.25zm324 0c0-1.375.228-1.938.505-1.25.278.688.278 1.813 0 2.5-.277.688-.504.125-.504-1.25zM256 289.5c1.292-1.375 2.574-2.5 2.849-2.5.275 0-.557 1.125-1.849 2.5-1.292 1.375-2.574 2.5-2.849 2.5-.275 0 .557-1.125 1.849-2.5zm73.924-.25-2.424-2.75 2.75 2.424c2.57 2.266 3.209 3.076 2.424 3.076-.179 0-1.416-1.238-2.75-2.75zM64.158 279c0-1.375.227-1.938.504-1.25.278.688.278 1.813 0 2.5-.277.688-.504.125-.504-1.25zm324 0c0-1.375.227-1.938.504-1.25.278.688.278 1.813 0 2.5-.277.688-.504.125-.504-1.25zm-309.08-2.583c.049-1.165.286-1.402.605-.604.289.721.253 1.584-.079 1.916-.332.332-.568-.258-.525-1.312zm294 0c.049-1.165.286-1.402.605-.604.289.721.253 1.584-.079 1.916-.332.332-.568-.258-.525-1.312zm-86.265-2.1c.721-.289 1.584-.253 1.916.079.332.332-.258.568-1.312.525-1.165-.048-1.402-.285-.604-.604zm12 0c.721-.289 1.584-.253 1.916.079.332.332-.258.568-1.312.525-1.165-.048-1.402-.285-.604-.604zm-233.734-5.9c.048-1.165.285-1.402.604-.604.289.721.253 1.584-.079 1.916-.332.332-.568-.258-.525-1.312zm322 0c.048-1.165.285-1.402.604-.604.289.721.253 1.584-.079 1.916-.332.332-.568-.258-.525-1.312zm-345.81-3.11c.973-.254 2.323-.237 3 .037.677.274-.119.481-1.769.461-1.65-.02-2.204-.244-1.231-.498zm368 0c.973-.254 2.323-.237 3 .037.677.274-.119.481-1.769.461-1.65-.02-2.204-.244-1.231-.498zM15 262.5c1.292-1.375 2.574-2.5 2.849-2.5.275 0-.557 1.125-1.849 2.5-1.292 1.375-2.574 2.5-2.849 2.5-.275 0 .557-1.125 1.849-2.5zm78.079-64.083c.048-1.165.285-1.402.604-.604.289.721.253 1.584-.079 1.916-.332.332-.568-.258-.525-1.312zM113 194.622c0-.207.787-.995 1.75-1.75 1.586-1.243 1.621-1.208.378.378-1.307 1.666-2.128 2.195-2.128 1.372zm296.813-14.305c.721-.289 1.584-.253 1.916.079.332.332-.258.568-1.312.525-1.165-.048-1.402-.285-.604-.604zm14 0c.721-.289 1.584-.253 1.916.079.332.332-.258.568-1.312.525-1.165-.048-1.402-.285-.604-.604zm-344.94-4.067c-1.244-1.586-1.21-1.621.377-.378.962.755 1.75 1.543 1.75 1.75 0 .823-.821.294-2.128-1.372zM118 168.622c0-.207.787-.995 1.75-1.75 1.586-1.243 1.621-1.208.378.378-1.307 1.666-2.128 2.195-2.128 1.372zm261 0c0-.207.787-.995 1.75-1.75 1.586-1.243 1.621-1.208.378.378-1.307 1.666-2.128 2.195-2.128 1.372zM112.872 142.25c-1.243-1.586-1.208-1.621.378-.378 1.666 1.307 2.195 2.128 1.372 2.128-.207 0-.995-.787-1.75-1.75zm99.94.067c.722-.289 1.585-.253 1.917.079.332.332-.258.568-1.312.525-1.165-.048-1.402-.285-.604-.604zm26 0c.722-.289 1.585-.253 1.917.079.332.332-.258.568-1.312.525-1.165-.048-1.402-.285-.604-.604zm181.938-11.98c.688-.277 1.813-.277 2.5 0 .688.278.125.505-1.25.505s-1.938-.227-1.25-.504zm-173.938-2.02c.722-.289 1.585-.253 1.917.079.332.332-.258.568-1.312.525-1.165-.048-1.402-.285-.604-.604zm-31.543-1.01c.973-.254 2.323-.237 3 .037.677.274-.119.481-1.769.461-1.65-.02-2.204-.244-1.231-.498zm20.481.03c.688-.277 1.813-.277 2.5 0 .688.278.125.505-1.25.505s-1.938-.227-1.25-.504zM414.158 123c0-1.375.227-1.938.504-1.25.278.688.278 1.813 0 2.5-.277.688-.504.125-.504-1.25zm15 0c0-1.375.227-1.938.504-1.25.278.688.278 1.813 0 2.5-.277.688-.504.125-.504-1.25zm-8.408-7.662c.688-.278 1.813-.278 2.5 0 .688.277.125.504-1.25.504s-1.938-.227-1.25-.504zM250.195 105.5c.02-1.65.244-2.204.498-1.231.254.973.237 2.323-.037 3-.274.677-.481-.119-.461-1.769zm-48.037-.5c0-1.375.227-1.938.504-1.25.278.688.278 1.813 0 2.5-.277.688-.504.125-.504-1.25zm124.921-7.583c.048-1.165.285-1.402.604-.604.289.721.253 1.584-.079 1.916-.332.332-.568-.258-.525-1.312zm180 0c.048-1.165.285-1.402.604-.604.289.721.253 1.584-.079 1.916-.332.332-.568-.258-.525-1.312zM327.158 83c0-1.375.227-1.938.504-1.25.278.688.278 1.813 0 2.5-.277.688-.504.125-.504-1.25zm179.921.417c.048-1.165.285-1.402.604-.604.289.721.253 1.584-.079 1.916-.332.332-.568-.258-.525-1.312zm-15-2c.048-1.165.285-1.402.604-.604.289.721.253 1.584-.079 1.916-.332.332-.568-.258-.525-1.312zM252.924 78.25 250.5 75.5l2.75 2.424c1.512 1.334 2.75 2.571 2.75 2.75 0 .785-.81.146-3.076-2.424zm147.826-7.912c.688-.278 1.813-.278 2.5 0 .688.277.125.504-1.25.504s-1.938-.227-1.25-.504zM394.158 63c0-1.375.227-1.938.504-1.25.278.688.278 1.813 0 2.5-.277.688-.504.125-.504-1.25zm15 0c0-1.375.227-1.938.504-1.25.278.688.278 1.813 0 2.5-.277.688-.504.125-.504-1.25zm-8.408-7.662c.688-.278 1.813-.278 2.5 0 .688.277.125.504-1.25.504s-1.938-.227-1.25-.504zM363 37.622c0-.207.787-.995 1.75-1.75 1.586-1.243 1.621-1.208.378.378-1.307 1.666-2.128 2.195-2.128 1.372zm106.872-1.372c-1.243-1.586-1.208-1.621.378-.378 1.666 1.307 2.195 2.128 1.372 2.128-.207 0-.995-.787-1.75-1.75zM408.75.338c.688-.278 1.813-.278 2.5 0 .688.277.125.504-1.25.504s-1.938-.227-1.25-.504zm15 0c.688-.278 1.813-.278 2.5 0 .688.277.125.504-1.25.504s-1.938-.227-1.25-.504z" transform="translate(-.296 .174)"/><path style="fill:#010100" d="M219.27 510.996c-7.148-1.495-13.026-4.652-18.76-10.075-5.583-5.28-11.51-15.3-11.51-19.458 0-2.987-1.436-3.904-8.5-5.424-15.194-3.27-40.383-13.795-54.295-22.687l-5.294-3.384-4.23 2.479c-10.848 6.357-24.865 6.995-36.283 1.652-19.882-9.304-27.847-33.623-17.356-52.993l2.95-5.445-4.461-7.608c-9.532-16.26-18.328-37.835-21.834-53.553l-1.338-6-6.093-2c-17.538-5.757-27.553-19.206-27.553-37 0-10.753 2.695-17.667 9.938-25.49C20.226 257.988 30.14 252 34.537 252c2.987 0 3.904-1.436 5.424-8.5 3.224-14.978 12.779-38.007 22.387-53.958l3.54-5.877-2.365-4.082c-6.455-11.141-7.067-24.55-1.649-36.128 5.373-11.481 15.21-18.932 28.53-21.607 7.457-1.498 17.134.163 24.535 4.21l5.414 2.96 6.573-3.889c16.95-10.027 33.754-17.067 51.574-21.608l9-2.293 2.167-6.616c5.521-16.862 19.265-26.9 36.833-26.9 10.753 0 17.667 2.696 25.49 9.939C258.012 83.226 264 93.14 264 97.537c0 2.858 1.555 4.033 6.5 4.916 12.93 2.309 41.362 14.008 57.25 23.557 4.662 2.801 5.323 2.964 5.903 1.45.36-.937-.082-3.786-.982-6.332-5.603-15.85-6.678-35.654-2.801-51.628 7.918-32.624 34.006-58.712 66.63-66.63 12.466-3.025 29.555-3.026 41.94 0 16.723 4.084 32.876 13.37 44.336 25.486C488.614 34.53 489.543 38.457 486 42c-3.787 3.787-7.411 2.669-14.73-4.542-11.748-11.577-25.586-18.887-40.749-21.528-9.528-1.659-26.2-.676-35.021 2.064-23.533 7.312-42.316 25.91-50.334 49.84-2.303 6.87-2.57 9.222-2.573 22.666-.004 14.223.161 15.497 3.201 24.603 1.763 5.282 3.196 10.682 3.184 12-.063 6.92-7.358 15.447-14.135 16.524-3.488.554-5.282-.232-24.843-10.888-12.35-6.728-26.628-12.1-42-15.803-14.39-3.467-17-4.981-17-9.865 0-1.49-.662-4.927-1.471-7.64-3.84-12.87-17.33-20.114-30.594-16.43-4.633 1.288-11.485 7.196-13.952 12.032-1.071 2.1-2.247 6.358-2.611 9.462-.365 3.104-1.386 6.462-2.268 7.461-.992 1.125-5.417 2.668-11.604 4.048-20.71 4.617-41.616 13.287-58 24.053-4.553 2.992-9.145 5.261-10.658 5.267-1.47.005-4.15-1.251-6-2.812-5.187-4.378-10.694-6.466-17.124-6.49-6.864-.026-11.001 1.532-16.208 6.103-9.967 8.751-10.354 23.588-.908 34.814 3.82 4.54 3.344 7.555-2.631 16.672-10.704 16.331-19.367 37.256-23.967 57.889-2.406 10.788-4.2 13.5-8.933 13.5-1.49 0-4.927.662-7.64 1.471-12.87 3.84-20.114 17.33-16.43 30.594 1.288 4.633 7.196 11.485 12.032 13.952 2.1 1.071 6.358 2.247 9.462 2.611 3.104.365 6.462 1.386 7.461 2.268 1.125.992 2.668 5.417 4.048 11.604 4.6 20.633 13.263 41.558 23.967 57.89 6.019 9.183 6.461 12.124 2.524 16.787-4.362 5.168-6.449 10.682-6.473 17.105-.026 6.864 1.532 11.001 6.103 16.208 8.758 9.975 23.587 10.355 34.834.891 1.774-1.493 4.422-2.71 5.883-2.705 1.513.006 6.105 2.275 10.658 5.267 16.384 10.766 37.29 19.436 58 24.053 10.788 2.406 13.5 4.2 13.5 8.933 0 1.49.662 4.927 1.471 7.64 3.84 12.87 17.33 20.114 30.594 16.43 4.633-1.288 11.485-7.196 13.952-12.032 1.071-2.1 2.247-6.358 2.611-9.462.365-3.104 1.386-6.462 2.268-7.461.992-1.125 5.417-2.668 11.604-4.048 20.71-4.617 41.616-13.287 58-24.053 4.553-2.992 9.145-5.261 10.658-5.267 1.47-.005 4.15 1.251 6 2.812 5.187 4.378 10.694 6.466 17.124 6.49 21.473.082 31.472-23.856 17.1-40.937-3.716-4.415-3.429-7.609 1.315-14.6 10.928-16.11 18.774-34.204 24.256-55.941 4.258-16.887 3.934-16.477 14.547-18.4 18.668-3.385 26.837-25 14.774-39.093-4.39-5.128-9.553-7.787-16.77-8.635-3.103-.365-6.46-1.386-7.46-2.268-1.125-.992-2.668-5.417-4.048-11.604-4.439-19.909-11.347-37.061-22.34-55.471-6.723-11.259-7.074-14.145-2.57-21.164 4.12-6.42 9.074-10.617 13.514-11.45 2.193-.411 7.395.023 13.066 1.09 39.243 7.387 75.277-13.524 87.894-51.005 3.595-10.677 4.436-26.48 2.039-38.308-1.685-8.314-1.274-11.373 1.8-13.427 2.062-1.376 7.281-.776 8.912 1.026 5.13 5.669 6.709 32.728 2.835 48.586-8.102 33.166-33.575 58.641-66.769 66.776-10.754 2.635-30.357 2.892-39.79.52-6.908-1.736-7.626-1.57-9.913 2.302-1.698 2.873-1.675 2.985 1.67 8.219 8.944 13.992 17.56 34.356 22.135 52.306l2.293 9 6.616 2.167c16.862 5.521 26.9 19.265 26.9 36.833 0 10.753-2.696 17.667-9.939 25.49-5.575 6.022-15.49 12.01-19.886 12.01-2.987 0-3.904 1.436-5.424 8.5-3.27 15.194-13.795 40.383-22.687 54.295l-3.384 5.294 2.479 4.23c6.357 10.848 6.995 24.865 1.652 36.283-9.323 19.923-33.5 27.763-53.215 17.256l-5.625-2.999-5.38 3.439c-14.07 8.992-34.406 17.603-52.379 22.178l-9 2.291-2 6.03c-4.073 12.28-11.988 20.882-23.114 25.124-6.213 2.368-15.4 3.271-21.116 2.075zm-8.77-60.026c-49.695-5.623-93.382-32.243-119.756-72.97-19.528-30.154-28.977-67.005-25.861-100.856 1.761-19.143 6.232-37.94 11.862-49.877 3.044-6.454 10.661-6.859 13.46-.715.961 2.109.843 3.44-.644 7.265-12.879 33.118-13.973 70.131-3.042 102.877 6.37 19.083 18.157 38.493 32.716 53.873 21.334 22.538 46.665 36.777 77.765 43.715 12.95 2.888 44.01 3.111 57.34.41 62.95-12.752 110.407-63.586 118.743-127.192 1.599-12.201.604-36.324-1.988-48.194-6.389-29.255-19.086-52.36-40.569-73.82-21.993-21.97-46.417-35.16-76.256-41.184-12.507-2.525-43.407-2.52-55.27.01-19.918 4.247-39.398 12.414-55.796 23.391-8.2 5.49-25.176 21.406-35.247 33.047-5.058 5.846-8.441 6.766-11.957 3.25-3.981-3.981-2.76-7.74 5.927-18.227 47.74-57.644 129.814-74.814 197.073-41.227 47.438 23.689 79.63 68.246 88.11 121.954 1.625 10.293 1.625 35.707 0 46C376.84 377.534 331.483 428.795 269 445.98c-17.098 4.702-42.155 6.84-58.5 4.99zm-36.229-45.455c-14.496-4.057-23.689-16.093-23.689-31.015 0-27.741 32.723-42.417 53.31-23.907 14.313 12.868 14.25 35.002-.136 47.936-7.776 6.992-19.52 9.775-29.485 6.986zm17.152-15.917c15.214-8.916 8.767-32.598-8.875-32.598-9.836 0-17.553 7.737-17.543 17.588.014 13.498 14.73 21.86 26.418 15.01zm92.758-11.717c-14.78-2.458-30.11-13.994-37.065-27.89-5.21-10.41-6.817-19.696-5.271-30.464 3.277-22.822 21.31-41.074 44.052-44.585 34.03-5.253 64.414 25.131 59.16 59.161-3.399 22.017-21.482 40.434-43.057 43.852-7.434 1.178-10.369 1.166-17.82-.074zm25.387-17.37c7.544-3.691 14.257-10.416 17.992-18.024 2.658-5.413 2.94-6.946 2.94-15.987s-.282-10.574-2.94-15.987c-1.616-3.293-4.997-8.045-7.512-10.56-2.516-2.516-7.268-5.897-10.56-7.513-5.414-2.658-6.947-2.94-15.988-2.94s-10.574.282-15.987 2.94c-21.128 10.373-28.083 36.52-14.778 55.564 4.31 6.169 12.513 12.36 19.234 14.517 2.911.935 7.598 1.351 13.112 1.167 7.066-.237 9.623-.798 14.487-3.178zM282.5 330.091c-6.373-2.728-8.058-10.989-3.227-15.82 2.06-2.06 3.705-2.727 6.727-2.727 11.629 0 12.977 16.997 1.5 18.905-1.65.275-3.9.114-5-.358zm-167.942-19.527c-13.364-4.954-19.003-18.979-12.629-31.407 3.851-7.509 10.73-11.576 19.571-11.57 12.868.006 21.916 9.052 21.916 21.912 0 6.252-1.758 10.918-5.783 15.347-5.23 5.757-15.864 8.391-23.075 5.718zm12.128-15.74c4.725-4.439 1.426-12.825-5.046-12.825-4.012 0-7.64 3.495-7.64 7.36 0 6.63 7.847 10.011 12.686 5.466zm65.814 15.267c-6.373-2.728-8.058-10.989-3.227-15.82 6.072-6.072 16.182-1.869 16.182 6.728 0 6.585-7.128 11.588-12.955 9.092zm-6-55.965c-8.832-2.305-16.623-8.7-20.582-16.891-3.216-6.655-3.216-17.817 0-24.472 2.92-6.042 8.804-11.926 14.846-14.846 6.655-3.216 17.817-3.216 24.472 0 6.05 2.925 11.934 8.813 14.832 14.846 4.922 10.247 2.228 24.786-6.145 33.16-6.517 6.516-19.27 10.331-27.423 8.203zm14.26-16.122c13.007-7.93 7.446-27.998-7.76-27.998-8.532 0-14.993 6.46-14.993 14.993 0 11.636 12.902 19.011 22.752 13.005zm81.74-7.913c-6.373-2.728-8.058-10.989-3.227-15.82 6.072-6.072 16.182-1.869 16.182 6.728 0 6.585-7.128 11.588-12.955 9.092zm129.752-87.142c-8.445-4.289-12.682-11.856-12.065-21.547.473-7.42 3.721-12.99 9.999-17.144 3.637-2.408 5.141-2.759 11.814-2.759s8.177.351 11.814 2.759c2.293 1.517 5.41 4.634 6.927 6.927 2.408 3.637 2.759 5.141 2.759 11.814s-.351 8.177-2.759 11.814c-4.3 6.498-9.74 9.573-17.63 9.965-5.244.26-7.49-.118-10.86-1.829zm14.825-14.873c1.608-1.608 2.923-3.892 2.923-5.077 0-2.784-5.216-8-8-8s-8 5.216-8 8 5.216 8 8 8c1.185 0 3.47-1.315 5.077-2.923zM392.252 82.95c-8.445-4.289-12.682-11.856-12.065-21.547.473-7.42 3.721-12.99 9.999-17.144C393.823 41.85 395.327 41.5 402 41.5s8.177.351 11.814 2.759c2.293 1.517 5.41 4.634 6.927 6.927C423.15 54.823 423.5 56.327 423.5 63s-.351 8.177-2.759 11.814c-4.3 6.498-9.74 9.573-17.63 9.965-5.244.26-7.49-.118-10.86-1.829zm14.825-14.873C408.685 66.469 410 64.185 410 63c0-2.784-5.216-8-8-8s-8 5.216-8 8 5.216 8 8 8c1.185 0 3.47-1.315 5.077-2.923z" transform="translate(-.296 .174)"/></svg>