<svg width="452.632" height="511.863" viewBox="0 0 119.759 135.43" xmlns="http://www.w3.org/2000/svg"><path style="fill:#f47c7c;fill-opacity:1;stroke-width:.253911" d="m153.493 210.7-.553-2.207c-.69-2.752-.586-6.668.24-9.006 1.762-4.987 5.234-8.628 9.678-10.145 1.547-.528 1.57-.55 1.408-1.319-.755-3.567-.749-5.53.025-8.26 1.161-4.095 3.95-7.053 7.894-8.37.868-.29 1.945-.528 2.392-.528.638 0 1.01-.227 1.722-1.05 3.405-3.936 5.254-5.471 8.196-6.805 1.912-.867 4.94-1.54 6.932-1.54 3.83 0 8.489 1.812 11.752 4.57l1.85 1.563 1.47-1.352c1.896-1.746 4.219-3.1 6.764-3.944 1.734-.575 2.477-.675 5.078-.684 3.528-.01 5.003.343 8.072 1.935 2.15 1.116 5.134 3.712 6.667 5.8.507.69 1.168 1.302 1.47 1.36 4.341.825 5.88 1.561 7.992 3.818.833.89 1.812 2.249 2.176 3.018 1.378 2.912 1.772 6.449 1.05 9.434-.201.838-.371 1.591-.376 1.674-.005.083.477.294 1.07.47 4.512 1.332 8.584 5.417 10.138 10.171.818 2.5.926 6.679.243 9.378l-.526 2.08 1.61 1.507c3.094 2.894 4.516 6.747 4.538 12.3.016 3.976-.605 6.923-2.078 9.855l-.964 1.92.95 1.891c1.2 2.387 1.62 4.765 1.443 8.155-.168 3.197-.636 4.966-2.109 7.968-1.372 2.798-3.574 5.224-5.564 6.133l-1.27.58-.009 2.696c-.01 3.416.377 7.175-2.262 11.13-2.596 4.79-8.035 6.633-10.37 7.064-.817.151-1.171.459-2.383 2.07-2.487 3.303-5.767 5.485-10.113 6.727-1.708.488-2.597.577-5.586.557-3.072-.02-3.86-.116-5.791-.697-2.51-.756-4.21-1.558-6.283-2.963-1.568-1.063-4.092-3.668-4.708-4.86l-.4-.773-.843 1.252c-2.635 3.913-7.973 7.09-13.333 7.936-1.595.251-4.926.31-5.967.105l-1.904-.377c-1.937-.383-4.41-1.394-6.258-2.557-1.619-1.018-4.984-4.349-5.468-5.411-.205-.45-.713-.742-1.956-1.122-5.682-1.74-10.245-7.05-11.829-13.767-.21-.894-.383-2.815-.385-4.296l-.004-2.68-1.17-.568c-2.738-1.33-5.066-4.117-6.461-7.734-2.032-5.27-1.99-10.583.117-14.726l.878-1.725-.993-2.083c-1.096-2.3-2.95-6.942-1.642-13.268 1.308-6.326 5.742-10.3 5.742-10.3z" transform="translate(-145.004 -158.582)"/><path style="fill:#e94444;fill-opacity:1;stroke-width:.253911" d="M218.342 161.47c-2.601.01-3.344.109-5.078.684-2.545.844-4.868 2.198-6.765 3.944l-1.306 1.2v115.004l.176.34c.616 1.19 3.14 3.796 4.707 4.859 2.073 1.405 3.773 2.207 6.283 2.962 1.933.582 2.72.677 5.792.698 2.989.02 3.877-.069 5.585-.557 4.347-1.242 7.627-3.424 10.114-6.728 1.212-1.61 1.566-1.918 2.384-2.069 2.334-.431 7.773-2.274 10.369-7.064 2.639-3.956 2.251-7.714 2.262-11.13l.01-2.697 1.269-.58c1.99-.908 4.191-3.334 5.564-6.132 1.472-3.002 1.94-4.771 2.108-7.968.178-3.39-.243-5.768-1.442-8.155l-.95-1.891.964-1.92c1.473-2.932 2.094-5.879 2.078-9.856-.023-5.552-1.444-9.405-4.537-12.299l-1.611-1.506.526-2.08c.683-2.7.574-6.88-.243-9.379-1.555-4.754-5.626-8.838-10.138-10.172-.594-.175-1.075-.386-1.07-.469.005-.082.174-.836.377-1.674.72-2.985.326-6.522-1.051-9.434-.364-.77-1.344-2.128-2.177-3.019-2.11-2.256-3.65-2.992-7.991-3.818-.302-.057-.963-.669-1.47-1.359-1.533-2.088-4.518-4.685-6.667-5.8-3.07-1.592-4.545-1.946-8.072-1.934z" transform="translate(-145.004 -158.582)"/><path style="fill:#ee6161;fill-opacity:1;stroke-width:.253911" d="M204.968 282.021s2.999 7.077 6.07 7.097c2.99.02 3.878-.068 5.586-.556 4.347-1.242 7.626-3.424 10.113-6.728 1.212-1.61 1.566-1.918 2.384-2.07 2.335-.43 7.774-2.273 10.37-7.064 2.638-3.955 2.25-7.713 2.262-11.13l.009-2.696 1.27-.58c1.99-.908 4.19-3.335 5.563-6.133 1.473-3.001 1.941-4.77 2.109-7.968.177-3.39-.243-5.768-1.443-8.154l-.95-1.891.964-1.92c1.473-2.932 2.094-5.88 2.078-9.856-.022-5.552-1.444-9.406-4.537-12.3l-1.61-1.506.525-2.08c.683-2.7.575-6.88-.243-9.378-1.554-4.754-5.625-8.839-10.138-10.172-.593-.175-1.075-.387-1.07-.47.005-.082.175-.835.377-1.673.721-2.986.327-6.522-1.05-9.434-.365-.77-1.344-2.128-2.177-3.019-2.111-2.257-3.651-2.992-7.992-3.818-.302-.058-.963-.67-1.47-1.36-1.533-2.088-4.517-4.684-6.667-5.8-3.07-1.592-9.892 6.564-9.892 6.564z" transform="translate(-145.004 -158.582)"/><path style="fill:#000;stroke-width:.264583" d="m83.976 216.086-1.985-.393c-2.018-.4-4.594-1.452-6.52-2.664-1.687-1.061-5.193-4.532-5.698-5.64-.213-.468-.743-.772-2.039-1.168-5.92-1.812-10.675-7.346-12.325-14.345-.22-.932-.4-2.934-.401-4.478l-.004-2.791-1.22-.592c-2.853-1.387-5.279-4.29-6.733-8.06-2.117-5.49-2.073-11.028.123-15.344l.914-1.799-1.034-2.17c-1.142-2.396-1.858-4.89-1.927-6.715-.037-.964.074-1.287.58-1.697 1.372-1.11 3.04-.348 3.345 1.53.333 2.05 1.457 5.287 2.254 6.49 1.243 1.877 3.483 3.986 5.202 4.9 1.952 1.037 4.079 1.578 7.095 1.806 1.863.14 2.51.298 2.976.722.863.787.802 2.1-.132 2.843-.672.535-.93.568-3.373.434-1.456-.08-3.36-.333-4.234-.562-2.114-.556-5.557-2.266-6.925-3.44l-1.104-.948-.598 1.525c-.5 1.272-.598 2.029-.596 4.567.002 2.58.11 3.368.707 5.18.797 2.416 2.28 4.873 3.679 6.099.903.79 2.392 1.465 3.994 1.809 1.07.23 1.497 1.378 1.172 3.142-.139.75-.196 2.556-.127 4.01.331 6.977 4.772 12.867 10.753 14.262.865.202 1.704.448 1.865.548.161.1.834 1.002 1.495 2.005 1.6 2.428 3.484 4.08 6.086 5.333 9.398 4.528 21.662-.482 23.382-9.55.176-.926.27-14.325.27-38.303v-36.879l-.704-1.119c-1.096-1.743-3.597-3.993-5.432-4.887-2.347-1.143-4.307-1.485-7.247-1.264-2.26.17-2.488.141-2.998-.369-.783-.783-.73-2.144.113-2.937.598-.562.962-.635 3.643-.738 4.409-.169 7.71.835 11.038 3.355l1.455 1.102.069-13.953.068-13.952-1.464-1.479c-1.715-1.734-3.668-2.975-6.15-3.91-2.425-.914-6.3-.961-8.645-.105a16.483 16.483 0 0 0-5.9 3.725l-1.457 1.426 1.817.851c1 .468 2.383 1.354 3.074 1.97 1.538 1.369 3.904 4.903 3.904 5.832 0 1.457-1.654 2.53-2.885 1.87-.294-.157-1.06-1.087-1.7-2.068-2.282-3.484-4.117-4.593-7.682-4.638-4.18-.052-7.078 1.505-8.617 4.632-1.598 3.245-1.607 6.554-.028 9.929.961 2.054.973 2.224.207 3.114-.493.573-.938.735-2.58.94-7.872.98-12.63 9.525-9.645 17.321.895 2.339 1.071 3.455.63 3.987-.19.228-1.022.757-1.85 1.175-1.725.87-2.867 2.177-3.846 4.4-.374.85-.866 1.752-1.095 2.007-.61.682-1.826.58-2.625-.218-.567-.567-.654-.843-.524-1.647.302-1.86 1.763-4.34 3.667-6.22l1.822-1.8-.576-2.301c-.719-2.867-.61-6.948.25-9.385 1.836-5.197 5.455-8.99 10.085-10.571 1.612-.55 1.637-.574 1.467-1.374-.786-3.717-.78-5.762.027-8.608 1.21-4.267 4.116-7.349 8.225-8.722.905-.302 2.027-.55 2.493-.55.665 0 1.052-.236 1.794-1.094 3.549-4.101 5.475-5.7 8.54-7.09 1.993-.904 5.149-1.605 7.224-1.605 3.992 0 8.846 1.887 12.246 4.761l1.927 1.63 1.532-1.41c1.977-1.819 4.397-3.23 7.049-4.11 1.807-.599 2.581-.703 5.292-.712 3.675-.011 5.212.357 8.41 2.017 2.24 1.162 5.35 3.867 6.948 6.043.528.719 1.217 1.356 1.532 1.416 4.523.861 6.127 1.628 8.327 3.98.868.927 1.889 2.343 2.268 3.144 1.436 3.035 1.846 6.72 1.095 9.831-.21.874-.388 1.658-.393 1.744-.005.087.497.307 1.115.49 4.702 1.389 8.945 5.645 10.565 10.599.851 2.604.964 6.96.253 9.772l-.548 2.168 1.678 1.57c3.223 3.015 4.705 7.03 4.728 12.816.017 4.144-.63 7.215-2.165 10.27l-1.005 2 .99 1.971c1.25 2.487 1.688 4.965 1.503 8.497-.175 3.332-.662 5.176-2.197 8.303-1.43 2.916-3.724 5.444-5.798 6.391l-1.323.604-.009 2.81c-.012 3.56-.67 6.414-1.66 7.192-.923.726-2.096.584-2.78-.336-.519-.698-.521-.767-.092-2.72.465-2.115.56-5.612.204-7.453-.327-1.686.183-2.636 1.606-2.993 2.593-.65 4.012-1.693 5.558-4.084 2.552-3.95 3.271-9.979 1.653-13.864l-.364-.874-1.396 1.043c-3.109 2.323-6.397 3.451-10.698 3.672-2.915.15-2.958.144-3.638-.535-.82-.822-.877-1.722-.164-2.629.461-.586.8-.688 2.845-.858 6.623-.55 10.601-2.951 13.021-7.86 1.323-2.683 1.858-5.106 1.859-8.415.002-5.373-2.086-9.939-5.083-11.122-1.254-.495-2.053-1.308-2.051-2.087 0-.375.37-1.632.823-2.794 1.804-4.64 1.036-9.743-2.04-13.534-1.704-2.102-5.532-4.065-7.924-4.065-1.205 0-2.12-.456-2.473-1.232-.424-.93-.382-1.168.507-2.898 1.022-1.991 1.411-4.344 1.07-6.47-.544-3.373-2.262-5.8-5.023-7.095-1.314-.617-1.801-.694-4.388-.694-2.732 0-2.998.049-4.329.786-1.569.869-2.898 2.277-3.923 4.156-.823 1.508-1.818 2.028-2.97 1.55-.44-.182-.916-.667-1.107-1.129-.3-.726-.263-.947.373-2.16 1.659-3.162 4.293-5.739 6.871-6.72l1.266-.482-1.662-1.592c-2.627-2.515-4.88-3.634-8.146-4.046-4.461-.563-9.627 1.447-12.705 4.944l-1.053 1.196v13.853c0 7.62.07 13.854.157 13.854.086 0 .632-.408 1.214-.906 1.442-1.234 4.243-2.666 6.208-3.173 1.843-.475 6.32-.56 7.804-.149 1.138.317 1.49.684 1.71 1.788.133.659.028.953-.539 1.52-.689.689-.75.7-3.138.53-2.866-.202-4.704.101-6.938 1.147-1.864.872-4.496 3.213-5.67 5.04l-.824 1.285.075 37.535.075 37.536.567 1.483c1.741 4.554 5.528 7.695 10.986 9.113 2.115.55 6.635.543 8.818-.013 3.89-.991 7.336-3.455 9.436-6.747 1.167-1.83 1.405-2.016 2.867-2.236 1.533-.23 4.074-1.451 5.424-2.605 1.28-1.093 1.968-1.338 2.835-1.008.788.3 1.39 1.617 1.159 2.537-.338 1.345-4.943 4.328-7.376 4.777-.852.157-1.22.478-2.484 2.156-2.591 3.443-6.008 5.717-10.538 7.01-1.78.51-2.706.602-5.82.58-3.201-.02-4.022-.12-6.035-.726-2.616-.787-4.388-1.623-6.547-3.087-1.634-1.108-4.264-3.822-4.906-5.064l-.416-.806-.879 1.305c-2.746 4.077-8.308 7.388-13.894 8.27-1.662.261-5.132.323-6.217.109zm2.713-18.614c-.57-.45-.692-.817-.85-2.58-.37-4.102-1.295-6.507-3.336-8.664-2.466-2.608-5.207-3.976-10.169-5.076-3.137-.695-3.836-1.143-3.836-2.455 0-.71.777-1.645 1.61-1.936.52-.183 4.558.643 6.856 1.401 4.986 1.646 9.098 4.925 10.937 8.72 1.213 2.503 1.746 4.544 1.945 7.45.152 2.21.134 2.313-.53 2.976-.82.82-1.72.877-2.627.164zm33.75-.163c-.665-.666-.681-.758-.512-2.959.544-7.076 3.684-11.872 9.69-14.8 2.872-1.402 7.342-2.73 9.453-2.81 1.402-.052 2.188.688 2.188 2.061 0 1.261-.67 1.684-3.787 2.388-7.696 1.739-11.707 4.98-13.012 10.517-.215.913-.393 2.353-.395 3.2-.003 1.35-.1 1.64-.777 2.316-.97.969-1.936.998-2.848.087zm-39.11-28.19c-1.263-.7-1.57-2.08-.702-3.153.37-.456.888-.649 2.136-.796 4.719-.557 8.379-4.325 8.918-9.183.204-1.836.874-2.706 2.084-2.706 1.877 0 2.465 2.013 1.58 5.413-1.451 5.57-6.388 9.812-12.295 10.565-.677.086-1.42.026-1.72-.14zm43.862-.099c-3.965-.861-7.997-4.026-9.699-7.613-2.134-4.497-1.916-8.126.488-8.126 1.473 0 1.994.662 2.273 2.883.321 2.555 1.24 4.498 2.88 6.097a10.457 10.457 0 0 0 5.873 2.89c1.316.18 1.775.374 2.28.962.763.887.64 1.822-.356 2.712-.753.673-1.388.706-3.739.195zm-58.626-18.133c-.73-.45-1.055-1.544-.708-2.382.348-.84 1.025-1.21 2.63-1.433 2.938-.411 5.689-2.64 6.523-5.287.434-1.375.44-1.54.06-1.752-1.303-.73-3.787-2.838-4.745-4.03-2.621-3.26-4.54-9.759-3.34-11.32.834-1.087 2.347-1.22 3.197-.281.227.25.521 1.414.68 2.688.375 3.015 1.442 5.178 3.61 7.315 4.75 4.68 11.777 5.053 15.883.84.711-.73 1.562-1.432 1.889-1.56 1.294-.51 2.938.932 2.6 2.28-.438 1.743-4.282 4.759-7.257 5.692-1.473.462-2.289.538-5.013.465l-3.255-.086-.617 1.518c-1.675 4.118-5.847 7.284-9.915 7.525-1.01.06-1.946-.02-2.222-.192zm72.176-.199c-2.055-.71-3.564-1.707-5.228-3.452-1.471-1.543-2.83-3.886-2.836-4.888-.002-.436-.15-.462-1.524-.265-3.882.555-7.525-.19-10.459-2.137-1.656-1.099-3.26-2.758-3.644-3.77-.335-.88.173-1.956 1.145-2.422 1.005-.482 1.515-.255 3.236 1.438.819.806 2.116 1.752 2.883 2.103 4.06 1.859 9.466.635 13.062-2.956 2.06-2.057 3.083-4.15 3.592-7.342.422-2.654.79-3.19 2.188-3.19 1.382 0 1.954.797 1.954 2.724 0 4.652-3.362 10.509-7.381 12.859-1.185.693-1.339.878-1.206 1.455.721 3.147 3.814 5.89 7.076 6.276 2.3.273 3.229 1.81 2.021 3.346-.48.61-.738.696-2.05.688-.827-.005-2.1-.215-2.829-.467z" transform="translate(-45.12 -80.785)"/></svg>