<svg height="512" width="512" xmlns="http://www.w3.org/2000/svg"><path d="M278.188 199.431h-80.813a8.081 8.081 0 0 1-8.081-8.081v-24.244a8.081 8.081 0 0 1 8.081-8.081h80.813a8.081 8.081 0 0 1 8.081 8.081v24.244a8.08 8.08 0 0 1-8.081 8.081zM278.188 423.687h-80.813a8.081 8.081 0 0 1-8.081-8.081v-24.244a8.081 8.081 0 0 1 8.081-8.081h80.813a8.081 8.081 0 0 1 8.081 8.081v24.244a8.08 8.08 0 0 1-8.081 8.081z" fill="#b2e5fb"/><path d="m374.586 128.778-82.782 66.226a20.201 20.201 0 0 1-12.621 4.427h-82.734a20.201 20.201 0 0 1-12.621-4.427l-82.782-66.226a46.365 46.365 0 0 0-28.964-10.16c-25.607 0-46.366 20.759-46.366 46.366a93.614 93.614 0 0 0 4.236 27.843l56.915 182.728c9.292 29.831 36.905 50.152 68.15 50.152 18.968 0 34.345-15.377 34.345-34.345a8.081 8.081 0 0 1 8.081-8.081h80.745a8.081 8.081 0 0 1 8.081 8.081c0 18.969 15.377 34.345 34.345 34.345 31.245 0 58.858-20.321 68.15-50.152l56.915-182.728a93.62 93.62 0 0 0 4.236-27.843c0-25.607-20.759-46.366-46.366-46.366a46.364 46.364 0 0 0-28.963 10.16z" fill="#f8a6af"/><path d="M403.55 118.618a46.363 46.363 0 0 0-24.257 6.855c13.259 8.16 22.102 22.801 22.102 39.511 0 1.13-.023 2.259-.067 3.387-.102 2.63-2.272 4.676-4.904 4.675h-.047c-64.056 0-116.169 52.113-116.169 116.169 0 39.962 20.289 75.268 51.102 96.178a4.852 4.852 0 0 1 1.402 6.581 71.43 71.43 0 0 1-31.684 27.595 34.178 34.178 0 0 0 19.587 6.139c31.245 0 58.858-20.321 68.149-50.152l56.915-182.728a93.62 93.62 0 0 0 4.236-27.843c.001-25.608-20.758-46.367-46.365-46.367z" fill="#f58a97"/><path d="M278.188 159.024h-80.813a8.081 8.081 0 0 1-8.081-8.081v-24.244a8.081 8.081 0 0 1 8.081-8.081h80.813a8.081 8.081 0 0 1 8.081 8.081v24.244a8.08 8.08 0 0 1-8.081 8.081z" fill="#e5f6fd"/><path d="M278.188 504.5h-80.813a8.081 8.081 0 0 1-8.081-8.081v-24.244a8.081 8.081 0 0 1 8.081-8.081h80.813a8.081 8.081 0 0 1 8.081 8.081v24.244a8.08 8.08 0 0 1-8.081 8.081z" fill="#b2e5fb"/><path d="M278.188 464.094h-80.813a8.081 8.081 0 0 1-8.081-8.081v-24.244a8.081 8.081 0 0 1 8.081-8.081h80.813a8.081 8.081 0 0 1 8.081 8.081v24.244a8.081 8.081 0 0 1-8.081 8.081z" fill="#e5f6fd"/><path d="m208.344 34.107-4.518-13.025A20.204 20.204 0 0 0 184.739 7.5h-26.86c-13.989 0-23.744 13.874-19.012 27.038l25.419 70.711a20.203 20.203 0 0 0 19.012 13.369h108.969a20.202 20.202 0 0 0 19.012-13.369l25.419-70.711C341.43 21.374 331.674 7.5 317.686 7.5h-26.86a20.201 20.201 0 0 0-19.087 13.582l-4.518 13.025a31.16 31.16 0 0 1-58.877 0z" fill="#d3eefd"/><path d="M317.686 7.5h-2.366l-24.245 67.444a20.203 20.203 0 0 1-19.012 13.369H158.197l6.088 16.936a20.203 20.203 0 0 0 19.012 13.369h108.969a20.202 20.202 0 0 0 19.012-13.369l25.419-70.711C341.43 21.373 331.674 7.5 317.686 7.5z" fill="#b2e5fb"/><g><circle cx="396.377" cy="289.214" fill="#a2f5c3" r="89.904"/><path d="m439.685 321.364-1.189-5.946c-.405-2.024-.116-4.113.765-5.979a47.224 47.224 0 0 0 1.739-4.203c.696-1.942 1.97-3.623 3.686-4.767l5.048-3.366c5.63-3.753 5.63-12.026 0-15.78l-5.048-3.366c-1.716-1.144-2.99-2.825-3.686-4.767a47.05 47.05 0 0 0-1.739-4.203c-.88-1.867-1.169-3.956-.765-5.979l1.189-5.946c1.327-6.635-4.523-12.485-11.158-11.158l-5.946 1.189c-2.024.405-4.113.116-5.979-.765a47.224 47.224 0 0 0-4.203-1.739c-1.942-.696-3.623-1.97-4.767-3.686l-3.366-5.048c-3.753-5.63-12.026-5.63-15.78 0l-3.366 5.048c-1.144 1.716-2.825 2.99-4.767 3.686a47.05 47.05 0 0 0-4.203 1.739c-1.867.88-3.956 1.169-5.979.765l-5.946-1.189c-6.635-1.327-12.485 4.523-11.158 11.158l1.189 5.946c.405 2.024.116 4.113-.765 5.979a47.224 47.224 0 0 0-1.739 4.203c-.696 1.942-1.97 3.623-3.686 4.767l-5.048 3.366c-5.63 3.753-5.63 12.026 0 15.78l5.048 3.366c1.716 1.144 2.99 2.825 3.686 4.767a47.05 47.05 0 0 0 1.739 4.203c.88 1.867 1.169 3.956.765 5.979l-1.189 5.946c-1.327 6.635 4.523 12.485 11.158 11.158l5.946-1.189c2.024-.405 4.113-.116 5.979.765a47.224 47.224 0 0 0 4.203 1.739c1.942.696 3.623 1.97 4.767 3.686l3.366 5.048c3.753 5.63 12.026 5.63 15.78 0l3.366-5.048c1.144-1.716 2.825-2.99 4.767-3.686a47.05 47.05 0 0 0 4.203-1.739c1.867-.88 3.956-1.169 5.979-.765l5.946 1.189c6.635 1.326 12.485-4.523 11.158-11.158z" fill="#bc95e3"/><path d="m449.734 281.324-5.048-3.366c-1.716-1.144-2.99-2.825-3.686-4.767a47.348 47.348 0 0 0-1.739-4.203 9.783 9.783 0 0 1-.929-3.652c-12.532 29.473-41.748 50.141-75.795 50.141-2.776 0-5.518-.142-8.223-.41-.019.117-.032.234-.055.35l-1.189 5.946c-1.327 6.635 4.523 12.485 11.158 11.158l5.946-1.189c2.024-.405 4.113-.116 5.979.765a47.1 47.1 0 0 0 4.203 1.739c1.942.696 3.623 1.97 4.767 3.686l3.366 5.048c3.753 5.63 12.026 5.63 15.78 0l3.366-5.048c1.144-1.716 2.825-2.99 4.767-3.686a47.05 47.05 0 0 0 4.203-1.739c1.867-.88 3.956-1.169 5.979-.765l5.946 1.189c6.635 1.327 12.485-4.523 11.158-11.158l-1.189-5.946c-.405-2.024-.116-4.113.765-5.979a47.224 47.224 0 0 0 1.739-4.203c.696-1.942 1.97-3.623 3.686-4.767l5.048-3.366c5.627-3.752 5.627-12.025-.003-15.778z" fill="#ac7fdc"/><circle cx="396.377" cy="289.214" fill="#9c66d5" r="16.163"/></g><g><path d="M110.231 191.931a7.5 7.5 0 0 0-7.5 7.5c0 4.776-3.886 8.663-8.663 8.663s-8.663-3.887-8.663-8.663c0-4.143-3.358-7.5-7.5-7.5s-7.5 3.357-7.5 7.5c0 13.048 10.615 23.663 23.663 23.663s23.663-10.615 23.663-23.663a7.5 7.5 0 0 0-7.5-7.5zM169.983 232.271a7.5 7.5 0 0 0-7.5 7.5c0 4.776-3.886 8.662-8.663 8.662s-8.663-3.886-8.663-8.662c0-4.143-3.358-7.5-7.5-7.5s-7.5 3.357-7.5 7.5c0 13.047 10.615 23.662 23.663 23.662s23.663-10.615 23.663-23.662a7.5 7.5 0 0 0-7.5-7.5zM152.262 352.077c0 4.776-3.886 8.662-8.663 8.662s-8.663-3.886-8.663-8.662c0-4.143-3.358-7.5-7.5-7.5s-7.5 3.357-7.5 7.5c0 13.047 10.615 23.662 23.663 23.662s23.663-10.615 23.663-23.662a7.5 7.5 0 0 0-15 0zM246.445 336.813c0 4.776-3.886 8.662-8.663 8.662s-8.663-3.886-8.663-8.662c0-4.143-3.358-7.5-7.5-7.5s-7.5 3.357-7.5 7.5c0 13.047 10.615 23.662 23.663 23.662s23.663-10.615 23.663-23.662a7.5 7.5 0 0 0-15 0zM253.945 232.893a7.5 7.5 0 0 0-7.5 7.5c0 4.776-3.886 8.663-8.663 8.663s-8.663-3.887-8.663-8.663c0-4.143-3.358-7.5-7.5-7.5s-7.5 3.357-7.5 7.5c0 13.048 10.615 23.663 23.663 23.663s23.663-10.615 23.663-23.663a7.5 7.5 0 0 0-7.5-7.5zM205.398 289.214c0 4.776-3.886 8.662-8.663 8.662s-8.663-3.886-8.663-8.662c0-4.143-3.358-7.5-7.5-7.5s-7.5 3.357-7.5 7.5c0 13.047 10.615 23.662 23.663 23.662s23.663-10.615 23.663-23.662c0-4.143-3.358-7.5-7.5-7.5s-7.5 3.357-7.5 7.5zM122.646 292.321c0 4.776-3.886 8.662-8.663 8.662s-8.663-3.886-8.663-8.662c0-4.143-3.358-7.5-7.5-7.5s-7.5 3.357-7.5 7.5c0 13.047 10.615 23.662 23.663 23.662s23.663-10.615 23.663-23.662a7.5 7.5 0 0 0-15 0z"/><path d="m449.028 207.3 3.817-12.247a100.93 100.93 0 0 0 4.57-30.072c0-14.379-5.602-27.906-15.78-38.097-10.177-10.165-23.704-15.764-38.09-15.764a53.952 53.952 0 0 0-17.823 3.033 53.699 53.699 0 0 0-15.822 8.771l-76.13 60.909v-16.728a15.46 15.46 0 0 0-2.285-8.081 15.46 15.46 0 0 0 2.285-8.081v-24.244c0-.215-.024-.424-.032-.637 11.055-.592 20.825-7.775 24.595-18.275l25.421-70.712a27.745 27.745 0 0 0-3.412-25.313A27.731 27.731 0 0 0 317.685 0h-26.86c-11.793 0-22.312 7.483-26.176 18.622l-4.52 13.03a23.664 23.664 0 0 1-22.344 15.897 23.55 23.55 0 0 1-13.725-4.383 23.525 23.525 0 0 1-8.629-11.515l-4.52-13.03C207.048 7.483 196.528 0 184.735 0h-26.86a27.731 27.731 0 0 0-22.657 11.762 27.745 27.745 0 0 0-3.411 25.315l25.419 70.708c3.772 10.503 13.544 17.687 24.6 18.277-.009.213-.032.422-.032.637v24.244c0 2.961.845 5.721 2.285 8.081a15.46 15.46 0 0 0-2.285 8.081v16.674l-76.062-60.855a54.036 54.036 0 0 0-33.647-11.805c-14.386 0-27.914 5.599-38.1 15.773-10.17 10.193-15.771 23.72-15.771 38.087 0 5.05.385 10.166 1.146 15.222a100.542 100.542 0 0 0 3.434 14.849l37.35 119.91a7.502 7.502 0 0 0 9.391 4.93 7.5 7.5 0 0 0 4.93-9.392L37.112 190.577a85.45 85.45 0 0 1-2.92-12.623 87.435 87.435 0 0 1-.977-12.974c0-10.367 4.045-20.131 11.38-27.483 7.344-7.337 17.107-11.377 27.49-11.377a38.975 38.975 0 0 1 24.274 8.517l82.784 66.232a27.821 27.821 0 0 0 17.302 6.061h82.73c6.259 0 12.404-2.15 17.315-6.063l82.782-66.23a38.733 38.733 0 0 1 11.406-6.324 38.942 38.942 0 0 1 12.867-2.191c10.383 0 20.146 4.04 27.484 11.37 7.342 7.352 11.386 17.114 11.386 27.49a85.943 85.943 0 0 1-3.89 25.608l-2.95 9.465c-12.001-5.296-25.262-8.245-39.2-8.245-53.707 0-97.4 43.693-97.4 97.4 0 47.021 33.487 86.368 77.862 95.44-4.444 8.28-10.68 15.481-18.358 21.13-11.049 8.132-24.142 12.43-37.864 12.43-7.175 0-13.913-2.791-18.98-7.867-5.075-5.067-7.87-11.809-7.87-18.982 0-8.591-6.989-15.58-15.58-15.58h-80.74c-4.128 0-8.029 1.604-11.043 4.575a15.523 15.523 0 0 0-4.537 11.005c0 7.164-2.794 13.909-7.868 18.991-5.06 5.067-11.801 7.858-18.982 7.858-28.118 0-52.627-18.04-60.989-44.89l-9.16-29.42a7.5 7.5 0 0 0-14.323 4.459l9.16 29.421c10.325 33.154 40.59 55.43 75.311 55.43 10.578 0 20.544-3.894 28.271-10.995.239.507.503.997.793 1.472a15.464 15.464 0 0 0-2.285 8.082v24.243c0 2.961.845 5.722 2.285 8.082a15.464 15.464 0 0 0-2.285 8.082v24.244c0 8.592 6.99 15.581 15.581 15.581h80.813c8.592 0 15.582-6.989 15.582-15.581v-24.244c0-2.961-.845-5.722-2.285-8.082a15.464 15.464 0 0 0 2.285-8.082v-24.243c0-2.961-.845-5.722-2.285-8.082.299-.491.573-.998.817-1.522 7.734 7.132 17.717 11.045 28.313 11.045 16.944 0 33.112-5.308 46.754-15.349 11.061-8.137 19.702-18.886 25.235-31.321a98.35 98.35 0 0 0 3.771.08c15.849 0 31.585-3.894 45.508-11.261a7.5 7.5 0 0 0-7.015-13.258c-11.769 6.227-25.08 9.519-38.492 9.519-45.436 0-82.4-36.969-82.4-82.41 0-45.436 36.965-82.4 82.4-82.4 45.441 0 82.41 36.965 82.41 82.4 0 19.229-6.756 37.935-19.024 52.671a7.499 7.499 0 0 0 .966 10.562 7.5 7.5 0 0 0 10.562-.965c14.506-17.427 22.496-39.54 22.496-62.269 0-34.324-17.851-64.558-44.757-81.909zm-252.234-15.95v-24.244c0-.32.261-.581.581-.581h80.813c.321 0 .582.261.582.581v24.244a.581.581 0 0 1-.577.58H197.37a.582.582 0 0 1-.576-.58zm-25.451-88.637-25.419-70.708c-1.419-3.95-.849-8.183 1.564-11.613 2.41-3.427 6.196-5.392 10.388-5.392h26.86a12.711 12.711 0 0 1 12.004 8.538l4.522 13.035c2.657 7.641 7.536 14.148 14.107 18.819a38.463 38.463 0 0 0 22.417 7.157c16.45 0 31.125-10.441 36.516-25.981l4.52-13.03A12.711 12.711 0 0 1 290.826 15h26.86c4.191 0 7.977 1.965 10.387 5.392 2.413 3.431 2.983 7.663 1.565 11.611l-25.421 70.712a12.728 12.728 0 0 1-11.952 8.405h-49.82c-4.142 0-7.5 3.357-7.5 7.5s3.358 7.5 7.5 7.5h35.753a.581.581 0 0 1 .572.579v24.244c0 .32-.261.581-.582.581h-80.813a.582.582 0 0 1-.581-.581v-24.244c0-.317.256-.573.571-.579h10.079c4.142 0 7.5-3.357 7.5-7.5s-3.358-7.5-7.5-7.5h-24.15a12.73 12.73 0 0 1-11.951-8.407zm106.845 313.474h-80.813a.582.582 0 0 1-.581-.581s.071-23.455.071-24.245c-.06-.248.289-.619.58-.58h80.74c.418.007.632.388.584.781v24.044a.58.58 0 0 1-.581.581zm.582 15.582v24.243a.583.583 0 0 1-.582.582h-80.813a.582.582 0 0 1-.581-.582v-24.243c0-.321.261-.582.581-.582h80.813c.321 0 .582.26.582.582zm0 64.65c0 .32-.261.581-.582.581h-80.813a.582.582 0 0 1-.581-.581v-24.244c0-.32.261-.581.581-.581h80.813c.321 0 .582.261.582.581z"/><path d="M396.377 265.551c-13.047 0-23.663 10.615-23.663 23.663 0 13.047 10.615 23.662 23.663 23.662s23.663-10.615 23.663-23.662c0-13.048-10.615-23.663-23.663-23.663zm0 32.325c-4.776 0-8.663-3.886-8.663-8.662s3.886-8.663 8.663-8.663 8.663 3.887 8.663 8.663-3.886 8.662-8.663 8.662z"/><path d="m453.895 275.084-5.05-3.367c-.441-.294-.67-.736-.785-1.056a55.061 55.061 0 0 0-2.016-4.873c-.146-.309-.298-.786-.193-1.308l1.189-5.946c1.116-5.579-.62-11.313-4.644-15.338s-9.761-5.763-15.34-4.646l-5.948 1.19c-.52.102-.998-.049-1.306-.194a54.9 54.9 0 0 0-4.875-2.017c-.319-.114-.76-.344-1.055-.785l-3.366-5.049c-3.157-4.735-8.439-7.562-14.13-7.562s-10.973 2.827-14.13 7.562l-3.365 5.048c-.295.442-.736.672-1.06.787a54.925 54.925 0 0 0-4.867 2.015c-.31.146-.788.302-1.311.194l-5.947-1.189c-5.583-1.116-11.315.621-15.339 4.646s-5.76 9.759-4.644 15.338l1.189 5.947c.104.521-.047.998-.193 1.307a54.638 54.638 0 0 0-2.016 4.873c-.162.451-.441.826-.787 1.057l-5.047 3.366a16.947 16.947 0 0 0-7.563 14.129c0 5.69 2.827 10.974 7.562 14.131l5.046 3.364c.444.296.673.738.788 1.059a55.146 55.146 0 0 0 2.016 4.872c.146.309.298.787.193 1.309l-1.189 5.945a16.947 16.947 0 0 0 4.645 15.339 16.954 16.954 0 0 0 15.339 4.645l5.944-1.189c.521-.102 1.002.048 1.31.193a55.036 55.036 0 0 0 4.874 2.017c.318.114.76.343 1.055.787l3.366 5.047c3.157 4.735 8.439 7.562 14.13 7.562s10.974-2.827 14.13-7.562l3.366-5.049c.294-.442.736-.671 1.055-.785a54.898 54.898 0 0 0 4.871-2.016c.31-.146.791-.299 1.31-.194l5.946 1.189a16.948 16.948 0 0 0 15.339-4.645 16.948 16.948 0 0 0 4.645-15.339l-1.189-5.946c-.104-.521.047-.999.194-1.31a55.046 55.046 0 0 0 2.015-4.871c.114-.319.344-.762.786-1.057l5.049-3.365a16.95 16.95 0 0 0 7.562-14.131 16.939 16.939 0 0 0-7.559-14.129zm-8.321 15.779-5.049 3.365c-3.05 2.034-5.327 4.966-6.584 8.476-.43 1.2-.923 2.39-1.462 3.534-1.592 3.376-2.054 7.059-1.336 10.65l1.189 5.945c.172.86-.2 1.449-.542 1.791-.343.343-.932.716-1.79.542l-5.948-1.189c-3.591-.718-7.272-.256-10.649 1.336a39.505 39.505 0 0 1-3.531 1.462c-3.514 1.258-6.446 3.536-8.479 6.587l-3.365 5.048c-.486.729-1.166.883-1.65.883s-1.163-.153-1.649-.884l-3.365-5.046c-2.034-3.052-4.966-5.33-8.479-6.588a39.642 39.642 0 0 1-3.534-1.463 17.15 17.15 0 0 0-7.334-1.664 16.89 16.89 0 0 0-3.314.329l-5.946 1.189c-.86.175-1.448-.199-1.79-.542-.342-.342-.714-.931-.542-1.791l1.189-5.944c.718-3.593.256-7.275-1.336-10.651a39.6 39.6 0 0 1-1.461-3.531c-1.258-3.512-3.535-6.443-6.586-8.479l-5.048-3.365c-.73-.486-.883-1.166-.883-1.65 0-.483.153-1.162.883-1.648l5.047-3.365c3.05-2.033 5.328-4.965 6.587-8.479.429-1.197.92-2.386 1.461-3.531 1.592-3.376 2.054-7.059 1.336-10.649l-1.189-5.946c-.172-.859.2-1.448.542-1.79.342-.343.929-.719 1.79-.543l5.944 1.188c3.59.722 7.272.258 10.652-1.335a40.115 40.115 0 0 1 3.531-1.462c3.512-1.258 6.444-3.535 8.478-6.586l3.366-5.049c.486-.729 1.166-.883 1.649-.883.484 0 1.164.153 1.649.883l3.366 5.05c2.034 3.05 4.966 5.327 8.474 6.584 1.205.432 2.395.925 3.538 1.464 3.378 1.593 7.059 2.051 10.648 1.335l5.945-1.189c.857-.175 1.448.2 1.791.543.342.342.714.931.542 1.79l-1.189 5.945c-.718 3.592-.256 7.274 1.335 10.648a39.992 39.992 0 0 1 1.463 3.535c1.259 3.514 3.537 6.445 6.585 8.477l5.049 3.366c.729.486.882 1.165.882 1.648.002.483-.152 1.163-.881 1.649z"/></g></svg>