<svg height="512" width="512" xmlns="http://www.w3.org/2000/svg"><path d="m447.801 240.929-30 1h-84.07c-5.523 0-10-4.477-10-10v-15.378c0-5.523 4.477-10 10-10h84.152l29.918 1c5.523 0 9 3.477 9 9v15.378c0 5.523-3.478 9-9 9z" fill="#e94444"/><path d="m432.786 301.596-29.442 1H333.73c-5.523 0-10-4.477-10-10v-15.378c0-5.523 4.477-10 10-10h70.264l28.791 1c5.523 0 9 3.477 9 9v15.378c.001 5.523-3.476 9-8.999 9z" fill="#8aaadc"/><path d="m86.259 503.5-17.059 1c-.258 0-.514-.007-.769-.019-7.927-.4-14.231-6.954-14.231-14.981V232.116h47.059l-1 257.384c0 8.284-5.716 14-14 14z" fill="#e94444"/><path d="M101.261 232.12V489.5c0 8.28-6.72 15-15 15h-17.06c-.5 0-.99-.02-1.47-.08 7.59-.73 13.53-7.14 13.53-14.92V232.12z" fill="#d83131"/><path d="M232.191 221.806h-47.122v-77.995c0-64.205 52.048-116.253 116.253-116.253H360.8l26.894 1c8.675 0 14.707 6.032 14.707 14.707v15.708c0 8.675-6.032 14.707-14.707 14.707l-26.894 1h-59.478c-38.18 0-69.131 30.951-69.131 69.131z" fill="#8aaadc"/><path d="M399.681 349.59v90.74c0 28.43-22.04 50.47-50.46 50.47l-25.17 1h-65.58c-112.81 0-204.27-91.45-204.27-204.27V23.21c0-6.21 3.6-11.57 8.82-14.13 2.08-1.01 4.42-.58 6.89-.58h15.7c8.68 0 14.71 6.03 14.71 14.71v81.1c0 10.61 4.25 20.86 11.1 28.42 2.1 2.33 4.46 4.4 7.01 6.15 4.85 3.32 10.42 5.17 16.38 5.96 2.44.33 4.96.48 7.52.48h30.97l23.11 1c112.819 0 203.27 90.45 203.27 203.27z" fill="#f47c7c"/><path d="M142.331 145.32h-30c-22.65 0-41.01-18.36-41.01-41.01v-81.1c0-6.1-3.48-11.39-8.56-13.98 2.14-1.11 4.57-1.73 7.15-1.73h15.7c8.68 0 15.71 7.03 15.71 15.71v81.1c0 22.65 18.36 41.01 41.01 41.01zM400.681 349.59v90.74c0 28.43-23.04 51.47-51.46 51.47h-30c28.42 0 51.46-23.04 51.46-51.47v-90.74c0-112.82-91.45-204.27-204.27-204.27h30c112.819 0 204.27 91.45 204.27 204.27z" fill="#ee6161"/><path d="M403.401 43.27v15.7c0 8.68-7.03 15.71-15.71 15.71h-30c8.68 0 15.71-7.03 15.71-15.71v-15.7c0-8.68-7.03-15.71-15.71-15.71h30c8.68 0 15.71 7.03 15.71 15.71z" fill="#7398d4"/><path d="M457.801 216.55v15.38c0 5.52-4.48 10-10 10h-30c5.52 0 10-4.48 10-10v-15.38c0-5.52-4.48-10-10-10h30c5.52 0 10 4.48 10 10z" fill="#d83131"/><path d="M442.791 277.22v15.38c0 5.52-4.48 10-10 10h-30c5.52 0 10-4.48 10-10v-15.38c0-5.52-4.48-10-10-10h30c5.52 0 10 4.48 10 10z" fill="#7398d4"/><g><path d="M447.801 199.052H345.206c-28.471-28.145-64.854-48.297-105.477-56.774.819-33.275 28.123-60.098 61.593-60.098h31.526c4.143 0 7.5-3.358 7.5-7.5s-3.357-7.5-7.5-7.5h-31.526c-40.884 0-74.39 32.183-76.521 72.546a212.737 212.737 0 0 0-28.388-1.908h-3.678c3.122-57.189 50.631-102.759 108.586-102.759h86.372c4.525 0 8.207 3.682 8.207 8.207v15.708c0 4.525-3.682 8.207-8.207 8.207h-22.159c-4.143 0-7.5 3.358-7.5 7.5s3.357 7.5 7.5 7.5h22.159c12.797 0 23.207-10.411 23.207-23.207V43.265c0-12.797-10.41-23.207-23.207-23.207h-86.372c-66.229 0-120.469 52.295-123.606 117.759h-35.388c-18.476 0-33.507-15.031-33.507-33.506V23.208C108.821 10.411 98.411 0 85.614 0H69.907C57.11 0 46.699 10.411 46.699 23.208v188.22c0 4.142 3.357 7.5 7.5 7.5s7.5-3.358 7.5-7.5V23.208c0-4.525 3.682-8.208 8.208-8.208h15.707c4.525 0 8.207 3.682 8.207 8.208v81.103c0 17.777 9.619 33.342 23.919 41.788l23.476 36.055-6.714 69.467a72.448 72.448 0 0 1-21.773 45.113l-17.017 16.43a7.5 7.5 0 0 0 10.419 10.791l17.016-16.43c.208-.201.403-.412.609-.614l5.947 43.114a7.503 7.503 0 0 0 8.454 6.405 7.499 7.499 0 0 0 6.405-8.455l-7.894-57.231c7.039-11.34 11.463-24.22 12.763-37.68l4.906-50.758 38.694 59.426c11.309 17.368 26.672 31.23 44.642 40.593l22.05 62.767a7.502 7.502 0 0 0 7.076 5.016 7.5 7.5 0 0 0 7.076-9.988l-17.573-50.022c3.113.999 6.277 1.883 9.493 2.633l29.635 6.907a7.505 7.505 0 0 0 9.007-5.602 7.502 7.502 0 0 0-5.603-9.007l-29.635-6.907c-26.285-6.126-48.871-21.957-63.599-44.575l-2.101-3.228 68.511 4.167a7.5 7.5 0 0 0 .91-14.972l-27.272-1.659 21.353-16.215c3.299-2.505 3.942-7.21 1.437-10.509s-7.207-3.943-10.509-1.438l-35.245 26.765-29.373-1.786-53.337-81.915c.78.037 1.564.06 2.353.06h54.086c108.5 0 196.771 88.27 196.771 196.77v9.343a7.5 7.5 0 0 0 15 0v-9.343c0-13.494-1.284-26.692-3.708-39.491h28.31c9.649 0 17.5-7.851 17.5-17.5v-15.377c0-9.649-7.851-17.5-17.5-17.5H388.14a211.37 211.37 0 0 0-5.182-10.289h64.843c9.649 0 17.5-7.851 17.5-17.5v-15.377c0-9.651-7.851-17.501-17.5-17.501zm-15.015 75.666c1.379 0 2.5 1.122 2.5 2.5v15.377c0 1.378-1.121 2.5-2.5 2.5h-31.722a209.657 209.657 0 0 0-6.562-20.377zm17.515-42.789c0 1.378-1.121 2.5-2.5 2.5h-73.749a212.973 212.973 0 0 0-15.053-20.377h88.802c1.379 0 2.5 1.122 2.5 2.5z"/><path d="M46.699 489.5c0 12.407 10.094 22.5 22.5 22.5h17.06c12.406 0 22.5-10.093 22.5-22.5v-52.331c38.349 38.368 91.306 62.133 149.71 62.133h90.748c32.515 0 58.968-26.453 58.968-58.968v-48.717a7.5 7.5 0 0 0-15 0v48.717c0 24.244-19.724 43.968-43.968 43.968h-90.748c-108.499 0-196.77-88.271-196.77-196.77v-43.418c0-4.142-3.357-7.5-7.5-7.5s-7.5 3.358-7.5 7.5zm47.06 0c0 4.136-3.364 7.5-7.5 7.5h-17.06c-4.136 0-7.5-3.364-7.5-7.5V365.808c7.935 19.877 18.803 38.274 32.06 54.666z"/></g></svg>