<svg height="512" viewBox="0 0 511.999 511.999" width="512" xmlns="http://www.w3.org/2000/svg"><path d="m85.215 504.5-29.16-103.09a197.392 197.392 0 0 1-7.47-53.77c0-59.38 26.84-116.8 74.89-154.87 25.6-20.28 36.37-54.04 27.23-85.4L121.595 7.5h268.81l-29.11 99.87c-9.14 31.36 1.63 65.12 27.23 85.4 48.05 38.07 74.89 95.49 74.89 154.87 0 17.91-2.44 35.99-7.47 53.77l-29.16 103.09" fill="#ffddce"/><g fill="#ffcbbe"><path d="M189.515 192.77c-24.1 38.07-37.57 95.49-37.57 154.87 0 17.91 1.23 35.99 3.75 53.77l14.63 103.09h-85.11l-29.16-103.09a197.392 197.392 0 0 1-7.47-53.77c0-59.38 26.84-116.8 74.89-154.87 25.6-20.28 36.37-54.04 27.23-85.4L121.595 7.5h66.98l14.6 99.87c4.59 31.36-.82 65.12-13.66 85.4zM296.002 340.926v163.57h-40v-141.53c16.84 0 31.62-8.79 40-22.04z"/><path d="M269.218 361.086a46.881 46.881 0 0 1-13.22 1.88c-16.84 0-31.62-8.79-40-22.04h11.967c8.109 0 15.85 3.22 21.695 8.841a47.208 47.208 0 0 0 19.558 11.319z"/></g><path d="M256.002 200.27c-19.042-19.043-49.916-19.045-68.959-.003-19.043 19.042-19.045 49.916-.003 68.959l53.213 53.218c8.695 8.695 22.792 8.696 31.487.001l53.218-53.213c19.043-19.042 19.045-49.916.003-68.959-19.042-19.043-49.916-19.045-68.959-.003z" fill="#e28086"/><path d="M255.999 328.965a22.194 22.194 0 0 1-15.748-6.523l-53.212-53.216c-9.525-9.526-14.281-21.995-14.281-34.475.001-12.48 4.758-24.961 14.284-34.486 13.154-13.153 31.965-17.224 48.626-12.19-3.111 2.246-6.054 6.318-8.505 12.192-3.976 9.525-5.971 22.006-5.972 34.487-.001 12.48 1.993 24.949 5.969 34.475l22.256 53.215c1.814 4.347 4.193 6.521 6.583 6.521z" fill="#dd636e"/><g><path d="M256 166.797a7.5 7.5 0 0 0 7.5-7.5v-30.164a7.5 7.5 0 0 0-15 0v30.164a7.5 7.5 0 0 0 7.5 7.5zM256.009 461.998a7.5 7.5 0 0 0-7.5 7.5v35a7.5 7.5 0 0 0 15 0v-35a7.5 7.5 0 0 0-7.5-7.5zM300.01 334.586a7.503 7.503 0 0 0-10.348 2.33c-7.346 11.615-19.929 18.549-33.662 18.549s-26.317-6.934-33.663-18.549a7.501 7.501 0 0 0-12.678 8.018c8.758 13.847 22.929 22.847 38.85 25.012v69.552a7.5 7.5 0 0 0 15 0v-69.555c15.913-2.17 30.076-11.168 38.831-25.01a7.5 7.5 0 0 0-2.33-10.347zM450.75 258.973c-13.376-27.914-33.284-52.839-57.57-72.081-23.32-18.473-33.01-48.863-24.687-77.422l29.11-99.869a7.5 7.5 0 0 0-5.102-9.299 7.5 7.5 0 0 0-9.299 5.102l-29.11 99.869c-10.039 34.444 1.647 71.096 29.772 93.376 22.51 17.834 40.961 40.935 53.357 66.805 12.227 25.515 18.69 53.934 18.69 82.185 0 17.468-2.418 34.872-7.187 51.728l-29.159 103.089a7.5 7.5 0 0 0 14.433 4.083l29.159-103.089a204.995 204.995 0 0 0 7.753-55.811c.003-30.48-6.969-61.141-20.16-88.666zM128.796 5.404a7.498 7.498 0 0 0-9.299-5.102 7.5 7.5 0 0 0-5.102 9.299l29.11 99.869c8.323 28.558-1.367 58.948-24.687 77.422-24.285 19.241-44.193 44.166-57.569 72.08-13.19 27.526-20.162 58.186-20.162 88.667 0 18.848 2.608 37.626 7.753 55.811L78 506.539a7.503 7.503 0 0 0 7.213 5.46 7.5 7.5 0 0 0 7.22-9.543L63.274 399.367a189.998 189.998 0 0 1-7.187-51.728c0-28.251 6.463-56.67 18.69-82.185 12.397-25.87 30.848-48.971 53.357-66.805 28.125-22.28 39.812-58.933 29.773-93.377z"/><path d="M330.364 205.718a7.501 7.501 0 0 0-3.217 10.107c8.28 16.01 5.269 35.34-7.491 48.101l-53.219 53.219c-5.754 5.755-15.123 5.75-20.884-.01l-53.207-53.207c-7.794-7.802-12.086-18.164-12.086-29.179 0-11.022 4.291-21.384 12.082-29.175 16.094-16.084 42.271-16.086 58.354-.001a7.5 7.5 0 0 0 10.606 0c7.792-7.792 18.154-12.083 29.176-12.083a41.473 41.473 0 0 1 18.932 4.585 7.499 7.499 0 0 0 10.103-3.228 7.498 7.498 0 0 0-3.228-10.103 56.535 56.535 0 0 0-25.808-6.254c-12.65 0-24.662 4.145-34.484 11.793-22.047-17.116-54.008-15.557-74.259 4.683-10.625 10.625-16.477 24.754-16.477 39.783 0 15.018 5.851 29.146 16.477 39.783l53.209 53.209c5.806 5.807 13.432 8.71 21.057 8.709 7.62 0 15.239-2.9 21.039-8.699l53.219-53.22c17.399-17.399 21.502-43.761 10.209-65.598a7.496 7.496 0 0 0-10.103-3.215z"/></g></svg>