<svg height="512" viewBox="0 0 511.991 511.991" width="512" xmlns="http://www.w3.org/2000/svg"><path d="M476.275 157.111C463.469 74.798 397.404 34.857 322.852 19.244c.009.005 1.869 4.486-.136-.334-5.377-1.137-12.335-3.087-19.441-4.092-34.849-4.781-74.985-9.219-111.513.604a212.038 212.038 0 0 0-17.527 5.534l.086-.014c-9.074 3.44-16.978 6.689-27.291 12.475-41.463 23.295-70.508 62.146-74.023 116.033-1.193 18.291-9.078 27.13-10.859 34.779-2.164 9.292 7.716 18.833 11.66 28.013 1.652 3.845 1.382 8.277-.668 11.926-8.13 14.472-18.332 24.316-30.536 33.712-7.111 5.474-12.536 10.366-12.517 18.89.022 9.942 6.246 16.437 19.605 20.545 25.591 7.87-5.349 27.932-5.349 27.932s-4.287 6.173 2.718 11.758c5.396 4.303 8.865 7.876 10.622 9.837.762.85.643 2.146-.231 2.881-5.041 4.24-6.176 8.575-6.005 11.92.165 3.227 2.357 5.992 5.418 7.026 2.321.784 5.402 2.05 8.08 3.903 2.55 1.765 4.12 5.952 2.352 9.112-3.281 5.864-7.754 12.887-4.703 25.28 4.703 19.107 20.734 26.175 36.816 28.807 11.284 1.847 34.648-2.069 58.423-5.291 41.986-5.69 61.281 28.97 73.653 58.797l-.002.001c.562 2.135 1.602 4.218 2.999 6.123 4.719 6.435 18.729 7.266 26.993 4.844l138.207-36.765c11.58-2.98 18.009-15.339 13.85-26.559-11.991-32.301-24.878-77.412-9.084-95.649.757-.835.148-.192 1.757-1.811 46.737-42.296 64.572-70.519 69.729-113.929 0 .001-5.61-.014 0 .001 2.039-21.06 3.905-44.302.34-68.422z" fill="#fed2a4"/><path d="M433.572 318.049c10.059-10.581 21.301-23.375 29.81-38.637 15.27-26.058 18.311-58.715 18.524-90.67-.147-17.383-1.317-34.669-6.899-53.013-9.079-30.414-28.48-58.157-55.909-78.661l.008.01c-28.091-21.363-62.844-35.247-98.284-42.668.01 0 .02.01.02.02-5.37-1.14-13.7-2.66-20.809-3.66-37.439-5.14-77.237-5.2-116.396 7.02 31.289-5.99 62.588-5.11 92.397-1.02 7.11 1 15.439 2.52 20.809 3.66 0-.01-.01-.02-.02-.02 74.547 15.61 146.074 59.788 158.884 142.105 1.59 10.78 2.2 21.639 2.2 32.229 0 13.119-.93 25.839-2.06 37.489-3.077 25.845-10.274 46.125-25.46 67.229-7.954 8.971-17.59 18.461-29.297 29.058-.603.572-1.183 1.072-3.02 3.1-16.349 18.869-14.039 55.648 7.04 112.446.71 1.89.14 3.46-.26 4.23-.4.75-1.34 2.09-3.26 2.58L234.485 495.4c3.82 5.21 10.32 9.1 17.039 9.1 1.58 0 3.17-.21 4.74-.67l149.064-38.428c11.58-2.98 18.009-15.339 13.849-26.559-11.99-32.299-25.569-79.157-9.78-97.396.1-.12.21-.23.31-.35 4.505-4.703 4.035-2.953 23.865-23.048z" fill="#ffbd86"/><path d="m290.035 301.22-8.444-23.369 45.957-8.553 57.191 16.596c-.19 3.411-2.713 8.068-3.83 11.489-.919 2.816 2.333 8.235.867 10.698-8.57 14.4-25.736 22.34-42.674 18.738-10.193-2.168-18.563-7.975-24.147-15.714a2.92 2.92 0 0 0-2.485-1.199 30.145 30.145 0 0 1-9.037-1.008 30.034 30.034 0 0 1-13.398-7.678z" fill="#dc4955"/><path d="M387.316 289.87c-.19 3.41-.82 6.86-1.94 10.28-.92 2.82-2.13 5.47-3.6 7.93-3.05.36-6.13.55-9.24.55-4.98 0-9.98-.49-14.87-1.47-11.899-2.368-22.775-7.304-32.086-14.495a.977.977 0 0 0-1.049-.096 58.762 58.762 0 0 1-26.835 6.452c-2.9 0-5.81-.22-8.69-.66l-7.41-20.51 45.95-8.55z" fill="#d82f3c"/><path d="M424.4 201.723c8.622-6.538 15.706-15.868 18.723-27.128 6.971-25.672-5.36-53.179-31.039-61.133a68.27 68.27 0 0 0-.684-.207 2.958 2.958 0 0 1-2.072-2.291c-3.418-18.574-17.155-34.465-36.61-39.678-13.99-3.749-28.181-1.239-39.604 5.811a3.001 3.001 0 0 1-4.233-1.109c-7.535-13.878-20.53-24.757-36.988-29.167-20.752-5.561-41.879.537-56.434 14.276a2.965 2.965 0 0 1-3.587.359 45.34 45.34 0 0 0-12.002-5.158c-23.266-6.234-47.143 6.782-54.755 29.279a2.927 2.927 0 0 1-2.449 1.961c-21.328 2.324-40.054 17.412-45.941 39.381a53.29 53.29 0 0 0 1.592 32.663c.379 1.007.237 2.146-.449 2.975-4.839 5.85-8.344 12.984-9.891 21.077-4.353 22.766 8.961 45.588 30.922 52.999 15.845 5.347 32.277 1.782 44.225-7.75l.064.018c.724 16.09 10.697 28.089 27.083 32.48 4.993 1.338 11.027 4.079 15.849 3.434 3.845 6.368 10.611 9.723 18.363 11.8 9.749 2.612 19.102 1.67 26.301-4.343 4.537 3.784 10.576 4.926 16.658 6.556 14.698 3.938 29.017 1.316 39.274-8.474l.038.011a59.658 59.658 0 0 0 24.122 17.197c3.215 1.242 9.795.702 13.309 1.401 29.721 5.912 53.054-11.39 62.255-40.263 4.895-15.362 3.501-30.02-2.937-43.324-.614-1.271-.23-2.798.897-3.653z" fill="#df646e"/><path d="M426.586 205.51c6.44 13.3 8.02 29.04 3.13 44.4-9.2 28.87-39.01 46.49-68.74 40.58-3.51-.7-6.88-1.68-10.1-2.92 26.58 1.24 51.56-16.3 59.84-43.34 4.89-15.98 3.31-32.35-3.13-46.19-.62-1.32-.23-2.91.89-3.8 8.62-6.8 15.23-16.52 18.24-28.23 5.05-19.33-1.38-39.74-15.06-52.67 25.94 7.78 41.08 35.57 34.06 61.38-3.01 11.26-9.62 20.6-18.24 27.13-1.12.86-1.51 2.39-.89 3.66z" fill="#dc4955"/><path d="m278.279 262.309 18.627 82.308c1.055 5.388-3.902 10.018-9.206 8.597l-20.027-4.767a16.646 16.646 0 0 1-11.678-11.44l-4.764-6.302-20.193-69.321z" fill="#df646e"/><path d="m289.936 356.52-24.77-6.64a16.647 16.647 0 0 1-11.68-11.44l-2.24-7.74 25.44 6.82c3.58.96 6.92-2.16 6.2-5.79l-13.379-68.9 14.468 4.596 15.171 80.494c1.05 5.39-3.9 10.02-9.21 8.6z" fill="#dc4955"/><path d="M166.487 201.486a31.505 31.505 0 0 0 13.23 15.259c-1.119 21.069 12.763 40.761 33.623 46.35a45.187 45.187 0 0 0 13.095 1.538c4.951 6.248 11.75 10.735 19.553 12.825 9.762 2.615 20.111 1.125 28.689-3.952a49.117 49.117 0 0 0 14.192 6.317 49.656 49.656 0 0 0 12.879 1.702 49.487 49.487 0 0 0 33.649-13.222l.376-14.814c-7.093 15.168-26.825 16.184-43.022 11.845a34.226 34.226 0 0 1-13.159-6.819 7.498 7.498 0 0 0-9.611.003 22.384 22.384 0 0 1-20.109 4.452 22.22 22.22 0 0 1-13.327-10.029 7.504 7.504 0 0 0-7.414-3.557 30.305 30.305 0 0 1-11.906-.777c-15.27-4.092-24.959-19.457-22.058-34.982a7.5 7.5 0 0 0-4.913-8.463c-7.569-2.628-12.229-12.255-10.979-20.182z" fill="#dc4955"/><g><circle cx="288.407" cy="160.952" fill="#faf8f8" r="15"/></g><g><path d="M489.38 184.465c0-60.32-27.334-109.684-79.049-142.753C368.879 15.203 311.893 0 253.986 0c-48.001 0-92.755 13.007-126.018 36.624a7.5 7.5 0 1 0 8.685 12.23C167.4 27.023 209.07 15 253.986 15c55.119 0 109.16 14.342 148.264 39.349 47.188 30.176 72.13 75.169 72.13 130.116 0 68.101-8.952 96.001-68.215 149.634-17.039 15.42-15.071 50.545 6.015 107.383 1.269 3.421 1.039 7.081-.647 10.307-1.678 3.211-4.535 5.478-8.044 6.382l-24.365 6.28a7.501 7.501 0 0 0 3.743 14.526l24.365-6.28a27.68 27.68 0 0 0 17.594-13.958 27.755 27.755 0 0 0 1.417-22.473c-17.669-47.629-21.319-80.813-10.013-91.045 62.578-56.632 73.15-89.81 73.15-160.756zM345.211 473.192l-90.792 23.403c-6.11 1.58-12.503-1.639-14.873-7.478-8.895-21.908-29.718-73.22-82.691-66.039-3.716.503-7.421 1.023-11.073 1.536-18.059 2.538-36.73 5.161-45.134 3.785-17.798-2.914-27.568-10.285-30.747-23.198-2.042-8.198.488-14.178 3.966-19.827 3.92-7.008.65-15.288-4.627-18.94-3.53-2.444-7.465-4.033-10.333-4.976-.075-1.622.691-4.083 4.571-6.88a7.502 7.502 0 0 0 1.564-10.649c.051-.466-6.861-7.404-14.358-13.884 6.214-4.415 18.073-14.413 16.533-25.468-.644-4.625-3.821-10.879-15.294-14.408-12.56-3.862-14.3-8.72-14.311-13.394-.01-4.767 2.819-7.716 9.593-12.931 10.706-8.242 22.939-18.963 32.501-35.983 3.191-5.682 3.572-12.62 1.02-18.562-1.513-3.521-3.614-6.849-5.647-10.067-3.122-4.945-6.351-10.059-5.6-13.283.409-1.756 1.515-4.093 2.795-6.799 3.104-6.56 7.354-15.542 8.245-29.194 2.004-30.744 12.698-57.398 31.782-79.221a7.5 7.5 0 1 0-11.291-9.875c-21.305 24.362-33.235 54.01-35.459 88.119-.705 10.799-3.962 17.683-6.835 23.756-1.58 3.339-3.072 6.493-3.845 9.812-2.173 9.332 2.98 17.493 7.526 24.693 1.801 2.853 3.503 5.548 4.549 7.981.721 1.679.603 3.657-.316 5.293-6.642 11.822-14.92 20.933-28.574 31.444-6.161 4.743-15.471 11.91-15.443 24.85.03 13.307 8.408 22.626 24.902 27.698 3.201.984 4.432 1.943 4.812 2.31-.46 2.51-6.239 8.38-12.037 12.162a7.515 7.515 0 0 0-2.08 2.015c-3.333 4.799-4.964 14.592 4.203 21.901a93.575 93.575 0 0 1 6.15 5.339c-6.772 8.718-5.025 18.409-1.437 23.667a7.565 7.565 0 0 0 4.607 3.103c1.405.309 5.641 1.547 8.733 3.603-3.257 5.709-8.654 15.283-5.129 30.181 4.663 18.941 19.093 30.521 42.89 34.416 10.651 1.743 28.722-.795 49.643-3.733 3.628-.51 7.31-1.026 11.001-1.527 36.408-4.924 53.614 24.392 66.778 56.818 4.298 10.588 14.64 17.231 25.662 17.23 2.271 0 4.573-.282 6.854-.87l90.792-23.403a7.501 7.501 0 0 0-3.746-14.526z"/><path d="M452.963 176.66c7.893-29.46-8.469-59.806-36.818-69.746a57.98 57.98 0 0 0-41.486-42.871c-14.043-3.763-28.771-2.128-41.504 4.423a67.056 67.056 0 0 0-39.321-28.888c-21.431-5.742-44.276-.455-60.997 13.8a52.803 52.803 0 0 0-11.026-4.322c-13.438-3.6-27.515-1.825-39.637 4.997-10.614 5.976-18.7 15.237-23.163 26.407-23.683 3.705-43.247 21.071-49.53 44.52-3.112 11.616-2.765 23.578.975 34.869-4.134 5.509-7.135 11.694-8.943 18.441-2.786 10.397-2.439 21.262 1 31.419 1.329 3.924 5.588 6.03 9.509 4.698a7.5 7.5 0 0 0 4.698-9.509c-2.486-7.342-2.734-15.2-.719-22.726 1.6-5.968 4.486-11.324 8.581-15.922a7.502 7.502 0 0 0 1.327-7.862c-3.916-9.438-4.586-19.648-1.939-29.526 5.069-18.917 21.597-32.586 41.127-34.014a7.5 7.5 0 0 0 6.649-5.368c5.749-19.584 26.469-31.215 46.182-25.937a37.863 37.863 0 0 1 11.639 5.356 7.499 7.499 0 0 0 9.598-.934c13.174-13.438 32.633-18.762 50.786-13.9 14.804 3.967 27.065 14.196 33.64 28.064a7.5 7.5 0 0 0 11.121 2.9c10.497-7.459 23.643-9.827 36.064-6.5a42.998 42.998 0 0 1 31.43 35.327 7.499 7.499 0 0 0 5.562 6.178l.356.086c22.87 6.162 36.482 29.77 30.35 52.655a42.987 42.987 0 0 1-17.247 24.34 7.5 7.5 0 0 0-2.377 9.731c6.321 11.802 7.893 25.425 4.427 38.358-7.492 27.96-36.334 44.609-64.295 37.121-8.307-2.226-15.815-6.38-22.03-12.134a49.696 49.696 0 0 0 5.58-9.194 7.5 7.5 0 0 0-13.588-6.354c-7.093 15.168-23.999 23.028-40.194 18.688a34.226 34.226 0 0 1-13.159-6.819 7.498 7.498 0 0 0-9.611.003 22.385 22.385 0 0 1-20.109 4.452 22.22 22.22 0 0 1-13.327-10.029 7.503 7.503 0 0 0-7.414-3.557 30.324 30.324 0 0 1-11.906-.777c-15.27-4.092-24.959-19.457-22.058-34.982a7.5 7.5 0 0 0-4.913-8.463c-7.569-2.628-12.155-10.289-10.905-18.217.824-5.228 3.989-9.639 8.685-12.102a7.5 7.5 0 0 0-6.97-13.283c-8.805 4.621-14.985 13.237-16.532 23.049a31.533 31.533 0 0 0 15.188 32.137c-.005.087-.004.174-.008.262-9.408 6.299-20.861 8.235-31.932 5.271a39.655 39.655 0 0 1-8.103-3.156 7.499 7.499 0 0 0-10.124 3.164 7.499 7.499 0 0 0 3.165 10.123 54.553 54.553 0 0 0 11.178 4.357 53.916 53.916 0 0 0 13.95 1.831 54.717 54.717 0 0 0 24.024-5.569c4.621 14.263 16.162 25.965 31.472 30.066a45.29 45.29 0 0 0 13.095 1.538 37.102 37.102 0 0 0 5.853 5.871l17.994 62.023c2.34 8.063 8.831 14.422 16.94 16.595l24.776 6.639a14.838 14.838 0 0 0 14.047-3.507 14.833 14.833 0 0 0 4.459-13.774l-6.001-30.636c2.571.779 4.996 1.262 9.839 1.579a47.428 47.428 0 0 0 24.734 16.142 47.362 47.362 0 0 0 12.282 1.624c20.969-.002 40.212-14.015 45.891-35.21.393-1.466.708-2.952.96-4.446 20.626-7.019 37.507-23.863 43.557-46.441 3.9-14.556 2.837-29.792-2.938-43.541a57.998 57.998 0 0 0 18.134-28.888zM267.104 342.633a9.197 9.197 0 0 1-6.417-6.286l-14.515-50.031a37.404 37.404 0 0 0 24.504-4.81 48.81 48.81 0 0 0 8.698 4.5l12.385 63.233zm71.855-23.559a32.458 32.458 0 0 1-18.655-13.42 7.517 7.517 0 0 0-6.95-3.322c-2.676.253-5.36.022-7.978-.679a22.708 22.708 0 0 1-8.51-4.377l-1.533-7.829c.805.039 1.611.078 2.413.078a49.471 49.471 0 0 0 28.347-8.948c8.124 7.732 18.025 13.297 29.006 16.239a67.313 67.313 0 0 0 17.454 2.308c1.779 0 3.549-.076 5.307-.216-5.726 15.59-22.553 24.55-38.901 20.166z"/><path d="M300.137 141.751c-10.588-6.468-24.463-3.115-30.93 7.471-3.133 5.129-4.082 11.171-2.671 17.013s5.013 10.785 10.141 13.918a22.356 22.356 0 0 0 17.012 2.671 22.347 22.347 0 0 0 13.918-10.141c6.469-10.587 3.118-24.463-7.47-30.932zm-5.329 23.111a7.447 7.447 0 0 1-4.639 3.38 7.436 7.436 0 0 1-5.671-.891 7.448 7.448 0 0 1-3.38-4.639 7.45 7.45 0 0 1 .89-5.671 7.504 7.504 0 0 1 10.31-2.49c3.528 2.157 4.645 6.782 2.49 10.311z"/><path d="M285.869 108.794a52.476 52.476 0 0 0-42.442 25.081c-8.814 14.429-10.127 32.344-3.512 47.924a7.502 7.502 0 0 0 6.907 4.571c.978 0 1.971-.192 2.928-.599a7.498 7.498 0 0 0 3.972-9.834c-4.727-11.135-3.791-23.936 2.505-34.242a37.494 37.494 0 0 1 30.327-17.917 7.499 7.499 0 0 0 7.149-7.835 7.498 7.498 0 0 0-7.834-7.149zM291.576 198.599a7.499 7.499 0 0 0-6.792 8.146 7.5 7.5 0 0 0 8.146 6.793c16.488-1.494 31.478-10.811 40.1-24.922 8.945-14.643 10.164-32.776 3.26-48.507a7.501 7.501 0 0 0-13.736 6.028 37.566 37.566 0 0 1-2.325 34.659c-6.25 10.23-16.694 16.72-28.653 17.803z"/><path d="M284.532 78.809c-27.454 1.256-52.388 15.99-66.698 39.413-13.851 22.674-15.914 50.828-5.518 75.313a7.503 7.503 0 0 0 6.907 4.57c.978 0 1.971-.192 2.928-.599a7.5 7.5 0 0 0 3.972-9.835c-8.508-20.039-6.822-43.078 4.511-61.63 11.709-19.165 32.114-31.221 54.583-32.249a7.499 7.499 0 0 0 7.149-7.835c-.188-4.138-3.708-7.317-7.834-7.148zM362.276 175.47a7.5 7.5 0 0 0 8.141-6.799c1.244-13.842-1.058-27.9-6.656-40.655a7.501 7.501 0 0 0-13.736 6.028 67.932 67.932 0 0 1 5.452 33.286 7.5 7.5 0 0 0 6.799 8.14zM345.399 197.13c-11.293 17.995-29.93 29.417-51.132 31.337a7.499 7.499 0 0 0-6.792 8.146 7.5 7.5 0 0 0 8.145 6.793c25.905-2.347 48.68-16.308 62.484-38.304a7.5 7.5 0 1 0-12.705-7.972z"/></g></svg>