<svg id="Capa_1" enable-background="new 0 0 512 512" height="512" viewBox="0 0 512 512" width="512" xmlns="http://www.w3.org/2000/svg"><g><g><path d="m229.929 342.5v45c0 2.761 2.239 5 5 5h50c44.183 0 80 35.817 80 80v12c0 11.046-8.954 20-20 20h-317c-11.046 0-20-8.954-20-20v-12c0-44.183 35.817-80 80-80h50c2.761 0 5-2.239 5-5v-45z" fill="#fbbd80"/><path d="m364.93 472.5v12c0 11.05-8.96 20-20 20h-30c11.04 0 20-8.95 20-20v-12c0-44.18-35.82-80-80-80h30c44.18 0 80 35.82 80 80z" fill="#f4aa73"/><path d="m293.929 198.5h26.5c16.845 0 30.5 13.655 30.5 30.5 0 16.845-13.655 30.5-30.5 30.5h-26.5z" fill="#fbbd80"/><path d="m88.929 259.5h-36.5c-16.845 0-30.5-13.655-30.5-30.5 0-16.845 13.655-30.5 30.5-30.5h36.5z" fill="#fbbd80"/><path d="m303.929 138.5v101.5c0 64.893-52.606 117.5-117.5 117.5-64.893 0-117.5-52.606-117.5-117.5v-101.5s235-1.978 235 0z" fill="#ffd18d"/><path d="m303.93 138.5v101.5c0 64.89-52.61 117.5-117.5 117.5-5.08 0-10.09-.32-15-.94 57.8-7.37 102.5-56.75 102.5-116.56v-101.5c0-.55-18.22-.8-44.51-.86 41.38-.07 74.51.12 74.51.86z" fill="#fbbd80"/><path d="m73.929 409.5c0 6.9-2.8 13.16-7.32 17.68s-10.78 7.32-17.68 7.32c-9.67 0-18.05-5.48-22.2-13.51 10.79-12.82 25.54-22.2 42.37-26.25 3.04 4.13 4.83 9.24 4.83 14.76z" fill="#ff8d95"/><path d="m225.929 45.535v-28.035c0-5.523-4.477-10-10-10h-10c-11.046 0-20 8.954-20 20l-10 18.188z" fill="#514751"/><path d="m145.929 46.299v-28.799c0-5.523 4.477-10 10-10h10c11.046 0 20 8.954 20 20v17.36z" fill="#615260"/><path d="m333.93 142.5v59.15c-4.07-2.02-8.65-3.15-13.5-3.15h-16.5v30.5h-10c-11.05 0-20-8.95-20-20v-6c0-8.28-6.72-15-15-15h-27.35c-6.13 0-11.64-3.74-13.92-9.43l-2.46-6.14c-2.28-5.7-7.79-9.43-13.93-9.43h-29.69c-6.13 0-11.64 3.73-13.92 9.43l-2.46 6.14c-2.28 5.69-7.79 9.43-13.93 9.43h-27.34c-8.28 0-15 6.72-15 15v6c0 7.4-4.02 13.86-10 17.31-2.94 1.71-6.36 2.69-10 2.69h-10v-30.5h-16.5c-4.85 0-9.43 1.13-13.5 3.15v-59.15c0-57.99 47.01-105 105-105h85c57.99 0 105 47.01 105 105z" fill="#736572"/><path d="m333.93 142.5v59.15c-4.07-2.02-8.65-3.15-13.5-3.15h-16.5v-56c0-57.99-47.01-105-105-105h30c57.99 0 105 47.01 105 105z" fill="#615260"/><path d="m308.778 467.017 48.269-11.773c6.942-1.693 14.23-1.558 21.05.575 9.15 2.862 18.881 4.406 28.974 4.406 53.572 0 97-43.428 97-97 0-53.572-43.428-97-97-97-53.572 0-97 43.428-97 97 0 9.757 1.443 19.177 4.125 28.06 2.033 6.733 2.147 13.899.481 20.731l-11.941 48.959c-.889 3.642 2.399 6.93 6.042 6.042z" fill="#baf39a"/><path d="m504.07 363.22c0 26.79-10.86 51.04-28.41 68.59-17.56 17.55-41.8 28.41-68.59 28.41-5.1 0-10.12-.39-15.01-1.16 20.79-3.22 39.38-13.04 53.6-27.25 17.55-17.55 28.41-41.8 28.41-68.59 0-26.78-10.86-51.04-28.41-68.59-14.21-14.21-32.81-24.03-53.59-27.25 4.89-.77 9.9-1.16 15-1.16 26.79 0 51.03 10.86 68.59 28.41 17.55 17.55 28.41 41.81 28.41 68.59z" fill="#9ae59c"/><path d="m407.042 330.683c23.902 0 32.5 14.551 32.5 32.5 0 17.949-8.667 32.5-32.5 32.5-23.833 0-32.5-14.551-32.5-32.5 0-17.949 8.667-32.5 32.5-32.5z" fill="#fcf1f2"/><g fill="#ff8d95"><path d="m239.929 452.5c-8.284 0-15-6.716-15-15 0-8.284 6.716-15 15-15 8.284 0 15 6.716 15 15 0 8.284-6.716 15-15 15z"/><path d="m239.929 504.5h-60c0-8.28 3.36-15.78 8.79-21.21s12.93-8.79 21.21-8.79 15.78 3.36 21.21 8.79 8.79 12.93 8.79 21.21z"/><path d="m270.429 482c-5.514 0-10-4.486-10-10s4.486-10 10-10 10 4.486 10 10-4.486 10-10 10z"/><path d="m100.929 474.5c-8.284 0-15-6.716-15-15 0-8.284 6.716-15 15-15 8.284 0 15 6.716 15 15 0 8.284-6.716 15-15 15z"/></g></g><g><path d="m223.008 304.533c2.137 0 4.259-.908 5.743-2.671 2.667-3.169 2.259-7.9-.91-10.567-24.496-20.611-58.564-20.6-82.849.022-3.157 2.682-3.543 7.415-.862 10.572 2.682 3.157 7.416 3.544 10.572.862 18.593-15.792 44.697-15.782 63.481.022 1.407 1.183 3.12 1.761 4.825 1.76z"/><path d="m243.929 251.5c4.142 0 7.5-3.358 7.5-7.5v-15c0-4.142-3.358-7.5-7.5-7.5s-7.5 3.358-7.5 7.5v15c0 4.142 3.358 7.5 7.5 7.5z"/><path d="m128.929 221.5c-4.142 0-7.5 3.358-7.5 7.5v15c0 4.142 3.358 7.5 7.5 7.5s7.5-3.358 7.5-7.5v-15c0-4.142-3.358-7.5-7.5-7.5z"/><path d="m459.898 273.043c-3.573-2.098-8.167-.901-10.265 2.672-2.097 3.572-.9 8.167 2.672 10.265 27.304 16.026 44.265 45.625 44.265 77.246 0 49.35-40.149 89.5-89.5 89.5-9.119 0-18.114-1.367-26.735-4.064-8.011-2.506-16.678-2.748-25.066-.703l-44.273 10.798 10.967-44.963c2.006-8.225 1.803-16.758-.587-24.676-2.525-8.363-3.805-17.075-3.805-25.893 0-49.351 40.149-89.5 89.5-89.5 4.995 0 10.003.414 14.885 1.231 4.086.684 7.952-2.074 8.635-6.159.684-4.085-2.074-7.951-6.159-8.635-5.698-.954-11.539-1.437-17.361-1.437-57.622 0-104.5 46.879-104.5 104.5 0 8.188.964 16.298 2.837 24.195-6.67-1.601-13.52-2.421-20.479-2.421h-47.5v-30.886c35.619-15.982 62.445-48.164 71.054-87.114h11.946c20.953 0 38-17.047 38-38 0-13.194-6.762-24.835-17-31.65v-54.849c0-60.525-48.046-110.031-108-112.402v-12.598c0-9.649-7.851-17.5-17.5-17.5h-10c-7.875 0-14.982 3.332-20 8.655-5.018-5.323-12.125-8.655-20-8.655h-10c-9.649 0-17.5 7.851-17.5 17.5v12.636c-59.488 2.878-107 52.175-107 112.364 0 4.142 3.358 7.5 7.5 7.5s7.5-3.358 7.5-7.5c0-53.762 43.738-97.5 97.5-97.5h85c53.762 0 97.5 43.738 97.5 97.5v48.978c-1.955-.312-3.958-.478-6-.478h-16.5c-4.142 0-7.5 3.358-7.5 7.5v23h-2.5c-3.339 0-6.478-1.3-8.839-3.661s-3.661-5.5-3.661-8.839v-6c0-6.01-2.34-11.661-6.59-15.911s-9.9-6.59-15.91-6.59h-27.344c-3.084 0-5.818-1.851-6.963-4.715l-2.457-6.141c-3.437-8.592-11.636-14.144-20.89-14.144h-29.689c-9.254 0-17.454 5.552-20.89 14.144l-2.458 6.143c-1.145 2.864-3.878 4.714-6.963 4.714h-27.345c-12.406 0-22.5 10.093-22.5 22.499v6.002c0 6.892-5.607 12.499-12.5 12.499h-2.5v-23c0-4.142-3.358-7.5-7.5-7.5h-16.5c-2.042 0-4.045.167-6 .478v-13.978c0-4.142-3.358-7.5-7.5-7.5s-7.5 3.358-7.5 7.5v19.85c-10.237 6.815-17 18.456-17 31.65 0 20.953 17.047 38 38 38h11.946c8.61 38.95 35.435 71.132 71.054 87.114v30.886h-47.5c-48.248 0-87.5 39.252-87.5 87.5v12c0 15.164 12.336 27.5 27.5 27.5h317c15.164 0 27.5-12.336 27.5-27.5v-12c0-3.508-.231-7.016-.647-10.491 1.381.23 2.743.551 4.075.968 10.072 3.15 20.574 4.748 31.213 4.748 57.622 0 104.5-46.878 104.5-104.5 0-36.918-19.8-71.474-51.673-90.182zm-253.969-258.043h10c1.378 0 2.5 1.122 2.5 2.5v12.5h-25v-2.5c0-6.893 5.608-12.5 12.5-12.5zm-50 0h10c6.893 0 12.5 5.607 12.5 12.5v2.5h-25v-12.5c0-1.378 1.122-2.5 2.5-2.5zm187.5 214c0 12.682-10.318 23-23 23h-9.579c.378-3.951.579-7.952.579-12v-3.5h9.5c4.142 0 7.5-3.358 7.5-7.5s-3.358-7.5-7.5-7.5h-9.5v-15.5h9c12.682 0 23 10.318 23 23zm-291 23c-12.682 0-23-10.318-23-23s10.318-23 23-23h9v15.5h-9.5c-4.142 0-7.5 3.358-7.5 7.5s3.358 7.5 7.5 7.5h9.5v3.5c0 4.048.201 8.049.579 12zm24-12v-3.5h2.5c15.164 0 27.5-12.336 27.5-27.499v-6.002c0-4.135 3.364-7.5 7.5-7.5h27.345c9.254-.001 17.454-5.553 20.89-14.144l2.458-6.143c1.146-2.864 3.878-4.714 6.963-4.714h29.689c3.084 0 5.817 1.851 6.963 4.715l2.457 6.141c3.437 8.592 11.637 14.144 20.891 14.144h27.344c4.032-.083 7.584 3.469 7.5 7.5v6c0 7.346 2.86 14.252 8.054 19.446s12.1 8.055 19.446 8.055h2.5v3.5c0 60.654-49.346 110-110 110s-110-49.345-110-109.999zm-11.028 163.602c.672 1.876 1.028 3.865 1.028 5.898 0 4.677-1.819 9.073-5.123 12.376-3.304 3.304-7.7 5.124-12.377 5.124-4.865 0-9.354-1.956-12.605-5.359 8.029-8.146 17.965-14.397 29.077-18.039zm123.333 93.398c1.104-3.122 2.876-5.994 5.289-8.407 4.252-4.252 9.901-6.593 15.907-6.593s11.655 2.341 15.907 6.594c2.413 2.412 4.185 5.284 5.289 8.406zm168.695-12.5c0 6.893-5.607 12.5-12.5 12.5h-98.249c-1.446-7.154-4.956-13.732-10.237-19.013-7.084-7.085-16.5-10.987-26.514-10.987-10.012 0-19.428 3.902-26.513 10.986-5.282 5.281-8.792 11.859-10.237 19.014h-145.25c-6.893 0-12.5-5.607-12.5-12.5v-12c0-14.4 4.237-27.821 11.505-39.115 5.929 5.438 13.776 8.615 21.995 8.615 8.684 0 16.846-3.38 22.983-9.517s9.517-14.299 9.517-22.983c0-3.101-.445-6.15-1.295-9.075 2.562-.275 5.161-.425 7.795-.425h50c6.893 0 12.5-5.607 12.5-12.5v-27.792c11.406 3.436 23.489 5.292 36 5.292s24.594-1.856 36-5.292v27.792c0 6.893 5.607 12.5 12.5 12.5h50c8.024 0 15.871 1.303 23.371 3.858-.092 2.13-.396 4.268-.911 6.381l-11.941 48.959c-1.042 4.276.193 8.688 3.306 11.8 2.385 2.385 5.533 3.668 8.799 3.668.996 0 2.002-.119 3.002-.363l46.25-11.28c.408 3.132.625 6.305.625 9.477v12z"/><path d="m455.866 325.028c2.929-2.929 2.929-7.678 0-10.606-2.929-2.929-7.678-2.929-10.606 0l-14.723 14.724c-4.505-2.783-9.859-4.624-15.966-5.443v-11.993c0-4.142-3.358-7.5-7.5-7.5s-7.5 3.358-7.5 7.5v11.993c-6.106.819-11.461 2.66-15.966 5.443l-14.724-14.724c-2.929-2.929-7.678-2.929-10.606 0-2.929 2.929-2.929 7.678 0 10.606l14.726 14.726c-2.781 4.505-4.621 9.859-5.438 15.964h-11.999c-4.142 0-7.5 3.358-7.5 7.5s3.358 7.5 7.5 7.5h12.002c.819 6.103 2.66 11.455 5.442 15.958l-14.731 14.731c-2.929 2.929-2.929 7.678 0 10.606 2.929 2.929 7.678 2.929 10.606 0l14.733-14.733c4.503 2.78 9.854 4.619 15.956 5.437v12.008c0 4.142 3.358 7.5 7.5 7.5s7.5-3.358 7.5-7.5v-12.008c6.102-.818 11.453-2.658 15.956-5.437l14.733 14.733c2.929 2.929 7.678 2.929 10.606 0 2.929-2.929 2.929-7.678 0-10.606l-14.731-14.731c2.782-4.503 4.623-9.855 5.442-15.958h12.001c4.142 0 7.5-3.358 7.5-7.5s-3.358-7.5-7.5-7.5h-11.999c-.818-6.105-2.658-11.459-5.438-15.964zm-48.795 63.181c-16.79 0-24.965-8.149-24.997-24.906 0-.029.004-.057.004-.086 0-.031-.004-.061-.005-.092.028-16.7 8.148-24.848 24.812-24.91.062.002.122.009.185.009s.123-.008.185-.009c16.693.062 24.815 8.236 24.815 24.994.001 16.823-8.177 25-24.999 25z"/><path d="m407.071 353.225c-5.514 0-10 4.486-10 10s4.486 10 10 10 10-4.486 10-10-4.486-10-10-10z"/><path d="m239.929 415c-12.407 0-22.5 10.093-22.5 22.5s10.093 22.5 22.5 22.5 22.5-10.093 22.5-22.5-10.093-22.5-22.5-22.5zm0 30c-4.136 0-7.5-3.364-7.5-7.5s3.364-7.5 7.5-7.5 7.5 3.364 7.5 7.5-3.364 7.5-7.5 7.5z"/><path d="m270.429 462c-5.514 0-10 4.486-10 10s4.486 10 10 10 10-4.486 10-10-4.486-10-10-10z"/><path d="m100.929 437c-12.407 0-22.5 10.093-22.5 22.5s10.093 22.5 22.5 22.5 22.5-10.093 22.5-22.5-10.093-22.5-22.5-22.5zm0 30c-4.136 0-7.5-3.364-7.5-7.5s3.364-7.5 7.5-7.5 7.5 3.364 7.5 7.5-3.364 7.5-7.5 7.5z"/></g></g></svg>