<svg id="Capa_1" enable-background="new 0 0 512 512" height="512" viewBox="0 0 512 512" width="512" xmlns="http://www.w3.org/2000/svg"><g><g><path d="m440.233 326.13c-.163-4.946-.17-9.897-.17-14.846v-232.714c0-4.45-3.097-8.301-7.439-9.272-95.376-21.331-149.745-48.838-168.799-59.737-4.851-2.775-10.8-2.775-15.65 0-19.054 10.899-73.423 38.406-168.798 59.737-4.343.971-7.439 4.822-7.439 9.272v232.714c0 4.949-.007 9.899-.17 14.846-.58 17.53 14.583 157.564 184.232 178.375 169.649-20.811 184.812-160.845 184.233-178.375z" fill="#91deb6"/></g><g><path d="m312.214 491.732c98.677-45.521 108.9-143.249 108.421-157.699-.16-4.947-.17-9.894-.17-14.851v-232.711c0-4.447-3.098-8.295-7.435-9.274-95.379-21.327-149.745-48.839-168.802-59.732-2.129-1.219-4.477-1.899-6.856-2.049 4.387-2.269 7.985-4.247 10.803-5.856 4.847-2.768 10.803-2.768 15.65 0 19.058 10.903 73.423 38.406 168.802 59.742 4.337.969 7.435 4.817 7.435 9.264v232.721c0 4.947.01 9.894.17 14.84.51 15.361-11.063 124.741-128.018 165.605z" fill="#6ed5a1"/></g><g><path d="m407.52 307.929c-.134-4.068-.14-8.139-.14-12.21v-191.392c0-3.66-2.547-6.827-6.118-7.626-78.44-17.544-123.156-40.167-138.826-49.13-3.989-2.282-8.882-2.282-12.871 0-15.67 8.963-60.386 31.586-138.826 49.13-3.571.799-6.118 3.966-6.118 7.626v191.393c0 4.07-.006 8.142-.14 12.21-.476 14.417 11.994 141.079 151.52 158.195 139.525-17.116 151.995-143.779 151.519-158.196z" fill="#f9f3f1"/></g><g><path d="m336.169 437.876c46.121-44.432 51.687-105.253 51.367-115.057-.14-4.137-.15-8.275-.15-12.412v-194.605c0-3.718-2.588-6.946-6.216-7.755-79.759-17.839-125.22-40.834-141.16-49.948-2.259-1.299-4.797-1.869-7.315-1.719 7.425-3.578 13.022-6.596 16.869-8.804 3.987-2.289 8.884-2.289 12.872 0 15.67 8.964 60.381 31.58 138.821 49.129 3.578.799 6.126 3.968 6.126 7.625v191.388c0 4.077 0 8.145.14 12.212.36 10.952-6.755 86.674-71.354 129.946z" fill="#f3eae6"/></g><g><g><g><path d="m333.18 386.098c-3.156 0-6.351-.818-9.266-2.538l-20.447-12.068c-17.019-10.105-32.864-21.137-47.465-33.035-14.594 11.893-30.426 22.917-47.426 33.011l-20.489 12.092c-8.687 5.128-19.885 2.241-25.013-6.446-5.127-8.687-2.241-19.886 6.446-25.013l20.447-12.068c13.747-8.162 26.631-16.978 38.609-26.41-9.798-9.876-18.861-20.231-27.156-31.037-11.212-14.606-19.397-27.003-25.758-39.013-9.237-17.439-14.137-33.225-14.98-48.26-1.444-25.763 8.303-51.035 26.74-69.334 8.914-8.848 19.798-15.926 31.475-20.471 20.824-8.105 45.37-8.966 67.345-2.362 12.088 3.633 23.57 9.895 33.204 18.111 19.835 16.913 31.498 41.4 31.998 67.184.044 2.272.002 4.584-.126 6.87-1.854 33.075-24.138 65.649-40.738 87.274-8.295 10.806-17.358 21.161-27.155 31.036 11.986 9.437 24.885 18.262 38.649 26.435l20.406 12.044c8.687 5.127 11.573 16.326 6.446 25.013-3.406 5.774-9.496 8.984-15.746 8.985zm-77.252-250.809c-8.283 0-16.505 1.43-23.781 4.262-7.041 2.74-13.608 7.013-18.991 12.356-11.029 10.946-16.861 26.022-16.001 41.363 1.288 22.983 19.589 49.287 33.242 67.074 7.77 10.122 16.316 19.813 25.604 29.045 9.287-9.231 17.834-18.923 25.604-29.045 13.653-17.786 31.954-44.091 33.242-67.074.077-1.372.102-2.758.076-4.118-.294-15.12-7.463-30.109-19.177-40.098-5.815-4.958-12.737-8.736-20.017-10.924-6.321-1.899-13.081-2.841-19.801-2.841z" fill="#fd8087"/></g></g><g><g><path d="m241.82 326.077c-14.597 11.894-29.445 22.097-46.441 32.193l-20.486 12.091c-4.332 2.551-9.281 3.124-13.792 1.978.412 1.638 1.065 3.249 1.969 4.779 5.128 8.681 16.334 11.572 25.015 6.444l20.486-12.091c17.005-10.095 32.837-21.122 47.434-33.016-5.128-3.759-9.478-8.216-14.185-12.378zm109.627-137.631c-.501-25.785-12.163-50.272-32.005-67.187-.51-.439-1.029-.868-1.557-1.298 12.7 15.609 19.967 35.048 20.361 55.283.045 2.273 0 4.582-.125 6.873-1.853 33.07-24.138 65.647-40.74 87.27-8.297 10.803-18.562 22.258-28.362 32.13.913.716 1.727 1.548 2.587 2.309 2.667 2.363 5.397 4.708 8.153 6.972 1.199.976 2.309 1.969 3.669 2.819 9.791-9.872 18.857-20.227 27.154-31.029 16.602-21.632 38.878-54.201 40.74-87.279.125-2.281.17-4.599.125-6.863z" fill="#fe646f"/></g></g><g><path d="m312.016 172.05-.023.918c-3.162-9.163-8.79-17.551-16.248-23.916-5.816-4.954-12.736-8.735-20.014-10.92-6.325-1.902-13.083-2.844-19.806-2.844-8.279 0-16.505 1.434-23.778 4.267-7.041 2.74-13.609 7.012-18.991 12.354-6.035 5.989-10.52 13.221-13.197 21.054-.012-33.386 10.312-55.018 19.562-67.69 20.691-7.885 44.965-8.666 66.72-2.127 2.099.63 4.185 1.341 6.244 2.133 9.243 12.676 19.542 33.391 19.531 66.771z" fill="#fe646f"/></g><g><path d="m447.724 325.883c-.166-5.03-.166-10.336-.166-14.598v-232.715c0-8.015-5.469-14.836-13.299-16.587-94.393-21.111-148.032-48.242-166.713-58.927-7.123-4.074-15.972-4.074-23.093 0-18.68 10.685-72.32 37.816-166.713 58.928-7.83 1.751-13.299 8.572-13.299 16.587v232.714c0 4.263 0 9.568-.166 14.598-.368 11.14 4.248 51.986 29.42 92.182 14.798 23.631 34.244 43.33 57.798 58.55 28.673 18.528 63.527 30.415 103.594 35.33.303.036.609.055.913.055s.61-.019.913-.056c40.067-4.915 74.921-16.802 103.594-35.33 23.554-15.22 43-34.919 57.798-58.55 25.171-40.196 29.787-81.042 29.419-92.181zm-42.124 84.225c-13.624 21.756-31.532 39.896-53.229 53.916-26.539 17.149-58.958 28.225-96.371 32.928-37.413-4.703-69.832-15.779-96.371-32.928-21.696-14.02-39.604-32.16-53.229-53.916-23.588-37.666-27.409-75.627-27.142-83.731.161-4.88.174-9.722.174-15.093v-232.714c0-.93.665-1.753 1.58-1.957 96.386-21.557 151.613-49.522 170.884-60.545 1.266-.724 2.685-1.086 4.104-1.086s2.838.362 4.104 1.086c19.271 11.023 74.498 38.988 170.884 60.545.916.204 1.58 1.028 1.58 1.957v232.714c0 5.37.013 10.212.174 15.093.267 8.104-3.555 46.066-27.142 83.731z"/><path d="m414.875 295.72v-191.393c0-7.219-4.926-13.362-11.978-14.94-16.767-3.75-33.077-7.989-48.478-12.598-3.967-1.187-8.142 1.066-9.33 5.032-1.187 3.966 1.067 8.143 5.032 9.329 15.738 4.71 32.393 9.039 49.503 12.866.15.033.26.164.26.311v191.393c0 4.424.011 8.416.143 12.457.012.335-.266 35.888-22.263 74.098-25.084 43.572-66.05 69.238-121.765 76.296-55.715-7.058-96.681-32.724-121.765-76.296-21.997-38.21-22.275-73.763-22.263-74.099.133-4.041.143-8.032.143-12.456v-191.393c0-.147.109-.278.259-.311 79.445-17.769 125.009-40.843 140.912-49.938 1.674-.958 3.752-.958 5.428 0 8.754 5.008 27.909 15.039 57.837 25.966 3.893 1.42 8.192-.582 9.611-4.47 1.42-3.889-.582-8.192-4.47-9.611-28.888-10.547-47.194-20.126-55.536-24.897-6.265-3.583-14.049-3.584-20.313 0-15.312 8.758-59.288 30.998-136.742 48.322-7.051 1.577-11.977 7.721-11.977 14.939v191.393c0 4.29-.01 8.15-.136 11.962-.013.378-.151 39.678 24.254 82.072 12.26 21.294 28.363 38.994 47.862 52.604 23.824 16.63 52.752 27.129 85.982 31.205.303.037.608.056.913.056.304 0 .61-.019.913-.056 33.23-4.076 62.158-14.575 85.982-31.205 19.499-13.611 35.602-31.31 47.862-52.604 24.405-42.394 24.267-81.694 24.254-82.071-.124-3.813-.134-7.674-.134-11.963z"/><path d="m358.939 188.296c-.543-27.926-13.165-54.439-34.63-72.742-10.419-8.885-22.837-15.657-35.911-19.585-23.543-7.075-49.866-6.145-72.219 2.555-12.629 4.914-24.398 12.569-34.038 22.136-19.958 19.809-30.508 47.172-28.943 75.073.904 16.136 6.085 32.933 15.84 51.347 1.797 3.394 3.764 6.867 5.847 10.323 2.137 3.546 6.744 4.687 10.289 2.55s4.687-6.743 2.55-10.289c-1.941-3.22-3.771-6.449-5.439-9.601-8.721-16.464-13.339-31.239-14.12-45.171-1.324-23.625 7.618-46.804 24.536-63.595 2.564-2.545 5.323-4.908 8.208-7.113-4.75 12.331-8.287 28.036-8.426 47.547-2.244 7.031-3.233 14.463-2.813 21.956 1.404 25.053 20.522 52.644 34.78 71.218 19.183 24.99 42.461 46.487 68.052 64.821 14.759 10.574 30.523 19.593 46.169 28.828 9.223 5.443 5.2 20.048-5.492 20.047-1.909 0-3.795-.518-5.456-1.498l-20.43-12.058c-17.231-10.232-34.019-21.703-49.368-34.586-13.436-11.278-26.098-23.547-37.625-36.692-4.48-5.109-8.758-10.378-12.929-15.741l-.583-.762c-2.51-3.291-7.213-3.924-10.505-1.413-3.291 2.51-3.924 7.214-1.413 10.505l.606.792c6.759 8.803 14.093 17.401 21.87 25.642-9.824 7.34-20.287 14.314-31.186 20.786l-20.449 12.068c-5.925 3.497-10.134 9.093-11.851 15.756-3.505 13.602 4.819 27.846 18.517 31.374 6.686 1.722 13.488.8 19.521-2.761 0 0 20.505-12.103 20.505-12.103 15.416-9.153 30.057-19.179 43.599-29.851 13.547 10.675 28.203 20.71 43.656 29.885l20.447 12.068c3.967 2.341 8.489 3.579 13.077 3.579 9.084-.001 17.59-4.857 22.201-12.67 3.498-5.926 4.478-12.859 2.761-19.521-1.717-6.663-5.926-12.259-11.852-15.756l-20.389-12.033c-10.932-6.492-21.411-13.476-31.243-20.821 7.779-8.244 15.113-16.842 21.868-25.641 21.579-28.111 43.122-62.275 42.411-98.853zm-154.174 176.717-20.489 12.093c-2.476 1.462-5.375 1.872-8.16 1.155-5.927-1.527-9.26-7.224-7.742-13.117.717-2.785 2.477-5.125 4.954-6.586l20.466-12.078c12.007-7.129 23.495-14.843 34.242-22.976 4.154 3.962 10.408 9.842 16.056 14.821-12.29 9.502-25.477 18.465-39.327 26.688zm19.511-253.486c3.686-1.301 7.481-2.362 11.315-3.176 15.995-3.396 32.838-2.728 48.493 1.974 1.222.367 2.435.776 3.642 1.201 6.552 9.511 11.206 20.459 13.928 32.736-.381-.34-.774-.677-1.161-1.004-3.761-3.18-7.884-5.907-12.269-8.143-3.314-1.69-6.776-3.091-10.339-4.162-18.403-5.531-41.844-3.552-58.319 6.507-3.203 1.956-6.266 4.194-9.076 6.68 3.279-14.547 8.713-25.216 13.786-32.613zm12.066 144.252c-13.048-16.999-30.532-42.017-31.705-62.929-.74-13.202 4.289-26.187 13.799-35.624 4.656-4.623 10.337-8.32 16.428-10.69 12.302-4.788 26.044-5.033 38.707-1.227 13.061 3.925 23.975 13.444 29.649 25.862 3.067 6.713 4.56 14.319 4.14 21.678-.885 15.523-9.343 30.438-17.58 43.148-4.408 6.802-9.189 13.354-14.122 19.782-6.035 7.863-12.627 15.542-19.658 22.903-7.032-7.362-13.624-15.042-19.658-22.903zm46.409 47.772c-5.471-4.567-11.716-10.291-16.069-14.364 7.458-7.798 14.463-15.935 20.868-24.279 5.744-7.482 11.277-15.137 16.298-23.127 9.875-15.713 18.938-33.778 18.569-52.774-.113-5.793-1.128-11.562-2.907-17.108-.011-17.578-2.797-33.507-8.279-47.647 1.142.875 2.26 1.778 3.352 2.709 18.205 15.523 28.909 37.985 29.368 61.626.392 19.882-7.097 38.917-16.736 56.008-6.614 11.728-14.389 22.758-22.58 33.428-6.734 8.772-14.081 17.333-21.884 25.528z"/></g></g></g></svg>