<?xml version="1.0" encoding="UTF-8" standalone="no"?>
<!-- Created with Inkscape (http://www.inkscape.org/) -->

<svg
   version="1.1"
   id="svg2"
   width="512"
   height="512"
   viewBox="0 0 512 512"
   sodipodi:docname="cancer.svg"
   inkscape:version="1.1 (c68e22c387, 2021-05-23)"
   xmlns:inkscape="http://www.inkscape.org/namespaces/inkscape"
   xmlns:sodipodi="http://sodipodi.sourceforge.net/DTD/sodipodi-0.dtd"
   xmlns="http://www.w3.org/2000/svg"
   xmlns:svg="http://www.w3.org/2000/svg">
  <defs
     id="defs6" />
  <sodipodi:namedview
     id="namedview4"
     pagecolor="#505050"
     bordercolor="#ffffff"
     borderopacity="1"
     inkscape:pageshadow="0"
     inkscape:pageopacity="0"
     inkscape:pagecheckerboard="1"
     showgrid="false"
     inkscape:zoom="0.67578125"
     inkscape:cx="-68.069364"
     inkscape:cy="323.32948"
     inkscape:window-width="1538"
     inkscape:window-height="877"
     inkscape:window-x="54"
     inkscape:window-y="-8"
     inkscape:window-maximized="1"
     inkscape:current-layer="g8" />
  <g
     inkscape:groupmode="layer"
     inkscape:label="Image"
     id="g8">
    <g
       id="g1544"
       transform="translate(-0.29558463,0.1737387)">
      <path
         style="fill:#fdc5cc"
         d="m 254,500.5 c 1.29175,-1.375 2.57363,-2.5 2.84863,-2.5 0.275,0 -0.55688,1.125 -1.84863,2.5 -1.29175,1.375 -2.57363,2.5 -2.84863,2.5 -0.275,0 0.55688,-1.125 1.84863,-2.5 z M 97.8125,458.31689 c 0.721875,-0.28887 1.584375,-0.25335 1.916667,0.0789 0.332293,0.33229 -0.258334,0.56864 -1.3125,0.52522 -1.164943,-0.048 -1.4019,-0.28494 -0.604167,-0.60416 z M 68.404988,446.75 66.5,444.5 l 2.25,1.90499 C 70.864445,448.19521 71.455241,449 70.654988,449 c -0.189757,0 -1.202257,-1.0125 -2.25,-2.25 z M 383.5,447 c 0.99549,-1.1 2.03498,-2 2.30998,-2 0.275,0 -0.31449,0.9 -1.30998,2 -0.99549,1.1 -2.03498,2 -2.30998,2 -0.275,0 0.31449,-0.9 1.30998,-2 z m 11.732,-28 c 0,-1.925 0.2058,-2.7125 0.45733,-1.75 0.25152,0.9625 0.25152,2.5375 0,3.5 -0.25153,0.9625 -0.45733,0.175 -0.45733,-1.75 z M 178.11962,390.85762 c -12.9173,-3.75391 -17.04129,-18.86928 -7.6975,-28.21307 12.03395,-12.03395 32.58429,-0.46971 28.43664,16.00207 -2.24702,8.92376 -12.09607,14.72278 -20.73914,12.211 z m 109.13989,-27.9556 c -11.31451,-1.90608 -22.41667,-10.21705 -27.12559,-20.30595 -10.54299,-22.58844 3.56224,-49.22075 27.85874,-52.60055 24.73471,-3.44075 45.75628,17.81503 41.87569,42.34226 -2.31643,14.64098 -14.82648,27.90989 -28.42358,30.14776 -7.60578,1.25179 -8.98624,1.29232 -14.18526,0.41648 z m 5.81741,-34.8251 C 299.51845,321.6354 295.11099,311 286,311 c -3.25776,0 -4.78443,0.63058 -7.07692,2.92308 C 276.63058,316.21557 276,317.74224 276,321 c 0,3.25776 0.63058,4.78443 2.92308,7.07692 C 281.21557,330.36942 282.74224,331 286,331 c 3.25776,0 4.78443,-0.63058 7.07692,-2.92308 z M 14.924314,317.25 12.5,314.5 l 2.75,2.42431 c 1.5125,1.33338 2.75,2.57088 2.75,2.75 0,0.78428 -0.809799,0.14598 -3.075686,-2.42431 z M 118.36408,295.83041 c -7.85481,-3.80337 -2.39007,-16.15488 5.67032,-12.81616 5.71367,2.36668 5.93062,10.31377 0.35096,12.85603 -2.90563,1.3239 -3.20894,1.32189 -6.02128,-0.0399 z M 436.92431,261.25 434.5,258.5 l 2.75,2.42431 c 2.57029,2.26589 3.20859,3.07569 2.42431,3.07569 -0.17912,0 -1.41662,-1.2375 -2.75,-2.75 z M 188.65519,238.51753 c -5.17684,-1.81373 -8.46629,-5.10231 -9.70497,-9.7024 -3.78568,-14.05895 13.82161,-24.19715 24.1267,-13.89205 10.55576,10.55575 -0.41373,28.50222 -14.42173,23.59445 z M 57.252183,159.5 c 0.0111,-2.2 0.215885,-2.98225 0.455078,-1.73834 0.239193,1.24391 0.230112,3.04391 -0.02018,4 C 57.436788,162.71775 57.241084,161.7 57.252183,159.5 Z M 68.5,132 c 0.995486,-1.1 2.034975,-2 2.309975,-2 0.275,0 -0.314489,0.9 -1.309975,2 -0.995486,1.1 -2.034975,2 -2.309975,2 -0.275,0 0.314489,-0.9 1.309975,-2 z M 198,78.5 c 1.29175,-1.375 2.57363,-2.5 2.84863,-2.5 0.275,0 -0.55688,1.125 -1.84863,2.5 -1.29175,1.375 -2.57363,2.5 -2.84863,2.5 -0.275,0 0.55688,-1.125 1.84863,-2.5 z"
         id="path1562" />
      <path
         style="fill:#b8f198"
         d="m 220.82055,495.58979 c -9.72831,-2.58784 -16.48141,-10.86455 -17.76808,-21.77685 -0.88479,-7.50401 -2.52618,-9.07119 -11.23657,-10.72856 -20.006,-3.80665 -43.33158,-13.30569 -61.91579,-25.21439 C 125.72017,435.19149 121.20806,433 119.8732,433 c -1.33486,0 -4.81186,1.79193 -7.72666,3.98207 -8.4608,6.35732 -17.248223,7.54006 -25.413774,3.42054 -14.708859,-7.42062 -17.491575,-25.09955 -6.096109,-38.72934 3.429279,-4.10166 2.954751,-7.05046 -2.506103,-15.57338 C 65.918927,367.04084 56.954388,344.98395 52.904189,324.03144 51.369318,316.09124 48.709261,313 43.411474,313 c -5.69712,0 -11.045513,-1.9949 -15.445274,-5.76093 -6.861172,-5.8729 -9.638452,-13.84422 -7.817758,-22.43843 2.113536,-9.97651 10.446453,-17.08933 21.847382,-18.6485 7.74048,-1.05858 9.256027,-2.62925 10.938398,-11.33624 C 56.971719,233.92013 65.915779,211.933 78.113508,192.91783 80.801078,188.72814 83,184.171 83,182.79084 c 0,-1.38016 -1.57106,-4.48521 -3.491244,-6.90011 -6.757564,-8.49859 -8.051638,-18.02579 -3.619031,-26.64393 4.134902,-8.03932 11.592266,-12.5947 20.610275,-12.58991 6.29037,0.003 10.68619,1.70821 17.44428,6.7656 1.89435,1.41763 4.5494,2.57751 5.90011,2.57751 1.3507,0 5.88375,-2.19892 10.07344,-4.88649 19.06971,-12.23271 40.98974,-21.13815 62.05073,-25.20932 7.9402,-1.53487 11.03144,-4.19493 11.03144,-9.49272 0,-8.346505 5.32158,-17.440945 12.35037,-21.10644 13.82527,-7.209848 31.33818,1.354258 34.13986,16.69497 l 0.6392,3.5 -17.31471,-0.20653 -17.31472,-0.20653 8.6305,1.39819 c 11.49441,1.86215 19.01431,3.80986 33.2368,8.60856 25.81962,8.71161 47.77882,22.34794 68.89063,42.78003 10.35698,10.02353 12.39014,13.38575 3.54025,5.8545 -18.79785,-15.99695 -43.33386,-27.7287 -70.89931,-33.9001 -9.20867,-2.06166 -12.91687,-2.32347 -32.39887,-2.28749 -18.85669,0.0348 -23.44989,0.35602 -32.14776,2.2481 -34.35951,7.47432 -66.91657,26.03773 -88.73326,50.59398 -12.423471,13.98351 -14.373405,18.01007 -11.123589,22.96991 1.399362,2.1357 1.197397,2.80908 -3.145068,10.48616 -3.694015,6.53069 -5.008586,8.08707 -6.445412,7.63104 -0.992724,-0.31508 -3.142154,0.11862 -4.776511,0.96378 -3.577532,1.85002 -7.793128,11.92447 -11.643292,27.8252 -3.933221,16.24376 -4.791138,25.50032 -4.192738,45.2379 0.764715,25.22333 5.119298,43.17356 15.784336,65.06536 22.206104,45.58178 63.341614,77.50919 114.223464,88.65477 8.83618,1.93555 13.14109,2.23426 32.19983,2.23426 19.08705,0 23.35704,-0.29716 32.24903,-2.24428 27.19157,-5.95428 52.9442,-18.3349 71.50097,-34.37421 3.1625,-2.73347 5.75,-4.59216 5.75,-4.13042 0,1.09368 -15.92457,16.67069 -23,22.498 -23.89951,19.68361 -57.4618,34.44555 -89.38389,39.31437 l -9.11611,1.39041 17.75,-0.2207 c 19.62616,-0.24403 18.70467,-0.60271 16.58944,6.4573 -3.41039,11.38287 -16.393,18.54084 -28.01889,15.44823 z M 368.20366,170.64256 c -4.54735,-5.69874 -18.12807,-19.15145 -24.59792,-24.36605 l -3.89425,-3.13871 3.60464,-3.39962 c 6.53597,-6.16421 7.40429,-12.75324 3.28361,-24.91682 -11.95729,-35.296064 3.48797,-73.62915 36.61354,-90.869897 9.76711,-5.083452 20.92401,-7.9767 31.78672,-8.243048 7.94677,-0.19485 8.85797,6.75e-4 14,3.004089 23.24101,13.57488 38.28727,36.886893 40.84763,63.287496 3.18441,32.83546 -12.62652,63.91973 -40.84763,80.30641 -5.03695,2.92472 -6.16125,3.17771 -13.35424,3.00492 -4.31983,-0.10377 -11.41923,-0.95894 -15.77644,-1.90037 -6.48707,-1.40161 -8.63386,-1.49847 -11.8507,-0.53469 -4.71316,1.4121 -9.13833,4.96332 -12.04472,9.66595 C 374.79854,174.444 373.53128,176 373.15777,176 c -0.37351,0 -2.60286,-2.41085 -4.95411,-5.35744 z m 61.04837,-26.06931 C 439.09775,141.05966 444.424,133.48884 444.42932,123 444.4362,109.40324 435.60565,100.57398 422,100.57398 c -8.05887,0 -13.75129,2.71955 -18.01636,8.6073 -5.86626,8.09813 -6.31361,17.52699 -1.22041,25.72246 5.79818,9.32984 16.49682,13.23529 26.4888,9.66951 z m -20,-60.000003 C 419.09775,81.059656 424.424,73.488837 424.42932,63 424.4362,49.403235 415.60565,40.573976 402,40.573976 c -8.05887,0 -13.75129,2.719553 -18.01636,8.607305 -5.86626,8.098132 -6.31361,17.526986 -1.22041,25.722456 5.79818,9.329846 16.49682,13.235295 26.4888,9.66951 z"
         id="path1560" />
      <path
         style="fill:#fd8d96"
         d="M 212.5,435.99725 C 149.41327,429.29113 98.263468,384.77413 83.476231,323.70453 c -6.636796,-27.40921 -4.779769,-59.25516 4.965027,-85.1447 3.086345,-8.19966 3.222176,-11.8964 0.535824,-14.58275 -2.26611,-2.26611 -2.363948,-1.93998 3.792621,-12.64221 3.228722,-5.61262 3.756427,-6.08533 5.888426,-5.27475 3.681871,1.39985 6.606551,-0.35833 12.019131,-7.22533 13.62306,-17.28372 30.40232,-30.7576 50.82274,-40.81107 14.08396,-6.93387 21.66614,-9.61217 35.5,-12.53989 61.14136,-12.9396 125.51445,16.01803 156.75815,70.51617 13.56793,23.66643 19.52382,46.08819 19.52382,73.5 0,27.41181 -5.95589,49.83357 -19.52382,73.5 -9.54933,16.65682 -24.03138,32.86441 -40.25815,45.05491 -10.06559,7.56186 -33.19989,19.11364 -44.98655,22.46339 -17.95032,5.10145 -39.62249,7.22131 -56.01345,5.47895 z m -17.95745,-31.09906 c 7.59589,-2.84198 15.51366,-10.75975 18.35564,-18.35564 6.35787,-16.99291 -2.08925,-36.3401 -18.56812,-42.52824 -7.85522,-2.9498 -18.63772,-2.55157 -25.83007,0.95398 -26.11807,12.72991 -24.08328,50.47322 3.2626,60.51796 5.79727,2.12946 16.23704,1.85996 22.77995,-0.58806 z M 307.0685,377.38756 c 18.48159,-5.48658 31.83248,-18.83747 37.31906,-37.31906 C 345.2937,337.01617 346,331.07272 346,326.5 346,297.43757 322.67636,274 293.75518,274 264.42666,274 241,297.20003 241,326.24482 c 0,23.75619 14.59342,43.29117 38,50.86739 7.12818,2.30724 20.77316,2.4411 28.0685,0.27535 z m -17.256,-14.07067 c 0.72187,-0.28887 1.58438,-0.25335 1.91667,0.0789 0.33229,0.33229 -0.25834,0.56864 -1.3125,0.52522 -1.16495,-0.048 -1.4019,-0.28494 -0.60417,-0.60416 z m 6,0 c 0.72187,-0.28887 1.58438,-0.25335 1.91667,0.0789 0.33229,0.33229 -0.25834,0.56864 -1.3125,0.52522 -1.16495,-0.048 -1.4019,-0.28494 -0.60417,-0.60416 z m 34.26645,-33.90022 c 0.048,-1.16495 0.28494,-1.4019 0.60416,-0.60417 0.28887,0.72187 0.25335,1.58438 -0.0789,1.91667 -0.33229,0.33229 -0.56864,-0.25834 -0.52522,-1.3125 z m 0,-6 c 0.048,-1.16495 0.28494,-1.4019 0.60416,-0.60417 0.28887,0.72187 0.25335,1.58438 -0.0789,1.91667 -0.33229,0.33229 -0.56864,-0.25834 -0.52522,-1.3125 z M 289.8125,289.31689 c 0.72187,-0.28887 1.58438,-0.25335 1.91667,0.0789 0.33229,0.33229 -0.25834,0.56864 -1.3125,0.52522 -1.16495,-0.048 -1.4019,-0.28494 -0.60417,-0.60416 z m 6,0 c 0.72187,-0.28887 1.58438,-0.25335 1.91667,0.0789 0.33229,0.33229 -0.25834,0.56864 -1.3125,0.52522 -1.16495,-0.048 -1.4019,-0.28494 -0.60417,-0.60416 z m -163.69213,19.88889 c 15.4318,-8.06167 15.92585,-29.92128 0.88043,-38.95578 -19.92817,-11.9665 -42.555032,10.30144 -30.97854,30.48713 6.18212,10.77962 18.85095,14.34423 30.09811,8.46865 z m 70.95655,-1.12886 C 209.51845,301.6354 205.11099,291 196,291 c -3.25776,0 -4.78443,0.63058 -7.07692,2.92308 C 182.48155,300.3646 186.88901,311 196,311 c 3.25776,0 4.78443,-0.63058 7.07692,-2.92308 z m 0.49494,-54.75282 c 6.70223,-2.2792 15.47304,-11.05001 17.75224,-17.75224 3.96781,-11.66772 1.36438,-23.03159 -7.25,-31.64596 -12.25274,-12.25275 -29.89546,-12.25275 -42.1482,0 -8.61438,8.61437 -11.21781,19.97824 -7.25,31.64596 2.18121,6.41409 11.05602,15.47075 17.3291,17.68419 5.97047,2.10667 15.48383,2.13669 21.56686,0.068 z m 89.50506,-25.24718 C 295.36942,225.78443 296,224.25776 296,221 296,211.88901 285.3646,207.48155 278.92308,213.92308 272.48155,220.3646 276.88901,231 286,231 c 3.25776,0 4.78443,-0.63058 7.07692,-2.92308 z"
         id="path1558" />
      <path
         style="fill:#99e49a"
         d="m 223.56176,472.46191 c 8.02327,-1.17156 22.71959,-4.48144 26.72812,-6.01965 1.21367,-0.46573 1.27238,0.003 0.36396,2.90521 -1.35388,4.32557 -3.0168,4.66591 -22.15384,4.53408 l -14,-0.0965 9.06176,-1.32319 z m 53.99528,-16.88062 c 13.42519,-6.65786 25.97165,-14.58055 35.44296,-22.38111 7.62371,-6.27887 22.99999,-21.44076 23.00003,-22.67933 2e-5,-0.56147 1.47458,-2.19739 3.2768,-3.63539 1.80223,-1.438 6.46796,-6.388 10.36829,-11 20.44012,-24.16971 32.86289,-51.06738 37.81905,-81.88546 1.98429,-12.33861 1.98429,-36.66139 0,-49 -5.46448,-33.97893 -21.06011,-65.23966 -44.34104,-88.87959 -4.12757,-4.19123 -7.43595,-7.90655 -7.35195,-8.25628 0.28089,-1.16941 -19.17163,-19.35864 -27.29218,-25.51976 -12.59348,-9.55478 -27.12741,-17.94925 -41.479,-23.95734 -7.45824,-3.12228 -5.36843,-2.95468 7.21482,0.57864 13.84301,3.88704 27.44547,9.7398 42.56339,18.31381 11.85038,6.72086 12.47026,6.94758 17.79008,6.50641 l 5.51187,-0.45708 7.20992,6.17299 c 7.50763,6.42788 18.43654,17.65098 22.94667,23.56433 2.40379,3.15168 2.52872,3.77212 1.52031,7.54984 -1.24475,4.66312 -1.07726,5.08823 8.22819,20.88403 9.05525,15.3711 16.84051,36.04261 20.13721,53.46856 1.51343,7.99976 4.14336,11.02903 9.58209,11.03702 9.07759,0.0133 17.27037,5.10462 21.47422,13.34483 2.46241,4.82674 2.75139,13.62105 0.61281,18.64959 -3.61366,8.49698 -12.93608,14.97056 -21.58703,14.99023 -6.38749,0.0145 -8.45596,2.61852 -10.58144,13.32096 -3.82443,19.2572 -12.94838,41.39417 -24.45275,59.32846 -2.8437,4.43307 -5.17036,9.15229 -5.17036,10.48715 0,1.33486 1.78628,4.80434 3.96952,7.70996 7.78168,10.35644 7.89738,21.28564 0.31905,30.13921 -8.78301,10.26098 -22.21328,11.43802 -33.52547,2.9382 C 337.89124,434.7563 334.414,433 333.01356,433 c -1.39714,0 -4.82572,1.53912 -7.61907,3.42027 C 317.382,441.8162 304.25718,448.86416 295,452.74195 286.20761,456.42504 268.83141,462 266.14423,462 c -0.84158,0 4.29418,-2.88842 11.41281,-6.41871 z M 106.87244,400.25 c -1.24387,-1.58606 -1.2085,-1.62143 0.37756,-0.37756 0.9625,0.75485 1.75,1.54235 1.75,1.75 0,0.82304 -0.82119,0.29331 -2.12756,-1.37244 z M 429.5,162.02997 c 22.45958,-13.14292 37.748,-36.93563 40.29967,-62.716636 3.28029,-33.142775 -12.17419,-63.755611 -40.66271,-80.546282 -5.69069,-3.353997 -3.68022,-3.591442 7.08873,-0.837209 13.05153,3.33802 30.19949,13.51677 36.3448,21.573683 3.20063,4.196246 7.67806,6.159888 10.80105,4.736958 2.07875,-0.947142 2.55387,-0.582031 5.34838,4.110016 1.68683,2.832225 3.72398,6.734153 4.527,8.670952 1.40228,3.38215 1.36195,3.595437 -1.01948,5.391753 -2.71862,2.05066 -2.71109,1.493108 -0.28254,20.937306 2.33516,18.696429 -3.96327,39.331499 -16.87009,55.270239 -9.01546,11.13326 -24.23548,20.71187 -38.84912,24.44941 -10.89849,2.78736 -12.77147,2.49769 -6.72569,-1.04019 z m -12.32569,-34.34442 c -2.8208,-3.00261 -2.76512,-6.78189 0.14014,-9.51124 3.00261,-2.8208 6.78189,-2.76512 9.51124,0.14014 2.8208,3.00261 2.76512,6.78189 -0.14014,9.51124 -3.00261,2.8208 -6.78189,2.76512 -9.51124,-0.14014 z M 242,110.38401 c -4.675,-1.30518 -12.55,-3.00637 -17.5,-3.78041 l -9,-1.40736 14.125,-0.0981 c 18.31903,-0.12725 19.65258,0.15734 21.0065,4.48302 0.58855,1.88037 0.79973,3.3642 0.46929,3.29739 -0.33043,-0.0668 -4.42579,-1.18934 -9.10079,-2.49452 z M 397.17431,67.685549 c -2.8208,-3.002611 -2.76512,-6.781885 0.14014,-9.511235 3.00261,-2.820806 6.78189,-2.765123 9.51124,0.140137 2.8208,3.002611 2.76512,6.781885 -0.14014,9.511235 -3.00261,2.820806 -6.78189,2.765123 -9.51124,-0.140137 z"
         id="path1556" />
      <path
         style="fill:#8db874"
         d="m 242.5,490 c 0.99549,-1.1 2.03498,-2 2.30998,-2 0.275,0 -0.31449,0.9 -1.30998,2 -0.99549,1.1 -2.03498,2 -2.30998,2 -0.275,0 0.31449,-0.9 1.30998,-2 z M 79.404988,435.75 77.5,433.5 l 2.25,1.90499 C 81.864445,437.19521 82.455241,438 81.654988,438 c -0.189757,0 -1.202257,-1.0125 -2.25,-2.25 z m 32.032102,-31 -2.93709,-3.25 3.25,2.93709 c 1.7875,1.6154 3.25,3.0779 3.25,3.25 0,0.77256 -0.82513,0.0924 -3.56291,-2.93709 z m 230.52112,-1 C 346.10217,399.33481 347,398.54091 347,399.29179 c 0,0.16049 -2.1375,2.29799 -4.75,4.75 L 337.5,408.5 Z M 25.404988,305.75 23.5,303.5 l 2.25,1.90499 C 27.864445,307.19521 28.455241,308 27.654988,308 c -0.189757,0 -1.202257,-1.0125 -2.25,-2.25 z m 400.467452,-33.5 c -1.24387,-1.58606 -1.2085,-1.62143 0.37756,-0.37756 0.9625,0.75485 1.75,1.54235 1.75,1.75 0,0.82304 -0.82119,0.29331 -2.12756,-1.37244 z M 110.5,175 c 2.70865,-2.75 5.14982,-5 5.42482,-5 0.275,0 -1.71617,2.25 -4.42482,5 -2.70865,2.75 -5.14982,5 -5.42482,5 -0.275,0 1.71617,-2.25 4.42482,-5 z m 231.5,0.5 c -2.42903,-2.475 -4.19142,-4.5 -3.91642,-4.5 0.275,0 2.48739,2.025 4.91642,4.5 2.42903,2.475 4.19142,4.5 3.91642,4.5 -0.275,0 -2.48739,-2.025 -4.91642,-4.5 z m 136,-17.87756 c 0,-0.20765 0.7875,-0.99515 1.75,-1.75 1.58606,-1.24387 1.62143,-1.2085 0.37756,0.37756 C 478.82119,157.91575 478,158.44548 478,157.62244 Z m 4,-4 c 0,-0.20765 0.7875,-0.99515 1.75,-1.75 1.58606,-1.24387 1.62143,-1.2085 0.37756,0.37756 C 482.82119,153.91575 482,154.44548 482,153.62244 Z M 79.5,143 c 0.995486,-1.1 2.034975,-2 2.309975,-2 0.275,0 -0.314489,0.9 -1.309975,2 -0.995486,1.1 -2.034975,2 -2.309975,2 -0.275,0 0.314489,-0.9 1.309975,-2 z m 325.90499,-4.25 -1.90499,-2.25 2.25,1.90499 c 2.11444,1.79022 2.70524,2.59501 1.90499,2.59501 -0.18976,0 -1.20226,-1.0125 -2.25,-2.25 z M 437.5,139 c 0.99549,-1.1 2.03498,-2 2.30998,-2 0.275,0 -0.31449,0.9 -1.30998,2 -0.99549,1.1 -2.03498,2 -2.30998,2 -0.275,0 0.31449,-0.9 1.30998,-2 z m -32,-32 c 0.99549,-1.1 2.03498,-2 2.30998,-2 0.275,0 -0.31449,0.9 -1.30998,2 -0.99549,1.1 -2.03498,2 -2.30998,2 -0.275,0 0.31449,-0.9 1.30998,-2 z m 31.90499,-0.25 -1.90499,-2.25 2.25,1.90499 c 2.11444,1.79022 2.70524,2.59501 1.90499,2.59501 -0.18976,0 -1.20226,-1.0125 -2.25,-2.25 z M 342.07895,95.416667 c 0.048,-1.164943 0.28494,-1.4019 0.60416,-0.604167 0.28887,0.721875 0.25335,1.584375 -0.0789,1.916667 -0.33229,0.332291 -0.56864,-0.258334 -0.52522,-1.3125 z M 209.5,89 c 0.99549,-1.1 2.03498,-2 2.30998,-2 0.275,0 -0.31449,0.9 -1.30998,2 -0.99549,1.1 -2.03498,2 -2.30998,2 -0.275,0 0.31449,-0.9 1.30998,-2 z m 282.57895,-2.583333 c 0.048,-1.164943 0.28494,-1.4019 0.60416,-0.604167 0.28887,0.721875 0.25335,1.584375 -0.0789,1.916667 -0.33229,0.332291 -0.56864,-0.258334 -0.52522,-1.3125 z M 385.40499,78.75 383.5,76.5 l 2.25,1.904988 C 387.86444,80.195206 388.45524,81 387.65499,81 c -0.18976,0 -1.20226,-1.0125 -2.25,-2.25 z M 417.5,79 c 0.99549,-1.1 2.03498,-2 2.30998,-2 0.275,0 -0.31449,0.9 -1.30998,2 -0.99549,1.1 -2.03498,2 -2.30998,2 -0.275,0 0.31449,-0.9 1.30998,-2 z m -32,-32 c 0.99549,-1.1 2.03498,-2 2.30998,-2 0.275,0 -0.31449,0.9 -1.30998,2 -0.99549,1.1 -2.03498,2 -2.30998,2 -0.275,0 0.31449,-0.9 1.30998,-2 z M 417.40499,46.75 415.5,44.5 l 2.25,1.904988 c 1.2375,1.047743 2.25,2.060243 2.25,2.25 0,0.800253 -0.80479,0.209457 -2.59501,-1.904988 z m 56.46745,-5.5 C 472.62857,39.663944 472.66394,39.628574 474.25,40.872445 475.91575,42.178814 476.44548,43 475.62244,43 c -0.20765,0 -0.99515,-0.7875 -1.75,-1.75 z M 350,29.622445 c 0,-0.207656 0.7875,-0.995156 1.75,-1.75 1.58606,-1.243871 1.62143,-1.208501 0.37756,0.377555 C 350.82119,29.915748 350,30.445479 350,29.622445 Z M 482.87244,28.25 C 481.62857,26.663944 481.66394,26.628574 483.25,27.872445 484.91575,29.178814 485.44548,30 484.62244,30 c -0.20765,0 -0.99515,-0.7875 -1.75,-1.75 z M 354,25.622445 c 0,-0.207656 0.7875,-0.995156 1.75,-1.75 1.58606,-1.243871 1.62143,-1.208501 0.37756,0.377555 C 354.82119,25.915748 354,26.445479 354,25.622445 Z M 478.87244,24.25 c -1.24387,-1.586056 -1.2085,-1.621426 0.37756,-0.377555 0.9625,0.754844 1.75,1.542344 1.75,1.75 0,0.823034 -0.82119,0.293303 -2.12756,-1.372445 z"
         id="path1554" />
      <path
         style="fill:#ac6166"
         d="m 216.26903,436.30701 c 0.97297,-0.25354 2.32297,-0.23687 3,0.0371 0.67703,0.27393 -0.11903,0.48137 -1.76903,0.46099 -1.65,-0.0204 -2.20394,-0.2445 -1.23097,-0.49804 z m 18,0 c 0.97297,-0.25354 2.32297,-0.23687 3,0.0371 0.67703,0.27393 -0.11903,0.48137 -1.76903,0.46099 -1.65,-0.0204 -2.20394,-0.2445 -1.23097,-0.49804 z M 125.43709,396.75 122.5,393.5 l 3.25,2.93709 c 3.02946,2.73778 3.70965,3.56291 2.93709,3.56291 -0.1721,0 -1.6346,-1.4625 -3.25,-3.25 z m 33.48722,0.5 -2.42431,-2.75 2.75,2.42431 c 2.57029,2.26589 3.20859,3.07569 2.42431,3.07569 -0.17912,0 -1.41662,-1.2375 -2.75,-2.75 z M 205,397.5 c 1.29175,-1.375 2.57363,-2.5 2.84863,-2.5 0.275,0 -0.55688,1.125 -1.84863,2.5 -1.29175,1.375 -2.57363,2.5 -2.84863,2.5 -0.275,0 0.55688,-1.125 1.84863,-2.5 z m 121,0 c 1.29175,-1.375 2.57363,-2.5 2.84863,-2.5 0.275,0 -0.55688,1.125 -1.84863,2.5 -1.29175,1.375 -2.57363,2.5 -2.84863,2.5 -0.275,0 0.55688,-1.125 1.84863,-2.5 z M 117.92431,389.25 115.5,386.5 l 2.75,2.42431 c 2.57029,2.26589 3.20859,3.07569 2.42431,3.07569 -0.17912,0 -1.41662,-1.2375 -2.75,-2.75 z M 334,389.5 c 1.29175,-1.375 2.57363,-2.5 2.84863,-2.5 0.275,0 -0.55688,1.125 -1.84863,2.5 -1.29175,1.375 -2.57363,2.5 -2.84863,2.5 -0.275,0 0.55688,-1.125 1.84863,-2.5 z m -175,-38 c 1.29175,-1.375 2.57363,-2.5 2.84863,-2.5 0.275,0 -0.55688,1.125 -1.84863,2.5 -1.29175,1.375 -2.57363,2.5 -2.84863,2.5 -0.275,0 0.55688,-1.125 1.84863,-2.5 z m 45.92431,-0.25 -2.42431,-2.75 2.75,2.42431 c 2.57029,2.26589 3.20859,3.07569 2.42431,3.07569 -0.17912,0 -1.41662,-1.2375 -2.75,-2.75 z m -100.05187,-46 c -1.24387,-1.58606 -1.2085,-1.62143 0.37756,-0.37756 0.9625,0.75485 1.75,1.54235 1.75,1.75 0,0.82304 -0.82119,0.29331 -2.12756,-1.37244 z M 136,306.62244 c 0,-0.20765 0.7875,-0.99515 1.75,-1.75 1.58606,-1.24387 1.62143,-1.2085 0.37756,0.37756 C 136.82119,306.91575 136,307.44548 136,306.62244 Z M 79.194949,298.5 c 0.02038,-1.65 0.244498,-2.20394 0.498042,-1.23097 0.253543,0.97297 0.236869,2.32297 -0.03705,3 C 79.382014,300.94606 79.174569,300.15 79.194949,298.5 Z m 294.000001,0 c 0.0204,-1.65 0.2445,-2.20394 0.49804,-1.23097 0.25354,0.97297 0.23687,2.32297 -0.0371,3 -0.27393,0.67703 -0.48137,-0.11903 -0.46099,-1.76903 z m -294.000001,-18 c 0.02038,-1.65 0.244498,-2.20394 0.498042,-1.23097 0.253543,0.97297 0.236869,2.32297 -0.03705,3 C 79.382014,282.94606 79.174569,282.15 79.194949,280.5 Z m 294.000001,0 c 0.0204,-1.65 0.2445,-2.20394 0.49804,-1.23097 0.25354,0.97297 0.23687,2.32297 -0.0371,3 -0.27393,0.67703 -0.48137,-0.11903 -0.46099,-1.76903 z M 104,274.62244 c 0,-0.20765 0.7875,-0.99515 1.75,-1.75 1.58606,-1.24387 1.62143,-1.2085 0.37756,0.37756 C 104.82119,274.91575 104,275.44548 104,274.62244 Z M 136.87244,273.25 c -1.24387,-1.58606 -1.2085,-1.62143 0.37756,-0.37756 1.66575,1.30637 2.19548,2.12756 1.37244,2.12756 -0.20765,0 -0.99515,-0.7875 -1.75,-1.75 z M 181,215.62244 c 0,-0.20765 0.7875,-0.99515 1.75,-1.75 1.58606,-1.24387 1.62143,-1.2085 0.37756,0.37756 C 181.82119,215.91575 181,216.44548 181,215.62244 Z M 118,189.5 c 1.29175,-1.375 2.57363,-2.5 2.84863,-2.5 0.275,0 -0.55688,1.125 -1.84863,2.5 -1.29175,1.375 -2.57363,2.5 -2.84863,2.5 -0.275,0 0.55688,-1.125 1.84863,-2.5 z m 215.92431,-0.25 -2.42431,-2.75 2.75,2.42431 c 1.5125,1.33338 2.75,2.57088 2.75,2.75 0,0.78428 -0.8098,0.14598 -3.07569,-2.42431 z m -8,-8 -2.42431,-2.75 2.75,2.42431 c 2.57029,2.26589 3.20859,3.07569 2.42431,3.07569 -0.17912,0 -1.41662,-1.2375 -2.75,-2.75 z M 126.5,181 c 0.99549,-1.1 2.03498,-2 2.30998,-2 0.275,0 -0.31449,0.9 -1.30998,2 -0.99549,1.1 -2.03498,2 -2.30998,2 -0.275,0 0.31449,-0.9 1.30998,-2 z m 89.75,-38.68933 c 0.9625,-0.25152 2.5375,-0.25152 3.5,0 0.9625,0.25153 0.175,0.45733 -1.75,0.45733 -1.925,0 -2.7125,-0.2058 -1.75,-0.45733 z m 18.01903,-0.004 c 0.97297,-0.25354 2.32297,-0.23687 3,0.0371 0.67703,0.27393 -0.11903,0.48137 -1.76903,0.46099 -1.65,-0.0204 -2.20394,-0.2445 -1.23097,-0.49804 z"
         id="path1552" />
      <path
         style="fill:#6d9762"
         d="m 43.8125,313.31689 c 0.721875,-0.28887 1.584375,-0.25335 1.916667,0.0789 0.332291,0.33229 -0.258334,0.56864 -1.3125,0.52522 -1.164943,-0.048 -1.4019,-0.28494 -0.604167,-0.60416 z m 344.26645,-9.90022 c 0.048,-1.16495 0.28494,-1.4019 0.60416,-0.60417 0.28887,0.72187 0.25335,1.58438 -0.0789,1.91667 -0.33229,0.33229 -0.56864,-0.25834 -0.52522,-1.3125 z m 0,-28 c 0.048,-1.16495 0.28494,-1.4019 0.60416,-0.60417 0.28887,0.72187 0.25335,1.58438 -0.0789,1.91667 -0.33229,0.33229 -0.56864,-0.25834 -0.52522,-1.3125 z M 371.15789,183 c 0,-1.375 0.22698,-1.9375 0.50439,-1.25 0.27741,0.6875 0.27741,1.8125 0,2.5 -0.27741,0.6875 -0.50439,0.125 -0.50439,-1.25 z m 20.65461,-20.68311 c 0.72187,-0.28887 1.58438,-0.25335 1.91667,0.0789 0.33229,0.33229 -0.25834,0.56864 -1.3125,0.52522 -1.16495,-0.048 -1.4019,-0.28494 -0.60417,-0.60416 z M 420.25,145.31067 c 0.9625,-0.25152 2.5375,-0.25152 3.5,0 0.9625,0.25153 0.175,0.45733 -1.75,0.45733 -1.925,0 -2.7125,-0.2058 -1.75,-0.45733 z M 444.232,123 c 0,-1.925 0.2058,-2.7125 0.45733,-1.75 0.25152,0.9625 0.25152,2.5375 0,3.5 -0.25153,0.9625 -0.45733,0.175 -0.45733,-1.75 z M 420.25,100.31067 c 0.9625,-0.25152 2.5375,-0.25152 3.5,0 0.9625,0.25153 0.175,0.45733 -1.75,0.45733 -1.925,0 -2.7125,-0.2058 -1.75,-0.45733 z m 71.82895,-2.894003 c 0.048,-1.164943 0.28494,-1.4019 0.60416,-0.604167 0.28887,0.721875 0.25335,1.584375 -0.0789,1.916667 -0.33229,0.332291 -0.56864,-0.258334 -0.52522,-1.3125 z M 400.25,85.310674 c 0.9625,-0.251527 2.5375,-0.251527 3.5,0 0.9625,0.251528 0.175,0.457323 -1.75,0.457323 -1.925,0 -2.7125,-0.205795 -1.75,-0.457323 z M 424.232,63 c 0,-1.925 0.2058,-2.7125 0.45733,-1.75 0.25152,0.9625 0.25152,2.5375 0,3.5 C 424.4378,65.7125 424.232,64.925 424.232,63 Z M 479.75,44.337719 c 0.6875,-0.277412 1.8125,-0.277412 2.5,0 0.6875,0.277413 0.125,0.504386 -1.25,0.504386 -1.375,0 -1.9375,-0.226973 -1.25,-0.504386 z m -79.5,-4.027045 c 0.9625,-0.251527 2.5375,-0.251527 3.5,0 0.9625,0.251528 0.175,0.457323 -1.75,0.457323 -1.925,0 -2.7125,-0.205795 -1.75,-0.457323 z"
         id="path1550" />
      <path
         style="fill:#5b5f51"
         d="M 198.92431,500.25 196.5,497.5 l 2.75,2.42431 c 2.57029,2.26589 3.20859,3.07569 2.42431,3.07569 -0.17912,0 -1.41662,-1.2375 -2.75,-2.75 z M 202.15789,474 c 0,-1.375 0.22698,-1.9375 0.50439,-1.25 0.27741,0.6875 0.27741,1.8125 0,2.5 -0.27741,0.6875 -0.50439,0.125 -0.50439,-1.25 z m 48.03706,-0.5 c 0.0204,-1.65 0.2445,-2.20394 0.49804,-1.23097 0.25354,0.97297 0.23687,2.32297 -0.0371,3 -0.27393,0.67703 -0.48137,-0.11903 -0.46099,-1.76903 z M 350.8125,457.31689 c 0.72187,-0.28887 1.58438,-0.25335 1.91667,0.0789 0.33229,0.33229 -0.25834,0.56864 -1.3125,0.52522 -1.16495,-0.048 -1.4019,-0.28494 -0.60417,-0.60416 z M 214.75,451.33772 c 0.6875,-0.27741 1.8125,-0.27741 2.5,0 0.6875,0.27741 0.125,0.50439 -1.25,0.50439 -1.375,0 -1.9375,-0.22698 -1.25,-0.50439 z m 21,0 c 0.6875,-0.27741 1.8125,-0.27741 2.5,0 0.6875,0.27741 0.125,0.50439 -1.25,0.50439 -1.375,0 -1.9375,-0.22698 -1.25,-0.50439 z M 112,437.62244 c 0,-0.20765 0.7875,-0.99515 1.75,-1.75 1.58606,-1.24387 1.62143,-1.2085 0.37756,0.37756 C 112.82119,437.91575 112,438.44548 112,437.62244 Z M 338.87244,436.25 c -1.24387,-1.58606 -1.2085,-1.62143 0.37756,-0.37756 1.66575,1.30637 2.19548,2.12756 1.37244,2.12756 -0.20765,0 -0.99515,-0.7875 -1.75,-1.75 z m -126.05994,0.0669 c 0.72187,-0.28887 1.58437,-0.25335 1.91667,0.0789 0.33229,0.33229 -0.25834,0.56864 -1.3125,0.52522 -1.16495,-0.048 -1.4019,-0.28494 -0.60417,-0.60416 z m 26,0 c 0.72187,-0.28887 1.58437,-0.25335 1.91667,0.0789 0.33229,0.33229 -0.25834,0.56864 -1.3125,0.52522 -1.16495,-0.048 -1.4019,-0.28494 -0.60417,-0.60416 z M 58.078947,414.41667 c 0.04798,-1.16495 0.284941,-1.4019 0.604167,-0.60417 0.288871,0.72187 0.253344,1.58438 -0.07895,1.91667 -0.332292,0.33229 -0.568641,-0.25834 -0.52522,-1.3125 z M 118.87244,411.25 c -1.24387,-1.58606 -1.2085,-1.62143 0.37756,-0.37756 0.9625,0.75485 1.75,1.54235 1.75,1.75 0,0.82304 -0.82119,0.29331 -2.12756,-1.37244 z M 332,412.62244 c 0,-0.20765 0.7875,-0.99515 1.75,-1.75 1.58606,-1.24387 1.62143,-1.2085 0.37756,0.37756 C 332.82119,412.91575 332,413.44548 332,412.62244 Z m -254,-9 c 0,-0.20765 0.7875,-0.99515 1.75,-1.75 1.586056,-1.24387 1.621426,-1.2085 0.377555,0.37756 C 78.821186,403.91575 78,404.44548 78,403.62244 Z M 372.87244,402.25 c -1.24387,-1.58606 -1.2085,-1.62143 0.37756,-0.37756 0.9625,0.75485 1.75,1.54235 1.75,1.75 0,0.82304 -0.82119,0.29331 -2.12756,-1.37244 z m -269,-6 c -1.24387,-1.58606 -1.2085,-1.62143 0.37756,-0.37756 0.9625,0.75485 1.75,1.54235 1.75,1.75 0,0.82304 -0.82119,0.29331 -2.12756,-1.37244 z M 286.8125,378.31689 c 0.72187,-0.28887 1.58438,-0.25335 1.91667,0.0789 0.33229,0.33229 -0.25834,0.56864 -1.3125,0.52522 -1.16495,-0.048 -1.4019,-0.28494 -0.60417,-0.60416 z m 12,0 c 0.72187,-0.28887 1.58438,-0.25335 1.91667,0.0789 0.33229,0.33229 -0.25834,0.56864 -1.3125,0.52522 -1.16495,-0.048 -1.4019,-0.28494 -0.60417,-0.60416 z M 255.92431,363.25 253.5,360.5 l 2.75,2.42431 c 2.57029,2.26589 3.20859,3.07569 2.42431,3.07569 -0.17912,0 -1.41662,-1.2375 -2.75,-2.75 z M 330,363.5 c 1.29175,-1.375 2.57363,-2.5 2.84863,-2.5 0.275,0 -0.55688,1.125 -1.84863,2.5 -1.29175,1.375 -2.57363,2.5 -2.84863,2.5 -0.275,0 0.55688,-1.125 1.84863,-2.5 z M 266.43709,352.75 263.5,349.5 l 3.25,2.93709 c 3.02946,2.73778 3.70965,3.56291 2.93709,3.56291 -0.1721,0 -1.6346,-1.4625 -3.25,-3.25 z M 317,355.68709 c 0,-0.1721 1.4625,-1.6346 3.25,-3.25 l 3.25,-2.93709 -2.93709,3.25 C 317.82513,355.77946 317,356.45965 317,355.68709 Z m 28.07895,-23.27042 c 0.048,-1.16495 0.28494,-1.4019 0.60416,-0.60417 0.28887,0.72187 0.25335,1.58438 -0.0789,1.91667 -0.33229,0.33229 -0.56864,-0.25834 -0.52522,-1.3125 z m 0,-12 c 0.048,-1.16495 0.28494,-1.4019 0.60416,-0.60417 0.28887,0.72187 0.25335,1.58438 -0.0789,1.91667 -0.33229,0.33229 -0.56864,-0.25834 -0.52522,-1.3125 z M 437,316.5 c 1.29175,-1.375 2.57363,-2.5 2.84863,-2.5 0.275,0 -0.55688,1.125 -1.84863,2.5 -1.29175,1.375 -2.57363,2.5 -2.84863,2.5 -0.275,0 0.55688,-1.125 1.84863,-2.5 z M 40.8125,313.31689 c 0.721875,-0.28887 1.584375,-0.25335 1.916667,0.0789 0.332291,0.33229 -0.258334,0.56864 -1.3125,0.52522 -1.164943,-0.048 -1.4019,-0.28494 -0.604167,-0.60416 z m 368.45653,-0.01 c 0.97297,-0.25354 2.32297,-0.23687 3,0.0371 0.67703,0.27393 -0.11903,0.48137 -1.76903,0.46099 -1.65,-0.0204 -2.20394,-0.2445 -1.23097,-0.49804 z M 65.078947,310.41667 c 0.04798,-1.16495 0.284941,-1.4019 0.604167,-0.60417 0.288871,0.72187 0.253344,1.58438 -0.07895,1.91667 -0.332292,0.33229 -0.568641,-0.25834 -0.52522,-1.3125 z m 322.000003,0 c 0.048,-1.16495 0.28494,-1.4019 0.60416,-0.60417 0.28887,0.72187 0.25335,1.58438 -0.0789,1.91667 -0.33229,0.33229 -0.56864,-0.25834 -0.52522,-1.3125 z M 426,306.5 c 1.29175,-1.375 2.57363,-2.5 2.84863,-2.5 0.275,0 -0.55688,1.125 -1.84863,2.5 -1.29175,1.375 -2.57363,2.5 -2.84863,2.5 -0.275,0 0.55688,-1.125 1.84863,-2.5 z M 79.078947,302.41667 c 0.04798,-1.16495 0.284941,-1.4019 0.604167,-0.60417 0.288871,0.72187 0.253344,1.58438 -0.07895,1.91667 -0.332292,0.33229 -0.568641,-0.25834 -0.52522,-1.3125 z m 294.000003,0 c 0.048,-1.16495 0.28494,-1.4019 0.60416,-0.60417 0.28887,0.72187 0.25335,1.58438 -0.0789,1.91667 -0.33229,0.33229 -0.56864,-0.25834 -0.52522,-1.3125 z M 264,302.68709 c 0,-0.1721 1.4625,-1.6346 3.25,-3.25 l 3.25,-2.93709 -2.93709,3.25 C 264.82513,302.77946 264,303.45965 264,302.68709 Z M 319.43709,299.75 316.5,296.5 l 3.25,2.93709 c 1.7875,1.6154 3.25,3.0779 3.25,3.25 0,0.77256 -0.82513,0.0924 -3.56291,-2.93709 z M 64.157895,300 c 0,-1.375 0.226973,-1.9375 0.504386,-1.25 0.277412,0.6875 0.277412,1.8125 0,2.5 -0.277413,0.6875 -0.504386,0.125 -0.504386,-1.25 z m 323.999995,0 c 0,-1.375 0.22698,-1.9375 0.50439,-1.25 0.27741,0.6875 0.27741,1.8125 0,2.5 -0.27741,0.6875 -0.50439,0.125 -0.50439,-1.25 z M 256,289.5 c 1.29175,-1.375 2.57363,-2.5 2.84863,-2.5 0.275,0 -0.55688,1.125 -1.84863,2.5 -1.29175,1.375 -2.57363,2.5 -2.84863,2.5 -0.275,0 0.55688,-1.125 1.84863,-2.5 z m 73.92431,-0.25 -2.42431,-2.75 2.75,2.42431 c 2.57029,2.26589 3.20859,3.07569 2.42431,3.07569 -0.17912,0 -1.41662,-1.2375 -2.75,-2.75 z M 64.157895,279 c 0,-1.375 0.226973,-1.9375 0.504386,-1.25 0.277412,0.6875 0.277412,1.8125 0,2.5 -0.277413,0.6875 -0.504386,0.125 -0.504386,-1.25 z m 323.999995,0 c 0,-1.375 0.22698,-1.9375 0.50439,-1.25 0.27741,0.6875 0.27741,1.8125 0,2.5 -0.27741,0.6875 -0.50439,0.125 -0.50439,-1.25 z M 79.078947,276.41667 c 0.04798,-1.16495 0.284941,-1.4019 0.604167,-0.60417 0.288871,0.72187 0.253344,1.58438 -0.07895,1.91667 -0.332292,0.33229 -0.568641,-0.25834 -0.52522,-1.3125 z m 294.000003,0 c 0.048,-1.16495 0.28494,-1.4019 0.60416,-0.60417 0.28887,0.72187 0.25335,1.58438 -0.0789,1.91667 -0.33229,0.33229 -0.56864,-0.25834 -0.52522,-1.3125 z m -86.26645,-2.09978 c 0.72187,-0.28887 1.58438,-0.25335 1.91667,0.0789 0.33229,0.33229 -0.25834,0.56864 -1.3125,0.52522 -1.16495,-0.048 -1.4019,-0.28494 -0.60417,-0.60416 z m 12,0 c 0.72187,-0.28887 1.58438,-0.25335 1.91667,0.0789 0.33229,0.33229 -0.25834,0.56864 -1.3125,0.52522 -1.16495,-0.048 -1.4019,-0.28494 -0.60417,-0.60416 z M 65.078947,268.41667 c 0.04798,-1.16495 0.284941,-1.4019 0.604167,-0.60417 0.288871,0.72187 0.253344,1.58438 -0.07895,1.91667 -0.332292,0.33229 -0.568641,-0.25834 -0.52522,-1.3125 z m 322.000003,0 c 0.048,-1.16495 0.28494,-1.4019 0.60416,-0.60417 0.28887,0.72187 0.25335,1.58438 -0.0789,1.91667 -0.33229,0.33229 -0.56864,-0.25834 -0.52522,-1.3125 z M 41.269032,265.30701 c 0.972967,-0.25354 2.322967,-0.23687 3,0.0371 0.677032,0.27393 -0.119032,0.48137 -1.769032,0.46099 -1.65,-0.0204 -2.203936,-0.2445 -1.230968,-0.49804 z m 367.999998,0 c 0.97297,-0.25354 2.32297,-0.23687 3,0.0371 0.67703,0.27393 -0.11903,0.48137 -1.76903,0.46099 -1.65,-0.0204 -2.20394,-0.2445 -1.23097,-0.49804 z M 15,262.5 c 1.291745,-1.375 2.573628,-2.5 2.848628,-2.5 0.275,0 -0.556883,1.125 -1.848628,2.5 -1.291745,1.375 -2.573628,2.5 -2.848628,2.5 -0.275,0 0.556883,-1.125 1.848628,-2.5 z m 78.078947,-64.08333 c 0.04798,-1.16495 0.284941,-1.4019 0.604167,-0.60417 0.288871,0.72187 0.253344,1.58437 -0.07895,1.91667 -0.332292,0.33229 -0.568641,-0.25834 -0.52522,-1.3125 z M 113,194.62244 c 0,-0.20765 0.7875,-0.99515 1.75,-1.75 1.58606,-1.24387 1.62143,-1.2085 0.37756,0.37756 C 113.82119,194.91575 113,195.44548 113,194.62244 Z m 296.8125,-14.30555 c 0.72187,-0.28887 1.58438,-0.25335 1.91667,0.0789 0.33229,0.33229 -0.25834,0.56864 -1.3125,0.52522 -1.16495,-0.048 -1.4019,-0.28494 -0.60417,-0.60416 z m 14,0 c 0.72187,-0.28887 1.58438,-0.25335 1.91667,0.0789 0.33229,0.33229 -0.25834,0.56864 -1.3125,0.52522 -1.16495,-0.048 -1.4019,-0.28494 -0.60417,-0.60416 z M 78.872445,176.25 c -1.243871,-1.58606 -1.208501,-1.62143 0.377555,-0.37756 0.9625,0.75485 1.75,1.54235 1.75,1.75 0,0.82304 -0.821186,0.29331 -2.127555,-1.37244 z M 118,168.62244 c 0,-0.20765 0.7875,-0.99515 1.75,-1.75 1.58606,-1.24387 1.62143,-1.2085 0.37756,0.37756 C 118.82119,168.91575 118,169.44548 118,168.62244 Z m 261,0 c 0,-0.20765 0.7875,-0.99515 1.75,-1.75 1.58606,-1.24387 1.62143,-1.2085 0.37756,0.37756 C 379.82119,168.91575 379,169.44548 379,168.62244 Z M 112.87244,142.25 c -1.24387,-1.58606 -1.2085,-1.62143 0.37756,-0.37756 1.66575,1.30637 2.19548,2.12756 1.37244,2.12756 -0.20765,0 -0.99515,-0.7875 -1.75,-1.75 z m 99.94006,0.0669 c 0.72187,-0.28887 1.58437,-0.25335 1.91667,0.0789 0.33229,0.33229 -0.25834,0.56864 -1.3125,0.52522 -1.16495,-0.048 -1.4019,-0.28494 -0.60417,-0.60416 z m 26,0 c 0.72187,-0.28887 1.58437,-0.25335 1.91667,0.0789 0.33229,0.33229 -0.25834,0.56864 -1.3125,0.52522 -1.16495,-0.048 -1.4019,-0.28494 -0.60417,-0.60416 z M 420.75,130.33772 c 0.6875,-0.27741 1.8125,-0.27741 2.5,0 0.6875,0.27741 0.125,0.50439 -1.25,0.50439 -1.375,0 -1.9375,-0.22698 -1.25,-0.50439 z m -173.9375,-2.02083 c 0.72187,-0.28887 1.58437,-0.25335 1.91667,0.0789 0.33229,0.33229 -0.25834,0.56864 -1.3125,0.52522 -1.16495,-0.048 -1.4019,-0.28494 -0.60417,-0.60416 z m -31.54347,-1.00988 c 0.97297,-0.25354 2.32297,-0.23687 3,0.037 0.67703,0.27393 -0.11903,0.48137 -1.76903,0.46099 -1.65,-0.0204 -2.20394,-0.2445 -1.23097,-0.49804 z m 20.48097,0.0307 c 0.6875,-0.27741 1.8125,-0.27741 2.5,0 0.6875,0.27741 0.125,0.50439 -1.25,0.50439 -1.375,0 -1.9375,-0.22698 -1.25,-0.50439 z M 414.15789,123 c 0,-1.375 0.22698,-1.9375 0.50439,-1.25 0.27741,0.6875 0.27741,1.8125 0,2.5 -0.27741,0.6875 -0.50439,0.125 -0.50439,-1.25 z m 15,0 c 0,-1.375 0.22698,-1.9375 0.50439,-1.25 0.27741,0.6875 0.27741,1.8125 0,2.5 -0.27741,0.6875 -0.50439,0.125 -0.50439,-1.25 z M 420.75,115.33772 c 0.6875,-0.27741 1.8125,-0.27741 2.5,0 0.6875,0.27741 0.125,0.50439 -1.25,0.50439 -1.375,0 -1.9375,-0.22698 -1.25,-0.50439 z M 250.19495,105.5 c 0.0204,-1.65 0.2445,-2.20394 0.49804,-1.23097 0.25354,0.97297 0.23687,2.32297 -0.0371,3 -0.27393,0.67703 -0.48137,-0.11903 -0.46099,-1.76903 z M 202.15789,105 c 0,-1.375 0.22698,-1.9375 0.50439,-1.25 0.27741,0.6875 0.27741,1.8125 0,2.5 -0.27741,0.6875 -0.50439,0.125 -0.50439,-1.25 z m 124.92106,-7.583333 c 0.048,-1.164943 0.28494,-1.4019 0.60416,-0.604167 0.28887,0.721875 0.25335,1.584375 -0.0789,1.916667 -0.33229,0.332291 -0.56864,-0.258334 -0.52522,-1.3125 z m 180,0 c 0.048,-1.164943 0.28494,-1.4019 0.60416,-0.604167 0.28887,0.721875 0.25335,1.584375 -0.0789,1.916667 -0.33229,0.332291 -0.56864,-0.258334 -0.52522,-1.3125 z M 327.15789,83 c 0,-1.375 0.22698,-1.9375 0.50439,-1.25 0.27741,0.6875 0.27741,1.8125 0,2.5 -0.27741,0.6875 -0.50439,0.125 -0.50439,-1.25 z m 179.92106,0.416667 c 0.048,-1.164943 0.28494,-1.4019 0.60416,-0.604167 0.28887,0.721875 0.25335,1.584375 -0.0789,1.916667 -0.33229,0.332291 -0.56864,-0.258334 -0.52522,-1.3125 z m -15,-2 c 0.048,-1.164943 0.28494,-1.4019 0.60416,-0.604167 0.28887,0.721875 0.25335,1.584375 -0.0789,1.916667 -0.33229,0.332291 -0.56864,-0.258334 -0.52522,-1.3125 z M 252.92431,78.25 250.5,75.5 l 2.75,2.424314 c 1.5125,1.333373 2.75,2.570873 2.75,2.75 0,0.784274 -0.8098,0.145975 -3.07569,-2.424314 z M 400.75,70.337719 c 0.6875,-0.277412 1.8125,-0.277412 2.5,0 0.6875,0.277413 0.125,0.504386 -1.25,0.504386 -1.375,0 -1.9375,-0.226973 -1.25,-0.504386 z M 394.15789,63 c 0,-1.375 0.22698,-1.9375 0.50439,-1.25 0.27741,0.6875 0.27741,1.8125 0,2.5 -0.27741,0.6875 -0.50439,0.125 -0.50439,-1.25 z m 15,0 c 0,-1.375 0.22698,-1.9375 0.50439,-1.25 0.27741,0.6875 0.27741,1.8125 0,2.5 -0.27741,0.6875 -0.50439,0.125 -0.50439,-1.25 z M 400.75,55.337719 c 0.6875,-0.277412 1.8125,-0.277412 2.5,0 0.6875,0.277413 0.125,0.504386 -1.25,0.504386 -1.375,0 -1.9375,-0.226973 -1.25,-0.504386 z M 363,37.622445 c 0,-0.207656 0.7875,-0.995156 1.75,-1.75 1.58606,-1.243871 1.62143,-1.208501 0.37756,0.377555 C 363.82119,37.915748 363,38.445479 363,37.622445 Z M 469.87244,36.25 C 468.62857,34.663944 468.66394,34.628574 470.25,35.872445 471.91575,37.178814 472.44548,38 471.62244,38 c -0.20765,0 -0.99515,-0.7875 -1.75,-1.75 z M 408.75,0.3377193 c 0.6875,-0.27741228 1.8125,-0.27741228 2.5,0 0.6875,0.27741228 0.125,0.50438596 -1.25,0.50438596 -1.375,0 -1.9375,-0.22697368 -1.25,-0.50438596 z m 15,0 c 0.6875,-0.27741228 1.8125,-0.27741228 2.5,0 0.6875,0.27741228 0.125,0.50438596 -1.25,0.50438596 -1.375,0 -1.9375,-0.22697368 -1.25,-0.50438596 z"
         id="path1548" />
      <path
         style="fill:#010100"
         d="M 219.2697,510.99608 C 212.12186,509.50061 206.24359,506.3436 200.50979,500.92081 194.92736,495.64119 189,485.62057 189,481.46272 c 0,-2.98695 -1.43612,-3.9033 -8.5,-5.42365 -15.19393,-3.27016 -40.38273,-13.79539 -54.29452,-22.68717 l -5.29453,-3.38402 -4.23013,2.47902 c -10.84744,6.35702 -24.864733,6.99533 -36.282719,1.65221 -19.882258,-9.30403 -27.847097,-33.62336 -17.355878,-52.99332 l 2.949066,-5.44487 -4.460371,-7.60818 C 51.998751,371.79345 43.202537,350.21839 39.69731,334.5 l -1.33801,-6 -6.09281,-2 c -17.538385,-5.75708 -27.5538741,-19.20611 -27.5538741,-37 0,-10.75301 2.6955721,-17.66665 9.9381481,-25.4895 C 20.226341,257.98821 30.141386,252 34.537278,252 c 2.986952,0 3.903306,-1.43612 5.42365,-8.5 3.22358,-14.97752 12.77866,-38.00726 22.38726,-53.95799 l 3.540029,-5.87661 -2.365439,-4.0827 c -6.454707,-11.14069 -7.066624,-24.54947 -1.648691,-36.12733 5.373009,-11.48185 15.210737,-18.93276 28.529222,-21.6075 7.457579,-1.49769 17.135031,0.16268 24.535351,4.20958 l 5.41427,2.96081 6.57353,-3.88879 c 16.9496,-10.02708 33.75343,-17.06746 51.57354,-21.608 l 9,-2.29319 2.16665,-6.616612 c 5.5215,-16.861834 19.26564,-26.899052 36.83335,-26.899052 10.75301,0 17.66665,2.695572 25.4895,9.938148 C 258.01179,83.226341 264,93.141386 264,97.537278 c 0,2.857312 1.55467,4.033152 6.5,4.916142 12.92968,2.30859 41.36217,14.00753 57.24976,23.55621 4.66183,2.80183 5.32301,2.96432 5.90374,1.45095 0.35969,-0.93732 -0.0824,-3.78691 -0.9823,-6.3324 C 327.0675,105.27819 325.99297,85.474151 329.86995,69.5 337.78785,36.876179 363.87618,10.787855 396.5,2.8699497 408.96563,-0.15549744 426.05497,-0.15581508 438.43994,2.8691701 455.1631,6.9537396 471.31616,16.239573 482.77551,28.356152 488.61431,34.529817 489.54254,38.457462 486,42 482.21336,45.786636 478.589,44.668963 471.27058,37.457772 459.52209,25.881416 445.68376,18.570753 430.52136,15.930337 420.99314,14.271068 404.32072,15.253643 395.5,17.994292 c -23.53323,7.31191 -42.31635,25.910246 -50.33424,49.839057 -2.30243,6.871439 -2.56933,9.222503 -2.57325,22.666651 -0.004,14.22303 0.1617,15.49744 3.20157,24.60343 1.76325,5.28188 3.19604,10.68188 3.18396,12 -0.0634,6.91881 -7.35853,15.44653 -14.13508,16.52335 -3.48806,0.55427 -5.28207,-0.23199 -24.84296,-10.88787 -12.35002,-6.72773 -26.62787,-12.10003 -42,-15.80324 -14.39086,-3.46683 -17,-4.98089 -17,-9.86495 0,-1.48925 -0.66207,-4.92689 -1.47128,-7.639219 -3.83985,-12.870637 -17.32924,-20.11483 -30.59407,-16.429904 -4.63293,1.287012 -11.48454,7.195783 -13.95171,12.031837 -1.07144,2.100198 -2.24654,6.358036 -2.61133,9.461856 -0.3648,3.10383 -1.38514,6.46132 -2.26744,7.46109 -0.99251,1.12467 -5.4171,2.6679 -11.60417,4.04735 -20.70973,4.61738 -41.61603,13.28749 -58,24.05333 -4.55329,2.99196 -9.14498,5.26097 -10.65757,5.26652 -1.47029,0.005 -4.15083,-1.25068 -6,-2.81153 -5.18719,-4.37842 -10.69453,-6.46567 -17.124549,-6.49009 -6.864165,-0.0261 -11.000903,1.53163 -16.207403,6.10294 -9.967573,8.75155 -10.354593,23.58788 -0.908165,34.81432 3.819523,4.53925 3.343552,7.55487 -2.631318,16.67132 C 66.267176,209.94243 57.603969,230.86715 53.003729,251.5 50.598396,262.28832 48.804068,265 44.070717,265 c -1.489243,0 -4.92689,0.66207 -7.639216,1.47128 -12.870637,3.83985 -20.11483,17.32924 -16.429904,30.59407 1.287012,4.63293 7.195783,11.48454 12.031837,13.95171 2.100198,1.07144 6.358034,2.24654 9.461858,2.61133 3.103825,0.3648 6.461316,1.38514 7.461092,2.26744 1.12467,0.99251 2.667893,5.4171 4.047345,11.60417 4.60024,20.63285 13.263447,41.55757 23.967266,57.88946 6.019008,9.1838 6.461154,12.12405 2.524495,16.78779 -4.362153,5.16782 -6.449133,10.6822 -6.473528,17.10487 -0.02607,6.86416 1.531628,11.0009 6.102942,16.2074 8.758557,9.97556 23.587256,10.35512 34.833996,0.89161 1.77427,-1.49295 4.42186,-2.71008 5.88353,-2.70471 1.51259,0.006 6.10428,2.27456 10.65757,5.26652 16.38397,10.76584 37.29027,19.43595 58,24.05333 10.78832,2.40533 13.5,4.19966 13.5,8.93301 0,1.48925 0.66207,4.92689 1.47128,7.63922 3.83985,12.87064 17.32924,20.11483 30.59407,16.4299 4.63293,-1.28701 11.48454,-7.19578 13.95171,-12.03183 1.07144,-2.1002 2.24654,-6.35804 2.61133,-9.46186 0.3648,-3.10383 1.38514,-6.46132 2.26744,-7.46109 0.99251,-1.12467 5.4171,-2.6679 11.60417,-4.04735 20.70973,-4.61738 41.61603,-13.28749 58,-24.05333 4.55329,-2.99196 9.14498,-5.26097 10.65757,-5.26652 1.47029,-0.005 4.15083,1.25068 6,2.81153 5.18719,4.37842 10.69453,6.46567 17.12455,6.49009 21.47331,0.0816 31.47177,-23.85588 17.09901,-40.93694 -3.71539,-4.41549 -3.42768,-7.60865 1.31555,-14.60054 10.92865,-16.10967 18.77439,-34.20395 24.25602,-55.94056 4.25852,-16.88652 3.93471,-16.47694 14.5473,-18.40066 18.66801,-3.3839 26.83722,-24.99917 14.77431,-39.09197 -4.38982,-5.12852 -9.55354,-7.78766 -16.7696,-8.63576 -3.10383,-0.3648 -6.46132,-1.38514 -7.46109,-2.26744 -1.12467,-0.99251 -2.6679,-5.4171 -4.04735,-11.60417 -4.43878,-19.90867 -11.34684,-37.06135 -22.34045,-55.47122 -6.72317,-11.25862 -7.07351,-14.1444 -2.56931,-21.1636 4.11939,-6.41951 9.0734,-10.61695 13.51378,-11.44997 2.19252,-0.41132 7.39479,0.0228 13.06563,1.09019 39.24297,7.38679 75.27747,-13.5241 87.89457,-51.0054 3.59426,-10.67737 4.43517,-26.480148 2.0385,-38.308205 -1.68468,-8.314252 -1.27443,-11.373154 1.80071,-13.426482 2.06169,-1.376625 7.2808,-0.775839 8.91126,1.025799 5.12988,5.668457 6.70873,32.728313 2.83482,48.585878 -8.10218,33.16566 -33.57515,58.64122 -66.76879,66.77557 -10.75444,2.63545 -30.35748,2.89212 -39.78911,0.52097 -6.90914,-1.73699 -7.6269,-1.57035 -9.91423,2.30179 -1.69721,2.87315 -1.67458,2.98445 1.67088,8.21864 8.94303,13.99194 17.56036,34.35602 22.134,52.30604 l 2.29319,9 6.61661,2.16665 c 16.86184,5.5215 26.89905,19.26564 26.89905,36.83335 0,10.75301 -2.69557,17.66665 -9.93814,25.4895 C 432.77366,321.01179 422.85861,327 418.46272,327 c -2.98695,0 -3.9033,1.43612 -5.42365,8.5 -3.27016,15.19393 -13.79539,40.38273 -22.68717,54.29452 l -3.38402,5.29453 2.47902,4.23013 c 6.35702,10.84744 6.99533,24.86473 1.65221,36.28272 -9.32322,19.92326 -33.50072,27.76325 -53.21469,17.25581 l -5.62562,-2.99842 -5.3794,3.43831 c -14.06954,8.99273 -34.4059,17.6036 -52.3794,22.17863 l -9,2.29088 -2,6.02961 c -4.07314,12.2797 -11.98777,20.88271 -23.11353,25.12382 -6.21342,2.36855 -15.40039,3.27152 -21.11677,2.07554 z M 210.5,450.97011 C 160.805,445.34682 117.11765,418.72719 90.743596,378 71.216304,347.84568 61.767236,310.99503 64.882569,277.14396 c 1.761783,-19.14345 6.23202,-37.93923 11.862355,-49.87706 3.043898,-6.45388 10.661547,-6.85842 13.46075,-0.71484 0.960807,2.10874 0.842688,3.4392 -0.64497,7.26473 -12.878726,33.11783 -13.973141,70.13142 -3.041877,102.87752 6.370031,19.0823 18.157463,38.49223 32.716143,53.87247 21.33396,22.53785 46.66502,36.77751 77.76503,43.71499 12.94986,2.88872 44.00941,3.11133 57.33927,0.41096 62.95012,-12.7525 110.40743,-63.5866 118.7436,-127.19273 1.59907,-12.20113 0.60389,-36.32419 -1.98822,-48.19431 -6.38834,-29.25424 -19.08594,-52.3591 -40.56848,-73.81941 -21.99275,-21.96998 -46.41688,-35.16104 -76.25627,-41.18471 -12.50665,-2.52472 -43.40668,-2.51868 -55.2699,0.0108 -19.91834,4.247 -39.39771,12.4132 -55.79583,23.39088 -8.20077,5.48999 -25.17645,21.40594 -35.24709,33.04675 -5.05789,5.84649 -8.441032,6.76605 -11.95708,3.25 -3.981388,-3.98139 -2.759483,-7.73937 5.92665,-18.22748 C 149.66667,128.12864 231.74074,110.95927 299,144.54605 c 47.4376,23.68858 79.62951,68.24589 88.10969,121.95395 1.62525,10.29332 1.62525,35.70668 0,46 C 376.84119,377.53418 331.48278,428.79527 269,445.97981 c -17.09796,4.70242 -42.15473,6.83987 -58.5,4.9903 z m -36.22882,-45.45498 c -14.49617,-4.0568 -23.68911,-16.09272 -23.68911,-31.01513 0,-27.7415 32.72303,-42.41659 53.30965,-23.90745 14.31286,12.8685 14.25042,35.00254 -0.13523,47.93648 -7.77694,6.99213 -19.52087,9.77468 -29.48531,6.9861 z m 17.15171,-15.91707 C 206.63717,380.6819 200.18994,357 182.5483,357 c -9.83588,0 -17.55345,7.73723 -17.54318,17.58786 0.0141,13.4984 14.72992,21.85973 26.41777,15.0102 z m 92.75778,-11.71672 c -14.77882,-2.45839 -30.11013,-13.99466 -37.06502,-27.89012 -5.21002,-10.4093 -6.81677,-19.69632 -5.27064,-30.4643 3.27693,-22.82209 21.31016,-41.07348 44.05157,-44.5845 34.03021,-5.25387 64.41487,25.13079 59.161,59.161 -3.39916,22.0169 -21.48243,40.43369 -43.05758,43.85172 -7.43393,1.17771 -10.3689,1.16555 -17.81933,-0.0738 z m 25.38741,-17.37085 c 7.54387,-3.69087 14.25713,-10.41567 17.9923,-18.02325 2.6577,-5.41305 2.93962,-6.94627 2.93962,-15.98724 0,-9.04097 -0.28192,-10.57419 -2.93962,-15.98724 -1.61679,-3.29298 -4.99753,-8.04515 -7.51276,-10.56038 -2.51523,-2.51523 -7.2674,-5.89597 -10.56038,-7.51276 C 304.07419,289.78192 302.54097,289.5 293.5,289.5 c -9.04097,0 -10.57419,0.28192 -15.98724,2.93962 -21.12815,10.37352 -28.08243,36.52104 -14.77809,55.56449 4.30952,6.16853 12.51312,12.36024 19.23413,14.51707 2.91154,0.93433 7.59838,1.35132 13.11204,1.16657 7.06627,-0.23678 9.62336,-0.79758 14.48724,-3.17726 z M 282.5,330.09249 c -6.37272,-2.72889 -8.05784,-10.98919 -3.22727,-15.81976 2.0606,-2.06061 3.70505,-2.72728 6.72727,-2.72728 11.62857,0 12.9772,16.99697 1.5,18.90479 -1.65,0.27427 -3.9,0.11328 -5,-0.35775 z M 114.55782,310.56508 c -13.36333,-4.95436 -19.002559,-18.97886 -12.62865,-31.40685 3.85117,-7.50908 10.72966,-11.57595 19.57083,-11.57113 12.8685,0.007 21.91617,9.05334 21.91617,21.9129 0,6.25234 -1.75805,10.91785 -5.78314,15.34732 -5.23074,5.75624 -15.86437,8.39112 -23.07521,5.71776 z m 12.12773,-15.73939 C 131.41092,290.38643 128.11184,282 121.64014,282 117.62832,282 114,285.49521 114,289.35986 c 0,6.63062 7.84682,10.01158 12.68555,5.46583 z M 192.5,310.09249 c -6.37272,-2.72889 -8.05784,-10.98919 -3.22727,-15.81976 6.07239,-6.07239 16.18182,-1.8696 16.18182,6.72727 0,6.58509 -7.12751,11.58771 -12.95455,9.09249 z m -6,-55.96552 c -8.83155,-2.30513 -16.62263,-8.69909 -20.58196,-16.89116 -3.21646,-6.65502 -3.21646,-17.8166 0,-24.47162 2.92011,-6.04187 8.80428,-11.92604 14.84615,-14.84615 6.65502,-3.21646 17.8166,-3.21646 24.47162,0 6.05099,2.92452 11.93412,8.81314 14.8323,14.84615 4.92235,10.24661 2.22791,24.78594 -6.14503,33.15889 -6.51661,6.51661 -19.27003,10.33192 -27.42308,8.20389 z m 14.25914,-16.12157 c 13.00783,-7.93097 7.44662,-27.99792 -7.75914,-27.99792 -8.53216,0 -14.99252,6.46036 -14.99252,14.99252 0,11.63623 12.90156,19.01108 22.75166,13.0054 z M 282.5,230.09249 c -6.37272,-2.72889 -8.05784,-10.98919 -3.22727,-15.81976 6.07239,-6.07239 16.18182,-1.8696 16.18182,6.72727 0,6.58509 -7.12751,11.58771 -12.95455,9.09249 z m 129.75165,-87.1423 c -8.44494,-4.28884 -12.68168,-11.8558 -12.06454,-21.54769 0.47243,-7.4194 3.72114,-12.98987 9.9984,-17.14396 C 413.82336,101.85112 415.32718,101.5 422,101.5 c 6.67282,0 8.17664,0.35112 11.81449,2.75854 2.29264,1.51719 5.40978,4.63433 6.92697,6.92697 2.40742,3.63785 2.75854,5.14167 2.75854,11.81449 0,6.67282 -0.35112,8.17664 -2.75854,11.81449 -4.29976,6.49737 -9.74032,9.57225 -17.63094,9.96458 -5.24322,0.2607 -7.48923,-0.11758 -10.85887,-1.82888 z m 14.82527,-14.87327 C 428.68462,126.46923 430,124.18462 430,123 c 0,-2.78367 -5.21633,-8 -8,-8 -2.78367,0 -8,5.21633 -8,8 0,2.78367 5.21633,8 8,8 1.18462,0 3.46923,-1.31538 5.07692,-2.92308 z M 392.25165,82.950186 C 383.80671,78.661353 379.56997,71.094391 380.18711,61.4025 c 0.47243,-7.419398 3.72114,-12.989869 9.9984,-17.143962 C 393.82336,41.851123 395.32718,41.5 402,41.5 c 6.67282,0 8.17664,0.351123 11.81449,2.758538 2.29264,1.517196 5.40978,4.634333 6.92697,6.926971 C 423.14888,54.823359 423.5,56.327176 423.5,63 c 0,6.672824 -0.35112,8.176641 -2.75854,11.814491 -4.29976,6.497373 -9.74032,9.572246 -17.63094,9.964577 -5.24322,0.260699 -7.48923,-0.117581 -10.85887,-1.828882 z M 407.07692,68.076923 C 408.68462,66.469231 410,64.184615 410,63 c 0,-2.783672 -5.21633,-8 -8,-8 -2.78367,0 -8,5.216328 -8,8 0,2.783672 5.21633,8 8,8 1.18462,0 3.46923,-1.315385 5.07692,-2.923077 z"
         id="path1546" />
    </g>
  </g>
</svg>
