<?xml version="1.0" encoding="UTF-8" standalone="no"?>
<!-- Created with Inkscape (http://www.inkscape.org/) -->

<svg
   width="119.75891mm"
   height="135.43044mm"
   viewBox="0 0 119.75891 135.43044"
   version="1.1"
   id="svg5"
   inkscape:version="1.1 (c68e22c387, 2021-05-23)"
   sodipodi:docname="brain.svg"
   xmlns:inkscape="http://www.inkscape.org/namespaces/inkscape"
   xmlns:sodipodi="http://sodipodi.sourceforge.net/DTD/sodipodi-0.dtd"
   xmlns="http://www.w3.org/2000/svg"
   xmlns:svg="http://www.w3.org/2000/svg">
  <sodipodi:namedview
     id="namedview7"
     pagecolor="#505050"
     bordercolor="#ffffff"
     borderopacity="1"
     inkscape:pageshadow="0"
     inkscape:pageopacity="0"
     inkscape:pagecheckerboard="1"
     inkscape:document-units="mm"
     showgrid="false"
     fit-margin-top="0"
     fit-margin-left="0"
     fit-margin-right="0"
     fit-margin-bottom="0"
     inkscape:zoom="0.8718206"
     inkscape:cx="205.31747"
     inkscape:cy="263.24223"
     inkscape:window-width="1538"
     inkscape:window-height="877"
     inkscape:window-x="54"
     inkscape:window-y="-8"
     inkscape:window-maximized="1"
     inkscape:current-layer="layer1" />
  <defs
     id="defs2" />
  <g
     inkscape:label="Layer 1"
     inkscape:groupmode="layer"
     id="layer1"
     transform="translate(-45.120546,-80.784785)">
    <g
       id="g10040"
       transform="translate(-99.88311,-77.797361)">
      <path
         style="fill:#f47c7c;fill-opacity:1;stroke-width:0.253911"
         d="m 153.49286,210.70058 -0.55333,-2.20745 c -0.68979,-2.7518 -0.58513,-6.66776 0.24068,-9.00601 1.76149,-4.98756 5.2342,-8.62807 9.67765,-10.14529 1.54675,-0.52813 1.57052,-0.55039 1.40803,-1.31835 -0.75482,-3.56736 -0.74881,-5.52998 0.0253,-8.26068 1.16088,-4.09503 3.94992,-7.05235 7.89387,-8.37016 0.86842,-0.29017 1.94498,-0.52758 2.39237,-0.52758 0.63774,0 1.00963,-0.22681 1.7219,-1.05017 3.40497,-3.93601 5.2536,-5.47096 8.19559,-6.80492 1.91184,-0.86686 4.94082,-1.53962 6.93193,-1.53962 3.83091,0 8.48899,1.81119 11.7519,4.56945 l 1.84937,1.56335 1.47011,-1.3525 c 1.89719,-1.74541 4.21963,-3.0993 6.76497,-3.94368 1.73416,-0.57529 2.47698,-0.67527 5.07822,-0.68352 3.52721,-0.0112 5.00233,0.34241 8.07201,1.93493 2.14958,1.11519 5.13385,3.71123 6.66677,5.79948 0.50659,0.69011 1.16818,1.30178 1.47021,1.35926 4.34061,0.82617 5.88036,1.56191 7.99126,3.81847 0.8332,0.89069 1.8127,2.24893 2.17667,3.0183 1.3777,2.91222 1.7715,6.44876 1.05056,9.43453 -0.20232,0.83791 -0.37193,1.59108 -0.3769,1.67371 -0.005,0.0826 0.47656,0.29372 1.07008,0.46909 4.51242,1.33327 8.58349,5.4178 10.13838,10.17189 0.81732,2.49897 0.9256,6.67873 0.24297,9.37821 l -0.52609,2.08034 1.61055,1.50658 c 3.09329,2.89362 4.51492,6.74704 4.53745,12.29903 0.0161,3.97692 -0.60525,6.9239 -2.07815,9.85579 l -0.96447,1.91981 0.95055,1.89138 c 1.19934,2.38641 1.61995,4.76449 1.44231,8.15442 -0.16756,3.19693 -0.63579,4.96658 -2.10836,7.96813 -1.3727,2.79801 -3.57405,5.22428 -5.56434,6.13288 l -1.26956,0.57958 -0.009,2.69667 c -0.011,3.41615 0.3762,7.17457 -2.26269,11.12995 -2.59543,4.79016 -8.03432,6.63326 -10.36895,7.06448 -0.81763,0.15101 -1.1719,0.45846 -2.384,2.06897 -2.48678,3.30416 -5.76624,5.48588 -10.11295,6.72783 -1.70812,0.48805 -2.59682,0.57659 -5.58604,0.55653 -3.07142,-0.0206 -3.85883,-0.11539 -5.79107,-0.69718 -2.50998,-0.75576 -4.21056,-1.55769 -6.28312,-2.96293 -1.56791,-1.06307 -4.09142,-3.66788 -4.7074,-4.85904 l -0.39994,-0.77342 -0.84282,1.25151 c -2.63526,3.91315 -7.97335,7.09029 -13.33368,7.93601 -1.59516,0.25167 -4.92522,0.31045 -5.96691,0.10531 l 8e-5,-2e-5 c -0.2793,-0.055 -1.13625,-0.22449 -1.90433,-0.37665 -1.93667,-0.38367 -4.4093,-1.39407 -6.25766,-2.55711 -1.61835,-1.0183 -4.98344,-4.34886 -5.46761,-5.41149 -0.20507,-0.45009 -0.71318,-0.74144 -1.95668,-1.12198 -5.68199,-1.73879 -10.24468,-7.04918 -11.82815,-13.76644 -0.21084,-0.89446 -0.38301,-2.81531 -0.38508,-4.2966 l -0.004,-2.67895 -1.16987,-0.56837 c -2.73865,-1.33054 -5.0667,-4.11721 -6.46176,-7.73472 -2.03188,-5.26884 -1.98943,-10.58264 0.11763,-14.72528 l 0.87768,-1.7256 -0.99298,-2.08307 c -1.09617,-2.29952 -2.95028,-6.9413 -1.64212,-13.26752 1.30817,-6.32623 5.74238,-10.29957 5.74239,-10.29957 z"
         id="path908-9"
         sodipodi:nodetypes="csssscsssssscssssssssscssscssscsssscccssssssscssccsssssccssscszc" />
      <path
         id="path908-9-8"
         style="fill:#e94444;fill-opacity:1;stroke-width:0.253911"
         d="m 218.34215,161.47061 c -2.60124,0.009 -3.34406,0.10809 -5.07822,0.68338 -2.54534,0.84438 -4.86816,2.19815 -6.76535,3.94356 l -1.30525,1.20111 v 115.0029 l 0.17555,0.3397 c 0.61598,1.19117 3.13937,3.79646 4.70727,4.85953 2.07256,1.40522 3.77333,2.20687 6.28331,2.96261 1.93224,0.58181 2.71994,0.67664 5.79136,0.69727 2.98922,0.0201 3.87743,-0.0683 5.58554,-0.55643 4.34671,-1.24193 7.62652,-3.42399 10.11331,-6.72813 1.21209,-1.61051 1.56625,-1.91797 2.38388,-2.069 2.33464,-0.43119 7.77377,-2.2742 10.3692,-7.06437 2.63888,-3.95537 2.25135,-7.71379 2.26239,-11.12993 l 0.009,-2.69682 1.26956,-0.57923 c 1.99027,-0.90862 4.19151,-3.33504 5.56421,-6.13304 1.47257,-3.00156 1.94062,-4.77103 2.10817,-7.96795 0.17765,-3.38992 -0.24281,-5.76801 -1.44214,-8.15441 l -0.95068,-1.89145 0.96457,-1.91971 c 1.47289,-2.93188 2.09402,-5.879 2.0779,-9.85592 -0.0226,-5.55199 -1.44389,-9.4057 -4.53718,-12.29931 l -1.61075,-1.50611 0.52618,-2.08039 c 0.68264,-2.69948 0.57431,-6.87938 -0.24301,-9.37834 -1.55488,-4.7541 -5.62566,-8.83855 -10.13809,-10.17182 -0.59351,-0.17537 -1.075,-0.38652 -1.0702,-0.46914 0.005,-0.0826 0.17457,-0.83582 0.37691,-1.67373 0.72093,-2.98577 0.32684,-6.52218 -1.05086,-9.43439 -0.36397,-0.76937 -1.3434,-2.12797 -2.1766,-3.01867 -2.11089,-2.25655 -3.65065,-2.99191 -7.99125,-3.81809 -0.30203,-0.0575 -0.96332,-0.66921 -1.46991,-1.35931 -1.53292,-2.08825 -4.51757,-4.6846 -6.66715,-5.79979 -3.06968,-1.59252 -4.54439,-1.94581 -8.07159,-1.93458 z" />
      <path
         id="path908-9-8-8"
         style="fill:#ee6161;fill-opacity:1;stroke-width:0.253911"
         d="m 204.96816,282.02112 c 0,0 2.99867,7.07656 6.07009,7.09719 2.98922,0.0201 3.87743,-0.0683 5.58554,-0.55643 4.34671,-1.24193 7.62652,-3.42399 10.11331,-6.72813 1.21209,-1.61051 1.56625,-1.91797 2.38388,-2.069 2.33464,-0.43119 7.77377,-2.2742 10.3692,-7.06437 2.63888,-3.95537 2.25135,-7.71379 2.26239,-11.12993 l 0.009,-2.69682 1.26956,-0.57923 c 1.99027,-0.90862 4.19151,-3.33504 5.56421,-6.13304 1.47257,-3.00156 1.94062,-4.77103 2.10817,-7.96795 0.17765,-3.38992 -0.24281,-5.76801 -1.44214,-8.15441 l -0.95068,-1.89145 0.96457,-1.91971 c 1.47289,-2.93188 2.09402,-5.879 2.0779,-9.85592 -0.0226,-5.55199 -1.44389,-9.4057 -4.53718,-12.29931 l -1.61075,-1.50611 0.52618,-2.08039 c 0.68264,-2.69948 0.57431,-6.87938 -0.24301,-9.37834 -1.55488,-4.7541 -5.62566,-8.83855 -10.13809,-10.17182 -0.59351,-0.17537 -1.075,-0.38652 -1.0702,-0.46914 0.005,-0.0826 0.17457,-0.83582 0.37691,-1.67373 0.72093,-2.98577 0.32684,-6.52218 -1.05086,-9.43439 -0.36397,-0.76937 -1.3434,-2.12797 -2.1766,-3.01867 -2.11089,-2.25655 -3.65065,-2.99191 -7.99125,-3.81809 -0.30203,-0.0575 -0.96332,-0.66921 -1.46991,-1.35931 -1.53292,-2.08825 -4.51757,-4.6846 -6.66715,-5.79979 -3.06968,-1.59252 -9.89249,6.56296 -9.89249,6.56296 z"
         sodipodi:nodetypes="cscssccccsscccccccssccssssscc" />
    </g>
    <path
       style="fill:#000000;stroke-width:0.264583"
       d="m 83.975707,216.08587 c -0.29104,-0.0573 -1.18401,-0.23393 -1.98437,-0.3925 -2.01807,-0.39979 -4.59463,-1.45266 -6.52068,-2.66458 -1.68637,-1.0611 -5.1929,-4.53165 -5.69742,-5.63895 -0.21369,-0.46899 -0.74316,-0.7726 -2.03892,-1.16912 -5.92081,-1.81189 -10.67528,-7.34548 -12.3253,-14.34506 -0.21971,-0.93206 -0.39911,-2.93365 -0.40127,-4.4772 l -0.004,-2.79155 -1.21904,-0.59227 c -2.85376,-1.38646 -5.27966,-4.29025 -6.73336,-8.05982 -2.11728,-5.49028 -2.07305,-11.02744 0.12258,-15.3442 l 0.91457,-1.79812 -1.03472,-2.17063 c -1.14224,-2.39617 -1.85781,-4.8897 -1.92684,-6.7144 -0.0365,-0.96468 0.0738,-1.28765 0.57956,-1.69723 1.37202,-1.11115 3.04093,-0.34801 3.34578,1.5299 0.33283,2.0503 1.45689,5.28689 2.25416,6.49055 1.24298,1.87655 3.4821,3.98556 5.20131,4.89905 1.95186,1.03711 4.0789,1.57863 7.09496,1.8063 1.86375,0.14068 2.51062,0.29765 2.97656,0.72225 0.86294,0.78638 0.80183,2.09961 -0.13229,2.84285 -0.6717,0.53442 -0.93091,0.56776 -3.37344,0.43385 -1.45521,-0.0798 -3.36021,-0.33284 -4.23333,-0.56234 -2.11383,-0.55564 -5.55727,-2.26602 -6.92507,-3.43979 l -1.10424,-0.94757 -0.59839,1.52464 c -0.49919,1.27189 -0.59796,2.02908 -0.5958,4.56736 0.002,2.58009 0.10979,3.3677 0.70761,5.18012 0.79691,2.41601 2.27897,4.87284 3.67873,6.09831 0.90336,0.79088 2.3919,1.46521 3.99391,1.80931 1.06918,0.22965 1.49743,1.37783 1.17178,3.14163 -0.13866,0.75098 -0.19559,2.55604 -0.12651,4.01125 0.33115,6.97603 4.77209,12.86598 10.75272,14.26116 0.86469,0.20172 1.70394,0.44821 1.86501,0.54776 0.16107,0.0995 0.83366,1.00188 1.49464,2.00519 1.59952,2.42791 3.48458,4.07958 6.08687,5.33325 9.39769,4.5274 21.661983,-0.48219 23.381793,-9.55076 0.17559,-0.92589 0.27007,-14.32464 0.27007,-38.30255 v -36.87852 l -0.7039,-1.11922 c -1.09656,-1.74356 -3.597563,-3.99347 -5.432183,-4.88678 -2.34743,-1.14302 -4.30755,-1.48506 -7.24737,-1.26465 -2.26033,0.16946 -2.48744,0.14152 -2.99774,-0.36878 -0.78313,-0.78313 -0.73093,-2.14402 0.11265,-2.93651 0.59842,-0.56219 0.96209,-0.63592 3.64305,-0.73854 4.40871,-0.16875 7.71013,0.83462 11.037993,3.35466 l 1.4552,1.10197 0.0685,-13.95211 0.0685,-13.952105 -1.46393,-1.47936 c -1.715523,-1.73361 -3.668383,-2.97536 -6.149803,-3.91042 -2.42486,-0.91374 -6.30034,-0.96055 -8.64492,-0.10443 -2.21359,0.80829 -4.208,2.06723 -5.90125,3.72508 l -1.45644,1.42599 1.81778,0.8508 c 0.99979,0.46794 2.38288,1.354 3.07355,1.96903 1.53805,1.36962 3.90362,4.90413 3.90362,5.83258 0,1.457095 -1.65364,2.529665 -2.88451,1.870935 -0.29385,-0.15727 -1.05921,-1.08793 -1.70079,-2.068145 -2.28087,-3.48471 -4.11651,-4.59316 -7.68093,-4.63812 -4.18115,-0.0528 -7.07841,1.50428 -8.61786,4.63136 -1.5976,3.245195 -1.60671,6.554245 -0.0273,9.929305 0.96119,2.05402 0.9725,2.224 0.2072,3.11372 -0.49307,0.57322 -0.93817,0.73535 -2.57969,0.93968 -7.87256,0.97993 -12.63117,9.52541 -9.64584,17.32194 0.89531,2.33821 1.07157,3.45432 0.62963,3.98683 -0.18935,0.22815 -1.0216,0.75673 -1.84944,1.17462 -1.72515,0.87086 -2.86685,2.17715 -3.84613,4.4006 -0.37385,0.84881 -0.86636,1.75165 -1.09449,2.00631 -0.61098,0.68207 -1.8261,0.58122 -2.6252,-0.21787 -0.56684,-0.56684 -0.65463,-0.84275 -0.52409,-1.64716 0.3019,-1.86037 1.76323,-4.33933 3.66643,-6.21962 l 1.82275,-1.8008 -0.57659,-2.30024 c -0.71878,-2.86746 -0.60972,-6.94801 0.2508,-9.38454 1.83553,-5.19719 5.4542,-8.99072 10.08441,-10.57171 1.61176,-0.55033 1.63653,-0.57352 1.46721,-1.37376 -0.78654,-3.7173 -0.78028,-5.76241 0.0264,-8.607895 1.20967,-4.26715 4.11594,-7.34877 8.22566,-8.72196 0.90492,-0.30236 2.02673,-0.54975 2.49292,-0.54975 0.66455,0 1.05207,-0.23635 1.79428,-1.09432 3.54808,-4.10145 5.47441,-5.7009 8.54006,-7.09094 1.99219,-0.9033 5.14848,-1.60433 7.22328,-1.60433 3.99193,0 8.8458,1.88732 12.245853,4.76152 l 1.9271,1.62906 1.5319,-1.40935 c 1.97693,-1.81878 4.39699,-3.22957 7.04931,-4.10945 1.80705,-0.59946 2.58109,-0.70365 5.29167,-0.71225 3.67546,-0.0117 5.21258,0.35681 8.41128,2.01626 2.23993,1.16206 5.34964,3.86722 6.94699,6.04324 0.52788,0.71912 1.21728,1.3565 1.532,1.4164 4.52305,0.8609 6.12752,1.62756 8.32714,3.97895 0.86822,0.92813 1.88889,2.34346 2.26816,3.14517 1.43561,3.034625 1.84596,6.719815 1.09472,9.831075 -0.21083,0.87313 -0.38756,1.65796 -0.39274,1.74406 -0.005,0.0861 0.49659,0.30607 1.11505,0.48881 4.70209,1.38931 8.94427,5.64551 10.56451,10.59943 0.85167,2.604 0.96451,6.95944 0.25318,9.77238 l -0.54819,2.16778 1.67824,1.56991 c 3.2233,3.01524 4.70468,7.03062 4.72816,12.81597 0.0168,4.14407 -0.63069,7.21492 -2.16549,10.27004 l -1.005,2.0005 0.9905,1.97088 c 1.24974,2.48671 1.68804,4.96475 1.50292,8.49716 -0.17459,3.3313 -0.66251,5.17533 -2.19697,8.30304 -1.4304,2.91561 -3.72428,5.44386 -5.79821,6.39065 l -1.32292,0.60394 -0.009,2.81002 c -0.0115,3.55973 -0.67019,6.41392 -1.65999,7.1925 -0.92278,0.72586 -2.09584,0.58392 -2.77986,-0.33636 -0.51884,-0.69806 -0.5212,-0.76761 -0.0923,-2.7195 0.46488,-2.11566 0.56062,-5.61274 0.20407,-7.45361 -0.3266,-1.68622 0.18296,-2.63579 1.60591,-2.99257 2.59327,-0.65021 4.0122,-1.69305 5.55814,-4.08493 2.55237,-3.94901 3.27136,-9.97811 1.65326,-13.86342 l -0.36406,-0.87417 -1.39661,1.04344 c -3.10813,2.32216 -6.39679,3.45107 -10.69715,3.67205 -2.91549,0.14982 -2.95872,0.14345 -3.63802,-0.53585 -0.8211,-0.8211 -0.87733,-1.72172 -0.1641,-2.62844 0.46106,-0.58613 0.79975,-0.6883 2.84427,-0.85795 6.62329,-0.54961 10.60157,-2.95115 13.02154,-7.86061 1.32251,-2.68302 1.85767,-5.10589 1.85856,-8.41452 0.002,-5.37258 -2.08536,-9.93888 -5.08306,-11.12253 -1.2534,-0.49492 -2.05236,-1.30776 -2.05096,-2.08661 7.9e-4,-0.37482 0.37103,-1.63227 0.82304,-2.79434 1.80474,-4.63986 1.03595,-9.74304 -2.03876,-13.53308 -1.7053,-2.10204 -5.53263,-4.06552 -7.92474,-4.06552 -1.20493,0 -2.11938,-0.45561 -2.47325,-1.23225 -0.42348,-0.92944 -0.38178,-1.16787 0.50673,-2.89778 1.02267,-1.99113 1.41172,-4.34431 1.06953,-6.46912 -0.54336,-3.373945 -2.26145,-5.801605 -5.02213,-7.096245 -1.31405,-0.61623 -1.80109,-0.69315 -4.38851,-0.69315 -2.73201,0 -2.99733,0.0481 -4.32827,0.78532 -1.56929,0.86921 -2.89803,2.2769 -3.92348,4.15666 -0.82259,1.507885 -1.81779,2.027115 -2.97034,1.549715 -0.44009,-0.18229 -0.91496,-0.66678 -1.10629,-1.12872 -0.30101,-0.726705 -0.26291,-0.947285 0.37313,-2.160125 1.6583,-3.16212 4.29279,-5.7388 6.87119,-6.72044 l 1.26594,-0.48196 -1.66281,-1.59178 c -2.62685,-2.51463 -4.87995,-3.63376 -8.14511,-4.04574 -4.46193,-0.56297 -9.62772,1.44707 -12.70574,4.94389 l -1.05259,1.19581 v 13.853375 c 0,7.61935 0.0704,13.85337 0.15638,13.85337 0.086,0 0.63266,-0.40769 1.2148,-0.90598 1.44191,-1.23422 4.2426,-2.66556 6.20763,-3.17253 1.84329,-0.47555 6.32084,-0.56093 7.80453,-0.14882 1.13793,0.31608 1.48945,0.68349 1.71027,1.78761 0.13177,0.65882 0.0273,0.95331 -0.53937,1.51995 -0.68894,0.68893 -0.75089,0.6994 -3.13842,0.53045 -2.86635,-0.20284 -4.70351,0.10068 -6.93768,1.14617 -1.86381,0.87218 -4.49658,3.21294 -5.66934,5.04052 l -0.82448,1.28484 0.0747,37.53546 0.0747,37.53545 0.56721,1.48329 c 1.74124,4.55338 5.52799,7.69465 10.98547,9.1129 2.1154,0.54974 6.63579,0.54296 8.81873,-0.0132 3.89014,-0.99115 7.3356,-3.45477 9.43524,-6.74652 1.16717,-1.82985 1.40585,-2.01595 2.86789,-2.23618 1.53214,-0.23078 4.07403,-1.45157 5.42396,-2.60495 1.27917,-1.09294 1.96788,-1.33805 2.83415,-1.0087 0.78831,0.29972 1.39043,1.61742 1.1595,2.53751 -0.33756,1.34497 -4.94285,4.32774 -7.37561,4.77708 -0.852,0.15736 -1.22116,0.47773 -2.4842,2.15593 -2.59131,3.44304 -6.00861,5.71646 -10.53801,7.01061 -1.77992,0.50857 -2.70597,0.60083 -5.82083,0.57993 -3.20052,-0.0215 -4.02102,-0.12024 -6.03448,-0.72649 -2.61548,-0.78752 -4.38753,-1.62316 -6.5472,-3.08746 -1.63381,-1.10776 -4.26339,-3.82205 -4.90526,-5.06328 l -0.41675,-0.80592 -0.87824,1.30411 c -2.74603,4.07762 -8.308483,7.3883 -13.894113,8.26957 -1.66221,0.26225 -5.13223,0.3235 -6.21771,0.10974 z m 2.71313,-18.61416 c -0.57071,-0.44892 -0.69186,-0.81643 -0.85045,-2.57969 -0.36891,-4.10193 -1.29452,-6.50662 -3.33497,-8.66409 -2.46658,-2.60805 -5.20763,-3.97615 -10.16937,-5.0757 -3.13665,-0.69509 -3.83646,-1.14287 -3.83646,-2.45479 0,-0.71058 0.77699,-1.6454 1.6096,-1.93657 0.52176,-0.18245 4.55927,0.64273 6.85707,1.40144 4.9853,1.64609 9.09743,4.92492 10.93668,8.7204 1.21276,2.50264 1.74576,4.54339 1.94551,7.44899 0.15197,2.21047 0.13366,2.31337 -0.52953,2.97657 -0.82065,0.82065 -1.72136,0.87666 -2.62808,0.16344 z m 33.750233,-0.16304 c -0.66518,-0.66519 -0.6811,-0.7572 -0.51189,-2.95863 0.54388,-7.0757 3.68389,-11.87218 9.68915,-14.80056 2.87312,-1.40103 7.34235,-2.7289 9.45346,-2.80873 1.4022,-0.053 2.18821,0.68709 2.18821,2.06048 0,1.26103 -0.66989,1.68343 -3.78656,2.38767 -7.69614,1.73901 -11.70712,4.9809 -13.01246,10.51739 -0.21509,0.91229 -0.39284,2.35248 -0.39499,3.20042 -0.003,1.34853 -0.10082,1.63861 -0.77731,2.3151 -0.9691,0.96911 -1.93586,0.9986 -2.84761,0.0869 z M 81.329877,169.11813 c -1.26366,-0.69938 -1.57148,-2.07938 -0.70305,-3.15185 0.36924,-0.45598 0.88785,-0.64933 2.13665,-0.79657 4.71856,-0.55637 8.37852,-4.32497 8.91782,-9.18256 0.20386,-1.83619 0.874,-2.70652 2.084,-2.70652 1.87708,0 2.46461,2.01381 1.57924,5.41297 -1.45075,5.5698 -6.38738,9.81208 -12.29487,10.56554 -0.67667,0.0863 -1.41905,0.0254 -1.71979,-0.14101 z m 43.861493,-0.0978 c -3.96552,-0.86165 -7.99691,-4.02594 -9.69905,-7.6129 -2.13405,-4.49713 -1.91615,-8.12678 0.48786,-8.12678 1.4724,0 1.99427,0.662 2.27322,2.88364 0.32074,2.55434 1.23887,4.49784 2.87998,6.09633 1.62073,1.57864 3.67661,2.59071 5.8728,2.89106 1.31593,0.17996 1.77468,0.37334 2.28037,0.96124 0.76268,0.88666 0.63978,1.8219 -0.35639,2.712 -0.75313,0.67294 -1.38831,0.70614 -3.73879,0.19541 z M 66.564687,150.88742 c -0.72986,-0.45123 -1.05451,-1.54463 -0.70743,-2.38256 0.34796,-0.84004 1.02505,-1.20917 2.62909,-1.43326 2.9388,-0.41058 5.68961,-2.63961 6.52397,-5.28648 0.43336,-1.37478 0.43898,-1.53972 0.0597,-1.75197 -1.30332,-0.72937 -3.78653,-2.83858 -4.74494,-4.03028 -2.62154,-3.25969 -4.5393,-9.75865 -3.34042,-11.32016 0.83469,-1.08715 2.34723,-1.22011 3.19709,-0.28102 0.22689,0.25071 0.52122,1.41472 0.67972,2.68817 0.37533,3.01563 1.44299,5.17859 3.61077,7.31498 4.74953,4.68079 11.77711,5.05276 15.88269,0.84067 0.71154,-0.73 1.5616,-1.43263 1.88902,-1.5614 1.29403,-0.50891 2.93802,0.93282 2.59989,2.28003 -0.43769,1.7439 -4.28159,4.75942 -7.25658,5.69275 -1.47324,0.46219 -2.28882,0.53791 -5.01361,0.46547 l -3.25416,-0.0865 -0.61768,1.51833 c -1.67517,4.11774 -5.84697,7.28409 -9.91473,7.52517 -1.01041,0.0599 -1.94573,-0.0209 -2.22238,-0.19193 z M 138.741,150.68806 c -2.05498,-0.71059 -3.56363,-1.70675 -5.22804,-3.45202 -1.47125,-1.54275 -2.83033,-3.88568 -2.83571,-4.88849 -0.002,-0.43554 -0.1494,-0.46107 -1.52394,-0.26458 -3.882,0.55493 -7.52521,-0.1894 -10.45919,-2.13687 -1.65562,-1.09894 -3.26004,-2.75835 -3.64441,-3.76932 -0.3352,-0.88165 0.1733,-1.95716 1.14569,-2.42322 1.00488,-0.48162 1.515,-0.25485 3.23544,1.43832 0.81875,0.80578 2.1162,1.75235 2.88323,2.10351 4.05953,1.85851 9.46571,0.6349 13.06153,-2.9563 2.05996,-2.05732 3.08379,-4.14997 3.59218,-7.34221 0.42265,-2.65392 0.79085,-3.19081 2.18823,-3.19081 1.38183,0 1.95407,0.79813 1.95407,2.72539 0,4.65119 -3.36247,10.50858 -7.38155,12.85857 -1.18433,0.69249 -1.33816,0.87813 -1.20579,1.4552 0.72174,3.14656 3.81459,5.88979 7.07591,6.27604 2.30008,0.27241 3.22917,1.81013 2.02139,3.34557 -0.4793,0.60934 -0.73755,0.69606 -2.05052,0.68851 -0.82618,-0.005 -2.09902,-0.21503 -2.82852,-0.46729 z"
       id="path908" />
  </g>
</svg>
