<svg id="Capa_1" enable-background="new 0 0 511.991 511.991" height="512" viewBox="0 0 511.991 511.991" width="512" xmlns="http://www.w3.org/2000/svg"><g><g><g><path d="m476.275 157.111c-12.806-82.313-78.871-122.254-153.423-137.867.009.005 1.869 4.486-.136-.334-5.377-1.137-12.335-3.087-19.441-4.092-34.849-4.781-74.985-9.219-111.513.604-5.855 1.575-11.701 3.411-17.527 5.534.029-.005.058-.009.086-.014-9.074 3.44-16.978 6.689-27.291 12.475-41.463 23.295-70.508 62.146-74.023 116.033-1.193 18.291-9.078 27.13-10.859 34.779-2.164 9.292 7.716 18.833 11.66 28.013 1.652 3.845 1.382 8.277-.668 11.926-8.13 14.472-18.332 24.316-30.536 33.712-7.111 5.474-12.536 10.366-12.517 18.89.022 9.942 6.246 16.437 19.605 20.545 25.591 7.87-5.349 27.932-5.349 27.932s-4.287 6.173 2.718 11.758c5.396 4.303 8.865 7.876 10.622 9.837.762.85.643 2.146-.231 2.881-5.041 4.24-6.176 8.575-6.005 11.92.165 3.227 2.357 5.992 5.418 7.026 2.321.784 5.402 2.05 8.08 3.903 2.55 1.765 4.12 5.952 2.352 9.112-3.281 5.864-7.754 12.887-4.703 25.28 4.703 19.107 20.734 26.175 36.816 28.807 11.284 1.847 34.648-2.069 58.423-5.291 41.986-5.69 61.281 28.97 73.653 58.797l-.002.001c.562 2.135 1.602 4.218 2.999 6.123 4.719 6.435 18.729 7.266 26.993 4.844l138.207-36.765c11.58-2.98 18.009-15.339 13.85-26.559-11.991-32.301-24.878-77.412-9.084-95.649.757-.835.148-.192 1.757-1.811 46.737-42.296 64.572-70.519 69.729-113.929 0 .001-5.61-.014 0 .001 2.039-21.06 3.905-44.302.34-68.422z" fill="#fed2a4"/><path d="m433.572 318.049c10.059-10.581 21.301-23.375 29.81-38.637 15.27-26.058 18.311-58.715 18.524-90.67-.147-17.383-1.317-34.669-6.899-53.013-9.079-30.414-28.48-58.157-55.909-78.661.003.003.005.007.008.01-28.091-21.363-62.844-35.247-98.284-42.668.01 0 .02.01.02.02-5.37-1.14-13.7-2.66-20.809-3.66-37.439-5.14-77.237-5.2-116.396 7.02 31.289-5.99 62.588-5.11 92.397-1.02 7.11 1 15.439 2.52 20.809 3.66 0-.01-.01-.02-.02-.02 74.547 15.61 146.074 59.788 158.884 142.105 1.59 10.78 2.2 21.639 2.2 32.229 0 13.119-.93 25.839-2.06 37.489-3.077 25.845-10.274 46.125-25.46 67.229-7.954 8.971-17.59 18.461-29.297 29.058-.603.572-1.183 1.072-3.02 3.1-16.349 18.869-14.039 55.648 7.04 112.446.71 1.89.14 3.46-.26 4.23-.4.75-1.34 2.09-3.26 2.58l-167.105 44.524c3.82 5.21 10.32 9.1 17.039 9.1 1.58 0 3.17-.21 4.74-.67l149.064-38.428c11.58-2.98 18.009-15.339 13.849-26.559-11.99-32.299-25.569-79.157-9.78-97.396.1-.12.21-.23.31-.35 4.505-4.703 4.035-2.953 23.865-23.048z" fill="#ffbd86"/></g><path d="m290.035 301.22-8.444-23.369 45.957-8.553 57.191 16.596c-.19 3.411-2.713 8.068-3.83 11.489-.919 2.816 2.333 8.235.867 10.698-8.57 14.4-25.736 22.34-42.674 18.738-10.193-2.168-18.563-7.975-24.147-15.714-.571-.791-1.51-1.239-2.485-1.199-2.972.121-6.012-.198-9.037-1.008-5.245-1.406-9.796-4.112-13.398-7.678z" fill="#dc4955"/><path d="m387.316 289.87c-.19 3.41-.82 6.86-1.94 10.28-.92 2.82-2.13 5.47-3.6 7.93-3.05.36-6.13.55-9.24.55-4.98 0-9.98-.49-14.87-1.47-11.899-2.368-22.775-7.304-32.086-14.495-.303-.234-.708-.271-1.049-.096-8.228 4.214-17.388 6.452-26.835 6.452-2.9 0-5.81-.22-8.69-.66l-7.41-20.51 45.95-8.55z" fill="#d82f3c"/><path d="m424.4 201.723c8.622-6.538 15.706-15.868 18.723-27.128 6.971-25.672-5.36-53.179-31.039-61.133-.227-.07-.455-.139-.684-.207-1.062-.312-1.872-1.202-2.072-2.291-3.418-18.574-17.155-34.465-36.61-39.678-13.99-3.749-28.181-1.239-39.604 5.811-1.479.913-3.404.418-4.233-1.109-7.535-13.878-20.53-24.757-36.988-29.167-20.752-5.561-41.879.537-56.434 14.276-.974.919-2.445 1.06-3.587.359-3.643-2.236-7.662-3.995-12.002-5.158-23.266-6.234-47.143 6.782-54.755 29.279-.362 1.07-1.326 1.839-2.449 1.961-21.328 2.324-40.054 17.412-45.941 39.381-3.007 11.221-2.207 22.56 1.592 32.663.379 1.007.237 2.146-.449 2.975-4.839 5.85-8.344 12.984-9.891 21.077-4.353 22.766 8.961 45.588 30.922 52.999 15.845 5.347 32.277 1.782 44.225-7.75l.064.018c.724 16.09 10.697 28.089 27.083 32.48 4.993 1.338 11.027 4.079 15.849 3.434 3.845 6.368 10.611 9.723 18.363 11.8 9.749 2.612 19.102 1.67 26.301-4.343 4.537 3.784 10.576 4.926 16.658 6.556 14.698 3.938 29.017 1.316 39.274-8.474l.038.011c6.317 7.482 14.513 13.485 24.122 17.197 3.215 1.242 9.795.702 13.309 1.401 29.721 5.912 53.054-11.39 62.255-40.263 4.895-15.362 3.501-30.02-2.937-43.324-.614-1.271-.23-2.798.897-3.653z" fill="#df646e"/><path d="m426.586 205.51c6.44 13.3 8.02 29.04 3.13 44.4-9.2 28.87-39.01 46.49-68.74 40.58-3.51-.7-6.88-1.68-10.1-2.92 26.58 1.24 51.56-16.3 59.84-43.34 4.89-15.98 3.31-32.35-3.13-46.19-.62-1.32-.23-2.91.89-3.8 8.62-6.8 15.23-16.52 18.24-28.23 5.05-19.33-1.38-39.74-15.06-52.67 25.94 7.78 41.08 35.57 34.06 61.38-3.01 11.26-9.62 20.6-18.24 27.13-1.12.86-1.51 2.39-.89 3.66z" fill="#dc4955"/><path d="m278.279 262.309 18.627 82.308c1.055 5.388-3.902 10.018-9.206 8.597l-20.027-4.767c-5.626-1.508-10.055-5.846-11.678-11.44l-4.764-6.302-20.193-69.321z" fill="#df646e"/><path d="m289.936 356.52-24.77-6.64c-5.63-1.51-10.06-5.85-11.68-11.44l-2.24-7.74 25.44 6.82c3.58.96 6.92-2.16 6.2-5.79l-13.379-68.9 14.468 4.596 15.171 80.494c1.05 5.39-3.9 10.02-9.21 8.6z" fill="#dc4955"/><g><path d="m166.487 201.486c2.584 6.313 7.186 11.721 13.23 15.259-1.119 21.069 12.763 40.761 33.623 46.35 4.309 1.154 8.691 1.671 13.095 1.538 4.951 6.248 11.75 10.735 19.553 12.825 9.762 2.615 20.111 1.125 28.689-3.952 4.35 2.837 9.103 4.955 14.192 6.317 4.291 1.15 8.614 1.703 12.879 1.702 12.544-.001 24.566-4.783 33.649-13.222l.376-14.814c-7.093 15.168-26.825 16.184-43.022 11.845-4.87-1.304-9.297-3.599-13.159-6.819-2.784-2.322-6.83-2.321-9.611.003-5.585 4.664-13.101 6.327-20.109 4.452-5.594-1.499-10.327-5.061-13.327-10.029-1.543-2.555-4.454-3.95-7.414-3.557-3.986.532-7.991.271-11.906-.777-15.27-4.092-24.959-19.457-22.058-34.982.682-3.648-1.407-7.246-4.913-8.463-7.569-2.628-12.229-12.255-10.979-20.182z" fill="#dc4955"/></g><g><circle cx="288.407" cy="160.952" fill="#faf8f8" r="15"/></g></g><g><path d="m489.38 184.465c0-60.32-27.334-109.684-79.049-142.753-41.452-26.509-98.438-41.712-156.345-41.712-48.001 0-92.755 13.007-126.018 36.624-3.377 2.398-4.171 7.08-1.773 10.457s7.08 4.17 10.458 1.773c30.747-21.831 72.417-33.854 117.333-33.854 55.119 0 109.16 14.342 148.264 39.349 47.188 30.176 72.13 75.169 72.13 130.116 0 68.101-8.952 96.001-68.215 149.634-17.039 15.42-15.071 50.545 6.015 107.383 1.269 3.421 1.039 7.081-.647 10.307-1.678 3.211-4.535 5.478-8.044 6.382l-24.365 6.28c-4.011 1.034-6.424 5.124-5.391 9.135.872 3.383 3.918 5.63 7.257 5.63.62 0 1.25-.077 1.877-.239l24.365-6.28c7.563-1.949 13.976-7.037 17.594-13.958 3.625-6.937 4.142-15.127 1.417-22.473-17.669-47.629-21.319-80.813-10.013-91.045 62.578-56.632 73.15-89.81 73.15-160.756z"/><path d="m345.211 473.192-90.792 23.403c-6.11 1.58-12.503-1.639-14.873-7.478-8.895-21.908-29.718-73.22-82.691-66.039-3.716.503-7.421 1.023-11.073 1.536-18.059 2.538-36.73 5.161-45.134 3.785-17.798-2.914-27.568-10.285-30.747-23.198-2.042-8.198.488-14.178 3.966-19.827 3.92-7.008.65-15.288-4.627-18.94-3.53-2.444-7.465-4.033-10.333-4.976-.075-1.622.691-4.083 4.571-6.88 1.645-1.187 2.739-2.987 3.034-4.994.294-2.007-.236-4.047-1.47-5.655.051-.466-6.861-7.404-14.358-13.884 6.214-4.415 18.073-14.413 16.533-25.468-.644-4.625-3.821-10.879-15.294-14.408-12.56-3.862-14.3-8.72-14.311-13.394-.01-4.767 2.819-7.716 9.593-12.931 10.706-8.242 22.939-18.963 32.501-35.983 3.191-5.682 3.572-12.62 1.02-18.562-1.513-3.521-3.614-6.849-5.647-10.067-3.122-4.945-6.351-10.059-5.6-13.283.409-1.756 1.515-4.093 2.795-6.799 3.104-6.56 7.354-15.542 8.245-29.194 2.004-30.744 12.698-57.398 31.782-79.221 2.727-3.118 2.41-7.856-.708-10.583-3.118-2.728-7.856-2.41-10.583.708-21.305 24.362-33.235 54.01-35.459 88.119-.705 10.799-3.962 17.683-6.835 23.756-1.58 3.339-3.072 6.493-3.845 9.812-2.173 9.332 2.98 17.493 7.526 24.693 1.801 2.853 3.503 5.548 4.549 7.981.721 1.679.603 3.657-.316 5.293-6.642 11.822-14.92 20.933-28.574 31.444-6.161 4.743-15.471 11.91-15.443 24.85.03 13.307 8.408 22.626 24.902 27.698 3.201.984 4.432 1.943 4.812 2.31-.46 2.51-6.239 8.38-12.037 12.162-.817.53-1.524 1.215-2.08 2.015-3.333 4.799-4.964 14.592 4.203 21.901 2.499 1.992 4.542 3.81 6.15 5.339-6.772 8.718-5.025 18.409-1.437 23.667 1.077 1.579 2.741 2.691 4.607 3.103 1.405.309 5.641 1.547 8.733 3.603-3.257 5.709-8.654 15.283-5.129 30.181 4.663 18.941 19.093 30.521 42.89 34.416 10.651 1.743 28.722-.795 49.643-3.733 3.628-.51 7.31-1.026 11.001-1.527 36.408-4.924 53.614 24.392 66.778 56.818 4.298 10.588 14.64 17.231 25.662 17.23 2.271 0 4.573-.282 6.854-.87l90.792-23.403c4.011-1.034 6.424-5.124 5.391-9.135-1.036-4.012-5.127-6.425-9.137-5.391z"/><path d="m452.963 176.66c7.893-29.46-8.469-59.806-36.818-69.746-4.827-20.736-20.672-37.294-41.486-42.871-14.043-3.763-28.771-2.128-41.504 4.423-8.975-14.153-22.938-24.498-39.321-28.888-21.431-5.742-44.276-.455-60.997 13.8-3.492-1.845-7.182-3.293-11.026-4.322-13.438-3.6-27.515-1.825-39.637 4.997-10.614 5.976-18.7 15.237-23.163 26.407-23.683 3.705-43.247 21.071-49.53 44.52-3.112 11.616-2.765 23.578.975 34.869-4.134 5.509-7.135 11.694-8.943 18.441-2.786 10.397-2.439 21.262 1 31.419 1.329 3.924 5.588 6.03 9.509 4.698 3.923-1.328 6.026-5.586 4.698-9.509-2.486-7.342-2.734-15.2-.719-22.726 1.6-5.968 4.486-11.324 8.581-15.922 1.914-2.149 2.429-5.204 1.327-7.862-3.916-9.438-4.586-19.648-1.939-29.526 5.069-18.917 21.597-32.586 41.127-34.014 3.119-.229 5.769-2.367 6.649-5.368 5.749-19.584 26.469-31.215 46.182-25.937 4.171 1.118 8.086 2.92 11.639 5.356 3 2.06 7.049 1.666 9.598-.934 13.174-13.438 32.633-18.762 50.786-13.9 14.804 3.967 27.065 14.196 33.64 28.064.95 2.004 2.738 3.484 4.884 4.044 2.148.563 4.431.142 6.237-1.144 10.497-7.459 23.643-9.827 36.064-6.5 16.599 4.448 28.935 18.315 31.43 35.327.438 2.992 2.632 5.429 5.562 6.178l.356.086c22.87 6.162 36.482 29.77 30.35 52.655-2.653 9.903-8.778 18.547-17.247 24.34-3.16 2.162-4.185 6.356-2.377 9.731 6.321 11.802 7.893 25.425 4.427 38.358-7.492 27.96-36.334 44.609-64.295 37.121-8.307-2.226-15.815-6.38-22.03-12.134 2.151-2.805 4.029-5.878 5.58-9.194 1.754-3.752.135-8.217-3.617-9.971-3.751-1.754-8.217-.135-9.971 3.617-7.093 15.168-23.999 23.028-40.194 18.688-4.87-1.304-9.297-3.599-13.159-6.819-2.784-2.322-6.83-2.321-9.611.003-5.585 4.664-13.103 6.327-20.109 4.452-5.594-1.499-10.327-5.061-13.327-10.029-1.543-2.556-4.455-3.95-7.414-3.557-3.986.531-7.991.271-11.906-.777-15.27-4.092-24.959-19.457-22.058-34.982.682-3.648-1.407-7.246-4.913-8.463-7.569-2.628-12.155-10.289-10.905-18.217.824-5.228 3.989-9.639 8.685-12.102 3.668-1.925 5.081-6.459 3.156-10.126-1.924-3.667-6.458-5.08-10.126-3.157-8.805 4.621-14.985 13.237-16.532 23.049-2.054 13.031 4.174 25.688 15.188 32.137-.005.087-.004.174-.008.262-9.408 6.299-20.861 8.235-31.932 5.271-2.821-.757-5.547-1.818-8.103-3.156-3.669-1.923-8.202-.506-10.124 3.164-1.922 3.669-.505 8.202 3.165 10.123 3.531 1.85 7.291 3.315 11.178 4.357 4.589 1.229 9.28 1.831 13.95 1.831 8.306 0 16.545-1.908 24.024-5.569 4.621 14.263 16.162 25.965 31.472 30.066 4.308 1.155 8.692 1.667 13.095 1.538 1.733 2.187 3.703 4.143 5.853 5.871l17.994 62.023c2.34 8.063 8.831 14.422 16.94 16.595l24.776 6.639c1.293.347 2.602.517 3.898.517 3.723-.001 7.339-1.4 10.149-4.024 3.789-3.538 5.456-8.688 4.459-13.774l-6.001-30.636c2.571.779 4.996 1.262 9.839 1.579 6.297 7.85 14.941 13.518 24.734 16.142 4.103 1.1 8.223 1.624 12.282 1.624 20.969-.002 40.212-14.015 45.891-35.21.393-1.466.708-2.952.96-4.446 20.626-7.019 37.507-23.863 43.557-46.441 3.9-14.556 2.837-29.792-2.938-43.541 8.766-7.562 15.115-17.621 18.134-28.888zm-185.859 165.973c-3.072-.823-5.531-3.232-6.417-6.286l-14.515-50.031c8.479 1.253 17.143-.452 24.504-4.81 2.744 1.79 5.65 3.292 8.698 4.5l12.385 63.233zm71.855-23.559c-7.649-2.051-14.275-6.816-18.655-13.42-1.527-2.304-4.199-3.571-6.95-3.322-2.676.253-5.36.022-7.978-.679-3.13-.839-6.031-2.344-8.51-4.377l-1.533-7.829c.805.039 1.611.078 2.413.078 10.235 0 20.12-3.191 28.347-8.948 8.124 7.732 18.025 13.297 29.006 16.239 5.83 1.563 11.686 2.308 17.454 2.308 1.779 0 3.549-.076 5.307-.216-5.726 15.59-22.553 24.55-38.901 20.166z"/><path d="m300.137 141.751c-10.588-6.468-24.463-3.115-30.93 7.471-3.133 5.129-4.082 11.171-2.671 17.013s5.013 10.785 10.141 13.918c3.578 2.186 7.6 3.309 11.689 3.309 1.772 0 3.557-.211 5.323-.638 5.842-1.41 10.785-5.012 13.918-10.141 6.469-10.587 3.118-24.463-7.47-30.932zm-5.329 23.111c-1.044 1.71-2.692 2.91-4.639 3.38-1.949.473-3.961.154-5.671-.891-1.709-1.044-2.91-2.691-3.38-4.639-.471-1.947-.154-3.962.89-5.671 1.413-2.312 3.884-3.589 6.413-3.589 1.332 0 2.68.354 3.897 1.099 3.528 2.157 4.645 6.782 2.49 10.311z"/><path d="m285.869 108.794c-17.469.799-33.335 10.175-42.442 25.081-8.814 14.429-10.127 32.344-3.512 47.924 1.212 2.856 3.988 4.571 6.907 4.571.978 0 1.971-.192 2.928-.599 3.813-1.618 5.591-6.021 3.972-9.834-4.727-11.135-3.791-23.936 2.505-34.242 6.505-10.648 17.843-17.346 30.327-17.917 4.138-.189 7.339-3.697 7.149-7.835-.189-4.138-3.696-7.339-7.834-7.149z"/><path d="m291.576 198.599c-4.125.374-7.167 4.021-6.792 8.146.353 3.896 3.624 6.823 7.46 6.823.227 0 .456-.01.686-.03 16.488-1.494 31.478-10.811 40.1-24.922 8.945-14.643 10.164-32.776 3.26-48.507-1.665-3.793-6.087-5.517-9.882-3.854-3.793 1.665-5.518 6.089-3.854 9.882 4.934 11.243 4.064 24.199-2.325 34.659-6.25 10.23-16.694 16.72-28.653 17.803z"/><path d="m284.532 78.809c-27.454 1.256-52.388 15.99-66.698 39.413-13.851 22.674-15.914 50.828-5.518 75.313 1.212 2.855 3.988 4.57 6.907 4.57.978 0 1.971-.192 2.928-.599 3.813-1.619 5.591-6.021 3.972-9.835-8.508-20.039-6.822-43.078 4.511-61.63 11.709-19.165 32.114-31.221 54.583-32.249 4.138-.189 7.339-3.697 7.149-7.835-.188-4.138-3.708-7.317-7.834-7.148z"/><path d="m362.276 175.47c.229.021.455.03.68.03 3.839 0 7.111-2.932 7.461-6.829 1.244-13.842-1.058-27.9-6.656-40.655-1.665-3.793-6.089-5.517-9.882-3.854-3.793 1.665-5.518 6.09-3.854 9.882 4.584 10.446 6.47 21.956 5.452 33.286-.371 4.124 2.673 7.77 6.799 8.14z"/><path d="m345.399 197.13c-11.293 17.995-29.93 29.417-51.132 31.337-4.125.374-7.167 4.021-6.792 8.146.353 3.896 3.624 6.823 7.46 6.823.227 0 .456-.01.685-.03 25.905-2.347 48.68-16.308 62.484-38.304 2.202-3.508 1.143-8.137-2.366-10.339-3.509-2.201-8.137-1.142-10.339 2.367z"/></g></g></svg>