<svg height="512" width="512" xmlns="http://www.w3.org/2000/svg"><path d="M473.56 180.98c0 13.45-1.26 26.85-3.76 40.13l-28 74.87c-.66 1.16-1.32 2.31-2 3.47-17.66 30.1-42.2 59.19-72.93 86.46-51.95 46.1-103.21 70.9-105.36 71.94l-5.51 2.63-4.88-2.33-.63-.3c-2.15-1.04-53.41-25.84-105.36-71.94-30.73-27.27-55.27-56.36-72.93-86.46-22.4-38.17-33.76-78.03-33.76-118.47 0-71.39 58.08-129.46 129.46-129.46 32.85 0 64.26 12.46 88.1 34.6a129.295 129.295 0 0 1 74.35-33.86c4.54-.49 9.13-.74 13.75-.74 71.38 0 129.46 58.07 129.46 129.46z" fill="#ff2261"/><path d="M473.56 180.98c0 13.45-1.26 26.85-3.76 40.13l-28 74.87c-.66 1.16-1.32 2.31-2 3.47-17.66 30.1-42.2 59.19-72.93 86.46-51.95 46.1-103.21 70.9-105.36 71.94l-5.51 2.63-4.88-2.33-.56-.3c1.78-1.04 44.19-25.84 87.17-71.94 25.42-27.27 45.72-56.36 60.34-86.46C416.6 261.28 426 221.42 426 180.98c0-66.71-41.96-121.79-95.65-128.72 4.54-.49 9.13-.74 13.75-.74 71.38 0 129.46 58.07 129.46 129.46z" fill="#b7305d"/><path d="M504.5 261.49c0 22.56-18.28 40.84-40.84 40.84-5.84 0-11.39-1.22-16.41-3.44-14.38-6.31-24.42-20.68-24.42-37.4 0-16.71 10.04-31.08 24.42-37.39 5.02-2.22 10.57-3.44 16.41-3.44 22.56 0 40.84 18.28 40.84 40.83z" fill="#e4f4ff"/><path d="M504.5 261.49c0 22.56-18.28 40.84-40.84 40.84-5.84 0-11.39-1.22-16.41-3.44 14.38-6.32 24.41-20.69 24.41-37.4s-10.03-31.07-24.41-37.39c5.02-2.22 10.57-3.44 16.41-3.44 22.56 0 40.84 18.28 40.84 40.83z" fill="#c0eaf7"/><g><path d="M478.379 215.446a224.557 224.557 0 0 0 2.678-34.469 136.92 136.92 0 0 0-4.467-34.748 7.499 7.499 0 1 0-14.508 3.807 121.914 121.914 0 0 1 3.975 30.94c0 10.716-.841 21.511-2.502 32.179-24.055.053-44.039 17.767-47.647 40.836H359.74a7.5 7.5 0 0 0-6.023 3.032l-22.675 30.566-22.36-30.529a7.5 7.5 0 0 0-13.17 2.073l-23.103 69.721-25.488-178.422a7.5 7.5 0 0 0-6.86-6.418c-3.51-.278-6.731 1.946-7.746 5.315l-28.794 95.591-19.479-26.597a7.5 7.5 0 0 0-6.027-3.068h-.023a7.5 7.5 0 0 0-6.023 3.031l-26.488 35.706H58.978c-8.664-23.957-13.035-48.384-13.035-73.015 0-67.25 54.711-121.961 121.961-121.961 30.881 0 60.355 11.577 82.993 32.598a7.5 7.5 0 0 0 10.207 0c22.638-21.021 52.111-32.598 82.993-32.598 43.856 0 84.563 23.798 106.237 62.107a7.5 7.5 0 1 0 13.055-7.386c-24.33-43.006-70.04-69.721-119.292-69.721-32.405 0-63.427 11.349-88.097 32.096-24.671-20.747-55.692-32.096-88.097-32.096-75.521 0-136.961 61.44-136.961 136.961 0 24.647 4.07 49.063 12.142 73.015H7.5c-4.143 0-7.5 3.358-7.5 7.5s3.357 7.5 7.5 7.5h41.188c4.74 11.548 10.422 22.974 17.041 34.251 18.066 30.783 43.107 60.484 74.427 88.278a7.47 7.47 0 0 0 4.976 1.891 7.5 7.5 0 0 0 4.981-13.11c-30.141-26.747-54.179-55.228-71.446-84.651-5.166-8.802-9.725-17.693-13.675-26.659h84.261a7.5 7.5 0 0 0 6.023-3.032l22.675-30.565 22.359 30.529a7.498 7.498 0 0 0 13.232-2.269l23.334-77.464 25.194 176.362a7.5 7.5 0 0 0 14.544 1.299l28.56-86.192 19.777 27.003a7.5 7.5 0 0 0 6.028 3.068h.022a7.498 7.498 0 0 0 6.023-3.032l26.488-35.706h52.393c1.797 11.49 7.656 21.651 16.057 28.964-17.159 28.605-40.724 56.298-70.078 82.347-51.134 45.378-101.503 69.765-103.62 70.78L256 452.168l-2.267-1.085c-1.478-.708-36.662-17.71-77.923-49.534a7.501 7.501 0 0 0-9.161 11.878c42.497 32.777 79.064 50.446 80.602 51.183l5.508 2.639a7.49 7.49 0 0 0 6.48 0l5.51-2.639c2.196-1.053 54.403-26.328 107.095-73.087 30.406-26.983 54.892-55.763 72.823-85.583a48.061 48.061 0 0 0 18.995 3.89c26.653 0 48.337-21.684 48.337-48.337.001-21.524-14.14-39.807-33.62-46.047zm-14.716 79.383c-18.382 0-33.337-14.955-33.337-33.337s14.955-33.337 33.337-33.337S497 243.11 497 261.492s-14.955 33.337-33.337 33.337z"/></g></svg>