<svg height="512" viewBox="0 0 511.915 511.915" width="512" xmlns="http://www.w3.org/2000/svg"><g clip-rule="evenodd" fill-rule="evenodd"><path d="m255.931 168.115 53.081 30.648c.997-15.249 2.69-30.028 5.566-42.776l-38.647-22.313V45.96c0-5.5-4.5-10-10-10h-20c-5.5 0-10 4.5-10 10v87.714l-38.647 22.313c2.876 12.748 4.57 27.527 5.566 42.776z" fill="#f0e6e2"/><g fill="#ff7b79"><path d="M193.631 430.629c12.982-35.238 10.646-102.653 10.646-168.061 0-19.181 0-41.975-1.427-63.805-.997-15.249-2.69-30.028-5.566-42.776-8.185-36.279-25.95-56.113-64.506-23.544-65 56.96-156.208 231.112-110.5 308.862 26.743 45.491 59.034 39.714 105.976 19.452 33.368-14.403 55.796-4.121 65.377-30.128z" style="fill:#ff5d68;fill-opacity:1"/><path d="M307.585 262.568c0 65.408-2.336 132.823 10.646 168.061 9.581 26.007 32.009 15.725 65.378 30.128 46.942 20.262 79.232 26.039 105.976-19.452 45.708-77.749-45.5-251.901-110.5-308.862-38.556-32.569-56.321-12.735-64.506 23.544-2.876 12.748-4.569 27.527-5.566 42.776-1.428 21.83-1.428 44.624-1.428 63.805z" style="fill-opacity:1;fill:#ff5d68"/></g></g><path d="M485.078 275.225c-24.896-59.614-64.842-120.016-99.402-150.302l-.138-.118c-20.641-17.437-38.587-22.807-53.34-15.956-10.516 4.883-18.333 15.282-23.846 31.998l-22.42-12.947V45.96c0-11.028-8.972-20-20-20h-20.001c-11.028 0-20 8.972-20 20v81.94l-22.422 12.945c-5.513-16.716-13.33-27.115-23.845-31.998-14.75-6.849-32.698-1.48-53.34 15.956l-.138.118a175.135 175.135 0 0 0-3.604 3.254c-4.053 3.752-4.296 10.08-.544 14.132 3.752 4.053 10.08 4.295 14.132.544a155.94 155.94 0 0 1 3.129-2.828c9.737-8.214 23.159-17.113 31.941-13.036 5.194 2.412 14.637 12.109 19.515 49.963.684 5.309 1.232 10.81 1.676 16.414-14.706 9.235-33.134 23.892-49.878 46.162-14.755 7.769-28.845 11.42-42.996 11.125-5.514-.093-10.09 4.271-10.205 9.792-.114 5.522 4.27 10.09 9.792 10.205.642.013 1.282.02 1.925.02 7.869 0 15.805-1.006 23.764-2.982-9.068 17.369-15.937 36.394-20.58 56.966-17.739 5.933-32.515 14.961-43.956 26.884-3.824 3.985-3.693 10.315.292 14.139a9.968 9.968 0 0 0 6.922 2.785 9.974 9.974 0 0 0 7.217-3.076c6.985-7.28 15.352-13.116 25.341-17.659-2.029 14.577-3.057 29.83-3.057 45.736 0 5.523 4.477 10 10 10s10-4.477 10-10c0-26.772 3.024-50.033 8.086-70.233 3.695 5.06 7.882 9.628 12.037 12.647a9.956 9.956 0 0 0 5.868 1.91 9.989 9.989 0 0 0 8.1-4.125c3.246-4.469 2.254-10.723-2.215-13.968-6.211-4.511-13.459-16.35-15.541-22.595 15.63-40.44 39.797-65.47 60.364-80.465.558 15.973.563 31.884.563 45.936 0 8.715.042 17.465.083 26.17.255 53.873.519 109.579-10.112 138.434-3.866 10.493-9.148 11.907-25.265 14.796-9.474 1.698-21.265 3.812-34.693 9.608-20.65 8.913-36.963 14.374-50.676 14.373-17.192-.001-30.296-8.586-42.716-29.712-13.474-22.919-14.549-58.285-3.109-102.274 10.105-38.859 29.456-82.404 54.486-122.614 2.918-4.688 1.483-10.855-3.205-13.774-4.688-2.917-10.855-1.484-13.774 3.205C39.224 242.657 19.03 288.168 8.43 328.929c-12.805 49.238-10.999 89.85 5.224 117.443 14.289 24.305 31.641 37.15 53.05 39.267 2.155.213 4.331.314 6.528.314 19.039 0 39.514-7.613 58.981-16.016 11.306-4.879 21.395-6.688 30.296-8.284 15.974-2.864 32.492-5.825 40.502-27.568 11.881-32.248 11.621-87.231 11.346-145.442-.041-8.674-.083-17.393-.083-26.076 0-17.617-.007-38.091-1.084-58.231l42.738-24.675 42.738 24.675c-1.077 20.141-1.084 40.615-1.084 58.231 0 8.683-.041 17.402-.082 26.076-.275 58.211-.536 113.195 11.345 145.442 8.011 21.744 24.528 24.705 40.503 27.568 8.901 1.596 18.99 3.404 30.296 8.284 19.469 8.404 39.942 16.016 58.981 16.016 2.196 0 4.374-.102 6.528-.314 21.408-2.117 38.761-14.962 53.05-39.267 29.684-50.487 4.518-128.9-13.125-171.147zM245.931 85.962h20.001v20.001h-20.001zm20.001-40.002v20.001h-20.001V45.96zm-5 113.495a9.997 9.997 0 0 0-10 0l-39.44 22.771a329.033 329.033 0 0 0-.898-7.83 249.71 249.71 0 0 0-2.069-13.351l32.407-18.711a9.999 9.999 0 0 0 5-8.66v-7.711h20.001v7.711a9.999 9.999 0 0 0 5 8.66l32.407 18.711a251.752 251.752 0 0 0-2.069 13.351 318.963 318.963 0 0 0-.898 7.83zm220.032 276.782c-22.327 37.979-46.857 35.425-93.392 15.339-13.428-5.796-25.219-7.91-34.693-9.608-16.116-2.889-21.398-4.303-25.264-14.796-10.631-28.855-10.367-84.561-10.112-138.434.041-8.705.082-17.456.082-26.17 0-14.052.005-29.963.563-45.936 20.567 14.995 44.734 40.025 60.364 80.465-2.082 6.245-9.33 18.084-15.541 22.595-4.469 3.245-5.461 9.499-2.216 13.967a9.989 9.989 0 0 0 8.1 4.125 9.951 9.951 0 0 0 5.868-1.91c4.156-3.018 8.343-7.586 12.038-12.647 5.062 20.2 8.086 43.461 8.086 70.233 0 5.523 4.478 10 10 10s10-4.477 10-10c0-15.907-1.027-31.159-3.057-45.737 9.989 4.543 18.356 10.38 25.341 17.659a9.974 9.974 0 0 0 7.217 3.076c2.49 0 4.984-.924 6.923-2.785 3.985-3.824 4.115-10.154.292-14.139-11.441-11.923-26.217-20.95-43.956-26.884-4.643-20.573-11.512-39.597-20.58-56.966 7.959 1.976 15.895 2.982 23.764 2.982.642 0 1.284-.006 1.925-.02 5.522-.114 9.906-4.683 9.792-10.205-.112-5.452-4.566-9.793-9.994-9.793-.069 0-.141 0-.21.002-14.149.299-28.24-3.356-42.996-11.125-16.744-22.27-35.172-36.927-49.878-46.162.444-5.604.992-11.105 1.677-16.414 4.878-37.854 14.319-47.552 19.514-49.963 1.52-.706 3.176-1.022 4.929-1.022 8.386 0 18.96 7.265 27.015 14.059 32.459 28.479 70.25 85.894 94.06 142.907 27.571 66.03 32.799 121.907 14.339 153.307z"/><path d="M99.366 179.039c5.523 0 10-4.477 10-10s-4.477-10-10-10h-.008c-5.523 0-9.996 4.477-9.996 10s4.481 10 10.004 10z"/></svg>