<svg height="512" viewBox="0 0 511.992 511.992" width="512" xmlns="http://www.w3.org/2000/svg"><path d="m406.25 189.905 64.216-85.429c-.827-4.799-3.091-8.959-6.504-12.371-11.07-11.07-29.977-10.111-53.183 13.094l36.196-57.409c-.827-4.799-3.091-8.959-6.504-12.371-11.07-11.07-29.977-10.111-53.183 13.094l-19.02 19.02 19.598-40.811c-.827-4.799-3.091-8.959-6.504-12.371-11.07-11.07-29.977-10.111-53.183 13.094l-91.932 91.932 10.633-31.846c-3.866-16.452-21.428-26.836-36.335-14.457-25.355 21.054-46.417 30.652-57.641 34.711-5.983 2.164-11.199 6.036-14.93 11.189l-55.608 76.799c-12.652 28.099-19.849 39.642-11.935 143.335L9.217 400.32l93.564 93.564 71.214-61.214c12.265 2.161 70.161-1.325 100.63-31.794 35.372-35.372 62.895-73.277 93.241-103.624 27.511-27.511 69.329-79.329 98.07-108.07-.827-4.799-3.091-8.959-6.504-12.371-11.069-11.07-29.977-10.112-53.182 13.094z" fill="#ffcdbe"/><path d="M246.881 87.529c2.268 9.65-.173 21.386-10.633 31.846l-37.646 37.646c-19.665 19.665-50.512 14.155-50.512 14.155a7.499 7.499 0 0 1-6.064-8.702 7.499 7.499 0 0 1 8.702-6.064c17.524 1.143 26.746.527 37.268-9.995l58.885-58.886zm113.861 147.884 45.508-45.508 44.618-44.618c16.051-16.051 21.453-30.044 19.598-40.811L349.787 225.154zm-84.647-86.315a7.5 7.5 0 0 0 10.607 0l81.567-81.567c16.051-16.051 21.453-30.044 19.598-40.811L276.095 138.491a7.502 7.502 0 0 0 0 10.607zm37.21 42.968a7.5 7.5 0 0 0 10.607 0l86.867-86.867L427.377 88.6c16.052-16.051 21.453-30.044 19.598-40.811l-133.67 133.67a7.5 7.5 0 0 0 0 10.607zm49.561 100.186c-30.346 30.346-57.869 68.251-93.241 103.624-26.663 26.663-74.331 32.664-94.042 32.298-4.42-.082-8.69 1.598-11.816 4.724l-60.986 60.986 10.607 10.607 61.214-61.214c1.023.628 68.015.821 105.63-36.794 35.372-35.372 62.895-73.277 93.242-103.624l72.866-72.866c16.051-16.051 21.453-30.044 19.598-40.811l-103.072 103.07zM79.618 344.408a7.501 7.501 0 0 0 5.302-9.187c-16.23-60.529-15.206-111.351-2.553-139.45-17.053 23.551-28.165 82.806-11.935 143.335a7.5 7.5 0 0 0 9.186 5.302z" fill="#ebae9d"/><path d="M358.947 232.861c-14.809-20.958-34.104-39.355-46.825-43.321-6.793-2.118-21.666 6.901-23.452 22.483l-26.769-26.769c-8.001-8.001-17.657-5.194-25.345 2.493s-10.494 17.344-2.493 25.345l-6.558-6.558c-8.001-8.001-17.657-5.194-25.345 2.493-7.687 7.687-10.494 17.344-2.493 25.345l5.723 5.723c-8.001-8.001-17.657-5.194-25.345 2.493-7.687 7.687-10.494 17.344-2.493 25.345l5.234 5.234c-24.038 12.246-23.336 27.284-8.719 41.902l20.001 20.001 34.995 34.997c26.466 26.466 60.755 16.172 61.466 15.736 0 0 .562 1.504 1.747 4.097 26.175-28.089 48.445-56.87 71.903-81.534 9.642-38.737 5.938-59.697-5.232-75.505z" fill="#ebae9d"/><path d="m422.165 493.884 80.61-80.598c-24.106-39.714-65.183-54.578-65.183-54.578-24.106-39.714-64.118-55.849-64.118-55.849 11.27-42.032 7.733-64.115-3.919-80.604-14.809-20.958-34.104-39.355-46.825-43.321-4.212-1.313-11.527 1.658-16.906 7.816l-6.546 14.667-26.769-26.769c-6.046-6.046-13.037-5.918-19.41-2.178-7.941 7.941-8.43 30.015-8.43 30.015l.001.001-.202-.203-6.355-6.355c-6.046-6.046-13.037-5.918-19.41-2.178-7.192 7.192-2.705 35.739-2.705 35.739-6.046-6.046-13.037-5.918-19.41-2.178-11.364 11.364-3.194 35.25-3.194 35.25a65.419 65.419 0 0 0-6.266 3.617c-4.831 8.84-6.179 23.344 3.154 32.678l54.996 54.998c26.466 26.466 60.755 16.172 61.466 15.736 0 0 15.264 40.93 55.211 64.647-.001 0 20.263 35.93 60.21 59.647z" fill="#ffcbce"/><path d="M299.277 201.417c.679-5.922 3.249-10.892 6.546-14.667l20.458 20.458c7.17 7.17 24.74 18.137 28.19 20.43a7.5 7.5 0 0 1-8.301 12.493s-22.271-14.092-29.441-21.262l-17.452-17.452zm-23.876 31.799a7.5 7.5 0 0 0 10.607-10.607l-30.731-30.731c-6.046-6.046-5.918-13.037-2.178-19.41-2.061 1.209-4.057 2.793-5.935 4.672-7.687 7.687-10.494 17.343-2.494 25.343 6.169 6.171 28.215 28.217 30.731 30.733zm-50.042 61.31a7.5 7.5 0 0 0 10.607-10.607l-37.199-37.199c-6.046-6.046-5.918-13.037-2.178-19.41-2.061 1.209-4.057 2.793-5.935 4.672-7.687 7.687-10.494 17.344-2.493 25.345l5.234 5.234 31.964 31.965zm22.204-33.472a7.5 7.5 0 0 0 10.607-10.607l-37.289-37.289c-6.046-6.046-5.918-13.037-2.178-19.41-2.061 1.209-4.057 2.793-5.935 4.672-7.687 7.687-10.494 17.344-2.493 25.345l5.723 5.723 31.565 31.566zm174.602 232.83c-37.646-22.351-53.37-59.989-55.057-64.251a1.268 1.268 0 0 0-.532-.622c-35.798-21.435-51.642-56.653-54.391-63.316a1.282 1.282 0 0 0-1.537-.749c-6.124 1.716-36.444 7.833-60.37-16.093l-54.996-54.998c-9.333-9.333-12.986-18.838-8.154-27.678-17.501 11.525-15.66 25.076-2.452 38.284l54.996 54.998c26.466 26.466 60.755 16.172 61.466 15.736 0 0 15.264 40.93 55.211 64.647 0 0 15.264 40.93 55.211 64.647z" fill="#ffb3b7"/><g><path d="M411.551 511.992a7.463 7.463 0 0 1-3.822-1.052c-36.437-21.633-53.264-56.326-57.393-65.972-24.445-15.187-39.737-36.154-48.1-50.61a593.545 593.545 0 0 1-16.701 17.429c-20.841 20.841-49.725 30.412-70.285 34.771-11.824 2.507-22.018 3.563-28.488 4.007-4.088.281-7.031.398-9.22.379l-58.851 58.851a7.5 7.5 0 0 1-10.606 0 7.5 7.5 0 0 1 0-10.606l61.214-61.214a7.494 7.494 0 0 1 6.636-2.078c8.708.61 66.823-2.543 98.994-34.716a575.516 575.516 0 0 0 15.772-16.44c-14.518 1.308-37.313-.958-56.333-19.977l-39.117-39.118c-5.05 8.829-10.893 16.582-17.435 23.124a7.5 7.5 0 0 1-10.607 0 7.5 7.5 0 0 1 0-10.606c6.459-6.459 12.165-14.374 16.995-23.564l-4.833-4.832c-9.583-9.583-13.687-19.202-12.2-28.591 1.195-7.543 5.961-14.293 14.204-20.145-8.553-10.009-7.103-23.275 3.973-34.352 4.203-4.203 8.723-7.02 13.259-8.43a20.957 20.957 0 0 1-.557-6.888c-2.111-12.86-5.518-25.612-10.15-38.008-19.504 8.887-40.029 5.403-41.13 5.208a7.5 7.5 0 0 1 2.618-14.77c.271.047 27.336 4.502 43.91-12.072l37.646-37.646c12.526-12.527 10.812-26.371 3.918-33.933-4.392-4.818-11.828-7.689-19.526-1.297-26.614 22.1-48.942 32.037-59.882 35.994-4.632 1.675-8.576 4.626-11.405 8.535l-29.584 40.857a7.5 7.5 0 0 1-12.149-8.797l29.584-40.857c4.6-6.354 10.981-11.142 18.454-13.844 10.02-3.624 30.541-12.786 55.4-33.428 12.637-10.491 29.165-9.369 40.194 2.731 4.869 5.341 8.134 12.338 9.02 20.016l27.05-27.05a7.5 7.5 0 0 1 10.607 10.606l-88.72 88.719a53.099 53.099 0 0 1-3.074 2.841 219.675 219.675 0 0 1 8.396 26.287c7.815-6.966 16.544-9.311 24.376-6.909 1.486-4.409 4.291-8.738 8.257-12.705 5.171-5.171 10.958-8.367 16.735-9.242 4.938-.748 12.283-.185 19.216 6.749l18.267 18.267c2.732-4.828 6.609-9.026 11.318-12.093 6.084-3.962 12.485-5.327 17.565-3.744 1.962.612 3.996 1.474 6.084 2.552L422.073 83.3c17.43-17.429 22.324-33.346 13.094-42.576-4.015-4.015-9.165-5.448-15.301-4.248-8.071 1.573-17.502 7.57-27.273 17.342l-19.021 19.02-81.566 81.567c-2.93 2.928-7.679 2.93-10.606 0a7.498 7.498 0 0 1-.001-10.606l81.645-81.645c17.367-17.399 22.233-33.282 13.016-42.499-4.015-4.015-9.163-5.448-15.302-4.248-8.071 1.573-17.502 7.57-27.273 17.342l-19.858 19.859a7.498 7.498 0 0 1-10.606.001 7.5 7.5 0 0 1-.001-10.607l19.858-19.859C334.94 10.081 346.719 2.862 357.889.685c11.018-2.147 21.237.824 28.779 8.365 3.123 3.124 9.195 10.727 9.085 22.411 7.261-5.115 14.369-8.367 21.245-9.707 11.013-2.147 21.236.823 28.778 8.365 4.988 4.988 17.494 21.4.333 47.617 12.127-.366 19.968 5.88 23.158 9.07 5.946 5.947 22.574 28.121-13.096 63.789l-11.901 11.902c7.786.333 14.865 3.413 20.468 9.015 7.541 7.541 10.512 17.762 8.364 28.778-2.178 11.17-9.397 22.949-21.458 35.01l-37.989 37.99a7.501 7.501 0 0 1-10.607 0 7.5 7.5 0 0 1 0-10.606l37.989-37.99c9.772-9.772 15.77-19.203 17.343-27.273 1.196-6.139-.233-11.287-4.248-15.302-4.017-4.016-9.166-5.446-15.303-4.248-8.07 1.573-17.502 7.57-27.273 17.342l-.043.042-30.889 30.888c9.067 18.003 9.529 40.549 1.668 72.544 12.306 6.166 40.692 22.894 60.368 53.966 9.689 4.035 44.541 20.524 66.526 56.746a7.5 7.5 0 0 1-12.823 7.783c-22.363-36.844-60.948-51.28-61.335-51.421a7.535 7.535 0 0 1-3.848-3.157c-22.551-37.152-60.135-52.633-60.512-52.785a7.498 7.498 0 0 1-4.439-8.898c12.054-44.953 5.349-62.802-2.8-74.333-16.065-22.734-33.67-37.53-42.827-40.456-.805-.064-3.368.573-6.365 2.925-1.658 1.301-5.218 4.595-6.822 9.896l.021.021 14.598 14.597c5.393 5.393 22.146 16.43 28.147 20.228a7.5 7.5 0 1 1-8.022 12.675c-2.352-1.488-23.191-14.755-30.733-22.297l-17.405-17.406-.085-.085-26.731-26.731c-2.714-2.715-4.934-2.739-6.363-2.524-2.551.386-5.525 2.168-8.374 5.018-2.849 2.849-4.631 5.823-5.018 8.375-.216 1.431-.191 3.648 2.524 6.363l30.731 30.731a7.5 7.5 0 0 1 0 10.606 7.501 7.501 0 0 1-10.607 0l-30.73-30.731-6.558-6.557c-6.124-6.124-12.608.361-14.739 2.492-8.615 8.616-4.007 13.224-2.493 14.738l5.624 5.624.1.099.051.052 31.515 31.514a7.5 7.5 0 0 1 0 10.606 7.5 7.5 0 0 1-10.606 0l-31.621-31.621c-6.107-6.029-12.56.423-14.683 2.548-8.615 8.616-4.007 13.224-2.493 14.738l5.108 5.108c.085.081.168.164.25.25l31.842 31.842a7.5 7.5 0 0 1 0 10.606 7.5 7.5 0 0 1-10.606 0l-27.944-27.943c-4.862 3.053-9.399 7.059-10.125 11.637-.864 5.455 3.868 11.514 7.991 15.637l54.996 54.998c22.718 22.718 51.482 14.647 53.376 14.076a7.5 7.5 0 0 1 9.814 4.343c.141.374 14.953 38.816 52.013 60.819a7.499 7.499 0 0 1 3.198 3.829c.141.374 14.953 38.816 52.013 60.819a7.5 7.5 0 0 1 2.62 10.278 7.513 7.513 0 0 1-6.46 3.667zm-233.04-75.116zm-.014-.008a.067.067 0 0 1 .011.007l-.011-.007zm-.014-.009.009.005-.009-.005zm-.009-.006.002.001-.002-.001zm118.748-68.055-.011.007.011-.007zm.013-.008-.005.003.005-.003zm46.481-185.922c10.072 8.175 20.307 19.425 28.564 30.4l73.283-73.284c17.43-17.429 22.325-33.345 13.095-42.576s-25.146-4.335-42.575 13.094l-.05.049zm-23.065 3.264h.002-.002zM9.217 407.82a7.474 7.474 0 0 1-5.303-2.197 7.5 7.5 0 0 1 0-10.606l58.184-58.185c-15.136-60.899-4.217-120.035 14.193-145.46l9.924-13.705a7.5 7.5 0 0 1 12.149 8.798L88.44 200.17c-14.393 19.877-27.249 75.521-10.766 136.994a7.501 7.501 0 0 1-1.941 7.246L14.52 405.623a7.474 7.474 0 0 1-5.303 2.197z"/></g></svg>