<svg height="512" width="512" xmlns="http://www.w3.org/2000/svg"><path d="M282.701 390.09c-6.682-4.74-23.01-3.912-23.01-3.912l-1.401-19.925c-.73-10.384-6.673-18.004-14.417-21.93-10.007-.904-18.823.453-25.062 9.457l-24.342 20.888c-.032-17.738-7.05-36.396-16.323-52.459l26.314-.227a26.461 26.461 0 0 0 8.499-7.865 26.55 26.55 0 0 0-.283-30.56l-6.047-8.425c5.486-6.72 8.312-18.882 1.8-29.577l-9.096-9.427c6.518-7.632 10.11-16.684 11.223-25.263 15.18-6.422 16.435-19.6 5.804-30.313 16.78-30.251 17.731-68.298-.825-100.438-10.89-18.862-26.902-32.918-45.264-41.438-32.574-11.037-60.138-6.297-84.704 7.886-48.722 28.13-64.662 89.995-36.532 138.717l23.306 40.368c.248.429-9.356 33.56-10.462 39.328-16.798 87.674 32.178 183.87 97.252 208.032 18.345 1.265 36.531-8.066 45.942-25.021l19.187-34.569s13.356 28.007 29.854 23.984c5.712-1.905 11.473-4.773 16.937-7.928 21.645-12.497 20.502-30.078 11.65-39.382z" fill="#ffcdbe"/><path d="m194.47 374.668 15.098-21.788c8.477-12.234 23.232-14.173 34.305-8.558-8.344 1.396-17.345 6.984-23.584 15.987l-38.331 55.318c-2.034 2.935-6.07 3.927-9.064 1.982a6.522 6.522 0 0 1-1.813-9.187zM69.41 260.628a23.272 23.272 0 0 1 18.44-18.471c2.486-.48 4.554-.867 5.769-1.073 0 0 12.613-2.14 20.35-1.638a42.077 42.077 0 0 1 21.521 7.598l47.83 33.715c7.206 5.079 14.723-5.582 7.515-10.662l-9.597-6.764c8.74-2.995 15.362-7.14 20.158-11.05a61.573 61.573 0 0 0 7.03-6.728c-2.044-3.358-5-6.573-9.095-9.427-7.056 8.263-17.55 14.854-32.06 17.36l-24.268-17.105a55.107 55.107 0 0 0-28.192-9.952c-8.999-.584-21.931 1.55-23.376 1.794-7.1 1.205-11.265-1.188-13.825-5.62l-23.306-40.368c-28.13-48.723-12.593-104.33 36.13-132.46 24.564-14.183 53.538-17.519 79.836-11.1-29.067-13.489-64.026-13.09-93.887 4.15-48.723 28.13-65.415 90.43-37.286 139.153l25.23 43.697c-38.573 96.147 6.468 210.241 78.063 243.069a47.999 47.999 0 0 0 16.74 4.26C96.535 443.45 52.613 348.301 69.41 260.627zM110.274 277c-1.65 3.168-.275 7.09 2.842 8.833l65.03 36.375c8.438 4.72 18.43 4.355 26.314-.228l-85.215-47.664a6.522 6.522 0 0 0-8.971 2.684zM243.71 439.664c3.395-.283 6.89-1.091 10.404-2.263-7.447-.238-15.451-4.703-16.58-17.541l-2.302-26.21-10.972 19.768.558 8.763c.713 11.23 10.886 18.148 18.892 17.483zm28.175-47.237c3.549-2.049 7.269-2.725 10.816-2.336-5.781-6.077-14.848-8.625-23.01-3.913l.899 12.772 11.295-6.523z" fill="#ebae9d"/><g><path d="M72.593 410.04c-11.378-19.708-19.904-42.32-24.691-66.57a6.522 6.522 0 0 1 12.797-2.525c5.415 27.429 16.144 53.313 31.035 74.858 14.92 21.589 33.376 37.846 53.374 47.015 19.79 9.075 43.624 1.169 54.262-17.997l30.16-54.337a6.523 6.523 0 0 1 11.405 6.33L230.89 414.91l.436 6.857c.269 4.22 2.465 6.954 4.259 8.504 2.296 1.981 5.203 3.09 7.585 2.893 6.636-.55 14.69-3.606 24.62-9.34 15.122-8.73 16.352-19.241 12.46-26.167-.027-.05-.056-.1-.085-.15-2.721-4.713-8.15-8.075-13.635-7.031l.564 8.014a6.521 6.521 0 1 1-13.01.915l-2.3-32.696c-.744-10.554-8.155-16.277-14.845-18.112-6.69-1.836-15.986-.7-22.011 7.996l-38.488 55.543a6.522 6.522 0 1 1-10.721-7.43l22.192-32.026c-.578-17.226-8.032-34.094-14.535-45.668l-63.684-35.621a6.52 6.52 0 0 1-2.508-8.875 6.521 6.521 0 0 1 8.875-2.508l65.269 36.507a19.943 19.943 0 0 0 26.261-6.104c4.789-6.94 4.702-16.203-.213-23.054l-6.047-8.424a6.521 6.521 0 0 1 .246-7.927c2.414-2.958 4.718-8.318 3.947-14.497-.534-4.277-2.442-8.12-5.686-11.465-8.37 7.685-19.745 13.303-34.186 15.28l21.427 15.102a6.522 6.522 0 1 1-7.516 10.662l-47.83-33.714a35.549 35.549 0 0 0-18.186-6.42c-5.706-.37-15.534 1-18.84 1.56a6.523 6.523 0 0 1-7.519-5.341 6.52 6.52 0 0 1 5.338-7.52c.546-.093 13.463-2.261 21.864-1.716a48.578 48.578 0 0 1 24.857 8.775l8.705 6.136c22.44 1.54 37.254-5.473 46.058-15.463-7.601-3.653-15.251-10.397-19.788-17.908-1.832-3.081-.872-7.093 2.212-8.954a6.521 6.521 0 0 1 8.954 2.211c4 6.623 10.794 11.49 15.65 13.486a42.618 42.618 0 0 0 3.05-11.195 6.524 6.524 0 0 1 3.927-5.167c4.923-2.083 7.992-5.045 8.64-8.342.67-3.396-1.124-7.543-4.925-11.37a6.525 6.525 0 0 1-1.074-7.758 95.915 95.915 0 0 0 6.835-15.373 6.522 6.522 0 0 1 12.339 4.232 109.062 109.062 0 0 1-5.621 13.399c4.674 6.14 6.526 12.894 5.245 19.393-1.317 6.682-5.888 12.347-13.008 16.223-1.362 6.948-4.06 13.721-8.112 19.836 7.086 6.858 9.455 14.357 10.134 19.797.87 6.955-.571 14.16-3.901 20.11l3.408 4.749c8.113 11.31 8.26 26.608.352 38.067-6.514 9.44-17.004 14.506-27.715 14.327 3.354 7.35 6.433 15.72 8.352 24.585l5.244-7.567c8.162-11.779 22.366-16.94 36.185-13.147 13.82 3.794 23.398 15.48 24.404 29.777l.816 11.609c3.797-.482 7.691-.046 11.45 1.33 6.102 2.231 11.265 6.663 14.56 12.535 7.15 12.724 4.57 31.22-17.31 43.852-11.634 6.717-21.467 10.329-30.063 11.042-5.836.485-12.261-1.766-17.188-6.018a25.433 25.433 0 0 1-5.986-7.55l-10.3 18.557c-13.925 25.088-45.157 35.42-71.104 23.523-26.751-12.268-50.093-35.217-67.078-64.635zm-27.439-90.164a6.498 6.498 0 0 1-.85-2.761c-2.395-31.341 2.03-62.692 12.806-90.893l-23.66-40.98C3.565 133.481 21.362 67.061 73.121 37.178 124.88 7.296 191.3 25.094 221.183 76.853c11.28 19.535 16.146 41.696 14.076 64.085a6.521 6.521 0 1 1-12.988-1.2c1.82-19.688-2.462-39.178-12.384-56.363-26.287-45.53-84.713-61.186-130.243-34.9-45.53 26.287-61.186 84.715-34.9 130.245l25.23 43.698c1 1.733 1.15 3.83.405 5.69-10.878 27.115-15.398 57.55-13.07 88.013a6.521 6.521 0 0 1-12.155 3.755zm28.114-138.72c-9.044-15.665-3.658-35.766 12.006-44.81 12.942-7.471 29.55-3.021 37.021 9.92a6.522 6.522 0 0 1-11.296 6.522c-3.876-6.713-12.49-9.02-19.203-5.145-9.435 5.447-12.68 17.555-7.232 26.99 3.876 6.713 12.49 9.022 19.203 5.146a6.522 6.522 0 0 1 6.522 11.296c-12.942 7.471-29.55 3.021-37.021-9.92zm89.157-9.015a21.02 21.02 0 0 1-1.64-3.587 6.522 6.522 0 0 1 12.316-4.295 7.682 7.682 0 0 0 3.937 4.414 7.678 7.678 0 0 0 5.906.338 6.518 6.518 0 0 1 8.305 4.01 6.522 6.522 0 0 1-4.01 8.306 20.633 20.633 0 0 1-15.872-.907 20.628 20.628 0 0 1-8.942-8.28z"/></g><g transform="matrix(.88874 0 0 .88874 45.827 19.133)"><circle cx="457.999" cy="256" fill="#f2b394" r="44" style="fill:#bac3c5;fill-opacity:1"/><circle cx="458" cy="54" fill="#ffd0c7" r="44"/><circle cx="458" cy="458" fill="#cc9081" r="44" style="fill:#86a0cf;fill-opacity:1"/><path d="M364.934 64c5.523 0 10-4.478 10-10s-4.477-10-10-10h-48.146c-5.523 0-10 4.478-10 10v192H256c-5.523 0-10 4.478-10 10s4.477 10 10 10h50.788v192c0 5.522 4.477 10 10 10h48.146c5.523 0 10-4.478 10-10s-4.477-10-10-10h-38.146V266h38.146c5.523 0 10-4.478 10-10s-4.477-10-10-10h-38.146V64zM457.999 310c29.776 0 54-24.225 54-54s-24.224-54-54-54-54 24.225-54 54 24.224 54 54 54zm0-88c18.748 0 34 15.252 34 34 0 18.748-15.252 34-34 34-18.748 0-34-15.252-34-34 0-18.748 15.252-34 34-34zM458 108c29.776 0 54-24.225 54-54S487.776 0 458 0s-54 24.225-54 54 24.224 54 54 54zm0-88c18.748 0 34 15.252 34 34 0 18.748-15.252 34-34 34-18.748 0-34-15.252-34-34 0-18.748 15.252-34 34-34zM458 404c-29.776 0-54 24.225-54 54s24.224 54 54 54 54-24.225 54-54-24.224-54-54-54zm0 88c-18.748 0-34-15.252-34-34 0-18.748 15.252-34 34-34 18.748 0 34 15.252 34 34 0 18.748-15.252 34-34 34z"/></g></svg>