<svg height="512" viewBox="0 0 512.001 512.001" width="512" xmlns="http://www.w3.org/2000/svg"><path d="M257.435 82.501c-42.576 0-80.209 17.04-106.487 44.68-17.097 29.294-31.254 68.123-28.293 109.066l5.63 77.857c5.014 69.338 61.019 110.324 129.149 115.397 81.16 0 134.128-46.06 139.147-115.398l5.635-77.856c6.168-85.188-59.372-153.746-144.781-153.746z" fill="#ffcbce"/><g fill="#ffb3b7" transform="translate(0 75)"><ellipse cx="257.435" cy="153.228" rx="89.272" ry="53.872"/><path d="m134.286 239.104-5.63-77.857c-2.961-40.943 5.196-79.772 22.293-109.067-26.438 27.807-41.383 66.345-38.293 109.067-15.327 1.108-26.491 19.436-24.936 40.935 1.555 21.5 15.24 38.03 30.566 36.922 5.014 69.338 57.989 115.397 139.149 115.397-59.707-5.517-118.135-46.06-123.149-115.397zM402.217 161.246l-5.635 77.856c15.326 1.109 29.012-15.42 30.568-36.919 1.557-21.499-9.606-39.828-24.933-40.937z"/></g><path d="M305.573 302.333c-16.732 0-29.211 4.653-48.138 4.653s-31.406-4.653-48.138-4.653c-10.673 0-18.954 10.067-24.938 16.56-1.795 6.175-2.767 13.011-2.767 19.98 0 23.493 10.974 45.538 27.706 45.538s29.211-5.853 48.138-5.853 31.406 5.853 48.138 5.853c4.73 0 8.999-1.764 12.69-4.822 3.182-7.79 10.015-22.82 10.015-31.718-.001-23.493-11.279-45.538-22.706-45.538z" fill="#ff9a9f"/><path d="M333.278 338.872c0-23.494-10.974-45.539-27.705-45.539-16.732 0-29.211 4.653-48.138 4.653s-31.406-4.653-48.138-4.653c-11.769 0-20.682 10.913-24.938 25.56 5.985-6.493 14.266-10.56 24.938-10.56 16.732 0 29.211 4.653 48.138 4.653s30.406-4.653 47.138-4.653c11.427 0 18.705 22.046 18.705 45.54 0 8.895-1.833 17.926-5.015 25.717 9.368-7.76 15.015-23.866 15.015-40.718z" fill="#ff8086"/><path d="M209.297 384.411s-12.188-42.539 48.138-42.539 48.138 42.54 48.138 42.54" fill="#ffb3b7"/><g><path d="M257.435 437.001c-81.237 0-137.846-45.24-146.021-115.863-7.161-1.398-13.854-5.592-19.354-12.234-6.76-8.165-10.958-19.238-11.822-31.18-1.641-22.694 8.796-41.952 24.596-47.455-.488-15.294 1.222-30.326 5.098-44.777a7.502 7.502 0 0 1 14.489 3.887c-3.991 14.877-5.433 30.464-4.285 46.328a7.497 7.497 0 0 1-6.94 8.021c-10.988.795-19.229 15.867-17.997 32.914.64 8.854 3.629 16.915 8.416 22.696 2.423 2.928 7.488 7.776 14.129 7.285a7.55 7.55 0 0 1 5.448 1.81 7.498 7.498 0 0 1 2.573 5.13c2.33 32.221 15.596 59.366 38.365 78.5 23.306 19.586 55.57 29.938 93.304 29.938 37.733 0 69.996-10.353 93.301-29.939 22.767-19.133 36.033-46.278 38.365-78.5a7.499 7.499 0 0 1 8.021-6.94c11.015.803 21.313-12.934 22.548-29.98 1.233-17.047-7.007-32.12-17.994-32.915a7.5 7.5 0 0 1-6.939-8.02c2.789-38.538-9.729-74.87-35.251-102.306-26.034-27.986-62.276-43.399-102.051-43.399-52.488 0-99.507 27.877-122.708 72.751a7.5 7.5 0 0 1-13.324-6.888c25.788-49.88 77.913-80.864 136.033-80.864 43.987 0 84.13 17.112 113.033 48.184 26.942 28.962 40.863 66.776 39.57 107.084 15.8 5.504 26.234 24.762 24.593 47.455-1.644 22.698-14.749 40.255-31.181 43.423-8.184 70.614-64.789 115.854-146.015 115.854zm-48.123-45.066c-.229 0-.458-.01-.685-.032-10.359-.259-19.559-6.53-25.966-17.725-5.526-9.655-8.569-22.194-8.569-35.306 0-13.11 3.043-25.65 8.569-35.306 6.545-11.436 16.005-17.733 26.637-17.733 8.681 0 16.309 1.172 23.685 2.306 7.507 1.153 15.271 2.347 24.453 2.347 9.182 0 16.944-1.193 24.452-2.347 7.376-1.134 15.004-2.306 23.686-2.306 10.632 0 20.092 6.298 26.637 17.733 5.525 9.655 8.568 22.194 8.568 35.306 0 13.111-3.043 25.65-8.568 35.305-6.503 11.363-15.884 17.653-26.433 17.733-.127.003-.255.002-.378.001-7.798-.018-14.726-1.204-20.613-2.317a7.5 7.5 0 0 1-5.977-8.762c.769-4.07 4.699-6.754 8.762-5.977 3.627.685 7.436 1.36 11.491 1.74.098-4.222-.644-10.046-4.443-15.017-6.103-7.986-18.961-12.207-37.184-12.207s-31.081 4.221-37.184 12.207c-3.798 4.97-4.541 10.793-4.443 15.015 4.932-.466 9.677-1.383 14.612-2.337 8.132-1.572 16.542-3.198 27.015-3.198 4.143 0 7.5 3.357 7.5 7.5s-3.357 7.5-7.5 7.5c-9.037 0-16.387 1.421-24.168 2.925-7.266 1.405-14.774 2.856-23.335 2.925a7.217 7.217 0 0 1-.621.027zm-.015-91.102c-10.953 0-20.206 17.42-20.206 38.04 0 15.002 4.898 28.31 11.786 34.447.355-6.212 2.109-13.758 7.312-20.66 9.146-12.136 25.715-18.288 49.246-18.288 23.53 0 40.099 6.152 49.245 18.287 5.203 6.903 6.957 14.45 7.313 20.661 6.888-6.138 11.785-19.445 11.785-34.448 0-20.619-9.253-38.039-20.205-38.039-7.536 0-14.273 1.035-21.407 2.132-8.064 1.24-16.402 2.521-26.73 2.521s-18.667-1.28-26.731-2.52c-7.134-1.098-13.872-2.133-21.408-2.133zm61.055-33.505a7.46 7.46 0 0 1-4.089-1.219c-5.469-3.563-15.059-3.564-20.525.001a7.5 7.5 0 0 1-8.192-12.567c10.347-6.744 26.56-6.747 36.909.001a7.498 7.498 0 0 1 2.187 10.378 7.492 7.492 0 0 1-6.29 3.406zm223.415-1.939h-32.298a7.499 7.499 0 0 1-7.5-7.5c0-4.143 3.357-7.5 7.5-7.5h32.298c4.143 0 7.5 3.357 7.5 7.5s-3.357 7.5-7.5 7.5zm-443.235 0H18.234a7.5 7.5 0 0 1-7.5-7.5 7.5 7.5 0 0 1 7.5-7.5h32.298a7.5 7.5 0 0 1 7.5 7.5 7.5 7.5 0 0 1-7.5 7.5zm302.287-21.033a7.47 7.47 0 0 1-3.519-.882c-11.837-6.306-31.508-6.322-42.958-.044a7.502 7.502 0 0 1-7.213-13.153c15.831-8.683 40.967-8.7 57.222-.044a7.502 7.502 0 0 1-3.532 14.123zm-190.769 0a7.501 7.501 0 0 1-3.532-14.123c16.256-8.656 41.391-8.638 57.222.044a7.5 7.5 0 0 1-7.213 13.153c-11.45-6.28-31.122-6.26-42.958.044a7.475 7.475 0 0 1-3.519.882zm132.831-34.682c-6.641 0-13.28-1.687-18.454-5.06a7.498 7.498 0 0 1-2.187-10.379 7.496 7.496 0 0 1 10.378-2.187c5.467 3.563 15.059 3.563 20.525 0a7.498 7.498 0 0 1 10.378 2.187 7.498 7.498 0 0 1-2.187 10.378c-5.172 3.374-11.812 5.061-18.453 5.061zm-74.893 0c-6.64 0-13.28-1.687-18.454-5.06a7.5 7.5 0 0 1 8.191-12.567c5.468 3.565 15.059 3.564 20.525.001a7.499 7.499 0 0 1 10.379 2.187 7.5 7.5 0 0 1-2.187 10.378c-5.173 3.374-11.814 5.061-18.454 5.061zm224.061-27.087a7.502 7.502 0 0 1-3.026-14.366l29.559-13.016a7.501 7.501 0 0 1 6.045 13.729l-29.559 13.016a7.492 7.492 0 0 1-3.019.637zm-376.098 0a7.476 7.476 0 0 1-3.019-.638l-29.558-13.015a7.5 7.5 0 0 1-3.841-9.887 7.5 7.5 0 0 1 9.886-3.842l29.559 13.016a7.501 7.501 0 0 1-3.027 14.366zm49.322-68.762a7.473 7.473 0 0 1-5.534-2.437L89.932 87.564A7.499 7.499 0 0 1 90.4 76.97a7.496 7.496 0 0 1 10.596.47l21.807 23.822a7.501 7.501 0 0 1-5.53 12.564zm277.455 0a7.47 7.47 0 0 1-5.062-1.968 7.499 7.499 0 0 1-.469-10.596l21.807-23.824a7.498 7.498 0 0 1 10.596-.469 7.499 7.499 0 0 1 .469 10.596l-21.807 23.824a7.478 7.478 0 0 1-5.534 2.437z"/></g></svg>