<svg height="512" width="512" xmlns="http://www.w3.org/2000/svg"><path d="M248.752 466.432c4.791 3.251 10.975 5.065 15.887 2C320.586 433.52 409.3 362.781 409.3 362.781c-.314-.073-313.524-147.511-386.658-181.938.001 94.984 70.282 179.841 226.11 285.589z" fill="#ffcbce"/><path d="M264.639 458.432c-4.912 3.065-11.097 1.251-15.887-2C92.924 350.684 25.973 270.899 22.643 180.843L7.5 173.715c0 98.687 70.375 189.07 240.071 304.229a15.023 15.023 0 0 0 16.858 0c60.469-41.035 108.316-78.923 144.871-115.163 0 0-88.714 60.739-144.661 95.651z" fill="#ffb3b7"/><path d="M362.228 31.442c-42.239 0-80.171 18.413-106.228 47.643-26.057-29.23-63.989-47.643-106.228-47.643-40.881 0-77.729 17.249-103.68 44.858C24.704 105.862 17.5 132.426 17.5 173.715c0 50.121 41.498 96.592 94.019 109.207 46.032 11.056 215.564 45.72 309.668 67.713 57.658-60.798 83.313-117.347 83.313-176.92 0-78.575-63.698-142.273-142.272-142.273z" fill="#ff9a9f"/><path d="M22.5 173.715c0-41.289 11.503-74.209 23.592-97.414C22.165 101.757 7.5 136.021 7.5 173.715c0 55.99 38.165 103.389 104.019 119.207 64.731 15.548 139.78 25.81 139.78 25.81l129.416 37.395 28.586 6.655a552.467 552.467 0 0 0 11.887-12.147c-94.104-21.993-263.636-61.657-309.668-72.713-52.522-12.616-89.02-54.086-89.02-104.207z" fill="#ff8086"/><path d="M396.252 328.147c0-14.406-9.249-26.645-22.13-31.122l5.353-14.019c5.435-20.987-.918-40.217-11.336-53.172 7.307-19.168-3.449-31.647-22.232-31.326-12.72-41.134-46.08-74.763-90.937-85.78-36.434-8.948-73.055-1.157-101.776 18.458-21.942 18.998-35.484 37.567-41.59 62.429-7.506 30.561-.887 75.53 12.26 101.582L337.478 345.9l54.786-2.029a32.783 32.783 0 0 0 3.988-15.724z" fill="#ffcdbe"/><path d="M330.382 329.323c-.014-.391-.03-.781-.03-1.176 0-18.198 14.752-32.95 32.95-32.95 3.792 0 7.43.649 10.82 1.827 2.41-4.726 4.161-9.413 5.353-14.017a47.697 47.697 0 0 0-16.173-2.81c-25.654 0-46.664 20.251-47.891 45.606l-64.113-15.073c-6.033 7.598-16.138 10.948-26.177 8.483-10.974-2.695-19.281-10.159-22.909-20.022l-75.694-17.795c-13.147-26.052-17.42-57.22-9.914-87.781 6.106-24.862 19.164-46.186 36.59-62.429-24.883 16.994-43.837 42.862-51.59 74.429-7.506 30.561-3.233 61.254 9.914 87.305l269.196 63.205a33.12 33.12 0 0 0 11.551-12.255z" fill="#ebae9d"/><g><path d="M256 488.058a22.464 22.464 0 0 1-12.641-3.909c-25.662-17.414-49.314-34.46-70.302-50.664a7.501 7.501 0 0 1 9.168-11.873c20.745 16.018 44.147 32.882 69.557 50.125 2.523 1.712 5.913 1.711 8.435 0 54.937-37.281 99.278-71.94 133.954-104.778-37.769-8.794-146.543-34.146-215.322-50.418a7.5 7.5 0 0 1 3.453-14.597c4.628 1.095 9.445 2.232 14.401 3.402-3.914-8.12-5.142-17.594-2.828-27.011 4.355-17.731 22.325-28.613 40.055-24.26a7.5 7.5 0 0 1-3.578 14.568c-9.699-2.383-19.528 3.571-21.91 13.27-3.315 13.499 4.971 27.179 18.47 30.494a17.987 17.987 0 0 0 13.703-2.098 17.991 17.991 0 0 0 8.207-11.172 7.495 7.495 0 0 1 9.071-5.495 7.5 7.5 0 0 1 5.495 9.072c-1.534 6.25-4.773 11.793-9.338 16.114 23.514 5.513 47.487 11.12 69.396 16.236a40.516 40.516 0 0 1-.594-6.917c0-22.304 18.146-40.45 40.45-40.45 2.245 0 4.447.184 6.594.537 3.845-9.557 4.644-18.284 3.854-25.847-10.468 4.1-23.878 4.767-33.529 2.596-4.042-.908-6.581-4.921-5.673-8.962s4.92-6.583 8.962-5.672c9.904 2.227 20.467.14 26.475-2.69-2.604-6.291-5.839-10.822-7.69-13.124a7.502 7.502 0 0 1-1.163-7.372c2.444-6.413 2.401-11.926-.122-15.522-2.596-3.699-8.046-5.765-14.975-5.633l-.129.001a7.5 7.5 0 0 1-7.164-5.284 120.067 120.067 0 0 0-31.448-50.991c-15.032-14.441-33.744-24.718-54.113-29.721-63.877-15.689-128.604 23.516-144.293 87.392-6.508 26.502-3.724 54.434 7.816 79.047 9.947 2.384 22.35 5.333 36.935 8.784a7.5 7.5 0 0 1-3.453 14.597c-16.205-3.833-29.719-7.05-40.174-9.56a7.02 7.02 0 0 1-.496-.12c-30.222-7.302-55.925-21.346-74.867-40.823 22.055 46.91 63.202 93.924 126.093 145.243a7.5 7.5 0 0 1-9.483 11.622C46.649 330.833 0 256.05 0 173.714 0 91.129 67.188 23.942 149.772 23.942c39.927 0 78.194 16.019 106.228 44.207 28.033-28.188 66.301-44.207 106.228-44.207 26.88 0 53.247 7.206 76.251 20.837a7.501 7.501 0 0 1 2.629 10.276 7.497 7.497 0 0 1-10.275 2.628c-20.69-12.261-44.414-18.742-68.604-18.742-38.382 0-75.06 16.451-100.629 45.134a7.501 7.501 0 0 1-11.198 0c-25.569-28.683-62.247-45.134-100.629-45.134C75.459 38.942 15 99.4 15 173.714c0 49.861 31.546 90.01 83.375 107.616a134.372 134.372 0 0 1-4.054-77.503c17.661-71.909 90.533-116.041 162.438-98.382 22.927 5.631 43.995 17.205 60.927 33.471 15.144 14.547 26.728 32.552 33.717 52.332 9.541 1.008 17.192 5.089 21.886 11.777 4.81 6.854 5.902 15.769 3.197 25.438 10.893 15.518 17.538 39.33 7.493 64.928 11.834 7.066 19.774 20 19.774 34.756 0 8.737-2.771 17.029-7.746 23.839l10.917 2.542c13.385-13.448 25.124-26.601 35.282-39.513C479.077 268.148 497 221.928 497 173.714c0-38.205-16.315-74.767-44.764-100.312a7.5 7.5 0 0 1-.569-10.591 7.499 7.499 0 0 1 10.591-.57C493.87 90.627 512 131.257 512 173.714c0 51.708-18.974 100.961-58.005 150.575-11.135 14.153-24.081 28.56-38.93 43.298-.304.364-.64.696-1.003.994-36.634 36.189-84.704 74.365-145.422 115.569a22.472 22.472 0 0 1-12.64 3.908zm84.271-149.065c14.642 3.417 27.902 6.509 38.885 9.068a25.344 25.344 0 0 0 9.597-19.914c0-14.033-11.417-25.45-25.45-25.45s-25.45 11.417-25.45 25.45c0 3.771.831 7.474 2.418 10.846zm-42.302-99.17a25.09 25.09 0 0 1-10.455-2.284 7.5 7.5 0 0 1-3.703-9.939 7.5 7.5 0 0 1 9.939-3.702c5.134 2.345 11.22.081 13.565-5.053a7.498 7.498 0 0 1 9.94-3.702 7.499 7.499 0 0 1 3.701 9.939c-4.234 9.263-13.41 14.741-22.987 14.741z"/></g></svg>