<svg height="512" viewBox="0 0 64 64" width="512" xmlns="http://www.w3.org/2000/svg"><path d="M31.66 22.83A3 3 0 0 1 30 20.15V3c0-.55-.45-1-1-1h-2c-.55 0-1 .45-1 1v17.15a3 3 0 0 1-1.66 2.68L22 24v6l2.59-2.59a4.83 4.83 0 0 1 6.82 0L34 30v-6z" fill="#ecc19c"/><path d="M22 42v5c0 3.87-3.13 7-7 7h-.76C7.48 54 2 48.52 2 41.76c0-1.82.41-3.61 1.19-5.26l2.6-5.46 4.04-8.48A7.987 7.987 0 0 1 17.05 18H18c2.21 0 4 1.79 4 4v8z" fill="#f0d0b4"/><path d="M51.78 47.73A2.988 2.988 0 0 1 50 45V30.6l-3.83-8.04A7.987 7.987 0 0 0 38.95 18H38c-2.21 0-4 1.79-4 4v25c0 3.87 3.13 7 7 7h.76c2.38 0 4.6-.68 6.47-1.85a12.36 12.36 0 0 0 3.99-4.02v-.01a.93.93 0 0 0-.44-.39z" fill="#969faa"/><circle cx="40" cy="46" fill="#ff826e" r="2"/><circle cx="40" cy="24" fill="#ff826e" r="2"/><path d="M60 4v12H50V4c0-1.1.9-2 2-2h6c1.1 0 2 .9 2 2z" fill="#dfb28b"/><path d="M60 16v29l-1.11-.55c-.58-.3-1.23-.45-1.89-.45s-1.31.15-1.89.45l-.22.1c-.58.3-1.23.45-1.89.45s-1.31-.15-1.89-.45L50 44V16z" fill="#e6e9ed"/><path d="M58.89 44.45 60 45c0 1.22-.73 2.26-1.78 2.73-.22.1-.39.27-.49.49C57.26 49.27 56.22 50 55 50s-2.26-.73-2.73-1.78c-.01-.03-.03-.06-.05-.09v-.01a.93.93 0 0 0-.44-.39A2.988 2.988 0 0 1 50 45v-1l1.11.55c.58.3 1.23.45 1.89.45s1.31-.15 1.89-.45l.22-.1c.58-.3 1.23-.45 1.89-.45s1.31.15 1.89.45z" fill="#ff826e"/><g><path d="M62 53c-.551 0-1-.448-1-1v-1h-2v1c0 1.654 1.346 3 3 3h1v-2z"/><path d="M51 60c0-.552.449-1 1-1h2c1.654 0 3-1.346 3-3s-1.346-3-3-3h-3c-.53 0-1.011-.222-1.376-.575a13.246 13.246 0 0 0 2.602-2.57A3.97 3.97 0 0 0 55 51a3.969 3.969 0 0 0 3.626-2.36A3.994 3.994 0 0 0 61 45V4c0-1.654-1.346-3-3-3h-6c-1.654 0-3 1.346-3 3v22.174l-1.925-4.043A9.043 9.043 0 0 0 38.949 17H38c-2.757 0-5 2.243-5 5v.382l-.895-.447A1.99 1.99 0 0 1 31 20.146V3c0-1.103-.897-2-2-2h-2c-1.103 0-2 .897-2 2v17.146c0 .763-.423 1.448-1.105 1.789l-.895.447V22c0-2.757-2.243-5-5-5h-.949a9.043 9.043 0 0 0-8.126 5.131l-6.64 13.943A13.325 13.325 0 0 0 1 41.765C1 49.063 6.938 55 14.235 55H15c4.411 0 8-3.589 8-8V30.414l2.293-2.293c1.446-1.445 3.968-1.445 5.414 0L33 30.414V47c0 4.411 3.589 8 8 8h.765c2.182 0 4.261-.54 6.113-1.504A3.987 3.987 0 0 0 51 55h3a1.001 1.001 0 0 1 0 2h-2c-1.654 0-3 1.346-3 3s1.346 3 3 3h11v-2H52c-.551 0-1-.448-1-1zm6.812-13.187a1.972 1.972 0 0 0-.999 1C56.491 48.534 55.78 49 55 49s-1.491-.466-1.813-1.187a1.974 1.974 0 0 0-1-1.002 1.993 1.993 0 0 1-1.067-1.167A5.242 5.242 0 0 0 53 46c.808 0 1.618-.191 2.342-.553l.21-.105c.896-.447 2-.447 2.895 0l.465.233c-.166.54-.561.998-1.1 1.238zM59 43.408c-1.381-.565-3.004-.522-4.342.145l-.21.105c-.896.447-2 .447-2.895 0L51 43.382V17h8zM52 3h6c.551 0 1 .448 1 1v11h-8V4c0-.552.449-1 1-1zM29 19h-2v-4h2zM27 8.618l2 1V13h-2zM29 3v4.382l-2-1V3zM15 53h-.765C8.04 53 3 47.96 3 41.765c0-1.66.377-3.331 1.091-4.831l1.97-4.137a12.68 12.68 0 0 0 5.696 3.173l.485-1.939a10.682 10.682 0 0 1-5.267-3.155l3.755-7.885a7.032 7.032 0 0 1 6.32-3.99H18c1.654 0 3 1.346 3 3v19.442A10.874 10.874 0 0 1 15.395 43H15v2h.395c1.956 0 3.863-.443 5.605-1.284V47c0 3.309-2.691 6-6 6zm17.121-26.293C31.021 25.606 29.557 25 28 25s-3.021.606-4.121 1.707l-.879.879v-2.968l1.789-.895a3.967 3.967 0 0 0 2.11-2.724H29.1a3.967 3.967 0 0 0 2.11 2.724l1.79.895v2.968zM41 53c-3.309 0-6-2.691-6-6V22c0-1.654 1.346-3 3-3h.949a7.032 7.032 0 0 1 6.32 3.99L49 30.825V45c0 1.37.711 2.633 1.842 3.35C48.73 51.269 45.41 53 41.765 53z"/><path d="M59 57h4v2h-4zM40 43c-1.654 0-3 1.346-3 3s1.346 3 3 3 3-1.346 3-3-1.346-3-3-3zm0 4a1.001 1.001 0 0 1 0-2 1.001 1.001 0 0 1 0 2zM40 27c1.654 0 3-1.346 3-3s-1.346-3-3-3-3 1.346-3 3 1.346 3 3 3zm0-4a1.001 1.001 0 1 1-1 1c0-.552.449-1 1-1zM43.814 36.789l-1.708-.854A1.988 1.988 0 0 1 41 34.146V33c0-2.206-1.794-4-4-4v2c1.103 0 2 .897 2 2v1.146a3.97 3.97 0 0 0 2 3.454v.159a2.01 2.01 0 0 1-.586 1.414l-1.121 1.121 1.414 1.414 1.121-1.121a4.02 4.02 0 0 0 1.083-2.012l.009.004a4.033 4.033 0 0 0 1.788.421H47v-2h-2.292c-.309 0-.618-.073-.894-.211zM43 29h2v2h-2zM45 41h2v2h-2z"/></g></svg>