<svg version="1.1" id="Layer_1" xmlns="http://www.w3.org/2000/svg" x="0" y="0" viewBox="0 0 675.6 452" style="enable-background:new 0 0 675.6 452" xml:space="preserve"><style>.st0{fill:#e0e0e0}.st1{fill:#ebebeb}.st2{fill:#263238}.st3{fill:#455a64}.st5{fill:#0061f2}.st6{opacity:.4}.st8{fill:#fafafa}.st10{fill:#ffbe9d}.st11{fill:#eb996e}.st12{opacity:.3}</style><g id="background-complete--inject-34"><path class="st0" d="M554.1 98.2c-6.7 1.2-13.2-3.3-14.4-10.1-.4-2.1-.2-4.3.6-6.4l24.3-67.2c1.5-4.2 5.1-7.2 9.5-8 4.4-.8 8.8.8 11.6 4.2l46.1 54.6c4.4 5.2 3.7 13.1-1.5 17.5-1.7 1.4-3.7 2.3-5.8 2.7l-70.4 12.7zm20.7-88c-3.1.5-5.6 2.7-6.6 5.6L543.8 83c-1.6 4.5.7 9.5 5.2 11.1 1.4.5 3 .6 4.5.4l70.3-12.6c4.7-.8 7.9-5.4 7-10.1-.3-1.5-.9-2.9-1.9-4.1l-46.1-54.6c-1.9-2.3-5-3.5-8-2.9z"/><path class="st0" d="M580.8 73.1c-.4-2.5 1.2-4.9 3.7-5.3h.2c2.4-.7 5 .8 5.6 3.2.7 2.4-.8 5-3.2 5.6-.2.1-.5.1-.7.1-2.5.5-5-1-5.5-3.5-.1 0-.1 0-.1-.1zm-6.3-36.7 8.6-1.6 3.5 27.6-5.8 1-6.3-27z"/><path class="st1" d="M554 349.2c-13.9-19.8-9.4-45.5-.8-67 1.4-3.6 2.4-7.6 5.3-10.1s7.7-3.3 10.4-.6c2.2 2.2 2.3 5.8 2.8 9 .8 4.2 2.7 8.1 5.6 11.2 1.9 2 4.5 3.8 7.2 3.4 3.8-.6 5.7-4.8 7-8.4l7.2-20.2c1.3-3.6 2.6-7.3 5-10.3 2.4-3 6-5.3 9.8-5s7.3 3.8 6.8 7.6c-.2 1.6-1.1 3-1.5 4.5-.4 1.5-.3 3.5.9 4.4 1.3.9 3.1.5 4.6-.2 5-2.3 9.3-6.1 13.3-9.9 4.1-3.8 8.1-7.8 12.9-10.5 4.8-2.8 10.7-4.2 15.9-2.6 5.3 1.6 9.6 6.8 9.1 12.3-.5 5.6-5.4 9.6-10.1 12.6-7 4.4-14.6 7.7-22.6 9.9-1.4.4-3 .8-3.9 2-1.7 2.1-.2 5.3 1.8 7 2.4 1.9 5.4 2.6 8.1 4 2.7 1.4 5.3 3.7 5.4 6.8.1 4.2-4.3 7-8.3 8.4-7.9 2.9-16.3 4.3-24.7 4.4-3 0-6.1-.2-8.9.9-2.8 1.1-5.3 3.9-4.9 6.9s3.4 5 6.4 5.5 6-.1 9-.2c5.6-.1 11.9 2.6 13.5 8 1.1 3.6-.2 7.6-2.4 10.5-2.4 2.9-5.4 5.2-8.7 6.9-11.3 6.4-24.2 10.3-37.2 10.1-13-.1-24.1-3-34-11.3"/><path class="st0" d="M564.5 337.7c7.9-10.5 16.4-20.6 25.5-30.2l7.1-7.6c2.3-2.5 4.6-4.9 7-7.2 4.6-4.3 9.5-8.4 14.6-12.2 4.8-3.7 9.5-7 14-10 4.4-3 8.6-5.8 12.5-8.1 6.2-3.7 12.7-7 19.4-9.7 2.4-1 4.2-1.6 5.5-2.1l1.5-.5c.2-.1.3-.1.5-.1l-.5.2-1.4.6c-1.2.5-3.1 1.2-5.4 2.2-6.6 2.8-13 6.1-19.2 9.9-3.9 2.4-8.1 5.1-12.5 8.2-4.4 3.1-9.1 6.4-13.9 10-5.1 3.8-9.9 7.9-14.5 12.2-2.4 2.3-4.7 4.7-7 7.2l-7.1 7.6c-9 9.5-17.5 19.6-25.5 30.1"/><path class="st0" d="M604.3 292.8c0-.6.1-1.1.2-1.7.2-1.1.5-2.6.9-4.5.8-3.8 2.1-9 3.5-14.7 1.4-5.7 2.6-10.9 3.4-14.7.4-1.9.7-3.4.8-4.5.1-.6.2-1.1.4-1.6 0 .6 0 1.1-.1 1.7-.1 1.1-.3 2.6-.6 4.5-.6 3.8-1.7 9-3.2 14.8l-3.7 14.6c-.4 1.8-.8 3.2-1.1 4.4-.1.6-.2 1.1-.5 1.7zM653.9 300.9c-.7-.1-1.3-.2-1.9-.5-1.2-.3-3-.8-5.2-1.3-4.4-1.1-10.6-2.4-17.4-3.5s-13.1-1.8-17.6-2.2c-2.3-.2-4.1-.4-5.4-.4-.7 0-1.3-.1-2-.2.7-.1 1.3-.1 2-.1 1.3 0 3.1.1 5.4.2 4.6.3 10.8.9 17.7 2 5.9.9 11.7 2.2 17.4 3.7 2.2.6 4 1.1 5.2 1.5.6.3 1.2.5 1.8.8zM565.4 337c-.1-.2-.1-.4-.1-.7 0-.5-.1-1.2-.2-2-.2-1.7-.3-4.2-.5-7.2-.3-6.1-.5-14.6-.5-24s-.1-17.8-.3-24c-.1-3-.2-5.4-.2-7.3 0-.8 0-1.4-.1-2v-.7c.1.2.1.4.1.7.1.5.1 1.2.2 2 .2 1.7.3 4.2.5 7.2.3 6.1.5 14.6.5 24s.1 17.8.3 24c.1 3 .2 5.4.2 7.2v2c.2.3.2.6.1.8z"/><path class="st0" d="M634.3 339.5h-2.7l-7.4-.3c-6.2-.2-14.8-.4-24.4-.6s-18.1-.5-24.4-.8c-3.1-.2-5.6-.3-7.4-.5l-2-.2c-.2 0-.5 0-.7-.1h2.7l7.4.2c6.2.2 14.8.4 24.4.6 9.5.2 18.1.5 24.4.8 3.1.2 5.6.3 7.4.5l2 .2c.3.1.5.1.7.2z"/><path class="st1" d="M17.4 59.2S8 63 18.8 83s18.3 29.8 18.3 29.8 2 4.6-2 5.5-12.7-.3-14.3 4.6c-1.7 5.1 2.1 9.7 9.6 13.7s23.6 13.2 25.1 14.1 2.9 3 .3 4-22.1 3.5-20.3 12.7 24.5 16.8 26.9 17.7 3.1 1.9 2.9 3.2-6.8 1.6-12.3 2.5-11.8 3-10.3 8.2 15.1 15.9 47.5 18.2l15.1.1 7.9-13c15.2-28.7 13.3-45.9 9.6-49.9s-8.7.2-12.4 4.4-7.4 9.7-8.7 9.1-1.8-1.6-1.2-4.2 6.1-25.8-.8-32.2S80.2 140.4 78 142s-3.3-.7-3.2-2.4.7-20.2 1.3-28.7-1.3-14.1-6.5-15.3c-5-1.2-8.6 6.8-11.4 9.7s-5.7-1.2-5.7-1.2S48 92.7 36.8 72.9 17.2 59.3 17.2 59.3"/><path class="st0" d="M106 220.8c-8.2-14.6-22.3-40.6-34.5-63s-23.3-42.5-31.4-57.1l-9.6-17.3-2.5-4.7-.7-1.2c-.2-.3-.2-.4-.2-.4.1.1.2.3.3.4l.7 1.2 2.7 4.7c2.3 4 5.7 9.9 9.7 17.2 8.2 14.5 19.3 34.7 31.5 57.1s26.3 48.5 34.4 63"/><path class="st0" d="M33 124.9c.4 0 .7.1 1.1.3.7.2 1.6.5 2.8.9 2.4.8 5.6 2 9.2 3.4l9.1 3.6 2.8 1.1c.3.1.7.3 1 .4-.4 0-.7-.1-1.1-.3-.7-.2-1.6-.5-2.8-.9-2.4-.8-5.6-2.1-9.2-3.4l-9.1-3.5-2.8-1c-.4-.2-.7-.4-1-.6zM59.9 133.5c-.1 0 2-6.9 4.8-15.2s5.2-15.1 5.3-15.1-2 6.9-4.8 15.2-5.1 15.1-5.3 15.1zM77.2 168.7c.2-.3.4-.7.6-.9l1.7-2.5c1.4-2.1 3.4-5 5.5-8.3s3.9-6.3 5.2-8.6c.6-1 1.1-1.9 1.5-2.6l.6-.9c-.1.3-.3.7-.4 1-.3.6-.8 1.6-1.4 2.7-1.2 2.3-3 5.3-5.1 8.6s-4.1 6.2-5.7 8.3c-.8 1-1.4 1.9-1.8 2.4-.2.2-.5.5-.7.8zM51 166.2h1l2.8.1c2.4.1 5.6.4 9.2.7s6.8.6 9.2.8l2.8.3c.3 0 .7.1 1 .2h-1l-2.8-.1c-2.4-.1-5.6-.4-9.2-.7s-6.8-.6-9.2-.8l-2.8-.3c-.3 0-.6-.1-1-.2zM62.3 199.2h1.3l3.6.2c3 .2 7.2.4 11.8.8s8.8.6 11.8.9l3.6.3c.4 0 .9.1 1.3.2h-1.3l-3.6-.2c-3-.2-7.2-.4-11.8-.8s-8.8-.6-11.8-.9l-3.5-.3c-.5 0-1-.1-1.4-.2zM94.9 201.3c.2-.4.4-.8.7-1.2.5-.8 1.2-1.9 2.1-3.2 1.7-2.7 4.1-6.5 6.7-10.8s4.7-8.2 6.3-11l1.9-3.4c.2-.4.5-.8.7-1.2-.1.5-.3.9-.6 1.3l-1.7 3.4c-1.5 2.9-3.6 6.8-6.2 11.1s-5 8-6.8 10.7c-.9 1.4-1.7 2.4-2.2 3.2-.3.3-.6.7-.9 1.1z"/></g><g id="Device--inject-34"><path class="st2" d="M545.4 76H120.5c-7.3 0-13.3 5.9-13.3 13.3v300.1c0 7.3 5.9 13.3 13.3 13.3h163.1s10.4 32.1-21.8 48.7h152.5s-36.3-12.5-27-48.7h158.1c7.3 0 13.3-5.9 13.3-13.2V89.2c-.1-7.3-6-13.2-13.3-13.2z"/><path class="st3" d="M338.6 370.3c5.8 8.3-3.3 17.3-11.5 11.5-.3-.2-.5-.4-.7-.7-5.8-8.2 3.3-17.3 11.5-11.5.3.2.5.4.7.7z"/><path d="M124.2 80.7h417.4c5.4 0 9.7 4.3 9.7 9.7V347H114.5V90.4c0-5.3 4.4-9.7 9.7-9.7z" style="fill:#fff"/><path class="st1" d="M123.6 80.7h420.2c4.2 0 7.5 3.4 7.5 7.5v14.6H114.5v-13c0-5 4.1-9.1 9.1-9.1z"/><circle class="st3" cx="128.4" cy="92.3" r="3.1"/><circle class="st3" cx="137.6" cy="92.3" r="3.1"/><path class="st3" d="M149.3 92.3c0 1.7-1.4 3.1-3.1 3.1-1.7 0-3.1-1.4-3.1-3.1 0-1.7 1.4-3.1 3.1-3.1s3.1 1.4 3.1 3.1zM469.4 401.9c0 .1-60.5.3-135 .3s-135-.1-135-.3 60.5-.2 135-.2 135 .1 135 .2z"/></g><g id="error-400--inject-34"><path class="st2" d="M311.1 302.1v1.8h-10.7v-14.7h10.4v1.8h-8.3v4.5h7.4v1.8h-7.4v4.8h8.6zM324.4 303.9l-3.2-4.5H316.6v4.5h-2.1v-14.7h5.8c3.8 0 6.1 1.9 6.1 5.1.1 2.1-1.2 4-3.2 4.6l3.5 5h-2.3zm-.1-9.6c0-2.1-1.4-3.3-4.1-3.3h-3.6v6.6h3.6c2.7.1 4.1-1.2 4.1-3.3zM339.7 303.9l-3.2-4.5H332v4.5h-2.1v-14.7h5.8c3.8 0 6.1 1.9 6.1 5.1.1 2.1-1.2 4-3.2 4.6l3.5 5h-2.4zm-.1-9.5c0-2.1-1.4-3.3-4.1-3.3h-3.6v6.6h3.6c2.7 0 4.1-1.3 4.1-3.3zM344 296.6c-.2-4.3 3.2-8 7.5-8.2 4.3-.2 8 3.2 8.2 7.5.2 4.3-3.2 8-7.5 8.2h-.3c-4.1.2-7.6-3-7.9-7.1v-.4zm13.5 0c0-3.2-2.5-5.8-5.7-5.8s-5.8 2.5-5.8 5.7 2.5 5.8 5.7 5.8h.1c3.1.1 5.6-2.3 5.7-5.3v-.4zM372.7 303.9l-3.2-4.5H365v4.5h-2.1v-14.7h5.8c3.8 0 6.1 1.9 6.1 5.1.1 2.1-1.2 4-3.2 4.6l3.5 5h-2.4zm-.1-9.5c0-2.1-1.4-3.3-4.1-3.3h-3.6v6.6h3.6c2.8 0 4.1-1.3 4.1-3.3z"/><path class="st0" d="M538.9 230.5c-3.6 22.8-11.5 39.4-23.7 49.7-12.2 10.3-27.1 14.1-44.8 11.3-17.7-2.8-30.8-11-39.3-24.6-8.5-13.6-10.9-31.8-7.2-54.6l6.4-40.1c3.6-22.7 11.5-39.3 23.7-49.7 12.2-10.4 27.2-14.2 44.9-11.4 17.7 2.8 30.7 11.1 39.2 24.8 8.4 13.7 10.8 31.9 7.2 54.6l-6.4 40zm-22.1-49.3c2.3-14.4 1.6-25.4-2.2-33-3.7-7.6-10.2-12.2-19.4-13.7s-16.8.9-22.7 7-9.9 16.4-12.2 30.8l-7.8 48.7c-2.3 14.4-1.6 25.5 2.2 33.2 3.8 7.7 10.2 12.3 19.5 13.8 9.2 1.5 16.8-.9 22.6-7 5.8-6.1 9.9-16.5 12.2-31l7.8-48.8z"/><path class="st5" d="M551.1 222.9c-3.6 22.8-11.5 39.4-23.7 49.7-12.2 10.3-27.1 14.1-44.8 11.3-17.7-2.8-30.8-11-39.3-24.6-8.5-13.6-10.9-31.8-7.2-54.6l6.4-40.1c3.6-22.7 11.5-39.3 23.7-49.7 12.2-10.4 27.2-14.2 44.9-11.4 17.7 2.8 30.7 11.1 39.2 24.8s10.9 31.9 7.2 54.6l-6.4 40zm-22.2-49.3c2.3-14.4 1.6-25.4-2.2-33s-10.2-12.2-19.4-13.7-16.8.9-22.7 7-10 16.4-12.2 30.7l-7.8 48.7c-2.3 14.4-1.6 25.5 2.2 33.2 3.8 7.7 10.2 12.3 19.5 13.8 9.2 1.5 16.8-.9 22.6-7 5.8-6.1 9.9-16.5 12.2-31l7.8-48.7z"/><path d="M551.1 222.9c-3.6 22.8-11.5 39.4-23.7 49.7-12.2 10.3-27.1 14.1-44.8 11.3-17.7-2.8-30.8-11-39.3-24.6-8.5-13.6-10.9-31.8-7.2-54.6l6.4-40.1c3.6-22.7 11.5-39.3 23.7-49.7 12.2-10.4 27.2-14.2 44.9-11.4 17.7 2.8 30.7 11.1 39.2 24.8s10.9 31.9 7.2 54.6l-6.4 40zm-22.2-49.3c2.3-14.4 1.6-25.4-2.2-33s-10.2-12.2-19.4-13.7-16.8.9-22.7 7-10 16.4-12.2 30.7l-7.8 48.7c-2.3 14.4-1.6 25.5 2.2 33.2 3.8 7.7 10.2 12.3 19.5 13.8 9.2 1.5 16.8-.9 22.6-7 5.8-6.1 9.9-16.5 12.2-31l7.8-48.7z" class="st6"/><path class="st5" d="M568 225.6c-3.6 22.8-11.5 39.4-23.7 49.7s-27.1 14.1-44.8 11.3c-17.7-2.8-30.8-11-39.3-24.6-8.5-13.6-10.9-31.8-7.2-54.6l6.4-40.1c3.6-22.7 11.5-39.3 23.7-49.7 12.2-10.4 27.2-14.2 44.9-11.4 17.7 2.8 30.7 11.1 39.2 24.8s10.9 31.9 7.2 54.6l-6.4 40zm-22.2-49.3c2.3-14.4 1.6-25.4-2.2-33s-10.2-12.2-19.4-13.7-16.8.9-22.7 7c-5.9 6.1-10 16.4-12.2 30.7l-7.8 48.7c-2.3 14.4-1.6 25.5 2.2 33.2 3.7 7.7 10.2 12.3 19.5 13.8 9.2 1.5 16.8-.9 22.6-7 5.8-6.1 9.9-16.5 12.2-31l7.8-48.7zM459 169.6c0 .1-4.1 1-9.3 2s-9.4 1.7-9.4 1.6 4.1-1 9.3-2 9.4-1.7 9.4-1.6z"/><path class="st5" d="M457.3 185.6c0 .1-4.1 1-9.3 2s-9.4 1.7-9.4 1.6 4.1-1 9.3-2 9.4-1.8 9.4-1.6zM455.6 201.5c0 .1-4.1 1-9.3 2s-9.4 1.7-9.4 1.6 4.1-1 9.3-2 9.4-1.7 9.4-1.6zM453.9 217.5c0 .1-4.1 1-9.3 2s-9.4 1.7-9.4 1.6 4.1-1 9.3-2 9.4-1.7 9.4-1.6zM452.2 233.5c-.8.3-1.6.5-2.5.6-1.5.3-3.6.8-6 1.2s-4.5.9-6 1.1c-.8.2-1.7.3-2.5.3.8-.3 1.6-.5 2.5-.6 1.5-.3 3.6-.8 6-1.2s4.5-.9 6-1.1c.8-.1 1.7-.2 2.5-.3zM454.3 248.8c-.7.3-1.4.5-2.1.6-1.3.3-3.2.7-5.2 1.1s-3.9.7-5.3 1c-.7.2-1.5.3-2.2.3.7-.3 1.4-.5 2.1-.6 1.3-.3 3.2-.7 5.2-1.1s3.9-.7 5.3-1c.7-.2 1.5-.3 2.2-.3zM461.7 263.7c-.6.2-1.3.4-1.9.5-1.2.3-2.8.6-4.7 1s-3.5.6-4.7.8c-.7.2-1.3.2-2 .2.6-.2 1.3-.4 1.9-.5 1.2-.3 2.8-.6 4.7-1s3.5-.6 4.7-.9c.7-.1 1.4-.1 2-.1zM476.3 275.1c-.6.2-1.3.4-1.9.5-1.2.3-2.8.6-4.7 1s-3.5.6-4.7.8c-.7.2-1.3.2-2 .2.6-.3 1.2-.4 1.9-.5 1.2-.3 2.8-.6 4.7-1s3.5-.6 4.7-.9c.7 0 1.4-.1 2-.1zM530.5 249.5c0 .1-5.4 1.6-12.1 3.4-6.7 1.8-12.2 3.1-12.2 2.9s5.4-1.6 12.1-3.4c6.7-1.7 12.2-3 12.2-2.9zM536.1 236.5c0 .1-4.4 1.4-10 2.8s-10.1 2.5-10.1 2.4 4.4-1.4 10-2.8 10.1-2.5 10.1-2.4zM540.2 221.5c0 .1-4.4 1.4-10 2.8s-10.1 2.5-10.1 2.4 4.4-1.4 10-2.8 10.1-2.5 10.1-2.4zM544.3 206.6c0 .1-4.4 1.4-10 2.8s-10.1 2.5-10.1 2.4 4.4-1.4 10-2.8c5.6-1.5 10-2.5 10.1-2.4zM548.4 191.6c0 .1-4.4 1.4-10 2.8s-10 2.5-10.1 2.4c-.1-.1 4.4-1.4 10-2.8 5.5-1.5 10-2.5 10.1-2.4zM547.6 177.5c0 .1-4.4 1.4-10 2.8s-10 2.5-10.1 2.4c-.1-.1 4.4-1.4 10-2.8s10.1-2.5 10.1-2.4zM550.1 162.9c0 .1-4.4 1.4-10 2.8s-10.1 2.5-10.1 2.4 4.4-1.4 10-2.8 10.1-2.5 10.1-2.4zM550.9 148.9c0 .1-4.4 1.4-10 2.8s-10.1 2.5-10.1 2.4 4.4-1.4 10-2.8 10.1-2.5 10.1-2.4zM539.5 137.1c-4 1.4-8.1 2.4-12.2 3.2 2-.7 4-1.3 6-1.8 2-.6 4.1-1 6.2-1.4zM533.5 130.1c-2 .7-4 1.3-6.1 1.8-2 .6-4.1 1.1-6.2 1.4 2-.7 4-1.4 6-1.8 2.1-.6 4.2-1.1 6.3-1.4zM463 150.5c0 .1-4.1 1-9.3 2s-9.4 1.7-9.4 1.6 4.1-1 9.3-2 9.4-1.7 9.4-1.6zM471.2 131.6c0 .1-4.5 1.1-10.1 2.2s-10.1 1.9-10.2 1.8 4.5-1.1 10.1-2.2 10.2-1.9 10.2-1.8zM487.2 114.2c0 .1-5.7 1.3-12.8 2.7s-12.8 2.4-12.8 2.3 5.7-1.3 12.8-2.7 12.8-2.4 12.8-2.3z"/><path class="st0" d="m230.1 223 22.4-1.7 1.8 23.7-22.4 1.7 3.1 39.4-29.4 2.3-3.1-39.4-61.6 4.8.1-26 49.9-116.3 30.4-2.4 8.8 113.9zm-77 6 47.5-3.7-5.6-71.8-.8-.2-2 5.4-39.1 70.3z"/><path class="st5" d="m216.4 211.5 22.4-1.7 1.9 23.7-22.4 1.7 3.1 39.4-29.4 2.3-3.1-39.4-76 5.9-2.1-18 66.4-125.5 30.4-2.4 8.8 114zm-77 6 47.5-3.7-5.6-71.8-.8-.2-2 5.4-39.1 70.3z"/><path d="m216.4 211.5 22.4-1.7 1.9 23.7-22.4 1.7 3.1 39.4-29.4 2.3-3.1-39.4-76 5.9-2.1-18 66.4-125.5 30.4-2.4 8.8 114zm-77 6 47.5-3.7-5.6-71.8-.8-.2-2 5.4-39.1 70.3z" class="st6"/><path class="st5" d="m196.9 213 22.4-1.7 1.8 23.7-22.4 1.7 3.1 39.4-29.4 2.3-3.1-39.4-76 5.9-2.1-18 66.4-125.5L188 99l8.9 114zm-77 6 47.5-3.7-5.5-71.9-.8-.2-2 5.4-39.2 70.4z"/><path class="st5" d="M148.6 202c-.3.2-.6.4-.9.5-.6.3-1.5.8-2.6 1.3-2.2 1.1-5.3 2.6-8.8 4.1s-6.6 3-8.9 3.9c-1.1.5-2.1.9-2.7 1.1-.3.2-.7.3-1 .4.3-.2.7-.3 1-.5l2.7-1.2 8.8-4 8.8-4.1 2.6-1.3c.4 0 .7-.1 1-.2zM159.3 182.9c-.3.2-.7.4-1 .5-.6.3-1.6.8-2.7 1.3-2.3 1.1-5.4 2.5-8.9 4s-6.7 2.8-9 3.8c-1.2.5-2.1.8-2.8 1.1-.3.1-.7.3-1 .3.3-.2.7-.3 1-.5l2.7-1.2 9-3.9 9-3.9 2.7-1.2c.3-.1.6-.2 1-.3zM214.9 199.7c-.2.2-.4.3-.7.5-.5.3-1.1.7-1.9 1.1-1.6.9-3.9 2.2-6.5 3.6s-4.9 2.5-6.6 3.3l-2 1c-.2.1-.5.2-.8.3.2-.2.5-.3.7-.4l2-1.1 6.6-3.4 6.6-3.5 2-1.1c.1 0 .3-.2.6-.3zM238.7 213.1c-.2.2-.4.3-.7.5-.5.3-1.1.7-1.9 1.1-1.6.9-4 2.2-6.5 3.6s-4.9 2.5-6.6 3.3c-.9.4-1.6.7-2 .9-.2.1-.5.2-.8.3.2-.2.5-.3.7-.4l2-1.1 6.6-3.4 6.6-3.5 2-1.1c.1 0 .4-.2.6-.2zM239.8 225c-.2.2-.4.3-.7.5-.5.3-1.1.7-1.9 1.1-1.6 1-4 2.2-6.5 3.6s-4.9 2.5-6.6 3.3c-.9.4-1.6.7-2 1-.2.1-.5.2-.8.3.2-.2.5-.3.7-.4l2-1 6.6-3.4 6.6-3.5 2-1.1c.1-.2.3-.3.6-.4zM218.2 235.7c-.2.2-.4.3-.7.5-.4.3-1.1.7-1.9 1.1-1.6.9-3.8 2.2-6.3 3.5s-4.8 2.5-6.4 3.3c-.8.4-1.5.7-2 .9-.2.1-.5.2-.8.3.2-.2.4-.3.7-.4.5-.3 1.2-.6 1.9-1l6.4-3.4 6.4-3.5 1.9-1c.3-.1.5-.2.8-.3zM219.1 248.5c-.2.2-.4.3-.7.5-.4.3-1.1.7-1.9 1.1-1.6.9-3.8 2.2-6.3 3.5s-4.8 2.5-6.4 3.3c-.8.4-1.5.7-2 .9-.2.1-.5.2-.8.3.2-.2.4-.3.7-.4l1.9-1 6.4-3.4 6.4-3.5 1.9-1c.3 0 .6-.2.8-.3zM220.1 261.4c-.2.2-.4.3-.7.5-.4.3-1.1.7-1.9 1.1-1.6.9-3.8 2.2-6.3 3.5s-4.8 2.5-6.4 3.3c-.8.4-1.5.7-2 .9-.2.1-.5.2-.8.3.2-.2.4-.3.7-.4l1.9-1 6.4-3.4 6.3-3.5 1.9-1c.4-.1.6-.2.9-.3zM213.9 186.1c-.2.2-.4.3-.7.5-.4.3-1.1.7-1.9 1.1-1.6 1-3.9 2.2-6.5 3.6s-4.9 2.5-6.6 3.3l-2 .9c-.2.1-.5.2-.8.3.2-.2.5-.3.7-.4l2-1 6.6-3.4 6.6-3.5 2-1.1c.1 0 .3-.2.6-.3zM212.9 172.5c-.2.2-.4.3-.7.5-.4.3-1.1.7-1.9 1.1-1.6.9-3.9 2.2-6.5 3.6s-4.9 2.5-6.6 3.3l-2 1c-.2.1-.5.2-.8.3.2-.2.5-.3.7-.4l2-1.1 6.6-3.4 6.6-3.5 2-1.1c.1-.1.3-.2.6-.3zM211.4 156.6c-.2.2-.4.3-.7.4-.4.3-1.1.6-1.8 1.1-1.6.9-3.8 2.1-6.2 3.4s-4.7 2.4-6.3 3.2c-.8.4-1.5.7-1.9.9-.2.1-.5.2-.7.3.2-.2.4-.3.7-.4l1.9-1 6.3-3.2 6.2-3.3c.8-.4 1.4-.7 1.9-1 .1-.2.3-.3.6-.4zM210.5 140.1c-.2.2-.4.3-.6.4-.4.3-1.1.6-1.9 1.1-1.6.9-3.8 2.1-6.2 3.4s-4.7 2.4-6.3 3.2c-.8.4-1.5.7-1.9.9-.2.1-.5.2-.7.3.2-.2.4-.3.7-.4l1.9-1 6.3-3.2 6.2-3.3c.8-.4 1.4-.7 1.9-1 .1-.3.4-.4.6-.4zM209.4 123.1c-.2.2-.4.4-.7.5l-1.9 1.2c-1.6 1-3.9 2.3-6.5 3.8s-4.9 2.7-6.7 3.5c-.9.4-1.6.8-2.1 1-.2.1-.5.2-.8.3.2-.2.5-.3.7-.4l2-1.1 6.6-3.6 6.6-3.7 2-1.1c.3-.2.6-.3.8-.4zM208.8 106.9c-.2.2-.5.3-.7.4-.5.3-1.1.6-2 1.1-1.7.9-4.1 2.1-6.8 3.5s-5.1 2.4-6.9 3.2c-.9.4-1.6.7-2.1.9-.3.1-.5.2-.8.3.2-.2.5-.3.7-.4l2.1-1 6.8-3.3 6.8-3.4 2.1-1c.2-.1.5-.2.8-.3zM164.1 165.2c.1.1-4.4 2.4-10 5.2s-10.1 4.9-10.2 4.8 4.4-2.4 10-5.2 10.1-4.9 10.2-4.8zM162.4 151.4c-1 .9-2.1 1.6-3.3 2.1-1.2.7-2.4 1.1-3.7 1.4 1.1-.7 2.3-1.3 3.5-1.8 1.1-.6 2.3-1.2 3.5-1.7z"/><path class="st0" d="M257.9 226c6.6 14.7 13.8 24.3 29.5 37.4 19 15.9 46.3 21.1 70 13.7s45.6-27.3 52.3-51.1"/><circle class="st5" cx="333.7" cy="183.3" r="87"/><path d="M306.7 100.8c-2.8 2.3 1.3 6.9 4 9.3s6.1 5.1 5.7 8.8c-8.9 1.5-18.1 3.2-25.5 8.4-11 7.7-15.6 21.2-21.4 33.3-3.5 7.4-7.7 14.4-10.9 21.9s-5.4 15.6-4.9 23.7 4.2 16.3 10.9 21c6.7 4.7 16.5 5 22.7-.2l.6 6.9-2 22.3 50.5 3.7 5.8-151.8V96.7c.1 0-29.7-.5-35.5 4.1z" style="opacity:.3;enable-background:new"/><path class="st2" d="M409.9 183.6c-3.6-2.1-7.8-2.5-11.9-2.4-4.1.2-8.2.9-12.2 2.2-3.4.9-6.6 2.3-9.6 4.1l.4 1.2c11.1 2.9 22.9 1.6 33.2-3.7.3-.1 1.1-.5 1.1-.8s-.8-.5-1-.6zM265 186.2c-.9 1.4-.4 3.3.3 4.8.8 1.4 1.9 2.6 3.2 3.6 3.8 3.1 8.4 5.6 13.4 5.9s10.2-2.1 12.4-6.6c.5-1.1 1.5-2.8 1.5-2.8-1.2-.7-2.5-1.4-3.8-1.9-4.5-1.7-8.6-3.7-13.3-4.5-4.7-.8-9.4-.3-13.7 1.5"/><path class="st3" d="M393 133c-2.7-3-36.2-15.9-36.2-15.9l-31.7 2.2s-15.5 4-27.1 8.2c-7.1 2.6-12.8 8-15.6 15L265 186.2s2.6-1.5 10-1.4c7.7.1 20.7 6.2 20.7 6.2l-8.3 65.7c25.6 17.2 56.3 18.8 86.1 3.8l.2-9.4 3.2-62.8c3.3-4.5 21.4-10.4 33.9-4.2.1.2-12.1-44.9-17.8-51.1z"/><path class="st2" d="M374 148.4c0-.3 0-.5.1-.8l.6-2.1c.9-2.2 2.1-4.3 3.7-6.1 1.6-1.8 3.5-3.3 5.6-4.4.6-.3 1.3-.6 2-.9.2-.1.5-.2.8-.2 0 .1-1 .5-2.6 1.4-4.1 2.4-7.3 6-9.2 10.4-.6 1.6-.9 2.7-1 2.7zM374.1 187.8c-.1 0-.2-8.1-.3-18.2s0-18.2.2-18.2.2 8.2.3 18.2-.1 18.2-.2 18.2zM299.8 152.4c.1 0-.7 8.6-1.8 19.1s-2.2 19-2.3 19 .7-8.6 1.8-19.1 2.1-19 2.3-19zM361.2 118.8v.6c0 .6 0 1.2-.1 1.8-.2 2.2-.8 4.4-1.8 6.4-1.4 3-3.5 5.7-6.1 7.7-6.7 5-15.8 5.5-23 1.1-2.8-1.8-5.2-4.2-6.9-7.1-1.1-1.9-1.9-4-2.4-6.2-.1-.6-.2-1.2-.2-1.8v-.6c.1 0 .1.9.5 2.4.5 2.2 1.3 4.2 2.5 6.1 1.7 2.8 4 5.2 6.8 6.9 7 4.2 15.9 3.8 22.5-1.1 2.6-2 4.7-4.6 6.1-7.5.9-2 1.6-4.1 1.9-6.3.1-1.5.1-2.4.2-2.4z"/><path class="st8" d="M296.2 176.5c-.3-.1-.6-.2-1-.3-.6-.2-1.5-.6-2.5-1-5.6-2.1-11.4-3.6-17.4-4.3-1.1-.1-2.1-.2-2.7-.3-.3 0-.7-.1-1-.1h1c.6 0 1.6.1 2.7.2 6 .6 11.9 2 17.4 4.3 1.1.4 1.9.8 2.5 1.1.4 0 .7.2 1 .4zM373.6 173c0 .1-17-.3-37.9-1s-37.9-1.3-37.9-1.4 17 .3 37.9 1 37.9 1.3 37.9 1.4zM403.6 161.3h-1.2c-.8 0-1.9-.1-3.2-.1-7.1 0-14.1 1.6-20.6 4.5-1.2.6-2.2 1-2.9 1.4-.3.2-.7.4-1.1.5.3-.2.6-.5 1-.6.6-.4 1.6-.9 2.9-1.5 3.2-1.5 6.6-2.7 10.1-3.5 3.5-.7 7.1-1.1 10.6-1 1.1 0 2.2.1 3.2.2.5 0 .8 0 1.2.1zM299.6 149.1c0 .1-.9-.6-2.4-1.5-1.9-1.2-3.9-2.1-6-2.8-2.1-.7-4.3-1.1-6.5-1.4-1.7-.1-2.8-.1-2.8-.2.2-.1.5-.1.8-.1h2c2.3.1 4.5.5 6.6 1.2 2.1.7 4.2 1.7 6.1 3 .6.4 1.1.8 1.6 1.2.3.2.5.4.6.6zM368.3 147.6h-.6l-1.9-.1-6.8-.5c-5.7-.4-13.7-.9-22.5-1.2s-16.7-.5-22.5-.5l-6.8-.1h-2.5.6l1.9-.1c1.6-.1 3.9-.1 6.8-.1 5.8 0 13.7 0 22.5.4s16.7.9 22.5 1.4c2.9.2 5.2.5 6.8.6l1.9.2h.6zM320 126.8c-2.5.1-5 0-7.5-.3-2.5-.1-5-.3-7.5-.7 2.5-.1 5 0 7.5.3 2.5.1 5 .3 7.5.7zM379.7 125.9c0 .1-4.4.2-9.7.2s-9.7-.1-9.7-.2 4.4-.2 9.7-.2 9.7.1 9.7.2zM374.7 205H371.6c-2 0-4.9 0-8.5-.1-7.2-.1-17.2-.5-28.2-1.2s-20.9-1.6-28.1-2.4c-3.6-.4-6.5-.8-8.5-1l-2.3-.3-.6-.1-.2-.1h.2l.6.1 2.3.2 8.5.9c7.2.7 17.1 1.6 28.1 2.3s21 1.1 28.2 1.3l8.5.2 2.3.1h.6l.2.1zM375.3 232.9l-.2.1-.6.1-2.4.5c-1.1.2-2.4.5-3.9.7s-3.2.5-5.1.8-4 .5-6.2.7-4.7.4-7.2.5c-5.1.3-10.7.4-16.5.2s-11.4-.7-16.4-1.4c-2.5-.4-4.9-.7-7.1-1.1s-4.3-.8-6.2-1.2-3.6-.8-5.1-1.1-2.8-.7-3.8-1l-2.4-.7-.6-.2c-.1 0-.1 0-.2-.1h.2l.6.1 2.4.6c1 .3 2.3.6 3.8.9s3.2.7 5.1 1.1 4 .8 6.2 1.1 4.6.7 7.1 1c5 .6 10.6 1.1 16.4 1.3s11.4.1 16.5-.1c2.5-.2 4.9-.3 7.2-.5s4.3-.4 6.2-.6 3.6-.5 5.1-.7 2.8-.4 3.9-.6l2.4-.4.6-.1c.1.1.2.1.2.1zM373.6 256.8l-.2.1-.6.2-2.4.7c-.5.1-1.1.3-1.8.5l-2.1.5-2.5.5c-.9.2-1.8.3-2.8.5s-2 .3-3 .5l-3.3.4-1.8.2-1.8.1-3.8.3c-5.7.3-11.3.2-17-.1-6-.4-11.7-1.1-16.9-2l-3.7-.7-1.8-.4-1.7-.4-3.3-.8-3-.8c-4.1-1.1-8.1-2.5-12-4.2.1 0 .2 0 .2.1l.6.2 2.4.9c.5.2 1.1.4 1.7.6l2.1.6 2.4.8c.9.3 1.8.5 2.7.8l3 .8 3.3.8 1.7.4 1.8.3 3.7.7c5.1.8 10.8 1.5 16.8 2 5.6.3 11.3.4 16.9.1l3.8-.3 1.8-.1 1.8-.2 3.3-.4c1.1-.1 2.1-.3 3-.5s1.9-.3 2.8-.5l2.5-.5 2.1-.4c.6-.1 1.2-.3 1.8-.5l2.5-.6.6-.1.2-.1z"/><path d="M291.5 223.4c14.4-2.8 27.8-9.3 39-18.8 2-1.7 4.1-3.5 6.7-3.6 2.9-.1 5.3 2.1 7.5 4 8.8 7.5 19.4 12.6 30.8 14.8 1.6-2.6.9-6.1-.9-8.5s-4.5-4-7.1-5.6l-24.6-14.3c-1.9-1.1-3.9-2.2-6-1.9-1.4.3-2.7 1-3.8 1.9l-38.4 27c-1.7 1.2-3.6 3.2-2.5 5" style="opacity:.2;enable-background:new"/><path class="st10" d="M267.4 185.7s-5.8 17.1-6.6 20.1c-1.6 5.7-.1 20.7 13.8 20.7 16.9 0 78.6-39.8 78.6-39.8l-12.6-7.6-50 16.3 1.9-5.6c.1 0-13.8-7.2-25.1-4.1z"/><path class="st10" d="M340.9 179.7s16.5-21.4 16.5-21.7 9.8-8.7 9.8-8.7 2.2.1 2 1.5-3.7 6.4-3.7 6.4c-.4 1.1-1 2.2-1.7 3.1-1 1.4-5.8 10-5.8 10s4.6-4.4 5.5-4c.9.3 1.4 1.3 1.1 2.3 0 .1 0 .1-.1.2-.5 1.4-4.8 5.7-4.8 5.7s-2.5 8.9-5.4 11.5l-7.1 4.7-6.3-11z"/><path class="st11" d="M356.2 174c.1.9-.1 1.9-.7 2.6l-1.8 2.4c-.7.9-1.3 2-1.7 3.1-.4 1.2-.7 2.4-1.1 3.5-.4 1-.9 1.8-1.6 2.6-.5.5-1 .9-1.7 1.2-.2.1-.5.2-.7.2.8-.4 1.6-.9 2.2-1.6.6-.8 1.1-1.6 1.4-2.5.4-1 .7-2.2 1.1-3.5.4-1.2 1-2.3 1.8-3.3.7-.9 1.4-1.6 1.9-2.3.5-.7.8-1.5.9-2.4zM365.5 157.7s-.2-.2-.5-.4c-.5-.3-1.1-.4-1.7-.4-.9.2-1.7.6-2.3 1.3-.7.8-1.4 1.7-2.1 2.7-1.5 1.9-2.9 3.7-3.9 4.9-.5.7-1.1 1.4-1.7 2 .4-.8.9-1.5 1.5-2.1 1-1.3 2.3-3.1 3.8-5 .8-1 1.4-1.9 2.2-2.7.7-.7 1.6-1.2 2.5-1.3.7-.1 1.3.1 1.9.5.2.2.3.5.3.5zM356.4 179c-.1-.1.5-2 1-4.4s.6-4.4.7-4.4c.2 1.5.1 3-.3 4.5-.2 1.5-.7 3-1.4 4.3z"/><path class="st10" d="M404.3 182.2s6.1 17.3 6.9 20.3c1.3 4.6.1 20.7-13.8 20.7-16.9 0-78.6-39.8-78.6-39.8l11.6-7.9 51 16.6-2-5.8c7.6-4.1 16.4-5.5 24.9-4.1z"/><path class="st10" d="M331.1 176.3s-16.5-21.4-16.5-21.7-9.8-8.6-9.8-8.6-2.2.1-2 1.5 3.7 6.4 3.7 6.4c.4 1.1 1 2.2 1.7 3.1 1 1.4 5.8 9.9 5.8 9.9s-4.6-4.4-5.5-3.9c-.9.3-1.4 1.4-1.1 2.3 0 .1 0 .1.1.2.5 1.4 4.8 5.7 4.8 5.7s2.5 8.9 5.4 11.5l7 4.7 6.4-11.1z"/><path class="st11" d="M315.8 170.6c.1.9.5 1.7 1 2.5.5.7 1.2 1.4 1.9 2.3.8 1 1.4 2.1 1.8 3.2.4 1.2.7 2.4 1.1 3.5.3.9.8 1.8 1.4 2.5.6.7 1.3 1.2 2.2 1.6-.3 0-.5-.1-.7-.2-.6-.3-1.2-.7-1.7-1.2-.7-.8-1.2-1.6-1.6-2.6-.4-1.1-.7-2.3-1.1-3.5-.4-1.1-.9-2.2-1.7-3.1-.7-.8-1.3-1.5-1.8-2.4-.7-.7-.9-1.6-.8-2.6zM306.5 154.4s.1-.3.4-.6c.5-.4 1.2-.6 1.9-.5 1 .1 1.9.6 2.5 1.4.8.9 1.5 1.8 2.2 2.7 1.5 1.9 2.8 3.7 3.8 5 .6.7 1 1.4 1.5 2.2-.6-.6-1.2-1.3-1.7-2-1-1.2-2.4-3-3.9-4.9-.8-1-1.4-1.9-2.1-2.7-.6-.7-1.4-1.2-2.3-1.3-.6-.1-1.2 0-1.7.3-.4.2-.5.4-.6.4zM315.6 175.7c-1.3-2.7-1.9-5.8-1.7-8.8.1 0 .2 2 .7 4.4s1.2 4.3 1 4.4zM345.5 199.6c-.1.1-6.3-3.6-14-8.3s-13.8-8.6-13.8-8.7 6.3 3.6 14 8.3 13.9 8.6 13.8 8.7zM382.4 192.5c-.2 0-.4-.1-.5-.1l-1.5-.4-5.6-1.7c-4.7-1.5-11.2-3.6-18.4-5.9s-13.7-4.5-18.4-6.1c-2.3-.8-4.2-1.5-5.5-2l-1.5-.6c-.2-.1-.4-.1-.5-.2.2 0 .4.1.5.1l1.5.5 5.6 1.8 18.4 6 18.4 6 5.6 1.9 1.5.5c.1 0 .3.1.4.2z"/><path class="st10" d="M335.2 43.6c-13 0-23.6 10.3-24 23.2-.4 11.6-.7 24.3-.3 30.5.8 12.8 13.7 14.2 13.7 14.2v7.8c0 9.1 7.4 16.6 16.5 16.6 9 0 16.4-7.2 16.5-16.2l1-51.4c.5-13.1-9.7-24.1-22.8-24.6-.2-.1-.4-.1-.6-.1z"/><path class="st11" d="M324.5 111.5c5.9-.2 11.7-2.1 16.5-5.5 0 0-3.6 9.5-16.5 9v-3.5z"/><path class="st2" d="M315.1 74.2c.2.2 1.6-.8 3.6-.8s3.4 1 3.6.7-.1-.5-.8-1c-.9-.6-1.9-.9-2.9-.9s-2 .3-2.9.9c-.5.5-.7 1-.6 1.1zM334.6 73.8c.2.2 1.6-.8 3.6-.9s3.4.9 3.6.7-.1-.5-.8-1c-.9-.6-1.9-.9-2.9-.8-1 0-2 .4-2.8 1-.7.5-.8.9-.7 1zM327.2 87.5c-1.1-.3-2.1-.4-3.2-.4-.5 0-1-.1-1.1-.4-.1-.5 0-1 .3-1.5.4-1.2.9-2.5 1.3-3.9 1.8-5.6 3.1-10.1 2.9-10.2s-1.9 4.4-3.7 9.9c-.4 1.4-.9 2.7-1.2 3.9-.3.6-.3 1.3-.2 2 .2.3.5.6.9.7.3.1.6.1.9.1.9 0 2-.1 3.1-.2zM333.3 69.3c.3.5 2.2-.2 4.5-.4s4.3 0 4.5-.6c.1-.2-.4-.7-1.2-1-2.3-.8-4.8-.5-6.8.8-.8.4-1.1.9-1 1.2zM314.4 69.2c.2.5 1.8.4 3.5.9s3.1 1.1 3.5.7c.2-.2.1-.7-.4-1.2-1.5-1.5-3.7-2-5.7-1.3-.7.2-1 .6-.9.9zM334.7 91.7c-.1.1-.5-.2-1.3-.4-1-.3-2-.3-3 0s-1.8.9-2.5 1.6c-.5.6-.8 1.1-.9 1s-.1-.6.4-1.4c.6-1 1.6-1.8 2.8-2.1 1.2-.3 2.4-.2 3.5.3.8.4 1.1.9 1 1z"/><path class="st2" d="M316.9 75.9c0 1 .8 1.8 1.8 1.7 1 0 1.8-.7 1.8-1.7s-.9-1.8-1.9-1.8c-.9.1-1.7.8-1.7 1.8zM336.4 75.4c0 1 .8 1.8 1.8 1.7 1 0 1.8-.7 1.8-1.7v-.1c0-1-.8-1.8-1.8-1.7-1 0-1.8.8-1.8 1.8z"/><path class="st2" d="M366.9 67.6c.6-.7.9-1.6.8-2.6-.3-1-1.4-1.6-1.8-2.6s0-2.1 0-3.2c-.2-1.5-.9-2.8-2.1-3.8-.1-.1-.2-.2-.4-.3-.9-2-2.1-3.9-3.4-5.7l3.3 3.1c1.2-3.2-3.6-8.9-7.5-10.6-2.7-1-5.6-1-8.3 0 0 0-9.8-7.4-19.4-5-5.9 1.5-11.8 4-15.8 9.9-1.6.9-2.9 2.4-3.4 4.2-.7 2.2-.9 4.6-2 6.6-.8 1.5-2.1 3-1.7 4.6.3 1.3 1.8 2.2 2.2 3.5s-.2 2.7-.1 4.1c.1 2.2 1.7 4 3.8 4.4.6-3.5 1-7 1.2-10.5 1.7 1.1 5.2 2.2 12.1-.2l8.9-5s-4.4 3.8-2.2 4.4c1.8.6 11.4-4.6 14.2-6.2.8-.5 1.8-.7 2.8-.6 1.3.1 2.8.9 3.1 3.4.3 2.2-1 22.6.9 22.6 1.1 0 5.1-1.8 5.8-2.2v9.9c.4-.2.7-.5.9-.9l4.3-6.1c1-1.4 1.9-2.8 2.6-4.4.7-1.6.9-3.3.5-5-.3-1.1-1-2.2-.8-3.4.4-.9.9-1.7 1.5-2.4z"/><path class="st2" d="M342.9 35.8c.1-.3.8-.3 1.7.1 2.3 1.2 3.9 3.5 4.1 6.1 0 1-.2 1.6-.5 1.6-.6 0-1.2-2-2.6-4s-3-3.2-2.7-3.8z"/><path class="st3" d="M310.7 50.2c.2.5.6.9 1 1.3 1.2.9 2.8 1.1 4.2.6 1-.3 1.9-.8 2.8-1.4 1-.6 1.9-1.3 3.1-1.9 1.2-.7 2.6-1 4-.9 1.4.3 2.8.7 4.1 1.4 1.2.7 2.6 1.2 4 1.3 1.3.1 2.6-.3 3.6-1 2.1-1.4 3.5-3.2 5.1-4.4 1.2-1 2.7-1.6 4.2-1.8.4 0 .8 0 1.2.1.3.1.4.2.4.2-.5-.1-1.1-.2-1.6-.1-1.5.2-2.9.8-4 1.8-1.5 1.1-2.9 3-5.1 4.5-1.1.8-2.5 1.2-3.9 1.1-1.4-.2-2.8-.7-4.1-1.4-1.2-.7-2.6-1.2-4-1.4-1.3-.1-2.6.2-3.7.8-1.1.6-2.1 1.3-3.1 1.9-.9.6-1.9 1-2.9 1.4-1.5.5-3.2.2-4.4-.8-.3-.3-.6-.6-.8-1 0 0-.1-.2-.1-.3zM365.5 59.7s0 .1-.1.2c-.1.2-.3.4-.5.6-.7.6-1.6.9-2.5.9-1.3 0-2.6-.5-3.6-1.4-1.2-1-2.3-2.2-3.3-3.4-1.8-2.2-3.3-4.6-4.6-7.2-.5-1-.8-1.8-1-2.4l-.3-.9c.1 0 .6 1.2 1.6 3.2 1.3 2.5 2.9 4.9 4.6 7.1.9 1.2 2 2.3 3.2 3.4.9.8 2.1 1.3 3.4 1.4.8 0 1.7-.2 2.4-.7.3-.4.5-.6.7-.8zM365.6 71.4l-.6.3c-.6.2-1.2.3-1.8.3-2 0-4-.6-5.6-1.8-1.6-1.1-3.1-2.5-4.3-4.1-.5-.6-1-1.3-1.4-2 .6.5 1.2 1.1 1.7 1.8 1.3 1.5 2.7 2.8 4.3 3.9 1.6 1.1 3.5 1.7 5.4 1.8.8 0 1.5-.1 2.3-.2z"/><path class="st10" d="M354.6 74.4c.2-.1 8.7-3 8.8 5.8s-8.7 7.1-8.7 6.8-.1-12.6-.1-12.6z"/><path class="st11" d="M357.3 83.7s.1.1.4.2c.4.1.8.1 1.1 0 .9-.3 1.7-1.8 1.7-3.4 0-.8-.1-1.5-.5-2.2-.2-.6-.6-1-1.2-1.2-.4-.1-.7.1-.9.4-.1.2-.1.4-.1.4s-.2-.1-.1-.5c0-.2.2-.4.3-.6.2-.2.5-.3.8-.2.7.1 1.3.6 1.6 1.3.4.8.6 1.6.6 2.4 0 1.8-.9 3.4-2.2 3.8-.5.1-1 .1-1.4-.2-.1 0-.1-.2-.1-.2z"/><path class="st5" d="M271.9 324.7c0 2.5-1.9 3.9-5.5 3.9h-6.9v-14.5h6.5c3.3 0 5.2 1.4 5.2 3.8.1 1.4-.7 2.6-1.9 3.2 1.5.4 2.7 1.9 2.6 3.6zm-10.4-8.9v4.6h4.2c2.1 0 3.3-.8 3.3-2.3s-1.2-2.3-3.3-2.3h-4.2zm8.3 8.7c0-1.7-1.2-2.4-3.5-2.4h-4.8v4.8h4.8c2.3 0 3.5-.7 3.5-2.4zM284.3 325h-7.7l-1.6 3.6h-2.1l6.5-14.5h2l6.6 14.5h-2.2l-1.5-3.6zm-.7-1.7-3.1-7.1-3.1 7.1h6.2zM290.2 314.1h6.1c4.6 0 7.8 2.9 7.8 7.2s-3.2 7.2-7.8 7.2h-6.1v-14.4zm6 12.7c3.6 0 5.9-2.2 5.9-5.4s-2.3-5.4-5.9-5.4h-3.9v10.9h3.9zM322.5 328.6l-3.1-4.5h-4.5v4.4h-2.1v-14.4h5.6c3.8 0 6 1.9 6 5 .1 2.1-1.2 3.9-3.2 4.6l3.4 4.9h-2.1zm0-9.4c0-2.1-1.4-3.2-4-3.2H315v6.5h3.5c2.6-.1 4-1.3 4-3.3zM338.4 326.8v1.8h-10.5v-14.5h10.2v1.8H330v4.5h7.3v1.8H330v4.7l8.4-.1zM356.6 329.9a4.6 4.6 0 0 1-3.6 1.7c-1.8 0-3.2-.8-5.3-2.9-4.1-.4-7-4.1-6.6-8.2s4.1-7 8.2-6.6c3.8.4 6.6 3.6 6.6 7.4.1 3.4-2.3 6.5-5.7 7.2.7.9 1.7 1.4 2.8 1.4 1 0 2-.5 2.6-1.2l1 1.2zm-8.3-3c3.1 0 5.5-2.6 5.5-5.6 0-3.1-2.6-5.5-5.6-5.5-3 0-5.5 2.5-5.5 5.6-.1 3 2.3 5.5 5.3 5.6 0-.1.1-.1.3-.1zM358.9 322.4v-8.2h2.1v8.1c0 3.2 1.5 4.6 4.1 4.6s4.1-1.4 4.1-4.6v-8.1h2v8.2c0 4.2-2.3 6.4-6.1 6.4s-6.2-2.3-6.2-6.4zM385.9 326.8v1.8h-10.5v-14.5h10.2v1.8h-8.1v4.5h7.2v1.8h-7.2v4.7l8.4-.1zM387.9 326.9l.8-1.6c1.3 1.1 3 1.7 4.8 1.7 2.5 0 3.6-1 3.6-2.2 0-3.5-8.8-1.3-8.8-6.7 0-2.2 1.7-4.1 5.5-4.1 1.6 0 3.3.4 4.6 1.3l-.7 1.6c-1.2-.8-2.6-1.2-4-1.2-2.5 0-3.5 1-3.5 2.3 0 3.5 8.8 1.3 8.8 6.6 0 2.2-1.8 4.1-5.6 4.1-2 .1-3.9-.5-5.5-1.8zM404.7 315.9h-5v-1.8h12v1.8h-5v12.7h-2v-12.7z"/></g><g id="speech-bubble--inject-34"><path class="st8" d="m294.1 87.3-9.7-17.2c13.3-21.6 6.6-50-15.1-63.3S219.3.2 206 21.9s-6.6 50 15.1 63.3c16.3 10 37.1 8.9 52.3-2.8l20.7 4.9z"/><path class="st2" d="m294.1 87.3-20.8-4.8c-.1 0-.1-.1-.1-.1l.2.2c-2.9 2.3-6.1 4.2-9.5 5.7-4 1.8-8.2 3-12.6 3.6-2.4.3-4.8.5-7.3.4-1.2-.1-2.5-.1-3.8-.2l-3.9-.6c-11.6-2.3-21.8-8.9-28.7-18.4-3.8-5.3-6.5-11.3-7.8-17.7-1.3-6.8-1.1-13.7.5-20.4 1.7-7 5.1-13.5 9.8-18.9L212 14c.6-.7 1.4-1.3 2-1.9l2.1-1.8 2.2-1.7c.7-.6 1.5-1.1 2.3-1.5l2.3-1.4 2.5-1.2c.8-.4 1.6-.8 2.5-1.1C234.4.8 241.4-.3 248.4.2c6.6.5 13.1 2.4 18.9 5.6 10.4 5.8 18.2 15.4 21.8 26.8 1.4 4.8 2.1 9.9 2 14.9-.1 4.4-.8 8.8-2.2 12.9-1.1 3.5-2.7 6.8-4.6 9.9v-.1c6.4 11 9.4 16.4 9.8 17.1l-9.8-17.1v-.1c1.9-3.1 3.4-6.4 4.5-9.8 1.3-4.2 2.1-8.5 2.2-12.9.1-5-.6-10-2-14.8-3.6-11.3-11.3-20.8-21.7-26.5-5.8-3.2-12.1-5.1-18.7-5.5-6.9-.5-13.9.6-20.4 3.1-.8.3-1.6.7-2.4 1.1L223.4 6l-2.3 1.4c-.8.4-1.5.9-2.3 1.5l-2.2 1.6-2.1 1.8c-.7.6-1.4 1.2-2 1.9l-1.9 2c-4.7 5.4-8 11.8-9.7 18.7-1.7 6.6-1.9 13.5-.6 20.2 1.3 6.3 3.9 12.3 7.7 17.6 6.8 9.5 16.9 16 28.4 18.3l3.8.6c1.3.1 2.5.1 3.8.2 2.4.1 4.8 0 7.2-.3 8-1.1 15.6-4.2 21.9-9.1h.2v.2l-.1-.2 20.9 4.9z"/><path transform="rotate(-44.267 244.682 46.4)" class="st5" d="M227 42.5h35.4v7.9H227z"/><path transform="rotate(-44.267 244.659 46.397)" class="st5" d="M240.7 28.7h7.9v35.4h-7.9z"/></g><path class="st2" d="M674.3 451.7c0 .1-151 .3-337.1.3S0 451.8 0 451.7s150.9-.3 337.2-.3 337.1.1 337.1.3z" id="Floor--inject-34"/><g id="Plants--inject-34"><path class="st5" d="M47.8 392.3v-11.2c-14 0-11.6-8.6-11.6-37.4 0-19.8.6-30.2-7.3-30.2-7.3 0-9 5.1-9 27.6-.1 41.6 5.5 51.2 27.9 51.2zM62.4 427v-11.2c14 0 11.6-8.6 11.6-37.4 0-19.8-.6-30.2 7.3-30.2 7.3 0 9 5.1 9 27.6 0 41.6-5.5 51.2-27.9 51.2z"/><path d="m67.2 415.3 2.2 11.3-3.8.3-.5-11.2z" class="st12"/><path class="st5" d="M55.4 278c-11.1 0-10.2 14.5-10.2 32.2v141.1h20.5V310.2c0-17.7.8-32.2-10.3-32.2z"/><path class="st5" d="M55.4 278c-11.1 0-10.2 14.5-10.2 32.2v141.1h20.5V310.2c0-17.7.8-32.2-10.3-32.2z"/><path class="st2" d="M49.5 451.7V444.8c0-4.5.1-10.8.1-18.7.2-15.8.3-37.6.6-61.7s.6-45.9.7-61.7c0-4 .1-7.5.3-10.7.2-2.7.6-5.4 1.2-8 .4-1.7.9-3.3 1.5-4.9.2-.5.4-.9.5-1.2s.2-.4.2-.4l-.2.4c-.1.3-.3.7-.5 1.2-.6 1.6-1 3.2-1.4 4.9-.5 2.6-.9 5.3-1 8-.2 3.1-.2 6.7-.2 10.6-.2 15.8-.3 37.6-.6 61.8s-.6 45.9-.7 61.7c-.1 7.9-.2 14.3-.3 18.7 0 2.2-.1 3.9-.1 5.1v1.3c0 .3-.1.5-.1.5zM58.7 451.5V444.6c0-4.4 0-10.8.1-18.6.1-15.8.3-37.5.5-61.5s.5-45.7.6-61.5c0-3.9.1-7.5 0-10.6-.1-2.7-.3-5.3-.7-8-.2-1.7-.6-3.3-1-5-.2-.5-.3-1-.3-1.3s-.1-.4-.1-.4c.8 2.1 1.4 4.4 1.7 6.6.4 2.6.7 5.3.8 8 .2 3.1.2 6.7.1 10.6-.1 15.8-.3 37.5-.5 61.5s-.5 45.7-.6 61.5c-.1 7.9-.2 14.2-.2 18.6 0 2.2-.1 3.9-.1 5.1v1.3c0 .3-.3.6-.3.6zM65.9 426.8c-.3-1.9-.5-3.8-.5-5.7-.2-1.9-.1-3.8.1-5.7.3 1.9.5 3.8.4 5.7.2 1.9.2 3.8 0 5.7zM81.8 348.3c0 .3.1.5.1.8v2.3c0 2.1.1 5 .1 8.5 0 7.2.1 17.2.2 28.1 0 5.5 0 10.8-1 15.5-.7 4.2-2.5 8.2-5.2 11.5-1.8 2.2-4.1 4-6.8 5.1-1 .4-2 .7-3 .8 1-.3 2-.6 2.9-1 2.6-1.2 4.8-3 6.6-5.2 2.6-3.3 4.3-7.2 5-11.3.9-4.6 1-9.9.9-15.4v-28.1c0-3.6 0-6.5.1-8.5v-2.3c0-.3 0-.6.1-.8zM45.2 380.7c.3 4.3.3 8.6 0 12.9-.4-4.3-.4-8.6 0-12.9zM28.3 313.5v3.2c-.1 2.1-.1 5-.2 8.7-.2 7.3-.6 17.4-.5 28.6.1 5.6.1 10.9 1.2 15.6.9 4.2 2.7 8.1 5.4 11.4 1.9 2.2 4.3 3.9 7 4.8 1 .3 2 .5 3.1.7-1.1 0-2.1-.1-3.2-.5-2.8-.9-5.3-2.5-7.2-4.8-2.8-3.3-4.7-7.3-5.6-11.5-1.2-4.8-1.2-10.1-1.3-15.7-.1-11.2.3-21.3.7-28.6.2-3.6.3-6.5.4-8.6l.1-2.4c0-.4.1-.7.1-.9z"/><path d="m42.4 392.1.4-11.5 2.4.4v11.3s-2.4-.2-2.8-.2z" class="st12"/><path class="st2" d="M22 351.5c-.8.4-1.6.6-2.4.6-.8.2-1.7.3-2.5.1.8-.4 1.6-.6 2.4-.6.8-.2 1.7-.2 2.5-.1zM21.8 340.4c-.9.1-1.7 0-2.5-.2-.9-.1-1.7-.3-2.4-.8.9-.1 1.7 0 2.5.2.8.1 1.6.4 2.4.8zM17.3 322.6c.9.1 1.8.5 2.5 1.1 1.3.8 2.1 1.8 2 1.9-.8-.4-1.6-.9-2.2-1.5-.8-.4-1.6-1-2.3-1.5zM24.5 311.2c.6.7 1 1.5 1.2 2.4.4.8.7 1.7.8 2.6-1-1.6-1.7-3.3-2-5zM34.7 311.9c-.3 1.1-.8 2.1-1.4 3.1-.5 1-1.1 2-1.8 2.8.7-2.1 1.8-4.1 3.2-5.9zM38.1 325.3c-.7.4-1.4.7-2.2.9-.7.3-1.5.4-2.3.4.7-.4 1.4-.7 2.2-.9.8-.3 1.5-.5 2.3-.4zM32.4 339.7c-.1.1-.7-.4-1.4-1.2s-1.2-1.4-1-1.5.8.4 1.4 1.2 1.1 1.4 1 1.5zM37.1 354c-.1.1-1-.6-2-1.5s-1.8-1.8-1.7-1.9 1 .6 2 1.5 1.8 1.8 1.7 1.9zM23.3 360.2c.1.1-.7 1-1.8 2-.6.7-1.3 1.3-2.2 1.7-.1-.1.7-1 1.8-2 .6-.7 1.3-1.3 2.2-1.7zM25 372.8c-.1 0 0-.9.4-1.9s.7-1.8.9-1.8 0 .9-.4 1.9-.8 1.9-.9 1.8zM26.3 387.5c.2-1.1.6-2.1 1.1-3.1.4-1 .9-2 1.6-2.9-.2 1.1-.6 2.1-1.1 3.1-.4 1-1 2-1.6 2.9zM34.7 394.1c-.1-1 0-1.9.2-2.9.1-1 .3-1.9.8-2.8.1 1 0 1.9-.2 2.9-.1 1-.4 2-.8 2.8zM39.1 372c-.8.1-1.6 0-2.4-.3-.8-.1-1.6-.4-2.3-.8.8-.1 1.6 0 2.4.3.8.2 1.6.4 2.3.8zM38.1 363.4c-.7.1-1.4.1-2-.1-1.1-.2-2-.5-1.9-.6s.9-.1 2 .1 2 .5 1.9.6z"/><path d="M28.3 314.1c.4 0 .6 4.5.3 11.6-.1 3.6-.4 7.8-.7 12.5s-.6 9.9-.7 15.3c-.2 5 .2 10 1.3 14.9.5 2.1 1.1 4.2 1.8 6.2.7 1.7 1.6 3.4 2.7 4.9 1.6 2.2 3.7 4 6.1 5.2 1.7.8 2.8 1.1 2.8 1.3s-1.2.2-3.2-.4c-2.8-.9-5.3-2.7-7.2-5-1.3-1.6-2.4-3.3-3.2-5.2-.9-2.1-1.6-4.3-2.2-6.5-1.2-5.1-1.7-10.3-1.5-15.6.1-5.5.5-10.7.9-15.4s.8-8.9 1.2-12.5c.8-6.9 1.2-11.3 1.6-11.3z" class="st12"/><path class="st2" d="M76.1 399.6c-1.5.3-3 .3-4.5 0 .7-.3 1.5-.3 2.3-.3.7-.1 1.5 0 2.2.3zM76 388.7c-.7.1-1.5 0-2.2-.2-1.2-.2-2.1-.6-2.1-.7.7-.1 1.5 0 2.2.2.8 0 1.5.3 2.1.7zM76.5 376.5c-.9.2-1.7.2-2.6 0-.9 0-1.7-.1-2.6-.5.9-.2 1.7-.2 2.6 0 .9 0 1.8.2 2.6.5zM74.8 365.7c-.7 0-1.4-.3-2-.6-1.1-.5-1.9-1-1.8-1.1.7 0 1.4.3 2 .6 1 .5 1.9 1 1.8 1.1zM75.9 356.6c-.8-.2-1.5-.7-2.1-1.3-1-.9-1.7-1.8-1.6-1.9s.9.6 1.9 1.5 1.8 1.6 1.8 1.7zM79 349.8c-.1.1-.7-.8-1.2-1.8s-.8-2-.7-2 .7.8 1.2 1.8.9 2 .7 2zM88.1 347.4c.1.1-.4.9-1 1.9S86 351 85.9 351s.1-1 .8-2 1.3-1.7 1.4-1.6zM92.3 359.4c-1.6.7-3.3.8-4.9.4.8-.2 1.6-.3 2.4-.3.9-.2 1.7-.2 2.5-.1zM92.2 368c.1.1-.9.8-2.1 1.4-.7.5-1.5.8-2.3 1 .6-.6 1.3-1.1 2.1-1.4.7-.5 1.5-.8 2.3-1zM92.4 382.1c-.1.1-.9-.1-1.9-.6s-1.8-1-1.7-1.1.9.1 1.9.6 1.8 1 1.7 1.1zM91.6 389.9c.1.1-.6.6-1.5 1s-1.7.7-1.8.6.6-.6 1.6-1 1.7-.8 1.7-.6zM89.5 406.3c-.1.1-.8-.5-1.5-1.3s-1.2-1.5-1.1-1.6.8.5 1.5 1.3 1.2 1.5 1.1 1.6zM84.2 420.7c-.3-.8-.6-1.7-.7-2.6-.3-.8-.5-1.7-.6-2.6 1 1.5 1.5 3.3 1.3 5.2zM74.6 428.1c-.2-.8-.2-1.7-.1-2.5 0-.9.1-1.7.4-2.5.3 1.6.1 3.3-.3 5zM74 411.4c-.1.1-1-.4-2.1-1s-1.9-1.4-1.8-1.5 1 .3 2.1 1 1.9 1.4 1.8 1.5zM86.3 385.5c-.1.1-.8-.3-1.6-1s-1.3-1.3-1.2-1.4.8.3 1.6 1 1.3 1.3 1.2 1.4zM79.5 367.9c.1.1-.5.9-1.4 1.8s-1.7 1.5-1.8 1.4.5-.9 1.4-1.8 1.7-1.5 1.8-1.4zM87 354c.1.1-.5.6-1.4 1.1s-1.6.8-1.6.6.5-.6 1.4-1.1 1.5-.7 1.6-.6zM79.1 418.2c-.1.1-.5-.6-.9-1.4s-.5-1.5-.4-1.6.5.6.9 1.4.6 1.6.4 1.6zM47.6 324.9c-.9.2-1.9.2-2.8.1-.9 0-1.9-.1-2.8-.4.9-.2 1.9-.2 2.8-.1 1 0 1.9.1 2.8.4zM46.7 308.8c-.9-.1-1.8-.4-2.6-.8-.9-.3-1.7-.7-2.4-1.3.9.1 1.8.4 2.6.8.9.3 1.7.8 2.4 1.3zM48.2 288.9c-1 .1-2-.2-2.8-.8-.9-.4-1.7-1-2.2-1.9.1-.1 1.1.7 2.4 1.4s2.6 1.1 2.6 1.3zM51.9 279.6c-.6-.6-1.2-1.4-1.5-2.2-.5-.8-.9-1.6-1.1-2.5 1.2 1.3 2 2.9 2.6 4.7zM64.6 276.8c-.4.9-.9 1.7-1.6 2.3-1 1.2-1.9 2.1-2 2 .4-.9.9-1.7 1.6-2.3 1-1.2 1.9-2.1 2-2zM67.8 290.6c.1.1-.8.9-1.9 1.7-.6.6-1.4 1-2.2 1.2-.1-.1.8-.9 1.9-1.7.7-.5 1.4-.9 2.2-1.2zM69.3 309.7c-1.4.7-2.9 1.1-4.4 1.2.6-.4 1.4-.7 2.1-.8.8-.3 1.5-.4 2.3-.4zM68.4 325.9c-.9.2-1.8.2-2.7.1-.9 0-1.8-.1-2.6-.4.9-.2 1.8-.2 2.7-.1.9 0 1.8.1 2.6.4zM68.7 342.3c-.7.7-1.6 1.3-2.5 1.7-.8.6-1.8 1-2.8 1.2.7-.7 1.6-1.3 2.5-1.7.9-.5 1.8-1 2.8-1.2zM46.1 350.3c-1 .1-1.9-.1-2.8-.3-1-.1-1.9-.4-2.7-.9 1-.1 1.9.1 2.8.3.9.1 1.9.4 2.7.9zM46.6 364.5c.1.1-.9 1.1-2.2 2.1-.7.7-1.6 1.3-2.5 1.7.6-.8 1.3-1.5 2.2-2.1.8-.7 1.6-1.2 2.5-1.7zM47 407.2c-1-.5-2-1.2-2.8-2-.9-.7-1.8-1.5-2.5-2.4 1 .5 2 1.2 2.8 2 1 .6 1.8 1.4 2.5 2.4zM46.4 419.2c.1.1-.7.9-1.7 1.8-.6.6-1.3 1.1-2.1 1.4-.1-.1.7-.9 1.7-1.8.7-.6 1.3-1.1 2.1-1.4zM67.5 392.4c.1.1-.9 1-2.2 2-.7.7-1.6 1.2-2.5 1.5.6-.8 1.4-1.5 2.2-2 .8-.6 1.6-1.1 2.5-1.5zM67.9 371.9c-.6.8-1.5 1.3-2.4 1.6-.9.4-1.9.6-2.9.5.9-.4 1.8-.7 2.7-.9.8-.5 1.7-.8 2.6-1.2zM68.2 356.9c-.8 0-1.6-.3-2.3-.6-.8-.2-1.5-.6-2.1-1.1.8 0 1.6.3 2.3.6.7.2 1.4.6 2.1 1.1zM69.3 432.9c-.8.7-1.7 1.2-2.7 1.5-.9.5-1.9.9-2.9 1.1.8-.7 1.7-1.2 2.7-1.5.9-.5 1.9-.9 2.9-1.1zM46.4 337.9c-1-.6-2-1.3-2.8-2.2-.9-.7-1.8-1.6-2.5-2.5 1 .6 2 1.3 2.8 2.1 1 .8 1.8 1.6 2.5 2.6zM69.9 330.3c-.7.7-1.5 1.4-2.3 1.8-.8.6-1.7 1.1-2.6 1.4.7-.7 1.5-1.4 2.3-1.8.8-.7 1.6-1.1 2.6-1.4zM45.8 298.3c0 .1-1 .1-2.1 0-.7 0-1.4-.2-2-.5.7-.2 1.4-.2 2.1 0 .7-.1 1.4.1 2 .5zM68.1 299.4c0 .1-.8.6-2 1-.7.3-1.4.5-2.1.5-.1-.1.8-.6 2-1 .7-.3 1.4-.5 2.1-.5zM56.4 334.4c-.4.9-.9 1.7-1.6 2.4-1 1.2-1.9 2.1-2 2 .4-.9.9-1.7 1.6-2.4 1-1.2 1.9-2.1 2-2zM56.4 319.1c-.1.1-1-.5-1.8-1.6-.5-.6-.8-1.4-.8-2.2.1 0 .5.9 1.3 1.9s1.4 1.8 1.3 1.9zM56.1 297.4c.1.1-.7.9-1.5 2s-1.3 2.1-1.4 2.1c.1-.9.4-1.7 1-2.4.8-1.2 1.8-1.8 1.9-1.7zM54.4 356.4c0-.7.2-1.5.5-2.1.2-.7.5-1.4 1-2 0 .7-.2 1.5-.5 2.1-.5 1.1-.9 2-1 2zM51.1 387.8c-.8-1-1.4-2.1-1.9-3.2-.6-1.1-1.1-2.3-1.4-3.5.8 1 1.4 2.1 1.8 3.2.7 1.1 1.1 2.3 1.5 3.5zM56.9 392.7c-.4 1.3-1 2.6-1.7 3.8-.6 1.3-1.3 2.5-2.2 3.5.4-1.3 1-2.6 1.7-3.8.6-1.2 1.4-2.4 2.2-3.5zM56.6 426.3c-.8-.9-1.4-2-1.9-3.1-.6-1-1.1-2.2-1.4-3.3.8.9 1.4 2 1.9 3.1.7 1 1.1 2.1 1.4 3.3zM54.6 436.5c-.3.9-.7 1.7-1.2 2.4-.8 1.2-1.6 2.1-1.7 2 .3-.9.7-1.6 1.3-2.3.8-1.3 1.5-2.2 1.6-2.1z"/><path d="M59.3 281.1c.7 0 1.3 38 1.3 84.9s-.6 84.9-1.3 84.9-1.3-38-1.3-84.9.6-84.9 1.3-84.9zM82.9 349.6c.3 0 .8 4.3 1 11.4s.2 16.7.4 27.4c.2 5.1-.3 10.3-1.3 15.3-.5 2.2-1.2 4.4-2.2 6.5-.8 1.8-1.8 3.5-2.8 5.1-.9 1.4-2.1 2.7-3.5 3.6-1.1.7-2.2 1.2-3.4 1.5-2 .5-3.1.5-3.1.4s1-.5 2.8-1.3c1-.4 2-1 2.9-1.7 1.1-1 2.1-2.1 2.8-3.4.9-1.6 1.7-3.3 2.4-5 .8-2 1.4-4 1.8-6.1.9-4.9 1.2-9.8 1.1-14.7-.4-10.9 0-20.6.2-27.6s.5-11.4.9-11.4z" class="st12"/><path class="st5" d="M619.4 371c-3.1-1.4-5.6-3.9-7-7-.6-1.3-.6-3.3.8-3.6.8-.2 1.6.5 2.2 1.1l6.1 6.1c-1.2-3.2-1.1-6.8.4-9.9.5-1.1 1.6-2.3 2.8-1.9.9.3 1.2 1.4 1.3 2.4.5 2.9 1 5.8 1.5 8.8.8-3.4 2.5-6.6 4.8-9.2.8-1 2.2-1.9 3.3-1.2s.9 2 .7 3.1c-.5 2.7-1.3 5.4-2.3 8 2.6-2.3 6-3.7 9.5-3.8 1-.2 2.1.2 2.8.9 1 1.2.1 3-.9 4.1-3 3.4-10 4.3-14.5 4"/><path class="st3" d="M646.5 378.2c-11-8.6-30.2-9.8-42.9-4-14.3 6.5-23.7 21.8-25.1 36.4-1.3 13.9 5.3 27.9 11 40.7l55.3.3c6.6-11 13.5-23.2 14-36s-2.2-29.5-12.3-37.4z"/><path class="st2" d="m621.7 370.6-.2.1-.7.2-1.2.3c-.5.1-1.1.2-1.6.4-3.3 1-6.5 2.5-9.4 4.5-4.2 3-7.8 6.8-10.7 11.1-1.7 2.6-3.2 5.2-4.5 8-1.4 3-2.5 6.1-3.4 9.2-1.7 6.1-2 12.5-.9 18.7.9 5.1 2.3 10.1 4.2 14.9 1.5 4.1 2.9 7.5 3.8 9.8.4 1.1.8 2 1 2.6.1.3.2.5.3.7l.1.2s0-.1-.1-.2l-.3-.7c-.3-.6-.6-1.5-1.1-2.6-1-2.3-2.4-5.6-4-9.7-1.9-4.8-3.4-9.9-4.3-15-1.1-6.3-.8-12.8.9-19 .9-3.2 2.1-6.3 3.5-9.3 1.3-2.8 2.8-5.4 4.5-8 2.9-4.3 6.6-8.1 10.9-11.1 2.9-2 6.1-3.5 9.5-4.4.5-.2 1.1-.3 1.6-.4l1.2-.2.7-.1h.2zM637.8 451c.1-.3.2-.6.3-.8l.8-2.3c.7-2 1.8-5 3-8.6s2.6-8 3.8-12.9c1.4-5.3 2.2-10.8 2.5-16.3.2-5.5-.3-11-1.7-16.3-1.1-4.4-2.8-8.5-5.2-12.3-1.6-2.6-3.5-5-5.7-7.1-.7-.8-1.4-1.3-1.8-1.7l-.6-.6c.2.2.5.3.7.5.4.4 1.1.8 1.9 1.6 2.2 2.1 4.2 4.4 5.8 7 2.4 3.8 4.2 8 5.3 12.4 1.4 5.4 2 10.9 1.7 16.5-.3 5.5-1.1 11-2.5 16.4-1.2 4.9-2.7 9.3-4 12.9-1.3 3.6-2.4 6.5-3.2 8.5-.4 1-.7 1.7-.9 2.3 0 .3-.1.5-.2.8zM627.1 370.9c0 .3-.1.5-.2.8-.2.6-.4 1.3-.7 2.3s-.7 2.2-1.1 3.6c-.4 1.4-.9 3-1.4 4.8-1 3.6-2.1 7.9-3.2 12.7s-2.1 10.1-2.9 15.7-1.4 11-1.7 15.9c-.1 2.5-.3 4.8-.3 7 0 1.1-.1 2.1-.1 3.2v2.9c0 1.9.1 3.5.1 5 .1 1.5.1 2.8.2 3.8s.1 1.8.1 2.4v.8c-.1-.3-.1-.6-.1-.8 0-.6-.1-1.4-.2-2.4s-.2-2.3-.3-3.8c-.1-1.5-.2-3.2-.2-5v-6.1c0-2.2.2-4.5.3-7 .3-4.9.8-10.3 1.7-16s1.9-11 3-15.8 2.2-9.1 3.3-12.7c.5-1.8 1-3.4 1.5-4.8s.8-2.6 1.2-3.6c.4-1 .6-1.7.8-2.3 0-.1.1-.4.2-.6zM580.3 414.9c-1.2.8-2.4 1.5-3.8 2-1.3.7-2.6 1.2-4 1.5 1.2-.8 2.4-1.5 3.8-2 1.3-.6 2.6-1.1 4-1.5zM582.1 399c-2.8-1.2-5.5-2.8-8-4.6 1.5.5 2.9 1.2 4.2 2.1 1.3.7 2.6 1.6 3.8 2.5zM592.2 385.9c-1.4-2.1-2.4-4.3-3.2-6.7 1.3 2.1 2.4 4.3 3.2 6.7zM606 373.5c-.8-.6-1.5-1.4-2-2.3-.7-.8-1.2-1.6-1.6-2.6.8.6 1.5 1.4 2 2.3.7.8 1.2 1.7 1.6 2.6zM586.6 434.3c-1.2.9-2.5 1.7-3.9 2.4-1.3.8-2.7 1.4-4.1 1.9 2.5-1.7 5.2-3.1 8-4.3z"/><path class="st2" d="M603.1 424.7c-2.4-1-4.7-2.3-6.8-3.8 1.2.4 2.4 1 3.5 1.7 1.2.5 2.3 1.2 3.3 2.1zM607.7 402.6c-2.1 1.5-4.6 2.4-7.1 2.8 1.1-.6 2.3-1.1 3.5-1.5 1.1-.5 2.3-1 3.6-1.3zM612.9 386c-.7-.8-1.2-1.7-1.4-2.7-.4-.9-.6-2-.5-3 .4.9.8 1.9 1 2.8.4.9.7 1.9.9 2.9zM601.2 446.3c.8-2.5 2-5 3.4-7.2-.3 1.3-.8 2.5-1.5 3.7-.4 1.3-1.1 2.5-1.9 3.5zM629.1 440.4c-1.2-.8-2.3-1.7-3.2-2.9-1-1.1-1.8-2.3-2.3-3.6.1-.1 1.2 1.5 2.8 3.3.8 1 1.8 2.1 2.7 3.2zM638.7 416.1c-1.2 1-2.5 1.8-3.8 2.5-1.3.8-2.7 1.5-4.1 2.1 1.2-1 2.5-1.8 3.9-2.5 1.2-.9 2.6-1.6 4-2.1zM632.2 401.2c.9-1.2 1.9-2.2 3-3.2 1-1.1 2.1-2 3.3-2.8-1.8 2.2-3.9 4.2-6.3 6zM632.5 385.3c-1.1-.6-2.1-1.3-3-2.1-1-.7-1.9-1.6-2.7-2.5 2.2 1.2 4.1 2.8 5.7 4.6zM651 374.8c-1.9 1.7-4 3-6.3 4.1 1.8-1.6 4-3 6.3-4.1zM658.1 389.3c-2.1.5-4.2.6-6.4.5 2.1-.5 4.2-.7 6.4-.5zM662.7 406.5c-1.3.1-2.7.1-4-.1-1.4 0-2.7-.3-4-.6 1.3-.1 2.7-.1 4 .1 1.3 0 2.7.2 4 .6zM660.4 428.7c-1.4-1-2.6-2.1-3.7-3.4-1.2-1.1-2.4-2.4-3.3-3.7 2.5 2.1 4.9 4.5 7 7.1zM654.3 445.8c-1.4-1-2.7-2.2-3.7-3.6-1.2-1.3-2.2-2.7-2.9-4.3.1-.1 1.5 1.8 3.3 4s3.5 3.8 3.3 3.9z"/><path d="M633.2 372.1c.1-.1 1.2.4 3 1.6 2.5 1.8 4.8 4 6.7 6.5 2.8 3.7 4.9 8 6.1 12.5 1.5 5.5 2.2 11.1 2.1 16.8-.1 5.7-.8 11.3-2.3 16.8-1.1 4.4-2.6 8.8-4.4 13-3.1 7.2-5.7 11.3-6 11.1-.3-.2 1.6-4.5 4.2-11.8s5.7-17.5 5.8-29.1c.1-5.4-.5-10.8-1.8-16.1-1.1-4.3-2.9-8.4-5.3-12-1.7-2.5-3.6-4.8-5.8-6.8-1.5-1.5-2.4-2.4-2.3-2.5zM626.7 370.1c.4.1-.4 4.6-1.7 12s-3.4 17.3-5.1 28.5c-.8 5.6-1.5 10.9-2 15.8-.2 2.4-.4 4.8-.6 6.9s-.3 4.2-.3 6c-.3 7.4-.2 12-.7 12s-1-4.6-1.2-12v-6.1c0-2.2.2-4.5.3-7 .4-4.9 1-10.3 1.8-16 1.7-11.3 4-21.3 5.8-28.6s3.3-11.6 3.7-11.5zM620.2 369.5c0 .2-1.2.7-3.5 1.7-3.1 1.4-6.1 3.1-8.9 5.1-9.2 6.5-15.7 16.3-18.1 27.4-.7 3.1-1 6.3-1 9.5 0 3 .2 6 .7 8.9.8 5 2 10 3.6 14.8 1.3 4.2 2.6 7.5 3.4 9.8.8 2.3 1.2 3.6 1 3.7s-.9-1.1-2-3.3-2.6-5.5-4.2-9.6c-1.9-4.9-3.3-9.9-4.2-15.1-.5-3.1-.8-6.2-.8-9.3 0-3.4.3-6.7 1-10 1.4-6.4 4.1-12.4 8-17.6 3.2-4.2 7.1-7.9 11.6-10.7 3-1.9 6.2-3.4 9.6-4.5 2.4-.8 3.8-.9 3.8-.8z" class="st12"/></g></svg>