<svg version="1.1" id="Layer_1" xmlns="http://www.w3.org/2000/svg" x="0" y="0" viewBox="0 0 469.9 444.2" style="enable-background:new 0 0 469.9 444.2" xml:space="preserve"><style>.st0{fill:#fff}.st1{fill:#ebebeb}.st2{fill:#f5f5f5}.st3{fill:#e0e0e0}.st4{fill:#0061f2}.st5{opacity:.3}.st6{fill:#263238}.st7{fill:#455a64}.st8{fill:#fafafa}.st9{fill:none}.st10{opacity:.4}.st12{fill:#ffbe9d}.st13{fill:#eb996e}.st14{opacity:.6}</style><g id="background-complete--inject-1"><circle class="st0" cx="410.7" cy="119.4" r="44"/><path class="st1" d="M410.7 163.9c-24.6 0-44.5-19.9-44.5-44.5s19.9-44.5 44.5-44.6c24.6 0 44.5 19.9 44.5 44.5s-19.9 44.6-44.5 44.6zm0-88.1c-24 0-43.5 19.5-43.5 43.5s19.5 43.5 43.5 43.6c24 0 43.5-19.5 43.6-43.5-.2-24-19.6-43.5-43.6-43.6z"/><path class="st1" d="M431.5 116.2c-.8-1.5-2.7-2.1-4.2-1.3-.3.1-.5.3-.7.6-.7.9-1.2 1.8-1.6 2.9-1.1 2.6-2.1 5.2-3.2 7.8-.1.3-.5.5-.7.7-.1-.3-.4-.6-.4-.9-.1-1.5-.1-3.1-.1-4.6V97c0-.6-.2-1.1-.5-1.6-.8-1-2.2-1.4-3.3-.9-1.1.4-1.8 1.5-1.8 2.7v17c-.1.2-.3.4-.5.4s-.4-.2-.5-.4V93.4c0-1-.8-1.9-1.8-2.1-1.5-.6-3.2.2-3.7 1.6-.2.4-.2.9-.2 1.4v19.6c-.1.2-.2.4-.5.4-.2 0-.4-.2-.5-.4-.1-.3-.1-.7-.1-1V98.1c-.1-1.6-1.4-2.8-3-2.7-1.4.1-2.6 1.2-2.7 2.7v16.7c-.1.3-.3.5-.5.7-.2-.2-.6-.5-.6-.8v-11.8c0-1.5-1.2-2.6-2.7-2.6h-.2c-1.4 0-2.5 1-2.5 2.4v.2l-.3 11.9c0 2.4 0 4.8-.1 7.2-.3 4.8.3 9.6 1.9 14.2 1.4 4.2 4.7 7.4 9 8.5 4.6 1.3 9.5.8 13.7-1.5 3-1.4 5.3-3.9 6.5-6.9 2.2-5.9 4.2-11.9 6.2-17.9-.1-.6-.1-1.4-.4-2.2zM74.2 58.7l-1.3-6c-2.6-10.8-13.5-17.4-24.3-14.8-10.5 2.6-17.1 13-14.9 23.6l1.3 6.1c-5.2 2-8.2 7.6-6.9 13l8 35.3c1.4 6.1 7.4 9.9 13.5 8.5l36.6-8.3c6.1-1.4 9.9-7.4 8.5-13.5l-8-35.3c-1.4-5.6-6.8-9.4-12.5-8.6zm-5.9 40.6-9.6 2.2-.1-7.2c-3.1-1.1-4.8-4.5-3.7-7.6 1.1-3.1 4.5-4.8 7.6-3.7 3.1 1.1 4.8 4.5 3.7 7.6-.3.8-.7 1.6-1.3 2.2 1.4 2.4 3.4 6.5 3.4 6.5zm1.6-39.7-30.8 7-1.3-6c-1.9-8.5 3.4-17 11.9-18.9s17 3.4 18.9 11.9l1.3 6z"/><path class="st2" d="m135.7 20.5 1.2-3.7c2.2-6.8-1.6-14-8.4-16.2s-14 1.6-16.2 8.4l-1.3 3.8c-3.5-.6-6.9 1.5-8 4.9l-7 22.1c-1.2 3.8.9 7.9 4.7 9.1l22.9 7.3c3.8 1.2 7.9-.9 9.1-4.7l7-22.1c1.2-3.6-.5-7.4-4-8.9zm-16.4 20.6-6-1.9 2.3-4c-1.4-1.6-1.2-4 .4-5.4 1.6-1.4 4-1.2 5.4.4s1.2 4-.4 5.4c-.4.4-.9.6-1.4.8-.1 1.8-.3 4.7-.3 4.7zm13.8-21.4-19.3-6.1 1.2-3.7c1.9-5.3 7.7-8 12.9-6.1 5 1.8 7.7 7.1 6.4 12.2l-1.2 3.7z"/><path class="st1" d="M410.8 383.9c1.9 2.7 2.6 6 2 9.2-.6 3.2-2 6.2-3.9 8.8-3.6 5.1-9.8 8.9-15.5 11.4-2.3-6.5.5-14.1 2.1-17.8 2.7-6 11.1-15.1 15.3-11.6M393.8 425.2c1.1-3.5 4-6.1 7.6-6.9 3.6-.7 7.3.1 10.3 2.1 1.4.9 2.7 2.2 2.9 3.9.1 1.6-.7 3.1-2.1 3.9-1.4.8-2.9 1.2-4.5 1.2-5.2.3-10.5-.4-14.2-4.2"/><path class="st3" d="M381.4 434.7c1.6-2.4 3.6-4.5 6-6.2 1.5-1.1 3.1-2 4.7-2.9 3-1.6 6.3-2.4 9.7-2.4 1 0 2 .2 3 .4.4.1.7.2 1 .4 0 .1-1.6-.3-4.1-.3-3.3.1-6.5 1-9.4 2.5-1.6.9-3.1 1.8-4.6 2.8-1.2.8-2.4 1.7-3.4 2.8-.9 1.1-1.9 2.1-2.9 2.9z"/><path class="st3" d="M405.1 391.4c-.2.7-.5 1.3-.8 1.9-.6 1.2-1.4 3-2.5 5.1-2.1 4.3-5.2 10.2-8.7 16.6s-6.9 12.2-9.4 16.3c-1.2 2-2.3 3.7-3 4.8-.3.6-.7 1.2-1.2 1.7.3-.6.6-1.3 1-1.9l2.8-4.9c2.4-4.2 5.7-9.9 9.2-16.4l8.9-16.5 2.7-5c.3-.5.6-1.1 1-1.7z"/><path class="st2" d="M385.7 423.4c1.6-7.6-.6-15.5-5.9-21.1-1.3-1.4-3.3-2.8-5.1-2s-2.4 3-2.3 4.9c.2 8.3 5.3 15.7 13 18.7"/><path class="st3" d="M379 407.9s.3.3.7.8c.4.6 1 1.4 1.7 2.5 1.8 2.8 3.2 5.8 3.9 9.1.4 1.8.4 3.7.2 5.5-.2 1.5-.6 2.9-1.2 4.3-.4.9-.9 1.8-1.5 2.6-.4.6-.6.9-.7.9 0 0 .8-1.4 1.7-3.7.5-1.4.9-2.8 1-4.2.2-1.8.1-3.5-.2-5.3-.7-3.2-1.9-6.2-3.6-9-.7-1.1-1.4-2.3-2-3.5z"/></g><g id="Plant--inject-1"><path class="st4" d="M45.9 422.1c.6-2.3-.9-4.6-2.6-6.2s-3.7-3.1-4.6-5.3c-1.4-3.5.5-8.1-1.9-11.1-1.4-1.8-4-2.3-5.2-4.2-.6-1-1-2.2-1.2-3.3-1.3-5.9-4.2-11.3-8.4-15.7-.3 5.3.9 10.5 3.3 15.2 1 1.9 2.2 3.7 2.5 5.8.5 3.4-1.4 6.9-.5 10.2 1 3.8 5.2 6.3 5.4 10.2.2 3.3-2.7 6.2-2.5 9.5.2 1.4.7 2.7 1.5 3.9 2.5 4.2 6.3 7.2 12 7.1l7 .2-4.8-16.3z"/><path d="M45.9 422.1c.6-2.3-.9-4.6-2.6-6.2s-3.7-3.1-4.6-5.3c-1.4-3.5.5-8.1-1.9-11.1-1.4-1.8-4-2.3-5.2-4.2-.6-1-1-2.2-1.2-3.3-1.3-5.9-4.2-11.3-8.4-15.7-.3 5.3.9 10.5 3.3 15.2 1 1.9 2.2 3.7 2.5 5.8.5 3.4-1.4 6.9-.5 10.2 1 3.8 5.2 6.3 5.4 10.2.2 3.3-2.7 6.2-2.5 9.5.2 1.4.7 2.7 1.5 3.9 2.5 4.2 6.3 7.2 12 7.1l7 .2-4.8-16.3z" class="st5"/><path class="st6" d="M52.1 438.4c.6.1 1.3.1 1.9 0 .8-.1 1.5-.3 2.3-.6 1-.4 2-.9 2.8-1.5.5-.4.9-.9 1.1-1.5.2-.7.3-1.4.3-2.1 0-.8.1-1.5.2-2.3.1-.8.4-1.5.8-2.2.8-1.4 2.2-2.8 2.6-4.8.3-2 .3-4.1-.2-6.1-.5-2.2-.5-4.4.2-6.5.8-2.2 2.3-4.1 3-6.6s.4-5.1.6-7.8c.1-1.3.4-2.6.9-3.9.6-1.2 1.3-2.4 2-3.7 1.2-2.6 1.5-5.6 1.8-8.5.2-1.5.3-3 .5-4.5.1-1.5.4-3 .8-4.5.5-1.5 1-2.9 1.7-4.3.3-.7.6-1.5.8-2.2.1-.8.2-1.6.2-2.4.1-1.6 0-3.2-.2-4.8-.2-1.6-.5-3.2-.7-4.8v-.6l-.3.1c-1.5.8-2.8 1.8-3.7 3.2-1 1.3-1.7 2.7-2.3 4.2-1 3-1.8 6-2.3 9.1-.4 3-1.4 5.8-2.9 8.4-.8 1.2-1.7 2.4-2.5 3.6-.9 1.2-1.5 2.6-1.7 4-.4 3 1.2 5.5.9 8.1-.2 1.3-.6 2.5-1.3 3.6-.6 1.1-1.4 2.1-2.1 3.2-.7 1-1.3 2.1-1.9 3.2-.5 1.1-.8 2.3-.9 3.5-.2 2.4.2 4.6 0 6.7-.2 2-.8 3.9-1.7 5.7-.8 1.7-1.8 3.3-2.6 4.8-.4.8-.8 1.5-1 2.2-.3.7-.5 1.4-.6 2.2-.2 1.3-.2 2.7 0 4 .2 1.8.9 3.6 2 5.1l.6.6c.1.1.3.3.5.4l.4.3c-.4-.4-.9-.8-1.3-1.3-1.1-1.5-1.7-3.2-1.9-5-.2-1.3-.1-2.6.1-3.9.1-.7.3-1.5.6-2.1.3-.7.7-1.5 1.1-2.2.8-1.5 1.7-3 2.6-4.8.9-1.8 1.5-3.8 1.7-5.9.2-2.1-.1-4.4 0-6.7.1-1.2.4-2.3.8-3.4.5-1.1 1.1-2.1 1.8-3.1s1.5-2.1 2.1-3.2c.7-1.1 1.2-2.4 1.3-3.8.3-2.8-1.3-5.4-.8-8.1.3-1.4.9-2.7 1.7-3.8.8-1.2 1.7-2.3 2.5-3.6 1.5-2.7 2.5-5.6 2.9-8.6.4-3.1 1.2-6.1 2.2-9 .5-1.5 1.3-2.9 2.2-4.1 1-1.3 2.2-2.3 3.6-3l-.3-.2v.3c.2 1.6.5 3.2.7 4.8.2 1.6.3 3.2.2 4.7 0 .8-.1 1.6-.2 2.3-.2.7-.4 1.4-.7 2.1-.6 1.4-1.2 2.9-1.7 4.4-.4 1.5-.7 3-.8 4.5-.2 1.5-.3 3-.5 4.5-.3 2.9-.6 5.9-1.7 8.4-.6 1.3-1.4 2.4-2 3.7-.6 1.3-.9 2.6-.9 4-.2 2.7.2 5.3-.5 7.7s-2.2 4.4-3 6.6c-.6 2.2-.7 4.5-.2 6.7.5 2 .5 4 .2 6-.4 1.9-1.7 3.2-2.6 4.7-.4.7-.7 1.5-.9 2.3-.1.8-.1 1.5-.2 2.3 0 .7-.1 1.4-.3 2-.2.6-.6 1.1-1.1 1.5-.8.7-1.7 1.2-2.7 1.5-.7.3-1.5.5-2.2.6-.5.1-.9.1-1.4.1h-.4z"/><path class="st6" d="M74.1 356.4c0 .1 0 .1-.1.2 0 .2-.1.4-.2.6-.1.5-.3 1.4-.6 2.4s-.9 2.2-1.4 3.6c-.6 1.6-1.2 3.3-1.7 4.9-.5 1.9-1 3.9-1.5 6.1-.4 2.4-1.2 4.6-2.2 6.8-.6 1.1-1.2 2.3-1.7 3.5-.5 1.3-.8 2.6-1 4-.4 2.8-.9 5.6-1.5 8.4-1.4 5.7-2.7 11.1-3.9 16.1L55 426.3c-.9 3.7-1.7 6.7-2.2 8.9-.2 1-.4 1.8-.6 2.4-.1.2-.1.5-.1.6v.2c0-.1.1-.1.1-.2l.2-.6.7-2.4c.6-2.1 1.3-5.1 2.3-8.8s2.1-8.2 3.4-13.1 2.6-10.4 4-16.1c.7-2.8 1.2-5.6 1.5-8.5.2-1.3.5-2.6 1-3.9.5-1.2 1.1-2.4 1.7-3.5 1.1-2.2 1.8-4.5 2.2-6.9.5-2.2.9-4.3 1.4-6.1s1-3.5 1.6-4.9 1.1-2.6 1.4-3.7.4-1.9.5-2.4c.1-.3.1-.5.1-.6-.1-.2-.1-.2-.1-.3z"/><path class="st4" d="M53.3 438.4c4.6-2.7 5.8-10.9 4-15.8s-5.3-9.5-5.8-14.7c-.4-4 .9-8.2 0-12.1-1.3-5.3-6.5-9.5-6.4-15 0-3.1 1.8-6 1.6-9-.2-3.8-3.1-6.8-4.9-10.1-2.7-5.1-2.9-11.1-3.9-16.8s-3.1-11.8-8.2-14.6c-.8 4.8-2 8.1-1.6 14.7.1 2.4 2.9 6.9 3.2 12l.6 9.3c0 3 .5 6 1.5 8.9.8 2.2 2.2 4.1 2.8 6.3 1.2 4.2-.4 8.7.6 13 .8 3.6 3.3 6.7 3.8 10.3.7 5.1-2.6 10.4-.9 15.3.8 2.4 2.8 4.4 3.4 6.9.4 1.9 0 4 .4 5.9.6 3.1 6.6 5.6 9.8 5.4"/><path class="st6" d="M31.1 335v.3c0 .2.1.5.1.8.1.7.2 1.7.5 3s.9 2.8 1.5 4.6 1.2 3.9 1.7 6.2 1 4.9 1.4 7.7c.4 3 1.1 5.9 2.3 8.7.6 1.5 1.3 2.9 1.9 4.5.5 1.6.9 3.2 1 4.9.3 3.6.7 7.1 1.3 10.6 1.4 7.2 2.7 14 3.9 20.2s2.4 11.8 3.4 16.5l2.3 11.1.7 3c.1.3.1.6.2.8 0 .1 0 .2.1.3v-.3c0-.2-.1-.5-.1-.8-.1-.7-.3-1.7-.6-3-.5-2.7-1.3-6.5-2.2-11.1s-2.1-10.3-3.3-16.5-2.5-13-3.9-20.2c-.6-3.5-1.1-7-1.3-10.6-.1-1.7-.5-3.4-1-5s-1.3-3-1.9-4.5c-1.2-2.7-2-5.6-2.3-8.6-.5-2.8-.9-5.4-1.5-7.7s-1.1-4.4-1.7-6.2-1.3-3.3-1.6-4.6-.4-2.3-.5-3c-.1-.3-.1-.6-.2-.8-.1-.1-.1-.2-.2-.3z"/></g><g id="Device--inject-1"><path class="st6" d="M136.7 55.9h243.5c6.4 0 11.5 5.2 11.5 11.6V427c0 6.4-5.2 11.5-11.5 11.5H136.7c-6.4 0-11.6-5.2-11.6-11.5V67.5c0-6.4 5.2-11.6 11.6-11.6z"/><path class="st0" d="M133.5 82.1h249.8v319.5H133.5z"/><circle class="st7" cx="258.4" cy="419.3" r="10.2"/><path class="st7" d="M219.5 66.9h77.9c.7 0 1.2.5 1.2 1.2v1.8c0 .7-.5 1.2-1.2 1.2h-77.9c-.7 0-1.2-.5-1.2-1.2v-1.8c0-.6.5-1.2 1.2-1.2z"/><path class="st3" d="M289.7 375.9h-62.6c-7.4 0-13.4-6-13.4-13.4s6-13.4 13.4-13.4h62.6c7.4 0 13.4 6 13.4 13.4.1 7.4-6 13.4-13.4 13.4z"/><path class="st8" d="m241.5 364.1.2-.5c.5.5 1.2.7 1.9.7 1.1 0 1.5-.5 1.5-1 0-1.6-3.5-.6-3.5-2.8 0-.9.6-1.6 2.1-1.6.6 0 1.2.2 1.8.5l-.2.5c-.5-.3-1-.5-1.5-.5-1 0-1.5.5-1.5 1.1 0 1.6 3.5.6 3.5 2.8 0 .9-.7 1.6-2.1 1.6-.8 0-1.6-.3-2.2-.8zM247.1 358.9h.6v5.9h-.6v-5.9zM254.2 359v5.9h-.5l-3.6-4.8v4.8h-.6V359h.5l3.6 4.8V359h.6zM260 362h.6v2.2c-.6.5-1.3.8-2.1.8-1.7 0-3-1.3-3-3s1.3-3 3-3c.8 0 1.6.3 2.1.9l-.4.4c-.4-.5-1.1-.7-1.7-.7-1.4 0-2.4 1.1-2.4 2.5s1.1 2.4 2.5 2.4c.5 0 1-.2 1.4-.4V362zM264.4 362.4V359h.6v3.4c0 1.4.6 2 1.7 2s1.7-.6 1.7-2V359h.6v3.4c0 1.7-.9 2.6-2.3 2.6s-2.3-.9-2.3-2.6zM275.3 361.1c0 1.3-.9 2-2.3 2h-1.5v1.9h-.6v-5.9h2.1c1.4 0 2.3.7 2.3 2zm-.6 0c0-1-.6-1.5-1.7-1.5h-1.5v3h1.5c1.1 0 1.7-.6 1.7-1.5z"/><path class="st3" d="M188.7 227.9h35.6v6.5h-35.6zM327 269.2c.3 0 .6-.1.8-.1.8-.3 1.4-.8 1.8-1.6.2-.6.3-1.2.2-1.8v-16.5c.1-.6-.1-1.3-.4-1.8-.4-.6-.9-1-1.5-1.2-.7-.1-1.4-.2-2.1-.1h-20l-115.5-.4c-1.3 0-2.4 1-2.5 2.2v16.5c0 .6 0 1.3.1 1.9.2.6.5 1.1 1 1.4.5.3 1.1.5 1.7.5h6l30.7.2 51.9.3 35 .3 9.5.1h2.5l.8.1h-47.8l-51.9-.2-30.7-.1h-6c-.8 0-1.5-.2-2.1-.6-.6-.4-1.1-1.1-1.3-1.8-.1-.7-.2-1.4-.1-2.1v-16.6c.2-1.7 1.6-2.9 3.3-2.8l115.5.6 20 .1c.7 0 1.5 0 2.2.1.7.2 1.3.7 1.7 1.3.3.6.5 1.3.4 2v1.9c0 2.5 0 4.8-.1 6.9-.1 2.1 0 3.9 0 5.5v2.2c0 .6-.1 1.2-.3 1.8-.4.8-1 1.4-1.9 1.6-.3.2-.6.2-.9.2z"/><path transform="matrix(.00454 -1 1 .00454 -90.318 498.177)" class="st3" d="M201.8 276.6h6.5v35.6h-6.5z"/><path class="st3" d="M326.7 331.4c.3 0 .6-.1.8-.1.8-.3 1.4-.8 1.8-1.6.2-.6.3-1.2.2-1.8v-16.5c.1-.6-.1-1.3-.4-1.8-.3-.6-.9-1-1.5-1.2-.7-.1-1.4-.2-2.1-.1h-19.9l-115.5-.4c-1.3 0-2.4 1-2.5 2.2-.1 1.3 0 2.8 0 4.1v12.4c0 .6 0 1.3.1 1.9.2.6.5 1.1 1 1.4.5.3 1.1.5 1.7.4h6l30.7.2 51.9.3 35 .3 9.5.1h3.3H227l-30.7-.1h-6c-.7.1-1.5-.1-2.1-.6-.6-.4-1.1-1.1-1.3-1.8-.1-.7-.2-1.4-.1-2.1V310c.2-1.6 1.6-2.9 3.2-2.9l115.5.6 20 .1c.7 0 1.5 0 2.2.1.7.2 1.3.7 1.7 1.3.4.6.5 1.3.5 2v1.9c0 2.5 0 4.8-.1 6.9s0 3.9-.1 5.5v2.2c0 .6-.1 1.2-.3 1.8-.4.8-1 1.4-1.9 1.6-.2.3-.5.3-.8.3z"/><path transform="matrix(.00454 -1 1 .00454 -28.584 485.706)" class="st3" d="M226.6 224.6h6.1v65.2h-6.1z"/><path class="st3" d="M203 320.1c-.1 1.6-1.5 2.8-3.1 2.7-1.6-.1-2.8-1.5-2.7-3.1.1-1.5 1.4-2.7 2.9-2.7 1.7.1 2.9 1.4 2.9 3.1zM211.8 320.1c-.1 1.6-1.5 2.8-3 2.7s-2.8-1.5-2.7-3c.1-1.5 1.4-2.7 2.9-2.7 1.6 0 2.9 1.4 2.8 3zM220.7 320.2c-.1 1.6-1.4 2.8-3 2.7-1.6-.1-2.8-1.4-2.7-3 .1-1.5 1.3-2.7 2.9-2.7 1.5 0 2.8 1.4 2.8 3zM229.5 320.2c-.1 1.6-1.5 2.8-3 2.7s-2.8-1.5-2.7-3c.1-1.5 1.4-2.7 2.9-2.7 1.6 0 2.8 1.4 2.8 3zM238.3 320.2c-.1 1.6-1.5 2.8-3 2.7s-2.8-1.5-2.7-3c.1-1.5 1.4-2.7 2.9-2.7 1.6.1 2.8 1.4 2.8 3zM247.1 320.3c-.1 1.6-1.5 2.8-3 2.7s-2.8-1.5-2.7-3c.1-1.5 1.4-2.7 2.9-2.7 1.6 0 2.9 1.4 2.8 3zM255.9 320.3c-.1 1.6-1.5 2.8-3 2.7s-2.8-1.5-2.7-3c.1-1.5 1.4-2.7 2.9-2.7 1.6.1 2.9 1.4 2.8 3zM264.8 320.4c-.1 1.6-1.5 2.8-3 2.7-1.6-.1-2.8-1.5-2.7-3 .1-1.5 1.4-2.7 2.9-2.7 1.6 0 2.9 1.3 2.8 3zM273.6 320.4c-.1 1.6-1.5 2.8-3 2.7-1.6-.1-2.8-1.5-2.7-3 .1-1.5 1.4-2.7 2.9-2.7 1.6 0 2.9 1.4 2.8 3z"/><circle class="st3" cx="264.7" cy="157.6" r="48.9"/><path class="st0" d="M268.5 158.3c3.9-1.7 6.4-5.6 6.4-9.9 0-5.9-4.5-10.7-10-10.7s-10 4.7-10.1 10.6c-.1 4.3 2.4 8.3 6.4 10-15.4 2.3-14.7 19.1-14.7 19.1l36.5.2s.8-17-14.5-19.3z"/></g><g id="Sign--inject-1"><path class="st6" d="M88.8 205.2h12.9v233.3H88.8z"/><path class="st7" d="M85.2 205.2h12.9v233.3H85.2z"/><path class="st4" d="M158.7 182.8v-26.3c0-.8-.3-1.6-.8-2.2-12.5-12.5-24.9-25-37.5-37.4-.7-.7-1.7-1.1-2.7-1.1-17.3-.1-34.6 0-51.9-.1-1.2 0-2.4.5-3.3 1.4C50.3 129.5 38 141.7 25.8 154c-.6.7-1 1.6-1 2.6-.1 17.5-.1 35 0 52.4 0 .9.4 1.8 1.1 2.5 12.2 12.3 24.5 24.6 36.8 36.9.8.9 2 1.5 3.2 1.5h51.6c1.2.1 2.5-.4 3.3-1.4 12.2-12.3 24.6-24.6 36.8-36.9.7-.7 1.1-1.7 1.1-2.7v-26.1z"/><g id="_x34_mamg4tif--inject-1"><path class="st4" d="M15.1 182.7v-30.1c0-.9.4-1.8 1-2.4 11.1-11.2 22.3-22.4 33.6-33.6 3.1-3.1 6.1-6.2 9.2-9.1.7-.6 1.6-1 2.5-1.1 20.1-.1 40.1 0 60.2-.1 1.2 0 2.3.4 3.1 1.3 14.1 14.2 28.3 28.4 42.5 42.6.6.7 1 1.5 1 2.4.1 20.2 0 40.3.1 60.5 0 1-.4 2-1.1 2.7-11.1 11-22.2 22.1-33.2 33.2-3.2 3.2-6.4 6.3-9.6 9.4-.6.6-1.4.9-2.2 1H61.4c-.8 0-1.5-.3-2.1-.9-11.9-11.8-23.7-23.6-35.5-35.4-2.5-2.5-5-4.9-7.4-7.5-.6-.7-1-1.6-1.1-2.5-.2-10.2-.2-20.3-.2-30.4zm76.6-72H63.1c-.7 0-1.4.3-2 .7-13.5 13.5-27.1 27-40.5 40.5-.6.7-1 1.5-1 2.4-.1 18.9-.1 37.8 0 56.7 0 .9.4 1.8 1 2.5 13.3 13.4 26.7 26.8 40.2 40.2.7.6 1.5 1 2.4 1 18.8 0 37.7 0 56.5.1 1.1 0 2.1-.4 2.9-1.2 13.3-13.3 26.5-26.6 39.9-39.9.8-.8 1.3-1.9 1.2-3 0-18.9 0-37.7-.1-56.6 0-.8-.4-1.6-.9-2.3-3.5-3.6-7.1-7.1-10.6-10.7-9.7-9.7-19.3-19.4-29-29.1-1-1-2.3-1.6-3.7-1.5-9.3.3-18.5.2-27.7.2z"/><path class="st0" d="M91.7 110.7h27.6c1.4-.1 2.8.5 3.7 1.5 9.7 9.7 19.3 19.4 29 29.1 3.6 3.6 7.1 7.1 10.6 10.7.6.6.9 1.4.9 2.3.1 18.9 0 37.7.1 56.6.1 1.1-.4 2.2-1.2 3-13.3 13.3-26.6 26.5-39.9 39.9-.7.8-1.8 1.2-2.9 1.2-18.8 0-37.7 0-56.5-.1-.9 0-1.8-.4-2.4-1-13.4-13.3-26.8-26.7-40.2-40.2-.6-.7-1-1.6-1-2.5-.1-18.9-.1-37.8 0-56.7 0-.9.4-1.8 1-2.4C34 138.6 47.5 125 61 111.6c.6-.5 1.3-.7 2-.7 9.6-.2 19.2-.2 28.7-.2zm66.9 72.1v-26.3c0-.8-.3-1.6-.8-2.2-12.4-12.5-24.9-25-37.4-37.4-.7-.7-1.7-1.1-2.7-1.1-17.3-.1-34.6 0-51.9-.1-1.2 0-2.4.5-3.3 1.4C50.2 129.4 38 141.7 25.7 154c-.6.7-1 1.6-1 2.6-.1 17.5-.1 35 0 52.4 0 .9.4 1.8 1.1 2.5 12.2 12.3 24.5 24.6 36.8 36.9.8.9 2 1.4 3.2 1.4h51.6c1.2.1 2.5-.4 3.3-1.4 12.2-12.3 24.6-24.6 36.8-36.9.7-.7 1.1-1.7 1.1-2.7.1-8.6 0-17.3 0-26z"/></g><path class="st0" d="M80.1 190.1h-5.7v7.3h-7.8v-7.3H47.9v-5.4l16.4-22h8.4l-15.2 20.9h9.4V177h7.6v6.5h5.7l-.1 6.6zM82.5 180c0-11.5 6.3-18 14.9-18s14.9 6.5 14.9 18-6.3 18-14.9 18-14.9-6.6-14.9-18zm21.7 0c0-7.9-2.8-11.2-6.8-11.2s-6.8 3.3-6.8 11.2 2.8 11.2 6.8 11.2 6.8-3.3 6.8-11.2zM129.3 162.6v34.8h-8v-28.3h-7v-6.5h15zM82.9 151.9v1.5h-8.7v-12h8.5v1.5h-6.8v3.7h6v1.5h-6v3.9h7zM90.4 144.2v1.6H90c-1.8 0-2.9 1.1-2.9 3.1v4.5h-1.7v-9.1H87v1.5c.8-1.1 2-1.8 3.4-1.6zM97.3 144.2v1.6h-.4c-1.8 0-2.9 1.1-2.9 3.1v4.5h-1.7v-9.1H94v1.5c.7-1.1 2-1.8 3.3-1.6zM98.4 148.8c0-2.6 2-4.8 4.6-4.8 2.6 0 4.8 2 4.8 4.6 0 2.6-2 4.8-4.6 4.8h-.1c-2.5.1-4.6-1.8-4.7-4.3v-.3zm7.8 0c.1-1.7-1.2-3.1-2.9-3.2-1.7-.1-3.1 1.2-3.2 2.9v.4c-.1 1.7 1.2 3.1 2.9 3.2 1.7.1 3.1-1.2 3.2-2.9v-.4zM115 144.2v1.6h-.4c-1.8 0-2.9 1.1-2.9 3.1v4.5H110v-9.1h1.6v1.5c.8-1.1 2.1-1.8 3.4-1.6zM47.2 211.5v-5.3h1.3v5.3c0 2.1 1 3 2.6 3s2.7-.9 2.7-3v-5.3h1.3v5.3c0 2.7-1.5 4.2-4 4.2s-3.9-1.5-3.9-4.2zM64.4 211.4v4.1h-1.3v-3.9c0-1.4-.7-2.1-1.9-2.1-1.2-.1-2.2.7-2.3 1.9v4.2h-1.3v-7.1h1.3v1.1c.6-.8 1.6-1.2 2.6-1.1 1.5-.1 2.8 1 2.9 2.6v.3zM72.4 211.2v4.3h-1.2v-.9c-.6.7-1.4 1.1-2.3 1-1.6 0-2.6-.9-2.6-2.1s.7-2.1 2.9-2.1h2v-.3c0-1.1-.6-1.7-1.9-1.7-.8 0-1.6.3-2.2.8l-.5-1c.9-.6 1.9-.9 2.9-.9 1.8.1 2.9 1 2.9 2.9zm-1.2 2.2v-1h-2c-1.3 0-1.6.5-1.6 1.1s.6 1.2 1.6 1.2c.8 0 1.6-.5 2-1.3zM81.5 208.4v7.1h-1.2v-1.1c-.6.8-1.5 1.2-2.4 1.1-1.5.2-2.9-1-3.1-2.5V208.3H76v3.9c0 1.4.7 2.1 1.9 2.1 1.2.1 2.1-.8 2.2-2V208.2h1.4zM87.9 215.1c-.4.3-1 .5-1.6.5-1.1.1-2.1-.6-2.2-1.7v-4.4h-1.2v-1.1h1.2v-1.5h1.3v1.6h2v1.1h-2v3.9c-.1.5.2 1.1.8 1.2h.3c.4 0 .7-.1 1-.3l.4.7zM96.2 211.4v4.1h-1.3v-3.9c0-1.4-.7-2.1-1.9-2.1-1.2-.1-2.2.8-2.3 1.9V215.5h-1.3v-10h1.3v3.9c.6-.7 1.6-1.1 2.5-1.1 1.5-.1 2.8 1 2.9 2.5.1.3.1.5.1.6zM97.9 212c0-2 1.6-3.7 3.6-3.8 2 0 3.7 1.6 3.8 3.6 0 2-1.6 3.7-3.6 3.8h-.1c-2 .1-3.6-1.4-3.7-3.4v-.2zm6.1 0c-.1-1.3-1.2-2.3-2.5-2.3-1.3.1-2.3 1.2-2.3 2.5.1 1.3 1.1 2.3 2.4 2.3 1.3.1 2.4-.9 2.4-2.2.1-.1.1-.2 0-.3zM110.9 208.4v1.2h-.3c-1.2-.1-2.2.8-2.3 2v3.9H107v-7.1h1.2v1.2c.7-.9 1.7-1.3 2.7-1.2zM112.3 206.2c0-.5.3-.9.8-.9s.9.3.9.8-.3.9-.8.9c-.5.1-.9-.3-.9-.8 0 .1 0 0 0 0zm.2 2.2h1.3v7.1h-1.3v-7.1zM121.6 214.5v1.1h-6v-.8l4.2-5.2h-4.1v-1.1h5.8v.8l-4.2 5.2h4.3zM129.6 212.4h-5.8c.2 1.3 1.3 2.2 2.6 2.1.8 0 1.5-.3 2.1-.9l.7.8c-1.5 1.5-4 1.5-5.5 0-.7-.7-1.1-1.6-1.1-2.5-.1-1.9 1.4-3.5 3.3-3.6h.2c1.9 0 3.5 1.4 3.5 3.3v.8zm-5.8-.9h4.6c-.1-1.3-1.3-2.2-2.5-2-1.1.1-2 .9-2.1 2zM138.1 205.6v10h-1.2v-1.1c-.6.8-1.5 1.3-2.5 1.2-2 0-3.6-1.6-3.6-3.6s1.6-3.6 3.6-3.6c1 0 1.9.4 2.5 1.1v-3.9l1.2-.1zm-1.3 6.4c-.1-1.3-1.2-2.3-2.5-2.3-1.3.1-2.3 1.2-2.3 2.5.1 1.3 1.1 2.3 2.4 2.3 1.3 0 2.4-1 2.4-2.3v-.2z"/></g><g id="Padlock--inject-1"><path class="st2" d="M310.2 214.5c-3.3-6.7-11.5-9.4-18.1-6l-18.3 9.2c-6.7 3.4-9.4 11.5-6 18.1 3.3 6.7 11.5 9.4 18.1 6l18.3-9.2c6.7-3.3 9.4-11.4 6-18.1zm-8.7 12.5-18.2 9.2c-3.6 1.8-7.9.4-9.7-3.2-1.8-3.6-.4-7.9 3.2-9.7l18.2-9.2c3.6-1.8 7.9-.4 9.7 3.2s.4 7.9-3.2 9.7z"/><path class="st3" d="m302.7 214.9 6-2.8c-.4-.6-.9-1.1-1.5-1.6l-6.2 3.3c.1.1 1.6.6 1.7 1.1zM305.3 222.4l6.3-.1c.1-1.2 0-2.5-.1-3.8l-6.1 2.9-.1 1z"/><path class="st9" d="M310.2 214.5c-3.3-6.7-11.5-9.4-18.1-6l-18.3 9.2c-6.7 3.4-9.4 11.5-6 18.1 3.3 6.7 11.5 9.4 18.1 6l18.3-9.2c6.7-3.3 9.4-11.4 6-18.1zm-8.7 12.5-18.2 9.2c-3.6 1.8-7.9.4-9.7-3.2-1.8-3.6-.4-7.9 3.2-9.7l18.2-9.2c3.6-1.8 7.9-.4 9.7 3.2s.4 7.9-3.2 9.7z"/><path class="st6" d="M301.5 227c1-.6 1.8-1.3 2.5-2.2.8-1.1 1.2-2.3 1.3-3.6.3-3.9-2.5-7.2-6.4-7.6-1.3-.1-2.5.1-3.7.7l-3.4 1.7-15 7.6c-2.6 1.3-4.1 4-3.8 6.9.1 1.3.6 2.6 1.5 3.6.8 1 1.9 1.8 3.1 2.2 1.1.4 2.4.5 3.6.3 1.1-.3 2.2-.7 3.2-1.3l5.7-2.8 8.3-4.1 2.3-1.1c.2-.1.5-.2.8-.3-.2.2-.5.3-.8.4l-2.2 1.2-8.2 4.2-5.7 2.9c-1 .6-2.2 1.1-3.3 1.3-1.3.2-2.6.1-3.8-.4-3.9-1.4-5.8-5.7-4.4-9.6.1-.3.3-.6.4-.9.7-1.3 1.8-2.4 3.2-3.1l15-7.5 3.3-1.6c3.2-1.5 7-.6 9.1 2.2 1.1 1.4 1.6 3.2 1.4 5-.1 1.3-.6 2.6-1.4 3.7-.5.7-1.1 1.3-1.9 1.7l-.6.3c0 .2-.1.2-.1.2z"/><path class="st6" d="M310.2 214.5c.1.1.1.2.2.3.1.2.2.5.4.9s.3.9.5 1.5c.2.7.3 1.4.4 2.1.2 1.9 0 3.9-.6 5.8-.4 1.2-.9 2.3-1.6 3.3-.8 1.1-1.7 2.1-2.8 3-1.2.9-2.5 1.7-3.9 2.3l-4.3 2.2-9.6 4.9c-1.7.9-3.5 1.8-5.3 2.4-2 .6-4.1.7-6.1.4-2.1-.3-4.1-1.2-5.8-2.4-3.6-2.6-5.7-6.8-5.7-11.3 0-2.1.5-4.2 1.5-6.1.9-1.8 2.3-3.4 3.9-4.7 1.6-1.1 3.3-2 5.1-2.8l9.6-4.8 4.3-2.2c1.3-.7 2.7-1.3 4.1-1.8 1.3-.3 2.7-.5 4.1-.4 1.2.1 2.4.3 3.6.7 1.9.6 3.6 1.6 5 2.9.5.5 1 1 1.5 1.6.4.5.7.9.9 1.3l.5.8c0-.1.1 0 .1.1-.9-1.4-1.9-2.7-3.1-3.8-1.4-1.3-3.2-2.2-5-2.8-1.1-.3-2.3-.5-3.5-.6-1.3 0-2.7.1-4 .4-1.4.4-2.8 1-4.1 1.8l-4.3 2.2-9.5 4.8c-1.7.8-3.4 1.7-5 2.8-1.6 1.2-2.9 2.7-3.8 4.5-.9 1.8-1.4 3.8-1.5 5.9-.1 4.3 2 8.3 5.5 10.9 1.7 1.2 3.6 2 5.6 2.3 2 .3 4 .2 5.9-.3 1.8-.6 3.5-1.4 5.2-2.4l9.6-4.8 4.3-2.2c1.4-.6 2.6-1.3 3.8-2.2 2-1.6 3.5-3.7 4.3-6.1.6-1.8.9-3.8.7-5.7 0-1.6-.4-3.2-1.1-4.7z"/><path class="st2" d="M368.9 185.5c-3.3-6.7-11.5-9.4-18.1-6l-18.3 9.2c-6.7 3.3-9.4 11.5-6 18.1 3.4 6.7 11.5 9.4 18.1 6l18.4-9.2c6.5-3.3 9.2-11.4 5.9-18.1 0 .1 0 0 0 0zm-8.8 12.5-18.2 9.2c-3.5 1.9-7.9.6-9.8-2.9s-.6-7.9 2.9-9.8c.1-.1.3-.1.4-.2l18.2-9.2c3.6-1.7 7.9-.1 9.6 3.5 1.6 3.5.3 7.6-3.1 9.4z"/><path class="st3" d="m361.3 185.9 6-2.8c-.4-.6-.9-1.1-1.5-1.6l-6.1 3.4s1.5.6 1.6 1zM363.9 193.4l6.3-.1c.1-1.3.1-2.5 0-3.8l-6.1 2.9-.2 1z"/><path class="st9" d="M368.9 185.5c-3.3-6.7-11.5-9.4-18.1-6l-18.3 9.2c-6.7 3.3-9.4 11.5-6 18.1 3.4 6.7 11.5 9.4 18.1 6l18.4-9.2c6.5-3.3 9.2-11.4 5.9-18.1 0 .1 0 0 0 0zm-8.8 12.5-18.2 9.2c-3.5 1.9-7.9.6-9.8-2.9s-.6-7.9 2.9-9.8c.1-.1.3-.1.4-.2l18.2-9.2c3.6-1.7 7.9-.1 9.6 3.5 1.6 3.5.3 7.6-3.1 9.4z"/><path class="st6" d="M360.1 198c1-.6 1.8-1.3 2.5-2.2 2.4-3.1 1.8-7.5-1.3-9.8-2.1-1.6-5.1-1.9-7.5-.7l-3.4 1.7-14.9 7.6c-2.6 1.3-4.1 4-3.8 6.9.1 1.3.6 2.6 1.5 3.6.8 1 1.8 1.8 3 2.2 1.1.4 2.4.5 3.6.3 1.1-.2 2.2-.7 3.2-1.3l5.7-2.8 8.3-4.1 2.3-1.1c.2-.1.5-.2.8-.3-.3.2-.5.3-.8.4l-2.2 1.2-8.2 4.2-5.7 2.9c-1 .6-2.2 1.1-3.3 1.3-1.3.2-2.6.1-3.8-.3-3.9-1.4-5.9-5.7-4.4-9.6.6-1.8 2-3.2 3.6-4.1l15-7.5 3.4-1.7c1.1-.5 2.3-.8 3.5-.7 2.2.1 4.3 1.2 5.6 3 1.1 1.5 1.6 3.3 1.4 5.1-.1 1.3-.6 2.6-1.4 3.7-.5.7-1.1 1.2-1.9 1.7l-.6.3c-.1.1-.2.1-.2.1z"/><path class="st6" d="M368.9 185.5s.1.1.2.3l.4.9c.1.4.3.9.5 1.5.2.7.3 1.4.4 2.1.2 1.9 0 3.9-.6 5.8-.4 1.2-.9 2.3-1.6 3.3-.8 1.1-1.7 2.1-2.8 3-1.2.9-2.5 1.7-3.9 2.3l-4.3 2.2-9.5 4.8c-1.7 1-3.5 1.8-5.3 2.4-2 .6-4.1.7-6.1.4-2.1-.3-4.1-1.2-5.8-2.4-1.8-1.3-3.2-3-4.2-4.9-1-2-1.5-4.1-1.5-6.3 0-2.1.5-4.2 1.5-6.1.9-1.8 2.3-3.4 3.9-4.7 1.6-1.1 3.3-2 5.1-2.8l9.6-4.8 4.3-2.2c1.3-.7 2.7-1.3 4.2-1.8 1.3-.3 2.7-.5 4.1-.4 1.2.1 2.4.3 3.6.6 1.9.6 3.6 1.6 5 2.9.5.5 1 1 1.4 1.6.4.5.7.9.9 1.3l.5.8c-.1 0-.1.1 0 .2-.8-1.5-1.9-2.8-3.1-3.9-1.4-1.3-3.2-2.2-5-2.8-1.1-.3-2.3-.5-3.5-.6-1.3 0-2.7.1-4 .5-1.4.4-2.8 1-4.1 1.8l-4.3 2.2-9.5 4.8c-1.7.8-3.4 1.7-5 2.8-1.6 1.2-2.9 2.7-3.8 4.5-.9 1.8-1.4 3.9-1.5 5.9-.1 4.3 2 8.3 5.5 10.9 1.7 1.2 3.6 2 5.6 2.3 2 .3 4 .2 5.9-.3 1.8-.6 3.5-1.4 5.2-2.4l9.6-4.8 4.3-2.2c1.3-.6 2.6-1.4 3.8-2.2 1-.8 2-1.8 2.7-2.9.7-1 1.2-2.1 1.6-3.2.6-1.8.9-3.7.7-5.7-.1-1.6-.5-3.2-1.1-4.7z"/><path class="st2" d="m393.4 178.7-31.3 14.7c-1.8.8-3.8.1-4.7-1.7-.8-1.8-.1-3.9 1.7-4.7l31.3-14.7c1.8-.8 3.9-.1 4.7 1.7.8 1.7.1 3.8-1.7 4.7z"/><path class="st6" d="M393.4 178.7s.3-.1.7-.5c1.4-1.2 1.6-3.4.3-4.9-.3-.3-.6-.6-1-.8-.8-.4-1.6-.5-2.4-.3-.4.1-.9.3-1.3.6l-1.4.6-29.2 13.8c-1.6.8-2.3 2.7-1.6 4.4.5 1 1.5 1.7 2.6 1.9.7.1 1.4-.1 2-.4l2-.9 3.8-1.8 13.2-6.1 8.9-4.1 2.4-1.1.6-.3c.3-.1.4-.1.4-.1l-.2.1-.6.3-2.4 1.2-8.8 4.2-13.1 6.2-3.8 1.8-2 .9c-.7.4-1.5.6-2.3.5-2.1-.2-3.6-2-3.4-4.1.1-1.3.9-2.5 2.2-3.1l29.2-13.6 1.4-.6c.4-.2.9-.4 1.4-.6.9-.2 1.8-.1 2.7.3 1.3.7 2.1 2.2 1.9 3.7-.1.9-.6 1.7-1.3 2.3-.3.2-.6.4-.9.5z"/><path class="st2" d="m334.8 207.6-31.3 14.7c-1.8.8-3.8.1-4.7-1.7-.8-1.8-.1-3.8 1.7-4.7l31.3-14.7c1.8-.8 3.9-.1 4.7 1.7.8 1.8.1 3.9-1.7 4.7z"/><path class="st6" d="M334.8 207.6c.3-.2.5-.3.8-.5.7-.6 1.1-1.4 1.2-2.3.1-1.4-.6-2.7-1.8-3.4-.8-.4-1.6-.5-2.4-.3-.4.1-.9.3-1.3.6l-1.4.6-29.2 13.8c-1.6.8-2.3 2.7-1.6 4.4.5 1 1.5 1.7 2.6 1.9.7.1 1.4-.1 2-.4l2-.9 3.8-1.8 13.2-6.1 8.9-4.1 2.4-1.1.6-.3.2-.1-.2.1-.6.3-2.4 1.2-8.8 4.2-13.1 6.2-3.8 1.8-2 .9c-.7.4-1.5.6-2.2.5-1.7-.1-3-1.4-3.4-3-.3-1.7.5-3.4 2.1-4.1l29.3-13.6 1.4-.6c.4-.2.9-.4 1.3-.6 1.9-.5 3.9.7 4.4 2.6.1.5.1.9.1 1.4-.1.9-.6 1.7-1.3 2.3-.2.2-.5.3-.8.4z"/><path class="st2" d="M194.3 270c-3.4-6.7-11.5-9.3-18.1-6l-18.3 9.2c-6.7 3.3-9.4 11.5-6 18.1 3.3 6.7 11.5 9.4 18.1 6l18.3-9.2c6.7-3.3 9.3-11.4 6-18.1zm-8.8 12.5-18.2 9.2c-3.6 1.8-7.9.4-9.7-3.2-1.8-3.6-.4-7.9 3.2-9.7l18.2-9.2c3.6-1.8 7.9-.4 9.7 3.2 1.8 3.6.4 7.9-3.2 9.7z"/><path class="st3" d="m186.8 270.4 6-2.8c-.5-.6-.9-1.1-1.5-1.6l-6.1 3.4c-.1 0 1.4.5 1.6 1zM189.3 277.9l6.3-.1c.1-1.2.1-2.5 0-3.8l-6.2 2.9-.1 1z"/><path class="st9" d="M194.3 270c-3.4-6.7-11.5-9.3-18.1-6l-18.3 9.2c-6.7 3.3-9.4 11.5-6 18.1 3.3 6.7 11.5 9.4 18.1 6l18.3-9.2c6.7-3.3 9.3-11.4 6-18.1zm-8.8 12.5-18.2 9.2c-3.6 1.8-7.9.4-9.7-3.2-1.8-3.6-.4-7.9 3.2-9.7l18.2-9.2c3.6-1.8 7.9-.4 9.7 3.2 1.8 3.6.4 7.9-3.2 9.7z"/><path class="st6" d="M185.5 282.5c1-.6 1.8-1.3 2.5-2.2.8-1.1 1.2-2.3 1.3-3.6.3-3.9-2.5-7.2-6.4-7.6-1.3-.1-2.5.1-3.7.7l-3.3 1.7c-4.6 2.3-9.6 4.9-14.9 7.5-2.6 1.3-4.1 4-3.8 6.9.1 1.3.7 2.6 1.5 3.6s1.9 1.8 3.1 2.2c1.1.4 2.4.5 3.6.3 1.1-.3 2.2-.7 3.2-1.3l5.7-2.8 8.3-4.1 2.3-1.1c.1 0 .4-.1.6-.2-.2.2-.5.3-.7.4l-2.2 1.2-8.2 4.2-5.7 2.9c-1 .6-2.2 1.1-3.3 1.3-1.3.2-2.6.1-3.8-.3-1.3-.5-2.4-1.3-3.3-2.3-.9-1.1-1.4-2.5-1.6-3.9-.3-3.1 1.3-6 4.1-7.4l15-7.5 3.4-1.7c1.1-.5 2.3-.8 3.5-.7 2.2.1 4.3 1.2 5.6 3 1.1 1.4 1.6 3.2 1.4 5-.2 2.2-1.4 4.2-3.3 5.4l-.6.3-.3.1z"/><path class="st6" d="M194.3 270s.1.1.1.3.2.5.4.9.3.9.5 1.5c.2.7.3 1.4.4 2.1.2 1.9 0 3.9-.6 5.8-.4 1.2-.9 2.3-1.6 3.3-.8 1.1-1.7 2.1-2.8 3-1.2.9-2.5 1.7-3.9 2.3l-4.3 2.2-9.5 4.8c-1.7.9-3.5 1.8-5.3 2.4-2 .6-4.1.7-6.1.4-2.1-.3-4.1-1.2-5.8-2.4-3.6-2.6-5.7-6.8-5.7-11.3 0-2.1.5-4.2 1.5-6.1.9-1.8 2.3-3.4 3.9-4.7 1.6-1.1 3.3-2 5.1-2.8l9.6-4.8 4.3-2.2c1.3-.7 2.7-1.3 4.1-1.8 1.3-.3 2.7-.5 4.1-.4 1.2.1 2.4.3 3.6.6 1.9.6 3.6 1.6 5 3 .5.5 1 1 1.4 1.6.4.5.7.9.9 1.3l.4.9c.2 0 .3.1.3.1-.8-1.4-1.9-2.7-3.1-3.8-1.4-1.3-3.1-2.3-5-2.8-2.4-.8-5-.8-7.5-.1-1.4.4-2.8 1-4.1 1.8l-4.3 2.2-9.5 4.8c-1.7.8-3.4 1.7-5 2.8-1.6 1.2-2.9 2.7-3.8 4.5-.9 1.8-1.4 3.8-1.5 5.9-.1 4.3 2 8.3 5.5 10.9 1.7 1.2 3.6 2 5.6 2.3 2 .3 4 .2 5.9-.3 1.8-.6 3.5-1.4 5.2-2.4l9.6-4.8 4.3-2.2c1.3-.6 2.6-1.4 3.8-2.2 1-.8 2-1.8 2.7-2.9.7-1 1.2-2.1 1.6-3.2.6-1.8.9-3.8.7-5.7 0-1.7-.5-3.3-1.1-4.8z"/><path class="st2" d="M252.9 241c-3.3-6.7-11.5-9.4-18.1-6l-18.3 9.2c-6.7 3.3-9.4 11.5-6 18.1 3.3 6.7 11.5 9.4 18.1 6l18.3-9.2c6.7-3.3 9.4-11.4 6-18.1zm-8.7 12.5-18.3 9.2c-3.5 1.9-7.9.6-9.8-2.9-1.9-3.5-.6-7.9 2.9-9.8.1-.1.3-.1.4-.2l18.2-9.2c3.6-1.7 7.9-.1 9.6 3.5 1.6 3.5.3 7.6-3 9.4z"/><path class="st3" d="m245.4 241.4 6-2.8c-.4-.6-.9-1.1-1.5-1.6l-6.1 3.4s1.4.6 1.6 1zM247.9 248.9l6.3-.1c.1-1.2.1-2.5-.1-3.8l-6.1 2.9-.1 1z"/><path class="st9" d="M252.9 241c-3.3-6.7-11.5-9.4-18.1-6l-18.3 9.2c-6.7 3.3-9.4 11.5-6 18.1 3.3 6.7 11.5 9.4 18.1 6l18.3-9.2c6.7-3.3 9.4-11.4 6-18.1zm-8.7 12.5-18.3 9.2c-3.5 1.9-7.9.6-9.8-2.9-1.9-3.5-.6-7.9 2.9-9.8.1-.1.3-.1.4-.2l18.2-9.2c3.6-1.7 7.9-.1 9.6 3.5 1.6 3.5.3 7.6-3 9.4z"/><path class="st6" d="M244.2 253.5c1-.6 1.8-1.3 2.5-2.2.8-1.1 1.2-2.3 1.3-3.6.3-3.9-2.5-7.2-6.4-7.6h-.3c-1.2 0-2.3.2-3.3.7l-3.4 1.7-14.9 7.5c-2.6 1.3-4.1 4-3.8 6.9.4 3.8 3.8 6.6 7.7 6.2.1 0 .3 0 .4-.1 1.1-.3 2.2-.7 3.2-1.3l5.7-2.8 8.3-4.1 2.3-1.1c.1 0 .4-.1.7-.2-.2.2-.5.3-.8.4l-2.2 1.2-8.2 4.2-5.7 2.9c-1 .6-2.2 1.1-3.3 1.3-4 .7-7.9-2-8.6-6 0-.2-.1-.4-.1-.6-.3-3.1 1.3-6 4.1-7.4l15-7.5 3.4-1.7c1.1-.5 2.3-.8 3.5-.7 2.2.1 4.3 1.2 5.6 3 1.1 1.4 1.6 3.2 1.4 5-.1 1.3-.6 2.6-1.4 3.7-.5.7-1.1 1.3-1.9 1.7l-.6.3-.2.2z"/><path class="st6" d="M252.9 241s.1.1.2.3l.4.9c.2.4.3.9.5 1.5.2.7.3 1.4.4 2.1.2 1.9 0 3.9-.6 5.8-.8 2.5-2.3 4.7-4.4 6.3-1.2.9-2.5 1.7-3.9 2.3l-4.3 2.2-9.5 4.8c-1.7 1-3.5 1.8-5.3 2.4-2 .6-4.1.7-6.1.4-2.1-.3-4.1-1.2-5.8-2.4-1.8-1.3-3.2-3-4.2-4.9-1-2-1.5-4.1-1.5-6.3 0-2.1.5-4.2 1.5-6.1.9-1.8 2.3-3.4 3.9-4.7 1.6-1.1 3.3-2 5.1-2.8l9.6-4.8 4.3-2.2c1.3-.7 2.7-1.3 4.1-1.8 1.3-.3 2.7-.5 4.1-.4 1.2.1 2.4.3 3.6.7 1.9.6 3.6 1.6 5 2.9.5.5 1 1 1.5 1.6.4.5.7.9.9 1.3l.5.8c-.1-.1 0 0 0 .1-.8-1.4-1.8-2.7-3-3.8-1.4-1.3-3.2-2.2-5-2.8-1.1-.3-2.3-.5-3.5-.6-1.3 0-2.7.1-4 .5-1.4.4-2.8 1-4.1 1.8l-4.3 2.2-9.6 4.8c-1.7.8-3.4 1.7-5 2.8-3.2 2.5-5.2 6.3-5.2 10.4-.1 4.3 2 8.3 5.5 10.9 1.7 1.2 3.6 2 5.6 2.3 2 .3 4 .2 5.9-.3 1.8-.6 3.5-1.4 5.2-2.4l9.5-4.8 4.3-2.2c1.3-.6 2.6-1.4 3.8-2.2 1-.8 2-1.8 2.7-2.9.7-1 1.2-2.1 1.6-3.2.6-1.8.9-3.8.7-5.7 0-1.7-.4-3.3-1.1-4.8z"/><path class="st2" d="m277.5 234.2-31.3 14.7c-1.8.8-3.8.1-4.7-1.7-.8-1.8-.1-3.9 1.7-4.7l31.3-14.7c1.8-.8 3.9-.1 4.7 1.7.8 1.7 0 3.8-1.7 4.7z"/><path class="st6" d="M277.5 234.2s.3-.1.7-.5c1.4-1.2 1.6-3.4.3-4.8-.3-.3-.6-.6-1-.8-.8-.4-1.6-.5-2.4-.3-.4.1-.9.3-1.3.6l-1.4.6-29.2 13.8c-1.6.8-2.3 2.7-1.6 4.4.5 1 1.5 1.7 2.6 1.9.7.1 1.4-.1 2-.4l2-.9 3.8-1.8 13.2-6.1 8.9-4.1 2.4-1.1.6-.3c.3-.2.4-.2.4-.2l-.2.1-.6.3-2.4 1.2-8.8 4.2-13.1 6.2-3.8 1.8-2 .9c-.7.4-1.5.6-2.2.5-.8-.1-1.6-.4-2.2-.9-1.6-1.4-1.7-3.8-.3-5.3.3-.4.8-.7 1.2-.9l29.3-13.6 1.4-.6c.4-.2.9-.4 1.3-.6 2-.5 3.9.7 4.5 2.6.1.5.1.9.1 1.4-.1.9-.6 1.7-1.3 2.3-.4.1-.6.3-.9.4z"/><path class="st2" d="m218.9 263.1-31.3 14.7c-1.8.8-3.9.1-4.7-1.7-.8-1.8-.1-3.8 1.7-4.7l31.4-14.7c1.8-.8 3.8-.1 4.7 1.7.7 1.8-.1 3.9-1.8 4.7z"/><path class="st6" d="M218.9 263.1c.3-.2.5-.3.7-.5.7-.6 1.1-1.4 1.2-2.3.2-1.9-1.2-3.5-3-3.7-.4 0-.8 0-1.2.1-.4.2-.9.3-1.3.5l-1.4.6-29.2 13.8c-1.6.8-2.3 2.7-1.6 4.3.5 1.1 1.5 1.8 2.7 1.9.7.1 1.4-.1 2-.4l2-.9 3.8-1.8 13.2-6.1 8.9-4.1 2.4-1.1.6-.3h.2c0 .1-.1.1-.2.1l-.6.3-2.4 1.2-8.8 4.2-13.1 6.2-3.8 1.8-2 .9c-.7.4-1.5.6-2.3.5-.8-.1-1.6-.4-2.2-.9-.6-.6-1-1.3-1.2-2.1-.3-1.7.5-3.4 2.1-4.1l29.2-13.6 1.4-.6c.4-.2.9-.4 1.4-.5.9-.2 1.8-.1 2.7.3 1.3.7 2.1 2.2 1.9 3.6-.1.9-.6 1.7-1.3 2.3-.3.2-.6.3-.8.4z"/><path class="st2" d="m160.4 290.6-31.3 14.7c-1.8.8-3.8.1-4.7-1.7-.8-1.8-.1-3.8 1.7-4.7l31.3-14.7c1.8-.8 3.9-.1 4.7 1.7.8 1.8.1 3.9-1.7 4.7z"/><path class="st6" d="M160.4 290.6s.3-.1.8-.5c.7-.6 1.1-1.4 1.2-2.3.1-1.4-.6-2.7-1.8-3.4-.7-.4-1.6-.5-2.4-.3-.4.1-.9.3-1.3.5l-1.4.6-29.2 13.8c-1.6.8-2.3 2.7-1.6 4.4.5 1 1.5 1.7 2.6 1.9.7.1 1.4-.1 2-.4l2-.9 3.8-1.8 13.2-6.1 8.9-4.1 2.4-1.1.6-.3h.2l-.2.1-.6.3-2.4 1.2-8.8 4.2-13.1 6.2-3.8 1.8-2 .9c-.7.4-1.5.6-2.2.5-2.1-.2-3.6-2-3.4-4.1.1-1.3.9-2.5 2.2-3.1l29.2-13.6 1.4-.6c.4-.2.9-.4 1.4-.6.9-.2 1.8-.1 2.7.3 1.3.7 2.1 2.2 1.9 3.6-.1.9-.6 1.7-1.3 2.3-.4.4-.7.5-1 .6z"/><path class="st4" d="M267.9 249.1c-4.3-6-12.6-7.4-18.6-3.1l-25.4 18.1-3.3-4.7 25.4-18.1c8.6-6.1 20.5-4.1 26.6 4.5"/><path d="M267.9 249.1c-4.3-6-12.6-7.4-18.6-3.1l-25.4 18.1-3.3-4.7 25.4-18.1c8.6-6.1 20.5-4.1 26.6 4.5" class="st10"/><path class="st4" d="m205.8 261.8 17.5-12.5c2.6-1.8 6.2-1.2 8 1.4l23.1 32.5c1.8 2.6 1.2 6.2-1.4 8l-17.5 12.5c-2.6 1.8-6.2 1.2-8-1.4l-23.1-32.5c-1.8-2.6-1.2-6.2 1.4-8z"/><path class="st6" d="M227.6 302.2c.4.4.7.8 1.1 1.1 1.2.9 2.8 1.3 4.3 1.1.5-.1 1-.2 1.5-.4l1.5-.9 3.2-2.3 7.9-5.6 4.6-3.3c.8-.5 1.6-1.1 2.3-1.9.7-.8 1.1-1.7 1.2-2.7.2-1 0-2.1-.4-3-.5-1-1.1-1.9-1.8-2.7-1.3-1.8-2.7-3.7-4-5.6l-17.9-25.2c-.8-1.1-1.9-1.8-3.2-2.1-1.3-.3-2.6-.2-3.7.4-.6.3-1.1.7-1.6 1.1l-1.6 1.1-3.2 2.3-12.1 8.6c-1.8 1.5-2.4 3.8-1.7 6 .4 1 1 1.9 1.7 2.8l1.9 2.6c2.4 3.4 4.7 6.7 6.8 9.6l9.8 13.9 2.6 3.8.7 1c-.1.1 0 .2.1.3l-.3-.3-.7-1-2.6-3.7-9.9-13.8-6.8-9.6-1.9-2.6c-.3-.4-.6-.9-1-1.3-.3-.5-.6-1-.8-1.5-.8-2.3-.1-4.9 1.8-6.5 3.9-2.8 7.9-5.7 12.1-8.7l3.2-2.3 1.6-1.1c.5-.4 1.1-.8 1.7-1.1 1.3-.6 2.7-.8 4.1-.5 1.4.3 2.6 1.2 3.5 2.4 6.4 8.9 12.4 17.4 17.9 25.2l4 5.7 1 1.4c.3.5.6.9.9 1.5.8 2.1.5 4.5-1 6.2-.7.7-1.5 1.4-2.4 1.9l-4.6 3.2-7.9 5.6-3.2 2.3c-.5.4-1 .7-1.5.9-.5.2-1 .4-1.6.4-1.6.2-3.2-.3-4.4-1.2-.6-.6-.9-1-1.2-1.5z"/><path d="M235.5 277.4c1.9-1.4 2.4-4 1-6-1.4-1.9-4-2.4-6-1-1.6 1.1-2.2 3.1-1.6 4.9l-5.2 3.7 1.4 1.9 5.2-3.7c1.5 1.3 3.6 1.4 5.2.2z" style="opacity:.5"/><path class="st8" d="M205.3 265.5c-.1-.1 4.4-3.4 9.9-7.3s10.1-7 10.1-6.9-4.4 3.4-9.9 7.3-10 7-10.1 6.9zM226.5 274.4c-.1-.2-.1-.4-.1-.6 0-.5.1-1.1.3-1.6 1-3.2 4.3-4.9 7.5-4 .4.1.7.3 1.1.5.5.2.9.6 1.3.9.3.3.4.4.4.5-.6-.4-1.2-.8-1.8-1.1-3-1.4-6.6-.1-8 2.9-.1.1-.1.3-.2.5-.2.6-.4 1.3-.5 2z"/><path class="st2" d="m292.9 389 6.4 18.7c2.4 6.9 9.9 10.6 16.8 8.2 6.9-2.4 10.6-9.9 8.3-16.8l-6.5-19.1c-2.4-6.9-9.9-10.6-16.8-8.2-.5.2-.9.4-1.4.6-6.1 3.1-9 10.2-6.8 16.6zm11.1-11.6c3.5-.6 6.9 1.5 8 4.9l6.3 18.4c1.2 3.4-.3 7.2-3.5 8.9-3.5 1.7-7.8.2-9.5-3.3-.1-.3-.2-.5-.3-.8l-6.5-18.9c-1.3-3.7.7-7.7 4.4-9 .5 0 .8-.1 1.1-.2z"/><path class="st3" d="m306.1 377.3-2.3-6c.7-.1 1.4-.1 2.1-.1l2 6.6s-1.4-.7-1.8-.5zM299.2 380.9l-4.4-4.4c.8-.9 1.7-1.8 2.6-2.6l2.3 6.2-.5.8z"/><path class="st9" d="m292.9 389 6.4 18.7c2.4 6.9 9.9 10.6 16.8 8.2 6.9-2.4 10.6-9.9 8.3-16.8l-6.5-19.1c-2.4-6.9-9.9-10.6-16.8-8.2-.5.2-.9.4-1.4.6-6.1 3.1-9 10.2-6.8 16.6zm11.1-11.6c3.5-.6 6.9 1.5 8 4.9l6.3 18.4c1.2 3.4-.3 7.2-3.5 8.9-3.5 1.7-7.8.2-9.5-3.3-.1-.3-.2-.5-.3-.8l-6.5-18.9c-1.3-3.7.7-7.7 4.4-9 .5 0 .8-.1 1.1-.2z"/><path class="st6" d="M304.1 377.4c-1.1.3-2.1.8-2.9 1.4-1 .8-1.8 1.8-2.2 3-.6 1.6-.6 3.3 0 4.9 1.3 3.6 2.7 7.9 4.4 12.6l1.3 3.7c.4 1.3.9 2.5 1.4 3.7 1.5 2.4 4.2 3.7 7 3.2 1.4-.2 2.6-.9 3.6-1.9.9-1 1.6-2.2 1.8-3.5.6-2.7-.9-5.1-1.5-7.5-1.6-4.8-3.1-9.1-4.3-12.7-.3-.9-.6-1.8-.9-2.5-.3-.7-.7-1.4-1.3-2-.8-1-1.9-1.7-3.1-2.1-.8-.3-1.6-.4-2.4-.3-.3-.1-.6-.1-.9 0 .1-.1.1-.1.2-.1.2 0 .4-.1.6-.1.8-.1 1.7 0 2.5.3 1.3.4 2.4 1.1 3.3 2.1.6.6 1 1.3 1.4 2.1.3.8.6 1.7.9 2.6 1.3 3.6 2.7 7.9 4.4 12.6l1.3 3.7c.5 1.3.6 2.7.3 4.1-.3 1.4-.9 2.8-2 3.8-1.1 1.1-2.4 1.8-3.9 2-3 .5-6-.8-7.5-3.4-.3-.6-.6-1.2-.8-1.9-.2-.6-.4-1.3-.7-1.9-.4-1.2-.8-2.5-1.2-3.7-1.6-4.8-3.1-9.1-4.3-12.7-1.1-3-.1-6.3 2.5-8.2.7-.5 1.4-.9 2.2-1.1.3-.1.5-.1.6-.1l.2-.1z"/><path class="st6" d="M292.9 389c-.1-.1-.1-.2-.1-.3l-.3-.9c-.3-1.2-.4-2.4-.4-3.6 0-1.9.4-3.8 1.2-5.6.5-1.1 1.1-2.1 1.9-3 .9-1 1.9-1.9 3-2.6 1.3-.8 2.6-1.3 4.1-1.7 1.6-.4 3.2-.4 4.8-.2 3.6.5 6.8 2.3 9 5.2l.8 1.2.7 1.3c.2.5.4.9.5 1.4s.3.9.5 1.4l1.9 5.6c1.3 3.8 2.7 7.7 4 11.8 2.6 7-1 14.7-8 17.3-6.1 2.2-12.9-.2-16.2-5.8-.7-1.3-1.3-2.7-1.7-4.1-1.8-5.3-3.2-9.5-4.2-12.5-.5-1.5-.9-2.6-1.1-3.4l-.3-.9c-.1-.3-.1-.4-.1-.6 0 .1.1.2.1.3l.3.9c.3.8.7 1.9 1.2 3.4l4.4 12.5c.4 1.4 1 2.7 1.7 4 3.5 6.3 11.4 8.6 17.7 5.1 5.7-3.2 8.2-10.1 5.8-16.2l-4-11.8c-.7-1.9-1.3-3.8-1.9-5.6l-.5-1.4c-.2-.4-.4-.9-.5-1.3s-.4-.8-.6-1.2l-.8-1.1c-2.1-2.8-5.2-4.6-8.7-5.1-1.5-.2-3.1-.1-4.6.2-1.4.3-2.8.9-4 1.6-1.1.7-2.1 1.5-3 2.5-.8.9-1.4 1.9-1.9 2.9-.8 1.7-1.3 3.6-1.3 5.5-.1 1.7.2 3.3.6 4.8z"/><path class="st2" d="m310 409.7 11.2 32c.6 1.8 2.6 2.7 4.4 2.1 1.8-.6 2.7-2.6 2.1-4.4l-11.2-32c-.6-1.8-2.6-2.7-4.4-2.1-1.7.7-2.7 2.6-2.1 4.4z"/><path class="st6" d="M310 409.7c-.1-.3-.2-.6-.2-.9-.1-.9.2-1.8.7-2.5 1.2-1.5 3.5-1.8 5-.6.4.3.6.6.9 1 .2.4.4.9.5 1.3.2.5.3.9.5 1.4 2.7 7.7 6.4 18.2 10.5 29.8.7 1.9-.4 4-2.3 4.7-1.2.4-2.6.2-3.6-.7-.6-.5-1-1.2-1.2-1.9-.2-.7-.5-1.3-.7-2l-1.4-3.9c-1.7-5-3.3-9.6-4.6-13.4s-2.3-6.9-3.1-9.1l-.8-2.5-.2-.6c.1 0 .1-.1 0-.1.1 0 .1.1.1.2l.2.6.9 2.5c.8 2.2 1.9 5.2 3.2 9s3 8.4 4.8 13.4c.4 1.3.9 2.5 1.4 3.9l.7 2c.2.7.5 1.2 1.1 1.7 1.3 1.1 3.4 1 4.5-.4.7-.9.9-2 .6-3.1l-10.4-29.9c-.2-.5-.3-.9-.5-1.4-.1-.4-.3-.9-.5-1.3-.9-1.6-2.9-2.2-4.5-1.3-.4.2-.7.5-.9.8-.6.7-.8 1.5-.8 2.4.1.3.1.6.1.9z"/><path class="st2" d="m228.6 208.2 6.5 19c2.3 6.9 9.9 10.7 16.8 8.3 6.9-2.4 10.6-9.9 8.2-16.8l-6.5-19.1c-2.5-6.9-10.1-10.4-17-7.9-6.6 2.5-10.2 9.8-8 16.5zm10.2-11c3.7-1.3 7.7.7 9 4.3v.1l6.5 18.9c1.4 3.6-.4 7.7-4.1 9.1s-7.7-.4-9.1-4.1c-.1-.2-.1-.3-.2-.5l-6.5-18.9c-1.2-3.6.7-7.6 4.4-8.9z"/><path class="st3" d="m241.8 196.8-2.3-6.1c.7-.1 1.4-.1 2.1-.1l2 6.6c.1.1-1.3-.6-1.8-.4zM234.9 200.4l-4.4-4.5c.8-.9 1.7-1.8 2.6-2.6l2.3 6.2-.5.9z"/><path class="st9" d="m228.6 208.2 6.5 19c2.3 6.9 9.9 10.7 16.8 8.3 6.9-2.4 10.6-9.9 8.2-16.8l-6.5-19.1c-2.5-6.9-10.1-10.4-17-7.9-6.6 2.5-10.2 9.8-8 16.5zm10.2-11c3.7-1.3 7.7.7 9 4.3v.1l6.5 18.9c1.4 3.6-.4 7.7-4.1 9.1s-7.7-.4-9.1-4.1c-.1-.2-.1-.3-.2-.5l-6.5-18.9c-1.2-3.6.7-7.6 4.4-8.9z"/><path class="st6" d="M238.8 197.2c-1 .4-1.9 1.1-2.7 1.8-.9.9-1.5 2.1-1.8 3.3-.2.8-.2 1.6-.1 2.4.2.9.4 1.7.7 2.6 1.2 3.6 2.7 7.9 4.4 12.7l1.3 3.7c.2.6.4 1.3.7 1.9.3.6.6 1.2 1 1.7 2.4 2.9 6.7 3.2 9.6.8 1.4-1.2 2.3-3 2.4-4.9 0-.7 0-1.3-.2-1.9-.2-.6-.4-1.3-.6-1.9-.4-1.2-.8-2.5-1.2-3.7L248 203c-.3-.9-.6-1.7-1-2.5-.4-.7-.9-1.3-1.5-1.8-1-.8-2.2-1.4-3.4-1.6-1.2-.3-2.3-.2-3.3.1l.1-.1c.2-.1.4-.1.6-.2.8-.2 1.6-.2 2.5-.1 1.3.2 2.6.7 3.6 1.5.6.5 1.2 1.1 1.6 1.9.4.8.8 1.7 1 2.6 1.2 3.6 2.7 7.9 4.4 12.7l1.3 3.7c.2.6.5 1.2.6 1.9 1 3.9-1.3 7.9-5.2 8.9-1.3.3-2.6.3-3.9-.1-1.4-.4-2.6-1.2-3.6-2.3-.5-.5-.8-1.1-1.1-1.8-.3-.7-.4-1.3-.7-1.9l-1.2-3.7-4.3-12.7c-.3-.9-.6-1.7-.7-2.7-.3-2.2.5-4.3 2-5.9.6-.6 1.3-1.1 2-1.4.2-.1.4-.2.6-.2l.4-.1z"/><path class="st6" d="M228.6 208.2c0-.1-.1-.2-.1-.3-.1-.2-.2-.5-.3-.9-.3-1.2-.4-2.4-.4-3.6 0-1.9.5-3.8 1.4-5.5.5-1.1 1.2-2.1 2-3 .9-1 2-1.9 3.1-2.6 6-3.6 13.7-2 17.8 3.7.5.8 1 1.6 1.4 2.5.4.9.7 1.8 1 2.7.6 1.8 1.3 3.7 1.9 5.6 1.3 3.8 2.6 7.7 4 11.8.7 2 .9 4.2.6 6.4-1.1 7.4-8 12.4-15.3 11.3-2.5-.4-4.8-1.4-6.7-3-1.2-1.1-2.2-2.3-3-3.7-.7-1.3-1.2-2.7-1.6-4.1-1.8-5.3-3.2-9.6-4.2-12.6-.5-1.5-.9-2.6-1.1-3.4l-.3-.9c-.1-.2-.2-.3-.2-.4.1.1.1.2.2.3l.3.9c.3.8.7 1.9 1.2 3.4l4.4 12.5c.4 1.4 1 2.7 1.6 4 3.5 6.3 11.4 8.6 17.7 5.1 1.7-1 3.2-2.3 4.4-4 1.2-1.6 1.9-3.5 2.2-5.5.3-2.1.1-4.1-.5-6.1-1.4-4-2.7-8-4-11.8-.6-1.9-1.3-3.8-1.9-5.6-.3-.9-.6-1.8-1-2.7-.4-.8-.8-1.6-1.4-2.4-2-2.8-5.1-4.7-8.5-5.3-3-.5-6.1.1-8.7 1.6-2.1 1.3-3.9 3.1-5 5.4-.9 1.7-1.3 3.5-1.4 5.4-.2 1.6 0 3.3.4 4.8z"/><path class="st2" d="m207.4 147.7 6.5 19c2.4 6.9 9.9 10.6 16.8 8.3 6.9-2.4 10.6-9.9 8.2-16.8l-6.5-19c-2.5-6.9-10.1-10.4-17-7.9-6.6 2.5-10.2 9.7-8 16.4zm10.2-11c3.7-1.3 7.7.7 9 4.3v.1l6.5 18.9c1.3 3.7-.7 7.7-4.4 9-3.7 1.3-7.7-.7-9-4.4l-6.5-18.9c-1.2-3.7.7-7.7 4.4-9z"/><path class="st3" d="m220.6 136.3-2.3-6c.7-.1 1.4-.1 2.1-.1l2 6.6c.1 0-1.3-.7-1.8-.5zM213.7 139.9l-4.4-4.4c.8-.9 1.7-1.8 2.6-2.6l2.3 6.2-.5.8z"/><path class="st9" d="m207.4 147.7 6.5 19c2.4 6.9 9.9 10.6 16.8 8.3 6.9-2.4 10.6-9.9 8.2-16.8l-6.5-19c-2.5-6.9-10.1-10.4-17-7.9-6.6 2.5-10.2 9.7-8 16.4zm10.2-11c3.7-1.3 7.7.7 9 4.3v.1l6.5 18.9c1.3 3.7-.7 7.7-4.4 9-3.7 1.3-7.7-.7-9-4.4l-6.5-18.9c-1.2-3.7.7-7.7 4.4-9z"/><path class="st6" d="M217.6 136.7c-1 .4-1.9 1.1-2.7 1.8-1.4 1.5-2.1 3.6-1.9 5.7.2.9.4 1.7.8 2.6 1.2 3.6 2.7 7.9 4.4 12.7l1.3 3.7c.2.6.4 1.3.7 1.9.3.6.6 1.2 1 1.7 2.4 2.9 6.7 3.2 9.6.8 1.4-1.2 2.3-3 2.4-4.9 0-.7 0-1.3-.2-1.9-.2-.6-.4-1.3-.6-1.9-.4-1.2-.8-2.5-1.2-3.7-1.6-4.8-3.1-9.1-4.3-12.7-.2-.9-.6-1.7-1-2.5-1.1-1.8-2.9-3.1-5-3.4-1.2-.3-2.3-.2-3.3.1-.1 0 0 0 .1-.1s.3-.1.6-.2c.8-.2 1.6-.2 2.5-.1 1.3.2 2.6.7 3.6 1.5.6.5 1.2 1.1 1.6 1.9.4.8.7 1.7 1 2.6 1.2 3.6 2.7 7.9 4.4 12.7l1.3 3.7c.2.6.4 1.2.6 1.9.2.7.3 1.4.2 2.1-.1 1.4-.5 2.8-1.4 4-2.4 3.3-6.9 4-10.2 1.6-.5-.4-.9-.8-1.3-1.2-.4-.5-.8-1.1-1.1-1.8-.3-.6-.4-1.3-.7-1.9-.4-1.2-.8-2.5-1.2-3.7-1.6-4.8-3.1-9.1-4.3-12.7-.3-.9-.6-1.8-.7-2.7-.3-2.2.5-4.3 2-5.9.6-.6 1.3-1.1 2-1.4.2-.1.4-.2.6-.2l.4-.1z"/><path class="st6" d="M207.4 147.7c-.1-.1-.1-.2-.1-.3-.1-.2-.2-.5-.3-.9-.3-1.2-.4-2.4-.4-3.6.1-1.9.5-3.8 1.4-5.5.5-1.1 1.2-2.1 2-3 .9-1 2-1.9 3.1-2.6 6-3.6 13.7-2 17.8 3.7.5.8 1 1.6 1.4 2.5.4.9.7 1.8 1 2.7l1.9 5.6c1.3 3.8 2.7 7.7 4 11.8.7 2 .9 4.2.6 6.4-1.1 7.4-7.9 12.4-15.3 11.4-4.2-.6-7.8-3.1-9.8-6.8-.7-1.3-1.2-2.7-1.6-4.1-1.8-5.3-3.2-9.6-4.2-12.6-.5-1.5-.9-2.6-1.1-3.4l-.3-.9c-.1-.2-.1-.3-.1-.4 0 .1.1.2.1.3l.3.9c.3.8.7 1.9 1.2 3.4l4.4 12.5c.4 1.4 1 2.7 1.6 4 .8 1.4 1.8 2.6 3 3.6 5.5 4.7 13.7 4 18.3-1.5 1.6-1.9 2.6-4.1 3-6.5.3-2.1.1-4.1-.6-6.1-1.4-4-2.7-8-4-11.8-.6-1.9-1.3-3.8-1.9-5.6-.3-.9-.6-1.8-1-2.7-.4-.8-.8-1.6-1.4-2.4-3.9-5.5-11.4-7.1-17.2-3.6-1.1.7-2.1 1.5-3 2.5-.8.9-1.4 1.8-2 2.9-.9 1.7-1.3 3.5-1.4 5.4 0 1.5.1 3.2.6 4.7z"/><path class="st2" d="m188.5 93.7 6.5 19.1c2.4 6.9 9.9 10.6 16.8 8.2 6.9-2.4 10.6-9.9 8.2-16.8l-6.5-19.1c-2.5-6.9-10.1-10.4-17-7.9-6.6 2.5-10.2 9.7-8 16.5zm10.2-11c3.7-1.3 7.7.7 9 4.4l6.5 18.9c1.3 3.7-.7 7.7-4.4 9s-7.7-.7-9-4.4l-6.5-18.9c-1.2-3.7.7-7.7 4.4-9z"/><path class="st3" d="m201.8 82.3-2.3-6.1c.7-.1 1.4-.1 2.1-.1l2 6.6c0 .1-1.4-.6-1.8-.4zM194.8 85.9l-4.4-4.4c.8-.9 1.7-1.8 2.6-2.6l2.3 6.2-.5.8z"/><path class="st9" d="m188.5 93.7 6.5 19.1c2.4 6.9 9.9 10.6 16.8 8.2 6.9-2.4 10.6-9.9 8.2-16.8l-6.5-19.1c-2.5-6.9-10.1-10.4-17-7.9-6.6 2.5-10.2 9.7-8 16.5zm10.2-11c3.7-1.3 7.7.7 9 4.4l6.5 18.9c1.3 3.7-.7 7.7-4.4 9s-7.7-.7-9-4.4l-6.5-18.9c-1.2-3.7.7-7.7 4.4-9z"/><path class="st6" d="M198.7 82.7c-1 .4-1.9 1.1-2.7 1.8-.9.9-1.5 2.1-1.8 3.3-.2.8-.2 1.6-.1 2.4.2.9.4 1.7.7 2.6 1.2 3.6 2.7 7.9 4.4 12.7l1.3 3.7c.2.6.4 1.3.7 1.9.3.6.6 1.2 1 1.7 2.4 2.9 6.7 3.2 9.6.8 1.4-1.2 2.3-3 2.4-4.9 0-.7 0-1.3-.2-2-.2-.6-.4-1.3-.6-1.9-.4-1.2-.8-2.5-1.2-3.7-1.6-4.8-3.1-9.1-4.3-12.7-.2-.9-.6-1.7-1-2.5-.4-.7-.9-1.3-1.5-1.8-1-.8-2.2-1.4-3.4-1.6-1.2-.2-2.3-.2-3.3.2-.1-.1 0-.1.1-.1.2-.1.4-.1.6-.2.8-.2 1.6-.2 2.5-.1 1.3.2 2.6.7 3.6 1.5.6.5 1.2 1.2 1.6 1.9.4.8.8 1.7 1.1 2.5 1.2 3.6 2.7 7.9 4.4 12.7l1.3 3.7c.2.6.4 1.2.6 1.9.2.7.3 1.4.2 2.1-.1 4-3.5 7.2-7.6 7-.6 0-1.2-.1-1.8-.3-2.1-.6-3.8-2.1-4.7-4.1-.3-.6-.4-1.3-.7-1.9-.4-1.2-.8-2.5-1.2-3.7L194.5 93c-.3-.9-.6-1.7-.7-2.7-.1-.8 0-1.7.1-2.5.3-1.3 1-2.5 1.9-3.4.6-.6 1.3-1.1 2-1.4.2-.1.4-.2.6-.2l.3-.1z"/><path class="st6" d="M188.5 93.7s0-.1-.1-.3-.2-.5-.3-.9c-.3-1.2-.4-2.4-.4-3.6 0-1.9.5-3.8 1.4-5.5.5-1.1 1.2-2.1 2-3 .9-1 2-1.9 3.1-2.6 6-3.6 13.7-2 17.8 3.7.5.8 1 1.6 1.4 2.5.4.9.7 1.8 1 2.7.6 1.8 1.3 3.7 1.9 5.6l4 11.8c.7 2 .9 4.2.6 6.4-1.1 7.4-8 12.4-15.3 11.3-4.1-.6-7.8-3.1-9.8-6.8-.7-1.3-1.2-2.7-1.6-4.1-1.8-5.3-3.2-9.6-4.2-12.5-.5-1.5-.9-2.6-1.1-3.4l-.3-.9c-.1-.2-.1-.3-.1-.4 0 .1.1.2.1.3l.3.9c.3.8.7 2 1.2 3.4l4.4 12.5c.4 1.4 1 2.7 1.6 4 3.5 6.3 11.4 8.6 17.7 5.1 3.6-2 6-5.5 6.6-9.5.3-2.1.1-4.1-.6-6.1-1.4-4-2.7-8-4-11.8-.7-1.9-1.3-3.8-1.9-5.6-.3-.9-.6-1.8-1-2.7-.4-.8-.8-1.6-1.4-2.4-2-2.8-5.1-4.7-8.5-5.3-3-.5-6.1.1-8.7 1.6-2.1 1.3-3.9 3.1-5 5.3-.9 1.7-1.3 3.5-1.4 5.4-.1 1.7.1 3.3.6 4.9z"/><path class="st2" d="M184.2 55.2 196.1 87c.7 1.8 2.7 2.7 4.4 2 1.8-.7 2.7-2.7 2-4.4l-11.9-31.7c-.7-1.8-2.7-2.7-4.4-2-1.7.6-2.6 2.6-2 4.3z"/><path class="st6" d="M184.2 55.2c-.1-.3-.2-.6-.2-.9-.1-.9.1-1.8.7-2.5 1.2-1.6 3.4-1.9 5-.7.4.3.7.6.9 1 .2.4.4.9.6 1.3l.5 1.4 11.2 29.6c.6 1.6 0 3.4-1.4 4.3-.7.5-1.5.7-2.3.7-.8 0-1.6-.3-2.2-.8-.6-.5-1-1.1-1.2-1.9-.2-.7-.5-1.3-.7-2-.5-1.3-1-2.6-1.4-3.8-1.9-5-3.5-9.5-4.9-13.3l-3.3-9c-.4-1-.7-1.8-.9-2.4l-.2-.7c-.1-.1-.2-.2-.2-.3 0 0 0 .1.1.2l.3.6.9 2.4 3.4 9 5 13.3c.5 1.3.9 2.5 1.4 3.8.2.7.5 1.3.8 2 .2.7.6 1.2 1.1 1.7 1.4 1.1 3.4.9 4.5-.5.7-.9.9-2 .5-3.1-4.3-11.6-8.2-22-11-29.7-.2-.5-.4-.9-.5-1.4-.1-.4-.3-.9-.5-1.3-.9-1.6-3-2.1-4.6-1.1-.3.2-.6.5-.9.8-.5.7-.8 1.5-.7 2.4.1.6.3.9.2.9z"/><path class="st2" d="m224.3 169.7 11.9 31.8c.7 1.8 2.7 2.7 4.4 2 1.8-.7 2.7-2.7 2-4.4l-11.9-31.8c-.7-1.8-2.7-2.7-4.4-2-1.8.7-2.6 2.7-2 4.4z"/><path class="st6" d="M224.3 169.7c-.1-.3-.2-.6-.2-.9-.1-.9.1-1.8.7-2.5 1.2-1.6 3.5-1.9 5-.7.4.3.6.6.9 1 .2.4.4.9.6 1.3l.5 1.4 11.2 29.6c.7 1.9-.3 4.1-2.2 4.8-.5.2-.9.2-1.4.2-.8 0-1.6-.3-2.2-.8-.6-.5-1-1.2-1.2-1.9-.2-.7-.5-1.3-.7-2-.5-1.3-1-2.6-1.4-3.9L229 182l-3.3-9-.9-2.5c-.1-.3-.2-.5-.2-.6-.2 0-.3-.1-.3-.2.1.1.1.1.1.2l.3.6c.2.6.6 1.4 1 2.4.8 2.2 2 5.2 3.4 9s3.1 8.3 5 13.3l1.4 3.9.8 2c.2.7.6 1.2 1.1 1.7 1.4 1.1 3.4.9 4.5-.5.7-.9.9-2 .5-3.1-4.3-11.6-8.2-22-11-29.6l-.5-1.4c-.1-.4-.3-.9-.5-1.3-.4-.7-1.1-1.3-1.9-1.5-1.3-.4-2.7.1-3.6 1.1-.5.7-.8 1.5-.7 2.4 0 .5.2.8.1.8z"/><path class="st2" d="m271.9 327 6.4 18.7c2.4 6.9 9.9 10.6 16.8 8.2 6.9-2.4 10.6-9.9 8.3-16.8l-6.5-19c-2.4-6.9-9.9-10.6-16.8-8.2-.5.2-.9.4-1.4.6-6.2 2.9-9.1 10-6.8 16.5zm11.1-11.7c3.5-.6 6.9 1.5 8 4.9l6.3 18.4c1.2 3.4-.3 7.2-3.5 8.9-3.5 1.7-7.8.2-9.5-3.3-.1-.3-.2-.5-.3-.8l-6.5-18.9c-1.3-3.7.7-7.7 4.4-9 .4 0 .8-.1 1.1-.2z"/><path class="st3" d="m285 315.2-2.3-6c.7-.1 1.4-.1 2.1-.1l2 6.6c.1 0-1.3-.7-1.8-.5zM278.1 318.8l-4.4-4.4c.8-.9 1.7-1.8 2.6-2.6l2.3 6.2-.5.8z"/><path class="st9" d="m271.9 327 6.4 18.7c2.4 6.9 9.9 10.6 16.8 8.2 6.9-2.4 10.6-9.9 8.3-16.8l-6.5-19c-2.4-6.9-9.9-10.6-16.8-8.2-.5.2-.9.4-1.4.6-6.2 2.9-9.1 10-6.8 16.5zm11.1-11.7c3.5-.6 6.9 1.5 8 4.9l6.3 18.4c1.2 3.4-.3 7.2-3.5 8.9-3.5 1.7-7.8.2-9.5-3.3-.1-.3-.2-.5-.3-.8l-6.5-18.9c-1.3-3.7.7-7.7 4.4-9 .4 0 .8-.1 1.1-.2z"/><path class="st6" d="M283 315.3c-1.1.3-2 .8-2.9 1.4-1 .8-1.8 1.8-2.2 3-.6 1.6-.6 3.3 0 4.9 1.3 3.6 2.7 7.9 4.4 12.6l1.3 3.7c.4 1.3.9 2.5 1.4 3.7 1.5 2.4 4.2 3.7 7 3.2 1.4-.2 2.6-.9 3.6-1.9.9-1 1.6-2.2 1.8-3.5.6-2.7-.8-5.1-1.5-7.5-1.6-4.8-3.1-9.1-4.3-12.7-.3-.9-.6-1.8-.9-2.5-.3-.7-.7-1.4-1.3-2-.8-1-1.9-1.7-3.1-2.1-.8-.3-1.6-.4-2.4-.3h-.9l.2-.1c.2 0 .4-.1.6-.1.8-.1 1.7 0 2.5.3 1.3.4 2.4 1.1 3.3 2.1.6.6 1 1.3 1.4 2.1.3.8.6 1.7.9 2.6 1.3 3.6 2.7 7.9 4.4 12.6l1.3 3.7c.5 1.3.6 2.7.3 4.1-.3 1.4-1 2.8-2 3.8-1.1 1.1-2.4 1.8-3.9 2-3 .5-6-.8-7.5-3.4-.3-.6-.6-1.2-.8-1.9-.2-.6-.4-1.3-.6-1.9-.4-1.2-.8-2.5-1.2-3.7-1.6-4.8-3.1-9.1-4.3-12.7-.6-1.7-.6-3.5.1-5.1.5-1.2 1.3-2.3 2.4-3.1.7-.5 1.4-.9 2.2-1.1.3-.1.5-.1.6-.1l.1-.1z"/><path class="st6" d="M271.9 327s0-.1-.1-.3-.2-.5-.3-.9c-.3-1.2-.4-2.4-.4-3.6 0-1.9.4-3.8 1.2-5.6.5-1.1 1.1-2.1 1.9-3 .9-1 1.9-1.9 3-2.6 1.3-.8 2.6-1.3 4.1-1.7 1.6-.4 3.2-.4 4.8-.2 3.6.5 6.8 2.3 9 5.2l.8 1.2.7 1.3c.2.5.4.9.5 1.4s.3.9.5 1.4l1.9 5.6c1.3 3.8 2.6 7.7 4 11.8 2.6 7-1 14.7-8 17.3-6.1 2.2-12.9-.2-16.2-5.8-.7-1.3-1.2-2.7-1.7-4.1l-4.2-12.5c-.5-1.5-.8-2.6-1.1-3.4-.1-.4-.2-.7-.3-.9-.1-.4-.1-.5-.1-.6 0 .1.1.2.1.3l.3.9c.3.8.7 1.9 1.2 3.4l4.4 12.5c.4 1.4 1 2.7 1.7 4 3.5 6.3 11.4 8.5 17.7 5 5.7-3.2 8.2-10.1 5.8-16.1-1.4-4-2.7-8-4-11.8-.7-1.9-1.3-3.8-1.9-5.6-.1-.5-.3-.9-.5-1.4-.2-.4-.4-.9-.5-1.3s-.4-.8-.6-1.2l-.8-1.1c-2.1-2.8-5.2-4.6-8.7-5.1-1.5-.2-3.1-.1-4.6.2-1.4.3-2.8.9-4 1.6-1.1.7-2.1 1.5-3 2.5-.8.9-1.4 1.9-1.9 2.9-.8 1.7-1.3 3.6-1.3 5.5-.1 1.6.2 3.2.6 4.8z"/><path class="st2" d="m287.8 346 11.2 32c.6 1.8 2.6 2.7 4.4 2.1 1.8-.6 2.7-2.6 2.1-4.4l-11.2-32c-.6-1.8-2.6-2.7-4.4-2.1-1.8.7-2.8 2.6-2.1 4.4z"/><path class="st6" d="M287.8 346c-.1-.3-.2-.6-.2-.9-.1-.9.2-1.8.7-2.5 1.2-1.5 3.5-1.8 5-.6.4.3.6.6.9 1 .2.4.4.9.5 1.3l.5 1.4c2.7 7.7 6.4 18.2 10.5 29.8.7 1.9-.3 4-2.3 4.7-.5.2-1 .2-1.5.2-.8-.1-1.5-.4-2.1-.9-.6-.5-1-1.2-1.2-1.9-.2-.7-.5-1.3-.7-2l-1.3-3.9c-1.8-5-3.3-9.6-4.6-13.4s-2.3-6.9-3.1-9.1c-.3-1-.6-1.9-.8-2.5-.1-.3-.1-.5-.2-.6-.1.1-.1 0-.1-.1 0 .1.1.1.1.2l.2.6.9 2.5 3.2 9c1.4 3.8 3 8.4 4.8 13.4.4 1.3.9 2.5 1.4 3.9.2.7.5 1.3.7 2 .2.7.5 1.3 1.1 1.7 1.4 1.1 3.4.9 4.5-.4.7-.8.9-1.9.6-3-4-11.6-7.7-22.2-10.4-29.9l-.5-1.4c-.1-.4-.3-.9-.5-1.3-.4-.7-1.1-1.3-1.9-1.5-1.3-.4-2.7 0-3.6 1-.5.7-.8 1.5-.8 2.4.1.5.2.8.2.8z"/><path class="st2" d="m250.6 266.1 6.5 19.1c2.4 6.9 9.9 10.6 16.8 8.2 6.9-2.4 10.6-9.9 8.3-16.8l-6.5-19c-2.4-6.9-9.9-10.6-16.8-8.3-7 2.4-10.7 9.9-8.3 16.8zm10.2-11c3.7-1.3 7.7.7 9 4.4l6.5 18.9c1.3 3.7-.7 7.7-4.4 9s-7.7-.7-9-4.4l-6.5-18.9c-1.2-3.7.7-7.7 4.4-9z"/><path class="st3" d="m263.8 254.8-2.3-6c.7-.1 1.4-.1 2.1-.1l2 6.6c.1-.1-1.3-.8-1.8-.5zM256.9 258.3l-4.4-4.4c.8-.9 1.7-1.8 2.6-2.6l2.3 6.2-.5.8z"/><path class="st9" d="m250.6 266.1 6.5 19.1c2.4 6.9 9.9 10.6 16.8 8.2 6.9-2.4 10.6-9.9 8.3-16.8l-6.5-19c-2.4-6.9-9.9-10.6-16.8-8.3-7 2.4-10.7 9.9-8.3 16.8zm10.2-11c3.7-1.3 7.7.7 9 4.4l6.5 18.9c1.3 3.7-.7 7.7-4.4 9s-7.7-.7-9-4.4l-6.5-18.9c-1.2-3.7.7-7.7 4.4-9z"/><path class="st6" d="M260.8 255.1c-1 .4-1.9 1.1-2.7 1.8-1.4 1.5-2.1 3.6-1.9 5.7.2.9.4 1.7.8 2.6 1.2 3.6 2.7 7.9 4.4 12.7l1.3 3.7c.2.6.4 1.3.7 1.9.2.6.6 1.2 1 1.7 2.4 2.9 6.7 3.2 9.6.8 1.4-1.2 2.3-3 2.4-4.9 0-.7 0-1.3-.2-2-.1-.6-.4-1.3-.6-1.9l-1.2-3.7c-1.6-4.8-3.1-9.1-4.3-12.7-.2-.9-.6-1.7-1-2.5-.4-.7-.9-1.3-1.5-1.8-1-.8-2.2-1.4-3.4-1.6-1.3-.1-2.4-.1-3.4.2-.1 0 0 0 .1-.1.2-.1.4-.1.6-.2.8-.2 1.6-.2 2.5-.1 2.2.3 4.1 1.5 5.2 3.4.4.8.8 1.7 1.1 2.5 1.2 3.6 2.7 7.9 4.4 12.7.4 1.2.8 2.4 1.3 3.7.2.6.5 1.2.6 1.9.5 2.1.1 4.4-1.2 6.1-2.4 3.3-6.9 4-10.2 1.6-.5-.4-.9-.8-1.3-1.2-.5-.5-.8-1.1-1.1-1.8-.3-.6-.5-1.3-.7-1.9-.4-1.2-.8-2.5-1.2-3.7-1.6-4.8-3.1-9.1-4.3-12.7-.3-.9-.6-1.7-.7-2.6-.1-.8 0-1.7.2-2.5.5-2.1 1.9-3.9 3.9-4.8.2-.1.4-.2.6-.2.1-.1.2-.1.2-.1z"/><path class="st6" d="M250.6 266.1c0-.1-.1-.2-.1-.3-.1-.2-.2-.5-.3-.9-.3-1.2-.4-2.4-.4-3.6.1-1.9.5-3.8 1.4-5.5.5-1.1 1.2-2.1 2-3 .9-1 2-1.9 3.1-2.6 6-3.6 13.7-2 17.8 3.7.6.8 1 1.6 1.4 2.5.4.9.7 1.8 1 2.7l1.9 5.6 4 11.8c.7 2 .9 4.2.6 6.4-1.1 7.4-8 12.4-15.4 11.2-4.1-.6-7.6-3.1-9.7-6.7-.7-1.3-1.2-2.7-1.6-4.1-1.8-5.3-3.2-9.5-4.2-12.5-.5-1.5-.9-2.6-1.1-3.4l-.3-.9c0-.1 0-.2-.1-.4.1.1.2.2.2.3.1.2.2.5.3.9.3.8.7 2 1.2 3.4l4.4 12.5c.4 1.4 1 2.7 1.6 4 2.5 4.5 7.4 7.1 12.5 6.7 6-.5 10.8-5.1 11.7-11 .3-2.1.1-4.1-.5-6.1-1.4-4-2.7-8-4-11.8-.7-1.9-1.3-3.8-1.9-5.6-.3-.9-.6-1.8-1-2.7-.4-.8-.8-1.6-1.3-2.4-3.9-5.5-11.4-7.1-17.2-3.6-2.1 1.3-3.9 3.1-5 5.3-.9 1.7-1.3 3.5-1.4 5.4-.2 1.6 0 3.2.4 4.7z"/><path class="st2" d="m246.3 227.7 11.9 31.8c.7 1.8 2.7 2.7 4.4 2 1.8-.7 2.7-2.7 2-4.4l-11.9-31.8c-.7-1.8-2.7-2.7-4.4-2-1.7.6-2.6 2.6-2 4.4z"/><path class="st6" d="m246.3 227.7-.3-.9c-.1-.9.1-1.8.7-2.5.9-1.2 2.4-1.7 3.8-1.3.9.3 1.6.8 2.1 1.6.2.4.4.9.6 1.3l.5 1.4 11.2 29.6c.7 1.9-.3 4-2.2 4.8-1.2.5-2.6.2-3.6-.6-.6-.5-1-1.2-1.2-1.9-.2-.7-.5-1.3-.7-2l-1.4-3.9-4.9-13.3c-1.4-3.8-2.5-6.8-3.3-9l-.9-2.4-.2-.6c-.1-.2-.1-.3-.2-.3.1.1.1.1.1.2l.3.6c.2.6.6 1.4 1 2.4l3.4 9c1.4 3.8 3.1 8.3 5 13.3.5 1.3 1 2.5 1.5 3.9.2.7.5 1.3.7 2 .2.7.6 1.2 1.1 1.7 1.4 1.1 3.4.9 4.5-.5.7-.9.9-2.1.5-3.1-4.3-11.6-8.2-22-11-29.7l-.5-1.4c-.1-.4-.3-.9-.5-1.3-1-1.6-3-2.1-4.6-1.1-1.1.7-1.7 1.9-1.6 3.1 0 .3.1.6.1.9z"/><path class="st2" d="m267.5 288.2 11.9 31.7c.7 1.8 2.7 2.7 4.4 2 1.8-.7 2.7-2.7 2-4.4L274 285.7c-.7-1.8-2.7-2.7-4.4-2-1.9.7-2.7 2.7-2.1 4.5z"/><path class="st6" d="M267.5 288.2c-.1-.3-.2-.6-.2-.9-.1-.9.1-1.8.7-2.5.9-1.2 2.4-1.7 3.8-1.3.9.2 1.6.8 2.1 1.6.2.4.4.9.6 1.3l.5 1.4c2.9 7.6 6.8 18.1 11.2 29.6.7 1.9-.2 4-2.2 4.8-1.2.5-2.6.2-3.7-.6-.6-.5-1-1.2-1.2-1.9-.2-.7-.5-1.3-.7-2l-1.4-3.8-5-13.3-3.3-9c-.4-1-.7-1.8-.9-2.5-.1-.2-.2-.5-.2-.6-.1-.2-.1-.3-.1-.3s0 .1.1.2l.3.6c.2.6.6 1.4 1 2.4l3.4 9 5 13.3c.5 1.3 1 2.5 1.5 3.9.2.7.5 1.3.7 2 .2.7.6 1.2 1.1 1.7 1.4 1.1 3.4.9 4.5-.5.7-.9.9-2.1.5-3.1l-11-29.7c-.2-.5-.3-.9-.5-1.4-.1-.4-.3-.9-.5-1.3-.9-1.6-3-2.1-4.6-1.1-.3.2-.6.5-.9.8-.5.7-.8 1.5-.7 2.4 0 .5.2.7.1.8z"/><path class="st2" d="M203.1 109.2 215 141c.7 1.8 2.7 2.7 4.4 2 1.8-.7 2.7-2.7 2-4.4l-11.9-31.8c-.7-1.8-2.7-2.7-4.4-2-1.8.7-2.6 2.7-2 4.4z"/><path class="st6" d="M203.1 109.2c-.1-.3-.2-.6-.2-.9-.1-.9.1-1.8.7-2.5 1.2-1.6 3.5-1.9 5-.7.4.3.6.6.9 1 .2.4.4.9.6 1.3l.5 1.4 11.2 29.6c.7 1.9-.3 4.1-2.2 4.8-.5.2-1 .2-1.4.2-.8 0-1.5-.3-2.2-.8-.6-.5-1-1.2-1.2-1.9-.2-.7-.5-1.3-.7-2-.5-1.3-1-2.6-1.4-3.9-1.9-5-3.5-9.5-4.9-13.3l-3.3-9-.9-2.5-.2-.6c-.2 0-.3-.1-.3-.2 0 .1.1.1.1.2l.3.6 1 2.4 3.4 8.9c1.4 3.8 3.1 8.3 5 13.3.5 1.2.9 2.5 1.4 3.9.2.6.5 1.3.8 2 .2.7.6 1.2 1.1 1.7 1.4 1.1 3.4.9 4.5-.5.7-.9.9-2 .5-3.1-4.3-11.6-8.2-22-11-29.6-.2-.5-.4-.9-.5-1.4-.1-.4-.3-.9-.5-1.3-.9-1.6-3-2.1-4.5-1.2-.4.2-.7.5-.9.8-.5.7-.8 1.5-.7 2.4-.1.6.1.9 0 .9z"/><path class="st4" d="m272.5 245.8-4.7 3.3c4.3 6 2.8 14.3-3.1 18.6l-14.3 10.1 3.3 4.7 14.3-10.1c8.6-6.1 10.6-18 4.5-26.6z"/><path d="m272.5 245.8-4.7 3.3c4.3 6 2.8 14.3-3.1 18.6l-14.3 10.1 3.3 4.7 14.3-10.1c8.6-6.1 10.6-18 4.5-26.6z" class="st10"/><path class="st6" d="M226.8 227.8c-.4-.2-.8-.5-1.1-.8l-2.9-2.4c-2.4-2-5.8-4.8-9.6-7.7s-7.2-5.7-9.7-7.6l-2.9-2.3c-.4-.3-.7-.6-1-.9.4.2.8.5 1.2.7.7.5 1.8 1.2 3 2.2 2.5 1.9 6 4.5 9.8 7.5s7.1 5.8 9.5 7.9c1.2 1 2.1 1.9 2.8 2.5.2.2.6.5.9.9zM220.1 230.4c-.9.1-1.9.1-2.8 0l-6.8-.2-6.8-.1c-.9.1-1.9 0-2.8-.1.9-.2 1.9-.3 2.8-.3 1.7-.1 4.1-.1 6.8-.1s5.1.2 6.8.3c1 .1 1.9.3 2.8.5zM270.6 178.3c.1 0-.5 7.8-1.5 17.4-1 9.6-1.9 17.3-2 17.3s.5-7.8 1.5-17.4c1-9.6 1.9-17.3 2-17.3zM286.3 193.3c-1.8 2.3-3.7 4.4-5.8 6.4-1.9 2.1-4 4.2-6.2 6.1 1.8-2.3 3.7-4.4 5.8-6.4 1.9-2.2 4-4.2 6.2-6.1z"/></g><path class="st6" d="M469.9 438.5c0 .1-105.2.3-234.9.3s-235-.2-235-.3 105.2-.3 234.9-.3 235 .1 235 .3z" id="Floor--inject-1"/><g id="Character--inject-1"><path class="st4" d="M350.1 152.6c-.2-1.1-.3-2.1-.3-3.2s.5-2.1 1.3-2.9c1-.9 2.5-1.1 3.7-1.7 1.5-.9 2.7-2.1 3.7-3.6.5 1.8.7 3.7.5 5.6-.1 1.9-.9 3.6-2.2 5-1.4 1.4-3.3 1.9-5.2 1.4"/><path d="M350.1 152.6c-.2-1.1-.3-2.1-.3-3.2s.5-2.1 1.3-2.9c1-.9 2.5-1.1 3.7-1.7 1.5-.9 2.7-2.1 3.7-3.6.5 1.8.7 3.7.5 5.6-.1 1.9-.9 3.6-2.2 5-1.4 1.4-3.3 1.9-5.2 1.4" class="st5"/><path class="st6" d="M356.3 146c-.2.7-.5 1.3-1 1.8-.4.6-.9 1.1-1.5 1.4 0 0 .7-.7 1.3-1.6s1.1-1.7 1.2-1.6zM356.8 147.5c-.3.4-.7.8-1.2 1-.4.3-.9.5-1.5.6.4-.3.9-.5 1.4-.7.4-.3.8-.6 1.3-.9z"/><path class="st4" d="M349.4 152.5c.4-1.5 1.5-2.6 3-3 1.4-.4 2.9-.6 4.4-.6 1.5-.1 2.9-.6 4.1-1.5 0 2-.6 4-1.8 5.6-1.2 1.6-3 2.7-5 2.9-2 .2-4-.6-5.3-2.2"/><path class="st6" d="M356.5 151.3c-.3.1-.6.2-1 .3-.6.2-1.4.4-2.3.8-.9.3-1.7.6-2.2.9-.3.1-.6.3-.9.4.3-.2.6-.4.9-.5.6-.3 1.3-.6 2.2-.9.9-.3 1.7-.5 2.3-.7.4-.3.7-.3 1-.3z"/><path class="st6" d="M356.2 153c-.3.1-.7.1-1 .1-.6 0-1.4.1-2.4.1s-1.8.2-2.4.3c-.3.1-.7.1-1 .1.3-.1.6-.2 1-.3.8-.2 1.6-.3 2.4-.4.8-.1 1.6-.1 2.4-.1.3.1.6.1 1 .2z"/><path class="st12" d="m346.8 149.6 18.4 30.3c3.1 5.2 1.5 11.9-3.7 15-4.9 3-11.4 1.7-14.7-3.1-1.8-2.6-3.3-4.8-3.3-4.8s-7.9 4-13.1-3c-2.5-3.4-7.1-10.8-11.2-17.5-4.6-7.5-2.4-17.4 5-22.2 7.5-4.8 17.5-2.6 22.4 4.9 0 .1.1.3.2.4z"/><path class="st13" d="M343.5 187c3.3-2.3 5.9-5.6 7.3-9.3 0 0 1.5 6.7-6 11.2l-1.3-1.9z"/><path class="st6" d="M324.2 170.2c.4.5 1.2.7 1.7.3.6-.3.7-1.1.4-1.6-.4-.6-1.2-.7-1.7-.3-.6.3-.7 1-.4 1.6zM323.2 169c.2 0 .6-1.1 1.7-1.9s2.3-.8 2.3-1c0-.2-.3-.2-.8-.2-.7 0-1.4.2-2 .7-.6.4-1 1-1.2 1.7-.1.3-.1.7 0 .7zM335.1 162.9c.4.5 1.1.7 1.7.3.6-.3.7-1.1.4-1.6-.4-.6-1.2-.7-1.7-.3-.6.3-.7 1-.4 1.6zM334.1 161.4c.2 0 .6-1.1 1.7-1.9s2.3-.8 2.3-1c0-.2-.3-.2-.8-.2-.7 0-1.4.2-2 .7-.6.4-1 1-1.2 1.7-.2.4-.1.7 0 .7zM336 172.4c-.7.2-1.4.6-2 1-.3.2-.6.3-.8.1-.2-.3-.4-.6-.4-.9l-.7-2.7c-.5-2.4-1.2-4.7-2.2-6.9.4 2.4.9 4.7 1.6 7 .3.9.5 1.8.8 2.7 0 .5.3 1 .6 1.3.2.1.5.2.8.1.2-.1.4-.2.5-.3.7-.5 1.3-.9 1.8-1.4zM339.7 170.8c-.2.1.7 1.3.3 2.9-.4 1.6-1.8 2.4-1.6 2.5s.5 0 1-.4c.7-.5 1.2-1.2 1.4-2 .2-.8.1-1.6-.3-2.4-.3-.5-.7-.7-.8-.6zM331.4 158c.4.1 1-1.1 2.1-2.2 1.1-1.2 2.2-1.9 2-2.3-.1-.2-.5-.2-1.1 0-1.5.6-2.7 1.9-3.2 3.5 0 .6 0 1 .2 1zM320.1 164.9c.4.2 1.3-.5 2.6-1s2.5-.7 2.6-1.1c0-.2-.2-.4-.8-.5-1.6-.2-3.2.4-4.2 1.6-.4.5-.4.9-.2 1zM333.5 147.5c1.8.1 3.5.8 4.8 2.1l.1.1c1.7 1.8 3.2 3.9 4.9 5.7 1.7 1.9 4 3.2 6.5 3.7 1 .1 2.4-.3 2.4-1.3 0-.4-.2-.8-.4-1.1-3.2-5.1-5-10.4-8.7-15.5-1-1.4-2.6-2.2-4.3-2.2-1.6 0-3.5.2-4.3 1.6-.8 1.4-.7 4.8-.9 6.4"/><path class="st12" d="M346.8 154.7c.1-.1 3.8-5 7.2 0s-2.3 7.3-2.4 7.2c-.1-.2-4.8-7.2-4.8-7.2z"/><path class="st13" d="M351.8 158.9h.3c.3 0 .5-.2.7-.4.4-.9.3-1.8-.3-2.6-.3-.4-.6-.8-1.1-1.1-.3-.3-.7-.3-1.1-.2-.2.1-.4.3-.4.6 0 .2.1.3.1.3s-.2 0-.3-.2c-.1-.1-.1-.3 0-.4.1-.2.2-.4.4-.4.5-.2 1-.1 1.4.2.5.3.9.7 1.2 1.2.7.9.7 2.1.2 3-.2.3-.5.4-.9.4-.1-.3-.2-.4-.2-.4z"/><path class="st7" d="M346 145.9c-.1.2-.2.3-.3.4-.4.3-.8.5-1.3.5-.7.1-1.4-.1-2-.4-.7-.4-1.4-.9-2-1.5-.6-.6-1.2-1.1-1.9-1.5-.6-.3-1.2-.5-1.9-.4-.4 0-.9.2-1.2.4-.1.1-.3.2-.4.3.1-.2.2-.3.3-.4.4-.3.8-.5 1.3-.5.7-.1 1.4.1 2 .4.7.4 1.4.9 2 1.5.6.6 1.2 1.1 1.9 1.5.6.3 1.2.5 1.9.5.4 0 .9-.2 1.2-.4l.4-.4z"/><path class="st4" d="m346.9 147.5-27.2 20 5 8s10.2-5.8 13.5-8.6c3.3-2.9 11.2-14.3 11.2-14.3l-2.5-5.1zm-20.2 25.1c-2.1.4-4.1-1-4.4-3.1-.4-2.1 1-4.1 3.1-4.4 2.1-.4 4.1 1 4.4 3.1.4 2.1-1 4-3.1 4.4zm10.9-7.9c-2.1.4-4.1-1-4.4-3.1-.4-2.1 1-4.1 3.1-4.4s4.1 1 4.4 3.1c.3 2-1 4-3.1 4.4z"/><path class="st7" d="M350.2 150.4c0 .9-.1 1.9-.7 2.2 0 0-3.1-4-7.9-3.3-5 .9-9.7 2.8-14 5.6-4 2.7-7.9 5.5-8.3 6.4s-.9 4.2-.4 5c.3.5.5 1 .7 1.6-.9.6-2.1.5-3-.1-.8-.5-3.6-5.6-3.5-7.5.6-12 26.1-18.8 28.5-18.6 0 0 4-1.2 6.3 2.3.2.3 1 1.9 1.6 3.1.4 1 .7 2.1.7 3.3z"/><path class="st7" d="M323.1 137.7s-8.6 3.8-10.1 11.6c-1.2 6.2 1.5 8.4 1.5 8.4l30.4-13.7c0-.1-5-12.5-21.8-6.3z"/><path class="st6" d="M343.6 141.7h-1.4c-1.3 0-2.5.1-3.8.3-1.9.3-3.7.7-5.4 1.4-2.2.8-4.3 1.7-6.3 2.8-3.7 1.9-7.1 4.4-10 7.4-1.1 1.1-2 2.1-2.5 2.8l-.6.8c-.2.2-.2.3-.2.3 1-1.4 2.1-2.8 3.3-4 2.9-3 6.3-5.6 10-7.5 2-1.1 4.2-2 6.3-2.8 1.8-.6 3.6-1.1 5.5-1.3 1.3-.2 2.5-.2 3.8-.2h1.3zM318.7 166.3c-.1-.1-.2-.1-.4-.2-.3-.2-.6-.5-.9-.7-.9-.8-1.7-1.8-2.3-2.9-.6-1.1-1.1-2.2-1.4-3.5-.1-.4-.2-.7-.2-1.1v-.4s.1.6.3 1.5c.3 1.2.8 2.3 1.4 3.4.6 1.1 1.4 2 2.2 2.9.8.6 1.3 1 1.3 1z"/><path class="st6" d="M321.7 158.9c-.3-.2-.6-.5-.9-.7-.7-.6-1.2-1.3-1.7-2.1s-.9-1.6-1.2-2.4c-.1-.4-.2-.7-.3-1.1.2.3.3.7.4 1 .3.8.8 1.6 1.2 2.4.5.8 1 1.5 1.7 2.1.3.2.6.5.8.8zM328.8 154s-.2-.4-.5-1.1c-.4-.9-.8-1.7-1.4-2.5-.5-.8-1.1-1.5-1.8-2.2-.5-.5-.8-.9-.8-.9.3.2.6.5.9.8.7.7 1.3 1.4 1.9 2.2.5.8 1 1.7 1.3 2.6.1.4.2.6.3.8.1.1.1.2.1.3zM337.2 150.3c-.2-.4-.3-.7-.5-1.1-.4-.9-.9-1.7-1.4-2.5-.5-.8-1.1-1.5-1.8-2.2-.3-.3-.6-.6-.8-.9.3.2.6.5.9.8.7.7 1.3 1.4 1.8 2.2.5.8 1 1.7 1.3 2.6.3.3.4.7.5 1.1zM347.1 150.6s-.1-.6-.4-1.5c-.3-1.2-.8-2.3-1.5-3.4-.6-1.1-1.4-2-2.4-2.9-.7-.6-1.2-1-1.2-1 .1.1.2.1.4.2.3.2.6.5.9.7.9.8 1.8 1.8 2.4 2.9.7 1.1 1.1 2.3 1.5 3.5.1.4.2.7.2 1.1.1.2.1.3.1.4zM328.6 145.3s-.2-.6-.6-1.4c-1.2-2.2-3.2-3.9-5.6-4.7-.9-.3-1.5-.3-1.5-.4h.4c.4 0 .8.1 1.1.2 2.5.7 4.6 2.5 5.7 4.8.2.3.3.7.4 1.1 0 .1 0 .2.1.4zM337.5 142.1s-.3-.5-.8-1.3c-.7-1-1.6-1.9-2.6-2.6-1-.7-2.1-1.3-3.3-1.6-.9-.3-1.5-.4-1.5-.4h.4c.4 0 .7.1 1.1.2 1.2.3 2.3.9 3.3 1.6 1 .7 1.9 1.6 2.6 2.7.2.3.4.7.5 1 .2.1.3.3.3.4zM317 142v1.4c.1 1.1.2 2.2.6 3.2.3 1.1.8 2.1 1.4 3 .4.7.8 1.1.7 1.2 0 0-.1-.1-.2-.3-.2-.3-.4-.5-.6-.8-.6-.9-1.1-1.9-1.4-3-.3-1.1-.5-2.2-.5-3.3V142zM313.8 146.6v1.2c0 1 .1 2 .3 3 .2 1 .5 1.9.8 2.9.3.7.5 1.1.5 1.2 0 0-.1-.1-.2-.3-.1-.3-.3-.5-.4-.8-.4-.9-.7-1.9-.9-2.9-.2-1-.3-2-.2-3 0-.4 0-.7.1-.9-.1-.1-.1-.2 0-.4z"/><path class="st6" d="M322.7 158.1c1.1.7 2.4 1.1 3.8 1 .3 0 .6-.1.9-.2.3-.1.5-.4.5-.7 0-.6-.6-.9-1.2-1.1.7 0 1.3-.1 1.9-.3.6-.2 1.1-.7 1.3-1.4.2-.7-.2-1.4-.9-1.6-2.1 1.3-4.3 2.7-6.3 4.3z"/><path class="st4" d="M417.4 214.6s-27.3-38.7-31.1-41c-3.8-2.3-9-1.2-12 .2-2.1 1-6.9 3.9-6.9 3.9l-4.7-4.7-18.7 16.6 3.1 5.7-3.2 5.3c-.1.1-.2.2-.3.4-.7.9-1.2 1.8-1.6 2.9l-.2.4.1.1c-.5 1.7-.8 3.4-.7 5.2.2 6.3 7 38.2 7 38.2l-7.1 4.9 4.3 13.3s21.1-7.1 20.6-14.1c-.8-7-2-14-3.5-20.9l9.8 13.3c.4 2.7 4.6 21.4 4.6 21.4l3 1.2 58.3-3.1 1.7-3.7-22.5-45.5z"/><path class="st6" d="M347.8 212.3c.4.4.8.7 1.1 1.1.7.8 1.6 1.9 2.8 3.3 2.3 2.8 5.4 6.8 8.7 11.2 3.4 4.4 6.3 8.4 8.5 11.4 1 1.4 1.8 2.6 2.5 3.5.3.4.6.9.8 1.3-.4-.4-.7-.8-1-1.2l-2.6-3.4-8.6-11.3-8.6-11.3-2.6-3.4c-.4-.3-.7-.7-1-1.2z"/><path d="M419.5 222.1c-7.1 1-14.2-.4-21.2-1.4-11.7-1.7-23.6-2.6-35.5-2.5-1.1-.1-2.2.1-3.1.6-2.1 1.4-14.3 2.4-16.6 3.7l1.1 5.6c.2-.1 2.5.7 3.7.9 9.7 1.1 12.8-4.1 13.6-4.3 1.1-.2 2.5.8 3.5 1.2 7.7 2.8 15.7 4.4 23.8 5.9 6.6 1.3 13.4 2.6 20.1 2 3.1-.3 6.4-1 8.7-3.1 2.3-2.2 3.5-5.9 1.9-8.6z" class="st5"/><path class="st4" d="m380.3 192.9 10.7 15.9-21.2-.8 1.2 15.7s36.6 8 42.2 6c6.3-2.2 6.1-5 6.4-8.6S413 206.9 409 200c-4-6.9-20.3-30.7-29-27.7-.1 0-8.5 6.5.3 20.6z"/><path class="st4" d="m380.3 192.9 10.7 15.9-21.2-.8 1.2 15.7s36.6 8 42.2 6c6.3-2.2 6.1-5 6.4-8.6S413 206.9 409 200"/><path class="st6" d="M409 200s.1.1.2.3l.5.9 2.1 3.3c.9 1.4 2 3.2 3.2 5.3 1.4 2.4 2.7 4.8 3.8 7.3.3.7.6 1.5.8 2.2.1.4.2.8.2 1.2v.6l-.1.6c-.1.9-.2 1.7-.3 2.5-.2.9-.6 1.7-1.1 2.5-1.3 1.4-2.9 2.5-4.7 3-.9.3-1.9.5-2.9.4-1 0-2 0-3-.1-4-.3-8.2-.9-12.5-1.6s-8.8-1.5-13.3-2.4c-3.7-.7-7.3-1.5-10.8-2.2h-.2v-.2c-.4-5.5-.8-10.8-1.2-15.7v-.3h.3l21.2.9-.1.3-7.8-11.7-2.1-3.2-.5-.8c-.1-.1-.1-.2-.2-.3.1.1.1.2.2.3l.6.8 2.2 3.1 7.9 11.6.2.3h-.4l-21.2-.8.2-.2c.4 4.9.8 10.2 1.2 15.7l-.2-.2c3.5.8 7.1 1.5 10.8 2.2 4.5.9 9 1.7 13.3 2.4s8.5 1.3 12.5 1.6c1 .1 2 .1 3 .1.9 0 1.9-.1 2.8-.4 1.7-.5 3.3-1.5 4.5-2.9 1.1-1.4 1.2-3.1 1.4-4.8.1-1.6-.2-3.1-.9-4.5-1.1-2.5-2.3-4.9-3.7-7.3-1.2-2.1-2.2-3.9-3.1-5.4l-2-3.4c-.2-.4-.4-.7-.5-.9s-.3-.1-.3-.1z"/><path d="M391 208.7c3.7-1.8 7.9-2.3 11.9-1.6 1.5.2 3 .9 4 2.1.3.4.5 1.1.1 1.5-.4.4-1.1.8-1.6.6-4.5-2.1-9.5-3-14.4-2.6" class="st5"/><path class="st6" d="M406 211.5c0 .1-.9-.4-2.3-.9-1.9-.6-3.8-1-5.7-1.2-2.3-.3-4.4-.3-5.9-.4-.8 0-1.6 0-2.5-.2.8-.2 1.6-.2 2.5-.2 2-.1 4 0 6 .2s3.9.7 5.8 1.4c.7.4 1.4.8 2.1 1.3zM359.3 247.2c-1.9-.5-3.8-.7-5.7-.6-1.9.2-3.8.6-5.6 1.3 3.3-2.2 7.6-2.4 11.3-.7z"/><path d="M348 247.7c2.3-1.9 5.1-3 8.1-3.2 1.1-.1 2.2.1 3.2.7.4.3.8.8.6 1.3s-1.1.5-1.7.3c-3.4-.8-6.9-.5-10.2.8" class="st5"/><path class="st6" d="M378.9 172.4c0 .1-.6.4-1.3 1.3-.9 1.2-1.6 2.6-1.8 4.1-.2 1.5-.2 3 0 4.5.1.6.2 1.3.2 1.9-.3-.6-.5-1.2-.5-1.9-.3-1.5-.4-3.1-.1-4.7.2-1.6.9-3 2-4.2.3-.4.9-.8 1.5-1zM351 194.3c-1.1-.9-2-1.9-2.6-3.1-.8-1.1-1.4-2.4-1.7-3.7.8 1.1 1.5 2.3 2.2 3.5.8 1 1.5 2.1 2.1 3.3zM356.9 190.6c-1.2-.9-2.3-2.1-3.2-3.3-1-1.2-1.9-2.5-2.5-3.9 1 1.1 2 2.3 2.9 3.5 1.1 1.2 2 2.4 2.8 3.7zM362.1 185.8c-.1.1-1-1.8-2.7-3.6-1.7-1.9-3.4-3-3.3-3.1 1.4.6 2.7 1.6 3.7 2.9 1 1 1.8 2.3 2.3 3.8zM366 180.5c-.9-.8-1.8-1.7-2.7-2.7-1-.8-1.9-1.7-2.7-2.6 1.2.5 2.2 1.3 3.1 2.3 1 .8 1.8 1.8 2.3 3z"/><path d="M348.1 195.1c2 .3 4.1.1 6.1-.6 1.9-.7 3.6-1.7 5.2-2.8 2.3-1.5 4.3-3.5 5.7-5.9 1.1-2 1.7-4.3 1.9-6.5-1.3 1.3-2.3 2.8-3.2 4.4-3.5 5.6-9.1 9.2-15.7 11.4" class="st5"/><path class="st6" d="M367.5 177.8c-.1.3-.2.7-.4 1-.4.9-.9 1.8-1.4 2.6-1.7 2.8-3.9 5.3-6.3 7.5s-5.2 4-8.2 5.3c-.5.2-1 .4-1.6.6-.4.1-.8.3-1.2.4-.3.1-.7.2-1.1.2 0-.1 1.5-.4 3.8-1.5 2.9-1.4 5.6-3.2 8-5.4 2.4-2.2 4.6-4.6 6.4-7.3 1.2-2.1 1.9-3.5 2-3.4zM401.7 235c-.1.3-.3.6-.6.8-.4.5-1 1.2-1.7 2.1-1.5 1.7-3.7 4.1-6.2 6.5-2.5 2.4-5 4.5-6.8 5.9-.9.7-1.7 1.2-2.2 1.6-.3.2-.5.4-.9.5.9-.9 1.8-1.7 2.8-2.4 1.8-1.5 4.1-3.5 6.7-6 2.5-2.5 4.7-4.7 6.3-6.4l2.6-2.6zM375 182c-.3.5-.6.9-.9 1.3-.6.9-1.6 2.1-2.8 3.5-6.4 7.4-14.3 13.5-23.1 17.9-1.7.8-3.1 1.4-4.1 1.8l-1.5.6c.5-.3 1-.5 1.5-.7 1-.4 2.3-1.1 4-2 4.3-2.3 8.4-4.9 12.3-7.9 3.9-3 7.4-6.3 10.7-9.9 1.2-1.4 2.2-2.5 2.9-3.4.3-.4.6-.8 1-1.2zM382.2 195.7c-.3.4-.6.7-1 1-.7.6-1.7 1.5-3 2.6-2.5 2.2-6.1 5.1-10.2 8.1-4.1 3.1-7.9 5.6-10.8 7.5-1.4.9-2.5 1.6-3.4 2.1-.4.3-.8.5-1.3.7l1.2-.9 3.3-2.2c2.8-1.9 6.5-4.5 10.6-7.6s7.7-5.9 10.3-8l3.1-2.5c.4-.2.8-.5 1.2-.8zM392.3 179c-2.5 1-4.9 2.3-7.1 4-2 1.8-3.8 3.9-5.2 6.2.2-.8.6-1.5 1-2.2 2.1-3.4 5.2-5.9 8.9-7.4.8-.3 1.6-.5 2.4-.6zM404.1 192.2c0 .1-1.1.3-2.9.7-4.7 1.2-9.1 3.2-13.1 6-1.5 1.1-2.4 1.8-2.5 1.7-.1-.1.2-.2.5-.6.4-.4 1-.9 1.7-1.4 3.9-3 8.4-5 13.2-6 .9-.2 1.7-.3 2.2-.3.3-.1.6-.1.9-.1zM412.3 204.7c0 .1-1.3-.2-3.3-.4-5.4-.5-10.8.4-15.8 2.6-1.9.8-3 1.5-3.1 1.4.2-.2.5-.4.7-.5.7-.4 1.4-.8 2.2-1.2 5-2.4 10.5-3.3 16-2.6.8.1 1.6.2 2.4.4l.9.3zM417.2 226.5c-1.6-5.7-5.2-10.6-10.2-13.9.8.3 1.6.7 2.3 1.3 3.4 2.5 6 6 7.4 10 .3.8.5 1.7.5 2.6zM396.7 228.5c-.1 0 .3-1.1.6-2.9.9-4.6.5-9.4-.9-13.9-.6-1.7-1-2.7-1-2.8.2.2.3.4.4.7.3.6.6 1.3.9 2 1.7 4.5 2 9.4 1 14.1l-.6 2.1c-.2.5-.3.7-.4.7zM385.2 226c-.4-2.8-.7-5.7-.8-8.5-.3-2.9-.4-5.7-.3-8.6.4 2.8.7 5.7.8 8.5.3 2.8.4 5.7.3 8.6zM349.6 214.7c-1.2.6-2.5.9-3.8 1.2-1.3.4-2.6.6-3.9.6 1.2-.5 2.5-.9 3.8-1.1 1.2-.4 2.6-.7 3.9-.7zM361.2 230c-.7.3-1.5.5-2.3.6-1.5.3-3.5.6-5.7.9s-4.3.4-5.8.4c-.8.1-1.6.1-2.4-.1.8-.2 1.6-.3 2.4-.3 1.5-.1 3.5-.3 5.7-.6s4.2-.6 5.7-.8c.8 0 1.6-.1 2.4-.1zM364.9 243.3c0 .1-1-.4-2.5-1-4.1-1.5-8.6-1.6-12.8-.4-1.6.5-2.5.9-2.6.8s.2-.2.6-.4c.6-.3 1.2-.6 1.8-.8 2.1-.7 4.3-1 6.5-.9 2.2.1 4.4.6 6.4 1.4l1.8.9c.6.2.8.4.8.4zM358.9 259.9c-.1 0-.2-1-.9-2.6-1.7-4.1-5.4-7-9.8-7.7-1.6-.3-2.7-.2-2.7-.3.2-.1.5-.1.7-.1h2c4.6.5 8.5 3.6 10 7.9.2.6.4 1.3.5 2 .2.3.2.6.2.8zM370.5 220.6c-1.5 1.5-3.2 2.8-5 3.9-1.7 1.3-3.5 2.4-5.4 3.3 1.6-1.3 3.3-2.6 5.1-3.7 1.7-1.2 3.4-2.4 5.3-3.5zM389.4 226.9c-.2.2-.4.5-.7.6-.5.4-1.2.9-2.1 1.6-1.8 1.3-4.3 3-7.2 4.8-2.9 1.8-5.6 3.1-7.6 4.1-1 .5-1.8.8-2.4 1.1-.3.1-.6.3-.9.3 1-.6 2.1-1.2 3.1-1.7 2-1 4.6-2.5 7.5-4.2 2.9-1.7 5.5-3.4 7.3-4.6 1-.8 2-1.4 3-2zM397 238.5c-.2.2-.5.4-.8.6-.5.3-1.4.8-2.4 1.3-5.3 2.6-11.1 4.1-17 4.5-1.1.1-2 .1-2.7 0-.3 0-.7 0-1-.1 0-.1 1.4-.1 3.6-.3 2.9-.3 5.8-.8 8.6-1.5 2.8-.8 5.6-1.7 8.3-2.9 2.1-1 3.3-1.6 3.4-1.6zM425.3 231c-.3.3-.6.6-1 .8-.7.5-1.7 1.2-3 2-6.8 4.1-14.2 7-21.9 8.7-1.5.3-2.7.5-3.5.6-.4.1-.9.1-1.3.1.4-.2.8-.3 1.3-.3.8-.2 2-.4 3.5-.8 3.8-.9 7.6-2.1 11.2-3.5 3.6-1.5 7.2-3.2 10.6-5.1 1.3-.8 2.4-1.4 3.1-1.8.2-.3.6-.5 1-.7zM431.6 244.4c-.2.1-.3.2-.5.4l-1.5.9c-.6.4-1.4.9-2.4 1.4s-2 1.1-3.2 1.7c-1.2.6-2.5 1.2-4 1.8-1.5.6-3 1.2-4.7 1.9-3.6 1.3-7.3 2.4-11.1 3.2-3.8.8-7.6 1.4-11.4 1.7-1.8.1-3.5.3-5 .3h-4.4c-1.4 0-2.5-.1-3.6-.2s-2-.2-2.7-.2l-1.7-.2c-.2 0-.4 0-.6-.1h.6l1.7.1c.8.1 1.7.1 2.7.2s2.3.1 3.6.1c1.3 0 2.8 0 4.4-.1s3.2-.2 5-.3c7.6-.7 15.2-2.3 22.4-4.9 1.7-.6 3.2-1.2 4.7-1.8s2.8-1.2 4-1.8c1.2-.6 2.3-1.1 3.2-1.6s1.8-.9 2.4-1.3l1.5-.8c.2-.2.4-.3.6-.4zM439.6 259.5c-.2.1-.4.1-.6.1l-1.8.3-6.7.9c-5.7.7-13.6 1.6-22.3 2.4s-16.6 1.5-22.3 1.9l-6.8.5-1.8.1h-.6c.2-.1.4-.1.6-.1l1.8-.2 6.8-.6 22.3-2.1 22.3-2.3 6.8-.7 1.8-.2h.5zM283.6 235h-16.4s-6 1-6.1 5.8h11.7l13.1-2.9-2.3-2.9zM285 244.2l-11.6-3-12.2 1.7s.3 5 6.1 5.3 17.9-.1 17.9-.1l-.2-3.9z"/><path class="st4" d="m337.1 219.6-50.2 15.8v11.8l48.3 12.8 1.9-5.8-44.8-10.4c-1.8-.6-2-1.4-2.1-3-.1-2.6 3.3-3.1 3.3-3.1l46.3-14.7 2.1-4.2-4.8.8z"/><path d="m337.1 219.6-50.2 15.8v11.8l48.3 12.8 1.9-5.8-44.8-10.4c-1.8-.6-2-1.4-2.1-3-.1-2.6 3.3-3.1 3.3-3.1l46.3-14.7 2.1-4.2-4.8.8z" class="st5"/><path class="st4" d="M293.4 243.6H292c-1.2-.4-2-1.6-1.8-2.9.1-2.8 3-2.8 3-2.8 1.2 0 2.3-1 2.3-2.3 0-1.2-1-2.3-2.3-2.3h-7.4c-1.2 0-2.3 1-2.3 2.3 0 1.2 1 2.3 2.3 2.3h1.1v5.7h-.9c-1.3.1-2.2 1.2-2.1 2.4.1 1.1 1 2 2.1 2.1h7.4c1.3-.1 2.2-1.2 2.1-2.4 0-1.1-.9-2-2.1-2.1z"/><circle class="st6" cx="286.6" cy="246.1" r="1"/><path class="st6" d="M287.2 235.6c0 .6-.4 1-1 1s-1-.4-1-1 .4-1 1-1c.5 0 1 .4 1 1z"/><path class="st7" d="M270.5 250.1c-1.6 0-2.9-1.3-2.9-2.9v-10.9c0-1.6 1.3-2.9 2.9-2.9 1.6 0 2.9 1.3 2.9 2.9v10.9c0 1.6-1.3 2.9-2.9 2.9z"/><path class="st6" d="M271.3 236.5c0 .6-.4 1-1 1s-1-.4-1-1 .4-1 1-1c.5 0 1 .5 1 1z"/><circle class="st6" cx="270.5" cy="247.2" r="1"/><path class="st4" d="m430.3 412.8 5.3 17.2s-16 9.9-15.3 13.1l34-7.8-7.1-27.1-16.9 4.6z"/><g class="st14"><path class="st0" d="M445.6 425.7c.7 0 1.3.6 1.4 1.3 0 .7-.6 1.3-1.3 1.4-.8 0-1.4-.6-1.5-1.4.1-.8.7-1.3 1.5-1.3"/></g><g class="st14"><path class="st0" d="m454.2 435.3-.7-2.7-32.5 8.7c-.6.5-.9 1.3-.8 2.1l34-8.1z"/></g><path class="st6" d="M435 430c0 .2.9 0 1.8.3s1.6.9 1.7.8-.4-1-1.5-1.3c-1.1-.4-2.1 0-2 .2zM431.9 432.4c0 .2.8.2 1.5.8s1.1 1.2 1.3 1.2c.2-.1 0-1-.9-1.7-1-.7-2-.5-1.9-.3zM431 437.1c.2 0 .2-.9-.5-1.7-.7-.8-1.5-.9-1.6-.8 0 .1.6.5 1.1 1.2s.8 1.4 1 1.3zM434.2 425.9c.1.1.8-.3 1.8-.5s1.8-.1 1.8-.3-.8-.6-1.9-.3c-1.2.3-1.8 1-1.7 1.1z"/><path d="m434.4 426.1.9 3.1 15.6-6.6-.7-2.4z" class="st5"/><path class="st6" d="M433.2 422.4c.6 0 1.2-.2 1.7-.5.6-.3 1.1-.6 1.6-1 .3-.2.6-.5.8-.8.2-.2.3-.3.4-.5.2-.3.1-.7-.2-.9-.2-.2-.5-.3-.8-.2-.2.1-.4.1-.6.3-.3.2-.7.4-1 .6-.5.4-.9.9-1.3 1.4-.4 1-.6 1.7-.6 1.6.2.1.4-.5 1.1-1.3.4-.5.8-.9 1.3-1.2l.9-.6c.3-.2.6-.3.8-.1.1.1.1.1 0 .2s-.2.3-.3.4c-.2.3-.5.5-.8.8-.5.4-.9.7-1.5 1.1-.5.1-1 .4-1.5.7z"/><path class="st6" d="M433.5 422.6c.2-.6.2-1.2 0-1.8-.1-.6-.4-1.2-.7-1.8-.2-.3-.4-.6-.7-.9-.3-.4-.8-.6-1.3-.6-.3.1-.5.3-.6.7v.7c.1 1.1.7 2 1.5 2.7.9.7 1.6.7 1.6.6-.5-.3-.9-.6-1.4-1-.4-.4-.8-.9-1-1.4-.1-.3-.2-.7-.2-1 0-.4 0-.7.2-.7.3 0 .6.2.7.4.2.2.5.5.7.8.3.5.6 1 .8 1.6.3 1.1.3 1.7.4 1.7z"/><path class="st4" d="m366.2 411.4 2.2 17.8s-17.5 6.9-17.4 10.2l34.8-1.7-2.3-27.9-17.3 1.6z"/><g class="st14"><path class="st0" d="M379 426.8c.7.1 1.2.8 1.1 1.5-.1.7-.8 1.2-1.5 1.1-.8-.2-1.3-.9-1.2-1.6.2-.7 1-1.2 1.7-1"/></g><g class="st14"><path class="st0" d="m385.8 437.8-.2-2.8-33.5 2.8c-.7.4-1.2 1.2-1.2 2l34.9-2z"/></g><path class="st6" d="M367.8 429.1c0 .2.9.2 1.8.6s1.4 1.1 1.5 1.1c.1-.1-.2-1-1.3-1.6s-2-.3-2-.1zM364.3 430.9c0 .2.7.4 1.4 1.1.6.7.9 1.4 1 1.4s.2-1-.6-1.8-1.8-.9-1.8-.7zM362.6 435.4c.1 0 .3-.9-.2-1.7s-1.3-1.2-1.4-1 .5.6.9 1.3c.4.8.5 1.4.7 1.4zM367.8 425c.1.1.8-.2 1.8-.2s1.7.2 1.8.1c.1-.1-.7-.7-1.8-.7-1.2 0-1.9.7-1.8.8z"/><path d="m367.9 425 .4 3.2 16.4-3.7-.2-3z" class="st5"/><path class="st6" d="M367.4 421.4c.6.1 1.2.1 1.7-.2.6-.2 1.2-.4 1.8-.7.3-.2.7-.4 1-.6.2-.1.3-.3.5-.5.2-.3.2-.6 0-.9-.2-.2-.5-.3-.8-.3-.2 0-.4.1-.7.1-.3.1-.7.3-1 .5-.6.3-1.1.7-1.5 1.2-.7.8-1 1.5-.9 1.5.1 0 .4-.5 1.2-1.2.4-.4.9-.7 1.5-1 .3-.2.7-.3 1-.4.4-.1.7-.2.8 0 .1.2 0 .1 0 .2-.1.1-.2.2-.4.3l-.9.6c-.5.3-1.1.6-1.6.8-.6.2-1.2.3-1.7.6z"/><path class="st6" d="M367.6 421.6c.3-.5.4-1.1.3-1.7 0-.6-.2-1.3-.4-1.9-.1-.4-.3-.7-.5-1-.2-.5-.7-.8-1.2-.8-.3 0-.6.2-.7.5-.1.2-.1.4-.1.7-.1 1.1.3 2.1 1 2.9.8.8 1.5 1 1.5.9 0-.1-.6-.4-1.2-1.2-.3-.5-.6-1-.7-1.6-.1-.3-.1-.7-.1-1 0-.4.1-.7.3-.6.1 0 .5.2.7.5.2.3.4.6.5.9.2.5.4 1.1.5 1.7.2 1 0 1.7.1 1.7z"/><path class="st7" d="m451.6 410.3-.8-3.6-12.8-64.6 3.7-56.4-3.7-22.1-33.9 1.8-24.3 1.3s-20.5 71-21.8 74.7c-1.4 3.7 6.3 84.4 6.3 84.4l21.5-4.6-.2-75 19.4-43.9 7.6 51.9 19 72.9 19.7-7.5-.6-4.1.9-5.2z"/><path class="st6" d="M399 274c.1 0 1.5 6.6 3.2 14.8 1.7 8.2 3.1 14.9 3 14.9s-1.5-6.6-3.2-14.8c-1.7-8.3-3-14.9-3-14.9zM437.9 272.9c-.9.4-1.8.6-2.7.7-2.3.3-4.5-.1-6.6-1-2.1-.9-3.8-2.4-5.2-4.2-.6-.8-1-1.6-1.3-2.5.1.2.2.4.3.7.3.6.7 1.2 1.1 1.7 2.7 3.7 7.1 5.7 11.6 5.2.7-.1 1.3-.2 2-.4.3-.1.6-.2.8-.2zM437.9 341.2s-1 3.8-2.4 8.5-2.5 8.4-2.6 8.4 1-3.8 2.4-8.5 2.6-8.5 2.6-8.4zM385.9 344.1c-.1.2-.2.4-.3.5l-.9 1.4c-.8 1.2-1.9 2.8-3.2 4.6-1.3 1.8-2.5 3.3-3.4 4.4l-1.1 1.3c-.1.2-.3.3-.4.5.1-.2.2-.3.4-.5l1-1.3c.9-1.1 2.1-2.7 3.3-4.5 1.3-1.8 2.4-3.4 3.2-4.5l1-1.4c.2-.2.3-.4.4-.5z"/><path class="st6" d="M381.3 422.2v-5.1c0-3.4-.1-8.2-.2-14.1-.1-12-.3-28.4-.5-46.6v-4.6c2.2-7.7 4.9-15.2 8.1-22.6 2.9-6.8 5.6-12.8 7.8-17.8s3.9-9.1 5.1-12c.6-1.4 1-2.5 1.3-3.3.3-.8.5-1.1.5-1.1s-.5 1.6-1.7 4.5c-1.1 2.9-2.8 7-5 12s-4.9 11-7.8 17.8c-3.2 7.3-5.9 14.9-8.1 22.6v4.6c.2 18.2.3 34.6.4 46.6 0 5.9.1 10.7.1 14.1v5zM385.4 266.2c.3.9.5 1.8.5 2.7.2 4.5-2.4 8.6-6.5 10.3-.8.4-1.7.6-2.6.7.2-.1.5-.1.7-.2l1.8-.6c4-1.8 6.5-5.8 6.4-10.2 0-.6-.1-1.3-.2-1.9 0-.3-.1-.5-.1-.8zM401.7 269c.2-.1.3-.1.5-.1.5 0 1 .1 1.4.4.6.4.9 1.2.8 1.9-.2.9-1 1.6-1.9 1.6-.9 0-1.7-.6-2.1-1.4-.2-.7-.1-1.5.4-2 .3-.4.7-.6 1.2-.7h.5s-.2 0-.5.1c-.4.1-.8.4-1.1.7-.4.5-.6 1.2-.3 1.9.3.8 1 1.3 1.9 1.3.8-.1 1.5-.7 1.7-1.5.2-.7-.1-1.4-.6-1.8-.4-.3-.8-.4-1.3-.4h-.6z"/><path class="st12" d="M369.7 208.9s-8.4-.9-10.1-.9-13.5 2.4-13.5 2.4-7.1 7-7 9.1l2.8-.5s-2.6 4.3-2.5 5.4-.3 2.4 1.2 2.7c2.6.6 3.8-2.4 3.8-2.4s-.3 1.5.8 1.7c1.6.4 3.4-.9 3.4-.9s.1 1.4 1.3 1.5c1.4.1 2.8-.4 3.8-1.3 1 .6 2.2.6 3.2-.1 1.7-1 3.8-4.7 3.8-4.7l2.2-.5 7.9 2.2-1.1-13.7z"/><path class="st13" d="M347.2 220.1c-.8 1.8-1.8 3.5-3.2 5 .3-.9.8-1.8 1.4-2.6.4-.9 1-1.7 1.8-2.4zM351.6 222.4c.1.1-.4 1-1.3 1.9-.9.9-1.8 1.4-1.9 1.3-.1-.1.6-.8 1.5-1.6.9-.9 1.6-1.7 1.7-1.6zM355.2 223.3c.1.1 0 .8-.6 1.5s-1.2 1.1-1.3 1c-.1-.1.4-.6.9-1.3s.9-1.2 1-1.2zM344.7 215.2c.1.1-.3.5-.9 1.2-.5.8-1.2 1.8-2 3.1-1.4 2.5-2.4 4.6-2.5 4.5.4-1.7 1.1-3.3 2.1-4.8.6-1.1 1.3-2.1 2.1-3 .7-.7 1.2-1.1 1.2-1z"/><path class="st12" d="M343.4 252.6c1.4.1 2.8.4 4 1 1.3.6 2.2 1.8 2.4 3.2.2 1.4-.7 2.7-2.1 3.1-1 .1-2-.3-2.7-1-1.7-1.6-2.3-4.1-1.4-6.3"/><path class="st12" d="M344.5 254s-1-3.1-5.9-3c0 0-3.5.1-4 .4s-1.4 1.6-1.2 2.2c.7 1.3 2 2.3 3.4 2.7 1.4.1 2.3-.1 2.7-.6.2-.5 5-1.7 5-1.7z"/><path class="st13" d="M336.5 251.8c0-.1.4 0 1.1.3.9.3 1.6 1 1.9 1.9.4 1-.1 2-1 2.4-.7.3-1.2 0-1.1 0 0 0 .4 0 1-.3.7-.4 1-1.2.7-1.9-.3-.7-.9-1.4-1.6-1.7-.7-.5-1.1-.7-1-.7z"/><path class="st13" d="M338.6 253.1c-.1 0-.3-.3-.4-.7-.2-.4-.3-.7-.2-.8.1-.1.5.1.7.6.2.5.1.9-.1.9z"/><path class="st12" d="M336.7 256c.5-.5 1.2-.9 1.9-1 .7-.1 1.5.5 1.4 1.2.1-.7.4-1.4.9-1.9.5-.6 1.2-.8 1.9-.6.7.2 1 .9.8 1.6v.1c.3-.7 1.2-1.1 1.9-.7.6.3 1 .9.8 1.6.1-.7 1-1 1.6-.7.6.3 1 .9 1.1 1.6 1 2.8.2 6-2 8-.5.5-1.1.8-1.8.9-.7.1-1.3-.2-1.7-.8-.5 1-1.7 1.3-2.7.8-.3-.2-.5-.4-.7-.6-.9 1-2.5 1.1-3.5.2-.6-.5-.9-1.3-.8-2.1-.6.5-1.4.7-2.2.5-.7-.4-1.1-1.2-1-2 0-1.1.4-2.2 1.1-3.1.6-.9 1.4-1.7 2.2-2.5"/><path class="st13" d="M340 265.3c.7-.8 1.4-1.7 2-2.6 1.4-2.4 1.9-5.1 1.4-7.8-.1-.4-.4-.7-.8-.9-.7-.3-1.6-.1-2 .6-.2.3-.3.7-.3 1.1 0 .4-.1.8-.2 1.2-.3 1.4-.8 2.7-1.7 3.9-.5.8-1.2 1.5-1.9 2-.3.2-.6.4-.9.5 1-.8 1.8-1.8 2.5-2.8.7-1.1 1.2-2.4 1.5-3.8.1-.4.1-.8.1-1.2 0-.5.2-.9.4-1.3s.6-.8 1.1-.9c.5-.2 1-.1 1.5.1s.8.7 1 1.2c.5 2.8-.1 5.7-1.6 8.1-.5.7-1 1.3-1.6 1.9-.1.4-.3.6-.5.7z"/><path class="st13" d="M343.7 255.2s-.1-.1 0-.3c.1-.2.3-.4.6-.4.4-.1.7-.2 1.1-.1.5.2.9.5 1.1 1 .4 1.2.6 2.5.5 3.8-.2 1.7-.8 3.3-1.9 4.7-.4.6-.9 1.1-1.6 1.4 0-.1.6-.6 1.3-1.6.9-1.3 1.5-2.9 1.7-4.5.1-1.2 0-2.5-.4-3.6-.2-.4-.5-.6-.8-.8-.3-.1-.6-.1-.9 0-.6 0-.7.3-.7.4zM340 256c-.1-.4-.4-.7-.8-.9-.7-.3-1.7.2-2.6.9-1.1 1-2.1 2-3.1 3.1.5-1.4 1.5-2.7 2.8-3.5.5-.4 1-.7 1.6-.9.5-.2 1-.2 1.5 0 .3.2.6.5.6.8.1.4 0 .6 0 .5z"/><path class="st13" d="M349.5 259.7c-.1 0-.1-.4-.2-.9-.1-.7-.3-1.4-.6-2-.3-.6-.8-1.1-1.5-1.2-.5 0-.8.2-.8.2s.1-.5.8-.5c.8 0 1.6.5 2 1.3.4.7.5 1.5.5 2.2 0 .6-.1.9-.2.9z"/></g></svg>