<svg version="1.1" id="Layer_1" xmlns="http://www.w3.org/2000/svg" x="0" y="0" viewBox="0 0 662.7 449.1" style="enable-background:new 0 0 662.7 449.1" xml:space="preserve"><style>.st0{fill:#e0e0e0}.st1{fill:#ebebeb}.st2{fill:#f5f5f5}.st3{fill:#0061f2}.st4{opacity:.3}.st5{fill:#263238}.st6{fill:#fff}.st8{fill:#ffbe9d}.st9{fill:#eb996e}.st10{fill:#455a64}.st11{fill:#b78876}.st12{fill:#aa6550}</style><g id="background-complete--inject-36"><path class="st0" d="M662.5 207.1V203c0-2.7 0-6.5-.1-11.4l.2.2-57.5.1.3-.3v15.5l-.2-.3 41 .1 12.1.1h4.1c-.1 0 0 0 .1.1h-4.2l-12 .1-41.2.1h-.2v-15.8l.3-.3 57.5.1h.2v.2c0 4.9-.1 8.8-.1 11.5v3.8c-.2 0-.3.2-.3.3z"/><path class="st1" d="M328.5 0H386v15.5h-57.5z"/><path class="st0" d="M410.2 31.4v-4.1c0-2.7 0-6.5-.1-11.4l.2.2-57.5.1.2-.2v15.5l-.2-.2 41 .1 12.1.1h4.2l.1-.1H406l-12 .1-41.2.1h-.3V15.9l.3-.3 57.5.1h.2v.2c0 4.9-.1 8.8-.1 11.5v3.8c-.1 0-.2.1-.2.2zM97.5 271v-4.1c0-2.7-.1-6.5-.1-11.4l.2.2-57.6.1.3-.3V271l-.2-.3 41 .1 12.1.1h4.2l.1.1-.2-.1h-4l-12 .1-41.2.1h-.3v-15.6l.3-.3 57.5.1h.2v.2c0 4.9-.1 8.8-.1 11.5v3.8c0 .1-.2.2-.2.2z"/><path class="st0" d="M104 286.5v-1.1c0-.8 0-1.8-.1-3.1 0-2.7-.1-6.6-.1-11.3l.2.2-28.8.1c-.2.2.3-.3.2-.3v15.5l-.2-.2 20.6.1 6 .1h2.2c-.1-.1-.3-.1-.5-.1h-1.6l-5.9.1-20.8.1H75v-15.7l.3-.3 28.8.1h.2v.2c0 4.8-.1 8.6-.1 11.4 0 1.3 0 2.3-.1 3.1v.8s-.1.1-.1.3zM641.3 43.5v-4.1c0-2.7 0-6.5-.1-11.4l.2.2-57.5.1c.1-.1-.3.3.2-.3v15.5l-.3-.2 41 .1 12.1.1h4.4l-.2-.1H637l-12 .1-41.2.1h-.3V28c.5-.5.2-.1.3-.3l57.5.1h.2v.2c0 4.9-.1 8.8-.1 11.5v3.8c-.1 0-.1.1-.1.2z"/><path class="st0" d="M647.7 59v-4.2c0-2.7-.1-6.6-.1-11.3l.2.2-28.8.1.3-.3V59l-.2-.2 20.6.1 6 .1h2c-.1-.1-.3-.1-.4-.1h-1.6l-5.9.1-20.8.1h-.2V43.4l.3-.3 28.8.1h.2v.2c0 4.8-.1 8.6-.1 11.4V58.7c0 .2-.3.3-.3.3z"/><path class="st1" d="M0 115.2h57.5v15.5H0z"/><path class="st0" d="M81.6 146.6v-4.1c0-2.7-.1-6.5-.1-11.4l.2.1-57.5.1c.1-.1-.3.3.2-.3v15.5l-.3-.3 41 .1 12.1.1h4.2c.1.1.2.1.2.2h-4.2l-12 .1-41.3.2h-.2v-15.7l.3-.3 57.6.1h.2v.2c0 4.9-.1 8.8-.1 11.5v3.8c-.2-.1-.2 0-.3.1z"/><path class="st1" d="M440.5 237.3H498v15.5h-57.5z"/><path class="st0" d="M522.1 268.7v-4.1c0-2.7 0-6.5-.1-11.4l.2.2-57.6.1.3-.3v15.5l-.2-.3 41 .1 12.1.1h4.1l.2.1h-4.2l-12 .1-41.2.1h-.3v-15.6l.3-.3 57.6.1h.2v.2c0 4.9-.1 8.8-.1 11.5v3.8c-.2-.1-.2 0-.3.1zM237.6 327.3v-4.1c0-2.7 0-6.5-.1-11.4l.2.1-57.5.1.3-.3v15.5l-.2-.3 41 .1 12.1.1h4.2c-.2.1-.1.1 0 .2l-.2-.1h-4l-12 .1-41.2.1h-.3v-15.6l.3-.3 57.5.1h.2v.2c0 4.9-.1 8.8-.1 11.5v3.8c-.1.1-.2.1-.2.2zM191 53.8v-4.1c0-2.7 0-6.5-.1-11.4l.2.2-57.6.1.3-.3v15.5l-.2-.2 41 .1 12.1.1h4.3H186.7l-12 .1-41.2.3h-.3V38.4l.3-.3 57.6.1h.2v.2c0 4.9-.1 8.8-.1 11.5v3.8c-.1 0-.1.1-.2.1z"/><path class="st2" d="M567.6 429.7c-16-12.6-18.5-34.4-16.7-53.8.3-3.2.1-6.7 1.8-9.4 1.7-2.8 5.4-4.5 8.2-3 2.3 1.3 3.2 4.1 4.5 6.5 1.6 3.2 4.1 5.9 7.2 7.7 2 1.2 4.5 2 6.6 1 2.9-1.4 3.4-5.2 3.6-8.5l.9-18c.2-3.2.3-6.5 1.5-9.5s3.6-5.7 6.7-6.4 6.8 1.3 7.3 4.5c0 1.3 0 2.7-.1 4 0 1.4.5 2.9 1.8 3.3s2.6-.4 3.6-1.3c3.5-3.1 6-7.1 8.4-11.2 2.4-4 4.7-8.2 7.9-11.6 3.2-3.4 7.6-6 12.2-5.9s9.4 3.1 10.3 7.7-2 9.1-5.1 12.6c-4.6 5.2-9.9 9.7-15.8 13.4-1.1.5-2.1 1.4-2.7 2.5-.8 2.1 1.1 4.4 3.2 5.2 2.4.9 5 .8 7.5 1.3s5.2 1.7 6 4.1c1.1 3.4-1.8 6.7-4.7 8.8-5.7 4.2-12.1 7.4-18.9 9.5-2.4.7-5 1.4-7 2.9s-3.3 4.4-2.3 6.7 4 3.2 6.5 2.9 4.8-1.5 7.2-2.3c4.5-1.4 10.2-.8 12.8 3.2 1.7 2.6 1.7 6.1.6 9.1-1.3 2.9-3.1 5.5-5.3 7.7-7.5 8-17 13.9-27.6 17.1-10.5 3.1-20.1 3.5-30.1-.8"/><path class="st0" d="M573.3 417.8c3.8-10.4 8.3-20.6 13.3-30.5l3.9-7.8c1.3-2.5 2.5-5.1 4-7.5 2.7-4.6 5.6-9.1 8.8-13.4 3-4.1 6-7.9 8.9-11.4 2.9-3.5 5.6-6.8 8.2-9.6 4.1-4.5 8.5-8.7 13.2-12.5 1.7-1.3 3-2.3 3.9-3l1-.8c.1-.1.2-.2.4-.2l-.3.3-1 .8c-.9.7-2.2 1.7-3.8 3.1-4.7 3.9-9 8.1-13.1 12.6-2.6 2.8-5.3 6.1-8.1 9.6s-5.8 7.3-8.8 11.5c-3.2 4.3-6.1 8.7-8.8 13.3-1.4 2.4-2.6 4.9-3.9 7.5l-3.9 7.8c-5 9.9-9.4 20-13.3 30.4"/><path class="st0" d="M594.6 372c-.1-.5-.2-.9-.2-1.4-.1-.9-.2-2.2-.4-3.8-.3-3.2-.5-7.7-.7-12.7s-.5-9.4-.8-12.6c-.2-1.6-.3-2.9-.4-3.8-.1-.5-.1-.9-.1-1.4.2.4.3.9.3 1.4.2.9.4 2.2.6 3.8.4 3.2.8 7.7 1 12.6.2 5 .4 9.3.5 12.7.1 1.5.1 2.8.2 3.8v1.4zM636.5 366.7c-.5.1-1.1.1-1.7.1-1.1 0-2.6.1-4.5.2-3.8.2-9.1.6-14.9 1.4s-11 1.7-14.8 2.4c-1.9.4-3.4.7-4.4.9-.5.2-1.1.3-1.6.3.5-.2 1-.4 1.6-.5 1-.3 2.5-.7 4.4-1.1 3.7-.9 9-1.8 14.8-2.6 5-.7 9.9-1.1 14.9-1.2 1.9-.1 3.5 0 4.5 0 .6-.1 1.1 0 1.7.1zM573.8 417c-.1-.2-.2-.3-.3-.5l-.5-1.5c-.5-1.3-1.3-3.3-2.1-5.7-1.7-4.9-3.9-11.7-6.2-19.2-2.3-7.5-4.4-14.4-6-19.2-.8-2.4-1.5-4.3-1.9-5.8-.2-.6-.4-1.1-.5-1.6-.1-.2-.1-.4-.2-.6.1.2.2.3.3.5.2.4.4.9.6 1.5.5 1.3 1.3 3.3 2.1 5.7 1.7 4.9 3.9 11.7 6.2 19.2 2.3 7.5 4.4 14.3 6 19.2.8 2.4 1.5 4.3 1.9 5.8.2.6.4 1.2.5 1.6.1.2.1.4.1.6zM630 402.5c-.2.1-.4.2-.6.2l-1.6.4-6 1.6c-5.1 1.3-12.1 3.2-19.8 5.4s-14.7 4-19.8 5.2c-2.5.6-4.6 1.1-6.1 1.4l-1.7.3c-.2.1-.4.1-.6.1.2-.1.4-.2.6-.2l1.6-.4 6-1.6c5.1-1.3 12.1-3.2 19.8-5.4s14.7-4 19.8-5.2c2.5-.6 4.6-1.1 6.1-1.4l1.7-.3c.2-.1.4-.1.6-.1z"/><path class="st1" d="M76.4 298s-8.1 2.8.2 20c8.2 17.2 14 25.8 14 25.8s1.4 4-1.9 4.5-10.6-.8-12.2 3.2c-1.6 4 1.3 8.2 7.4 11.9 6.1 3.7 19.2 12.2 20.4 12.9 1.2.8 2.3 2.6.1 3.4-2.2.7-18.7 2-17.6 9.8 1.1 7.8 19.8 15.2 21.8 16 2 .9 2.5 1.7 2.3 2.9s-5.8 1-10.5 1.6c-4.7.6-10 2-9 6.5s11.9 14 39 17.4l12.7.8 7.2-10.5c14-23.5 13.2-38 10.3-41.5-2.9-3.5-7.3-.2-10.6 3.1-3.3 3.3-6.7 7.8-7.7 7.3s-1.4-1.4-.8-3.6c.6-2.1 6.3-21.4.8-27-5.5-5.6-16.6 6.6-18.6 7.9-1.9 1.3-2.7-.7-2.6-2.1s1.5-17 2.4-24-.5-11.9-4.8-13.2c-4.1-1.2-7.6 5.4-10 7.7-2.4 2.3-4.7-1.3-4.7-1.3s-3.2-9.8-11.7-26.9-15.8-12.3-15.8-12.3"/><path class="st0" d="M143.6 437.5c-6.2-12.6-16.9-35.1-26.1-54.4-9.3-19.3-17.6-36.7-23.8-49.3l-7.3-14.9-2-4.1c-.2-.5-.4-.8-.5-1.1s-.2-.4-.2-.4.1.1.2.4l.5 1c.5.9 1.2 2.3 2 4 1.8 3.5 4.3 8.6 7.4 14.8 6.2 12.6 14.6 30 23.9 49.3 9.3 19.3 19.9 41.8 26 54.4"/><path class="st0" d="m86.5 353.8.9.3c.6.2 1.4.5 2.3.9 2 .8 4.6 1.9 7.6 3.2l7.5 3.4 2.3 1c.3.1.6.2.8.4-.3-.1-.6-.1-.9-.3-.6-.2-1.4-.5-2.3-.9-1.9-.8-4.6-2-7.6-3.3l-7.5-3.3-2.3-1c-.2-.1-.5-.2-.8-.4zM108.8 362.2c-.1 0 2-5.7 4.7-12.5 2.7-6.9 5-12.5 5.1-12.4s-2 5.7-4.7 12.6c-2.8 6.8-5 12.4-5.1 12.3zM121.7 392.5c.1-.3.3-.5.5-.8l1.6-2c1.3-1.7 3.1-4.1 5-6.7 1.9-2.7 3.5-5.2 4.7-7l1.4-2.1c.2-.3.3-.5.5-.8-.1.3-.2.6-.4.8-.3.5-.7 1.3-1.3 2.2-1.1 1.8-2.7 4.4-4.6 7-1.9 2.7-3.7 5-5.1 6.7-.7.8-1.2 1.5-1.7 1.9-.2.3-.4.6-.6.8zM99.8 389.3h.9l2.3.2c2 .2 4.7.6 7.7 1s5.7.8 7.7 1.1l2.3.4c.3 0 .6.1.8.2h-.9l-2.3-.2c-2-.2-4.7-.6-7.7-1s-5.7-.8-7.7-1.1l-2.3-.4c-.2 0-.5-.1-.8-.2zM107.8 417.5c.4 0 .7 0 1.1.1l3 .3c2.5.3 6 .7 9.9 1.2 3.9.5 7.3.9 9.9 1.3l3 .4c.4 0 .7.1 1.1.2-.4 0-.7 0-1.1-.1l-3-.3c-2.5-.3-6-.7-9.9-1.2-3.9-.5-7.4-.9-9.9-1.3l-3-.4c-.4-.1-.7-.1-1.1-.2zM135.1 420.7c.2-.4.4-.7.6-1l1.9-2.6c1.6-2.2 3.8-5.3 6.1-8.7 2.3-3.5 4.3-6.6 5.8-9l1.7-2.7c.2-.4.4-.7.7-1-.2.4-.3.7-.5 1.1-.4.7-.9 1.6-1.6 2.8-1.4 2.3-3.4 5.6-5.7 9-2.3 3.4-4.5 6.5-6.2 8.7-.8 1.1-1.5 2-2 2.5-.3.2-.5.5-.8.9z"/></g><g id="Plant--inject-36"><path class="st3" d="M73.2 390.2c-4.7-5.6-5.3-14.5-4.7-21.8.7-7.3 2.4-14.6 1.2-21.8-.7-4.3-2.3-8.4-2.9-12.6-.6-4.3.2-9.1 3.6-11.9 3.8-3.2 9.8-2.4 13.8.6s6.3 7.7 8 12.4c3.7 10.3 5.1 21.7 2 32.1s-10.2 19.9-20.6 23M98.3 402.8c.8-2.7 2.4-5.3 5-6.4 2.6-1.1 5.8-.5 8.5.5s5.4 2.3 8.3 2.5c2.9.2 6.2-1.2 7.1-4 .8-2.6-.8-5.4-2.7-7.3-6.9-6.6-17.7-6.4-24.3.5-1.7 1.8-3 3.9-3.9 6.3"/><path d="M98.3 402.8c.8-2.7 2.4-5.3 5-6.4 2.6-1.1 5.8-.5 8.5.5s5.4 2.3 8.3 2.5c2.9.2 6.2-1.2 7.1-4 .8-2.6-.8-5.4-2.7-7.3-6.9-6.6-17.7-6.4-24.3.5-1.7 1.8-3 3.9-3.9 6.3" class="st4"/><path class="st3" d="M75.3 414.5c-4.3-4-4-11.1-1.9-16.6 2.1-5.5 6.8-9.7 11.9-12.5 10.3-5.4 22.4-5.8 33-1.1-5.2.2-10 3-12.7 7.4-2.3 3.9-2.9 8.6-4.8 12.7-4.5 9.7-15.7 14.1-25.5 10.1"/><path class="st5" d="M70.9 435.8v-2.4c0-1.6.2-3.9.6-6.8.4-3.3 1-6.6 1.8-9.9 1-4 2.5-7.9 4.5-11.5 3.7-6.5 8.9-12.1 15.1-16.3 1.2-.8 2.3-1.4 3.3-2 1-.6 1.9-1 2.6-1.3l1.7-.7c.2-.1.4-.2.6-.2l-.6.3-1.6.8c-.7.4-1.6.8-2.6 1.4s-2.1 1.2-3.2 2c-6.1 4.2-11.2 9.8-14.9 16.2-4.3 7.6-5.5 15.5-6.4 21.1-.4 2.8-.6 5.1-.7 6.7-.1.8-.1 1.4-.1 1.8 0 .4 0 .6-.1.8z"/><path class="st3" d="M29.9 374.8c-8.7 5.3-8.7 10.1-7.2 14.6 1.5 4.5 6.8 7.7 11.3 6 2.5-1 4.3-3.1 5.9-5.3 1.6-2.2 3-4.5 5.2-6.1 2.2-1.6 5.3-2.2 7.5-.6"/><path d="M29.9 374.8c-8.7 5.3-8.7 10.1-7.2 14.6 1.5 4.5 6.8 7.7 11.3 6 2.5-1 4.3-3.1 5.9-5.3 1.6-2.2 3-4.5 5.2-6.1 2.2-1.6 5.3-2.2 7.5-.6" class="st4"/><path class="st3" d="M23.5 380.5c2.3-3.2 7.9-4.1 11.5-2.5s6.2 4.7 8.5 7.8 4.6 6.4 7.8 8.6c3.2 2.2 7.8 3 11 .8 2.1-1.5 3.4-3.9 3.7-6.5.3-2.5.1-5.1-.5-7.6-.8-3.7-2-7.5-4.9-9.8-3.3-2.6-7.8-2.7-12-2.6-4.8.2-9.6.5-14.1 2.2-4.6 1.7-9.2 5.3-11 9.6"/><path class="st5" d="M63.4 435.4c0-.2-.1-.5-.1-.8 0-.5 0-1.3-.1-2.2-.1-1.9-.1-4.6-.2-8s-.2-7.4-.5-11.8-.6-9.3-1.2-14.4c-.3-2.5-.8-4.9-1.4-7.3-.7-2.2-1.6-4.3-2.7-6.4-1.8-3.5-4.2-6.6-7-9.3-2-1.8-4.2-3.3-6.6-4.4-.7-.3-1.3-.6-2-.9-.2-.1-.5-.2-.7-.3.2.1.5.1.7.2.7.2 1.3.5 2 .8 2.4 1.1 4.7 2.6 6.7 4.4 2.9 2.7 5.4 5.9 7.2 9.4 1.1 2.1 2 4.2 2.7 6.5.7 2.4 1.2 4.9 1.5 7.4.7 5.1 1 10 1.2 14.4s.3 8.5.4 11.8.1 6.1.1 8v2.2c0 .2-.1.5 0 .7zM67.3 435.4s0-.1-.1-.2l-.2-.7c-.2-.7-.4-1.6-.7-2.9-.6-3.6-.9-7.2-.7-10.8.2-5.4 1.1-10.7 2.6-15.8 1.8-5.8 4.2-12 6.4-18.5 2.1-6.2 3.5-12.6 4.1-19.1.5-5.3.6-10.7.4-16-.1-4.6-.4-8.2-.5-10.8-.1-1.2-.1-2.2-.2-2.9v-1.1.3c0 .2 0 .5.1.8.1.7.2 1.7.2 2.9.2 2.5.5 6.2.7 10.8.3 5.4.2 10.7-.3 16-.6 6.6-1.9 13-4.1 19.2-2.2 6.6-4.7 12.8-6.5 18.5-1.5 5.1-2.4 10.4-2.7 15.7-.2 3.6 0 7.2.5 10.8.2 1.2.4 2.2.6 2.9.1.3.1.5.2.7.2.1.2.1.2.2z"/></g><g id="Fence--inject-36"><path class="st0" d="M396.3 276.2h8.7v159.4h-8.7z"/><path class="st3" d="M409.4 270.7c0 4.8-3.9 8.7-8.7 8.7s-8.7-3.9-8.7-8.7c0-4.8 3.9-8.7 8.7-8.7 4.8 0 8.7 3.9 8.7 8.7z"/><path class="st0" d="M568.6 276.2h8.7v159.4h-8.7z"/><path class="st3" d="M581.6 270.7c0 4.8-3.9 8.7-8.7 8.7s-8.7-3.9-8.7-8.7 3.9-8.7 8.7-8.7c4.8 0 8.7 3.9 8.7 8.7zM371.5 291.5h222.1v39.7H371.5z"/><path class="st2" d="m396.7 291.5-.4.7-22.9 39.1h-1.9v-39.8zM452.8 291.5l-23.2 39.8h-30.4l9.2-15.8 14-24zM508.9 291.5l-23.2 39.8h-30.4l23.3-39.8zM565 291.5l-23.2 39.8h-30.4l23.3-39.8zM593.6 291.5v39.8h-26l23.2-39.8z"/><path class="st3" d="M371.5 352.9h222.1v39.7H371.5z"/><path class="st2" d="m396.7 352.9-.4.7-22.9 39.1h-1.9v-39.8zM452.8 352.9l-23.2 39.8h-30.4l9.2-15.8 14-24zM508.9 352.9l-23.2 39.8h-30.4l23.3-39.8zM565 352.9l-23.2 39.8h-30.4l23.3-39.8zM593.6 352.9v39.8h-26l23.2-39.8z"/><path class="st5" d="M593.6 331.3v-2.7c0-1.8 0-4.4-.1-7.7 0-6.8-.1-16.7-.1-29.3l.2.2-222 .2.4-.4v39.7l-.4-.4 158.1.2 46.9.1 12.7.1h4.3c0-.1-.3-.1-1-.1h-15.8l-46.8.1-158.4.2h-.4V291h.5l222.1.2h.2v.2c0 12.7-.1 22.7-.1 29.5v9.7c0 .5-.3.7-.3.7zM593.6 392.7V390c0-1.8 0-4.3-.1-7.7 0-6.8-.1-16.7-.1-29.3l.2.2-222.1.2.4-.4v39.7l-.4-.4 158.1.2 46.9.1h17.1H589.3l-12.6.1-46.8.1-158.4.2h-.4v-40.4h.5l222.1.2h.2v.2c0 12.7-.1 22.7-.1 29.5v9.7c0 .5-.2.5-.2.5z"/></g><path class="st5" d="M644.2 435.5c0 .1-140.5.3-313.8.3s-313.8-.1-313.8-.3 140.5-.3 313.8-.3 313.8.2 313.8.3z" id="Floor--inject-36"/><g id="Sign--inject-36"><path class="st0" d="M105.7 192.7h9.1v242.8h-9.1z"/><path class="st5" d="M114.8 435.5v-19.1c0-12.2 0-29.9-.1-51.9 0-43.8-.1-104.5-.1-171.9l.3.3h-9.1l.3-.3c-.1 117-.2 215.3-.2 242.8l-.1-.1h6.9c1.5.2 2.2.2 2.1.2l-2.1-.1h-7v-.1c0-27.5-.1-125.8-.2-242.8v-.3h9.6v.3c0 67.5-.1 128.3-.1 172.1 0 21.9-.1 39.6-.1 51.8V434c0 .8-.1 1.5-.1 1.5z"/><circle class="st3" cx="110.3" cy="149.9" r="52.9"/><path class="st6" d="M157.9 147.9c-.1-.3-.1-.5-.1-.8 0-.6-.1-1.3-.2-2.3 0-.5-.1-1.1-.1-1.7s-.2-1.3-.3-2c-.2-1.7-.5-3.3-1-4.9a45 45 0 0 0-5.3-12.6c-3.1-5.2-7.2-9.8-12.1-13.4-5.9-4.5-12.7-7.5-19.9-8.8-8.3-1.5-16.9-.8-24.8 2.1-2.1.8-4.2 1.7-6.2 2.7-1 .5-1.9 1.2-2.9 1.8-1 .6-1.9 1.3-2.8 2-1.9 1.4-3.7 2.9-5.4 4.6-1.7 1.7-3.2 3.5-4.6 5.5-2.9 3.9-5.2 8.3-6.8 13-3.2 9.7-3.2 20.1 0 29.8 1.5 4.7 3.8 9.1 6.7 13 1.4 1.9 3 3.8 4.6 5.5 1.7 1.6 3.5 3.1 5.3 4.6.9.7 1.9 1.4 2.9 2 1 .6 1.9 1.2 2.9 1.8 22.3 11.9 49.9 4.2 62.9-17.4a45 45 0 0 0 5.3-12.6c.5-1.6.8-3.3 1-4.9.1-.7.2-1.4.3-2 .1-.6.1-1.2.1-1.7.1-1 .1-1.7.2-2.3.2-.4.3-.7.3-1v.8c0 .6 0 1.3-.1 2.3 0 .5 0 1.1-.1 1.7s-.2 1.3-.3 2c-.2 1.7-.5 3.3-.9 4.9-1.1 4.5-2.8 8.8-5.2 12.8-7 11.9-18.7 20.1-32.3 22.7-8.4 1.6-17.2.9-25.2-2-2.2-.8-4.2-1.7-6.3-2.8l-3-1.8c-1-.6-2-1.3-2.9-2-3.9-2.8-7.4-6.3-10.2-10.2-3-4-5.3-8.5-6.9-13.2-3.3-9.8-3.3-20.5 0-30.4 1.6-4.8 3.9-9.2 6.9-13.2 1.4-2 3-3.8 4.7-5.6 1.7-1.7 3.5-3.2 5.5-4.6.9-.7 1.9-1.4 2.9-2l3-1.8c2-1.1 4.1-2 6.3-2.7 8.1-2.9 16.8-3.6 25.2-2 13.5 2.6 25.3 10.9 32.3 22.7 2.4 4 4.1 8.3 5.2 12.8.4 1.6.7 3.3.9 5 .1.7.2 1.4.3 2s0 1.2.1 1.7c0 1 0 1.7.1 2.3v.6z"/><path style="fill:#fafafa" d="M82.7 141.9h55.1v11.5H82.7z"/></g><g id="character-2--inject-36"><path class="st5" d="M308.5 98.1c-1.3.1.4 2.9-.9 3.1-1.6.3-3.2-.9-4.2-2.3s-1.7-3-2.9-4.1c-1.6-1.5-4-1.8-6.1-2.5-8.9-3-13.6-12.7-10.6-21.6.3-.8.6-1.5 1-2.2l7.3-14.9c-2.3-1.4-2.8-4.8-1.6-7.1 1.4-2.4 3.8-3.9 6.5-4.3 3.9-.6 7.9.7 10.6 3.5 1.5 1.5 2.6 3.5 4.6 4.2 1.7.6 3.7.1 5.5.3 2.5.4 4.6 2 5.8 4.2 1.2 2.2 1.9 4.5 2.1 7 .3 2.2.4 4.7 2 6.4 0 0 2.4 2.2 2.4 4.7 0 5.8-5.5 4.7-5.8 6.8-.5 4.1 1.3 6.1-2.8 8.6 0 0 .7 1.8-2 5.1s-5.7 2.8-5.7 2.8l-5.2 2.3z"/><path class="st8" d="M287.3 57.2c-2 .2-3.4 1.9-3.4 3.8l2.3 50.9c.1 6 8.9 9.4 15.4 9.2 6.5-.1 6.7-3.3 6.8-9.1.1-9.6.1-13.1.1-13.1s8.2-1.4 9.9-12.1c.8-5.3.5-14.1.1-21.2-.4-6.4-4.7-14.3-11.1-13.6l-20.1 5.2z"/><path class="st5" d="M315 71.8c0 .7-.6 1.4-1.3 1.4-.7.1-1.4-.5-1.4-1.2s.6-1.4 1.3-1.4c.7-.1 1.3.5 1.4 1.2z"/><path class="st5" d="M316.6 70.6c-.2.2-1.2-.6-2.7-.6s-2.6.8-2.7.6.1-.4.6-.8c.6-.4 1.4-.7 2.2-.7.8 0 1.5.2 2.1.7.5.4.6.7.5.8zM300.7 72.4c0 .7-.6 1.4-1.3 1.4-.7.1-1.4-.5-1.4-1.2s.6-1.4 1.3-1.4c.7-.1 1.4.4 1.4 1.2 0-.1 0 0 0 0zM301.9 71c-.2.2-1.2-.6-2.7-.6s-2.6.8-2.7.6.1-.4.6-.8c.6-.4 1.4-.7 2.2-.7.8 0 1.5.2 2.1.7.5.4.6.7.5.8zM307.5 81.5c.8-.3 1.6-.4 2.4-.4.4 0 .7-.1.8-.4 0-.4-.1-.8-.2-1.1-.4-.9-.7-1.9-1.1-2.9-1.6-4.1-2.7-7.4-2.5-7.5s1.6 3.2 3.1 7.3c.4 1 .7 2 1.1 2.9.2.5.3 1 .2 1.5-.1.3-.3.5-.6.6-.2.1-.4.1-.6.1-1 0-1.8 0-2.6-.1z"/><path class="st9" d="M308.5 99c-5.1.1-10.1-1.2-14.4-3.8 0 0 3.6 7.6 14.4 6.5V99zM306.9 85.1c-.6-.7-1.5-1.1-2.4-1-.7.1-1.3.4-1.7.9-.4.5-.5 1.2-.1 1.8.5.5 1.3.7 2 .5.7-.2 1.3-.6 1.9-1.1.2-.1.3-.3.4-.4 0-.3 0-.5-.1-.7"/><path class="st5" d="M302.3 68.3c-.2.3-1.6-.2-3.4-.3s-3.2-.1-3.4-.4c-.1-.2.3-.5.9-.8 1.7-.6 3.6-.4 5.1.6.7.4 1 .8.8.9zM316.6 67.8c-.3.4-1.6.2-3.1.3s-2.8.6-3.1.2c-.1-.2 0-.5.5-.9.7-.5 1.6-.8 2.5-.8.9-.1 1.7 0 2.5.4.6.3.8.6.7.8zM293.2 51.3c0 2.2 1 4.2 2.6 5.7 1.7 1.4 3.9 1.9 6 1.6 1.6-.3 3.5-1.1 4.9-.3s1.6 3.2 2.9 4.3c1.9 1.6 4.9.1 7.3.8 1.9.6 3 2.3 4.3 3.8s3.1 2.9 4.9 2.3c-.1-1.7-.3-3.3-.7-4.9-.5-1.6-1.4-3-2.8-4-.8-.5-1.7-.8-2.4-1.4-1.5-1.2-1.9-3.4-2.9-5.1-1.3-2.3-3.6-3.8-6.1-4.1-2.1-.2-4.3.4-6.4-.1-1.5-.4-2.9-1.4-4.4-1.7-3-.6-5.8 1.6-8 3.7"/><path class="st5" d="M287.6 74.5c-.6.3-.9 1-.6 1.6.2.4.6.7 1 .7 3.6.8 4.1-6.2 3.3-8.2 1.4-1.1 2.6-2.4 3.6-3.8 1.2-2.2 1.7-4.8 1.7-7.3 1.3.1 6.9-1.8 6.3-1.9-1.4-.4-4.1-1.3-4.8-2.4-1.5-2.6-4.2-4.1-7.2-4.1-3 .2-5.5 2.4-6.1 5.4-3.6.1-6.8 2.2-8.4 5.4-1.6 3.3-1.5 7.3.3 10.5.6.8 1 1.6 1.1 2.6 0 1.2-.9 2.1-1.5 3.1-1.7 2.7-1.6 6.4-.3 9.3s2.2 4 4.1 4.5c3.7 1.2-.6 8.7 5.5 8.7"/><path class="st8" d="M287.7 77.4c-.1-1.7-1.5-3.1-3.3-3-.5 0-.9.1-1.3.4-1.1.6-1.9 1.9-1.8 4.3.3 6.5 6.7 4.9 6.7 4.7s-.1-3.7-.3-6.4z"/><path class="st9" d="M285.9 81.4s-.1.1-.3.2c-.3.1-.6.1-.9.1-.9-.5-1.4-1.4-1.4-2.4 0-.6 0-1.1.2-1.6.1-.4.4-.7.8-.9.3-.1.6 0 .7.3.1.2.1.3.1.3s.1-.1.1-.4c0-.2-.1-.3-.3-.4-.2-.1-.4-.2-.6-.1-.5.1-1 .5-1.1 1-.2.6-.4 1.2-.3 1.8 0 1.2.7 2.2 1.8 2.7.3.1.7 0 1-.2.2-.3.3-.4.2-.4z"/><path class="st10" d="M293.9 53.8c-.5.3-1 .6-1.3 1.1-.7 1.4-.9 3-.5 4.5v.2h-.1c-1.9.5-3.4 1.9-4.2 3.7-.2.5-.3 1-.3 1.6 0 .6.1 1.1.2 1.7.1.6.2 1.2.2 1.8 0 .7-.1 1.3-.5 1.9-.8 1.1-2 1.9-3.2 2.4-1.1.5-2.1 1.2-3 2-1.5 1.4-2.3 3.4-2.4 5.4-.1 1.4.2 2.8.9 4 .4.9.8 1.3.8 1.3l-.3-.3c-.2-.3-.5-.6-.6-1-1.8-3.2-1.2-7.2 1.4-9.8.9-.9 2-1.6 3.1-2.1 1.2-.5 2.2-1.3 3-2.3.7-1 .4-2.3.2-3.4-.1-.6-.2-1.2-.2-1.8 0-.6.2-1.2.4-1.7.8-1.9 2.5-3.3 4.5-3.8l-.1.2c-.4-1.6-.2-3.3.6-4.7.3-.3.6-.6 1-.8.1 0 .3-.1.4-.1z"/><path class="st5" d="M306.8 87.2c-.9-.3-1.7-.8-2.5-1.3-1.3-.8-2.4-1.4-2.3-1.6s1.3.2 2.6 1 2.3 1.8 2.2 1.9z"/><path class="st10" d="M325.2 75.4c-.1-.2.7-.4 1.5-1.3.5-.5.8-1.2 1-1.9.2-.9 0-1.8-.4-2.6-.7-1-1.6-1.7-2.6-2.2-.7-.4-1.4-.8-2-1.3-.7-.6-1.3-1.3-1.8-2.2-.9-1.6-1.2-3.4-1.9-4.8-.3-.7-.7-1.3-1.2-1.8s-1-.7-1.7-.8c-1.4-.2-3.3.5-5.6.1-1-.2-2-.7-2.9-1.4-.7-.6-1.3-1.2-1.9-1.8-.9-1.1-2-2.1-3.1-2.8-1-.6-2.2-.8-3.4-.8-1.8.1-3.5.8-4.7 2.1-.9.9-1.3 1.6-1.5 1.5s-.1-.9.7-2.1c.5-.8 1.2-1.4 1.9-1.9 1-.7 2.2-1.2 3.4-1.3 1.5-.2 3.1.1 4.5.7 1.5.8 2.8 1.8 3.8 3.1.9 1.1 2.2 2 3.6 2.4.8.1 1.5.1 2.3 0 1-.2 2.1-.2 3.1-.2 1.2.1 2.4.7 3.2 1.6.7.8 1.3 1.7 1.7 2.7.8 1.8 1 3.5 1.6 4.8.3.6.7 1.1 1.1 1.5.5.4 1.1.9 1.7 1.2.6.4 1.2.9 1.8 1.3.6.5 1 1.1 1.4 1.8.5 1.2.6 2.6.1 3.9-.3.9-.9 1.7-1.7 2.2-1.1.6-2 .5-2 .3z"/><path class="st0" d="m284.9 95.8-1.8 6.9s-9.2 13.3-10.6 15.5-4.7 10.6-5.1 14.7 14.3 62 14.3 61.4 42.4 12 42.4 12l8.6-7.8s1.5-18.9.6-20.5-.9-26.6-3.1-35.7-20.1-29.7-20.1-29.7l-1.6-4.5v4.5l-23.6-16.8z"/><path class="st0" d="M280.6 123.4c-3 6.4-2.3 14 1.9 19.8 6.7 9.2 16.3 22.2 17 22.2 1.2 0 24.9-21.9 24.9-21.9s-13.2-20.6-20-25.2c-3.2-2.1-13.3-6.2-17.7-3.9-1.9.9-4.2 4.9-6.1 9z"/><path class="st5" d="M288.5 113.6c-.2 0 0-1.8.5-3.8.2-1.3.6-2.5 1.2-3.6 0 1.3-.3 2.6-.7 3.8-.2 1.2-.6 2.4-1 3.6z"/><path class="st5" d="M308.5 112.5c-.3-.1-.5-.3-.8-.4l-2.1-1.4.2-.1c0 1 .2 2.1.4 3.1.3 1.3.5 2.6.5 3.9v.5l-.4-.3c-2-1.6-4.3-3.5-6.9-5.3-4.3-3.1-8.4-5.6-11.4-7.4-1.5-.9-2.7-1.6-3.6-2-.5-.2-.9-.5-1.3-.8.5.1 1 .3 1.4.6.9.4 2.1 1 3.7 1.9 4 2.2 7.8 4.6 11.5 7.3 2.6 1.9 4.9 3.7 6.9 5.4l-.4.2c0-1.3-.2-2.6-.5-3.9-.2-1-.3-2.1-.3-3.1v-.3l.2.2 2 1.5c.4 0 .6.2.9.4z"/><path class="st8" d="M303.5 162zM342.1 157.2c-2.8-1.8-7.5-.6-7.5-.6L323 144.8 303.5 162c2 2.4 15.9 13.9 21 15.5 5.5 1.8 11.7.7 13.8-2.2s5.3-7.3 5.3-7.3 1.3-9.1-1.5-10.8z"/><path class="st8" d="m335 142.2 5.9 4.1s5.4.6 7.5 5.5 2.6 15.7-4.6 15.9l-16-11.7v-9l7.2-4.8z"/><path class="st9" d="M346.8 150.9c0 .1-.9-.7-2.5-1.5-4.1-2.2-9.1-2.4-13.3-.4-1.6.7-2.5 1.4-2.6 1.3s.2-.2.6-.5c.6-.4 1.2-.8 1.8-1.1 4.3-2.2 9.5-2 13.7.4l1.8 1.2c.3.4.5.6.5.6z"/><path class="st0" d="m330.2 145.3 6.6-4.3-23.3-24.4z"/><path class="st5" d="m285.5 147.4.3.3.8.9 2.8 3.6 10.3 13h-.3c.9-.7 1.8-1.5 2.7-2.3s1.9-1.6 2.8-2.5c1.9-1.7 4-3.5 6.1-5.4l13.5-12.1v.3c-1.2-1.8-2.5-3.6-3.8-5.5-2.5-3.5-5.1-6.9-7.8-10.1-1.3-1.6-2.6-3.1-3.9-4.6-1.2-1.5-2.6-2.8-4-4.1-1.4-1.2-2.9-2.2-4.5-3-1.6-.7-3.2-1.2-4.9-1.5-1.6-.4-3.2-.6-4.8-.8-1.5-.1-2.9.2-4.2.9-1.2.7-2.2 1.6-3 2.6-.8.9-1.4 1.9-2 3-1 1.7-1.7 3.4-2.3 5.3-.4 1.2-.6 2.4-.8 3.6-.1.4-.1.7-.1 1 0 .1 0 .2-.1.3.1-1.7.3-3.3.8-4.9.5-1.9 1.3-3.7 2.2-5.4.6-1.1 1.3-2.1 2-3 .9-1.1 1.9-2 3.1-2.7 1.3-.8 2.9-1.1 4.4-1 1.6.2 3.2.4 4.8.8 1.7.3 3.4.9 5 1.6 1.7.8 3.3 1.8 4.6 3 1.4 1.3 2.8 2.7 4.1 4.1 1.3 1.5 2.6 3 3.9 4.6 2.6 3.2 5.2 6.5 7.8 10.1 1.3 1.9 2.6 3.7 3.8 5.5l.1.2-.2.1-13.6 12.1-6.1 5.4c-1 .9-1.9 1.7-2.8 2.5l-2.8 2.3-.2.1-.1-.2-10.1-13.2-2.7-3.7-.7-1c.1 0 0-.1-.1-.2z"/><path class="st9" d="M343.5 168s.1-.5.3-1.4c.1-.5.1-1.1.1-1.7 0-.7.1-1.4.1-2.2 0-1.9-.6-3.8-1.7-5.3-1.5-1.8-3.9-2.6-6.2-2.3-.9.1-1.7.4-2.4.9l-.2.1-.1-.1c-3.1-3.2-5.8-6-7.8-8l-2.3-2.4c-.3-.3-.6-.6-.8-.9.3.2.6.5.9.8l2.4 2.3c2 2 4.8 4.7 7.9 7.9h-.3c.8-.5 1.7-.9 2.6-1 2.5-.4 5 .5 6.6 2.5 1.2 1.6 1.8 3.6 1.7 5.6 0 .9-.1 1.6-.1 2.2 0 .9-.2 1.9-.5 2.7-.2.1-.2.3-.2.3z"/><path class="st5" d="M313.5 117.4c.4.3.7.7 1 1.1.6.7 1.4 1.8 2.5 3.1 2.7 3.4 5.2 6.9 7.3 10.7 1.2 2.1 2.2 4.3 2.9 6.6.6 1.9.8 3.8.7 5.8-.1 1.6-.1 2.9-.1 3.9 0 .5 0 1-.1 1.4-.1-.5-.1-1-.1-1.4v-3.9c.1-1.9-.2-3.8-.8-5.7-.7-2.2-1.7-4.4-2.9-6.4-2.2-3.7-4.6-7.3-7.2-10.7-.9-1.3-1.7-2.3-2.3-3.2-.4-.5-.7-.9-.9-1.3zM299.5 178.8c.1-.1 1.1 3 3.1 6.4s4.2 5.7 4.1 5.8c-.6-.4-1.1-.9-1.5-1.4-2.3-2.5-4-5.5-5.1-8.8-.4-.6-.6-1.3-.6-2zM312.2 192.4c-1.2-2.8-2.1-5.7-2.6-8.6 1.1 2.7 2 5.6 2.6 8.6z"/><path class="st3" d="M296.4 126.2c.2-.3 2.9 5.7 2.9 5.7s1.4 3.9-3.3 6.2c-2.4 1.4-5.5.5-6.8-1.9-.1-.2-.2-.3-.2-.5l-2-4.4c2.1-.4 3.6-2.2 3.6-4.3 0 0 3.9 2.2 5.8-.8z"/><path class="st10" d="m326.7 403.8-1.4 21s20.9 6.9 21 10.8l-40.8.2.8-32.8 20.4.8z"/><path class="st5" d="m305.5 435.8.1-3.3 39.4 1.1c.8.4 1.4 1.3 1.5 2.2h-41zM331.4 237.1l1.8-34.2-53.1-1.9s-6.8 16-8.4 22.2c-1.6 6.2-2.7 14.2-.6 22s17 33.9 17 33.9l14.3 144.2h32.5l-3.5-186.2z"/><path class="st5" d="M331.1 208.8c.4 3.9 30.2 96.1 26.8 110.1-3.4 14-27.5 80-27.5 80l.7-190.1z"/><path class="st10" d="M331.9 215c.1 0 .5 38.6.9 86.2s.5 86.2.4 86.2-.6-38.6-.9-86.2-.6-86.2-.4-86.2zM322.3 423.2c-.1 0-1.9-45.2-3.9-101s-3.5-101-3.4-101 1.9 45.2 3.9 101 3.6 101 3.4 101zM313.3 206.9c0 .5 0 .9-.1 1.4-.2 1.3-.5 2.5-.9 3.7-1.3 4-3.4 7.8-6.3 10.9-3.3 3.7-7.3 6.2-10.5 6.9-1.3.3-2.6.4-3.8.1-.3-.1-.7-.2-1-.3-.2-.1-.3-.1-.3-.2s.5.1 1.4.2c1.2.1 2.5 0 3.7-.3 3.1-.8 6.9-3.3 10.2-6.9 2.8-3.1 5-6.7 6.3-10.7 1-2.8 1.2-4.8 1.3-4.8z"/><path class="st10" d="M346.5 311.3c-4.7-.7-9.5.1-13.9 2.1.5-.5 1.1-.8 1.8-1.1 1.5-.7 3.2-1.2 4.9-1.5 1.7-.2 3.4-.2 5.1 0 .7 0 1.4.2 2.1.5zM296.5 291.2c-.6-.8-1.1-1.6-1.5-2.5-.9-1.6-2.1-3.7-3.5-6.1-1.4-2.3-2.8-4.5-3.7-6-.6-.8-1.1-1.6-1.5-2.5.7.7 1.3 1.5 1.8 2.3 1 1.5 2.4 3.5 3.9 5.9s2.6 4.5 3.4 6.2c.4.9.8 1.8 1.1 2.7zM280 187.2c-.8-.3-1.3 15.2-1.3 15.2s26.8 5.2 54.4 1.2l.7-13.5s-23.9 7.1-53.8-2.9z"/><path class="st10" d="M300.8 222.2c-2.6 0-4.8-2.2-4.8-4.8v-20c0-2.6 2.1-4.8 4.8-4.8 2.7 0 4.8 2.1 4.8 4.8v20c0 2.7-2.1 4.8-4.8 4.8z"/><path class="st5" d="M300.8 222.2c.2-.1.5-.1.7-.1.7-.1 1.3-.4 1.8-.8.9-.6 1.5-1.5 1.9-2.5.2-.6.3-1.3.2-1.9v-2.3c0-3.2 0-7-.1-11.1v-6.6c-.3-2.5-2.6-4.2-5.1-3.9-2 .3-3.6 1.9-3.9 3.9v6.6c0 4.2 0 7.9-.1 11.1v2.3c0 .7 0 1.3.2 1.9.3 1 1 1.9 1.9 2.5.6.4 1.2.6 1.8.8.2 0 .5.1.7.1h-.7c-.7-.1-1.4-.3-1.9-.7-.9-.6-1.6-1.5-2-2.5-.2-.6-.3-1.3-.3-2v-20c0-2.8 2.2-5 5-5s5 2.2 5 5v6.6c0 4.2 0 7.9-.1 11.1v2.3c0 .7-.1 1.4-.3 2-.4 1-1.1 1.9-2 2.5-.6.4-1.2.6-1.9.7-.2.1-.5.1-.8 0z"/><path class="st10" d="M300.8 201.1c-.6.1-1 .5-1.1 1.1-.1.6.3 1.1.9 1.3.6.1 1.2-.3 1.4-.9.1-.7-.3-1.3-1-1.4-.1-.1-.1-.1-.2-.1"/><path class="st5" d="M300.8 201.1s.1-.1.3 0c.3 0 .6.2.8.4.3.4.4.9.3 1.3-.2.6-.7.9-1.3 1-.6 0-1.2-.3-1.4-.9-.2-.4-.1-.9.2-1.3.6-.6 1.1-.5 1.1-.5 0 .1-.4.2-.8.7-.2.3-.2.6-.1.9.1.4.5.6.9.6s.7-.3.9-.6c.1-.3 0-.7-.1-.9-.3-.6-.8-.6-.8-.7z"/><path class="st10" d="M295.8 206.5c2.9 2 6.7 2.3 9.9.8"/><path class="st5" d="M305.7 207.3c0 .1-.5.4-1.4.7-1.2.4-2.4.6-3.7.5-1.3-.1-2.5-.4-3.6-1-.9-.4-1.3-.9-1.2-.9 1.5.7 3.2 1.2 4.9 1.4 1.7 0 3.4-.2 5-.7z"/><path class="st10" d="M286.3 249.1c-2.7-.1-4.9-2.3-4.9-5l.9-55.8c.1-2.7 2.3-4.9 5-4.9 2.7.1 4.9 2.3 4.9 5l-.9 55.7c0 2.8-2.3 5.1-5 5z"/><path class="st5" d="M286.3 249.1c.5 0 1-.1 1.4-.2 1.3-.4 2.4-1.3 3-2.6.4-.9.6-1.9.5-2.9v-3.6c0-2.6.1-5.5.1-8.7.1-6.5.2-14.2.3-22.7.1-4.3.1-8.8.2-13.4 0-2.3.1-4.7.1-7.1-.2-2.6-2.6-4.5-5.1-4.2-2.2.2-4 1.9-4.2 4.1-.1 2.3-.1 4.8-.1 7.1-.1 4.6-.1 9.1-.2 13.4-.1 8.5-.3 16.2-.4 22.7-.1 3.2-.1 6.1-.2 8.7 0 1.3-.1 2.5-.1 3.6-.1 1 0 2 .4 2.9.6 1.3 1.7 2.2 3 2.7.3.1.8.2 1.3.2-.5 0-1-.1-1.4-.2-1.4-.4-2.5-1.4-3.1-2.7-.4-.9-.6-2-.5-3v-3.6c0-2.6.1-5.5.1-8.7.1-6.5.2-14.1.3-22.7.1-4.3.1-8.8.2-13.4 0-2.3 0-4.7.1-7.1.4-2.9 3-4.9 5.9-4.5 2.4.3 4.3 2.3 4.5 4.7 0 2.4-.1 4.8-.1 7.1-.1 4.6-.1 9.1-.2 13.4-.2 8.5-.3 16.2-.4 22.7-.1 3.2-.1 6.1-.2 8.7 0 1.3-.1 2.5-.1 3.6.1 1-.1 2.1-.6 3-.6 1.3-1.8 2.2-3.2 2.6-.4.1-.9.2-1.3.1z"/><path class="st10" d="M315.3 221.6c-2.6 0-4.8-2.1-4.8-4.7v-20.1c0-2.7 2.1-4.8 4.8-4.8 2.6 0 4.8 2.2 4.8 4.8v20c0 2.7-2.2 4.8-4.8 4.8z"/><path class="st5" d="M315.3 221.6s.2 0 .7-.1c.7-.1 1.3-.4 1.8-.7.9-.6 1.5-1.5 1.9-2.5.2-.6.3-1.3.2-1.9v-2.3c0-3.2 0-7-.1-11.1v-6.6c-.2-2.5-2.5-4.3-4.9-4.1-1 .1-1.9.5-2.6 1.2-.8.8-1.3 1.8-1.4 2.9v6.6c0 4.2 0 7.9-.1 11.1v2.3c0 .7 0 1.3.2 1.9.3 1 1 1.9 1.9 2.5.6.4 1.2.6 1.9.7.5.1.7.1.7.1h-.7c-.7-.1-1.4-.3-1.9-.7-.9-.6-1.6-1.5-2-2.5-.2-.6-.3-1.3-.3-2v-2.3c0-3.2 0-6.9-.1-11.1v-6.6c.3-2.6 2.4-4.5 5-4.6 2.6 0 4.7 2 5 4.6v20c0 .7-.1 1.4-.3 2-.4 1-1.1 1.9-2 2.5-.6.4-1.3.6-1.9.7-.4.1-.7.1-1 0z"/><path class="st10" d="M315.3 199.6c-.6.1-1 .5-1.1 1.1-.1.6.3 1.1.9 1.3.6.1 1.3-.3 1.4-.9.1-.7-.3-1.3-1-1.5h-.2"/><path class="st5" d="M315.3 199.6s.1-.1.3 0c.3 0 .6.2.8.4.3.4.4.9.3 1.3-.2.6-.7.9-1.3 1-.7 0-1.4-.5-1.4-1.3 0-.3.1-.7.3-1 .5-.5 1-.4 1-.4 0 .1-.4.2-.8.7-.2.3-.2.6-.1.9.1.4.5.6.9.6.6 0 1-.5 1-1 0-.2-.1-.4-.2-.6-.3-.5-.9-.5-.8-.6z"/><path class="st10" d="M315.3 211.4c-.6.1-1 .5-1.1 1.1-.1.6.3 1.1.9 1.3.6.1 1.3-.3 1.4-.9.1-.7-.3-1.3-1-1.4-.1-.1-.1-.1-.2-.1"/><path class="st5" d="M315.3 211.4s.1-.1.3-.1c.3 0 .6.2.8.4.3.4.4.9.3 1.3-.2.5-.7.9-1.3 1-.8 0-1.4-.6-1.4-1.3 0-.3.1-.7.3-.9.5-.5 1-.5 1-.4-.1 0-.5.1-.8.6-.2.3-.2.6-.1.9.1.4.5.6.9.6.6 0 1-.5 1-1 0-.2-.1-.4-.2-.5-.3-.5-.8-.5-.8-.6z"/></g><g id="character-1--inject-36"><path class="st10" d="m172 397.8-6.8 27.1-11.6 19.9c-.8 1.4-.3 3.1 1.1 3.9l.1.1c.8.4 1.8.4 2.6 0l26.2-16.3 7.6-27.1-19.2-7.6z"/><path class="st5" d="m157.5 448.8 26.2-16.3 1.1-4-30.1 20.2c.8.5 1.9.5 2.8.1z"/><path class="st10" d="m243.7 403.8-1.4 21.2s21.1 7 21.2 10.9l-41.2.3.8-33.1 20.6.7z"/><path class="st5" d="m222.3 436.3.1-3.3 39.8 1.1c.9.4 1.4 1.3 1.5 2.2h-41.4z"/><path class="st11" d="M147.7 90.6c-.8-1.3-1-2.4-.6-4.8s2.4-19.1 2.7-20.5c.5-2.6 2.4-3.3 2.6-1.4s.3 9.5.8 9.6c.5.1 1-12.1 2-13.5s1.9-1.4 2.4-.8c.3.3.5.6.6 1 0 0 .9-1.5 1.8-1.4 1.8.2 1.8 2.3 1.8 2.3l.1 5.2s.1-4.2 1.4-4.7c.7-.3 1.6-.1 2 1.2s0 6.3 0 6.7.1 13.6.1 13.6c1-1.2 1.8-2.6 2.4-4.1.7-1.7 1.8-2.3 3.2-1.9 1.4.4 1.5 1.8 1.1 2.8s-1.4 4.3-1.4 4.3l-2.5 4.8-8.5 7.6-3.1 7s-9.9-1-11.1-6.3l2.2-6.7z"/><path class="st12" d="M161.8 81.5c-.9.5-1.8 1.2-2.6 1.9-1.8 1.8-2.9 4.2-3 6.8v.8l-.5.1c-.5-2.3-1.4-4.6-2.7-6.6-1-1.6-1.7-2.4-1.6-2.5.1 0 .2.2.6.6.5.5.9 1.1 1.4 1.7 1.4 2 2.4 4.3 2.9 6.7l-.5.1v-.8c0-1.5.4-2.9 1.1-4.2.6-1.1 1.3-2 2.2-2.8.6-.5 1.3-1 2-1.3.1-.3.4-.4.7-.5zM161.6 76.7c0 .2-2.2.3-4.9.7-2.7.4-4.9 1-4.9.9 1.5-.7 3.1-1.2 4.8-1.4 1.6-.3 3.3-.4 5-.2zM157.7 75.7c-.2-2.6-.2-5.2-.1-7.8 0-2.6.1-5.2.5-7.8.2 2.6.2 5.2 0 7.8 0 2.6-.1 5.2-.4 7.8zM161.5 75.6c-.2-2.3-.2-4.6-.1-6.9 0-2.3.1-4.6.4-6.9.2 2.3.2 4.6.1 6.9 0 2.3-.1 4.6-.4 6.9z"/><path class="st5" d="M200.1 205.6c-2.8-1.4-5.1-3.8-6.4-6.7.1-.1 1.2 1.7 3 3.5 1.7 1.9 3.4 3.1 3.4 3.2zM234.4 194.3c0-.1 1.2.2 3.2.4 5.2.7 10.5.4 15.6-.8 2-.4 3.1-.8 3.2-.8-.2.2-.5.3-.8.4-.5.2-1.3.5-2.3.7-5.1 1.4-10.5 1.7-15.8.8-1-.2-1.8-.4-2.4-.5-.2.1-.5 0-.7-.2z"/><path class="st5" d="m245.6 419.3 13.5-180.8.6-46.5-74.4 6-24.6 222.5 29.5-.8 30.1-186.6-1.4 185.3z"/><path class="st10" d="M204.1 226.5c.1 0-6.2 42.9-14.2 95.8-8 52.9-14.6 95.8-14.7 95.8-.2 0 6.2-42.9 14.2-95.8 8-52.9 14.5-95.8 14.7-95.8zM233.7 418.1v-.5c0-.3 0-.8.1-1.5.1-1.3.2-3.2.4-5.6.3-4.9.8-11.9 1.4-20.6 1.1-17.4 2.6-41.4 3.9-67.9 1.3-26.5 2.1-50.6 2.7-68 .3-8.7.5-15.7.6-20.6.1-2.4.1-4.3.2-5.6 0-.6 0-1.1.1-1.5s0-.5 0-.5v2c0 1.3 0 3.2-.1 5.6-.1 4.9-.2 11.9-.4 20.6-.4 17.4-1.2 41.4-2.5 68s-2.8 50.5-4 67.9c-.6 8.7-1.1 15.7-1.5 20.6-.2 2.4-.4 4.3-.5 5.6 0 .6-.1 1.1-.1 1.5-.3.4-.3.5-.3.5z"/><path class="st0" d="m208 85.2-5.2 7.8s-16.8 2.2-19.4 3.4c-2.7 1.2-3.7 5.5-3.7 5.5l4.7 57.2s1.2 24.3 1 28.1c0 0 0 3.8-.2 6.5 0 2.5.1 5.1.4 7.6 0 0 21.4 5.3 23.2 5.2 1.8-.2 10.9-2.1 10.9-2.1l27.5-1 8.8-2.9 1.7-4.7-1.1-2s3.8-4.4 4.1-6.7-1-24.8-1-24.8v-6.6l3.9-58s-4.9-3.1-7.6-3.6c-7.6-1.4-14.3-3.3-14.3-3.3l-7.2-8.3-26.5 2.7z"/><path class="st5" d="M219.5 110.7V111.6l-.2 2.7c-.2 2.3-.5 5.7-.9 9.9s-.6 9.2-.9 14.8-.3 11.7-.3 18.1.3 12.5.6 18.1.7 10.6 1.1 14.7.8 7.6 1 9.9c.1 1.1.2 2 .3 2.7l.1.7v.2c0-.1-.1-.2-.1-.2 0-.2-.1-.4-.1-.7-.1-.7-.2-1.6-.4-2.7-.3-2.3-.8-5.7-1.2-9.9s-.9-9.2-1.2-14.7-.6-11.7-.6-18.1.1-12.6.3-18.1.6-10.6 1-14.8.7-7.6 1-9.9c.1-1.1.3-2 .4-2.7l.1-.7v-.2z"/><path class="st0" d="m217.9 111.8 16.8 22.4c2 3.1 4.1 6.1 6.4 9 4.1 5.3 18.4 15.3 21.4 15.9s8.2 1.1 11.5-4.8 4.7-18.9 4.7-18.9l-14.9-37.6s-5.7 3.3-8.4 8.6-3 16.7-3 16.7L236.6 109l-6.9-8.2-11.8 11z"/><path class="st5" d="M262.4 135.4c-.6-.6-1.1-1.3-1.5-2.1-.8-1.4-1.4-3.4-2.5-5.5-.5-1-1.1-1.9-1.9-2.6-.6-.6-1.4-1.1-2.2-1.5-.8-.3-1.6-.4-2.4-.5 0 0 .2-.1.7-.1.6 0 1.3.1 1.9.3.9.3 1.7.8 2.4 1.4.8.8 1.5 1.7 2 2.7 1.1 2.1 1.7 4.2 2.4 5.6s1.2 2.2 1.1 2.3zM236.6 109c-.2.8-.5 1.6-1 2.3-1 1.8-2.2 3.3-3.7 4.7-1.5 1.4-3.2 2.5-5 3.3-.7.4-1.5.6-2.4.8-.1-.2 3.6-1.3 7-4.4s5-6.9 5.1-6.7zM223 111.7s.1-.1.4-.2c.4-.1.8 0 1.1.1.5.3.8.9.8 1.5 0 1-.8 1.8-1.8 1.8-.2 0-.5 0-.7-.1-.9-.4-1.3-1.5-.9-2.4v-.1c.3-.3.6-.6 1.1-.6.2-.2.4-.1.4-.1s-.7.1-.9.9c-.2.4-.1.9.1 1.3.3.5.9.7 1.4.5.5-.2.9-.6.9-1.2 0-.5-.2-.9-.6-1.2-.3-.2-.6-.3-.9-.3-.2.1-.4.1-.4.1z"/><path class="st0" d="m144.6 95.1-5.5 9.6-3.4 1.2s-14.7 22.3-6.5 29.5c8.2 7.2 21.6 6.8 26.2 4.6s28.2-12.9 28.2-12.9l-.2-30.8c-4.3 2.1-8.3 4.7-12.1 7.6-2.9 2.5-17.1 10.6-17.1 10.6l4.2-12.8-13.8-6.6zM201.3 94.7c0 3.6-1 7.2-2.9 10.3 4.7-1.9 9.1-4.6 12.8-8.1 1.5 2.1 3.3 3.9 5.5 5.4-1.2-3.1-3.4-5.6-5.2-8.4s-3.4-5.9-3.2-9.2l-7 10z"/><path class="st5" d="M242.9 164.6c-.3.5-.6 1-.9 1.4-.3.5-.7 1-1.2 1.6s-1 1.3-1.7 2.1c-1.5 1.8-3.2 3.4-4.9 5-2.1 1.9-4.4 3.7-6.7 5.3-2.4 1.6-4.8 3-7.4 4.3-2.1 1-4.2 1.9-6.5 2.7-.9.4-1.8.6-2.6.8s-1.4.4-2 .5c-.6.2-1.1.3-1.7.4.5-.2 1.1-.4 1.6-.5.5-.2 1.2-.4 1.9-.6.7-.3 1.6-.5 2.5-.9 2.2-.8 4.3-1.7 6.4-2.8 2.5-1.3 5-2.7 7.3-4.3 2.3-1.6 4.6-3.4 6.7-5.2 1.7-1.5 3.4-3.2 4.9-4.9.7-.7 1.2-1.4 1.8-2s.9-1.1 1.3-1.6.7-.9 1.2-1.3zM209 97c-.1.4-.2.7-.5 1-.5.8-1.2 1.5-1.9 2.2-1.8 1.7-4.8 3.3-7.9 5.3l-.2.2-.6.4.2-.7c.8-3 1.8-5.9 3-8.8.4-1.1.8-2 1.1-2.6.1-.3.3-.6.5-.9-.1.3-.2.7-.3 1-.3.7-.6 1.6-1 2.6-.8 2.2-1.9 5.3-2.9 8.8l-.4-.3.3-.2c3.1-2 6.1-3.5 7.9-5.1 1.1-.8 2-1.8 2.7-2.9zM185.5 187.2c-.1-.2-.1-.5-.1-.7 0-.5-.1-1.2-.1-2.1-.1-1.9-.2-4.5-.4-7.7s-.3-7.1-.5-11.4c-.1-2.1-.1-4.4-.3-6.7-.1-2.3-.4-4.7-.6-7.2-1.6-19.3-2.7-33.1-3-35.8.1.2.2.5.2.7.1.5.2 1.2.3 2.1.2 1.8.5 4.4.8 7.7.6 6.5 1.4 15.4 2.2 25.3.2 2.5.4 4.9.6 7.2s.2 4.6.3 6.8c.1 4.3.3 8.1.4 11.4s.2 5.8.2 7.7v2.1c-.1.1 0 .4 0 .6zM155.6 111.4c.1 0-.6 1.4-1.5 3.8-1.8 4.8-2.9 9.8-3.2 14.9-.1 1.7 0 3.2-.2 4.5-.1 1-.7 2-1.5 2.6-.2.2-.5.3-.8.4h-.3c.3-.1.6-.3.9-.6.7-.7 1.2-1.6 1.3-2.5.2-1.2 0-2.8.1-4.4.1-1.8.3-3.7.6-5.5.6-3.3 1.5-6.5 2.8-9.6.5-1.2 1-2.1 1.3-2.7 0-.3.2-.6.5-.9z"/><path class="st5" d="M153.5 133.4c-.2-.9-.2-1.8-.2-2.8-.1-1.7-.1-4 0-6.6.1-2.6.3-4.9.5-6.6.1-.9.2-1.8.5-2.7.1.9 0 1.8-.1 2.8-.1 1.7-.2 4-.3 6.6-.1 2.6-.1 4.9-.2 6.6-.1.8-.1 1.7-.2 2.7zM154.6 112.8c-.9.1-1.8 0-2.6-.2-2.1-.4-4.1-1.1-6-2.1-1.9-1-3.6-2.3-5.1-3.8-.7-.6-1.2-1.3-1.7-2.1 2.1 2.1 4.4 3.9 7 5.4 2.6 1.3 5.5 2.3 8.4 2.8zM151.8 104c-.2.4-.2.8-.2 1.2.1.4.3.7.7.9.6.2 1.4-.1 1.6-.7.1-.3.1-.5 0-.8-.2-.4-.5-.6-.9-.7-.4-.1-.9-.1-1.2.1 0 0 0-.1.2-.3.3-.2.7-.3 1-.2.5.1 1 .4 1.3.8.3.6.1 1.4-.4 1.9s-1.2.7-1.9.3c-.5-.3-.8-.8-.8-1.3 0-.4.1-.7.2-1 .2-.2.4-.2.4-.2z"/><path class="st3" d="M203.6 118.1c.3-.1-.1 6.5-.1 6.5s-.7 4.2-5.9 3.9c-2.8.1-5.1-2.1-5.1-4.9v-.6l.3-4.9c2 .6 4.3-.3 5.3-2.1 0 0 2.4 3.9 5.5 2.1z"/><path class="st5" d="m264.7 100.3.3.6c.2.4.4 1 .8 1.8.7 1.6 1.6 4 2.9 7 2.4 6.1 5.9 14.9 10.2 25.5v.2c-.7 3.7-1.4 7.7-2.1 11.9-.3 2.2-1 4.3-2 6.2-.5 1-1.1 2-1.9 2.9-.4.5-.8.9-1.2 1.3-.4.4-.9.7-1.5 1-2.2 1-4.6 1.3-7 .8-1.2-.1-2.4-.5-3.5-1.1l-3.1-2c-4.2-2.7-8.3-5.7-12.1-9-3-2.7-5.7-5.6-8.1-8.8-2.4-3.1-4.7-6.2-6.8-9.3-4.2-6.2-8.1-12.1-12-17.3l-.1-.2.2-.1 11.9-11 .1-.1.1.1c6.8 7 12.4 12.6 16.3 16.5l4.4 4.5 1.1 1.2.4.4-.4-.4-1.2-1.1-4.5-4.4-16.4-16.4h.3L218 111.9v-.3c4 5.2 7.8 11.2 12 17.3 2.1 3.1 4.3 6.2 6.8 9.2 2.4 3.1 5.1 6.1 8.1 8.7 3.8 3.3 7.8 6.3 12 9l3 2c1 .6 2.1.9 3.3 1.1 2.3.5 4.6.2 6.7-.7.5-.2 1-.6 1.4-.9.4-.4.8-.8 1.1-1.2.7-.9 1.3-1.8 1.8-2.8 1-1.9 1.6-4 2-6.1.8-4.2 1.5-8.1 2.1-11.9v.1c-4.2-10.7-7.6-19.4-10-25.6l-2.7-7.1c-.3-.8-.5-1.4-.7-1.9l-.2-.5z"/><path class="st0" d="M241.8 91.4c-.4 4-4.9 11.8-6.3 14l-4.5-9-.6 4.5c-1.2-1.1-.1-7.5-.3-7.4l4.3-10.9 7.4 8.8z"/><path class="st5" d="M233.8 82.7c.3-.1.6-.1.9-.2 1.2 1.2 3.8 4.2 7.4 8.2l.1.1v.2c-.8 3.8-2.2 7.4-4.1 10.8-.7 1.3-1.5 2.6-2.3 3.7l-.3.4-.2-.4c-.9-2.3-2.1-4.3-3.1-6.2-.9-1.7-1.6-3.5-2.2-5.3h.3c-.8 1.8-1.4 3.2-1.9 4.3-.2.5-.5 1.1-.8 1.6.2-.6.4-1.1.6-1.6.5-1.1 1.1-2.6 1.8-4.4l.2-.5.1.5c.6 1.8 1.3 3.5 2.2 5.2 1 1.9 2.2 3.9 3.1 6.2h-.5c.8-1.2 1.6-2.4 2.3-3.7 1.9-3.3 3.3-6.9 4.1-10.7v.2c-3.5-4.1-6.1-7.1-7.1-8.4h.1-.7zM250.4 111.2c.5 2 .9 4.1 1.1 6.1.2 1.7.5 3.2.6 4.4 0 .4.1.9.1 1.3 0 .1 0 .3-.1.4-.1.1-.1 0-.1 0 .1.2 0-.6-.2-1.6s-.5-2.6-.7-4.4c-.5-2-.7-4.1-.7-6.2z"/><path class="st11" d="M221.3 100.3c-6.8.1-12.5-5.3-12.6-12.1v-.8c.1-2.4.2-4.1.2-4.1S199 82 198.7 72.1s.8-32.5.8-32.5c11.3-5.2 24.5-3.9 34.5 3.4l1.5 1.1-1.6 38.5s-4.3 14.4-7.6 16.5c-2 1.2-2.7 1.1-5 1.2z"/><path class="st12" d="M208.9 83.3c4.5-.1 9-1.6 12.7-4.1 0 0-3 7.2-12.8 6.5l.1-2.4z"/><path class="st11" d="M234.5 54.4c.2-.1 6.7-2.2 6.7 4.6s-6.8 5.3-6.8 5.1.1-9.7.1-9.7z"/><path class="st12" d="M236.5 61.5s.1.1.3.2c.3.1.6.1.9 0 .9-.6 1.4-1.6 1.4-2.6 0-.6-.1-1.2-.3-1.7-.1-.4-.5-.8-.9-.9-.3-.1-.6.1-.7.3-.1.2 0 .3-.1.3s-.1-.1-.1-.4c0-.2.1-.3.3-.4.2-.1.4-.2.6-.2.6.1 1 .5 1.2 1.1.3.6.4 1.2.4 1.9.1 1.2-.6 2.4-1.7 2.9-.4.1-.8 0-1.1-.2-.2-.1-.3-.2-.2-.3z"/><path class="st5" d="M203.2 55.3c0 .8.6 1.4 1.4 1.4.7 0 1.4-.5 1.4-1.2v-.1c0-.8-.6-1.4-1.4-1.4-.7 0-1.3.6-1.4 1.3zM201.6 53.4c.2.2 1.2-.6 2.7-.7s2.6.7 2.8.5-.1-.4-.6-.8c-.7-.4-1.5-.7-2.2-.6-.8 0-1.5.3-2.2.8-.4.4-.5.8-.5.8zM217.9 55.3c0 .8.6 1.4 1.4 1.4.7 0 1.4-.5 1.4-1.2v-.1c0-.8-.6-1.4-1.4-1.4-.7 0-1.3.6-1.4 1.3.1 0 .1 0 0 0zM216.5 53.3c.2.2 1.2-.6 2.7-.7s2.6.7 2.8.5-.1-.4-.6-.8c-.7-.4-1.5-.7-2.2-.6-.8 0-1.6.3-2.2.8-.4.4-.5.8-.5.8zM211.3 64.7c-.8-.2-1.6-.4-2.5-.4-.4 0-.8-.1-.8-.4 0-.4 0-.8.2-1.1.3-.9.7-1.9 1.1-3 1.5-4.2 2.5-7.7 2.4-7.8-.2-.1-1.5 3.3-3 7.6-.4 1-.7 2-1 3-.2.5-.3 1-.2 1.5.1.3.4.5.6.6.2.1.4.1.6.1 1 0 1.8 0 2.6-.1zM215.9 49.8c.2.4 1.7 0 3.5.1s3.3.4 3.5 0c.1-.2-.2-.5-.8-.9-1.7-.8-3.6-.9-5.3-.1-.7.3-1 .7-.9.9zM201.3 50.5c.3.4 1.5.1 2.9.2s2.6.4 2.9.1c.1-.2 0-.5-.5-.9-.7-.5-1.5-.7-2.3-.7-.8-.1-1.6.1-2.4.5-.6.3-.8.6-.6.8z"/><path class="st12" d="M215.5 67.9c-.4-.4-.9-.6-1.5-.6-.5 0-1.1.1-1.6.2-.6.1-1.2.4-1.6.9-.2.4-.3.8-.2 1.2.1.4.1 1.9 1 2.3h3.5c.5-.6.8-1.4.9-2.2.3-.6.1-1.3-.5-1.8z"/><path class="st5" d="M214.5 72h.4c.3-.1.6-.3.7-.7.1-.5.2-1.1.2-1.6.1-.6-.1-1.3-.5-1.8s-1.1-.3-1.8-.2c-.6.1-1.1.2-1.6.4-.9.4-1 1.1-1.1 1-.1-.1 0-.2.1-.4.2-.4.5-.7.9-.9.5-.3 1.1-.5 1.7-.6.3-.1.7-.1 1.1-.2.4 0 .9.2 1.2.5.5.6.7 1.4.6 2.2 0 .6-.1 1.2-.4 1.8-.2.4-.6.7-1 .7-.5 0-.6-.2-.5-.2zM227 46c-.3 1-.4 2.1-.1 3.1.3 1 1.4 1.6 2.4 1.3h.1c-.3 1-.5 2.1-.4 3.2.1 1.1.6 2.1 1.4 2.8.8.7 2 .9 3 .5 1-.5 1.5-1.6 1.2-2.7 1 .5 2.2.2 2.7-.8 0 0 0-.1.1-.1.4-1.1.2-2.2-.5-3.1 1 0 1.9-.8 2-1.8.1-1-.2-2-.8-2.8-.5-.8-1.2-1.5-1.8-2.3s-1-1.5-1.8-1.8c-.7-.1-1.4 0-2 .4-2.1 1-4.1 2.2-5.9 3.6M237.8 39.7s4.6.5 5.2-2.5c1.7-8.1-9.5-11.5-9.5-11.5s-3.9-1-10.3-3.4c-2.5-.9-4.8-2.1-7.1-3.4-2.1-1.3-4.7-1.2-6.7.1-3.7 2.4-7.6 4.4-11.8 5.8 0 0-4.4 1.1-4.3 6.8 0 2.6 4.4 4.6 4.4 4.6l40.1 3.5z"/><path class="st10" d="m237.1 44.2.8-4.7s-26.1-9.4-39.5-3.3v5.3l38.7 2.7z"/><path class="st5" d="M191.3 44.9s3.2 2.6 10.3 3c12.9.7 33.9-3.8 33.9-3.8l-37.3-2.6-6.9 3.4z"/><path class="st0" d="M215.7 28.4c.2-.1-.1 5.9-.1 5.9s-.6 3.8-5.3 3.5c-2.5.1-4.6-1.9-4.6-4.4v-.6l.3-4.4c1.8.6 3.8-.2 4.8-1.9-.1 0 2.1 3.5 4.9 1.9z"/><path class="st10" d="M236.9 44.3c-.4.1-.7.2-1.1.2l-3 .5c-2.6.4-6.1 1-10 1.6s-7.5.9-10.1 1.1c-1.3.1-2.4.1-3.1.1h-1.2c.4-.1.7-.1 1.1-.2l3.1-.3c2.6-.2 6.1-.7 10-1.2s7.5-1.1 10-1.4c1.3-.2 2.3-.3 3.1-.3.5-.1.9-.1 1.2-.1z"/><path class="st3" d="M210.6 70.7v6.9h3.9v-6.8z"/><path class="st11" d="M215.4 73.6s-.8.7-.7 2.8 2.2 3.9 2.2 3.9V82l-6.5-7.4s-.6-1-1.6-.7c-1.5.4-2.4 1.9-2 3.3.1.3.2.7.4.9-1.1.4-1.8 1.6-1.7 2.8 0 0-2.7-.9-2.7 2.2v1.8c-.5-.4-1.3-.4-1.8 0-.9.8-.7 3-.4 4s7.6 11.3 9.9 12.4c1.4.6 2.6 1.5 3.8 2.5l5 6.1 9.3-8.8s-5.7-5.6-6-6.7.7-4.5.6-5.8c-.2-2.5-.5-4.9-1-7.4-.2-.8-6.8-7.6-6.8-7.6z"/><path class="st12" d="M219.5 110.1c-.1-.1-.3-.2-.4-.4l-1-1.2-3.8-4.5c-.6-.5-1.2-1-1.9-1.4-.4-.2-.7-.4-1.1-.7-.4-.2-.8-.4-1.2-.7-1.6-1.4-3-2.9-4.3-4.6-1.4-1.8-2.9-3.7-4.3-5.8-.4-.5-.7-1.1-1-1.8-.2-.7-.2-1.3-.2-2s.2-1.5.6-2.1c.3-.3.7-.5 1.1-.5.4 0 .8.1 1.1.4l-.4.2v-1.5c0-.5 0-1.1.2-1.6.2-.6.6-1 1.1-1.2.6-.2 1.1-.2 1.7 0l-.3.2c0-.6.1-1.2.4-1.8.3-.6.8-1 1.5-1.2l-.2.4c-.3-.5-.5-1.2-.6-1.8 0-.7.2-1.3.7-1.8.4-.5 1-.9 1.6-1.1.4-.1.8-.1 1.1.1.3.2.6.4.8.7l.2.2c2.2 2.4 4.3 4.8 6.4 7.2l-.5.2v-1.8l.1.2c-1-.9-1.7-2-2.1-3.3-.2-.6-.2-1.3-.1-1.9 0-.7.3-1.3.8-1.8l.1-.2.2.2c1.7 1.7 3.3 3.4 4.7 5 .7.8 1.4 1.6 2.1 2.5.1.3.2.5.3.8 0 .2.1.5.1.8l.2 1.5c.1 1 .2 2 .3 2.9 0 .5.1.9.1 1.4.1.5.1.9 0 1.4-.4 1.5-.6 3.1-.7 4.7.1.3.3.6.5.9.2.3.4.5.6.8.4.5.8.9 1.2 1.4l2 2.1 1.1 1.3c.2.1.3.3.4.5-.2-.1-.3-.3-.5-.4l-1.3-1.3c-.5-.6-1.2-1.2-2-2.1-.4-.4-.8-.9-1.2-1.4-.2-.2-.4-.5-.6-.8-.3-.3-.4-.6-.5-1-.1-1.5.4-3.1.6-4.8.1-.9 0-1.8-.1-2.6-.1-.9-.2-1.9-.4-2.9-.1-.5-.1-1-.2-1.5 0-.2-.1-.5-.1-.8 0-.2-.1-.5-.2-.7-.6-.9-1.3-1.7-2-2.4-1.5-1.6-3.1-3.3-4.8-5h.3c-.3.4-.5 1-.6 1.5-.1.6 0 1.2.1 1.8.4 1.2 1.1 2.2 2 3l.1.1v2.6l-.5-.5-6.4-7.2-.2-.2c-.2-.5-.8-.7-1.3-.6-.5.2-1 .5-1.4.9-.4.4-.6.9-.5 1.5 0 .5.2 1.1.5 1.5l.1.3-.3.1c-.5.2-.9.5-1.2 1-.2.5-.3 1-.3 1.5v.3l-.3-.1c-.4-.1-.9-.1-1.4 0-.4.2-.7.5-.8.9-.1.5-.2.9-.1 1.4v2l-.4-.3c-.4-.4-1.1-.4-1.6 0-.4.5-.5 1.1-.5 1.8 0 .6.1 1.3.2 1.9.3.6.6 1.1.9 1.6 1.4 2.1 2.8 4.1 4.2 5.8 1.2 1.7 2.6 3.2 4.2 4.6.2.1.4.2.6.4l.6.3c.4.2.8.4 1.1.7.7.4 1.3.9 1.9 1.5l3.7 4.6 1 1.2c.2.2.3.3.4.5z"/><path class="st12" d="M211.9 84c-1-.8-1.9-1.8-2.6-2.8-.9-.9-1.6-2-2.2-3.2 1 .8 1.9 1.8 2.6 2.8.8.9 1.6 2 2.2 3.2zM208.4 85.3c-.1.1-1-.7-1.8-1.9-.5-.7-.9-1.6-.9-2.4.1-.1.6 1 1.4 2.2.5.6.9 1.3 1.3 2.1zM204.2 87.9c-.1.1-.6-.5-1-1.3s-.7-1.5-.5-1.6.6.5 1 1.3.6 1.5.5 1.6z"/><path class="st5" d="M189.3 131.4h17.9v3.9h-17.9z"/><path class="st10" d="M182.5 189.6s.6 14.2 32.5 13.1 44.6-13.1 44.6-13.1v14.9s-34.5 13.7-58.4 10.3c-18.7-2.7-23-10.3-23-10.3l4.3-14.9z"/><path class="st10" d="M203 223.4c-2.7 0-4.8-2.2-4.8-4.8v-20.1c0-2.7 2.2-4.8 4.8-4.8 2.7 0 4.8 2.2 4.8 4.8v20.1c.1 2.7-2.1 4.8-4.8 4.8z"/><path class="st5" d="M203 223.4c.2-.1.5-.1.7-.1.7-.1 1.3-.4 1.9-.8.9-.6 1.5-1.5 1.9-2.5.2-.6.3-1.3.2-2v-20.1c-.2-2.5-2.5-4.4-5-4.1-2.2.2-3.9 1.9-4.1 4.1-.1 2.2 0 4.5 0 6.6 0 4.2 0 8-.1 11.2v2.3c-.1.7 0 1.4.2 2 .3 1 1 1.9 1.9 2.5.6.4 1.2.6 1.9.8.2 0 .5.1.7.1h-.7c-.7-.1-1.4-.3-2-.7-.9-.6-1.6-1.5-2-2.6-.2-.6-.3-1.3-.3-2v-2.3c0-3.2 0-7-.1-11.2v-6.7c.3-2.6 2.4-4.6 5.1-4.6 1.2 0 2.4.5 3.3 1.3.9.8 1.5 2 1.6 3.2v6.7c0 4.2 0 8-.1 11.2v2.3c0 .7-.1 1.4-.3 2-.4 1.1-1.1 2-2 2.6-.6.4-1.3.6-2 .7-.2.1-.4.2-.7.1z"/><path class="st10" d="M203 201.2c-.6.1-1.1.6-1.1 1.1-.1.6.3 1.1.9 1.3.6.1 1.3-.3 1.4-.9.1-.7-.3-1.3-1-1.5h-.2"/><path class="st5" d="M203 201.2s.1-.1.3 0c.3 0 .6.2.8.4.3.4.4.9.3 1.3-.2.6-.7.9-1.3 1-.6 0-1.2-.3-1.4-.9-.2-.5-.1-1 .2-1.3.6-.6 1.1-.5 1.1-.5 0 .1-.4.2-.8.7-.2.3-.2.6-.1.9.1.4.5.6.9.6.4-.1.7-.3.9-.6.1-.3 0-.7-.1-.9-.3-.6-.8-.6-.8-.7z"/><path class="st10" d="M203 213.1c-.6.1-1.1.5-1.2 1.1-.1.6.3 1.1.9 1.3.7.1 1.3-.3 1.4-1 .1-.7-.3-1.3-1-1.5.1.1 0 .1-.1.1"/><path class="st5" d="M203 213.1s.1-.1.3 0c.3 0 .6.2.8.4.3.4.4.8.3 1.3-.2.6-.7.9-1.3 1-.6 0-1.2-.3-1.4-.9-.2-.5-.1-1 .2-1.3.7-.6 1.2-.5 1.1-.5 0 0-.4.1-.7.7-.2.3-.2.6-.1.9.1.4.5.6.9.6.4-.1.7-.3.9-.6.1-.3 0-.7-.1-.9-.4-.6-.9-.6-.9-.7z"/><path class="st10" d="M190.5 222.5c-2.7 0-4.8-2.2-4.8-4.8v-20.1c0-2.7 2.2-4.8 4.8-4.8 2.7 0 4.8 2.2 4.8 4.8v20.1c0 2.6-2.2 4.8-4.8 4.8z"/><path class="st5" d="M190.5 222.5s.2 0 .7-.1c.7-.1 1.3-.4 1.9-.8.9-.6 1.6-1.5 1.9-2.5.2-.6.3-1.3.2-2V197c-.2-2.5-2.5-4.4-5-4.1-2.2.2-3.9 1.9-4.1 4.1v6.6c0 4.2 0 8-.1 11.2v2.3c-.1.7 0 1.4.2 2 .3 1 1 1.9 1.9 2.5.6.4 1.2.6 1.9.8.5.1.7.1.7.1h-.7c-.7-.1-1.4-.3-2-.7-.9-.6-1.6-1.5-2-2.6-.2-.7-.3-1.4-.3-2.1v-2.3c0-3.2 0-7-.1-11.2v-6.7c.1-1.2.7-2.4 1.6-3.2 2-1.8 5-1.8 6.9 0 .9.8 1.5 2 1.6 3.2.1 2.4 0 4.5 0 6.7 0 4.2 0 8-.1 11.2v2.3c0 .7-.1 1.4-.3 2.1-.4 1.1-1.1 2-2 2.6-.6.4-1.3.6-2 .7h-.8z"/><path class="st10" d="M190.5 201.2c-.6.1-1.1.6-1.1 1.1-.1.6.3 1.1.9 1.3.6.1 1.3-.3 1.4-.9.1-.7-.3-1.3-1-1.5h-.2"/><path class="st5" d="M190.5 201.2s.1-.1.3 0c.3 0 .6.2.8.4.3.4.4.9.3 1.3-.2.6-.7.9-1.3 1-.6 0-1.2-.3-1.4-.9-.2-.5-.1-1 .2-1.3.5-.6 1.1-.5 1.1-.5 0 .1-.4.2-.8.7-.2.3-.2.6-.1.9.1.4.5.6.9.6.4-.1.7-.3.9-.6.1-.3 0-.7-.1-.9-.4-.6-.9-.6-.8-.7z"/><path class="st10" d="M185.5 206.7c3 2 6.8 2.3 10 .8"/><path class="st5" d="M195.4 207.4c-.4.3-.9.6-1.4.7-2.4.8-5.1.6-7.4-.6-.9-.5-1.3-.9-1.2-.9 1.6.7 3.2 1.2 4.9 1.4 1.7.1 3.5-.1 5.1-.6z"/><path class="st10" d="M258.5 212.7c-2.7 0-4.8-2.2-4.8-4.8v-20.1c0-2.7 2.1-4.9 4.8-4.9 2.7 0 4.8 2.2 4.8 4.8v20.2c0 2.6-2.1 4.8-4.8 4.8z"/><path class="st5" d="M258.5 212.7c.2 0 .5-.1.7-.1.7-.1 1.3-.4 1.9-.8.9-.6 1.5-1.5 1.9-2.5.2-.6.3-1.3.2-2v-20.1c-.2-2.5-2.5-4.4-5-4.1-2.2.2-3.9 1.9-4.1 4.1v6.6c0 4.2 0 8-.1 11.2v2.3c0 .7 0 1.4.2 2 .3 1 1 1.9 1.9 2.5.6.4 1.2.6 1.9.8.2 0 .5.1.7.1h-.7c-.7-.1-1.4-.3-2-.7-.9-.6-1.6-1.5-2-2.6-.2-.6-.3-1.3-.3-2v-20.2c.3-2.8 2.8-4.8 5.6-4.5 2.4.3 4.3 2.1 4.5 4.5v6.7c0 4.2 0 8-.1 11.2v2.3c0 .7-.1 1.4-.3 2-.4 1.1-1.1 2-2 2.6-.6.4-1.3.6-2 .7h-.9z"/><path class="st10" d="M258.5 190.4c-.6.1-1.1.5-1.1 1.1-.1.6.3 1.1.9 1.3.6.1 1.3-.3 1.4-.9.1-.7-.3-1.3-1-1.5-.1.1-.2.1-.2 0"/><path class="st5" d="M258.5 190.4s.1-.1.3 0c.3 0 .6.2.8.4.3.4.4.9.3 1.3-.2.6-.7.9-1.3 1-.6 0-1.2-.3-1.4-.9-.2-.5-.1-1 .2-1.3.5-.6 1.1-.5 1.1-.5 0 .1-.4.2-.8.7-.2.3-.2.6-.1.9.1.4.5.6.9.6.4-.1.7-.3.9-.6.1-.3 0-.7-.1-.9-.4-.5-.8-.5-.8-.7z"/><path class="st10" d="M258.5 202.4c-.6.1-1 .5-1.1 1.1-.1.6.3 1.2.9 1.3.7.1 1.3-.4 1.4-1 .1-.7-.3-1.3-1-1.5-.1 0-.2 0-.2.1"/><path class="st5" d="M258.5 202.4s.1-.1.3 0c.3 0 .6.2.8.4.3.4.4.9.3 1.3-.2.6-.7.9-1.3 1-.6 0-1.2-.3-1.4-.9-.1-.5 0-1 .3-1.4.5-.6 1-.5 1-.4 0 .1-.4.2-.7.7-.2.3-.2.6-.1.9.1.4.5.6.9.6.4-.1.7-.3.9-.6.1-.3 0-.7-.1-.9-.4-.6-.9-.6-.9-.7z"/><path class="st10" d="M245.5 217.3c-2.7 0-4.8-2.2-4.8-4.8v-20.1c0-2.7 2.2-4.8 4.8-4.8 2.7 0 4.8 2.2 4.8 4.8v20.1c0 2.7-2.2 4.8-4.8 4.8z"/><path class="st5" d="M245.5 217.3s.2 0 .7-.1c.7-.1 1.3-.4 1.9-.8.9-.6 1.6-1.5 1.9-2.5.2-.6.3-1.3.2-2v-2.3c0-3.2 0-7-.1-11.2v-6.6c-.3-2.3-2.3-4.1-4.6-4-1.2 0-2.3.4-3.1 1.2-.8.8-1.3 1.8-1.5 2.9V212c-.1.7 0 1.4.2 2 .3 1 1 1.9 1.9 2.5.6.4 1.2.6 1.9.8.4.1.6.1.6 0-.2.1-.4.1-.7.1-.7-.1-1.4-.3-2-.7-.9-.6-1.6-1.5-2-2.6-.2-.7-.3-1.4-.3-2.1v-2.3c0-3.2 0-7-.1-11.2v-6.7c.3-2.6 2.5-4.6 5.1-4.6 1.3 0 2.5.5 3.5 1.4.8.8 1.4 1.9 1.5 3.1v20.2c0 .7-.1 1.4-.3 2.1-.4 1.1-1.1 2-2 2.6-.6.4-1.3.6-2 .7-.3 0-.5.1-.7 0z"/><path class="st10" d="M245.4 196.1c-.6.1-1.1.5-1.2 1.1-.1.6.3 1.1.9 1.3.7.1 1.3-.3 1.5-1 .1-.7-.3-1.3-1-1.5-.1 0-.1 0-.2.1"/><path class="st5" d="M245.4 196.1s.1-.1.3 0c.3 0 .6.2.8.4.3.4.4.9.3 1.3-.2.6-.7.9-1.3 1-.6 0-1.2-.3-1.4-.9-.2-.5-.1-1 .2-1.3.6-.6 1.1-.5 1.1-.5 0 .1-.4.2-.8.7-.2.3-.2.6-.1.9.1.4.5.6.9.6.4-.1.7-.3.9-.6.1-.3 0-.7-.1-.9-.3-.6-.8-.6-.8-.7z"/><path class="st10" d="M240.4 201.5c3 2 6.8 2.3 10 .8"/><path class="st5" d="M250.4 202.3c-.4.3-.9.6-1.4.7-2.4.8-5.1.6-7.4-.6-.9-.5-1.3-.9-1.2-.9 1.6.7 3.2 1.2 4.9 1.4 1.7.1 3.4-.1 5.1-.6z"/><path class="st10" d="M178.4 228.9c-2.8 0-5-2.3-4.9-5.1l.6-36.6c0-2.8 2.3-5 5.1-4.9 2.8 0 5 2.3 4.9 5.1l-.6 36.6c-.1 2.8-2.3 5-5.1 4.9z"/><path class="st5" d="M178.4 228.9s.4 0 1-.1c1-.2 1.9-.7 2.6-1.5.5-.5.9-1.2 1.1-1.8.2-.8.3-1.7.2-2.5 0-1.9 0-4 .1-6.4.1-4.8.1-10.4.2-16.6 0-3.1.1-6.4.1-9.8v-2.6c0-.8-.2-1.7-.6-2.4-1.2-2.3-4.1-3.2-6.4-2-.8.4-1.5 1.1-1.9 1.9-.4.7-.6 1.5-.6 2.4v2.6c-.1 3.4-.1 6.7-.2 9.8-.1 6.2-.2 11.9-.3 16.6 0 2.4-.1 4.5-.1 6.4-.1.9 0 1.7.2 2.6.2.7.5 1.3 1 1.9.7.8 1.5 1.3 2.5 1.5.7.2 1 .1 1 .2-.4 0-.7 0-1.1-.1-1-.2-1.9-.7-2.6-1.5-.5-.6-.9-1.2-1.1-1.9-.2-.9-.3-1.8-.2-2.6 0-1.9 0-4 .1-6.4 0-4.8.1-10.4.2-16.6 0-3.1.1-6.4.1-9.8v-2.6c0-.9.2-1.8.7-2.6 1.4-2.5 4.7-3.4 7.2-2 .9.5 1.6 1.2 2.1 2.1.4.8.6 1.7.6 2.6v2.6c-.1 3.4-.1 6.7-.2 9.8-.1 6.2-.2 11.9-.3 16.6-.1 2.4-.1 4.5-.1 6.4 0 .9-.1 1.8-.3 2.6-.2.7-.7 1.4-1.2 1.9-.7.7-1.7 1.2-2.7 1.4-.5-.1-.8 0-1.1-.1zM214.8 202l.9 13.5c.1.9.9 1.6 1.8 1.6l9.4-.6c.9-.1 1.6-.9 1.6-1.8l-.9-13.5c-.1-.9-.9-1.6-1.8-1.6l-9.4.6c-1 .1-1.7.9-1.6 1.8zm10.1 12.7-6 .4c-.9.1-1.7-.6-1.8-1.5l-.6-9.5c-.1-.9.6-1.7 1.6-1.8l6-.4c.9-.1 1.7.6 1.8 1.6l.6 9.5c0 .9-.7 1.7-1.6 1.7z"/><path class="st5" d="M230.7 206.6c-1.5-.5-3-.7-4.6-.7-1.5.2-3.1.5-4.5 1.1 0 0 .4-.4 1.2-.8 1-.5 2.2-.8 3.3-.9 1.1-.1 2.3.1 3.4.5.8.4 1.2.8 1.2.8zM231 210.1c-2.9-1.1-6.1-.9-8.8.6 0 0 .3-.4 1.1-.9 2-1.1 4.4-1.3 6.5-.5.8.4 1.2.8 1.2.8z"/></g><g id="error-403--inject-36"><path transform="rotate(-5.321 481.084 127.237) scale(1.00001)" class="st6" d="M377.3 23.4h207.6V231H377.3z"/><path class="st5" d="M594.1 221s0-.3-.1-1-.2-1.6-.3-2.9c-.2-2.5-.6-6.2-1.1-11.1-.9-9.7-2.3-23.9-4-42-3.4-36.2-8.3-87.8-14.1-149.7l.3.3-206.6 19.2.3-.4 19.2 206.7-.3-.3L537.2 226l42-3.8 11.1-1 2.8-.2h1l-.9.1-2.8.3-11 1.1-42 4-149.9 14.1h-.3v-.3c-5.6-60.1-12.2-131-19.3-206.7v-.3h.3L574.8 14h.3v.3c5.7 62 10.5 113.7 13.8 150 1.7 18.1 2.9 32.3 3.8 42 .4 4.8.8 8.5 1 11 .1 1.2.2 2.2.2 2.8s.2.9.2.9z"/><path transform="rotate(-5.321 382.733 30.863) scale(1.00001)" class="st0" d="M378.2 19.8h9.1v22.1h-9.1z"/><path transform="rotate(-5.321 401.995 237.699) scale(1.00001)" class="st0" d="M397.4 226.6h9.1v22.1h-9.1z"/><path transform="rotate(-5.321 563.763 13.995) scale(1.00001)" class="st0" d="M559.2 2.9h9.1V25h-9.1z"/><path transform="rotate(-5.321 583.143 222.264) scale(1.00001)" class="st0" d="M578.6 211.2h9.1v22.1h-9.1z"/><circle transform="rotate(-45.001 477.307 86.436)" class="st6" cx="477.3" cy="86.4" r="45.4"/><path class="st3" d="M477.2 132.5c-25.4-.1-46-20.7-45.9-46.1s20.7-46 46.1-45.9c23.7 0 43.5 18.1 45.7 41.7 2.3 25.3-16.3 47.7-41.6 50.1-1.4.1-2.8.2-4.3.2zm.1-90.9c-1.4 0-2.8.1-4.2.2-24.6 2.3-42.6 24.1-40.3 48.7 2.3 24.6 24.1 42.6 48.7 40.3 24.6-2.3 42.6-24.1 40.3-48.7-2.1-23-21.4-40.5-44.5-40.5z"/><path class="st3" d="M498.4 81.2c-1-1.5-3-1.9-4.4-.9-.3.2-.5.4-.7.6-.6 1-1.1 2-1.4 3.1-.9 2.8-1.7 5.5-2.5 8.3-.1.3-.4.5-.7.8-.2-.3-.5-.6-.5-.9-.2-1.6-.4-3.2-.5-4.7-.3-3.1-.5-6.2-.8-9.3-.5-5.2-1-10.4-1.5-15.7-.1-.6-.3-1.2-.7-1.6-.9-.9-2.3-1.2-3.5-.6-1.1.6-1.7 1.8-1.6 3 .5 5.5 1 11.1 1.5 16.6v.8c-.1.2-.3.5-.5.5s-.4-.2-.6-.4c-.1-.2-.1-.5-.1-.8L478 60.7c0-.4-.1-.8-.1-1.2-.1-1-1-1.8-2-1.9-1.6-.4-3.2.5-3.7 2.1-.1.4-.1.9-.1 1.3.6 6.3 1.2 12.7 1.8 19v1.1c-.1.2-.2.4-.5.5-.2 0-.5-.2-.6-.4-.1-.3-.2-.7-.2-1-.5-5.1-.9-10.2-1.4-15.2-.2-1.6-1.7-2.7-3.3-2.5-1.5.2-2.6 1.5-2.5 3.1l1.5 16.2c.1.3.1.7.1 1-.1.3-.3.6-.5.8-.2-.2-.6-.5-.7-.7-.2-1.9-.4-3.9-.5-5.9s-.4-4.2-.6-6.2c-.2-1.5-1.5-2.6-3-2.4h-.2c-1.4.1-2.5 1.3-2.4 2.7v.2c.3 4.1.5 8.1.8 12.2.2 2.5.4 5 .5 7.4.1 5 1.3 9.8 3.3 14.4 1.8 4.2 5.5 7.1 10 7.9 4.9.9 10-.1 14.1-2.8 2.9-1.7 5.1-4.5 6-7.7 1.7-6.3 3.2-12.6 4.7-18.9.3-.9.3-1.8-.1-2.6z"/><path class="st5" d="m433.5 200.4.1 1.5-8.6.8-1.1-11.9 8.4-.8.1 1.5-6.7.6.3 3.6 6-.6.1 1.4-6 .6.4 3.8 7-.5zM440.1 192.2l.1 1.6h-.4c-1.7.2-2.7 1.3-2.5 3.3l.4 4.5-1.6.1-.8-9 1.6-.1.1 1.5c.6-1.2 1.8-2 3.1-1.9zM447 191.5l.1 1.6h-.4c-1.8.2-2.7 1.3-2.5 3.3l.4 4.5-1.6.1-.8-9 1.6-.1.1 1.5c.5-1.2 1.7-1.9 3.1-1.9zM448.5 196c-.3-2.6 1.6-4.9 4.2-5.2s4.9 1.6 5.2 4.2-1.6 4.9-4.2 5.2h-.1c-2.5.3-4.7-1.4-5.1-3.8v-.4zm7.7-.7c-.3-1.6-1.8-2.8-3.4-2.5-1.6.3-2.8 1.8-2.5 3.4.2 1.6 1.6 2.7 3.2 2.5 1.7-.1 2.9-1.6 2.7-3.2v-.2zM464.5 189.9l.1 1.6h-.4c-1.7.2-2.7 1.3-2.5 3.3l.4 4.5-1.6.1-.8-9 1.6-.1.1 1.5c.5-1.2 1.7-1.9 3.1-1.9zM473 187.8l.4 4.1 6-.6.1 1.5-6 .6.5 4.8-1.7.2-1.1-11.9 8.4-.8.1 1.5-6.7.6zM481.2 192.9c-.3-2.6 1.6-4.9 4.2-5.2s4.9 1.6 5.2 4.2c.3 2.6-1.6 4.9-4.2 5.2h-.1c-2.5.3-4.7-1.4-5.1-3.8.1-.1 0-.2 0-.4zm7.7-.7c-.3-1.6-1.8-2.8-3.4-2.5s-2.8 1.8-2.5 3.4c.2 1.6 1.6 2.7 3.2 2.5 1.7-.1 2.9-1.6 2.8-3.2 0 0 0-.1-.1-.2zM497.2 186.8l.2 1.6h-.4c-1.7.2-2.7 1.3-2.5 3.3l.4 4.5-1.6.1-.8-9 1.6-.1.1 1.5c.5-1.2 1.7-1.9 3-1.9zM509 190.4c.3 2.4-1.3 4.6-3.7 5h-.4c-1.2.2-2.5-.3-3.3-1.2l.1 1.4-1.6.1-1.2-12.6 1.6-.1.5 5c.7-1 1.8-1.7 3-1.7 2.4-.3 4.6 1.3 4.9 3.7.1.1.1.2.1.4zm-1.7.1c-.3-1.6-1.8-2.8-3.4-2.5-1.6.3-2.8 1.8-2.5 3.4.2 1.5 1.6 2.7 3.2 2.5 1.7-.1 2.9-1.6 2.8-3.2 0 0-.1-.1-.1-.2zM510.3 182.9c-.1-.6.4-1.1 1-1.2.6-.1 1.1.3 1.2.9.1.6-.4 1.1-.9 1.2h-.1c-.6.1-1.1-.3-1.2-.9zm.5 2.8 1.6-.1.8 9-1.6.1-.8-9zM523.7 180.8l1.2 12.6-1.6.1-.1-1.4c-.7 1.1-1.8 1.8-3.1 1.8-2.5.2-4.8-1.6-5-4.2-.2-2.5 1.6-4.8 4.2-5 1.2-.2 2.4.3 3.3 1.1l-.5-5h1.6zm-.9 8.3c-.3-1.6-1.8-2.8-3.4-2.5-1.6.3-2.8 1.8-2.5 3.4.2 1.5 1.6 2.6 3.2 2.5 1.7-.1 2.9-1.6 2.7-3.2.1-.1 0-.2 0-.2zM535.2 179.8l1.2 12.6-1.6.1-.1-1.4c-.7 1.1-1.8 1.8-3.1 1.8-2.5.2-4.8-1.7-5-4.2-.2-2.5 1.6-4.7 4.1-5 1.2-.2 2.4.3 3.3 1.1l-.5-4.9 1.7-.1zm-.8 8.2c-.3-1.6-1.8-2.8-3.4-2.5s-2.8 1.8-2.5 3.4c.2 1.6 1.6 2.7 3.2 2.5 1.7-.1 2.9-1.6 2.8-3.2-.1-.1-.1-.1-.1-.2zM547.2 187.4l-7.3.7c.3 1.6 1.9 2.6 3.5 2.3 1-.1 1.9-.5 2.5-1.3l1 1c-1.7 2.1-4.8 2.4-6.9.7-.9-.8-1.6-1.9-1.7-3.1-.3-2.4 1.4-4.6 3.8-5h.3c2.4-.3 4.6 1.4 4.8 3.8v.9zm-7.4-.5 5.8-.5c-.3-1.6-1.9-2.6-3.5-2.2-1.3.2-2.2 1.3-2.3 2.7zM557.9 185.1l.5 5.2-1.6.2-.5-5c-.2-1.8-1.1-2.6-2.7-2.4-1.5 0-2.7 1.2-2.6 2.7 0 .2 0 .4.1.5l.4 4.6-1.6.1-.8-9 1.6-.1.1 1.4c.7-1.1 1.9-1.7 3.1-1.7 2.1-.2 3.8.9 4 3.5zM464.7 171l-6.7.6.8 8.6-6.8.6-.8-8.6-20.7 1.9-.5-4.9 16.4-26.1 7.5-.7-15.4 24.9 12.4-1.2-.7-7.6 6.6-.6.7 7.6 6.7-.6.5 6.1zM466.7 160.4c-1.1-12.4 5-20.1 14-20.9s16.5 5.6 17.6 18-5 20.1-14 20.9-16.5-5.6-17.6-18zm24.5-2.2c-.8-9.1-4.8-13-10-12.5s-8.3 5-7.5 14.2 4.8 13 9.9 12.5 8.5-5.1 7.6-14.2zM530 162.2c.6 6.4-3.7 12.3-13.9 13.3-5.3.5-10.8-.6-14.6-3.1l2.5-5.7c3.4 2.2 7.4 3.1 11.4 2.7 5-.5 7.8-3 7.5-6.5s-3-5.4-8.7-4.9l-3.5.3-.5-4.8 7.6-11-17.2 1.6-.5-5.9 25.8-2.4.4 4.7-8.2 11.8c7.4.3 11.4 4.2 11.9 9.9z"/></g></svg>