<svg version="1.1" id="Layer_1" xmlns="http://www.w3.org/2000/svg" x="0" y="0" viewBox="0 0 446.7 442.2" style="enable-background:new 0 0 446.7 442.2" xml:space="preserve"><style>.st0{fill:#ebebeb}.st1{fill:#f5f5f5}.st2{fill:#e0e0e0}.st3{fill:#263238}.st4{fill:#0061f2}.st5{opacity:.3}.st6{fill:#fff}.st7{opacity:.7}</style><g id="background-complete--inject-1"><path class="st0" d="M66.6 277.7c.2-2 .9-4 2.2-5.5 1.2-1.6 2.9-2.8 4.8-3.4 3.4-1 6.9.5 8.7 3.5 1.5-3 4.8-4.7 8.1-4.2 2 .4 3.8 1.3 5.2 2.8 1.5 1.4 2.5 3.2 2.9 5.2.5 2.6.1 5.2-1 7.5-1.4 2.4-3.3 4.4-5.6 5.9-3.7 2.5-8.6 5.8-8.6 5.8s-4.5-3-8.5-5c-2.5-1.2-4.6-3-6.2-5.2-1.5-2.2-2.2-4.8-2-7.4zM345.3 167.2c.2-2 .9-4 2.2-5.6 1.2-1.6 2.9-2.8 4.8-3.4 3.4-1 6.9.5 8.7 3.5 1.5-3 4.8-4.7 8.1-4.2 2 .4 3.8 1.3 5.2 2.8 1.5 1.4 2.5 3.2 2.9 5.2.5 2.6.1 5.2-1.1 7.5-1.4 2.4-3.3 4.4-5.6 5.9-3.7 2.6-8.6 5.8-8.6 5.8s-4.5-3-8.5-5c-2.5-1.2-4.6-3-6.2-5.2-1.4-2-2.1-4.6-1.9-7.3z"/><path class="st1" d="M93.6 252.9c.1-1.3.6-2.5 1.4-3.6.8-1 1.9-1.8 3.1-2.2 1.3-.4 2.7-.2 3.9.5.7.4 1.3 1 1.7 1.7 1-1.9 3.1-3 5.2-2.7 1.3.2 2.4.8 3.3 1.8.9.9 1.6 2.1 1.8 3.4.3 1.6.1 3.3-.7 4.8-.9 1.5-2.1 2.8-3.6 3.8-2.4 1.6-5.5 3.7-5.5 3.7s-2.9-1.9-5.4-3.2c-1.6-.8-3-1.9-4-3.3-.8-1.4-1.3-3.1-1.2-4.7zM328.1 191.7c.1-1.3.6-2.5 1.4-3.6.8-1 1.9-1.8 3.1-2.1 2.2-.6 4.4.3 5.6 2.2.3-.7.8-1.2 1.4-1.7 1.1-.8 2.5-1.2 3.8-1 1.3.2 2.4.9 3.3 1.8.9.9 1.6 2.1 1.8 3.4.3 1.6.1 3.3-.7 4.8-.9 1.5-2.1 2.8-3.6 3.8-2.4 1.6-5.5 3.7-5.5 3.7s-2.9-1.9-5.4-3.2c-1.6-.8-3-1.9-4-3.3-.8-1.5-1.3-3.1-1.2-4.8z"/><path class="st0" d="M378.7 242.3c.1-1.3.6-2.5 1.4-3.6.8-1 1.9-1.8 3.1-2.2 1.3-.4 2.7-.2 3.9.5.7.4 1.3 1 1.7 1.7 1-1.9 3.1-3 5.2-2.7 1.3.2 2.4.9 3.3 1.8.9.9 1.6 2.1 1.8 3.4.3 1.6.1 3.3-.7 4.8-.9 1.5-2.1 2.8-3.6 3.8-2.4 1.6-5.5 3.7-5.5 3.7s-2.9-1.9-5.4-3.2c-1.6-.8-3-1.9-4-3.3-.9-1.4-1.3-3.1-1.2-4.7z"/><path class="st1" d="M100.3 294.3c.1-.9.4-1.7.9-2.3.5-.7 1.2-1.2 2-1.4.9-.2 1.8-.1 2.6.4.5.3.8.7 1.1 1.1.2-.4.5-.8.9-1.1.7-.6 1.6-.8 2.5-.6.8.1 1.6.6 2.2 1.2.6.6 1.1 1.4 1.2 2.2.2 1.1 0 2.2-.4 3.2-.6 1-1.4 1.9-2.4 2.5-1.6 1.1-3.6 2.4-3.6 2.4s-1.9-1.2-3.6-2.1c-1-.5-1.9-1.3-2.6-2.2-.6-1.1-.9-2.2-.8-3.3z"/><path class="st0" d="M46.2 52.3s-4.6 4 5.4 13.2c5.1 4.8 10.4 9.3 16.1 13.4 0 0 2 2.3-.1 3.5s-7.2 2.2-7.2 5.3 3 5.1 8.1 5.9 16 3 16.9 3.2 2.2 1.1.9 2.2-11.9 6.3-9.1 11.1 17.1 4.8 18.7 4.8 2.1.5 2.3 1.3-3.6 2.2-6.5 3.8-6.1 4-4.3 6.7c1.8 2.7 11.6 6.1 30.5 1.2l8.6-2.9 2-8.9c3.1-19.2-1.3-28.6-4.2-30.2s-4.9 1.8-6.2 4.9-2.4 6.9-3.2 6.9-1.3-.6-1.5-2.2-1.5-15.8-6.6-18.1-9.3 8.8-10.2 10.1-2 .2-2.3-.7-3.5-11.6-4.8-16.6-3.5-7.5-6.7-7.2-3.6 5.6-4.6 7.7-3.5.4-3.5.4c-4.6-5.2-9.6-10.2-14.9-14.7-10.2-9-13.7-4-13.6-4.1"/><path class="st2" d="M127.6 127c-7.4-6.7-20.5-18.8-31.7-29.1S74.5 78.2 67.1 71.5l-8.8-7.9c-1-.9-1.8-1.7-2.4-2.2l-.6-.6-.2-.2c.1.1.2.1.2.2.2.1.4.3.6.6l2.4 2.1c2.1 1.8 5.1 4.5 8.8 7.9 7.4 6.7 17.7 16 28.9 26.3s24.3 22.4 31.7 29.2"/><path class="st2" d="M67.7 86.6h2.5c1.5 0 3.6 0 5.9.1l5.9.3 1.8.1h.7c-.2 0-.4.1-.7.1H82c-1.5 0-3.6-.1-5.9-.2l-5.9-.2-1.8-.1c-.3 0-.5 0-.7-.1zM84.6 86.3c-.1 0-.2-4.3-.2-9.6s0-9.6.1-9.6.2 4.3.2 9.6 0 9.6-.1 9.6zM101.2 103c0-.2.1-.4.2-.6.1-.5.3-1 .5-1.7.4-1.5 1-3.5 1.5-5.8s1-4.3 1.3-5.8c.1-.7.3-1.3.4-1.8 0-.2.1-.4.2-.7 0 .2 0 .4-.1.7-.1.4-.1 1-.3 1.8-.2 1.5-.6 3.6-1.2 5.9s-1.1 4.3-1.6 5.8c-.2.7-.4 1.3-.6 1.7-.1.1-.2.3-.3.5zM85.9 106.6c.2-.1.4-.2.6-.2l1.6-.4c1.4-.4 3.3-.9 5.4-1.4s4-1 5.4-1.3l1.6-.4c.2 0 .4-.1.6-.1-.2.1-.4.2-.6.2l-1.6.4c-1.4.4-3.3.9-5.4 1.4s-4 1-5.4 1.3l-1.6.4c-.2.1-.4.1-.6.1zM98.6 123.2c.2-.1.5-.2.8-.2l2.1-.6c1.8-.5 4.2-1.1 6.9-1.9s5.1-1.3 6.9-1.8l2.1-.5c.3-.1.5-.1.8-.1-.2.1-.5.2-.7.3l-2.1.6c-1.8.5-4.2 1.1-6.9 1.8s-5.1 1.3-6.9 1.8l-2.1.5c-.3 0-.6 0-.9.1zM117.5 118c0-.3.1-.6.2-.8.1-.6.3-1.3.6-2.2.5-1.9 1.1-4.5 1.7-7.4s1.1-5.6 1.4-7.5c.2-.9.3-1.7.4-2.3 0-.3.1-.6.2-.8 0 .3 0 .6-.1.9-.1.5-.2 1.3-.3 2.3-.3 1.9-.8 4.6-1.4 7.5s-1.3 5.5-1.8 7.4c-.3.9-.5 1.7-.6 2.2-.1.2-.1.5-.3.7z"/><path class="st1" d="M328.6 108c-13.3-11.6-14.6-30.7-12.2-47.4.4-2.8.4-5.8 2-8.1s4.9-3.7 7.3-2.2c2 1.2 2.6 3.7 3.6 5.9 1.3 2.8 3.3 5.3 5.9 7 1.7 1.1 3.8 1.9 5.7 1.1 2.6-1.1 3.2-4.4 3.5-7.2.5-5.2 1.1-10.4 1.6-15.6.1-2.8.7-5.6 1.7-8.2 1.1-2.6 3.3-4.8 6.1-5.3s5.9 1.4 6.1 4.2c0 1.2-.1 2.3-.3 3.5-.2 1.2.4 2.4 1.4 3 1.1.4 2.3-.2 3.2-1 3.2-2.5 5.5-5.9 7.8-9.3s4.4-7 7.4-9.8 6.8-4.8 10.8-4.6 8 3.1 8.6 7.2-2.1 7.8-5 10.7c-4.2 4.3-9 8-14.3 11-1 .4-1.9 1.2-2.4 2.1-.8 1.8.8 3.8 2.5 4.6 2 .9 4.3.9 6.4 1.4s4.4 1.7 5 3.8c.8 3-1.9 5.7-4.4 7.4-5.1 3.4-10.8 5.9-16.8 7.4-2.1.5-4.4 1-6.2 2.2s-3.1 3.7-2.3 5.7 3.3 3 5.5 2.8 4.2-1.1 6.4-1.7c4-1 8.9-.2 11 3.3 1.3 2.5 1.3 5.4.1 7.9s-2.9 4.7-5 6.4c-6.9 6.6-15.4 11.3-24.6 13.6-9.2 2.4-17.6 2.4-26.1-1.8"/><path class="st2" d="M334.1 97.9c3.8-8.9 8.1-17.5 12.8-25.8 1.3-2.2 2.5-4.4 3.7-6.6s2.4-4.3 3.8-6.3c2.5-3.9 5.3-7.6 8.2-11.2 2.8-3.4 5.6-6.6 8.2-9.5s5.1-5.6 7.5-8c3.7-3.7 7.7-7.2 12-10.2 1.5-1.1 2.7-1.9 3.5-2.5l.9-.6c.1-.1.2-.1.3-.2-.1.1-.2.2-.3.2l-.9.7c-.8.6-2 1.4-3.5 2.5-4.2 3.2-8.2 6.6-11.9 10.3-2.4 2.4-4.8 5.1-7.4 8s-5.4 6.1-8.1 9.6c-2.9 3.6-5.7 7.3-8.2 11.2-1.3 2-2.5 4.1-3.7 6.3l-3.7 6.6c-4.8 8.3-9 17-12.8 25.8"/><path class="st2" d="M354.6 59.1c-.1-.4-.1-.8-.1-1.2-.1-.8-.1-1.9-.2-3.3-.1-2.8-.1-6.7-.1-11s0-8.2-.2-11c-.1-1.4-.1-2.5-.2-3.3v-1.2c.1.4.2.8.2 1.2.1.8.2 1.9.4 3.3.2 2.8.3 6.7.3 11s0 8.1-.1 11v3.3c.1.4 0 .8 0 1.2zM391.2 56.3h-5.4c-3.3 0-7.9.2-13 .6s-9.6 1-12.9 1.5c-1.6.2-3 .5-3.9.6-.5.1-1 .2-1.4.2.5-.2.9-.3 1.4-.4.9-.2 2.2-.5 3.9-.8 3.3-.6 7.9-1.2 12.9-1.6 4.3-.4 8.7-.5 13-.4 1.7 0 3 .1 3.9.2.5-.1 1 0 1.5.1zM334.6 97.3c-.1-.1-.2-.3-.2-.5l-.5-1.4c-.4-1.2-1-2.9-1.6-5.1-1.3-4.3-2.9-10.3-4.5-16.9s-3.2-12.6-4.4-17l-1.4-5.1c-.1-.6-.3-1-.4-1.4-.1-.2-.1-.3-.1-.5.1.2.1.3.2.5.1.4.3.8.5 1.4.4 1.2 1 2.9 1.6 5.1 1.3 4.3 2.9 10.3 4.5 16.9s3.2 12.6 4.4 17l1.4 5.1c.1.6.3 1 .4 1.4.1.2.1.4.1.5zM384 87.1c-.2.1-.3.1-.5.1l-1.4.3-5.3 1.1c-4.5.9-10.6 2.3-17.4 3.8s-13 2.8-17.4 3.7c-2.2.4-4.1.7-5.3 1l-1.5.2h-.5c.2-.1.3-.1.5-.1l1.4-.3 5.3-1.1c4.5-.9 10.6-2.3 17.4-3.8s13-2.8 17.4-3.7c2.2-.4 4.1-.7 5.3-.9l1.5-.2c.1-.1.3-.1.5-.1z"/></g><path class="st3" d="M446.7 434.5c0 .1-100 .3-223.4.3S0 434.6 0 434.5s100-.3 223.4-.3 223.3.1 223.3.3z" id="Floor--inject-1"/><g id="Character--inject-1"><path class="st4" d="M289.1 192.1c.5-9.3 1.1-18.5 1.7-27.8.1-1.1.2-2.4 1.2-3 .9-.4 2-.3 2.9.2 16.4 6.6 28.5 24.9 29.9 42.6"/><g class="st5"><path class="st6" d="M294.6 170.9c7.8 5.1 12.8 13.6 13.4 22.9.2 1.1-.1 2.2-.7 3.2-.6.7-1.5 1.1-2.5 1.1-.9 0-1.8-.2-2.7-.4-2.2-.6-4.5-1.2-6.2-2.8-1.5-1.6-2.4-3.7-2.4-5.9s.2-4.3.7-6.4l2.8 4.8-3-15.5c-.1-.3-.1-.6.1-.8.2-.2.6-.1.6.1"/></g><path class="st4" d="M193.9 211.8c-8.6-10.2-13.5-22.9-14-36.2l9.1 4.3-2.3-2.8c13.4 1.1 25.7 7.4 34.5 17.5"/><g class="st5"><path class="st6" d="M198.9 207.8c-7.3-5.3-12-13.3-13.1-22.2-.1-.6 0-1.4.6-1.6.4-.1.9 0 1.2.3l16.5 10.8c-.7-1-1.2-2.2-1.3-3.5l7 5.1c.5.3.9.8 1.1 1.4 0 .7-.3 1.3-.9 1.7-2.4 2.1-5.7 2.9-8.8 1.9l3 2.6c-1.8 1.2-4 1.5-6.1 1.1-.2 1 .2 2 1.1 2.6"/></g><path class="st4" d="M380.4 299.1s12.8 13.2 18.6 12.1c0 0-20.2-21.5-28.7-41.4-4.1-9.4-8.9-18.4-14.5-27 3.8-6.6 7.2-14.1 8.8-21.6-4.3 5-9.2 9.4-14.6 13.2-.4-.6-.9-1.2-1.4-1.9 4.5-4.1 7.5-9.6 8.6-15.6L337 216c.6-.9 1.2-1.9 1.7-2.9-9.9-8.5-21-15.6-33-20.9-23.2-13.2-75-17.6-100.2 3.9-22.6 13.2-28.6 30-46.4 34.2l-10.5-1.1s-4.1 22 9.4 31.8l-10-2.3s1.8 8.8 11.7 18.4l-6.1-.8s2.7 13.8 11.2 17.1c0 0-13.3 1.7-17-3.3 0 0-4.4 20.6 15.7 28.4 0 0-60.3 7.1-43.3 80.8 4 17.2 27.7 29.6 55.1 35.6l197-.8c12-3.9 26.3-43.7 26.9-59.7s-7.4-46.9-7.4-46.9l7.5 9.9-18.9-38.3z"/><path class="st4" d="M155.2 329.8c-11.3-.7-22.4 8.1-24.4 19.3 7.4-4.9 15.8-8 24.5-9a23 23 0 0 0-5.8 25.6c2.9-7.9 9-14.2 16.7-17.5-5.3 6.4-6.9 15.1-4.2 23"/><path class="st3" d="M162.1 371.2c-.1-.1-.1-.3-.2-.4-.1-.3-.2-.7-.4-1.2-.4-1.6-.7-3.2-.8-4.8-.2-2.6.1-5.2.8-7.7.9-3.3 2.4-6.4 4.6-9l.2.3c-7.7 3.3-13.6 9.6-16.6 17.4l-.2.6-.2-.6c-2.4-6.2-2.2-13.1.7-19 1.3-2.6 3-4.9 5.2-6.9l.2.5c-8.7 1-17.1 4.1-24.4 8.9l-.4.3.1-.5c.4-2.4 1.3-4.7 2.5-6.9 1.1-1.9 2.4-3.7 4-5.2 2.5-2.6 5.6-4.5 8.9-5.8 2.2-.8 4.4-1.3 6.7-1.4h2.4-2.4c-2.3.2-4.5.7-6.6 1.5-3.3 1.3-6.3 3.2-8.8 5.8-1.5 1.5-2.8 3.3-3.9 5.2-1.2 2.1-2 4.4-2.4 6.8l-.4-.2c7.4-4.9 15.8-8 24.6-9l.8-.1-.6.5c-2.1 1.9-3.8 4.2-5 6.7-2.9 5.8-3.1 12.6-.7 18.6h-.5c1.6-4.2 4.1-8 7.2-11.1 2.8-2.7 6-4.9 9.6-6.5l.8-.3-.5.6c-2.2 2.6-3.7 5.6-4.6 8.8-.7 2.5-1 5-.9 7.6.1 1.6.3 3.2.7 4.8.1.5.3 1 .3 1.2.2.2.2.4.2.5z"/><path class="st4" d="M361.7 360.9c12.6-2.7 25.3 3.9 30.5 15.6"/><path class="st3" d="M392.2 376.5c-.1 0-.9-1.9-2.8-4.6-5.2-7.2-13.4-11.4-22.3-11.4-3.3 0-5.4.5-5.4.4.5-.2.9-.3 1.4-.4 1.3-.2 2.7-.4 4-.4 9-.2 17.5 4.2 22.6 11.6.8 1.1 1.4 2.3 2 3.5.2.4.4.8.5 1.3z"/><path d="M292.2 377.5c-7.3 1.2-16.5 6.6-19.9 13.2-.7 1.4-.1 1.6 0 3.1 0 1.6.9 3.1 2.4 3.8 1.4.6 3-.1 3.6-1.5 0-.1.1-.2.1-.3-.9 5.3.3 10.8 3.3 15.3 2-1.2 3.7-2.9 4.7-5-.4 7.9 2.5 15.6 8 21.3l-3.5-13.8c-1.3-5-2.5-9.2-2.2-14.4.4-5.5 3.6-10.1 6.1-14.6-3.5 1.5-7.5 8.4-10.9 12.5-.4-7.4 2.6-14.5 8.1-19.4" class="st5"/><path class="st3" d="m290.9 413.7-.3-.6c-.1-.4-.4-1-.7-1.8-.8-2.2-1.2-4.6-1.4-6.9-.2-3.6.2-7.2 1.2-10.6 1.3-4.4 3.6-8.4 6.8-11.7l.4.4c-2.9 2.6-5.7 5.4-8.3 8.3-1.7 1.9-3.2 4-4.5 6.2l-.4.7-.1-.8c-.4-4.1.3-8.3 2.2-12 1.5-3.1 3.8-5.9 6.6-7.9l.2.3c-2 .7-3.8 1.9-5.4 3.3-1.2 1.1-2.2 2.3-3 3.7-.5.9-1 1.8-1.3 2.7-.1.3-.2.7-.4 1v-.3c0-.2.1-.4.2-.8.3-1 .8-1.9 1.3-2.8.8-1.4 1.8-2.7 3-3.8 1.6-1.5 3.4-2.7 5.4-3.4l1.3-.5-1.2.9c-2.7 2.1-4.9 4.7-6.4 7.8-1.8 3.6-2.5 7.7-2.1 11.7l-.5-.1c1.3-2.3 2.8-4.4 4.5-6.3 2.6-2.9 5.4-5.7 8.4-8.4l.4.4c-3.1 3.2-5.4 7.1-6.8 11.4-1.1 3.4-1.5 7-1.3 10.5.1 2.3.5 4.7 1.2 6.9.2.8.5 1.4.6 1.8.3.3.3.5.4.7z"/><path class="st4" d="M172.2 412.6c3.9 4.4 9.1 7.4 14.8 8.7.6.3 1.3.2 1.9-.3.6-.6.1-1.6-.4-2.4l-6.4-9.4c4.5 3.6 9.9 5.9 15.6 6.8.9.1 2.1.1 2.6-.7.3-.7.2-1.6-.2-2.2-1-2.1-2-4.2-3.2-6.3"/><path class="st3" d="M197 407c.1.2.2.3.3.5l.8 1.5c.4.7.8 1.5 1.2 2.4.3.5.5 1 .8 1.5.3.6.5 1.2.6 1.8 0 .4-.1.8-.3 1.1-.3.3-.6.5-1 .6-.8.1-1.6.1-2.3-.1-1.7-.3-3.3-.7-4.9-1.2-3.7-1.2-7.1-3.1-10.2-5.5l.4-.4 1.1 1.6 3.5 5.2 1.7 2.5c.3.4.5.9.6 1.4.2.6-.1 1.2-.6 1.5-.5.2-1 .3-1.5.2-.5-.1-.9-.2-1.3-.3-.9-.2-1.7-.5-2.5-.8-1.5-.5-2.9-1.2-4.2-2-2-1.1-3.8-2.5-5.4-4l-1.3-1.3c-.2-.2-.3-.3-.4-.5.2.1.3.3.5.4l1.3 1.3c1.7 1.5 3.5 2.8 5.4 3.9 1.3.8 2.7 1.4 4.2 1.9.8.3 1.6.5 2.4.8s1.8.6 2.5.2c.3-.2.5-.6.3-1-.1-.4-.3-.9-.6-1.2-.6-.8-1.1-1.6-1.7-2.5-1.1-1.7-2.3-3.4-3.6-5.2l-1.1-1.6-1-1.4 1.4 1c4.3 3.4 9.4 5.7 14.8 6.7.7.2 1.4.2 2.2.1.6-.1 1.1-.6 1.1-1.3-.1-.6-.3-1.2-.6-1.7s-.5-1-.7-1.5l-1.2-2.4-.7-1.5c.1-.3 0-.5 0-.7z"/><path d="M196.9 350.4c2.2 3.7 5.4 6.7 9.3 8.7-.2-2.1-1.1-4-2.4-5.5 4.2 4 9.2 7.1 14.7 9.1-8.1 3.6-17.6 0-21.2-8.2-.7-1.6-1.1-3.3-1.3-5M170.1 285.2c7.9 15.3 33.6 22.8 53.8 23.1 6.2.1 15 4.7 21.2 4.1 13.8-1.3 25.1-8.8 38.9-10 8.6-.7 17.3-1 25.8-2.5s8.1-2.5 14.9-7.9 14.1-10.7 14-19.4c-12.7 15.6-25.3 20.4-44.9 25s-40 4.5-60.1 3.5c-22.1-.8-45.4-3.2-63.6-15.9" class="st5"/><path class="st4" d="M238.5 168.1c.1 0 .2 1.1.5 2.9.4 2.3 1 4.6 1.9 6.8.9 2.2 2 4.3 3.3 6.3.6.8 1.2 1.6 1.7 2.4l-.6-.6c-.5-.5-1-1.1-1.4-1.7-1.4-1.9-2.6-4-3.5-6.3-.9-2.2-1.5-4.6-1.8-7-.1-.7-.1-1.4-.2-2.2 0-.1 0-.3.1-.6zM245 165.6c.1 0-.3 1-.7 2.7-.5 2.2-.7 4.4-.5 6.6.2 2.2.7 4.4 1.5 6.4.6 1.6 1.2 2.5 1.1 2.5s-.2-.2-.5-.6c-.4-.6-.7-1.2-1-1.8-1.9-4.1-2.3-8.8-1-13.2.2-.7.4-1.3.7-1.9.2-.5.4-.7.4-.7zM122.6 331.8l.4-.4c.3-.2.7-.6 1.2-1 1.5-1.2 3.2-2.3 4.9-3.3 5.6-3.2 11.8-5.4 18.2-6.6 6.4-1.2 12.8-1.8 19.3-1.9 2.5-.1 4.5-.1 5.9-.1h2.2c-.2 0-.4.1-.6.1l-1.6.1-5.9.2c-6.4.2-12.8.9-19.2 2-6.3 1.2-12.4 3.3-18.1 6.4-1.7 1-3.3 2-4.9 3.2-1.2.9-1.8 1.4-1.8 1.3zM265.9 170c0 .1-1.7-.5-4.5-1.2-1.6-.4-3.3-.6-4.9-.6-2 0-4 .6-5.7 1.6-.9.5-1.6 1.3-2.2 2.1-.5.8-.9 1.7-1.1 2.6-.3 1.6-.2 3.3.2 4.9.7 2.8 1.4 4.4 1.3 4.4-.2-.4-.4-.7-.5-1.1-.5-1-.8-2.1-1.1-3.2-.5-1.6-.6-3.4-.3-5.1.2-1 .6-2 1.2-2.8.6-.9 1.5-1.7 2.4-2.2 1.8-1.1 3.9-1.7 6-1.7 1.7 0 3.4.3 5 .7 1.4.4 2.5.8 3.2 1 .3.2.7.4 1 .6zM416 420.6c-1.1-7.2-4.6-14.2-10.6-18.3s-14.7-4.6-20.4-.1l-23.7 32.1 50.5.2c2.8-2.6 4.7-10.1 4.2-13.9z"/><path d="M382.4 433.8c4.3-1.8 7.4-5.6 9.4-9.8s2.8-8.8 3.6-13.4c.7-3.8 1.4-7.8-.3-11.3-.8 0-1.6.3-2 1-.4.7-.8 1.4-1 2.2-3.9 12.3-9.9 23-19.8 31.4" class="st5"/><g class="st5"><path class="st6" d="M232.2 183c5 14.4 5.6 30 5.1 45.2-.3 7.6-.8 15.2-3.2 22.5s-6.7 14-13.2 18c-6.1 3.8-13.6 4.8-20.8 3.8s-13.9-3.7-20.3-6.9c-7.3-3.7-14.4-8.1-20.1-14s-10.3-14.2-11.3-22.3l10.5 1.1s8.1-.9 20.7-13.1c13.8-13.3 16.3-14.9 26.6-21.9 8.2-5.2 16.9-9.4 26-12.4z"/></g><path d="M275.8 271.9c4.1-2.3 9.2-1.6 12.6 1.7 3.3-4.3 8.7-6.3 14-5.1-3.1 1.2-6 2.9-8.6 5.1-2.5 2.3-4.2 5.5-3.9 8.9-3.1-3.3-6.6-6.2-10.5-8.5-1.6-1-3.8-1.8-5.3-.7" class="st5"/><path class="st4" d="M310.2 384.5c-11.9 8.6-16.7 24-11.6 37.8"/><path class="st3" d="M298.6 422.3c-.1-.1-.1-.3-.2-.4-.1-.3-.3-.6-.4-1.2-.5-1.4-.9-2.9-1.1-4.4-1.8-10.1 1.4-20.5 8.5-27.9 1.1-1.1 2.2-2.1 3.4-3 .4-.3.8-.6 1-.7l.4-.2c-.4.4-.8.7-1.3 1.1-1.2 1-2.2 2-3.3 3.1-6.9 7.4-10 17.6-8.5 27.6.2 1.5.5 3 1 4.4.3.6.4 1.1.5 1.6z"/><path class="st4" d="M330.1 349.9c4.1-3.1 9.4-6.4 14-4.2 2.6 1.4 4.4 4 4.8 6.9.4 2.9.2 5.8-.5 8.7-3.4 16.5-10.7 32-21.3 45.1-3.9 4.8-9.3 9.6-15.3 8.3-5.6-1.2-8.8-7.6-8.4-13.3s3.2-10.9 5.9-16c6.3-12 12.4-25.2 20.8-35.5"/><path class="st3" d="M330.1 349.9c-.1.1-.2.3-.3.4l-.8 1.1c-.7.9-1.7 2.4-3 4.2-3.5 5.3-6.7 10.7-9.6 16.4l-6 11.6c-2.1 4.2-4.8 8.5-6.2 13.6-.7 2.6-.9 5.3-.4 7.9.5 2.8 1.9 5.3 3.9 7.2 1 .9 2.3 1.6 3.7 2 1.4.4 2.9.4 4.3.1 2.9-.7 5.5-2.3 7.6-4.4 2.2-2.1 4.1-4.4 5.9-6.8 1.8-2.4 3.4-4.8 5-7.2 5.6-8.9 9.8-18.7 12.6-28.9.6-2.3 1.1-4.5 1.5-6.6.5-2 .7-4.1.6-6.2-.1-3.9-2.2-7.5-5.1-8.7-1.3-.6-2.8-.7-4.3-.5-1.2.2-2.4.6-3.5 1.1-1.6.7-3 1.6-4.4 2.6l-1.1.8c-.2.2-.3.3-.4.3l.4-.3c.2-.2.6-.5 1.1-.8 1.4-1 2.8-1.9 4.4-2.7 1.1-.6 2.3-.9 3.6-1.1 3.3-.6 6.6 1 8.2 3.9 1 1.7 1.5 3.6 1.6 5.5.1 2.1-.1 4.2-.6 6.3-.4 2.2-.9 4.4-1.5 6.7-2.7 10.2-6.9 20-12.5 29-1.6 2.4-3.2 4.9-5 7.3-1.8 2.5-3.8 4.8-5.9 6.9-2.2 2.2-4.9 3.7-7.9 4.5-1.5.3-3 .3-4.5-.1-1.4-.4-2.8-1.1-3.9-2.1-2.1-2-3.5-4.6-4-7.5-.5-2.7-.3-5.5.4-8.2 1.4-5.2 4.1-9.5 6.2-13.7s4.2-8.1 6.1-11.6c2.9-5.6 6.2-11.1 9.7-16.3 1.3-1.8 2.3-3.2 3.1-4.1l.9-1c0-.4.1-.5.1-.6z"/><path d="M330.6 364.2c1-2.8 3.1-3.6 5.4-4.4s5.1-.7 6.9.9c2.1 1.8 2.4 5.1 1.8 7.8-.1 1-.5 1.9-1.1 2.6-.7.8-1.7 1-2.6.6-1-.5-1.3-2-2.4-2.4s-2.5.5-3.7.9c-1.8.3-3.6-.6-4.3-2.3-.5-1.3-.5-2.6 0-3.7zM335 350.1c1.1.5 1.7 1.6 1.6 2.7 0 1.3-.3 2.5-.8 3.6-.4 1-.9 2.1-2 2.1-.6 0-1.2-.3-1.5-.9-.3-.5-.4-1.1-.5-1.7-.1-1.4.1-2.7.6-4 .2-.7.6-1.2 1.2-1.7.6-.4 1.4-.4 1.9 0M347 352.5c1.1.5 1.7 1.6 1.6 2.7-.1 1.3-.3 2.5-.8 3.6-.4 1-1 2.1-2 2.1-.6 0-1.2-.3-1.5-.9-.3-.5-.5-1.1-.5-1.7-.1-1.4.1-2.7.6-4 .2-.7.6-1.2 1.2-1.7.6-.4 1.4-.4 1.9 0M341.9 348c1 .5 1.7 1.6 1.6 2.7-.1 1.3-.3 2.5-.8 3.6-.4 1-1 2.1-2 2.1-.6 0-1.2-.3-1.5-.9-.3-.5-.4-1.1-.5-1.7-.1-1.4.1-2.7.6-4 .2-.7.6-1.2 1.2-1.7.6-.4 1.4-.4 1.9 0M338 388.8c-.8 6.1-2.4 12-4.9 17.5-2.5 5.6-6.2 10.6-11 14.4-2.2 1.7-4.8 3.2-7.6 3.3-4 .1-7.5-2.7-9.3-6.3s-2-7.6-1.8-11.6c1.9 3.2 4.1 6.6 7.5 8 3.1 1 6.5.7 9.3-1 2.8-1.7 5.2-3.9 7.1-6.4 4.3-5.2 7.8-11 10.5-17.3" class="st5"/><path class="st4" d="M114.1 350.7c-4.9-1.5-11-2.8-14.6.9-1.9 2.3-2.7 5.3-2 8.2.7 2.8 1.9 5.5 3.5 8 8.9 14.3 21.2 26.3 35.7 34.9 5.3 3.1 12.1 5.7 17.2 2.4 4.8-3.1 5.5-10.2 3.2-15.4s-6.8-9.1-11.1-12.9c-10.1-9.2-20.5-19.3-31.9-26.1"/><path class="st3" d="M114.1 350.7s.1.1.4.2l1.1.7c1 .6 2.5 1.5 4.3 2.8 5.2 3.7 10.1 7.6 14.8 11.9l9.8 8.7c3.4 3.2 7.5 6.3 10.6 10.6 1.7 2.2 2.8 4.8 3.3 7.5.5 2.9.1 5.8-1.1 8.4-.7 1.3-1.7 2.5-2.9 3.4-1.2.9-2.7 1.5-4.2 1.7-3.1.3-6.2-.2-9-1.4s-5.5-2.7-8-4.4c-2.5-1.6-4.9-3.3-7.2-5-4.4-3.4-8.5-7.1-12.3-11.1-3.5-3.6-6.7-7.5-9.6-11.6-1.4-1.9-2.6-3.8-3.8-5.7-1.1-1.8-2.1-3.7-2.8-5.7-.6-1.8-.8-3.8-.5-5.7.5-3.3 3-5.9 6.3-6.5 1.2-.2 2.5-.3 3.8-.2 1.7.2 3.4.5 5.1 1 .6.2 1 .3 1.3.4h.6l-.4-.1-1.3-.3c-1.7-.4-3.4-.7-5.1-.9-1.2-.1-2.5 0-3.7.2-1.4.3-2.8 1-3.8 2-2.3 2.1-3 6.2-1.7 9.9.7 2 1.6 3.8 2.7 5.6 1.2 1.9 2.4 3.8 3.8 5.7 6.1 8.6 13.5 16.2 21.9 22.6 2.3 1.7 4.7 3.4 7.2 5 2.5 1.7 5.1 3.1 7.9 4.3 2.7 1.2 5.7 1.7 8.7 1.4 1.4-.2 2.8-.8 4-1.6 1.1-.8 2.1-1.9 2.7-3.2 1.2-2.5 1.6-5.3 1.1-8.1-.5-2.6-1.6-5.1-3.2-7.3-3.1-4.3-7.1-7.4-10.6-10.6l-9.7-8.8c-4.7-4.3-9.6-8.3-14.7-12-1.8-1.3-3.3-2.2-4.3-2.9l-1.1-.7-.4-.2z"/><path d="M118.6 364.2c-1.9-2.3-4.2-2.3-6.6-2.3s-5 1.1-6.2 3.2c-1.3 2.5-.5 5.6 1 8 .5.9 1.2 1.6 2 2.1.9.5 2 .3 2.7-.4.8-.9.5-2.3 1.4-3.1s2.5-.4 3.8-.5c1.8-.3 3.2-1.8 3.2-3.7 0-1.2-.4-2.4-1.3-3.3zM109.6 352.6c-.8.8-1 2.1-.5 3.1.5 1.2 1.2 2.2 2 3.1.7.8 1.6 1.6 2.6 1.3.6-.2 1-.7 1.1-1.3.1-.6 0-1.2-.1-1.8a9.4 9.4 0 0 0-2-3.5c-.4-.5-1-.9-1.7-1.1-.7-.2-1.4.1-1.8.7M99.2 359.1c-.8.8-1 2.1-.5 3.1.5 1.2 1.2 2.2 2 3.1.7.8 1.6 1.6 2.6 1.3.6-.2 1-.7 1.1-1.3.1-.6 0-1.2-.2-1.8a9.4 9.4 0 0 0-2-3.5c-.4-.5-1-.9-1.7-1.1-.7-.2-1.4.1-1.8.7M102.4 353c-.8.8-1 2.1-.5 3.1.5 1.2 1.2 2.2 2 3.1.7.8 1.6 1.6 2.6 1.3.6-.2 1-.7 1.1-1.3.1-.6 0-1.2-.2-1.8a9.4 9.4 0 0 0-2-3.5c-.4-.5-1-.9-1.7-1.1-.7-.2-1.4.1-1.8.7M120.4 389.9c2.9 5.4 6.5 10.3 10.7 14.7 4.3 4.4 9.5 7.7 15.3 9.7 2.7.9 5.6 1.3 8.2.4 3.7-1.3 6.1-5.2 6.5-9.1s-.8-7.9-2.4-11.5c-.7 3.7-1.5 7.6-4.2 10.1-2.5 2.1-5.8 2.9-9 2.3-3.2-.6-6.2-1.8-8.9-3.5-5.8-3.4-11.2-7.6-15.8-12.5" class="st5"/><g class="st5"><path class="st6" d="m116.7 384.5-.9 1.2c5-8.1 15.7-10.6 23.9-5.6 8.1 5 10.6 15.7 5.6 23.9-.3.4-.6.9-.9 1.3-11.2-4.6-21.4-11.5-29.9-20.1"/></g><path class="st3" d="M399 374.6v.7c-.1.5-.2 1.1-.3 1.9-.2 1.7-.6 4.1-1.2 7-1.4 7.7-3.4 15.3-6.1 22.7-1.6 4-3.4 8-5.6 11.7-.5.9-1.1 1.7-1.6 2.5l-.8 1.2-.8 1.1-1.5 2c-.5.6-1.1 1.2-1.6 1.8s-1 1.1-1.5 1.6l-1.4 1.3-1.2 1.1-1.1.9-1.5 1.2c-.2.2-.4.3-.6.4l.5-.5 1.5-1.3 1.1-.9 1.2-1.2 1.4-1.3c.5-.5.9-1 1.4-1.6l1.5-1.8 1.5-2.1.8-1.1c.2-.4.5-.8.7-1.2.5-.8 1-1.6 1.5-2.5 2.1-3.7 4-7.6 5.5-11.6 2.7-7.3 4.8-14.9 6.3-22.6.6-2.9 1-5.3 1.3-7 .1-.8.3-1.4.4-1.9 0 0 .1-.3.2-.5zM168.9 314c.1-.2.3-.3.5-.5l1.4-1.3c.6-.6 1.4-1.2 2.3-2s1.9-1.7 3.1-2.6c2.3-1.9 5.1-4 8.3-6.3s6.8-4.6 10.8-6.9 7.8-4.2 11.3-5.9 6.8-3 9.6-4.1c1.4-.5 2.6-1 3.8-1.4s2.1-.7 2.9-1l1.8-.6c.2-.1.4-.1.6-.2l-.6.3-1.8.6c-.8.3-1.7.6-2.8 1s-2.4.9-3.7 1.4c-2.8 1.1-6 2.5-9.5 4.2s-7.3 3.7-11.3 5.9-7.5 4.6-10.8 6.8-6 4.3-8.4 6.2c-1.2.9-2.2 1.8-3.1 2.5s-1.7 1.4-2.3 1.9l-1.5 1.2c-.2.5-.4.7-.6.8zM140.8 297.3s.1 0 .2-.1l.6-.4 2.2-1.4c.9-.6 2.1-1.3 3.5-2.1s3-1.8 4.8-2.7l2.8-1.5c1-.5 2-1 3.1-1.5 2.1-1.1 4.5-2.1 6.9-3.2 4.9-2.1 10.4-4.2 16.3-6s11.6-3.2 16.9-4.2c2.6-.5 5.1-1 7.5-1.3 1.2-.2 2.3-.4 3.4-.5l3.2-.4c2-.2 3.8-.3 5.4-.5s3-.2 4.1-.2l2.6-.1H225.2h-.2l-.7.1-2.6.2c-1.1.1-2.5.1-4.1.3s-3.4.3-5.4.5l-3.1.4c-1.1.1-2.2.3-3.4.5-2.4.3-4.8.8-7.5 1.3-5.2 1.1-10.9 2.5-16.8 4.2s-11.4 3.9-16.3 5.9c-2.4 1.1-4.8 2.1-6.9 3.1-1.1.5-2.1 1-3.1 1.5l-2.8 1.5c-1.8.9-3.4 1.8-4.8 2.6s-2.6 1.5-3.6 2l-2.2 1.3-.6.3c-.3.3-.3.4-.3.4zM259.9 264.3c.1.1-2.5 1.2-5.4 3.1s-4.9 3.9-5 3.7c2.8-3.1 6.4-5.5 10.4-6.8zM276.9 269.7c0 .1-1.5-.6-3.9-1.2-3.2-.8-6.5-1.1-9.8-.9-3.3.1-6.5 1-9.4 2.5-1.2.7-2.2 1.6-2.9 2.8.1-.4.3-.7.5-1 .6-.8 1.4-1.5 2.2-2.1 2.2-1.4 5.7-2.4 9.6-2.7 3.3-.2 6.7.1 9.9 1.1 1 .3 1.9.6 2.9 1 .2.1.5.3.9.5z"/><path class="st1" d="m244 278.1 1.2 2.8c.3.7.6 1.5.7 2.3.1.8-.1 1.6-.7 2.2-.9.8-2.3.9-3.3.2-.9-.7-1.6-1.7-2-2.8-.4-1.1-.7-2.3-1.2-3.3 1.3-1.2 1.9-3 1.6-4.8.1 0 1.1 3.2 3.7 3.4z"/><path class="st3" d="M227.7 267.9c1.8-3.6 5-6.3 8.9-7.4 6.4-1.7 13 5 13 5s-7.7-2.3-7.6 1.6 2.4 3.7-.2 6.3-7-.1-8-3.1l-2.1-2.9-4 .5z"/><path class="st3" d="M254.1 271.6v1.4c-.2 1.3-.7 2.5-1.5 3.5-1.2 1.6-2.9 2.6-4.9 2.8-2.4.2-4.8-.8-6.3-2.6-.8-.9-1.3-1.9-1.6-3.1l.5-.1c.6 1.9.3 4-.8 5.6-1.6 2.2-4.3 3.1-6.9 2.3-.3-.1-.5-.2-.8-.3-.2-.1-.2-.1-.2-.2s.4.1 1 .3c1 .2 2 .2 2.9 0 1.4-.3 2.7-1.2 3.5-2.4 1-1.5 1.3-3.5.7-5.2l.5-.1c.3 1.1.8 2 1.5 2.8 1.5 1.7 3.6 2.6 5.9 2.5 1.8-.2 3.5-1.1 4.6-2.6.8-1 1.3-2.1 1.6-3.3.3-.7.2-1.3.3-1.3z"/><path class="st6" d="M241.7 261.4c-.7.1-1.3.1-2 .1-1.6 0-3.2.2-4.8.6-1.5.4-2.9 1.3-4.1 2.4-.8.9-1.1 1.6-1.2 1.6.1-.7.5-1.3.9-1.9 1.1-1.3 2.5-2.2 4.2-2.7 1.6-.4 3.3-.6 5-.5.7.1 1.4.2 2 .4z"/><path class="st3" d="M243.6 286.3c-1-1.6-1.7-3.4-2.2-5.2-.6-1.8-1-3.6-1.1-5.5.1 0 .7 2.4 1.6 5.4s1.9 5.2 1.7 5.3zM172.4 297.5c.1-.1.3-.2.4-.4l1.2-.9c1-.8 2.6-1.9 4.6-3.2s4.4-2.8 7.2-4.3 5.9-3 9.2-4.4 6.6-2.5 9.6-3.4 5.8-1.6 8.1-2 4.2-.8 5.6-1l1.5-.2h.5c-.2.1-.3.1-.5.1l-1.5.3c-1.3.2-3.2.6-5.5 1.1s-5 1.2-8 2.1-6.2 2.1-9.6 3.4-6.4 2.9-9.2 4.3-5.2 2.9-7.2 4.1-3.6 2.3-4.7 3.1l-1.3.9c-.2.3-.4.4-.4.4z"/><ellipse transform="rotate(-76.591 200.618 248.207)" class="st1" cx="200.6" cy="248.2" rx="22.6" ry="22.5"/><path class="st3" d="M223.2 248.2c0 10.9-7.4 19.7-13.6 19.7s-11.2-8.8-11.2-19.7 5-19.7 11.3-19.7 13.5 8.8 13.5 19.7z"/><circle class="st6" cx="214.6" cy="237.1" r="3.9"/><path class="st6" d="m204.6 262.6-.6-.9c-.5-.9-.9-1.8-1.2-2.8-.5-1.4-.9-2.8-1.2-4.3-.3-1.8-.5-3.6-.6-5.4 0-1.8.1-3.7.4-5.5.3-1.5.6-2.9 1.1-4.3.3-1 .7-1.9 1.1-2.8.1-.4.3-.7.5-1 .1 0-.6 1.5-1.3 3.9-.4 1.4-.8 2.8-1 4.3-.3 1.8-.4 3.6-.4 5.4 0 1.8.2 3.6.5 5.4.3 1.4.6 2.9 1.1 4.3 1 2.2 1.7 3.6 1.6 3.7z"/><path class="st3" d="M194.9 219.5c-.1.7-.9 1.3-2 1.8s-2.6 1-4.1 1.7-2.8 1.2-3.9 1.7-2 .8-2.6.4-.7-1.5 0-2.9c1-1.8 2.6-3.2 4.5-4 1.9-.8 3.9-1 5.9-.5 1.5.4 2.3 1.1 2.2 1.8z"/><path class="st4" d="m87.3 411.6 5.1-7.9c24.1 26.5 103.9 58.1 175.3-13.2 30.7-30.6 28.2-82.4 28.2-82.4l-6.1-19.2h6.1s17.7 32.6-.8 75.3c0 0-19 50.6-77.2 69-91.8 29-130.6-21.6-130.6-21.6z"/><g class="st7"><path class="st6" d="m87.3 411.6 5.1-7.9c24.1 26.5 103.9 58.1 175.3-13.2 30.7-30.6 28.2-82.4 28.2-82.4l-6.1-19.2h6.1s17.7 32.6-.8 75.3c0 0-19 50.6-77.2 69-91.8 29-130.6-21.6-130.6-21.6z"/></g><circle class="st4" cx="55.3" cy="390.7" r="43.4"/><g class="st7"><circle class="st6" cx="55.3" cy="390.7" r="43.4"/></g><path class="st4" d="M65.7 348.5c0 .3-.1.6-.2.8-.1.6-.3 1.4-.5 2.4-.1.5-.2 1.1-.4 1.7s-.4 1.3-.6 2c-.4 1.4-.8 3.1-1.5 4.8l-1 2.8c-.3 1-.8 1.9-1.2 3-.8 2-1.8 4.2-2.9 6.4-2.4 4.8-5.2 9.4-8.2 13.8-3.1 4.4-6.6 8.5-10.3 12.3-1.8 1.7-3.4 3.4-5.1 4.8-.8.7-1.6 1.5-2.4 2.1l-2.3 1.8c-1.4 1.2-2.8 2.1-4 3-.6.4-1.2.8-1.7 1.2l-1.5.9-2 1.3c-.2.2-.5.3-.7.4.2-.2.4-.3.7-.5l2-1.3 1.4-1c.5-.4 1.1-.8 1.7-1.2 1.2-.9 2.6-1.9 4-3.1l2.3-1.8c.8-.6 1.5-1.4 2.4-2.1 1.7-1.4 3.3-3.1 5-4.8 3.7-3.8 7.1-7.9 10.2-12.3 3.1-4.4 5.8-8.9 8.2-13.7 1.1-2.2 2.1-4.3 2.9-6.3.4-1 .9-2 1.2-2.9s.7-1.9 1-2.7c.7-1.7 1.1-3.4 1.6-4.8.2-.7.4-1.4.6-2s.3-1.2.4-1.7c.3-1 .5-1.8.6-2.3.1-.5.1-.7.3-1zM75.9 353c0 .3-.1.6-.2.9-.1.6-.3 1.4-.6 2.5-.1.5-.3 1.1-.4 1.8s-.4 1.3-.6 2.1c-.5 1.5-.9 3.2-1.7 5.1l-1.1 2.9c-.4 1-.9 2-1.3 3.1-.9 2.1-2 4.4-3.2 6.7-2.7 5-5.7 9.8-9.1 14.3-3.5 4.5-7.2 8.7-11.3 12.6-1.9 1.8-3.7 3.5-5.6 4.9-.9.7-1.7 1.5-2.6 2.1l-2.5 1.9c-1.5 1.2-3.1 2.1-4.4 3-1.3.9-2.5 1.6-3.4 2.1l-2.2 1.3c-.2.2-.5.3-.8.4.2-.2.5-.4.7-.5l2.1-1.4c.9-.6 2.1-1.3 3.3-2.2 1.3-.9 2.8-1.9 4.3-3.1l2.4-1.8c.9-.6 1.7-1.4 2.6-2.1 1.8-1.5 3.6-3.1 5.5-4.9 4-3.9 7.8-8.1 11.2-12.6 3.4-4.5 6.4-9.3 9.1-14.2 1.2-2.3 2.3-4.5 3.2-6.6.4-1.1 1-2.1 1.3-3.1s.8-2 1.1-2.9c.8-1.8 1.2-3.5 1.7-5 .2-.8.5-1.4.7-2.1s.3-1.2.5-1.8c.3-1 .5-1.8.7-2.4.4-.5.5-.8.6-1zM85.4 360.8c-.1.3-.1.6-.2.9-.2.6-.4 1.4-.7 2.5-.2.5-.3 1.1-.5 1.8s-.5 1.3-.8 2.1c-.6 1.5-1.1 3.2-2 5L80 376c-.4 1-.9 2-1.5 3.1-1 2.1-2.2 4.3-3.5 6.6-2.8 4.9-6 9.7-9.5 14.2-3.6 4.5-7.4 8.7-11.6 12.6-2 1.8-3.8 3.5-5.6 4.9-.9.7-1.8 1.5-2.6 2.1l-2.5 1.9c-1.6 1.2-3.1 2.2-4.4 3-.7.4-1.3.9-1.8 1.2l-1.6.9-2.2 1.3c-.3.2-.5.3-.8.4.2-.2.5-.4.7-.5l2.2-1.4 1.6-1 1.8-1.2c1.3-.9 2.8-1.9 4.4-3.1.8-.6 1.6-1.2 2.5-1.9s1.7-1.4 2.6-2.1c1.8-1.5 3.6-3.2 5.6-4.9 4.1-3.9 8-8.1 11.5-12.6s6.7-9.2 9.6-14.1c1.3-2.3 2.5-4.5 3.5-6.6l1.5-3c.5-1 .8-2 1.2-2.9.8-1.8 1.4-3.5 2-5 .3-.7.6-1.4.8-2l.6-1.8c.3-1 .6-1.8.8-2.4-.1-.4 0-.7.1-.9zM96.7 401.9c-.3-.1-.7-.2-1-.4-.6-.3-1.5-.7-2.5-1.3-2.1-1.1-5-2.7-8.2-4.6s-5.9-3.7-7.9-5c-1-.7-1.8-1.2-2.3-1.6-.3-.2-.6-.4-.8-.7.3.1.6.3.9.5l2.4 1.5c2 1.3 4.8 3 7.9 4.9s6 3.5 8.1 4.7l2.4 1.4c.5.1.8.3 1 .6zM98.6 392.5c-1-.6-2-1.2-2.9-1.9-1.8-1.2-4.2-2.9-7-4.5s-5.4-3.1-7.3-4.2c-1-.5-2-1.1-3-1.8l.9.3c.6.2 1.3.6 2.3 1.1 1.9 1 4.6 2.4 7.4 4s5.2 3.4 7 4.7c.9.6 1.6 1.2 2 1.6s.6.7.6.7zM71.9 429.8c-.2 0-.5-7.9-.8-17.8s-.4-17.8-.2-17.8.5 7.9.8 17.8.3 17.8.2 17.8z"/><path class="st4" d="M50.5 434.8c-.3-3.3-.4-6.6-.3-9.9-.1-3.3 0-6.6.3-9.9.3 3.3.3 6.6.3 9.9 0 3.3-.1 6.6-.3 9.9zM61 433.6c-.1 0-.2-6.5-.2-14.5s.2-14.5.4-14.5.2 6.5.2 14.5-.3 14.5-.4 14.5zM38.8 398.4c-.1.1-5.7-3.5-12.6-8.2s-12.4-8.5-12.3-8.6 5.7 3.5 12.6 8.2 12.4 8.5 12.3 8.6zM31.3 404.6c-.3 0-.6-.1-.9-.3-.5-.2-1.3-.5-2.2-1-2.4-1.2-4.7-2.5-7-3.9-2.7-1.7-5-3.4-6.6-4.6-.9-.6-1.8-1.3-2.6-2.1 1 .5 1.9 1.2 2.8 1.8 1.7 1.2 4 2.8 6.7 4.5s5.1 3 6.9 4c1 .5 2 1 2.9 1.6zM57.3 372.2l-1.5.6-1.8.6c-.7.2-1.5.4-2.5.6-2.2.5-4.3.8-6.5 1-2.7.2-5.4.3-8.1.2-2.7-.1-5.4-.3-8.1-.8-2.2-.3-4.3-.8-6.5-1.4-.9-.2-1.7-.5-2.4-.7s-1.3-.4-1.8-.6l-1.5-.6c.5.1 1.1.3 1.6.5s1.1.4 1.8.5 1.5.4 2.4.6c1.8.5 4 .9 6.5 1.3 2.7.4 5.3.6 8 .7 2.7.1 5.3 0 8-.2 2.2-.2 4.4-.5 6.5-.9.9-.2 1.8-.4 2.5-.5s1.3-.3 1.8-.5 1.1-.3 1.6-.4zM62.1 361c-.5.3-1 .5-1.5.7-.5.2-1.1.4-1.8.7s-1.5.5-2.4.8c-2.1.6-4.2 1.2-6.4 1.6-2.6.5-5.3.8-8 1-2.7.2-5.4.2-8.1 0-2.2-.1-4.4-.4-6.5-.9-.9-.2-1.8-.4-2.5-.6-.6-.2-1.2-.3-1.8-.5-.5-.2-1-.3-1.5-.6.5.1 1.1.2 1.6.4.5.1 1.1.3 1.8.5s1.5.4 2.5.5c2.1.4 4.3.6 6.5.7 2.7.1 5.3.1 8-.1s5.3-.5 7.9-1c2.4-.5 4.6-.9 6.4-1.5.9-.2 1.7-.5 2.4-.7s1.3-.4 1.8-.6c.5-.2 1.1-.3 1.6-.4zM65.1 351.1c-.4.2-.9.4-1.3.5-.9.3-2.1.8-3.7 1.2-4.1 1.3-8.3 2.2-12.6 2.8-4.3.6-8.6.9-12.9.7-1.7-.1-3-.2-3.9-.3-.5 0-1-.1-1.4-.2h1.4c.9 0 2.2.1 3.9.1 4.3 0 8.5-.2 12.8-.8 4.2-.6 8.4-1.5 12.6-2.7 1.6-.4 2.9-.8 3.7-1.1.4 0 .9-.1 1.4-.2zM82.6 393.8c-1.7 2.3-3.6 4.4-5.6 6.5-1.9 2.2-3.8 4.2-5.9 6.1 1.7-2.3 3.6-4.4 5.6-6.5 1.8-2.2 3.8-4.2 5.9-6.1zM90.9 398.7c-.1.3-.3.6-.4.8-.3.5-.8 1.3-1.5 2.1-3.4 4.6-7.8 8.5-12.8 11.3-1 .5-1.8.9-2.3 1.2-.3.2-.6.3-.9.3 0-.1 1.2-.7 3-1.8 2.4-1.5 4.7-3.1 6.8-5 2.1-1.9 4.1-3.9 5.8-6.1 1.5-1.7 2.2-2.9 2.3-2.8zM93.4 403.1c-.4 4-2.4 7.6-5.6 10 1.3-1.5 2.4-3 3.4-4.7.9-1.7 1.6-3.4 2.2-5.3zM101.8 412.3c-.3 1.6-1 3.1-2.1 4.3-1 1.3-2.3 2.4-3.8 3 1.2-1 2.3-2.1 3.4-3.3.9-1.3 1.7-2.6 2.5-4zM115.4 420.6c0 1.7-.4 3.4-1.3 4.9-.8 1.6-1.9 2.9-3.4 3.7 1.1-1.2 2.1-2.6 3-4 .7-1.4 1.2-3 1.7-4.6zM130.9 428.1c.4 1.6.2 3.3-.5 4.8-.5 1.6-1.6 2.9-2.9 3.9 2.1-2.4 3.3-5.5 3.4-8.7zM145.2 440.9c-.1 0 .4-2 .6-4.4s-.2-4.5-.1-4.5c1 2.9.8 6.1-.5 8.9zM157 441.7c-.1-.1.6-1.8.8-4.1s-.2-4.1 0-4.1c1 2.7.7 5.8-.8 8.2zM173.4 441.6c-.1 0 .1-1.7-.2-3.8s-.9-3.6-.8-3.7c.8 1.1 1.2 2.3 1.3 3.6.3 1.4.2 2.7-.3 3.9zM184.8 440.6c-.2 0-.2-1.6-.7-3.5s-1.4-3.3-1.2-3.3c1.6 1.9 2.3 4.4 1.9 6.8zM198.1 437.7c-.2 0-.1-1.6-.7-3.4s-1.5-3-1.4-3.1c1.8 1.7 2.6 4.1 2.1 6.5zM214.5 434.4c-.2 0-.2-1.8-.9-3.7s-1.8-3.4-1.7-3.5c2 1.8 3 4.5 2.6 7.2zM228.4 429c-.1 0-.7-1.8-1.9-3.8s-2.5-3.3-2.4-3.5c2.3 1.8 3.8 4.4 4.3 7.3zM243.8 420.9c-.1 0-.6-1.9-1.9-3.9s-2.7-3.3-2.6-3.4c2.5 1.6 4.2 4.3 4.5 7.3zM258.9 410c-.7-1.2-1.4-2.3-2.2-3.4-.9-1-1.9-1.8-3-2.7 1.4.4 2.6 1.2 3.4 2.3 1 1.1 1.7 2.4 1.8 3.8zM271.9 399c-.1.1-1.3-1.5-3.1-3.2s-3.5-2.7-3.4-2.9c1.4.5 2.7 1.4 3.8 2.5 1.1 1 2 2.2 2.7 3.6zM283.5 384.6c-.1.1-1.1-1.5-2.9-3s-3.5-2.2-3.5-2.4c2.9.7 5.2 2.7 6.4 5.4zM293.8 367.4c-1.2-.9-2.4-1.8-3.6-2.6-1.3-.6-2.7-1.2-4.1-1.7 1.6 0 3.1.4 4.4 1.2 1.3.7 2.5 1.8 3.3 3.1zM300.1 348.9c-2.7-1.6-5.8-2.3-8.9-2.1 3.1-.9 6.5-.1 8.9 2.1zM302.9 329c0 .1-1.7-.4-3.8-.6s-3.8 0-3.8-.2c2.5-.8 5.3-.5 7.6.8zM301.9 309.1c-.9.1-1.9.2-2.8.1-.9.1-1.9.2-2.8.1 1.7-.8 3.7-.9 5.6-.2zM297.8 295.4c-1-.2-2-.3-3-.3-1 .2-1.9.5-2.8.9 0 0 .2-.3.7-.7.6-.4 1.4-.7 2.1-.8.8-.1 1.5 0 2.2.3.5.3.8.5.8.6z"/><path d="M229.9 362.6c4.9 9.2 16.2 13.9 26.5 12.7s19.5-7.7 26-15.9c4.8-6.1 8.3-13.9 6.3-21.4-10.6 22.1-36.5 32.3-59.4 23.3" class="st5"/><path class="st4" d="M290.5 283.4c-4.8-7.4-2.9-17.4 4.3-22.5 2.8-2 6.1-3.1 8.7-5.2 3.2-2.8 5.2-6.8 5.4-11.1.2-4.3-.7-8.5-2.7-12.2l2.8-1.4.2.3c6.9 9.1 5.1 22-3.9 28.9-1.1.8-2.2 1.5-3.4 2.1-2.1 1-4 2.2-5.8 3.6-3.5 3-2 6.4-2 6.4"/><g class="st7"><path class="st6" d="M290.5 283.4c-4.8-7.4-2.9-17.4 4.3-22.5 2.8-2 6.1-3.1 8.7-5.2 3.2-2.8 5.2-6.8 5.4-11.1.2-4.3-.7-8.5-2.7-12.2l2.8-1.4.2.3c6.9 9.1 5.1 22-3.9 28.9-1.1.8-2.2 1.5-3.4 2.1-2.1 1-4 2.2-5.8 3.6-3.5 3-2 6.4-2 6.4"/></g><path class="st4" d="M294.4 272.4c-1.1-.2-2.3-.3-3.4-.3-1.1.2-2.3.5-3.3.9 1.8-1.7 4.5-1.9 6.7-.6zM297 264.8c-.1 0-.6-.8-1.4-1.6s-1.7-1.3-1.6-1.4 1.1.1 2 1 1.1 1.9 1 2zM306.8 259c-.1 0-.5-.9-1.3-1.9s-1.6-1.5-1.6-1.6 1.1.3 2 1.3 1 2.1.9 2.2zM313.4 246.5c-.8-.1-1.5-.2-2.3-.4-.8 0-1.5-.1-2.3-.2 1.5-.6 3.2-.3 4.6.6zM311.1 234.5c0 .1-.9.1-1.8.4s-1.6.7-1.7.6.5-.8 1.6-1.1 2 0 1.9.1zM218.6 308.5c3.5-2.3 8.2-1.5 12.3-.2s8 3.2 12.3 2.8c4.6-.4 8.5-3.5 11.5-7 3.7-4.3 6.5-9.3 8.2-14.8 1.7-5.5 2.5-12 7.3-15.3s11.4-1.6 15.5 2.2 6.1 9.5 7.4 15c3 12.7 3 26.3-1.1 38.7s-12.6 23.5-24.1 29.8-26 7.1-37.7 1.3"/><path class="st3" d="M230.1 361c.2.1.4.1.5.2l1.6.7c.7.3 1.6.6 2.6 1s2.2.7 3.6 1c3.4.7 6.8 1 10.3.9 2.1-.1 4.3-.3 6.4-.7 2.4-.4 4.7-1.1 7-1.9 5.2-1.9 10-4.8 14.1-8.5 4.8-4.2 8.7-9.2 11.7-14.9 3.3-6.2 5.4-12.9 6.3-19.9 1-7.5.8-15.1-.5-22.5-.6-3.8-1.5-7.5-2.8-11.1-1.2-3.5-3.2-6.7-5.9-9.2-2.7-2.4-6.1-3.6-9.7-3.5-1.7.1-3.4.6-4.8 1.5s-2.6 2.2-3.4 3.6c-1.7 2.8-2.5 6.1-3.3 9.1-.7 3-1.8 5.9-3.2 8.7-1.3 2.6-2.8 5.1-4.7 7.3-1.6 2.1-3.6 4-5.8 5.6-2 1.5-4.3 2.4-6.7 2.7-2.2.2-4.4 0-6.5-.7-3.9-1.1-7.1-2.6-9.9-3.1-2.1-.5-4.3-.4-6.4.2-.5.2-1.1.4-1.6.6-.3.2-.5.3-.5.3l.5-.3c.5-.3 1-.5 1.6-.7 2.1-.6 4.4-.7 6.5-.3 2.8.4 6.1 1.9 9.9 3 2 .6 4.2.8 6.3.6 2.4-.3 4.6-1.3 6.6-2.7 2.1-1.6 4-3.4 5.7-5.5 1.8-2.2 3.3-4.7 4.6-7.3 1.3-2.8 2.4-5.7 3.1-8.7.8-3 1.6-6.3 3.3-9.3.9-1.5 2.1-2.8 3.5-3.8 1.5-1 3.2-1.5 5-1.6 1.8-.1 3.6.2 5.3.8 1.7.6 3.4 1.6 4.8 2.8 2.8 2.6 4.9 5.8 6.1 9.4 1.3 3.6 2.2 7.4 2.8 11.2 1.3 7.5 1.5 15.1.5 22.6-.9 7-3.1 13.8-6.4 20.1-3 5.7-7 10.8-11.8 15-4.2 3.7-9 6.6-14.3 8.5-2.3.8-4.6 1.5-7 1.9-2.1.4-4.3.6-6.5.7-3.5.1-6.9-.2-10.3-1-1.4-.3-2.6-.7-3.6-1s-1.9-.7-2.6-1l-1.5-.7c-.3 0-.5-.1-.5-.1z"/><path class="st3" d="M273.1 285.8c-.5-.4-.9-1-1.2-1.6-.8-1.4-1.1-3-1.1-4.6 0-1.6.4-3.2 1.2-4.6.3-.6.7-1.1 1.2-1.5.1.1-.4.6-.9 1.7-1.3 2.8-1.4 6.1-.1 8.9.6 1 1 1.6.9 1.7zM279.2 284.9c-.5-.5-.8-1-1.1-1.6-.7-1.4-1.1-3-1.2-4.6-.1-1.6.1-3.2.6-4.7.2-.6.5-1.2.9-1.8-1.5 4.2-1.2 8.8.8 12.7zM284.1 286.6c-.6-1.5-.9-3.2-.8-4.8 0-1.6.3-3.3 1-4.8.1 0-.4 2.1-.5 4.8s.4 4.8.3 4.8z"/><path class="st4" d="M367.6 299.1c-9.1 5.6-21.3 4.5-30.8-.5s-16.7-13.4-22.6-22.2c-1.7-2.5-3.4-5.1-6.1-6.7-5.2-3-12.4-.1-15.3 5s-2.4 11.6-.1 17.1c0 0 6.1 29.6 37.9 47.9"/><path class="st3" d="M330.5 339.9c-.1 0-.2-.1-.3-.1l-.8-.5c-.7-.4-1.7-1-3-1.8-.6-.4-1.4-.8-2.1-1.4l-2.5-1.8c-.9-.7-1.9-1.3-2.8-2.1l-3-2.6c-4.9-4.4-9.4-9.4-13.1-14.9-2.3-3.3-4.3-6.8-6-10.4-1.9-3.9-3.5-8-4.6-12.3-1.5-3.5-2.2-7.3-1.9-11.1.2-2 .8-3.9 1.7-5.7 2.4-4.6 7.3-7.3 12.4-6.9 1.5.2 2.9.7 4.1 1.5 1.2.8 2.2 1.8 3.1 2.9.9 1.1 1.7 2.3 2.4 3.4s1.5 2.2 2.3 3.3c1.6 2.2 3.2 4.2 4.9 6.2 3.1 3.7 6.7 7 10.6 9.8 3.4 2.5 7.2 4.4 11.3 5.6 5.8 1.9 12.1 2.1 18 .6.5-.1 1-.3 1.5-.5s.9-.3 1.3-.5c.8-.3 1.4-.6 1.9-.9l1.1-.6c.1-.1.3-.1.4-.2-.1.1-.2.2-.4.2l-1.1.6c-.5.3-1.1.5-1.9.9-.4.2-.8.3-1.3.5s-1 .4-1.5.5c-6 1.6-12.3 1.5-18.2-.4-4.1-1.2-7.9-3.1-11.4-5.6-4-2.8-7.6-6.1-10.7-9.9-1.7-1.9-3.3-4-4.9-6.2-.8-1.1-1.6-2.2-2.3-3.3s-1.5-2.3-2.4-3.4c-.9-1.1-1.9-2-3-2.8-1.2-.8-2.5-1.2-3.9-1.4-2.9-.3-5.7.5-8.1 2.2-3.2 2.3-5.2 5.9-5.4 9.8-.3 3.7.3 7.4 1.8 10.8 1.1 4.2 2.6 8.3 4.5 12.2 1.7 3.6 3.7 7.1 6 10.3 3.7 5.5 8.1 10.5 13 14.9l3 2.6c.9.8 1.9 1.5 2.8 2.1l2.4 1.8c.7.6 1.5 1 2.1 1.4l2.9 1.9.8.5c.2.6.2.7.3.8z"/><path class="st3" d="M301.2 286.5c-.8-2.4-1.8-4.7-3.2-6.9-2.3-3.5-5.3-5.3-5.2-5.5.7.3 1.3.7 1.9 1.2 2.9 2.3 5 5.4 6.1 8.9.3.8.4 1.6.4 2.3zM307.4 282.5c-.4-2.5-1.1-5-2.2-7.4-1.2-2.3-2.7-4.4-4.4-6.3.7.4 1.2.9 1.8 1.5 1.3 1.3 2.3 2.9 3.1 4.6.8 1.7 1.4 3.5 1.6 5.3.2.8.2 1.5.1 2.3z"/><g class="st5"><path class="st6" d="M286.7 341.2c2.5-3.8-7.8-4.7-12.3-4.2-13.7 1.6-24 13.3-23.8 27.1 0 0 19.8 2.1 36.1-22.9z"/></g><path d="M303.5 324.2c5.2 8 12.9 13.9 21.9 17 .9.4 2 .6 3 .4 1-.2 1.8-1 1.9-2.1-10.7-5.8-19.9-14.1-26.7-24.1-.5 3.1-.1 6.2 1.3 9.1" class="st5"/><circle class="st1" cx="273.8" cy="240.8" r="22.5"/><path class="st3" d="M296.4 241.7c0 10.9-5.7 20-12.1 20s-11.5-8.8-11.5-19.7 5.2-19.7 11.5-19.7 12.1 8.5 12.1 19.4z"/><path class="st6" d="M278.7 251.1c-.2-.2-.3-.5-.5-.7-.4-.7-.7-1.4-.9-2.2-1.7-5-1.6-10.5.4-15.4.3-.7.7-1.4 1.1-2.1.1-.3.3-.5.5-.7.1 0-.5 1.1-1.2 3-.9 2.4-1.4 5-1.4 7.6-.1 2.6.3 5.1 1 7.6.5 1.7 1.1 2.8 1 2.9z"/><circle class="st6" cx="287.2" cy="229.4" r="3.9"/><path class="st3" d="M288.4 212.9c-.4.6-1.5.6-2.9.4s-3.1-.6-5-.9-3.5-.5-4.9-.7-2.4-.5-2.7-1.1.4-1.6 1.9-2.5c.9-.5 1.9-.8 2.9-.9 1.2-.2 2.4-.2 3.7 0 2.2.3 4.2 1.3 5.8 2.8 1.3 1.2 1.7 2.4 1.2 2.9z"/><path class="st4" d="M278.2 268.9c-4-8.2-.6-18 7.6-21.9 6.7-3.2 14.7-1.6 19.5 3.9"/><path class="st3" d="M305.4 250.9s-.5-.5-1.4-1.2c-1.3-1.1-2.7-2-4.2-2.6-2.3-1-4.7-1.4-7.2-1.4-6.2-.1-11.8 3.7-14.2 9.4-1 2.3-1.5 4.7-1.5 7.2 0 1.7.3 3.3.8 4.9.4 1.1.6 1.7.6 1.7-.1-.1-.2-.3-.2-.4-.2-.4-.4-.8-.5-1.3-.6-1.6-.9-3.3-.9-5-.1-2.5.4-5 1.4-7.4 2.4-5.9 8.2-9.8 14.6-9.7 2.5 0 5 .5 7.3 1.5 1.6.7 3 1.6 4.2 2.8.3.3.7.6 1 1 0 .2.1.4.2.5zM233.4 183.5c-.2.1-.3.1-.5.2l-1.5.4c-.6.2-1.4.4-2.4.7l-1.4.4-1.6.6c-5.9 2.1-11.5 4.7-16.8 8-5.3 3.3-10.4 6.9-15.2 10.9-1.9 1.5-3.3 2.8-4.4 3.6l-1.2 1c-.3.2-.4.3-.4.3.1-.1.2-.3.4-.4l1.1-1.1c1-.9 2.4-2.2 4.2-3.8 4.8-4.1 9.8-7.7 15.2-11 5.3-3.3 11-6 17-7.9l1.6-.5 1.5-.4c.9-.3 1.7-.5 2.4-.6l1.5-.3c.2 0 .4-.1.5-.1z"/></g><g id="_x34_04-error--inject-1"><path class="st3" d="M88.4 61.4c-.2-.4-.3-.8-.4-1.2-.1-.4-.2-.9-.4-1.4s-.3-1.2-.4-1.9c-.3-1.7-.4-3.3-.5-5 0-2.1.1-4.1.4-6.2.3-2 .8-4 1.5-6 .6-1.6 1.2-3.1 2-4.6.3-.7.7-1.2.9-1.7s.6-.9.8-1.2c.2-.4.5-.7.8-1 .1 0-.9 1.5-2.1 4.1-.7 1.5-1.3 3-1.8 4.6-.6 1.9-1.1 3.9-1.4 5.9-.3 2-.4 4-.4 6.1 0 1.7.1 3.3.3 5 .3 2.8.8 4.5.7 4.5z"/><path transform="rotate(-10.539 227.57 81.373)" class="st6" d="M117.3 19.3h220.6v124.1H117.3z"/><path class="st3" d="M347.3 122.2s-.2-.7-.4-2.2-.7-3.6-1.2-6.4c-1-5.6-2.6-13.8-4.6-24.4-4-21.1-9.7-51.6-16.7-89l.2.2-216.8 40.4.2-.3c8 43.1 15.7 84.4 22.7 122l-.3-.2 156-28.9 44.8-8.3 11.9-2.2 3.1-.6 1.1-.1-1 .2-3 .6-11.9 2.2-44.7 8.4-156.1 29.1-.2.1v-.2c-7-37.6-14.7-78.8-22.7-122v-.3h.2L324.6 0h.2v.2l16.5 89.2c1.9 10.6 3.5 18.8 4.5 24.3l1.2 6.3c.2 1.5.3 2.2.3 2.2z"/><path class="st3" d="m201 87.3-6.7 1.2 1.6 8.6-12.3 2.3-1.6-8.6-23.7 4.4-1.5-8.2 14.9-31.7 13.1-2.4-13.4 29.5 9.1-1.7-1.4-7.6 12-2.2 1.4 7.6 6.6-1.2 1.9 10zM201 73c-2.8-14.8 4-24.8 15.4-27s21.3 4.8 24 19.6-4 24.8-15.4 26.9-21.2-4.7-24-19.5zm26.8-5c-1.8-9.4-5.4-12.4-9.4-11.6s-6.4 4.8-4.6 14.2 5.3 12.4 9.4 11.6 6.3-4.8 4.6-14.2zM289.6 70.8 283 72l1.6 8.6-12.3 2.3-1.6-8.6-23.7 4.5-1.5-8.2 14.9-31.7 13.1-2.4L260 65.9l9.1-1.7-1.4-7.6 12-2.2 1.4 7.6 6.6-1.2 1.9 10zM205.4 123.4l.4 2.2-12.7 2.4-3.3-17.6 12.4-2.3.4 2.2-9.9 1.8 1 5.4 8.8-1.6.4 2.1-8.8 1.7 1.1 5.7 10.2-2zM221.6 122.6l-4.8-4.7c-.3.1-.7.2-1.1.3l-4.3.8 1 5.3-2.5.5-3.3-17.6 6.9-1.3c4.6-.9 7.8.9 8.5 4.8.6 2.5-.6 5.1-2.8 6.3l5.3 5.1-2.9.5zm-2.2-11.4c-.5-2.5-2.4-3.6-5.6-3l-4.3.8 1.5 7.9 4.3-.8c3.2-.6 4.6-2.4 4.1-4.9zM239.9 119.2l-4.8-4.7c-.3.1-.7.2-1.1.3l-4.3.8 1 5.4-2.5.5-3.3-17.6 6.8-1.3c4.6-.9 7.8 1 8.5 4.8.6 2.5-.6 5.1-2.8 6.3l5.3 5.1-2.8.4zm-2.2-11.4c-.5-2.5-2.4-3.6-5.6-3l-4.3.8 1.5 7.9 4.3-.8c3.1-.6 4.5-2.4 4.1-4.9zM243.3 109.5c-1-5.1 2.3-9.7 7.7-10.7s10 2.1 11 7.2-2.3 9.7-7.6 10.7-10.1-2.1-11.1-7.2zm16.2-3c-.7-3.8-4.2-6.3-8-5.7s-6.3 4.2-5.7 8 4.2 6.3 8 5.7h.1c3.7-.6 6.2-4 5.6-7.6v-.4zM279.2 111.9l-4.8-4.7c-.4.1-.7.2-1.1.2l-4.3.8 1 5.3-2.5.5-3.3-17.6 6.9-1.3c4.6-.8 7.8.9 8.5 4.8.6 2.5-.6 5.1-2.8 6.3l5.3 5.1-2.9.6zm-2.2-11.4c-.5-2.5-2.4-3.6-5.6-3l-4.3.8 1.5 7.9 4.3-.8c3.1-.6 4.5-2.4 4.1-4.9z"/><path class="st2" d="M320 13.4c.1 2.5-1.8 4.6-4.3 4.7-2.5.1-4.6-1.8-4.7-4.3-.1-2.5 1.8-4.6 4.3-4.7 2.6-.1 4.6 1.8 4.7 4.3z"/><path class="st3" d="M320 13.4s-.1-.4-.3-1.1c-.3-.9-.9-1.7-1.8-2.3-2-1.3-4.7-.8-6 1.2-.5.8-.8 1.7-.7 2.6.1 2.4 2.1 4.2 4.5 4.1.9 0 1.8-.4 2.5-.9.8-.6 1.3-1.5 1.6-2.4.2-.8.2-1.2.2-1.2v1.1c-.2 1-.7 2-1.5 2.7-1.2 1-2.9 1.4-4.4.9-2.5-.8-3.9-3.4-3.1-5.9.4-1.4 1.4-2.5 2.8-3 1.5-.6 3.2-.4 4.5.5.9.6 1.5 1.5 1.7 2.5.1.3.1.5.1.8 0 .3 0 .4-.1.4z"/><path class="st3" d="M317.5 10.3c.2 1.2 0 2.5-.6 3.5-.5 1.1-1.3 2.1-2.4 2.6.7-.9 1.4-1.9 2-2.8.4-1.1.7-2.2 1-3.3z"/><path class="st3" d="M318.4 15.1c-.1.1-.7-1.1-2.1-1.8-.9-.3-1.8-.6-2.7-.7 0-.1.3-.2.9-.2.7 0 1.4.1 2.1.5.6.3 1.2.8 1.6 1.4.2.4.3.7.2.8z"/><path transform="rotate(-38.574 113.736 80.15)" class="st2" d="M106.5 76.9h14.6v6.6h-14.6z"/><path class="st3" d="M121.5 78.2s-.5-.5-1.2-1.4l-3-3.7h.3c-2.9 2.4-6.9 5.6-11.3 9.1v-.4l.1.1.1.2.3.3.5.7 1 1.3 2 2.5h-.4c3.3-2.6 6.1-4.8 8.2-6.4l2.4-1.8c.3-.2.6-.4 1-.5-.3.2-.6.4-.8.6l-2.3 1.9c-2 1.6-4.8 4-8.2 6.7l-.2.2-.2-.2-2-2.5c-.4-.4-.7-.9-1.1-1.3l-.5-.7-.3-.3-.1-.2-.1-.1c0 .1.1-.7 0-.4 4.4-3.5 8.4-6.7 11.4-9l.1-.1.1.1c1.3 1.6 2.3 3 3 3.9.5.5.9.9 1.2 1.4z"/><path class="st2" d="M103.5 88.6c2.1 2.6 5.9 3.1 8.5 1l-7.6-9.5c-2.6 2.1-3 5.9-.9 8.5z"/><path class="st3" d="m103.5 88.6-.5-.5c-.4-.6-.7-1.2-.8-1.8-.3-1-.3-2.1 0-3.1.3-1.3 1.1-2.5 2.1-3.3l.2-.2.1.2 3.8 4.7c1.3 1.7 2.6 3.3 3.8 4.8l.1.2-.2.2c-1.1.8-2.3 1.3-3.7 1.3-1 0-2.1-.2-3-.7-.6-.3-1.1-.7-1.6-1.2l-.3-.6c.6.6 1.4 1.1 2.1 1.5 2.1 1 4.5.7 6.2-.8v.3L108 85l-3.8-4.8h.3c-1.8 1.4-2.6 3.7-2.1 5.9.3.9.6 1.8 1.1 2.5z"/><path class="st2" d="M104.8 85.5c-1 1.1-1.2 2.7-.6 4"/><path class="st3" d="M104.2 89.5c-.5-.6-.7-1.4-.5-2.2.2-1.3 1.1-2 1.1-1.9s-.5.8-.6 2 .2 2 0 2.1zM112 86.1c-.8-.8-1.5-1.7-2.2-2.7-.8-.8-1.5-1.7-2.2-2.7 1 .6 1.9 1.4 2.6 2.3.8 1 1.4 2 1.8 3.1zM113.4 85.1c-.8-.8-1.5-1.7-2.2-2.7-.8-.8-1.5-1.7-2.2-2.7 1.9 1.3 3.5 3.2 4.4 5.4zM114.7 84c-.8-.8-1.5-1.7-2.2-2.7-.8-.8-1.5-1.7-2.2-2.7 1 .6 1.9 1.4 2.6 2.3.8 1 1.4 2 1.8 3.1zM116 82.9c-.8-.8-1.5-1.7-2.2-2.7-.8-.8-1.5-1.7-2.2-2.7 1 .6 1.9 1.4 2.6 2.3.8 1 1.4 2 1.8 3.1zM117.4 81.9c-.8-.8-1.5-1.7-2.2-2.7-.8-.8-1.5-1.7-2.2-2.7 1 .6 1.9 1.4 2.6 2.3.8.9 1.4 2 1.8 3.1zM118.7 80.8c-.8-.8-1.5-1.7-2.2-2.7-.8-.8-1.5-1.7-2.2-2.7 1 .6 1.9 1.4 2.6 2.3.8 1 1.4 2 1.8 3.1zM120 79.7c-.8-.8-1.5-1.7-2.2-2.7-.8-.8-1.5-1.7-2.2-2.7 1 .6 1.9 1.4 2.6 2.3.8 1 1.4 2 1.8 3.1zM127.9 50.6c-.1 0-.1-.4-.3-1.1-.3-1-.9-1.8-1.8-2.3-2-1.4-4.7-.8-6.1 1.1-.5.8-.8 1.7-.8 2.6.1 2.4 2.1 4.3 4.6 4.2.9 0 1.8-.4 2.6-1s1.3-1.5 1.6-2.5c.1-.6.1-1 .2-1s0 .1.1.3c0 .3 0 .6-.1.8-.2 1.1-.7 2-1.5 2.7-1.2 1.1-2.9 1.4-4.5.9-2.5-.8-3.9-3.5-3.1-6 .4-1.3 1.4-2.4 2.7-3 1.5-.6 3.2-.4 4.6.6.9.6 1.5 1.5 1.8 2.6.1.3.1.6.1.8l-.1.3zM98.2 61.7c-.2-.4-.3-.8-.4-1.2-.2-.5-.3-.9-.4-1.4-.1-.6-.3-1.2-.4-1.9-.3-1.7-.4-3.3-.5-5-.1-4.1.6-8.2 1.9-12.2.6-1.6 1.2-3.1 2-4.6.3-.7.7-1.2.9-1.7.2-.4.5-.8.8-1.2.2-.4.5-.7.8-1 .1.1-.9 1.5-2.1 4.1-.7 1.5-1.3 3-1.8 4.6-.6 1.9-1.1 3.9-1.4 5.9-.3 2-.5 4-.5 6.1 0 1.7.1 3.3.3 5 .4 2.8.9 4.5.8 4.5zM361.9 105.6c.2.4.3.8.4 1.2.1.5.3.9.4 1.4.1.6.3 1.2.4 1.9.3 1.7.4 3.3.5 5 .1 4.1-.6 8.2-1.9 12.1-.5 1.6-1.2 3.1-2 4.6-.3.6-.6 1.2-.9 1.7-.2.4-.5.8-.8 1.2-.2.4-.5.7-.7 1-.1-.1.9-1.5 2.1-4.1.7-1.5 1.3-3 1.9-4.6.6-1.9 1.1-3.9 1.4-5.9.3-2 .5-4 .5-6.1 0-1.7-.1-3.3-.4-5-.5-2.6-1-4.3-.9-4.4zM368.4 107.4c.2.4.3.8.4 1.2.1.5.3.9.4 1.4.1.6.3 1.2.4 1.9.3 1.7.4 3.3.5 5 0 2.1-.1 4.1-.4 6.1-.3 2-.8 4-1.5 6-.6 1.6-1.2 3.1-2 4.6-.3.6-.6 1.2-.9 1.7-.2.4-.5.9-.8 1.3-.2.4-.5.7-.7 1-.1-.1.9-1.5 2.1-4.1.7-1.5 1.3-3 1.9-4.6.6-1.9 1.1-3.9 1.4-5.9.3-2 .5-4 .5-6.1 0-1.7-.1-3.3-.4-5-.5-2.8-1-4.5-.9-4.5z"/></g><g id="speech-bubble--inject-1"><path d="M150.9 185.8c14-18.7 10.2-45.1-8.5-59.1s-45.1-10.2-59.1 8.5-10.2 45.1 8.5 59.1c14.2 10.7 33.6 11.3 48.5 1.5l14.5 6.4-3.9-16.4z" style="fill:#fafafa"/><path class="st4" d="M104.3 158.2c.1-1.6.7-3.1 1.8-4.3.9-1.2 2.3-2.2 3.8-2.6 2.6-.8 5.4.4 6.8 2.7 1.2-2.4 3.7-3.7 6.4-3.3 1.5.3 2.9 1.1 4 2.2s1.9 2.5 2.2 4.1c.4 2 .1 4.1-.8 5.9-1.1 1.9-2.6 3.4-4.4 4.6-2.9 2-6.7 4.5-6.7 4.5s-3.5-2.3-6.6-3.9c-1.9-.9-3.6-2.3-4.9-4.1-1.2-1.8-1.7-3.8-1.6-5.8z"/><path class="st3" d="M117 118.5h-.7l-2.1.1c-.5 0-1 0-1.6.1l-1.9.3-2.2.3-2.5.6c-4.3 1.1-8.3 2.8-12 5.2-11.1 7-18.3 18.8-19.5 31.9-.2 1.9-.2 3.9-.1 5.8.1 1 0 2 .2 3s.3 2 .5 3c.7 4.1 2.1 8.1 4 11.8 2 3.9 4.6 7.5 7.7 10.6 3.3 3.2 7 5.9 11.1 8 4.2 2.2 8.8 3.6 13.6 4.2 1.2.2 2.4.3 3.6.3 1.2.1 2.4.1 3.7.1 2.5-.1 4.9-.4 7.3-.9 5.2-1.1 10.2-3.2 14.6-6.2l-.4.1 14.9 6 .9.4-.2-.9-4.3-15.9-.1.4c4-5.3 6.7-11.6 7.9-18.1.6-3.1.8-6.2.6-9.3 0-1.5-.2-3-.4-4.5-.1-.7-.2-1.4-.3-2.2s-.4-1.4-.5-2.1c-2.5-9.8-8.4-18.3-16.6-24.2-3-2.2-6.4-3.9-9.9-5.2l-2.2-.8-2.1-.5-1.9-.5-1.8-.3c-1.1-.1-2.1-.3-3-.4l-2.2-.1h-1.3c-.4-.2-.6-.2-.8-.1h.5l1.3.1 2.2.1c.9.1 1.8.3 2.9.4 16.5 2.8 29.7 15.1 33.8 31.3.2.7.4 1.4.5 2.1l.3 2.1c.2 1.5.4 2.9.4 4.4.2 3.1 0 6.1-.6 9.1-1.2 6.4-3.9 12.5-7.8 17.8l-.1.2.1.2c1.4 5.1 2.8 10.4 4.3 15.9l.6-.6-14.9-6-.2-.1-.2.1c-4.3 2.9-9.2 4.9-14.3 6-2.4.5-4.8.8-7.2.9-1.2 0-2.4 0-3.6-.1-1.2 0-2.4-.1-3.5-.3-4.6-.6-9.1-1.9-13.3-4.1-4-2-7.7-4.6-11-7.8-3-3.1-5.6-6.6-7.6-10.4-1.9-3.6-3.2-7.5-4-11.6-.2-1-.3-2-.4-2.9s-.1-2-.2-2.9c-.7-14.9 6.5-29.1 19.1-37.2 3.6-2.4 7.6-4.2 11.8-5.3l2.4-.6 2.2-.4 1.9-.3c.6-.1 1.1-.1 1.6-.1l2.1-.2c.4.2.7.2.9.2z"/></g></svg>