<svg version="1.1" id="Layer_1" xmlns="http://www.w3.org/2000/svg" x="0" y="0" viewBox="0 0 677.4 420.8" style="enable-background:new 0 0 677.4 420.8" xml:space="preserve"><style>.st0{fill:#ebebeb}.st1{fill:#e0e0e0}.st2{fill:#0061f2}.st4{fill:#fff}.st6{opacity:.4}.st7{fill:#455a64}.st8{fill:#263238}.st9{fill:#ffbe9d}.st10{fill:#eb996e}.st11{opacity:.3}</style><g id="background-complete--inject-2"><path class="st0" d="M433.6 408c8-4.5 18.2-1.6 22.7 6.4 1.1 2 1.8 4.2 2 6.4-10.1 0-19.9-2.3-24.7-12.8M445.4 397.6c11.3 3.7 23.5-2.4 27.2-13.8.9-2.8 1.3-5.8 1-8.7-12.9 2.6-24.9 8.1-28.2 22.5"/><path class="st1" d="M401.4 414.7c.2-.1.4-.2.6-.2l1.9-.6c1.6-.5 3.9-1.3 6.8-2.3 5.7-2 13.5-4.8 22-8.5 4.2-1.9 8.2-3.7 11.7-5.5s6.7-3.6 9.2-5.1c2-1.2 4-2.6 5.9-4 1.3-1 2-1.7 2-1.7-.1.2-.3.4-.5.5-.5.5-.9.9-1.4 1.3-1.8 1.5-3.8 2.9-5.8 4.2-2.5 1.6-5.7 3.4-9.2 5.3s-7.5 3.7-11.8 5.6c-8.5 3.7-16.3 6.5-22.1 8.4-2.9 1-5.2 1.6-6.8 2.1l-1.9.5h-.6z"/><path class="st1" d="M446.6 413.9c0 .1-1.2-.7-3.2-1.8-2.6-1.4-5.4-2.5-8.3-3.3-2.9-.8-5.8-1.2-8.8-1.4-2.3-.1-3.7 0-3.7-.1.3-.1.7-.1 1-.2.9-.1 1.8-.1 2.7-.1 6.1 0 12 1.7 17.3 4.7.8.5 1.6 1 2.3 1.5.3.2.5.4.7.7z"/><path class="st0" d="M208.4 368.9c-4.1 10.9 1.4 23 12.3 27 2.7 1 5.5 1.5 8.4 1.3-2-12.5-6.8-24.5-20.7-28.3"/><path class="st1" d="M206.4 362.7c.1 0 .4 1.4 1.1 3.6.9 2.9 2.1 5.6 3.6 8.3 1.4 2.6 3.1 5.2 4.9 7.5 1.4 1.8 2.4 2.9 2.3 2.9-.3-.2-.5-.4-.8-.7-.5-.5-1.1-1.1-1.9-2-3.9-4.7-6.8-10.1-8.6-15.9-.3-1.1-.6-2-.7-2.7.1-.3.1-.6.1-1z"/><path class="st0" d="M8.5 116.6c-6.3 16.8 2.2 35.6 19 41.9 4.2 1.6 8.6 2.3 13.1 2-3-19.5-10.4-38-32.1-43.9"/><path class="st1" d="M5.5 107c.2.5.4 1 .5 1.5.3 1 .7 2.4 1.2 4.1 1.5 4.4 3.3 8.7 5.5 12.9 2.2 4.1 4.8 8 7.7 11.7 1.1 1.4 2 2.5 2.7 3.3.4.4.7.8 1 1.2-.4-.3-.8-.7-1.1-1.1-.7-.7-1.7-1.8-2.8-3.2-6-7.2-10.5-15.6-13.2-24.7-.5-1.7-.9-3.1-1.1-4.1-.3-.5-.4-1.1-.4-1.6z"/><path class="st0" d="M42.3 315.6c-9 7.3-10.5 20.5-3.2 29.5 1.8 2.2 4 4.1 6.6 5.4 4.8-11.7 6.7-24.5-3.4-34.9"/><path class="st1" d="M43.8 309.3c.1 0-.3 1.4-.8 3.7-1.3 5.9-1.5 12-.8 17.9.3 2.3.6 3.7.5 3.7-.1-.3-.2-.7-.3-1-.2-.6-.4-1.5-.6-2.7-1-6-.7-12.2.8-18.1.3-1.1.6-2 .8-2.6.1-.3.2-.6.4-.9z"/><path class="st0" d="M227.9 62.8c10.4 5.2 23 .9 28.2-9.4 1.3-2.6 2-5.4 2.2-8.2-12.8.5-25.2 4.1-30.4 17.6"/><path class="st1" d="M221.5 64.1c0-.1 1.4-.3 3.7-.8 5.9-1.3 11.5-3.6 16.6-6.8 2-1.2 3.1-2.1 3.2-2-.2.3-.5.5-.7.7-.5.4-1.3 1-2.2 1.6-5 3.4-10.7 5.8-16.7 6.9-1.1.2-2.1.3-2.7.4-.5.1-.8.1-1.2 0z"/><path class="st0" d="M202 60.9c15-3.2 24.5-17.9 21.3-32.9-.8-3.7-2.3-7.2-4.5-10.3-12.7 11.2-22.5 25.1-16.8 43.2"/><path class="st1" d="M196.5 67.5c.2-.4.5-.7.8-1 .6-.6 1.4-1.6 2.3-2.8 5-6.2 8.9-13.2 11.5-20.7.5-1.4.9-2.6 1.1-3.4.1-.4.2-.9.4-1.3 0 .4-.1.9-.2 1.3-.2.8-.5 2-1 3.5-2.4 7.7-6.3 14.7-11.6 20.8-1 1.2-1.9 2.1-2.5 2.7-.1.4-.4.7-.8.9z"/><path class="st0" d="M284 403.5c3.2 6.2 10.8 8.7 17 5.6 1.5-.8 2.9-1.9 4-3.2-6.4-4.3-13.6-7-21-2.4"/><path class="st1" d="M280.5 401.9c2.3 1 4.7 1.9 7.2 2.6 2.5.6 5 .9 7.6 1.1-.7.2-1.5.2-2.3.1-3.7-.1-7.3-1-10.6-2.7-.7-.2-1.4-.6-1.9-1.1z"/><path class="st0" d="M376.7 44.5c4.3 5.5 12.2 6.5 17.7 2.2 1.4-1.1 2.5-2.4 3.3-3.9-7-3.1-14.7-4.3-21 1.7"/><path class="st1" d="M372.9 43.5c5 1.3 10.1 1.6 15.2.8-.7.3-1.4.5-2.2.6-3.6.6-7.4.4-10.9-.6-.7-.1-1.4-.4-2.1-.8z"/><path class="st0" d="M616.9 75.2c11.2 3.1 22.7-3.5 25.8-14.7.8-2.8.9-5.6.6-8.5-12.3 3.1-23.8 9-26.4 23.2"/><path class="st1" d="M611 77.7c0-.1 1.3-.6 3.5-1.5 5.5-2.4 10.6-5.7 15-9.9 1.7-1.6 2.7-2.7 2.7-2.6-.2.3-.4.6-.6.8-.4.5-1 1.2-1.9 2-4.3 4.3-9.4 7.7-15.1 9.9-1.1.4-2 .7-2.6.9-.4.3-.7.4-1 .4z"/><path class="st0" d="M640.6 380c19.7-4.6 31.9-24.2 27.4-43.9-1.1-4.9-3.2-9.4-6.2-13.4-16.4 14.9-29.1 33.4-21.2 57.3"/><path class="st1" d="M633.5 388.8c.3-.5.7-.9 1.1-1.4.8-.8 1.8-2.1 3-3.7s2.7-3.5 4.2-5.7 3-4.7 4.5-7.4 2.7-5.4 3.7-7.8 1.8-4.7 2.5-6.6 1.1-3.5 1.4-4.6c.1-.6.3-1.1.5-1.7-.1.6-.2 1.2-.3 1.7-.2 1.1-.6 2.7-1.2 4.6s-1.4 4.2-2.3 6.7-2.2 5.1-3.7 7.9c-1.4 2.6-2.9 5-4.5 7.4-1.5 2.2-3 4.1-4.3 5.7s-2.4 2.8-3.2 3.6c-.5.5-.9.9-1.4 1.3z"/></g><g id="Shape--inject-2"><path class="st2" d="M504.8 253.9c-6.3-35.2-36.6-66-72.3-68.9-19.5-1.6-39 4.6-58.4 2.2-16.4-2-31.5-10-42.5-22.4-16-18.2-21.4-44.1-38.4-61.4-23.3-23.9-64.1-24.3-92.5-6.7s-45.6 49.3-53.4 81.7l-.3 9.9c-1.7 33.7 7.1 72.8 26.7 102.8 19.8 30.4 32.8 43 68.9 64.8 30.6 18.6 90.6 26.7 126.4 27.6s72.6-9.8 99.5-33.4 42.7-60.9 36.3-96.2z"/><path class="st4" d="M504.8 253.9c-6.3-35.2-36.6-66-72.3-68.9-19.5-1.6-39 4.6-58.4 2.2-16.4-2-31.5-10-42.5-22.4-16-18.2-21.4-44.1-38.4-61.4-23.3-23.9-64.1-24.3-92.5-6.7s-45.6 49.3-53.4 81.7l-.3 9.9c-1.7 33.7 7.1 72.8 26.7 102.8 19.8 30.4 32.8 43 68.9 64.8 30.6 18.6 90.6 26.7 126.4 27.6s72.6-9.8 99.5-33.4 42.7-60.9 36.3-96.2z" style="opacity:.8"/><circle class="st2" cx="522.9" cy="377.3" r="17.2"/><circle cx="522.9" cy="377.3" r="17.2" style="opacity:.8;fill:#fff;enable-background:new"/></g><g id="error-404--inject-2"><path class="st2" d="M401.8 244.6c.3 34.4-7.2 60.8-22.5 79s-36.3 27.5-63 27.7c-26.8.3-48.1-8.6-63.9-26.5-15.8-17.9-23.9-44.1-24.2-78.5l-.6-60.6c-.3-34.3 7.2-60.6 22.5-79s36.4-27.7 63.2-27.9c26.7-.3 47.9 8.6 63.7 26.7s23.9 44.2 24.2 78.5l.6 60.6zM357 177.7c-.2-21.7-4-37.7-11.3-48s-18-15.4-32-15.3c-14 .1-24.5 5.4-31.6 15.9-7.1 10.5-10.6 26.6-10.4 48.2l.7 73.6c.2 21.8 4 37.9 11.5 48.3s18.1 15.5 32.1 15.4c13.9-.1 24.4-5.4 31.5-15.9 7.1-10.5 10.5-26.7 10.3-48.6l-.8-73.6z"/><path d="M401.8 244.6c.3 34.4-7.2 60.8-22.5 79s-36.3 27.5-63 27.7c-26.8.3-48.1-8.6-63.9-26.5-15.8-17.9-23.9-44.1-24.2-78.5l-.6-60.6c-.3-34.3 7.2-60.6 22.5-79s36.4-27.7 63.2-27.9c26.7-.3 47.9 8.6 63.7 26.7s23.9 44.2 24.2 78.5l.6 60.6zM357 177.7c-.2-21.7-4-37.7-11.3-48s-18-15.4-32-15.3c-14 .1-24.5 5.4-31.6 15.9-7.1 10.5-10.6 26.6-10.4 48.2l.7 73.6c.2 21.8 4 37.9 11.5 48.3s18.1 15.5 32.1 15.4c13.9-.1 24.4-5.4 31.5-15.9 7.1-10.5 10.5-26.7 10.3-48.6l-.8-73.6z" class="st6"/><path class="st2" d="M427.2 244.3c.3 34.4-7.2 60.8-22.5 79-15.3 18.2-36.3 27.5-63 27.7-26.8.3-48.1-8.6-63.9-26.5-15.8-17.9-23.8-44-24.2-78.5l-.6-60.6c-.3-34.3 7.2-60.6 22.5-79s36.4-27.7 63.2-27.9c26.7-.2 47.9 8.6 63.7 26.7s23.9 44.2 24.1 78.5l.7 60.6zm-44.8-66.9c-.2-21.7-4-37.7-11.4-48-7.4-10.3-18-15.4-32-15.3-14 .1-24.5 5.4-31.6 15.9-7.1 10.5-10.6 26.6-10.4 48.3l.7 73.6c.2 21.8 4 37.9 11.5 48.3 7.4 10.4 18.1 15.5 32.1 15.4 13.9-.1 24.4-5.4 31.5-15.9 7.1-10.5 10.5-26.7 10.3-48.6l-.7-73.7z"/><path class="st2" d="M253.2 189.1c0 .1-5.9 2.5-13.2 5.2s-13.3 4.8-13.3 4.8 5.9-2.5 13.2-5.2 13.2-5 13.3-4.8zM254.6 213c0 .1-5.9 2.5-13.2 5.2-7.4 2.8-13.3 4.9-13.4 4.8s5.9-2.5 13.2-5.2 13.4-5 13.4-4.8zM256.1 236.9c0 .1-5.9 2.5-13.2 5.2s-13.3 4.9-13.4 4.8 5.9-2.5 13.2-5.2 13.4-4.9 13.4-4.8zM257.6 260.8c0 .1-5.9 2.5-13.2 5.2s-13.3 4.9-13.4 4.8 5.9-2.5 13.2-5.2 13.3-4.9 13.4-4.8zM259.1 284.8c-.3.2-.6.3-.9.5-.6.3-1.5.6-2.6 1-2.2.9-5.2 2-8.5 3.3s-6.4 2.4-8.6 3.1c-1.1.4-2 .7-2.6.9-.3.1-.7.2-1 .3.3-.2.6-.3.9-.5.6-.3 1.5-.6 2.6-1 2.2-.9 5.2-2 8.5-3.3s6.4-2.4 8.6-3.1c1.1-.4 2-.7 2.6-.9.3-.2.6-.3 1-.3zM265.9 306.7c-1 .5-2 1-3 1.3-1.9.8-4.5 1.8-7.4 2.9s-5.6 2.1-7.5 2.7c-1 .4-2.1.8-3.2 1 1-.5 2-1 3-1.3 1.9-.8 4.5-1.8 7.4-2.9s5.6-2.1 7.5-2.7c1.1-.5 2.1-.8 3.2-1zM280.5 326.7c-.9.5-1.8.9-2.7 1.2-1.7.7-4 1.6-6.6 2.6s-5 1.8-6.7 2.4c-.9.4-1.9.7-2.8.9.9-.5 1.8-.9 2.7-1.2 1.7-.7 4-1.6 6.6-2.6s5-1.8 6.7-2.4c.9-.4 1.9-.7 2.8-.9zM304.8 339.9c-.9.5-1.8.9-2.7 1.2-1.7.7-4 1.6-6.6 2.6s-5 1.8-6.7 2.4c-.9.4-1.9.7-2.8.9.9-.5 1.8-.9 2.7-1.2 1.7-.7 4-1.6 6.6-2.6s5-1.8 6.7-2.4c.9-.4 1.9-.7 2.8-.9zM378.1 288.8c.1.1-7.5 3.7-17 7.9s-17.1 7.6-17.2 7.4 7.5-3.7 17-7.9 17.2-7.5 17.2-7.4zM383.1 268.3c.1.1-6.2 3.1-14 6.6s-14.1 6.2-14.2 6.1 6.2-3.1 14-6.6 14.2-6.2 14.2-6.1zM385.4 245.3c.1.1-6.2 3.1-14 6.6s-14.1 6.2-14.2 6.1 6.2-3.1 14-6.6 14.2-6.3 14.2-6.1zM387.7 222.3c.1.1-6.2 3.1-14 6.6s-14.1 6.2-14.2 6.1 6.2-3.1 14-6.6 14.1-6.3 14.2-6.1zM390 199.2c0 .1-6.2 3.1-14 6.6s-14.1 6.2-14.2 6.1 6.2-3.1 14-6.6 14.2-6.2 14.2-6.1zM385.4 178.7c.1.1-6.2 3.1-14 6.6s-14.1 6.2-14.2 6.1 6.2-3.1 14-6.6 14.2-6.2 14.2-6.1zM385.4 156.7c.1.1-6.2 3.1-14 6.6s-14.1 6.2-14.2 6.1 6.2-3.1 14-6.6 14.2-6.3 14.2-6.1zM383.1 135.9c.1.1-6.2 3.1-14 6.6s-14.1 6.2-14.2 6.1 6.2-3.1 14-6.6 14.2-6.3 14.2-6.1zM363.4 121.4c-2.7 1.5-5.6 2.9-8.5 4.1-2.8 1.4-5.7 2.6-8.7 3.6 2.7-1.5 5.6-2.9 8.5-4.1 2.8-1.4 5.7-2.6 8.7-3.6zM352.8 112.5c-2.7 1.5-5.6 2.9-8.5 4.1-2.8 1.4-5.7 2.6-8.7 3.6 2.7-1.5 5.6-2.9 8.5-4.1 2.9-1.3 5.8-2.6 8.7-3.6zM254.3 160c0 .1-5.9 2.5-13.2 5.2s-13.3 4.9-13.4 4.8 5.9-2.5 13.2-5.2 13.4-4.9 13.4-4.8zM261.6 130.2c.1.1-6.4 2.7-14.3 5.7s-14.5 5.3-14.5 5.2 6.4-2.7 14.3-5.7 14.5-5.3 14.5-5.2zM280.9 100.7c0 .1-8.1 3.3-18.2 7.1s-18.3 6.8-18.3 6.6 8.1-3.3 18.2-7.1 18.3-6.8 18.3-6.6z"/><path class="st4" d="m422.9 289.1-.4-.1-1.2-.5c-.5-.2-1.2-.3-2-.6-.9-.2-1.9-.3-2.8-.4-4.3-.3-10.7 1.3-16.9 5.9-3.4 2.5-6.4 5.5-8.9 8.8-2.9 3.5-5.7 7.5-8.9 11.5-3.2 4.3-7.1 8.1-11.5 11.2-4.8 3.2-10.2 5.4-15.9 6.5-5.7 1-11.6.8-17.2-.6-5.2-1.4-10.2-3.2-15.1-5.6-4.6-2.1-9-4.3-13.1-6.1-3.9-1.7-7.8-3-11.9-4-3.4-.8-6.8-1.2-10.3-1.2-2.6 0-5.2.4-7.8 1-1.6.5-3.1 1.1-4.6 1.8l-1.1.6c-.1.1-.3.1-.4.2l.4-.2 1.1-.6c1.5-.8 3-1.4 4.6-1.9 2.5-.7 5.2-1.1 7.8-1.1 3.5 0 7 .3 10.4 1.1 4.1 1 8.1 2.3 12 4 4.2 1.8 8.5 4 13.2 6.1 4.8 2.3 9.8 4.2 15 5.5 5.6 1.4 11.4 1.6 17 .6s11-3.2 15.8-6.4c4.4-3.1 8.2-6.8 11.4-11 3.2-4 6-7.9 8.9-11.5 2.6-3.3 5.6-6.3 9-8.9 6.3-4.6 12.8-6.2 17.1-5.8 1 .1 1.9.2 2.9.4.8.2 1.5.4 2 .6l1.2.5.2.2zM429.2 222.4s-.7.1-2 .5c-1.7.6-3.4 1.5-4.8 2.6-1.9 1.3-4 3.2-6.4 5.1-2.7 2.1-5.5 3.8-8.6 5.3-5.5 2.7-11.5 4.2-17.7 4.6-1.2.1-2.2.1-3.2.1s-1.7-.1-2.4-.1l-1.5-.1c-.2 0-.3 0-.5-.1h4.4c.9 0 2 0 3.1-.2 6.1-.5 12-2.1 17.5-4.7 3-1.4 5.9-3.2 8.5-5.2 2.4-1.9 4.5-3.7 6.5-5 1.5-1.1 3.2-1.9 5-2.5l1.5-.3h.6zM298.6 245.6c-.2 0-.4 0-.5-.1-.4-.1-.9-.2-1.6-.4-1.9-.6-3.7-1.3-5.4-2.4-2.5-1.5-4.8-3.2-7-5.1-2.5-2.1-5.2-4.5-8.3-6.6-2.9-2-6.1-3.5-9.5-4.4-4.7-1.2-9.6-1.1-14.2.1-1.3.3-2 .6-2.1.5.2-.1.3-.2.5-.2.3-.1.8-.3 1.5-.5 1.9-.5 3.8-.9 5.8-1 2.9-.2 5.8 0 8.6.7 3.5.8 6.8 2.3 9.7 4.4 3.1 2.1 5.8 4.5 8.3 6.6 2.2 1.9 4.5 3.6 6.9 5.2 1.6 1 3.4 1.8 5.2 2.5.8.3 1.5.5 2.1.7zM298.8 151.1c-.5.2-1.1.5-1.7.6-.7.2-1.3.4-2 .6-.8.2-1.7.5-2.7.6s-2.1.4-3.3.6-2.5.3-3.8.4c-2.9.2-5.9.1-8.8-.1-2.9-.3-5.8-.8-8.7-1.5-1.3-.4-2.5-.7-3.7-1.1s-2.2-.8-3.1-1.2-1.8-.8-2.5-1.1-1.4-.7-1.9-.9l-1.5-.9c.6.2 1.1.4 1.6.7.5.2 1.1.6 1.9.9s1.6.7 2.5 1.1 2 .8 3.1 1.1 2.4.7 3.7 1.1c5.7 1.4 11.5 2 17.3 1.6 1.3-.1 2.6-.2 3.8-.4s2.3-.3 3.3-.5 1.9-.4 2.7-.6 1.5-.4 2-.5c.6-.3 1.2-.4 1.8-.5zM423.6 150.8c-.1-.1-.3-.1-.4-.2l-1.2-.7c-.6-.4-1.2-.7-1.9-1-.8-.4-1.7-.8-2.5-1.2l-1.5-.6c-.5-.2-1.1-.4-1.7-.6-1.1-.4-2.4-.7-3.7-1.1-5.8-1.3-11.8-1.4-17.7-.1-1.3.3-2.5.6-3.8 1-.6.2-1.1.3-1.7.5l-1.5.6c-.9.3-1.7.7-2.5 1.1-.6.3-1.3.6-1.9 1l-1.2.6c-.3.1-.4.2-.4.2.1-.1.2-.2.4-.3l1.1-.7c.6-.4 1.2-.7 1.9-1.1.8-.5 1.7-.9 2.5-1.2l1.5-.6c.5-.2 1.1-.4 1.7-.6 1.2-.4 2.5-.8 3.8-1.1 5.9-1.3 12-1.2 17.9.2 1.3.4 2.6.7 3.8 1.1.6.2 1.1.4 1.7.6l1.5.7c.9.4 1.7.8 2.5 1.3.6.3 1.2.7 1.8 1.1l1.1.8c.3.2.4.3.4.3zM362.4 82.9c-.2.2-.5.3-.7.4l-2.1 1.1c-1.9 1-4.5 2.4-7.9 4.1-6.7 3.3-16.1 7.8-27.2 10.7-5.2 1.3-10.6 2.1-16 2.2-4.4.1-8.8-.3-13.1-1.1-2.9-.6-5.8-1.5-8.5-2.6-1-.4-1.7-.8-2.2-1-.3-.1-.5-.2-.8-.4.3.1.5.2.8.3.5.2 1.2.6 2.2.9 2.8 1.1 5.6 1.9 8.5 2.4 4.3.8 8.7 1.2 13 1 5.4-.2 10.7-.9 15.9-2.2 11.1-2.8 20.5-7.2 27.2-10.5l8-3.9 2.1-1.1c.3-.1.6-.2.8-.3z"/><path class="st2" d="m161.7 257.1 33.4 1.5-1.6 35.4-33.4-1.5-2.6 58.9-44-1.9 2.6-58.9-113.5-5 .1-27 121-173.8 45.4 2-7.4 170.3zm-115-5 71 3.1 4.7-107.4-1.1-.4-4 7.6-70.6 97.1z"/><path d="m161.7 257.1 33.4 1.5-1.6 35.4-33.4-1.5-2.6 58.9-44-1.9 2.6-58.9-113.5-5 .1-27 121-173.8 45.4 2-7.4 170.3zm-115-5 71 3.1 4.7-107.4-1.1-.4-4 7.6-70.6 97.1z" class="st6"/><path class="st2" d="m189.6 258.4 33.4 1.5-1.6 35.4-33.4-1.5-2.6 58.9-44-1.9 2.6-58.9-113.6-5 .1-27 121-173.7 45.4 2-7.3 170.2zm-115-5 71.1 3.1 4.7-107.4-1.1-.4-4 7.6-70.7 97.1z"/><path class="st2" d="M31.2 265.1c-.3.2-.7.4-1.1.6-.7.4-1.8.9-3 1.5-2.6 1.2-6.2 2.8-10.2 4.5s-7.7 3.1-10.3 4.1c-1.3.5-2.4.9-3.2 1.1-.4.2-.8.3-1.2.4.4-.2.7-.4 1.1-.5l3.1-1.3 10.2-4.3 10.2-4.4 3.1-1.3c.5-.2.9-.4 1.3-.4zM47.5 235.1c-.5.3-1 .6-1.5.8-1 .5-2.4 1.2-4.2 2-3.6 1.6-8.5 3.8-14 6.1s-10.6 4.3-14.2 5.7c-1.8.7-3.3 1.3-4.3 1.6-.5.2-1.1.4-1.6.5.5-.3 1-.5 1.5-.7l4.3-1.8 14.1-5.9 14.1-6 4.3-1.8c.4-.1 1-.3 1.5-.5zM67.4 208.4c-.5.3-1 .6-1.6.8-1 .5-2.5 1.2-4.4 2-3.7 1.6-8.9 3.8-14.6 6.1s-11 4.4-14.8 5.8c-1.9.7-3.5 1.3-4.5 1.6-.5.2-1.1.4-1.7.5.5-.3 1.1-.5 1.6-.7l4.5-1.8 14.7-5.9 14.7-6 4.5-1.8c.4-.2 1-.4 1.6-.6zM147 239.2c-.3.2-.7.4-1.1.6-.7.4-1.8.8-3.1 1.4-2.6 1.2-6.2 2.7-10.2 4.4s-7.7 3-10.3 4c-1.3.5-2.4.9-3.2 1.1-.4.1-.8.3-1.2.3.3-.2.7-.4 1.1-.5l3.1-1.3 10.3-4.1 10.2-4.2 3.1-1.3c.5-.1.9-.3 1.3-.4zM143.7 294.2c-.3.2-.7.4-1.1.6-.7.3-1.7.8-2.9 1.4-2.5 1.2-6 2.7-9.9 4.3s-7.4 3-10 4c-1.3.5-2.4.9-3.1 1.1-.4.2-.8.3-1.2.3.3-.2.7-.4 1.1-.5l3-1.3 10-4.1 9.9-4.2 3-1.3c.5-.1.8-.2 1.2-.3zM143.3 313.4c-.3.2-.6.4-1 .6-.7.4-1.7.8-3 1.4-2.5 1.2-6 2.7-9.9 4.3s-7.4 3-10 4c-1.3.5-2.3.9-3.1 1.1-.4.2-.8.3-1.1.3.3-.2.7-.4 1.1-.5l3-1.3 10-4.1 9.9-4.2 3-1.3c.3 0 .7-.2 1.1-.3zM142.8 332.7c-.3.2-.6.4-1 .6-.7.4-1.7.8-3 1.4-2.5 1.2-6 2.7-9.9 4.3s-7.4 3-10 4c-1.3.5-2.4.9-3.1 1.1-.4.2-.8.3-1.1.3.3-.2.7-.4 1.1-.5l3-1.2 10-4.1 9.9-4.2 3-1.3c.4-.2.7-.3 1.1-.4zM147.5 218.9c-.3.2-.7.4-1.1.6-.7.4-1.8.8-3 1.4-2.6 1.2-6.2 2.7-10.2 4.4s-7.7 3-10.3 4c-1.3.5-2.4.9-3.2 1.1-.4.2-.8.3-1.2.3.3-.2.7-.4 1.1-.5l3.1-1.3 10.3-4.1 10.2-4.2 3.1-1.3c.4-.2.8-.3 1.2-.4zM148 198.6c-.3.2-.7.4-1.1.6-.7.3-1.8.8-3.1 1.4-2.6 1.2-6.2 2.7-10.2 4.3s-7.7 3-10.3 4c-1.3.5-2.4.9-3.2 1.1-.4.2-.8.3-1.2.3.3-.2.7-.4 1.1-.5l3.1-1.3 10.3-4.1 10.2-4.2 3.1-1.3c.5-.1.9-.2 1.3-.3zM148.5 178.2c-.3.2-.6.4-1 .6-.7.3-1.7.8-2.9 1.4-2.5 1.1-5.9 2.6-9.7 4.1s-7.3 2.9-9.9 3.8c-1.3.4-2.3.8-3 1-.4.1-.7.3-1.1.3.3-.2.7-.4 1.1-.5l3-1.2 9.8-3.9 9.8-4 3-1.2c.3-.2.6-.3.9-.4zM150.8 159.2c-1.6.9-3.3 1.6-5 2.1-1.7.7-3.4 1.3-5.2 1.6 1.6-.9 3.3-1.6 5-2.1 1.7-.7 3.4-1.2 5.2-1.6zM87.2 180.7c-.5.3-1 .6-1.6.8-1 .5-2.5 1.1-4.4 2-3.7 1.6-8.9 3.8-14.6 6.1s-11 4.4-14.8 5.8c-1.9.7-3.4 1.3-4.5 1.6-.6.2-1.1.4-1.7.5.5-.3 1.1-.5 1.6-.7l4.5-1.8 14.7-6 14.7-6 4.4-1.8c.6-.1 1.1-.3 1.7-.5zM107 153c-.5.3-1 .6-1.6.8-1 .5-2.5 1.2-4.4 2-3.7 1.6-8.9 3.8-14.6 6.1-5.7 2.3-11 4.4-14.8 5.8-1.9.7-3.4 1.3-4.5 1.6-.5.2-1.1.4-1.7.5.5-.3 1.1-.5 1.6-.7l4.5-1.8 14.7-5.9 14.7-6 4.4-1.8c.6-.2 1.2-.4 1.7-.6zM125.4 125.4c-.5.3-1 .6-1.6.8-1 .5-2.5 1.1-4.4 2-3.7 1.6-8.9 3.8-14.6 6.1s-11 4.4-14.8 5.8c-1.9.7-3.4 1.3-4.5 1.6-.6.2-1.1.4-1.7.5.5-.3 1.1-.5 1.6-.7l4.5-1.8 14.7-5.9 14.7-6 4.4-1.8c.5-.3 1.1-.5 1.7-.6zM144.5 98.7c-.5.3-1 .6-1.6.8-1 .5-2.5 1.1-4.4 2-3.7 1.6-8.9 3.8-14.6 6.1s-11 4.4-14.8 5.8c-1.9.7-3.4 1.3-4.5 1.6-.5.2-1.1.4-1.7.5.5-.3 1.1-.5 1.6-.7l4.5-1.8 14.7-6 14.7-6 4.5-1.8c.4-.1 1-.3 1.6-.5z"/><path class="st4" d="M195.1 139.4c-.2.2-.4.5-.6.7l-1.8 1.8c-2.3 2-5 3.7-7.8 5-4.2 1.9-8.8 2.9-13.4 3-2.7.1-5.4-.3-8.1-.9-2.8-.7-5.6-1.7-8.2-3.1-5.4-2.6-10.2-5.7-14.8-7.9-4.1-2-8.5-3.2-13.1-3.4-3.1-.2-6.1.4-8.9 1.7-.8.4-1.5.8-2.2 1.2-.2.2-.5.3-.7.5.2-.2.4-.4.7-.6.7-.5 1.4-1 2.1-1.3 2.8-1.3 5.9-2 9-1.9 4.6.2 9.1 1.4 13.3 3.4 4.7 2.1 9.5 5.2 14.9 7.8 2.6 1.3 5.3 2.3 8.1 3 2.6.6 5.3 1 7.9.9 7.7-.1 15.1-2.8 21-7.7.9-.7 1.4-1.3 1.9-1.7.2-.1.4-.3.7-.5zM181.2 90c-.4.3-.8.5-1.3.7-.8.4-2.1 1-3.6 1.7-1.8.8-3.7 1.4-5.6 2-4.7 1.4-9.5 2.2-14.3 2.3-2 .1-4 0-6-.1-1.7-.1-3-.3-4-.5-.5-.1-1-.2-1.4-.3.5 0 1 0 1.5.1.9.1 2.3.2 4 .3s3.7.1 5.9 0c2.4-.1 4.8-.4 7.2-.7 2.4-.4 4.7-.9 7-1.6 2.1-.6 4-1.3 5.6-1.9s2.8-1.2 3.7-1.5c.3-.2.8-.4 1.3-.5zM110.2 201c-.3-.3-.6-.6-.9-1l-2.4-2.8c-2.6-3.1-5.4-6-8.4-8.8-1.6-1.5-3.4-2.9-5.2-4-1.5-.9-3.2-1.6-5-1.9-1.6-.3-3.3-.3-4.9 0 0 0 .1-.1.3-.1.3-.1.7-.2 1-.2 1.2-.2 2.5-.2 3.7 0 1.8.3 3.6 1 5.2 1.9 1.9 1.1 3.7 2.5 5.4 4.1 3 2.8 5.7 5.7 8.3 8.9 1 1.2 1.7 2.2 2.2 2.9.2.3.4.6.7 1zM189.9 231.2s-.1.1-.4.3-.6.5-1.2.8c-1.5.9-3.1 1.6-4.7 2.2-11 4.2-23.5 1.6-32-6.5-1.3-1.2-2.4-2.5-3.4-3.9-.4-.5-.6-.9-.8-1.2s-.3-.4-.2-.4l1.2 1.5c1.1 1.3 2.3 2.6 3.5 3.7 8.5 7.9 20.7 10.4 31.6 6.5 1.6-.6 3.2-1.3 4.7-2.1.5-.3 1.1-.6 1.7-.9zM219.1 294.6s-.1-.1-.3-.5-.5-.8-.8-1.4c-1-1.8-2.1-3.5-3.4-5.1l-1.4-1.6-.7-.9-.9-.8-1.8-1.8-2.1-1.7c-3.4-2.7-7.1-4.9-11-6.5-4.8-2-9.8-3.2-15-3.5-5.9-.3-11.9.6-17.4 2.8-5.9 2.3-11.5 5.8-17.5 9.1-3 1.7-6.2 3.3-9.4 4.7-3.3 1.4-6.9 2.3-10.5 2.7-3.6.4-7.2.1-10.8-.6-3.4-.8-6.8-1.9-9.9-3.4-6-2.9-11.6-6.3-16.9-10.3-5.1-3.6-10-7.2-14.8-10-4.4-2.7-9.2-4.8-14.2-6.1-4.2-1-8.5-1.3-12.7-.8-3.2.3-6.3 1.2-9.2 2.7-1.8.9-3.5 2.1-5 3.5l-1.2 1.1-.4.4.4-.4 1.1-1.2c1.5-1.4 3.2-2.6 5-3.5 2.9-1.5 6.1-2.4 9.3-2.8 4.3-.5 8.6-.2 12.8.8 5.1 1.3 9.9 3.4 14.4 6.1 4.9 2.8 9.7 6.3 14.9 10 5.3 3.9 10.9 7.3 16.9 10.2 3.1 1.5 6.4 2.6 9.8 3.4 3.5.8 7.1 1 10.6.6s7-1.3 10.3-2.7c3.2-1.3 6.3-2.9 9.3-4.6 6-3.4 11.6-6.8 17.5-9.1 1.5-.6 2.9-1.1 4.5-1.4.8-.2 1.5-.4 2.2-.6l2.2-.4c2.9-.4 5.8-.6 8.7-.4 5.2.3 10.4 1.5 15.2 3.6 3.9 1.7 7.6 3.9 11 6.6l2.1 1.8 1.8 1.8.8.8c.2.3.5.6.7.9.5.6.9 1.1 1.4 1.6 1.3 1.6 2.4 3.3 3.4 5.1.3.6.6 1.1.8 1.4l.2.4zM188.8 336.3c-.2.1-.3.1-.5.1l-1.5.3c-.8.2-1.6.3-2.4.4-.9.1-2 .2-3.1.3l-1.8.1h-2c-1.4 0-2.8-.1-4.4-.2-3.3-.4-6.6-1-9.9-1.9-3.2-1-6.3-2.2-9.4-3.7-1.4-.7-2.7-1.4-3.8-2.1-.6-.4-1.2-.7-1.7-1l-1.5-1c-1-.6-1.8-1.3-2.5-1.9l-1.8-1.5c-.4-.4-.8-.8-1.1-1-.1-.1-.3-.2-.4-.4.2.1.3.2.4.3l1.2 1c.5.4 1.1.9 1.9 1.5s1.6 1.2 2.5 1.9l1.5 1c.5.4 1.1.7 1.7 1 1.2.7 2.5 1.4 3.8 2.1 6 2.9 12.4 4.8 19.1 5.5 1.5.1 3 .3 4.4.3.7 0 1.3.1 2 0h1.8c1.2 0 2.2-.1 3.1-.2s1.7-.2 2.4-.3l1.5-.2c.2-.3.4-.4.5-.4z"/><path class="st2" d="m596 257.5 33.3-3.2 3.5 35.3-33.3 3.3 5.7 58.6-43.8 4.3-5.7-58.6-113.2 11.1-3.7-26.7 95.3-189.1 45.2-4.4L596 257.5zm-114.6 11.3 70.8-6.9-10.5-107-1.1-.2-2.9 8.1-56.3 106z"/><path d="m596 257.5 33.3-3.2 3.5 35.3-33.3 3.3 5.7 58.6-43.8 4.3-5.7-58.6-113.2 11.1-3.7-26.7 95.3-189.1 45.2-4.4L596 257.5zm-114.6 11.3 70.8-6.9-10.5-107-1.1-.2-2.9 8.1-56.3 106z" class="st6"/><path class="st2" d="m623.8 254.8 33.3-3.3 3.5 35.3-33.3 3.3 5.7 58.6-43.8 4.3-5.7-58.6-113.1 11-3.7-26.7 95.3-189 45.2-4.4 16.6 169.5zM509.2 266l70.8-6.9-10.5-107-1.1-.3-2.8 8.1L509.2 266z"/><path class="st2" d="M467.9 283.7c-.3.3-.6.5-1 .8-.6.5-1.6 1.1-2.8 1.9-2.4 1.6-5.7 3.7-9.4 5.9s-7.1 4.2-9.6 5.6c-1.2.7-2.3 1.2-3 1.6-.4.2-.7.4-1.1.5.3-.3.6-.5 1-.7l2.9-1.7 9.6-5.7 9.5-5.8 2.9-1.7c.2-.3.6-.5 1-.7zM479.8 251.8c-.4.4-.9.7-1.4 1-.9.6-2.2 1.5-3.9 2.5-3.3 2.1-7.9 5-13 8s-9.8 5.8-13.2 7.7c-1.7 1-3.1 1.7-4.1 2.2-.5.3-1 .5-1.5.8.5-.3.9-.7 1.4-.9l4-2.4 13.1-7.9 13.1-7.9 4-2.4c.5-.2 1-.5 1.5-.7zM495.7 222.6c-.5.4-.9.7-1.5 1-1 .6-2.3 1.5-4.1 2.6-3.5 2.1-8.3 5-13.6 8.1s-10.2 5.9-13.8 7.9c-1.8 1-3.2 1.8-4.2 2.3-.5.3-1 .5-1.6.8.5-.3 1-.7 1.5-.9l4.2-2.4 13.7-7.9 13.7-8 4.2-2.4c.4-.6 1-.9 1.5-1.1zM578.8 241.9c-.3.3-.6.5-1 .7-.7.5-1.6 1.1-2.8 1.8-2.4 1.5-5.7 3.6-9.5 5.7s-7.2 4.1-9.7 5.4c-1.2.7-2.3 1.2-3 1.5-.4.2-.7.4-1.1.5.3-.3.6-.5 1-.7l2.9-1.7 9.6-5.5 9.5-5.6 2.9-1.7c.5-.1.8-.2 1.2-.4zM583.4 296.8c-.3.3-.6.5-1 .7-.6.4-1.6 1.1-2.7 1.8-2.3 1.5-5.5 3.5-9.2 5.7s-7 4-9.4 5.3c-1.2.7-2.2 1.2-2.9 1.5-.3.2-.7.4-1.1.5.3-.3.6-.5 1-.7l2.8-1.7 9.3-5.5 9.2-5.6 2.8-1.7c.4 0 .8-.2 1.2-.3zM585.6 315.9c-.3.3-.6.5-1 .7-.6.4-1.6 1.1-2.7 1.8-2.3 1.5-5.5 3.5-9.2 5.7s-7 4-9.4 5.4c-1.2.7-2.2 1.2-2.9 1.5-.3.2-.7.4-1.1.5.3-.3.6-.5 1-.7l2.8-1.7 9.3-5.5 9.2-5.6 2.8-1.7c.5-.1.8-.3 1.2-.4zM587.9 335c-.3.3-.6.5-1 .7-.6.4-1.6 1.1-2.7 1.8-2.3 1.5-5.5 3.5-9.2 5.7s-7 4-9.4 5.4c-1.2.7-2.2 1.2-2.9 1.5-.3.2-.7.4-1.1.5.3-.3.6-.5 1-.7l2.8-1.7 9.3-5.5 9.2-5.6 2.8-1.7c.4-.1.8-.2 1.2-.4zM576.5 221.7c-.3.3-.6.5-1 .7-.7.4-1.6 1.1-2.8 1.8-2.4 1.5-5.7 3.6-9.5 5.7s-7.2 4.1-9.7 5.4c-1.3.7-2.3 1.2-3 1.5-.4.2-.7.4-1.1.5.3-.3.6-.5 1-.7l2.9-1.7 9.6-5.5 9.5-5.6 2.9-1.7c.4-.1.8-.3 1.2-.4zM574.2 201.5c-.3.3-.6.5-1 .7-.7.4-1.6 1.1-2.8 1.8-2.4 1.5-5.7 3.6-9.5 5.7s-7.2 4.1-9.7 5.4c-1.2.7-2.3 1.2-3 1.5-.4.2-.7.4-1.1.5.3-.3.6-.5 1-.7l2.9-1.7 9.6-5.5 9.5-5.6 2.9-1.7c.4-.1.7-.3 1.2-.4zM571.8 181.3c-.3.3-.6.5-.9.7l-2.7 1.8c-2.3 1.4-5.5 3.4-9 5.5s-6.8 3.9-9.2 5.1l-2.8 1.5c-.3.2-.7.4-1.1.5.3-.2.6-.5 1-.6l2.8-1.6 9.2-5.2 9.1-5.3 2.8-1.6c.1-.5.5-.7.8-.8zM571.4 162.1c-1.5 1.1-3 2-4.7 2.8-1.6.9-3.2 1.7-4.9 2.4 1.5-1.1 3-2 4.7-2.8 1.6-.9 3.2-1.7 4.9-2.4zM511.5 192.4c-.5.4-.9.7-1.4 1-1 .6-2.3 1.5-4.1 2.6-3.5 2.1-8.3 5-13.6 8.1s-10.2 5.9-13.8 7.8c-1.8 1-3.2 1.8-4.2 2.3-.5.3-1 .5-1.6.8.5-.4 1-.7 1.5-.9l4.2-2.4 13.7-7.9 13.7-8 4.2-2.4c.3-.5.8-.8 1.4-1zM527.2 162.1c-.5.4-.9.7-1.5 1-1 .6-2.3 1.5-4.1 2.6-3.5 2.1-8.3 5-13.6 8.1s-10.3 5.9-13.8 7.8c-1.8 1-3.2 1.8-4.2 2.3-.5.3-1 .5-1.6.8.5-.3 1-.7 1.5-.9l4.2-2.4 13.7-7.9 13.7-8 4.2-2.4c.4-.5 1-.7 1.5-1zM541.5 132.2c-.5.4-.9.7-1.5 1-1 .6-2.3 1.5-4.1 2.6-3.5 2.1-8.3 5-13.6 8.1s-10.2 5.9-13.8 7.8c-1.8 1-3.2 1.8-4.2 2.3-.5.3-1 .5-1.6.8.5-.3 1-.7 1.5-.9l4.2-2.4 13.7-7.9 13.7-8 4.2-2.4c.4-.5.9-.8 1.5-1zM556.6 103.1c-.5.4-.9.7-1.5 1-1 .6-2.3 1.5-4.1 2.6-3.5 2.1-8.3 5-13.6 8.1s-10.2 5.9-13.8 7.8c-1.8 1-3.2 1.7-4.2 2.3-.5.3-1 .5-1.6.8.5-.4 1-.7 1.5-.9l4.2-2.4 13.7-8 13.7-8 4.2-2.4c.5-.4 1-.7 1.5-.9z"/><path class="st4" d="M612.4 136.3c-.1.3-.3.5-.5.7-.5.7-1 1.4-1.5 2-2 2.4-4.4 4.4-7 6.1-3.9 2.5-8.2 4.2-12.8 4.9-2.7.4-5.4.5-8.1.2-2.9-.3-5.8-.9-8.5-1.9-5.7-1.8-10.9-4.2-15.8-5.7-4.3-1.4-8.9-1.9-13.4-1.5-3.1.3-6 1.3-8.6 2.9-.7.5-1.4 1-2 1.5-.2.2-.4.4-.7.6l.6-.6c.6-.6 1.2-1.1 1.9-1.6 2.6-1.7 5.6-2.8 8.7-3.1 4.6-.5 9.2 0 13.7 1.4 5 1.5 10.2 3.8 15.8 5.7 2.7.9 5.6 1.5 8.4 1.9 2.7.3 5.4.2 8-.2 4.5-.7 8.8-2.3 12.7-4.7 2.6-1.6 4.9-3.6 7-5.9.6-.6 1.1-1.3 1.6-1.9.1-.4.3-.6.5-.8zM591.7 89.3c-.4.3-.7.6-1.2.9-.8.6-1.9 1.3-3.3 2.2-1.7 1-3.5 1.9-5.3 2.8-2.2 1-4.5 1.9-6.8 2.6-2.3.7-4.7 1.3-7.1 1.7-2 .3-3.9.6-5.9.7-1.7.1-3.1.1-4 .1-.5 0-1 0-1.5-.1.5-.1 1-.1 1.5-.1.9 0 2.3-.1 4-.3s3.7-.4 5.8-.8c2.4-.5 4.7-1 7-1.8 2.3-.7 4.6-1.6 6.8-2.6 2-.9 3.8-1.8 5.3-2.7s2.6-1.5 3.4-2c.4-.1.9-.4 1.3-.6zM537 209.2c-.4-.3-.7-.6-1-.9l-2.7-2.4c-3-2.7-6.2-5.2-9.5-7.5-1.8-1.3-3.7-2.4-5.8-3.3-1.7-.7-3.4-1.1-5.2-1.2-1.7-.1-3.3.2-4.9.7 0 0 .1-.1.3-.2.3-.1.6-.3.9-.4 1.2-.4 2.4-.5 3.7-.5 1.8.1 3.7.4 5.4 1.1 2.1.9 4.1 2 5.9 3.3 3.3 2.3 6.5 4.9 9.5 7.6l2.6 2.6c.3.4.6.8.8 1.1zM620.2 227.9s-.1.1-.3.4-.6.5-1.1.9c-1.4 1.1-2.8 2-4.3 2.9-10.3 5.6-23 4.9-32.6-2-1.4-1-2.7-2.1-3.9-3.4-.4-.4-.7-.8-1-1-.1-.1-.2-.3-.3-.4 0 0 .5.5 1.4 1.3 1.2 1.2 2.6 2.2 4 3.2 9.5 6.6 21.9 7.4 32.2 2 1.5-.8 3-1.7 4.4-2.7l1.5-1.2zM658 286.5l-.4-.4c-.2-.3-.6-.7-1-1.2-1.2-1.6-2.6-3.1-4.1-4.5l-1.6-1.4-.8-.8-1-.7-2-1.5-2.3-1.4c-3.7-2.2-7.6-3.8-11.8-4.9-5-1.3-10.2-1.8-15.4-1.4-5.9.5-11.7 2.3-16.9 5.2-5.5 3.1-10.6 7.3-16 11.5-2.8 2.2-5.6 4.1-8.6 5.9-3.1 1.9-6.5 3.3-10 4.2-3.5.9-7.2 1.2-10.8.9-3.5-.3-7-1-10.3-2-6.3-2-12.4-4.6-18.2-7.8-5.6-2.9-10.9-5.7-16.1-7.8-4.8-2.1-9.8-3.4-15-4-4.3-.4-8.6-.1-12.7 1-3.1.8-6.1 2.1-8.8 3.9-1.7 1.2-3.2 2.6-4.5 4.1l-1 1.3c-.2.3-.3.4-.3.4s.1-.2.3-.5l.9-1.3c1.3-1.6 2.8-3 4.5-4.2 2.7-1.9 5.6-3.3 8.8-4.1 4.2-1.1 8.5-1.5 12.8-1 5.2.6 10.3 1.9 15.1 4 5.2 2.1 10.5 4.9 16.1 7.8 5.8 3.1 11.8 5.7 18.1 7.7 3.3 1 6.7 1.7 10.2 1.9 3.6.3 7.1 0 10.6-.9s6.8-2.3 9.8-4.1c3-1.8 5.9-3.7 8.6-5.9 5.4-4.1 10.6-8.4 16.1-11.5 1.4-.8 2.8-1.5 4.2-2l2.1-.9 2.2-.7c2.8-.8 5.7-1.4 8.6-1.6 5.2-.4 10.5.1 15.5 1.4 4.2 1.1 8.1 2.8 11.8 5l2.3 1.5 2 1.5 1 .7.8.8 1.6 1.4c1.5 1.4 2.8 3 4 4.6.4.6.7 1 .9 1.3l.7.5zM634 332.1c-.2.1-.3.1-.5.2l-1.4.5c-.7.3-1.5.5-2.3.7-.9.2-1.9.5-3.1.7l-1.8.3c-.6.1-1.3.2-2 .3-1.4.2-2.8.3-4.4.4-3.3.1-6.7-.1-10-.5-3.3-.5-6.6-1.3-9.8-2.3-1.5-.5-2.8-1-4.1-1.6-.6-.3-1.2-.5-1.8-.8l-1.6-.8c-1.1-.5-2-1.1-2.8-1.5-.7-.4-1.4-.8-2-1.3l-1.2-.9c-.2-.1-.3-.2-.4-.3.2.1.3.1.5.2l1.3.8c.5.4 1.2.8 2 1.2s1.7 1 2.8 1.5l1.6.8c.6.3 1.2.5 1.8.8 1.2.5 2.6 1 4.1 1.5 3.2 1 6.5 1.8 9.8 2.3 3.3.4 6.6.6 10 .5 1.5-.1 3-.1 4.3-.3.7-.1 1.3-.1 2-.2l1.8-.3c1.2-.2 2.2-.4 3.1-.6s1.7-.4 2.3-.6l1.5-.4c0-.2.1-.3.3-.3z"/><path class="st7" d="m425.7 185.7-7-1.1-43.4-14-25.4-7.3c-7.2-2.6-15.2-2.1-22 1.5-12 6.1-45.1 36.9-45.1 36.9l23.8 24.5-11.2 49.7c12.5 35.7 37.1 39.8 37.1 39.8 12 .5 24-1.5 35.2-5.8 22.8-8.7 46.7-29.1 49.7-37.8 1.8-5.3 3.3-16.3 4.5-28.8l36.1-14.7 9.8-50-42.1 7.1z"/><path class="st8" d="M373 274.1s-.1.1-.4.3-.6.5-1.1.8c-1.4.9-2.8 1.7-4.3 2.3-10.4 4.4-22.4 1.8-30-6.5-1.1-1.2-2.1-2.5-3-3.9-.3-.5-.5-.9-.6-1.2-.1-.1-.1-.3-.2-.4.4.5.7 1 1 1.5.9 1.4 1.9 2.6 3.1 3.8 7.6 8 19.3 10.6 29.5 6.5 1.5-.6 3-1.3 4.4-2.2 1-.7 1.5-1 1.6-1zM359.2 172.6c0 .1.1.2.1.2 0 .2.1.4.2.7.1.6.4 1.6.6 2.7.7 3.4 1.2 6.8 1.4 10.2.1 2.4 0 4.8-.4 7.1-.5 2.7-1.4 5.3-2.9 7.7-1.6 2.6-3.6 4.9-5.9 6.9-2.4 2.1-5 4-7.6 6.1-5.6 4.2-11.1 8.1-16 11.5s-9.2 6.6-12.7 9.2l-.1.1-.1-.1c-2.4-1.9-4.8-4-6.9-6.2-.6-.6-1.1-1.2-1.6-1.9-.2-.2-.3-.4-.4-.5 0-.1-.1-.1-.1-.2 0 0 .2.2.5.7.5.6 1.1 1.3 1.7 1.9 2.2 2.2 4.6 4.2 7 6.1h-.2c3.4-2.7 7.7-5.8 12.6-9.3s10.4-7.3 16-11.6c2.6-2 5.2-3.9 7.6-6 2.3-1.9 4.3-4.2 5.9-6.7 1.4-2.3 2.3-4.9 2.8-7.5.4-2.3.6-4.7.5-7.1-.2-3.4-.6-6.8-1.3-10.2-.2-1.2-.4-2.1-.5-2.8-.1-.3-.1-.5-.1-.7-.1-.1-.1-.2-.1-.3zM547.6 195.1c10.2-8.7 13.6-24.4 8-36.5l-14.3-1.5c7.4-4.1 11.5-12.2 10.4-20.6-8.1 8.4-20.7 10.7-31.2 5.8-6.7-3.3-12.1-9.4-19.4-10.7-6.7-1.2-13.2 2-19.6 4.2s-14.1 3.5-19.4-.7c-4.2-3.4-5.5-9.2-5.2-14.6s1.8-10.6 2.1-15.9c.5-10.7-3.8-21-11.6-28.2-4.4-14.5-19.7-22.7-34.3-18.3-3.2 1-6.2 2.5-8.9 4.6-3.1 2.4-5.8 5.6-9.3 7.3-4 2-8.7 2-13 3s-8.9 3.9-9.4 8.4l-1.8 9.1c-.3.7-.6 1.3-1 1.9-3.7 6.5-11.2 10.7-12.9 18-.9 4.1.2 8.5-1.1 12.4-1.8 5.2-7.4 8.1-10 12.9-3.6 6.6-1.1 18.3 4.6 23.2s17.5 10.1 24.9 11.7c2-7.7 3.8-15.9 5.5-24.3 3 2.9 6.2 5.6 9.3 8.4 8.2 7.1 16.6 14.4 22.3 23.7 10.8 17.6 11 41 24.6 56.5 2.7 3 5.9 5.8 9.8 6.9s8.5.5 11.4-2.3c3.4-3.4 3.8-9.1 7.6-12 5-4 12.3-.8 17.6 2.6 3.9 2.5 7.8 5.1 12.2 6.5s9.5 1.3 13.2-1.4 5.4-8.4 2.7-12.1c-1.1-1.5-2.7-2.5-3.8-4s-1.4-3.9.1-5 3.9 0 5.6 1c16 9.4 36.5 4 45.9-11.9 1.2-2 2.1-4 2.8-6.2-4.8.6-9.8 0-14.4-1.9z"/><path class="st8" d="M538.6 116.7c.5.3.9.7 1.3 1.1 1.2 1.1 2.2 2.4 3 3.9.5 1.1.9 2.2 1.1 3.4.5 3.1-.9 6.2-3.6 7.9-.8.5-1.6.8-2.5.9-1 .1-1.9 0-2.8-.4-3.7-1.5-5.6-5.8-9.6-7.7-3.9-2.1-8.9-2.2-13.7-1.1s-9.5 3.7-14.2 6.4-9.8 5.5-15.5 6.5c-2.8.6-5.8.5-8.6-.1-1.4-.3-2.7-.8-4-1.5-1.2-.7-2.4-1.5-3.4-2.5-1.9-1.9-3.4-4.3-4.3-6.8-.9-2.4-1.5-5-1.8-7.5-.5-5-.1-9.8-.1-14.2.2-4.1-.2-8.2-1.2-12.2-.5-1.7-1.1-3.4-1.9-5-.7-1.4-1.5-2.8-2.4-4.1-1.5-2.1-3.2-4-5.1-5.7-1.2-1.1-2.5-2-3.9-2.9l-1.1-.7-.4-.2c.1.1.3.1.4.2l1.1.6c3.6 2.2 6.8 5.1 9.2 8.5 2 2.8 3.5 5.9 4.5 9.2 1 4 1.5 8.2 1.3 12.3 0 4.5-.4 9.2.1 14.2.3 2.5.9 5 1.8 7.4.9 2.5 2.3 4.7 4.2 6.6 1 .9 2.1 1.8 3.2 2.4 1.2.6 2.5 1.1 3.9 1.4 2.8.6 5.6.6 8.4.1 5.7-1 10.7-3.8 15.4-6.4s9.4-5.3 14.4-6.4c2.4-.6 4.9-.8 7.3-.6 1.2.1 2.3.3 3.5.6 1.1.3 2.2.7 3.2 1.2 4.2 2 6 6.3 9.5 7.8 1.6.7 3.5.5 5-.4 1.3-.8 2.4-2.1 3-3.6.5-1.3.7-2.6.5-4-.2-1.1-.5-2.3-1-3.3-.7-1.4-1.7-2.8-2.8-3.9l-.9-.9-.5-.5zM375.2 174.4s0-.1-.1-.4c-.1-.4-.1-.9-.3-1.3-.5-1.7-1.3-3.2-2.5-4.5-1.9-2-4.1-3.6-6.6-4.6-2.9-1.3-6.5-2-10.4-2.7s-8.4-1.6-12.4-4.3c-8.4-5.7-10.7-17.2-5-25.6.6-.9 1.3-1.7 2-2.5 4.1-4.2 10-6.4 14.8-10.1 1.2-.9 2.2-2 3.1-3.2.9-1.2 1.5-2.6 1.9-4 .8-2.8.7-5.8 1-8.7.1-1.4.4-2.9.8-4.3s1.2-2.6 2.1-3.7c2-2 4.4-3.4 7.1-4 2.6-.8 5.1-1.2 7.5-1.9 2.4-.6 4.6-1.6 6.6-3 1.8-1.3 3.5-2.9 4.9-4.6 1.3-1.6 2.6-3.2 3.7-4.9 2.2-3.3 4.1-6.5 6.1-9 1.7-2.2 3.6-4.1 5.8-5.8 1.4-1 3-1.8 4.6-2.4.6-.2 1.2-.3 1.8-.4 0 0-.6.1-1.7.5-1.6.6-3.1 1.4-4.5 2.4-2.2 1.6-4.1 3.6-5.7 5.8-2 2.5-3.8 5.6-6 9-1.1 1.8-2.4 3.5-3.7 5.1-1.4 1.8-3.1 3.4-5 4.7-2 1.4-4.3 2.4-6.7 3-2.4.7-5 1.2-7.5 1.9-2.6.6-5 1.9-6.9 3.9-.9 1-1.6 2.3-2 3.6-.4 1.4-.7 2.7-.8 4.2-.3 2.9-.2 5.9-1 8.8-.4 1.5-1.1 2.9-2 4.1-.9 1.2-2 2.3-3.2 3.3-2.4 1.8-5 3.4-7.7 4.9-2.5 1.4-4.9 3.1-7 5.1-6.9 7.1-6.7 18.5.4 25.5.7.7 1.5 1.4 2.4 1.9 3.9 2.6 8.3 3.5 12.2 4.3s7.6 1.4 10.5 2.8c2.5 1.1 4.8 2.7 6.7 4.7 1.2 1.3 2 2.9 2.4 4.6.1.4.2.9.2 1.3.1.4.1.5.1.5z"/><path class="st7" d="M455 84.6c-.3 0-.5-.1-.8-.2-.7-.2-1.4-.5-2-.8-4.3-2-8-5.2-10.7-9.2-.4-.6-.8-1.2-1.1-1.9-.1-.2-.2-.5-.3-.7.1 0 .6.9 1.7 2.4 2.8 3.8 6.4 6.9 10.5 9.1 1.7.8 2.8 1.3 2.7 1.3zM488.3 152.8s-.6-.2-1.8-.4c-1.6-.3-3.2-.5-4.9-.6-2.4-.1-4.8 0-7.3.2-2.7.2-5.8.5-9 .4-3 0-6-.6-8.8-1.7-2.3-1-4.3-2.4-5.9-4.3-1.1-1.3-1.9-2.8-2.3-4.4-.1-.4-.2-.9-.2-1.3v-.5c.1 0 .1.6.4 1.8.5 1.6 1.3 3 2.4 4.2 1.6 1.8 3.6 3.2 5.8 4.1 2.8 1 5.7 1.6 8.6 1.6 3.1.1 6.2-.2 8.9-.4 2.4-.2 4.9-.2 7.3-.1 1.7.1 3.3.4 4.9.8.4.1.9.3 1.3.4.3.1.4.2.6.2zM547.2 198.3s-.1 0-.3.1l-.9.3c-1.2.3-2.4.2-3.6-.2-1.8-.6-3.5-1.6-4.8-3-1.7-1.9-3-4.1-3.9-6.5-1.1-2.6-2-5.5-3.8-8.2-.9-1.4-2-2.7-3.2-3.9-1.3-1.2-2.7-2.3-4.2-3.2-6.3-3.8-14.5-5.3-23-4.8s-16.4 2.1-23.8 2.6c-6.5.7-13.1 0-19.4-2-4.2-1.4-8.1-3.8-11.1-7-.5-.5-.9-1-1.3-1.6l-.9-1.2c-.2-.3-.4-.6-.5-.8-.1-.1-.1-.2-.1-.3l.2.2.5.8.9 1.2c.4.5.9 1.1 1.4 1.6 3.1 3.1 6.9 5.4 11.1 6.8 6.2 1.9 12.8 2.6 19.2 1.9 7.3-.5 15.3-2.2 23.8-2.7s16.8 1.1 23.2 4.9c1.5.9 3 2 4.3 3.3 1.2 1.2 2.3 2.5 3.2 4 1.8 2.8 2.7 5.8 3.8 8.3.8 2.4 2.1 4.5 3.7 6.4 1.3 1.4 2.9 2.4 4.7 3 1.1.4 2.3.5 3.5.2.9 0 1.3-.2 1.3-.2z"/><path class="st9" d="M389.9 84.6c-3.9-.1-7.2 2.8-7.6 6.7l-8.1 84.2c-1.4 11.8 14.1 37.2 26.8 38.6 12.8 1.4 14.1-4.8 15.7-16 2.8-18.7 3.7-25.8 3.7-25.7s16.5-.6 22.6-21.2c3-10.3 4.8-27.5 5.8-41.7.9-12.8-5.5-29.4-18.2-29.7l-40.7 4.8z"/><path class="st8" d="M443.2 120.7c-.2 1.5-1.5 2.5-3 2.4-1.4-.1-2.5-1.3-2.5-2.7v-.1c.2-1.5 1.5-2.5 3-2.4 1.5.1 2.6 1.3 2.5 2.8zM444.4 115.3c-.3.4-2.5-1-5.4-.8s-5 1.8-5.3 1.5c-.2-.1.1-.8 1-1.6 1.2-1 2.7-1.5 4.2-1.6 1.5-.1 3 .3 4.3 1.1 1 .6 1.3 1.2 1.2 1.4zM417.5 122.2c-.4.4-2.4-1.2-5.3-1.3s-5.1 1.3-5.4 1c-.1-.2.2-.8 1.2-1.4 1.3-.8 2.8-1.3 4.4-1.2 1.5 0 3 .6 4.2 1.5.8.6 1 1.3.9 1.4zM422.9 137.7c0-.2 1.9-.2 4.8-.2.8 0 1.5 0 1.7-.5.2-.8.1-1.5-.2-2.3-.5-1.9-.9-3.9-1.5-6-2-8.4-3.3-15.4-3-15.4s2.2 6.7 4.2 15.2c.5 2.1.9 4.1 1.4 6 .4 1 .4 2 0 3-.3.5-.8.8-1.4.9-.4.1-.9.1-1.3 0-2.8-.3-4.7-.5-4.7-.7z"/><path class="st10" d="M420.4 172.4c-9.9-1.2-19.4-5.1-27.2-11.3 0 0 5.2 15.4 26.6 16.2l.6-4.9z"/><path class="st8" d="M417.9 117.2c-.5.7-3.2-.3-6.7-.7s-6.4-.1-6.6-.9c-.1-.4.5-1 1.8-1.5 1.7-.6 3.5-.8 5.2-.6 1.8.2 3.5.8 4.9 1.8 1.1.8 1.6 1.6 1.4 1.9zM443.9 111.3c-.5.7-2.5.1-5 .2s-4.5.7-5 0c-.2-.3.1-1 .9-1.7 1.2-.8 2.6-1.3 4-1.3s2.8.4 4 1.1c1 .7 1.3 1.4 1.1 1.7z"/><path class="st10" d="M415.9 143c1.3-.9 3-1.3 4.6-1 .8.1 1.6.5 2.1 1.1.6.9.9 2 .8 3.1 0 .6-.1 1.3-.3 1.9-.2.6-.6 1.1-1.2 1.4-.6.2-1.3.3-2 .1-1.1-.1-2.2-.5-3.1-1.1-.9-.6-1.6-1.6-1.7-2.7-.1-1.1.5-2.2 1.5-2.7"/><path class="st8" d="M423.8 149.5c-.2.1-.6-.6-1.3-1.4-1.8-2.3-4.4-3.8-7.3-4.1-1.1-.2-1.9-.2-1.9-.4s.6-.6 1.9-.7c1.7-.1 3.4.2 4.8 1.1 1.5.8 2.6 2.1 3.4 3.6.5 1 .5 1.8.4 1.9zM373.1 169.7c7-1.4 12.3-7.4 14.7-14s2.3-13.9 1.6-21c0-.9-.3-1.8-1-2.5-1-.8-2.6-.1-3.7.5-4.4 2.7-8.6 5.6-12.6 8.8-3.7 3-7.4 6.4-8.8 11-2.2 7 2.4 15.4 9.5 17.2"/><path class="st9" d="M532.8 168.1 500 115.4l-9-18.6s-2.9-3.8-5.9-7.1c-4.9-5.4-9.8-1.2-9.8-1.2-.6-1.3-1.9-2.1-3.3-2-1.8 0-3.5.9-4.5 2.3 0 0-1.3-1.5-5.1-1.7-.8 0-1.7.3-2.4.8-1.2-1.1-3.5-2.6-5.6-1.8-1.7.6-11.9 8.4-14.4 12.3-1.2 1.9 1.1 4.4 4.2 3.3 1.3-.4 2.5-.9 3.7-1.5.9-.5 1.8-1.2 2.5-2 0 0-2.6 4.5 0 5.3 1.7.3 3.5-.1 4.8-1.2 1-.8 2.1-1.9 3.2-2.9l-.1.2c-1.4 2.1 2.3 5.2 4.1 3.9.8-.6 1.6-1.2 2.4-1.9 4.2 3-1.6 6.9-4 6.7-3.8-.3-7.5-.3-11.3 0-2.1.2-4 .7-5.2 1.9-1.4 1.4.1 4.4 2 4.7 3.6.6 8.2 1.4 12.9 2.6 5.6 1.4 20.3 6.2 20.3 6.2l1.4 1.2 19.9 48.6-34.1 7.2-7.6 43.2 61.6-16.7c13.9-7.5 20.5-25.9 12.1-39.1z"/><path class="st10" d="M479.6 123.4c-.3 0-.5-.1-.8-.2l-2.2-.6-8.1-2.4-5.6-1.7c-2-.6-4.1-1.3-6.4-1.8-2.4-.6-4.8-1.1-7.2-1.5-1.3 0-2.7-.3-3.9-.7l-.9-.6c-.1-.2-.2-.3-.3-.5l-.1-.5c-.1-.7-.1-1.4.1-2.1.2-.7.8-1.3 1.4-1.6.6-.3 1.2-.6 1.9-.8 1.3-.4 2.6-.5 4-.5 2.6 0 5 .4 7.4.3 1.1 0 2.3-.1 3.4-.3 1.1-.2 2.1-.5 3.1-.7 1.9-.6 3.9-.8 5.8-.8 1.6.2 3.2.6 4.7 1.2 1.1.5 2.2 1 3.3 1.6.9.5 1.5.9 2 1.2.2.1.5.3.7.4-.3-.1-.5-.2-.7-.4l-2-1.1c-1.1-.6-2.2-1.1-3.3-1.5-1.5-.6-3-1-4.6-1.1-1.9-.1-3.9.2-5.7.8-1 .3-2.1.6-3.2.8-1.1.2-2.3.3-3.5.4-2.4.1-4.9-.2-7.4-.3-1.3 0-2.6.1-3.8.5-1.2.4-2.6.8-3 2.1-.2.6-.2 1.3-.1 1.9l.1.5c0 .1.1.2.2.3.2.2.4.4.7.5 1.2.4 2.5.6 3.8.7 2.5.4 4.9.9 7.3 1.5 2.3.6 4.4 1.2 6.4 1.9l5.6 1.8 8.1 2.6 2.2.7c.1-.2.3-.1.6 0zM454.3 86.1c.1.1-1.5 1-3.9 2.8-1.4 1-2.7 2.2-3.9 3.4-1.4 1.4-2.9 3-4.6 4.4-.9.6-1.5 1.5-1.8 2.5-.3.9.3 1.9 1.2 2.1.9.2 1.8.3 2.6.1.8-.1 1.6-.4 2.3-.7 1.5-.6 2.8-1.4 4-2.5-.2.4-.5.7-.9.9-.9.8-1.9 1.4-3 1.9-.8.3-1.5.6-2.4.7-.9.2-1.9.2-2.9 0-1.2-.3-1.9-1.5-1.5-2.7.3-1.1 1-2.1 2-2.8 1.7-1.5 3.2-3 4.6-4.4 1.2-1.2 2.6-2.3 4-3.3 1.2-.9 2.2-1.5 3-1.9.4-.1.8-.3 1.2-.5z"/><path class="st10" d="M466.8 90.3c-.4.5-.7.9-1.2 1.4l-3.3 3.6-4.9 5.3c-1 1.1-2.2 2-3.5 2.6-.7.4-1.5.6-2.3.6-.9 0-1.7-.3-2.3-.9-.3-.3-.5-.8-.5-1.2 0-.4 0-.9.1-1.3.2-.8.6-1.5 1.1-2.2 1.8-1.9 3.4-3.6 4.9-5.2s2.9-2.9 4.1-4c.5-.5 1.1-1 1.7-1.4.5-.2 1.1-.3 1.6-.4.9-.1 1.4 0 1.4.1-.4-.1-.9 0-1.3.1-.5 0-1 .2-1.5.4-.6.4-1.1.9-1.6 1.4-1.1 1.1-2.5 2.5-4 4.1s-3.1 3.4-4.8 5.3c-.4.6-.8 1.3-1 2-.1.4-.1.7-.1 1.1 0 .4.2.7.4.9.5.5 1.2.8 1.9.8s1.4-.2 2.1-.5c1.2-.6 2.4-1.5 3.3-2.5l5-5.2 3.4-3.5 1-.9c.1-.4.3-.6.3-.5zM482.1 95.1s0 .3-.4.6c-.9.7-2.3.6-3-.4 0-.1-.1-.1-.1-.2-.2-.4-.2-.7-.2-.7s.2.2.5.4c.3.3.8.6 1.2.7.5.1 1 0 1.4-.2.4-.1.6-.3.6-.2z"/><path class="st10" d="M483.3 99.7c-.1.1-.9-.7-1.5-1.8-.5-.6-.8-1.4-.8-2.2.1-.1.6.9 1.3 1.9.4.6.8 1.3 1 2.1zM485.5 117.5c-.4-.6-.8-1.3-1-2.1-.6-1.8-.8-3.6-.8-5.5s.4-3.7 1-5.4c.2-.7.5-1.4 1-2.1-.8 2.4-1.3 4.9-1.5 7.5.1 2.7.6 5.2 1.3 7.6zM512.5 186.8c-.1 0-.2-1.1-.7-2.7-.3-.9-.7-1.9-1.2-2.8-1.2-2.1-2.8-4-4.8-5.4-.8-.6-1.7-1.1-2.6-1.5-1.5-.7-2.6-1-2.6-1.1.3 0 .5 0 .8.1.7.1 1.4.4 2 .6.9.4 1.9.9 2.7 1.5 2.1 1.4 3.8 3.4 4.9 5.6.5.9.8 1.9 1.1 2.9.2.7.3 1.3.4 2v.8z"/><path class="st9" d="M398.1 283.1c-2.8-.5-5.7-.1-8.3 1.1-4.5-2-9.9 1.4-9.9 1.4-1.6-.8-11.3 5.6-11.3 5.6l-12.1 5.7L292 249l18.3-19-25.6-26.7-30 30.9c-3.7 4-5.8 9.1-6 14.5-.6 11.8 5.9 22.8 16.4 28l76 39c5.8-.3 11.6-1.2 17.3-2.7 6.6-1.7 17.8-6.7 17.8-6.7s0 .3 2 4.2c3.6 7 8.9-.6 8.9-.6.5 1.2 1.2 2.4 2.1 3.4 4.6 4.4 7.7-1.5 7.7-1.5s1.4 2.4 5.5.6-.6-14.1-.6-14.1 1.4 2.7 4-.7-3.4-13.5-7.7-14.5z"/><path class="st10" d="M388.9 284.8c.2-.2.5-.3.8-.3.8-.2 1.7-.1 2.5.1 1.2.3 2.3.9 3.2 1.6.6.4 1.1.9 1.6 1.4.5.6.9 1.3 1.3 2 1.2 2.4 2.2 4.9 3 7.4.3 1 .5 1.8.6 2.3.1.3.1.6.1.9-.1 0-.4-1.2-1.1-3.1-.9-2.5-1.9-4.9-3.1-7.3-.3-.7-.7-1.3-1.2-1.9-.5-.5-1-1-1.5-1.4-.9-.7-1.9-1.3-3-1.7-1-.2-2.1-.2-3.2 0zM396.7 311.9c-.2-.3-.4-.7-.6-1.1l-1.4-3.1c-1.2-2.6-2.9-6.1-4.6-10.2-.7-1.9-1.6-3.8-2.6-5.5-.9-1.3-2.2-2.4-3.7-3.1-1-.5-2.1-.7-3.2-.6-.8.1-1.2.3-1.2.3s.1-.1.3-.2l.9-.3c1.1-.2 2.3 0 3.4.4 1.6.7 3 1.8 4 3.2 1.1 1.7 2 3.6 2.7 5.5 1.6 4 3.3 7.6 4.5 10.2.5 1.3 1 2.4 1.3 3.1 0 .6.1 1 .2 1.4zM367.1 296.5c.3-.2.6-.4 1-.6l2.9-1.4c.6-.3 1.3-.6 2-.9.8-.3 1.7-.5 2.6-.4 1 .1 1.9.4 2.7 1 .8.7 1.5 1.5 2 2.4.5.9 1 1.8 1.4 2.7s.9 1.7 1.3 2.5c.9 1.5 1.7 2.9 2.3 4.2.5 1 .9 1.9 1.3 3 .2.4.3.7.3 1.1-.1 0-.6-1.5-1.9-3.9-.6-1.2-1.5-2.5-2.4-4.1-.5-.8-.9-1.6-1.3-2.5s-.9-1.8-1.4-2.6c-.5-.8-1.1-1.6-1.9-2.2-.7-.5-1.6-.9-2.5-1-.8-.1-1.6 0-2.4.3-.7.3-1.4.6-2 .9l-2.9 1.3c-.4 0-.7.1-1.1.2zM368.5 291.2c-.3.2-.6.4-.9.5-.6.3-1.4.8-2.5 1.4-2.1 1.1-5 2.6-8.3 4.3s-6.2 3.1-8.4 4.1l-2.6 1.2c-.3.2-.7.3-1 .4l.9-.6c.6-.3 1.4-.8 2.5-1.3 2.1-1.1 5-2.6 8.3-4.3s6.2-3.1 8.4-4.1c1.1-.5 2-.9 2.6-1.2.3-.2.6-.3 1-.4zM292.7 249.1c-2.5-.4-5.1-.5-7.6-.2-2.5.4-5 1.1-7.4 2 .6-.5 1.3-.9 2-1.1 1.7-.7 3.5-1.2 5.3-1.4 1.8-.2 3.7-.2 5.5.1.8 0 1.6.2 2.2.6z"/><path class="st8" d="M435.2 75.8c-16-.2-31.9 1.4-47.5 5-3.6.8-7.4 1.9-9.9 4.7-2.6 2.9-3 7.1-3.4 11-.4 4.8-.8 9.5-1.2 14.2-.7 1.2-1.4 2.3-2.3 3.4-3.8 4.9-8.5 9-12 14.2s-5.3 12-2.5 17.5c1.7 3.3 4.8 5.7 7.1 8.7 3.9 5 5.1 11.5 7.4 17.4s6.3 12 12.6 13.2c3 .6 6.1-.1 9 .4 4.5.6 8.2 3.6 11.8 6.4s7.4 5.6 11.9 6.1 9.6-2.6 9.7-7.1c-3.4 1.9-7.6 1.8-10.9-.3-2.6-1.7-4.3-4.5-6.6-6.7-5.5-5.4-14.4-7.1-18.3-13.7-3-5.3-1.8-11.9-.5-17.8 1.2-5.1 2.4-10.7.9-15.6.1-.8.2-1.6.2-2.4 0-5.3-2-10.9.4-15.6 3.2-6.2 12.6-6.9 15.9-13.1 1.9-3.6 1.2-8.1 3.3-11.6 2-3.3 5.9-4.8 9.6-5.6s7.6-1.2 10.9-3.1 5.9-6.1 4.4-9.6z"/><path class="st8" d="M447.4 183.1c0 .1-.1.2-.1.2l-.5.7c-.7.9-1.4 1.6-2.3 2.3-1.4 1.1-2.9 1.9-4.6 2.4-2.2.8-4.5 1-6.8.8-2.8-.3-5.5-1.4-7.7-3.1-2.4-1.8-4.5-4.3-7.2-6.2-1.3-1-2.9-1.7-4.6-1.9-1.8-.1-3.5.2-5.1.9-1.7.8-3.5 1.4-5.3 1.8-2 .3-4-.1-5.7-1-1.7-.9-3.3-2-4.8-3.2-1.5-1.1-2.9-2.3-4.2-3.7-1.3-1.3-2.3-2.8-3-4.5-.6-1.7-.7-3.5-.3-5.2.4-1.6.9-3.2 1.5-4.7s1.1-2.9 1.5-4.3c.8-2.6 1.4-5.3 1.9-8 .6-3.9.8-7.9.6-11.9-.1-1.4-.1-2.5-.2-3.2 0-.4 0-.6-.1-.8v-.3c0 .1.1.2.1.3l.1.8c.1.7.2 1.8.3 3.2.3 4 .1 8-.5 12-.4 2.7-1 5.5-1.8 8.1-.4 1.4-.9 2.9-1.5 4.4-.6 1.5-1.1 3-1.5 4.6-.4 1.6-.2 3.4.3 4.9.7 1.6 1.6 3.1 2.9 4.3 1.3 1.3 2.7 2.5 4.2 3.6 1.5 1.2 3 2.2 4.7 3.1 1.6.9 3.5 1.3 5.4 1 1.8-.4 3.5-1 5.2-1.8 1.7-.8 3.5-1.1 5.4-.9 1.7.3 3.4 1 4.8 2 2.7 2 4.8 4.4 7.2 6.2 2.1 1.7 4.7 2.8 7.4 3.1 4 .4 8-.6 11.2-3 1.1-.7 2.2-1.8 3.1-3z"/><path class="st7" d="M347.5 151.3c-.3-.4-.6-.7-.8-1.1-.7-1.1-1.2-2.4-1.4-3.6-.4-2-.4-4.1.1-6.2.6-2.7 1.8-5.2 3.5-7.4 2.1-2.6 4.5-4.9 7.2-6.8 2.9-2.1 6.1-4.1 9.4-6.4 3.5-2.3 6.5-5.3 8.9-8.6 1.2-1.9 2.1-3.9 2.7-6 .6-2.1 1.1-4.4 1.6-6.6.5-2.3 1.1-4.5 2-6.6.9-2.1 2.2-3.9 3.9-5.4 1.7-1.4 3.6-2.5 5.7-3.1 2-.6 4-1 6.1-1.2 3.8-.2 7.6-.1 11.4.4 3.3.4 6.6.4 9.9.1 2.7-.3 5.3-1 7.7-2.3 1.8-.9 3.4-2.2 4.7-3.8.8-1 1.5-2.1 1.9-3.3.3-.8.4-1.3.4-1.3-.1.5-.2.9-.3 1.3-.4 1.2-1 2.4-1.9 3.4-1.3 1.6-2.9 3-4.8 4-2.4 1.3-5.1 2.1-7.8 2.4-3.3.3-6.6.3-9.9-.1-3.8-.4-7.5-.5-11.3-.3-2 .2-4.1.6-6 1.2-2 .6-3.9 1.7-5.5 3-1.6 1.4-2.9 3.2-3.8 5.3-.9 2.1-1.5 4.3-2 6.5s-1 4.5-1.6 6.7c-.6 2.2-1.5 4.2-2.8 6.1-2.4 3.4-5.5 6.4-9 8.8-3.3 2.3-6.5 4.3-9.4 6.4-2.7 1.9-5.1 4.1-7.2 6.7-1.7 2.1-2.9 4.6-3.5 7.2-.5 2-.5 4.1-.2 6.1.3 1.5 1 3.1 2.1 4.5z"/><path class="st7" d="M350.4 156.6c-1.1-.9-2.1-1.9-3.1-2.9-1.1-1.2-2-2.7-2.7-4.2-.4-1-.6-2.1-.5-3.1.1-1.2.6-2.3 1.4-3.3 1.6-2 4.3-3.1 7.1-3.6 1.4-.3 2.9-.5 4.4-.9 1.5-.3 3-.9 4.3-1.8 1.3-1 2.4-2.2 3.1-3.7.8-1.5 1.4-3.1 1.9-4.8.5-1.7 1.2-3.4 2-5 .9-1.7 2.2-3.1 3.8-4.1 1.6-.9 3.4-1.6 5.2-2 1.8-.5 3.5-.8 5.2-1.4 3.2-1.1 5.9-3.1 7.9-5.9 1.8-2.4 3.5-5 5-7.7 1.3-2.4 2.8-4.6 4.5-6.6 1.4-1.7 3.2-3.1 5.1-4.2 1.5-.8 3.1-1.3 4.8-1.4 1.1-.1 2.1 0 3.2.3.3.1.7.2 1 .4 0 0-.4-.1-1.1-.3-1-.2-2.1-.3-3.1-.2-1.6.2-3.2.7-4.7 1.5-1.9 1.1-3.6 2.5-5 4.2-1.7 2.1-3.1 4.3-4.4 6.6-1.4 2.7-3.1 5.3-4.9 7.8-1 1.3-2.2 2.5-3.5 3.6-1.4 1.1-2.9 1.9-4.6 2.4-1.7.6-3.5.9-5.2 1.4-1.8.4-3.5 1.1-5.1 2-1.5 1-2.8 2.4-3.6 4-.8 1.6-1.5 3.2-2 4.9-.5 1.7-1.2 3.3-2 4.8s-1.9 2.8-3.3 3.8c-1.4.9-2.9 1.5-4.4 1.8-1.5.4-3 .6-4.4.9-2.8.6-5.4 1.6-6.9 3.4-.7.9-1.2 1.9-1.3 3.1-.1 1 0 2 .4 3 .6 1.5 1.5 3 2.5 4.2.9 1 1.6 1.8 2.1 2.3l.6.6c.2 0 .3.1.3.1z"/><path class="st10" d="M473.5 92c-.1.3-.3.5-.5.8-.4.5-.9 1.2-1.6 2-1.4 1.6-3.3 3.8-5.6 6.1-1.1 1.1-2.2 2.4-3.7 2.8-.7.2-1.4.2-2.1 0-.6-.2-1.1-.7-1.4-1.2-.4-.8-.5-1.7-.4-2.5 0-.3.1-.6.2-.9v.9c-.1.8.1 1.6.5 2.3.3.5.7.8 1.2 1 .6.2 1.2.2 1.8 0 1.3-.4 2.3-1.6 3.5-2.8 2.3-2.3 4.3-4.4 5.7-6 .8-.9 1.6-1.7 2.4-2.5z"/><path class="st10" d="M481.1 92c-.2.3-.4.6-.6.8-.4.5-1 1.2-1.8 2l-2.7 2.9-1.6 1.7-1.8 1.8c-.7.6-1.5.9-2.4 1-.9.1-1.7-.3-2.3-1-.2-.3-.4-.7-.4-1.2 0-.4.1-.7.3-1.1.4-.6.8-1.1 1.1-1.5.7-.9 1.2-1.6 1.6-2.1.2-.3.4-.5.6-.7-.1.3-.3.6-.5.9-.3.5-.8 1.3-1.5 2.2-.3.5-.7 1-1 1.5-.4.5-.4 1.2 0 1.7.4.6 1.1.9 1.9.8.8-.1 1.5-.4 2.2-.9.7-.5 1.3-1.1 1.8-1.7l1.6-1.7 2.8-2.8 1.9-1.9c.3-.3.6-.5.8-.7z"/></g><g id="Plants--inject-2"><path class="st2" d="M585.5 398.1c2.9-6.4 10.5-9.2 16.8-6.2 1.4.6 2.7 1.5 3.8 2.7-2.1 3.4-5.4 5.9-9.2 7.1-4.1 1.4-8.8 0-11.4-3.6"/><path class="st8" d="M578.4 399.8c.9-.4 1.9-.7 2.9-.9 1.8-.4 4.3-.9 7.1-1.4s5.3-.8 7.2-1c1-.2 2-.2 3-.2-1 .3-1.9.5-2.9.6l-7.2 1.2c-2.8.5-5.3.9-7.1 1.2-1 .2-2 .4-3 .5z"/><path class="st2" d="M228.1 334.8c7.1 5.8 8.1 16.3 2.3 23.5-1.4 1.8-3.2 3.2-5.3 4.2-3.7-9.4-5.1-19.5 3-27.7M242 342c.7 11.9 10.8 21 22.7 20.3 2.9-.2 5.8-.9 8.4-2.2-6.9-11-16.4-20.2-31.1-18.1"/><path class="st8" d="M210.2 307.3c.2.1.3.3.5.5l1.2 1.5c1.1 1.3 2.6 3.2 4.6 5.5 3.9 4.6 9.4 10.9 15.9 17.4 3.2 3.3 6.4 6.3 9.4 8.9s5.8 4.9 8.2 6.8c1.9 1.4 3.9 2.8 5.9 4 1.5.9 2.3 1.2 2.3 1.3-.2-.1-.4-.1-.6-.2-.6-.2-1.2-.5-1.8-.9-2.1-1.2-4.1-2.5-6-3.9-2.4-1.8-5.2-4.1-8.2-6.7s-6.2-5.7-9.5-8.9c-6.5-6.5-12-12.9-15.8-17.5-1.9-2.3-3.4-4.3-4.4-5.6l-1.2-1.6c-.3-.3-.4-.4-.5-.6z"/><path class="st8" d="M227.3 349c-.1 0 .2-1.4.5-3.7.7-5.9.1-12-1.8-17.6-.8-2.2-1.4-3.5-1.3-3.5.2.3.4.6.5.9.4.8.8 1.6 1.1 2.5 1.1 2.8 1.8 5.8 2.1 8.8.3 3 .2 6-.2 9-.1.9-.3 1.8-.6 2.7 0 .3-.1.6-.3.9z"/><path class="st2" d="M668.6 146.7c-4.2-5.6-3.1-13.5 2.5-17.7 1.2-.9 2.6-1.6 4.1-2.1 2 3.5 2.7 7.5 1.9 11.4-.7 4.4-4.1 7.8-8.5 8.4"/><path class="st8" d="M666.7 153.7c.1-1 .3-2 .6-2.9.5-1.8 1.2-4.2 2.2-6.9s1.8-5.1 2.5-6.8c.3-1 .7-1.9 1.2-2.8-.2 1-.5 1.9-.9 2.9-.7 1.9-1.5 4.2-2.4 6.9l-2.3 6.9c-.2.8-.5 1.8-.9 2.7z"/><path class="st2" d="M624.6 221.1c-3.5-13.1 4.2-26.5 17.3-30 2.9-.8 5.9-1 8.9-.7 1.4 7.6-1 15.3-5 21.9-4.6 7.7-14 10.9-21.2 8.8"/><path class="st8" d="M595 250.7c.1-.2.3-.4.4-.5l1.3-1.5c1.2-1.3 2.8-3.1 4.9-5.3 4.2-4.4 10.1-10.4 16.6-17s12.5-12.5 16.8-16.8l5.1-5.1 1.4-1.4c.3-.3.5-.5.5-.4-.1.2-.3.4-.5.5l-1.3 1.4-5 5.1-16.7 16.9-16.5 17.1-5 5.1-1.4 1.4c-.2.2-.4.3-.6.5z"/><path d="M624.6 221.1c-3.5-13.1 4.2-26.5 17.3-30 2.9-.8 5.9-1 8.9-.7 1.4 7.6-1 15.3-5 21.9-4.6 7.7-14 10.9-21.2 8.8" class="st11"/><path class="st2" d="M610.9 224c-7.4-3.8-10.3-12.8-6.6-20.2.9-1.7 2-3.2 3.4-4.4 4 2.5 6.6 6.8 7.9 11.3 1.7 5.4-.7 11-4.7 13.3"/><path d="M610.9 224c-7.4-3.8-10.3-12.8-6.6-20.2.9-1.7 2-3.2 3.4-4.4 4 2.5 6.6 6.8 7.9 11.3 1.7 5.4-.7 11-4.7 13.3" class="st11"/><path class="st8" d="m612.5 232.6-.3-.9c-.2-.6-.4-1.5-.6-2.5-.4-2.2-.9-5.2-1.3-8.5s-.7-6.4-.8-8.6c-.1-1.2-.2-2.4-.1-3.6.2 1.2.4 2.3.5 3.5.3 2.3.6 5.3 1 8.5.4 3.3.8 6.3 1.1 8.5s.6 3.5.5 3.6z"/><path class="st2" d="M423.6 339.9c5.1-12 19-17.7 31-12.6 3 1.3 5.7 3.2 8 5.5-11.3 8.9-24.5 14.9-39 7.1"/><path d="M423.6 339.9c5.1-12 19-17.7 31-12.6 3 1.3 5.7 3.2 8 5.5-11.3 8.9-24.5 14.9-39 7.1" class="st11"/><path class="st8" d="M417.3 343.5c.3-.3.6-.5.9-.7.6-.4 1.5-1 2.6-1.7 5.9-3.4 12.5-5.6 19.4-6.4 1.3-.1 2.4-.2 3.1-.2.4-.1.8-.1 1.1 0 0 .1-1.6.2-4.2.6-3.4.5-6.7 1.3-9.9 2.3-3.2 1.1-6.3 2.4-9.3 4-2.4 1.3-3.7 2.1-3.7 2.1z"/><path class="st2" d="M160.1 209.6c9.1-4.3 20-.3 24.3 8.8 1.1 2.3 1.6 4.7 1.7 7.2-11.1-.7-21.8-4.1-26-16"/><path d="M160.1 209.6c9.1-4.3 20-.3 24.3 8.8 1.1 2.3 1.6 4.7 1.7 7.2-11.1-.7-21.8-4.1-26-16" class="st11"/><path class="st8" d="M154.6 208.4h.9c.8.1 1.6.2 2.4.4 2.6.5 5.1 1.3 7.5 2.4 2.4 1.1 4.7 2.4 6.9 3.9.8.6 1.5 1.1 1.9 1.5l.6.6c-.1.1-1-.7-2.7-1.8-4.4-2.9-9.2-5-14.3-6.2-2-.6-3.2-.8-3.2-.8z"/><path class="st2" d="M518.4 327.7c-1.1-9 5.3-17.1 14.3-18.2 2.2-.3 4.5-.1 6.6.6-3.8 9.1-9.7 17.3-20.9 17.6"/><path class="st8" d="M515.8 332c.3-.9.7-1.8 1.2-2.7 2.4-4.1 5.6-7.7 9.4-10.5.8-.6 1.6-1.1 2.5-1.5-.7.6-1.5 1.3-2.3 1.8-3.7 2.9-6.8 6.4-9.3 10.4-.5.9-1 1.7-1.5 2.5z"/><path class="st2" d="M597.1 275.7c-2.8-8.6 2-17.8 10.6-20.6 2.1-.7 4.4-.9 6.6-.7-2 9.8-6.2 18.9-17.2 21.3"/><path d="M597.1 275.7c-2.8-8.6 2-17.8 10.6-20.6 2.1-.7 4.4-.9 6.6-.7-2 9.8-6.2 18.9-17.2 21.3" class="st11"/><path class="st8" d="M595.3 280.5c.1-1 .4-1.9.7-2.8.8-2.2 1.8-4.4 3-6.4s2.7-3.9 4.3-5.6c.6-.8 1.4-1.4 2.2-2-.6.8-1.2 1.5-1.9 2.2-1.5 1.8-2.9 3.7-4.1 5.7-1.2 2-2.2 4.1-3.1 6.3-.3.8-.7 1.7-1.1 2.6z"/><path class="st2" d="M3.9 204.2c2-8.8 10.7-14.4 19.5-12.4 2.2.5 4.2 1.4 6.1 2.7-6.6 7.4-14.9 13.2-25.6 9.7"/><path class="st8" d="M0 207.4c.6-.8 1.3-1.5 2.1-2.1 1.8-1.5 3.7-2.9 5.8-4 2.1-1.1 4.3-2.1 6.5-2.7.9-.3 1.9-.5 2.9-.6-.9.4-1.8.7-2.8 1-4.4 1.5-8.6 3.8-12.2 6.7-.7.6-1.5 1.2-2.3 1.7z"/></g><g id="speech-bubble--inject-2"><path class="st4" d="m461 73.7 8-14.5c-11.4-18-5.9-41.9 12.1-53.2S523 .1 534.3 18.1c11.4 18 5.9 41.9-12.1 53.2-13.6 8.6-31.1 7.8-43.9-1.9L461 73.7z"/><path class="st8" d="m461 73.7 17.4-4.4-.1.2-.6-.8.8.6c2.5 1.8 5.1 3.4 7.9 4.6 3.4 1.4 6.9 2.4 10.5 2.8 2 .3 4 .3 6 .2 1-.1 2.1-.1 3.2-.2l3.2-.5c9.6-2 18-7.6 23.7-15.6 3.1-4.4 5.3-9.5 6.3-14.8 1-5.6.8-11.4-.7-16.9-1.5-5.8-4.3-11.1-8.3-15.6l-1.6-1.7c-.5-.6-1.1-1-1.7-1.6-.6-.5-1.1-1-1.7-1.5l-1.8-1.3c-.6-.4-1.2-.9-1.8-1.2l-2-1.2-2-1c-.6-.3-1.3-.6-2-.9C510.3.8 504.4 0 498.6.4c-5.5.4-10.8 2-15.6 4.8-8.6 4.9-15 12.9-17.9 22.4-1.1 4-1.7 8.2-1.6 12.4.2 6.7 2.2 13.3 5.8 19v.2L461 73.7l8-14.5v.1c-3.6-5.7-5.7-12.3-6-19.1-.1-4.2.4-8.5 1.5-12.6 2.9-9.6 9.4-17.7 18.1-22.7 4.9-2.8 10.3-4.4 15.8-4.8 5.9-.5 11.8.4 17.3 2.5l2.1.9 2.1 1 2 1.2c.7.4 1.3.8 1.9 1.2l1.8 1.3c.6.4 1.2 1 1.8 1.5s1.2 1 1.7 1.6l1.6 1.8c4 4.5 6.9 9.9 8.4 15.8 1.5 5.6 1.7 11.5.6 17.2-1 5.4-3.2 10.5-6.4 15-5.7 8.1-14.3 13.7-24 15.7l-3.3.5c-1.1.1-2.1.1-3.2.2-2 .1-4.1 0-6.1-.2-3.7-.5-7.2-1.4-10.6-2.9-2.8-1.2-5.5-2.8-8-4.7l.2-.2.1.2h-.2l-17.2 4z"/><path class="st2" d="m491 32.1 5-.1c0-2.3 1.8-4.3 4.2-4.3h.2c1.7-.1 3.3.9 4 2.6.6 1.3.4 2.8-.3 4.1-.8 1.4-2.7 2.7-6.1 2.1l.1 11.3h5l-.1-6.7c4.2-1.3 7-5.2 6.9-9.5-.1-7.3-6.7-9-9.5-8.9-2.3 0-9.6.6-9.4 9.4z"/><path transform="matrix(1 -.0096 .0096 1 -.48 4.807)" class="st2" d="M498 50.1h5v4.7h-5z"/></g></svg>