<svg version="1.1" id="Layer_1" xmlns="http://www.w3.org/2000/svg" x="0" y="0" viewBox="0 0 685.5 408.4" style="enable-background:new 0 0 685.5 408.4" xml:space="preserve"><style>.st0{fill:#f5f5f5}.st1{fill:#e0e0e0}.st2{fill:#ebebeb}.st3{fill:#fafafa}.st4{fill:#263238}.st5{fill:#455a64}.st6{fill:#0061f2}.st7{fill:#fff}.st9{fill:#ffbe9d}.st10{fill:#eb996e}.st11{opacity:.2}</style><g id="background-complete--inject-114"><path class="st0" d="M586.7 229.4c-15.5-13.3-17.1-35.2-14.5-54.6.4-3.2.4-6.7 2.2-9.4s5.6-4.3 8.4-2.6c2.3 1.4 3.1 4.3 4.2 6.7 1.5 3.3 3.9 6 6.9 8 2 1.3 4.4 2.2 6.6 1.3 3-1.3 3.7-5.1 4-8.3l1.7-18c.3-3.2.6-6.5 1.9-9.5s3.8-5.6 7-6.1 6.8 1.6 7.1 4.8c0 1.3-.1 2.7-.3 4 0 1.3.4 2.9 1.7 3.4s2.6-.3 3.7-1.1c3.6-2.9 6.3-6.9 8.8-10.8s5-8 8.4-11.3 7.8-5.6 12.5-5.4 9.3 3.5 10 8.2-2.4 9-5.6 12.4c-4.8 5-10.3 9.3-16.4 12.8-1.2.5-2.1 1.4-2.8 2.4-.9 2.1.9 4.4 3 5.3 2.3 1 4.9 1.1 7.4 1.6s5.1 1.9 5.8 4.4c1 3.4-2.1 6.6-5 8.6-5.9 4-12.4 6.9-19.3 8.7-2.5.6-5 1.1-7.1 2.6s-3.5 4.2-2.6 6.6c.9 2.4 3.8 3.4 6.3 3.2s4.9-1.3 7.3-2c4.6-1.2 10.3-.4 12.7 3.8 1.6 2.7 1.4 6.2.2 9.1-1.4 2.8-3.3 5.4-5.7 7.5-7.9 7.8-17.7 13.3-28.5 16-10.6 2.4-20.2 2.4-30-2.3"/><path class="st1" d="M592.9 217.7c4.3-10.2 9.1-20.2 14.5-29.9 1.4-2.6 2.8-5.1 4.2-7.6s2.8-5 4.3-7.3c2.9-4.5 6-8.8 9.4-13 3.2-4 6.3-7.7 9.3-11.1s5.8-6.5 8.6-9.3c4.3-4.3 8.9-8.3 13.8-11.9 1.7-1.3 3.1-2.2 4-2.9l1.1-.7.4-.2-.3.3-1 .8c-.9.7-2.3 1.6-4 2.9-4.8 3.7-9.4 7.7-13.6 12.1-2.7 2.7-5.5 5.9-8.5 9.3s-6.1 7.1-9.3 11.1c-3.3 4.2-6.5 8.5-9.3 13-1.5 2.3-2.8 4.8-4.2 7.3l-4.2 7.6c-5.4 9.7-10.3 19.6-14.6 29.8"/><path class="st1" d="M616.1 172.8c-.1-.5-.2-.9-.2-1.4-.1-.9-.2-2.2-.2-3.8-.1-3.2-.2-7.8-.2-12.7s-.1-9.4-.3-12.7c-.1-1.6-.2-2.9-.2-3.8-.1-.5-.1-.9 0-1.4.1.5.2.9.3 1.4.1.9.3 2.2.4 3.8.3 3.2.5 7.8.5 12.7v16.5c0 .5 0 .9-.1 1.4z"/><path class="st1" d="M658.2 169.2c-.6.1-1.1.1-1.7 0H652c-3.8 0-9.1.3-15 .8s-11.1 1.2-14.9 1.8c-1.9.3-3.4.6-4.5.8-.5.1-1.1.2-1.7.2.5-.2 1.1-.4 1.6-.5 1-.2 2.6-.6 4.5-.9 3.8-.7 9-1.5 14.9-2 5-.4 10-.6 15-.6 1.9 0 3.5.1 4.5.2.7 0 1.3.1 1.8.2zM593.5 217c-.1-.2-.2-.3-.2-.5-.2-.4-.3-.9-.6-1.6-.5-1.4-1.1-3.4-1.9-5.8-1.5-4.9-3.4-11.8-5.4-19.5s-3.8-14.5-5.2-19.5c-.7-2.4-1.3-4.4-1.7-5.9l-.5-1.6c-.1-.2-.1-.4-.1-.6.1.2.2.4.2.5l.5 1.6c.5 1.4 1.1 3.4 1.9 5.8 1.5 4.9 3.4 11.8 5.4 19.5 2 7.6 3.8 14.5 5.2 19.5l1.7 5.9.5 1.6c.1.2.2.4.2.6z"/><path class="st1" d="M650.2 204.8c-.2.1-.4.1-.6.2l-1.7.4-6.1 1.3c-5.1 1.1-12.2 2.7-20 4.5s-14.9 3.4-20.1 4.4c-2.6.5-4.7.9-6.1 1.1l-1.7.3c-.2 0-.4.1-.6 0 .2-.1.4-.1.6-.2l1.7-.4 6.1-1.3c5.1-1.1 12.2-2.8 20-4.5s14.9-3.4 20.1-4.4c2.6-.5 4.7-.9 6.1-1.1l1.7-.3c.2 0 .4-.1.6 0zM624 88.8c-4.9 1.1-9.8-2-10.8-6.9-.3-1.5-.3-3.1.2-4.7l15.5-50c.9-3.1 3.5-5.5 6.7-6.2 3.2-.7 6.5.3 8.7 2.7l35.5 38.4c3.4 3.7 3.2 9.4-.5 12.8-1.2 1.1-2.6 1.8-4.1 2.2L624 88.8zm12.2-65.1c-2.2.5-4 2.1-4.7 4.3L616 78c-1 3.4.9 6.9 4.2 8 1.1.3 2.2.4 3.3.1l51.1-11.5c3.4-.8 5.6-4.2 4.8-7.6-.2-1.1-.8-2.1-1.5-2.9l-35.5-38.5c-1.7-1.7-4-2.4-6.2-1.9z"/><path class="st1" d="M642.7 69.6c-.4-1.8.7-3.6 2.5-4h.1c1.8-.5 3.6.6 4.1 2.3v.1c.4 1.8-.7 3.6-2.5 4h-.1c-1.8.5-3.7-.6-4.1-2.4 0 .1 0 0 0 0zm-5.8-26.7 6.2-1.4 3.5 20-4.2 1-5.5-19.6z"/><path class="st2" d="M12.1 228.2s-6.4 3.6 3.2 17 16 19.8 16 19.8 1.8 3.2-.9 4.1-9.2.9-9.9 4.6 2.4 6.8 8.2 9 18.3 7.4 19.4 7.9 2.4 1.9.6 2.8S33 298 35.1 304.5s19.2 9.9 21.1 10.3 2.4 1.1 2.4 2.1-4.8 1.8-8.7 3-8.2 3.3-6.7 6.9 12.4 10.1 36 8.8l10.9-1.3 4.5-10.1c8.3-22.2 5.3-34.4 2.3-37s-6.3 1-8.6 4.3-4.5 7.7-5.4 7.4-1.4-1-1.3-2.9 2-19.2-3.5-23.2-13.1 8.2-14.6 9.6c-1.4 1.4-2.4-.2-2.5-1.4s-1.4-14.7-1.7-20.9-2.3-10.1-6.2-10.5-5.6 5.7-7.3 8.1-4.2-.3-4.2-.3-4.3-7.8-14.2-21.1-15.4-8-15.4-8"/><path class="st1" d="M91.1 336.7c-7.2-9.8-19.9-27.3-30.8-42.3s-20.8-28.6-28-38.4l-8.5-11.6-2.3-3.1-.6-.8c-.1-.2-.2-.3-.2-.3.1.1.2.2.2.3.2.2.4.5.6.8.6.7 1.3 1.8 2.4 3.1 2.1 2.7 5 6.6 8.6 11.5 7.3 9.8 17.2 23.3 28.1 38.3s23.5 32.6 30.7 42.4"/><path class="st1" d="M29.4 274.2c.3 0 .5 0 .8.1.5.1 1.2.2 2.1.4 1.8.4 4.2.9 7 1.6l6.9 1.7 2.1.5c.3 0 .5.1.8.2-.3 0-.5 0-.8-.1-.5-.1-1.2-.2-2.1-.4-1.8-.4-4.2-1-7-1.6l-6.9-1.7-2.1-.5c-.3 0-.6-.1-.8-.2zM49.7 277.9c-.1 0 .8-5.1 2.1-11.5s2.3-11.4 2.4-11.4-.8 5.1-2.1 11.5-2.3 11.5-2.4 11.4zM65.4 301.7c.1-.3.2-.5.3-.7l1-2c.8-1.6 2-4 3.2-6.5s2.2-4.9 2.9-6.7c.3-.8.6-1.5.8-2 .1-.3.2-.5.3-.7 0 .3-.1.5-.2.8-.2.5-.4 1.2-.8 2.1-.7 1.7-1.6 4.1-2.8 6.7s-2.4 4.9-3.3 6.5c-.5.8-.8 1.5-1.1 1.9 0 .2-.1.4-.3.6zM46.3 302.4c.2-.1.5-.1.7-.1l2-.1c1.7-.1 4.1-.2 6.7-.4s5-.2 6.7-.3h2.8c-.2.1-.5.1-.7.1l-2 .1c-1.7.1-4.1.2-6.7.4s-5 .2-6.7.3h-2.8zM57.5 325.2c.3-.1.6-.1.9-.1l2.6-.2c2.2-.2 5.2-.4 8.6-.5s6.4-.4 8.6-.5l2.6-.1h1c-.3.1-.7.1-1 .1l-2.6.2c-2.2.1-5.2.4-8.6.5s-6.4.4-8.6.5l-2.6.1h-.9zM81.2 323.6c.1-.3.2-.6.4-1 .3-.6.7-1.5 1.2-2.5 1-2.1 2.4-5.1 3.8-8.4s2.7-6.3 3.5-8.5c.4-1 .8-1.9 1-2.6.1-.3.2-.6.4-.9-.1.3-.2.7-.3 1-.2.6-.5 1.5-.9 2.6-.8 2.2-2 5.3-3.4 8.6s-2.8 6.3-3.9 8.4c-.5 1-1 1.9-1.3 2.5-.1.3-.3.6-.5.8z"/><path class="st0" d="M85.8 24h104.1v319H85.8z"/><path class="st3" d="M189.6 24h82.3v319h-82.3z"/><path class="st1" d="M91.4 75h88.3v24.9H91.4z"/><path class="st0" d="M93.9 78.1h5v19h-5z"/><path class="st3" d="M104.7 82.1c0 .9-.7 1.6-1.6 1.6-.9 0-1.6-.7-1.6-1.6 0-.9.7-1.6 1.6-1.6.8.1 1.6.8 1.6 1.6zM104.7 88.9c0 .9-.7 1.6-1.6 1.6-.9 0-1.6-.7-1.6-1.6 0-.9.7-1.6 1.6-1.6.8 0 1.5.7 1.6 1.6z"/><path class="st0" d="M110.9 80.6h4.9v14.6h-4.9zM118 80.6h4.9v14.6H118zM125 80.6h4.9v14.6H125zM132 80.6h4.9v14.6H132zM139 80.6h4.9v14.6H139zM146 80.6h4.9v14.6H146zM153.1 80.6h4.9v14.6h-4.9zM160.1 80.6h4.9v14.6h-4.9zM167.1 80.6h4.9v14.6h-4.9zM174.1 80.6h4.9v14.6h-4.9z"/><path class="st1" d="M91.4 114.8h88.3v24.9H91.4z"/><path class="st0" d="M93.9 118h5v19h-5z"/><path class="st3" d="M104.7 122c0 .9-.7 1.6-1.6 1.6-.9 0-1.6-.7-1.6-1.6 0-.9.7-1.6 1.6-1.6.8 0 1.6.7 1.6 1.6z"/><circle class="st3" cx="103.1" cy="128.7" r="1.6"/><path class="st0" d="M110.9 120.4h4.9V135h-4.9zM118 120.4h4.9V135H118zM125 120.4h4.9V135H125zM132 120.4h4.9V135H132zM139 120.4h4.9V135H139zM146 120.4h4.9V135H146zM153.1 120.4h4.9V135h-4.9zM160.1 120.4h4.9V135h-4.9zM167.1 120.4h4.9V135h-4.9zM174.1 120.4h4.9V135h-4.9z"/><path class="st1" d="M91.4 154.7h88.3v24.9H91.4z"/><path class="st0" d="M93.9 157.8h5v19h-5z"/><path class="st3" d="M104.7 161.8c0 .9-.7 1.6-1.6 1.6-.9 0-1.6-.7-1.6-1.6 0-.9.7-1.6 1.6-1.6.8 0 1.5.7 1.6 1.6z"/><circle class="st3" cx="103.1" cy="168.5" r="1.6"/><path class="st0" d="M110.9 160.2h4.9v14.6h-4.9zM118 160.2h4.9v14.6H118zM125 160.2h4.9v14.6H125zM132 160.2h4.9v14.6H132zM139 160.2h4.9v14.6H139zM146 160.2h4.9v14.6H146zM153.1 160.2h4.9v14.6h-4.9zM160.1 160.2h4.9v14.6h-4.9zM167.1 160.2h4.9v14.6h-4.9zM174.1 160.2h4.9v14.6h-4.9z"/><path class="st1" d="M91.4 194.5h88.3v24.9H91.4z"/><path class="st0" d="M93.9 197.6h5v19h-5z"/><path class="st3" d="M104.7 201.6c0 .9-.7 1.6-1.6 1.6s-1.6-.7-1.6-1.6c0-.9.7-1.6 1.6-1.6.8.1 1.6.8 1.6 1.6zM104.7 208.4c0 .9-.7 1.6-1.6 1.6s-1.6-.7-1.6-1.6c0-.9.7-1.6 1.6-1.6.8 0 1.6.7 1.6 1.6z"/><path class="st0" d="M110.9 200.1h4.9v14.6h-4.9zM118 200.1h4.9v14.6H118zM125 200.1h4.9v14.6H125zM132 200.1h4.9v14.6H132zM139 200.1h4.9v14.6H139zM146 200.1h4.9v14.6H146zM153.1 200.1h4.9v14.6h-4.9zM160.1 200.1h4.9v14.6h-4.9zM167.1 200.1h4.9v14.6h-4.9zM174.1 200.1h4.9v14.6h-4.9z"/><path class="st1" d="M91.4 234.4h88.3v24.9H91.4z"/><path class="st0" d="M93.9 237.5h5v19h-5z"/><path class="st3" d="M104.7 241.5c0 .9-.7 1.6-1.6 1.6s-1.6-.7-1.6-1.6c0-.9.7-1.6 1.6-1.6.8 0 1.6.7 1.6 1.6z"/><circle class="st3" cx="103.1" cy="248.2" r="1.6"/><path class="st0" d="M110.9 239.9h4.9v14.6h-4.9zM118 239.9h4.9v14.6H118zM125 239.9h4.9v14.6H125zM132 239.9h4.9v14.6H132zM139 239.9h4.9v14.6H139zM146 239.9h4.9v14.6H146zM153.1 239.9h4.9v14.6h-4.9zM160.1 239.9h4.9v14.6h-4.9zM167.1 239.9h4.9v14.6h-4.9zM174.1 239.9h4.9v14.6h-4.9z"/><path class="st1" d="M91.4 274.2h88.3v24.9H91.4z"/><path class="st0" d="M93.9 277.3h5v19h-5z"/><path class="st3" d="M104.7 281.3c0 .9-.7 1.6-1.6 1.6s-1.6-.7-1.6-1.6c0-.9.7-1.6 1.6-1.6.8.1 1.6.8 1.6 1.6zM104.7 288c0 .9-.7 1.6-1.6 1.6s-1.6-.7-1.6-1.6c0-.9.7-1.6 1.6-1.6.8.1 1.6.8 1.6 1.6z"/><path class="st0" d="M110.9 279.8h4.9v14.6h-4.9zM118 279.8h4.9v14.6H118zM125 279.8h4.9v14.6H125zM132 279.8h4.9v14.6H132zM139 279.8h4.9v14.6H139zM146 279.8h4.9v14.6H146zM153.1 279.8h4.9v14.6h-4.9zM160.1 279.8h4.9v14.6h-4.9zM167.1 279.8h4.9v14.6h-4.9zM174.1 279.8h4.9v14.6h-4.9z"/><path class="st1" d="M91.4 314h88.3v24.9H91.4z"/><path class="st0" d="M93.9 317.2h5v19h-5z"/><path class="st3" d="M104.7 321.2c0 .9-.7 1.6-1.6 1.6s-1.6-.7-1.6-1.6c0-.9.7-1.6 1.6-1.6.8 0 1.5.7 1.6 1.6z"/><circle class="st3" cx="103.1" cy="327.9" r="1.6"/><path class="st0" d="M110.9 319.6h4.9v14.6h-4.9zM118 319.6h4.9v14.6H118zM125 319.6h4.9v14.6H125zM132 319.6h4.9v14.6H132zM139 319.6h4.9v14.6H139zM146 319.6h4.9v14.6H146zM153.1 319.6h4.9v14.6h-4.9zM160.1 319.6h4.9v14.6h-4.9zM167.1 319.6h4.9v14.6h-4.9zM174.1 319.6h4.9v14.6h-4.9z"/><path class="st1" d="M146 75c-.1-.3-.1-.5-.1-.8 0-.5-.1-1.2-.1-2.2s-.1-2.1-.1-3.5c0-1.5-.3-3-.6-4.5-.5-1.8-1.3-3.5-2.4-5-1.2-1.7-2.9-3.1-4.8-3.9-2.2-.8-4.5-1.3-6.9-1.4l-7.6-.7c-10.4-.9-19.9-1.5-26.7-1.6-3.4-.1-6.2-.1-8.1 0h-3c.3-.1.5-.1.8-.1l2.2-.1c1.9-.1 4.7-.2 8.1-.2 6.9 0 16.3.5 26.8 1.4l7.6.7c2.4.1 4.8.6 7 1.5 2 .9 3.8 2.3 5 4.1 1.1 1.6 1.9 3.3 2.4 5.2.3 1.5.5 3.1.5 4.6v5.7c.1.3.1.6 0 .8z"/><path class="st1" d="M119.2 75c0-.2-.1-.5-.1-.7v-2.1c0-.9 0-2-.1-3.3-.1-1.4-.4-2.8-1.1-4.1-1-1.4-2.4-2.5-4-3-1.8-.7-3.8-.9-5.8-.6-1 .2-2.1.5-3 1-1 .5-1.8 1.3-2.3 2.2-.5 1-.5 2.1 0 3.1.6 1 1.5 1.7 2.6 2 1.1.2 2.3-.1 3.1-.9 1.7-1.6 1.9-4.1.5-5.9-.6-.8-1.4-1.5-2.3-2-.9-.4-1.9-.7-2.9-.8-1-.1-2-.3-2.9-.4-1.9-.2-3.6-.3-5.2-.4-3.2-.1-5.8-.1-7.6-.1h-2.8c.2-.1.5-.1.7-.1l2.1-.1c1.8-.1 4.4-.2 7.7-.1 1.6 0 3.4.1 5.3.3 1 .1 1.9.2 2.9.4.5.1 1 .1 1.5.2s1.1.3 1.6.5c1 .5 1.9 1.3 2.6 2.2.7 1 1.1 2.2 1 3.4-.1 1.3-.6 2.5-1.6 3.3-1 .9-2.3 1.3-3.6 1-1.3-.3-2.4-1.1-3-2.3-.6-1.1-.6-2.5 0-3.7.6-1 1.5-1.9 2.6-2.4 1-.5 2.1-.9 3.2-1.1 2.1-.3 4.2-.1 6.1.7 1.7.6 3.2 1.8 4.2 3.3.6 1.3 1 2.8 1 4.3.1 1.3 0 2.4 0 3.3s-.1 1.5-.1 2.1c-.2.4-.2.6-.3.8zM153.2 75c-.1-.3-.1-.5-.2-.8-.1-.6-.3-1.3-.5-2.4-.6-2.9-1.5-5.7-2.6-8.4-1.6-4.1-4.3-7.6-7.7-10.3-2.1-1.5-4.5-2.4-7-2.7-2.7-.3-5.5-.4-8.3-.4-11.4-.2-21.8-.2-29.2-.5-3.7-.1-6.7-.3-8.8-.5l-2.4-.2c-.3 0-.6 0-.8-.1h.8l2.4.1c2.1.1 5.1.2 8.9.3 7.5.2 17.8.1 29.2.3 2.8 0 5.6.1 8.4.5 2.6.3 5.2 1.2 7.3 2.8 1.9 1.4 3.5 3.2 4.9 5.2 1.1 1.7 2.1 3.5 2.9 5.4 1.1 2.8 1.9 5.6 2.4 8.5.2 1 .3 1.8.4 2.4-.1.3 0 .5-.1.8zM92.6 27.9h85.9v12.5H92.6z"/><path class="st0" d="M111.5 34.1h46.8v6.2h-46.8z"/></g><g id="Servers--inject-114"><path class="st4" d="M240.1 222.1h138.6v98.1H240.1z"/><path class="st5" d="M219.9 212h151.5v37.6H219.9z"/><path class="st4" d="M267.8 222.1c0 .9-.8 1.7-1.7 1.7-.9 0-1.7-.8-1.7-1.7 0-.9.8-1.7 1.7-1.7 1 0 1.7.8 1.7 1.7zM275.4 222.1c0 .9-.8 1.7-1.7 1.7-.9 0-1.7-.8-1.7-1.7 0-.9.8-1.7 1.7-1.7.9 0 1.7.8 1.7 1.7zM282.9 222.1c0 .9-.8 1.7-1.7 1.7-.9 0-1.7-.8-1.7-1.7 0-.9.8-1.7 1.7-1.7 1 0 1.7.8 1.7 1.7zM290.5 222.1c0 .9-.8 1.7-1.7 1.7-.9 0-1.7-.8-1.7-1.7 0-.9.8-1.7 1.7-1.7.9 0 1.7.8 1.7 1.7zM349 222.1c0 .9-.8 1.7-1.7 1.7-.9 0-1.7-.8-1.7-1.7 0-.9.8-1.7 1.7-1.7.9 0 1.7.8 1.7 1.7zM356.7 222.1c0 .9-.8 1.7-1.7 1.7-.9 0-1.7-.8-1.7-1.7 0-.9.8-1.7 1.7-1.7.9 0 1.7.8 1.7 1.7zM298 222.1c0 .9-.8 1.7-1.7 1.7-.9 0-1.7-.8-1.7-1.7 0-.9.8-1.7 1.7-1.7 1 0 1.7.8 1.7 1.7zM335.1 222.1c0 .9-.8 1.7-1.7 1.7s-1.7-.8-1.7-1.7.8-1.7 1.7-1.7c.9 0 1.7.8 1.7 1.7z"/><path class="st0" d="M305.6 222.1c0 .9-.8 1.7-1.7 1.7-.9 0-1.7-.8-1.7-1.7 0-.9.8-1.7 1.7-1.7.9 0 1.7.8 1.7 1.7zM313.1 222.1c0 .9-.8 1.7-1.7 1.7-.9 0-1.7-.8-1.7-1.7 0-.9.8-1.7 1.7-1.7 1 0 1.7.8 1.7 1.7zM328.4 222.1c0 .9-.8 1.7-1.7 1.7s-1.7-.8-1.7-1.7.8-1.7 1.7-1.7c1 0 1.7.8 1.7 1.7zM362.9 222.1c0 .9-.8 1.7-1.7 1.7s-1.7-.8-1.7-1.7.8-1.7 1.7-1.7c1 0 1.7.8 1.7 1.7z"/><path class="st6" d="M320.7 222.1c0 .9-.8 1.7-1.7 1.7-.9 0-1.7-.8-1.7-1.7 0-.9.8-1.7 1.7-1.7.9 0 1.7.8 1.7 1.7zM342.2 222.1c0 .9-.8 1.7-1.7 1.7-.9 0-1.7-.8-1.7-1.7 0-.9.8-1.7 1.7-1.7 1 0 1.7.8 1.7 1.7z"/><path class="st4" d="M359.5 230.4c0-.9.8-1.7 1.7-1.7s1.7.8 1.7 1.7-.8 1.7-1.7 1.7c-.9 0-1.7-.8-1.7-1.7z"/><circle class="st4" cx="353.7" cy="230.4" r="1.7"/><path class="st4" d="M344.4 230.4c0-.9.8-1.7 1.7-1.7s1.7.8 1.7 1.7-.8 1.7-1.7 1.7c-.9 0-1.7-.8-1.7-1.7zM336.9 230.4c0-.9.8-1.7 1.7-1.7s1.7.8 1.7 1.7-.8 1.7-1.7 1.7c-1 0-1.7-.8-1.7-1.7zM278.4 230.4c0-.9.8-1.7 1.7-1.7.9 0 1.7.8 1.7 1.7 0 .9-.8 1.7-1.7 1.7-1 0-1.7-.8-1.7-1.7zM270.7 230.4c0-.9.8-1.7 1.7-1.7.9 0 1.7.8 1.7 1.7 0 .9-.8 1.7-1.7 1.7-1 0-1.7-.8-1.7-1.7z"/><circle class="st4" cx="331" cy="230.4" r="1.7"/><circle class="st4" cx="294" cy="230.4" r="1.7"/><path class="st0" d="M321.8 230.4c0-.9.8-1.7 1.7-1.7s1.7.8 1.7 1.7-.8 1.7-1.7 1.7c-1 0-1.7-.8-1.7-1.7zM314.2 230.4c0-.9.8-1.7 1.7-1.7.9 0 1.7.8 1.7 1.7 0 .9-.8 1.7-1.7 1.7-.9 0-1.7-.8-1.7-1.7zM298.9 230.4c0-.9.8-1.7 1.7-1.7.9 0 1.7.8 1.7 1.7 0 .9-.8 1.7-1.7 1.7-.9 0-1.7-.8-1.7-1.7zM264.4 230.4c0-.9.8-1.7 1.7-1.7.9 0 1.7.8 1.7 1.7 0 .9-.8 1.7-1.7 1.7-.9 0-1.7-.8-1.7-1.7z"/><path class="st6" d="M306.7 230.4c0-.9.8-1.7 1.7-1.7.9 0 1.7.8 1.7 1.7 0 .9-.8 1.7-1.7 1.7-1 0-1.7-.8-1.7-1.7zM285.1 230.4c0-.9.8-1.7 1.7-1.7.9 0 1.7.8 1.7 1.7 0 .9-.8 1.7-1.7 1.7-1 0-1.7-.8-1.7-1.7z"/><path class="st4" d="M267.8 237.7c0 .9-.8 1.7-1.7 1.7-.9 0-1.7-.8-1.7-1.7 0-.9.8-1.7 1.7-1.7 1 0 1.7.8 1.7 1.7zM275.4 237.7c0 .9-.8 1.7-1.7 1.7-.9 0-1.7-.8-1.7-1.7 0-.9.8-1.7 1.7-1.7.9 0 1.7.8 1.7 1.7zM282.9 237.7c0 .9-.8 1.7-1.7 1.7-.9 0-1.7-.8-1.7-1.7 0-.9.8-1.7 1.7-1.7 1 0 1.7.8 1.7 1.7zM290.5 237.7c0 .9-.8 1.7-1.7 1.7-.9 0-1.7-.8-1.7-1.7 0-.9.8-1.7 1.7-1.7.9 0 1.7.8 1.7 1.7zM349 237.7c0 .9-.8 1.7-1.7 1.7-.9 0-1.7-.8-1.7-1.7 0-.9.8-1.7 1.7-1.7.9 0 1.7.8 1.7 1.7zM356.7 237.7c0 .9-.8 1.7-1.7 1.7-.9 0-1.7-.8-1.7-1.7 0-.9.8-1.7 1.7-1.7.9 0 1.7.8 1.7 1.7zM298 237.7c0 .9-.8 1.7-1.7 1.7-.9 0-1.7-.8-1.7-1.7 0-.9.8-1.7 1.7-1.7 1 0 1.7.8 1.7 1.7zM335.1 237.7c0 .9-.8 1.7-1.7 1.7s-1.7-.8-1.7-1.7.8-1.7 1.7-1.7c.9 0 1.7.8 1.7 1.7z"/><path class="st0" d="M305.6 237.7c0 .9-.8 1.7-1.7 1.7-.9 0-1.7-.8-1.7-1.7 0-.9.8-1.7 1.7-1.7.9 0 1.7.8 1.7 1.7zM313.1 237.7c0 .9-.8 1.7-1.7 1.7-.9 0-1.7-.8-1.7-1.7 0-.9.8-1.7 1.7-1.7 1 0 1.7.8 1.7 1.7zM328.4 237.7c0 .9-.8 1.7-1.7 1.7s-1.7-.8-1.7-1.7.8-1.7 1.7-1.7c1 0 1.7.8 1.7 1.7zM362.9 237.7c0 .9-.8 1.7-1.7 1.7s-1.7-.8-1.7-1.7.8-1.7 1.7-1.7c1 0 1.7.8 1.7 1.7z"/><path class="st6" d="M320.7 237.7c0 .9-.8 1.7-1.7 1.7-.9 0-1.7-.8-1.7-1.7 0-.9.8-1.7 1.7-1.7.9 0 1.7.8 1.7 1.7zM342.2 237.7c0 .9-.8 1.7-1.7 1.7-.9 0-1.7-.8-1.7-1.7 0-.9.8-1.7 1.7-1.7 1 0 1.7.8 1.7 1.7z"/><path class="st4" d="M226.6 219.7h29.8v4.6h-29.8zM226.6 227.6h29.8v4.6h-29.8zM226.6 235.8h29.8v4.6h-29.8z"/><path class="st5" d="M219.9 258.4h151.5V296H219.9z"/><path class="st4" d="M226.6 266.1h29.8v4.6h-29.8zM226.6 274h29.8v4.6h-29.8zM226.6 282.2h29.8v4.6h-29.8zM267.2 268.6c0 .9-.8 1.7-1.7 1.7-.9 0-1.7-.8-1.7-1.7 0-.9.8-1.7 1.7-1.7 1 0 1.7.7 1.7 1.7zM274.8 268.6c0 .9-.8 1.7-1.7 1.7-.9 0-1.7-.8-1.7-1.7 0-.9.8-1.7 1.7-1.7 1 0 1.7.7 1.7 1.7zM282.4 268.6c0 .9-.8 1.7-1.7 1.7-.9 0-1.7-.8-1.7-1.7 0-.9.8-1.7 1.7-1.7.9 0 1.7.7 1.7 1.7zM289.9 268.6c0 .9-.8 1.7-1.7 1.7-.9 0-1.7-.8-1.7-1.7 0-.9.8-1.7 1.7-1.7 1 0 1.7.7 1.7 1.7zM348.4 268.6c0 .9-.8 1.7-1.7 1.7-.9 0-1.7-.8-1.7-1.7 0-.9.8-1.7 1.7-1.7 1 0 1.7.7 1.7 1.7zM356.1 268.6c0 .9-.8 1.7-1.7 1.7-.9 0-1.7-.8-1.7-1.7 0-.9.8-1.7 1.7-1.7 1 0 1.7.7 1.7 1.7zM297.5 268.6c0 .9-.8 1.7-1.7 1.7-.9 0-1.7-.8-1.7-1.7 0-.9.8-1.7 1.7-1.7.9 0 1.7.7 1.7 1.7zM334.6 268.6c0 .9-.8 1.7-1.7 1.7s-1.7-.8-1.7-1.7.8-1.7 1.7-1.7c.9 0 1.6.7 1.7 1.7z"/><path class="st0" d="M305 268.6c0 .9-.8 1.7-1.7 1.7-.9 0-1.7-.8-1.7-1.7 0-.9.8-1.7 1.7-1.7 1 0 1.7.7 1.7 1.7zM312.6 268.6c0 .9-.8 1.7-1.7 1.7-.9 0-1.7-.8-1.7-1.7 0-.9.8-1.7 1.7-1.7.9 0 1.7.7 1.7 1.7zM327.9 268.6c0 .9-.8 1.7-1.7 1.7-.9 0-1.7-.8-1.7-1.7 0-.9.8-1.7 1.7-1.7.9 0 1.7.7 1.7 1.7zM362.4 268.6c0 .9-.8 1.7-1.7 1.7-.9 0-1.7-.8-1.7-1.7 0-.9.8-1.7 1.7-1.7.9 0 1.7.7 1.7 1.7z"/><path class="st6" d="M320.1 268.6c0 .9-.8 1.7-1.7 1.7-.9 0-1.7-.8-1.7-1.7 0-.9.8-1.7 1.7-1.7 1 0 1.7.7 1.7 1.7zM341.7 268.6c0 .9-.8 1.7-1.7 1.7s-1.7-.8-1.7-1.7.8-1.7 1.7-1.7c1-.1 1.7.7 1.7 1.7z"/><path class="st4" d="M359 276.8c0-.9.8-1.7 1.7-1.7.9 0 1.7.8 1.7 1.7 0 .9-.8 1.7-1.7 1.7-1 0-1.7-.8-1.7-1.7zM351.4 276.8c0-.9.8-1.7 1.7-1.7.9 0 1.7.8 1.7 1.7 0 .9-.8 1.7-1.7 1.7-.9 0-1.7-.8-1.7-1.7zM343.9 276.8c0-.9.8-1.7 1.7-1.7.9 0 1.7.8 1.7 1.7 0 .9-.8 1.7-1.7 1.7-1 0-1.7-.8-1.7-1.7zM336.3 276.8c0-.9.8-1.7 1.7-1.7.9 0 1.7.8 1.7 1.7 0 .9-.8 1.7-1.7 1.7-.9 0-1.7-.8-1.7-1.7zM277.8 276.8c0-.9.8-1.7 1.7-1.7.9 0 1.7.8 1.7 1.7 0 .9-.8 1.7-1.7 1.7-.9 0-1.7-.8-1.7-1.7zM270.1 276.8c0-.9.8-1.7 1.7-1.7.9 0 1.7.8 1.7 1.7 0 .9-.8 1.7-1.7 1.7-.9 0-1.7-.8-1.7-1.7zM328.8 276.8c0-.9.8-1.7 1.7-1.7.9 0 1.7.8 1.7 1.7 0 .9-.8 1.7-1.7 1.7-1 0-1.7-.8-1.7-1.7zM291.7 276.8c0-.9.8-1.7 1.7-1.7.9 0 1.7.8 1.7 1.7 0 .9-.8 1.7-1.7 1.7-.9 0-1.7-.8-1.7-1.7z"/><path class="st0" d="M321.2 276.8c0-.9.8-1.7 1.7-1.7.9 0 1.7.8 1.7 1.7 0 .9-.8 1.7-1.7 1.7-.9 0-1.7-.8-1.7-1.7zM313.7 276.8c0-.9.8-1.7 1.7-1.7.9 0 1.7.8 1.7 1.7 0 .9-.8 1.7-1.7 1.7-1 0-1.7-.8-1.7-1.7zM298.4 276.8c0-.9.8-1.7 1.7-1.7.9 0 1.7.8 1.7 1.7 0 .9-.8 1.7-1.7 1.7-1 0-1.7-.8-1.7-1.7zM263.9 276.8c0-.9.8-1.7 1.7-1.7.9 0 1.7.8 1.7 1.7 0 .9-.8 1.7-1.7 1.7-1 0-1.7-.8-1.7-1.7z"/><path class="st6" d="M306.1 276.8c0-.9.8-1.7 1.7-1.7.9 0 1.7.8 1.7 1.7 0 .9-.8 1.7-1.7 1.7-.9 0-1.7-.8-1.7-1.7zM284.5 276.8c0-.9.8-1.7 1.7-1.7.9 0 1.7.8 1.7 1.7 0 .9-.8 1.7-1.7 1.7-.9 0-1.7-.8-1.7-1.7z"/><path class="st4" d="M267.2 284.1c0 .9-.8 1.7-1.7 1.7-.9 0-1.7-.8-1.7-1.7 0-.9.8-1.7 1.7-1.7 1 0 1.7.8 1.7 1.7zM274.8 284.1c0 .9-.8 1.7-1.7 1.7-.9 0-1.7-.8-1.7-1.7 0-.9.8-1.7 1.7-1.7 1 0 1.7.8 1.7 1.7zM282.4 284.1c0 .9-.8 1.7-1.7 1.7-.9 0-1.7-.8-1.7-1.7 0-.9.8-1.7 1.7-1.7.9 0 1.7.8 1.7 1.7zM289.9 284.1c0 .9-.8 1.7-1.7 1.7-.9 0-1.7-.8-1.7-1.7 0-.9.8-1.7 1.7-1.7 1 0 1.7.8 1.7 1.7zM348.4 284.1c0 .9-.8 1.7-1.7 1.7-.9 0-1.7-.8-1.7-1.7 0-.9.8-1.7 1.7-1.7 1 0 1.7.8 1.7 1.7zM356.1 284.1c0 .9-.8 1.7-1.7 1.7-.9 0-1.7-.8-1.7-1.7 0-.9.8-1.7 1.7-1.7 1 0 1.7.8 1.7 1.7zM297.5 284.1c0 .9-.8 1.7-1.7 1.7-.9 0-1.7-.8-1.7-1.7 0-.9.8-1.7 1.7-1.7.9 0 1.7.8 1.7 1.7zM334.6 284.1c0 .9-.8 1.7-1.7 1.7s-1.7-.8-1.7-1.7.8-1.7 1.7-1.7c.9 0 1.6.8 1.7 1.7z"/><path class="st0" d="M305 284.1c0 .9-.8 1.7-1.7 1.7-.9 0-1.7-.8-1.7-1.7 0-.9.8-1.7 1.7-1.7 1 0 1.7.8 1.7 1.7zM312.6 284.1c0 .9-.8 1.7-1.7 1.7-.9 0-1.7-.8-1.7-1.7 0-.9.8-1.7 1.7-1.7.9 0 1.7.8 1.7 1.7zM327.9 284.1c0 .9-.8 1.7-1.7 1.7-.9 0-1.7-.8-1.7-1.7 0-.9.8-1.7 1.7-1.7.9 0 1.7.8 1.7 1.7zM362.4 284.1c0 .9-.8 1.7-1.7 1.7-.9 0-1.7-.8-1.7-1.7 0-.9.8-1.7 1.7-1.7.9 0 1.7.8 1.7 1.7z"/><path class="st6" d="M320.1 284.1c0 .9-.8 1.7-1.7 1.7-.9 0-1.7-.8-1.7-1.7 0-.9.8-1.7 1.7-1.7 1 0 1.7.8 1.7 1.7zM341.7 284.1c0 .9-.8 1.7-1.7 1.7s-1.7-.8-1.7-1.7.8-1.7 1.7-1.7c1 0 1.7.8 1.7 1.7z"/><path class="st4" d="m394.1 249.2-22.8.1v-37.6l22.8-.1zM394.1 295.9l-22.8.1v-37.6l22.8-.1zM392.7 342.9l-22.8.1v-37.6l22.8-.1z"/><path class="st5" d="M219.6 305.4h151.5V343H219.6z"/><path class="st4" d="M226.3 313.1h29.8v4.6h-29.8zM226.3 321h29.8v4.6h-29.8zM267.9 315.9c0 .9-.8 1.7-1.7 1.7-.9 0-1.7-.8-1.7-1.7 0-.9.8-1.7 1.7-1.7.9 0 1.7.8 1.7 1.7zM275.4 315.9c0 .9-.8 1.7-1.7 1.7-.9 0-1.7-.8-1.7-1.7 0-.9.8-1.7 1.7-1.7 1 0 1.7.8 1.7 1.7zM283 315.9c0 .9-.8 1.7-1.7 1.7-.9 0-1.7-.8-1.7-1.7 0-.9.8-1.7 1.7-1.7.9 0 1.7.8 1.7 1.7zM290.5 315.9c0 .9-.8 1.7-1.7 1.7-.9 0-1.7-.8-1.7-1.7 0-.9.8-1.7 1.7-1.7 1 0 1.7.8 1.7 1.7zM349 315.9c0 .9-.8 1.7-1.7 1.7-.9 0-1.7-.8-1.7-1.7 0-.9.8-1.7 1.7-1.7 1 0 1.7.8 1.7 1.7zM356.7 315.9c0 .9-.8 1.7-1.7 1.7-.9 0-1.7-.8-1.7-1.7 0-.9.8-1.7 1.7-1.7 1 0 1.7.8 1.7 1.7zM298.1 315.9c0 .9-.8 1.7-1.7 1.7-.9 0-1.7-.8-1.7-1.7 0-.9.8-1.7 1.7-1.7.9 0 1.7.8 1.7 1.7zM335.2 315.9c0 .9-.8 1.7-1.7 1.7-.9 0-1.7-.8-1.7-1.7 0-.9.8-1.7 1.7-1.7.9 0 1.7.8 1.7 1.7z"/><path class="st0" d="M305.6 315.9c0 .9-.8 1.7-1.7 1.7-.9 0-1.7-.8-1.7-1.7 0-.9.8-1.7 1.7-1.7 1 0 1.7.8 1.7 1.7zM313.2 315.9c0 .9-.8 1.7-1.7 1.7s-1.7-.8-1.7-1.7.8-1.7 1.7-1.7c1 0 1.7.8 1.7 1.7zM328.5 315.9c0 .9-.8 1.7-1.7 1.7-.9 0-1.7-.8-1.7-1.7 0-.9.8-1.7 1.7-1.7.9 0 1.7.8 1.7 1.7zM363 315.9c0 .9-.8 1.7-1.7 1.7-.9 0-1.7-.8-1.7-1.7 0-.9.8-1.7 1.7-1.7.9 0 1.7.8 1.7 1.7z"/><path class="st6" d="M320.7 315.9c0 .9-.8 1.7-1.7 1.7s-1.7-.8-1.7-1.7.8-1.7 1.7-1.7c1 0 1.7.8 1.7 1.7zM342.4 315.9c0 .9-.8 1.7-1.7 1.7-.9 0-1.7-.8-1.7-1.7 0-.9.8-1.7 1.7-1.7.9 0 1.7.8 1.7 1.7z"/><path class="st4" d="M359.6 324.2c0-.9.8-1.7 1.7-1.7.9 0 1.7.8 1.7 1.7 0 .9-.8 1.7-1.7 1.7-1 0-1.7-.8-1.7-1.7zM352 324.2c0-.9.8-1.7 1.7-1.7.9 0 1.7.8 1.7 1.7 0 .9-.8 1.7-1.7 1.7-.9 0-1.7-.8-1.7-1.7zM344.5 324.2c0-.9.8-1.7 1.7-1.7.9 0 1.7.8 1.7 1.7 0 .9-.8 1.7-1.7 1.7-1 0-1.7-.8-1.7-1.7zM336.9 324.2c0-.9.8-1.7 1.7-1.7.9 0 1.7.8 1.7 1.7 0 .9-.8 1.7-1.7 1.7-.9 0-1.7-.8-1.7-1.7zM278.4 324.2c0-.9.8-1.7 1.7-1.7.9 0 1.7.8 1.7 1.7 0 .9-.8 1.7-1.7 1.7-.9 0-1.7-.8-1.7-1.7zM270.7 324.2c0-.9.8-1.7 1.7-1.7.9 0 1.7.8 1.7 1.7 0 .9-.8 1.7-1.7 1.7-.9 0-1.7-.8-1.7-1.7zM329.4 324.2c0-.9.8-1.7 1.7-1.7.9 0 1.7.8 1.7 1.7 0 .9-.8 1.7-1.7 1.7-1 0-1.7-.8-1.7-1.7zM292.3 324.2c0-.9.8-1.7 1.7-1.7.9 0 1.7.8 1.7 1.7 0 .9-.8 1.7-1.7 1.7-.9 0-1.7-.8-1.7-1.7z"/><path class="st0" d="M321.8 324.2c0-.9.8-1.7 1.7-1.7s1.7.8 1.7 1.7-.8 1.7-1.7 1.7c-.9 0-1.7-.8-1.7-1.7zM314.2 324.2c0-.9.8-1.7 1.7-1.7s1.7.8 1.7 1.7-.8 1.7-1.7 1.7c-.9 0-1.7-.8-1.7-1.7zM299 324.2c0-.9.8-1.7 1.7-1.7.9 0 1.7.8 1.7 1.7 0 .9-.8 1.7-1.7 1.7-1 0-1.7-.8-1.7-1.7zM264.5 324.2c0-.9.8-1.7 1.7-1.7.9 0 1.7.8 1.7 1.7 0 .9-.8 1.7-1.7 1.7-1 0-1.7-.8-1.7-1.7z"/><path class="st6" d="M306.7 324.2c0-.9.8-1.7 1.7-1.7s1.7.8 1.7 1.7-.8 1.7-1.7 1.7c-.9 0-1.7-.8-1.7-1.7zM285.1 324.2c0-.9.8-1.7 1.7-1.7.9 0 1.7.8 1.7 1.7 0 .9-.8 1.7-1.7 1.7-.9 0-1.7-.8-1.7-1.7z"/><path class="st4" d="M267.9 331.5c0 .9-.8 1.7-1.7 1.7-.9 0-1.7-.8-1.7-1.7 0-.9.8-1.7 1.7-1.7.9 0 1.7.7 1.7 1.7zM275.4 331.5c0 .9-.8 1.7-1.7 1.7-.9 0-1.7-.8-1.7-1.7 0-.9.8-1.7 1.7-1.7 1 0 1.7.7 1.7 1.7zM283 331.5c0 .9-.8 1.7-1.7 1.7-.9 0-1.7-.8-1.7-1.7 0-.9.8-1.7 1.7-1.7.9 0 1.7.7 1.7 1.7zM290.5 331.5c0 .9-.8 1.7-1.7 1.7-.9 0-1.7-.8-1.7-1.7 0-.9.8-1.7 1.7-1.7 1 0 1.7.7 1.7 1.7zM349 331.5c0 .9-.8 1.7-1.7 1.7-.9 0-1.7-.8-1.7-1.7 0-.9.8-1.7 1.7-1.7 1 0 1.7.7 1.7 1.7zM356.7 331.5c0 .9-.8 1.7-1.7 1.7-.9 0-1.7-.8-1.7-1.7 0-.9.8-1.7 1.7-1.7 1 0 1.7.7 1.7 1.7zM298.1 331.5c0 .9-.8 1.7-1.7 1.7-.9 0-1.7-.8-1.7-1.7 0-.9.8-1.7 1.7-1.7.9 0 1.7.7 1.7 1.7zM335.2 331.5c0 .9-.8 1.7-1.7 1.7-.9 0-1.7-.8-1.7-1.7 0-.9.8-1.7 1.7-1.7.9 0 1.7.7 1.7 1.7z"/><path class="st0" d="M305.6 331.5c0 .9-.8 1.7-1.7 1.7-.9 0-1.7-.8-1.7-1.7 0-.9.8-1.7 1.7-1.7 1 0 1.7.7 1.7 1.7zM313.2 331.5c0 .9-.8 1.7-1.7 1.7s-1.7-.8-1.7-1.7.8-1.7 1.7-1.7c1 0 1.7.7 1.7 1.7zM328.5 331.5c0 .9-.8 1.7-1.7 1.7-.9 0-1.7-.8-1.7-1.7 0-.9.8-1.7 1.7-1.7.9 0 1.7.7 1.7 1.7zM363 331.5c0 .9-.8 1.7-1.7 1.7-.9 0-1.7-.8-1.7-1.7 0-.9.8-1.7 1.7-1.7.9 0 1.7.7 1.7 1.7z"/><path class="st6" d="M320.7 331.5c0 .9-.8 1.7-1.7 1.7s-1.7-.8-1.7-1.7.8-1.7 1.7-1.7c1 0 1.7.7 1.7 1.7zM342.4 331.5c0 .9-.8 1.7-1.7 1.7-.9 0-1.7-.8-1.7-1.7 0-.9.8-1.7 1.7-1.7.9 0 1.7.7 1.7 1.7z"/><path class="st2" d="M399.4 0h112v343h-112z"/><path class="st1" d="M599.7 343h-88.3l-.2-343h88.5z"/><path class="st4" d="M405.6 54.9h95v26.7h-95z"/><path class="st5" d="M408.3 58.3h5.3v20.5h-5.3z"/><path class="st7" d="M419.8 62.6c0 .9-.8 1.7-1.7 1.7s-1.7-.8-1.7-1.7c0-.9.8-1.7 1.7-1.7s1.7.7 1.7 1.7zM419.8 69.8c0 .9-.8 1.7-1.7 1.7s-1.7-.8-1.7-1.7c0-.9.8-1.7 1.7-1.7s1.7.8 1.7 1.7z"/><path class="st5" d="M426.6 60.9h5.2v15.7h-5.2zM434.1 60.9h5.2v15.7h-5.2zM441.7 60.9h5.2v15.7h-5.2zM449.2 60.9h5.2v15.7h-5.2zM456.8 60.9h5.2v15.7h-5.2zM464.3 60.9h5.2v15.7h-5.2zM471.9 60.9h5.2v15.7h-5.2zM479.4 60.9h5.2v15.7h-5.2zM487 60.9h5.2v15.7H487zM494.5 60.9h5.2v15.7h-5.2z"/><path class="st4" d="M405.6 93.3h95V120h-95z"/><path class="st5" d="M408.3 96.7h5.3v20.5h-5.3z"/><path class="st7" d="M419.8 101c0 .9-.8 1.7-1.7 1.7s-1.7-.8-1.7-1.7c0-.9.8-1.7 1.7-1.7s1.7.7 1.7 1.7zM419.8 108.2c0 .9-.7 1.7-1.6 1.7s-1.7-.7-1.7-1.6.7-1.7 1.6-1.7c1 0 1.7.7 1.7 1.6z"/><path class="st5" d="M426.6 99.3h5.2V115h-5.2zM434.1 99.3h5.2V115h-5.2zM441.7 99.3h5.2V115h-5.2zM449.2 99.3h5.2V115h-5.2zM456.8 99.3h5.2V115h-5.2zM464.3 99.3h5.2V115h-5.2zM471.9 99.3h5.2V115h-5.2zM479.4 99.3h5.2V115h-5.2zM487 99.3h5.2V115H487zM494.5 99.3h5.2V115h-5.2z"/><path class="st4" d="M405.6 132h95v26.7h-95z"/><path class="st5" d="M408.3 135.4h5.3v20.5h-5.3z"/><path class="st7" d="M419.8 139.7c0 .9-.8 1.7-1.7 1.7s-1.7-.8-1.7-1.7c0-.9.8-1.7 1.7-1.7s1.7.8 1.7 1.7zM419.8 146.9c0 .9-.8 1.7-1.7 1.7s-1.7-.8-1.7-1.7c0-.9.8-1.7 1.7-1.7s1.7.8 1.7 1.7z"/><path class="st5" d="M426.6 138h5.2v15.7h-5.2zM434.1 138h5.2v15.7h-5.2zM441.7 138h5.2v15.7h-5.2zM449.2 138h5.2v15.7h-5.2zM456.8 138h5.2v15.7h-5.2zM464.3 138h5.2v15.7h-5.2zM471.9 138h5.2v15.7h-5.2zM479.4 138h5.2v15.7h-5.2zM487 138h5.2v15.7H487zM494.5 138h5.2v15.7h-5.2z"/><path class="st4" d="M405.6 173.8h95v26.7h-95z"/><path class="st5" d="M408.3 177.2h5.3v20.5h-5.3z"/><path class="st7" d="M419.8 181.6c0 .9-.8 1.7-1.7 1.7s-1.7-.8-1.7-1.7c0-.9.8-1.7 1.7-1.7s1.7.7 1.7 1.7zM419.8 188.8c0 .9-.8 1.7-1.7 1.7s-1.7-.8-1.7-1.7c0-.9.8-1.7 1.7-1.7s1.7.7 1.7 1.7z"/><path class="st5" d="M426.6 179.8h5.2v15.7h-5.2zM434.1 179.8h5.2v15.7h-5.2zM441.7 179.8h5.2v15.7h-5.2zM449.2 179.8h5.2v15.7h-5.2zM456.8 179.8h5.2v15.7h-5.2zM464.3 179.8h5.2v15.7h-5.2zM471.9 179.8h5.2v15.7h-5.2zM479.4 179.8h5.2v15.7h-5.2zM487 179.8h5.2v15.7H487zM494.5 179.8h5.2v15.7h-5.2z"/><path class="st4" d="M405.6 216.1h95v26.7h-95z"/><path class="st5" d="M408.3 219.5h5.3V240h-5.3z"/><path class="st7" d="M419.8 223.8c0 .9-.8 1.7-1.7 1.7s-1.7-.8-1.7-1.7.8-1.7 1.7-1.7 1.7.7 1.7 1.7zM419.8 231c0 .9-.8 1.7-1.7 1.7s-1.7-.8-1.7-1.7.8-1.7 1.7-1.7 1.7.8 1.7 1.7z"/><path class="st5" d="M426.6 222.1h5.2v15.7h-5.2zM434.1 222.1h5.2v15.7h-5.2zM441.7 222.1h5.2v15.7h-5.2zM449.2 222.1h5.2v15.7h-5.2zM456.8 222.1h5.2v15.7h-5.2zM464.3 222.1h5.2v15.7h-5.2zM471.9 222.1h5.2v15.7h-5.2zM479.4 222.1h5.2v15.7h-5.2zM487 222.1h5.2v15.7H487zM494.5 222.1h5.2v15.7h-5.2z"/><path class="st4" d="M405.6 300.2h95v26.7h-95z"/><path class="st5" d="M408.3 303.5h5.3V324h-5.3z"/><path class="st7" d="M419.8 307.8c0 .9-.8 1.7-1.7 1.7s-1.7-.8-1.7-1.7.8-1.7 1.7-1.7 1.7.8 1.7 1.7zM419.8 315.1c0 .9-.8 1.7-1.7 1.7s-1.7-.8-1.7-1.7.8-1.7 1.7-1.7 1.7.7 1.7 1.7z"/><path class="st5" d="M426.6 306.1h5.2v15.7h-5.2zM434.1 306.1h5.2v15.7h-5.2zM441.7 306.1h5.2v15.7h-5.2zM449.2 306.1h5.2v15.7h-5.2zM456.8 306.1h5.2v15.7h-5.2zM464.3 306.1h5.2v15.7h-5.2zM471.9 306.1h5.2v15.7h-5.2zM479.4 306.1h5.2v15.7h-5.2zM487 306.1h5.2v15.7H487zM494.5 306.1h5.2v15.7h-5.2z"/><path class="st4" d="M405.6 258.2h95v26.7h-95z"/><path class="st5" d="M408.3 261.5h5.3V282h-5.3z"/><path class="st7" d="M419.8 265.8c0 .9-.8 1.7-1.7 1.7s-1.7-.8-1.7-1.7.8-1.7 1.7-1.7 1.7.8 1.7 1.7zM419.8 273.1c0 .9-.8 1.7-1.7 1.7s-1.7-.8-1.7-1.7.8-1.7 1.7-1.7 1.7.7 1.7 1.7z"/><path class="st5" d="M426.6 264.1h5.2v15.7h-5.2zM434.1 264.1h5.2v15.7h-5.2zM441.7 264.1h5.2v15.7h-5.2zM449.2 264.1h5.2v15.7h-5.2zM456.8 264.1h5.2v15.7h-5.2zM464.3 264.1h5.2v15.7h-5.2zM471.9 264.1h5.2v15.7h-5.2zM479.4 264.1h5.2v15.7h-5.2zM487 264.1h5.2v15.7H487zM494.5 264.1h5.2v15.7h-5.2z"/><path class="st4" d="M464.3 54.9c-.1-.3-.1-.5-.1-.8 0-.5-.1-1.3-.1-2.4s0-2.3-.1-3.8c0-1.6-.3-3.3-.6-4.9-.5-1.9-1.4-3.7-2.5-5.3-1.3-1.9-3.1-3.3-5.2-4.2-2.4-.9-4.9-1.4-7.4-1.5l-8.2-.7c-11.2-1-21.4-1.6-28.7-1.7-3.7-.1-6.7 0-8.7 0l-2.4-.1h-.8c.3-.1.5-.1.8-.1l2.4-.1c2.1-.1 5-.2 8.7-.2 7.4 0 17.6.6 28.8 1.6l8.2.7c2.6.1 5.1.7 7.5 1.6 2.2.9 4.1 2.5 5.4 4.4 1.2 1.7 2 3.6 2.5 5.5.4 1.6.6 3.3.6 5V54.1c0 .3 0 .5-.1.8z"/><path class="st4" d="M435.5 54.9c0-.3-.1-.5-.1-.8v-2.2c0-.9 0-2.2-.1-3.5-.1-1.5-.5-3-1.2-4.4-1-1.5-2.5-2.7-4.3-3.3-2-.8-4.2-1-6.3-.6-1.1.2-2.2.6-3.2 1.1-1 .5-1.9 1.4-2.5 2.4-.6 1-.6 2.3 0 3.3.6 1.1 1.6 1.9 2.9 2.1 1.2.3 2.5-.1 3.3-1 .9-.8 1.4-2 1.5-3.2.1-1.2-.3-2.3-1-3.2-.6-.9-1.5-1.7-2.5-2.2-1-.5-2.1-.7-3.1-.8-1.1-.2-2.1-.3-3.1-.4-2-.2-3.9-.4-5.6-.4-3.5-.1-6.3-.1-8.2-.1h-3c.3-.1.5-.1.8-.1l2.2-.1c1.9-.1 4.8-.2 8.2-.1 1.7.1 3.6.2 5.7.4 1 .1 2.1.2 3.1.4.5.1 1.1.2 1.6.3.6.1 1.1.3 1.7.6 1.1.6 2 1.4 2.7 2.4.8 1 1.2 2.3 1.1 3.6-.1 1.4-.7 2.6-1.7 3.6s-2.5 1.4-3.9 1.1c-1.4-.3-2.6-1.2-3.2-2.4-.7-1.2-.7-2.7 0-3.9.6-1.1 1.6-2 2.8-2.6 1.1-.6 2.2-1 3.4-1.2 2.2-.4 4.5-.1 6.5.7 1.8.6 3.4 1.9 4.5 3.6.7 1.4 1.1 3 1.1 4.6.1 1.4 0 2.6 0 3.5s-.1 1.7-.1 2.2c.1.1.1.3 0 .6zM472.1 54.9c-.1-.3-.2-.6-.2-.9-.1-.6-.3-1.4-.5-2.5-.6-3.1-1.6-6.1-2.8-9.1-1.7-4.4-4.6-8.2-8.3-11.1-2.2-1.6-4.8-2.6-7.6-2.9-3-.3-5.9-.5-8.9-.5-12.3-.2-23.4-.2-31.5-.5-4-.1-7.3-.3-9.5-.5l-2.6-.2c-.3 0-.6-.1-.9-.1h.9l2.6.1c2.2.1 5.5.2 9.5.3 8 .2 19.2.1 31.5.3 3 0 6 .2 9 .5 2.8.3 5.5 1.3 7.8 3 2 1.6 3.8 3.4 5.2 5.5 1.2 1.8 2.3 3.8 3.1 5.8 1.2 3 2.1 6 2.6 9.2.2 1.1.3 2 .4 2.6.2.4.2.7.2 1zM406.9 4.3h92.4v13.4h-92.4z"/><path class="st5" d="M427.2 11h50.3v6.7h-50.3z"/><path class="st4" d="M537 282.4c0 .1-1 .2-2.8.7-2.5.7-4.9 1.9-7 3.4-1.5 1-2.8 2.2-3.9 3.6-.6.8-1.2 1.6-1.6 2.5-.4 1-.8 2-1 3-1 4.2-.7 9.1-.5 14.1s-.1 10.1-2.1 14.1c-.9 1.9-2.2 3.6-3.8 5-2.6 2.2-5.7 3.7-9 4.2-1.1.2-2.3.2-3.4.1-.7 0-1.4-.2-2.1-.3-.2 0-.5-.1-.7-.2 0-.1 1 .2 2.8.3 1.1 0 2.2-.1 3.3-.2 1.5-.3 2.9-.7 4.2-1.4 1.6-.7 3.1-1.7 4.5-2.9 1.5-1.4 2.7-3 3.6-4.9 1.9-3.9 2.2-8.8 2-13.9s-.5-10 .6-14.3c.3-1.1.6-2.1 1.1-3.1.5-.9 1-1.8 1.7-2.6 1.2-1.4 2.5-2.6 4.1-3.7 2.2-1.5 4.6-2.6 7.2-3.3.7-.2 1.4-.3 2.1-.4.1.1.4.1.7.2z"/><path class="st4" d="M494.4 328.5h7.6v9.2h-7.6z"/><path class="st5" d="M537 259h42.5v46.6H537z"/><circle class="st4" cx="558.2" cy="282.5" r="14"/><circle class="st5" cx="558.2" cy="282.5" r="7"/><circle class="st4" cx="542.7" cy="266.3" r="1.3"/><path class="st4" d="M574.2 266.3c0 .7-.6 1.3-1.3 1.3s-1.3-.6-1.3-1.3c0-.7.6-1.3 1.3-1.3.8 0 1.3.6 1.3 1.3zM574.5 300.7c0 .7-.6 1.3-1.3 1.3s-1.3-.6-1.3-1.3c0-.7.6-1.3 1.3-1.3.8 0 1.3.6 1.3 1.3zM544 301.2c0 .7-.6 1.3-1.3 1.3s-1.3-.6-1.3-1.3c0-.7.6-1.3 1.3-1.3.7 0 1.3.6 1.3 1.3zM579.5 259h3.4v46.6h-3.4z"/></g><g id="speech-bubble--inject-114"><path class="st4" d="m65.9 139.2-18.5-4.6h.1c-4.8 3-10.3 4.7-16 4.8-3.4 0-6.7-.5-9.9-1.4C10 134.2 1.7 124.2.2 112.1c-1.1-9 1.8-18.1 8-24.8 1.6-1.8 3.4-3.3 5.4-4.7 1-.6 2-1.3 3-1.8l1.6-.8.8-.4.8-.3c4.2-1.6 8.8-2.3 13.3-2 12.4.8 23.1 9 27.1 20.7 1.1 3.2 1.7 6.6 1.7 10 0 5.7-1.5 11.2-4.4 16.1v-.2c5.2 9.5 7.8 14.2 8.4 15.3-.6-1.1-3.3-5.7-8.6-14.9v-.2c2.9-4.8 4.3-10.3 4.3-15.9-.1-3.4-.6-6.7-1.7-9.9-1.2-3.5-3-6.7-5.4-9.6-8.4-10-22.2-13.5-34.4-8.8l-.8.3-.8.4-1.5.7c-1 .5-2 1.2-3 1.8-1.9 1.3-3.7 2.9-5.3 4.6-11.4 12.4-10.6 31.7 1.9 43.1 3.2 3 7.1 5.2 11.3 6.6 3.2 1 6.4 1.5 9.8 1.5 5.6-.1 11-1.7 15.8-4.6h.2l18.2 4.9z"/><path class="st6" d="m28.4 94.6 1 15.5c.1 1.3 1.1 2.3 2.4 2.4 1.3.1 2.5-.9 2.6-2.2l1.7-15.6c.1-1.1-.7-2.1-1.8-2.2h-.2l-3.8.1c-1 0-1.9.9-1.9 2zM35.9 121.2c-.7 2-2.8 3.1-4.8 2.4s-3.1-2.8-2.4-4.8 2.8-3.1 4.8-2.4c1.9.6 3 2.8 2.4 4.8z"/></g><g id="Device--inject-114"><path class="st4" d="M283 93.5c-.1 0-.9-1.1-2.4-2.9s-3.6-4.1-5.9-6.8-4.4-5.1-5.8-6.9c-.7-.9-1.2-1.7-1.6-2.2-.2-.3-.4-.6-.5-.9.1 0 .9 1.1 2.4 2.9s3.6 4.1 5.9 6.8 4.4 5.1 5.8 6.9c.7.9 1.2 1.7 1.6 2.2.2.3.4.6.5.9zM302.2 83c-.1.1-4.3-12-9.4-27s-9-27.1-8.9-27.1 4.3 12 9.4 27 9 27.1 8.9 27.1zM318.8 86.2c-.1-.1 1.9-6.7 4.6-14.9s4.9-14.8 5.1-14.7-1.9 6.7-4.6 14.9-5 14.7-5.1 14.7zM346.9 85.3c.1.1-2.5 2.1-5.5 4.6s-5.4 4.7-5.5 4.6c.4-.6.9-1.1 1.4-1.6.9-.9 2.2-2.1 3.8-3.4s3-2.4 4-3.1c.5-.4 1.1-.8 1.8-1.1zM331.8 45.1c.1 0 0 .8-.3 1.7s-.6 1.5-.8 1.5 0-.8.3-1.7.6-1.5.8-1.5zM262 68.6c-.1.1-.5-.3-.9-.8s-.6-1-.4-1.1.5.3.9.8.5 1.1.4 1.1zM369.1 100.6H243.3c-2.2 0-3.9 1.8-3.9 3.9v88.9c0 2.2 1.8 3.9 3.9 3.9h48.3s3.1 9.5-6.5 14.4h45.1s-10.8-3.7-8-14.4H369c2.2 0 3.9-1.8 3.9-3.9v-88.9c.2-2.2-1.6-3.9-3.8-3.9z"/><path class="st5" d="M307.9 187.9c.9 1 .7 2.5-.3 3.4-.9.8-2.2.8-3.1 0-.1-.1-.2-.1-.2-.2-.9-1-.7-2.5.3-3.4.9-.8 2.2-.8 3.1 0 .1.1.2.1.2.2z"/><path class="st7" d="M244.4 102.2H368c1.6 0 2.9 1.3 2.9 2.8v76H241.6v-76c0-1.5 1.3-2.8 2.8-2.8z"/><path class="st2" d="M244.6 102.2h123.9c1.4 0 2.5 1.1 2.5 2.4v4.1H241.6v-3.6c0-1.6 1.3-2.9 3-2.9z"/><path class="st1" d="M246.6 105.6c0 .5-.4.9-.9.9s-.9-.4-.9-.9.4-.9.9-.9.9.4.9.9zM249.3 105.6c0 .5-.4.9-.9.9s-.9-.4-.9-.9.4-.9.9-.9.9.4.9.9zM251.9 105.6c0 .5-.4.9-.9.9s-.9-.4-.9-.9.4-.9.9-.9.9.4.9.9z"/><path class="st5" d="M346.7 197.3s-17.9.1-40 .1-40 0-40-.1 17.9-.1 40-.1 40 0 40 .1z"/><path class="st6" d="M294 137.7c0 4-2.9 7.4-9.4 7.4-3 .1-6-.8-8.6-2.4l2.1-4c1.9 1.3 4.1 2 6.4 2 2.6 0 4.2-1.1 4.2-2.9s-1.1-2.9-5.2-2.9h-5.8l1.2-12.6h13.7v4.2h-9.4l-.4 4.3h1.8c6.8-.1 9.4 2.9 9.4 6.9zM296.1 133.6c0-7.4 4.1-11.6 9.6-11.6s9.6 4.2 9.6 11.6-4.1 11.6-9.6 11.6-9.6-4.3-9.6-11.6zm14 0c0-5.1-1.8-7.2-4.4-7.2s-4.4 2.1-4.4 7.2 1.8 7.2 4.4 7.2 4.4-2.2 4.4-7.2zM317.9 133.6c0-7.4 4.1-11.6 9.6-11.6s9.6 4.2 9.6 11.6-4.1 11.6-9.6 11.6-9.6-4.3-9.6-11.6zm14 0c0-5.1-1.8-7.2-4.4-7.2s-4.4 2.1-4.4 7.2 1.8 7.2 4.4 7.2 4.4-2.2 4.4-7.2z"/><path class="st4" d="M260.8 150.6h1v6.6h-1v-6.6zM269.4 150.6v6.6h-.8l-4-4.9v4.9h-1v-6.6h.8l4 5v-5h1zM272.7 151.4h-2.3v-.8h5.5v.8h-2.3v5.8h-.9v-5.8zM281.8 156.4v.8H277v-6.6h4.7v.8H278v2h3.3v.8H278v2.1l3.8.1zM287.8 157.3l-1.4-2h-2.1v2h-.9v-6.6h2.6c1.7 0 2.8.9 2.8 2.3 0 .9-.6 1.8-1.5 2.1l1.6 2.2h-1.1zm0-4.4c0-.9-.6-1.5-1.9-1.5h-1.7v3h1.6c1.3 0 1.9-.5 2-1.5zM295.9 150.6v6.6h-.8l-4-4.9v4.9h-.9v-6.6h.8l4 5v-5h.9zM302.2 155.6h-3.5l-.7 1.7h-1l3-6.6h.9l3 6.6h-1l-.7-1.7zm-.4-.8-1.4-3.2-1.4 3.2h2.8zM304.9 150.6h1v5.8h3.6v.8H305v-6.6zM312.4 156.6l.4-.7c.6.5 1.4.8 2.2.8 1.1 0 1.6-.4 1.6-1 0-1.6-4-.6-4-3.1 0-1 .8-1.9 2.5-1.9.8 0 1.5.2 2.1.6l-.2.7c-.5-.3-1.2-.5-1.8-.5-1.1 0-1.6.5-1.6 1.1 0 1.6 4 .6 4 3 0 1-.8 1.9-2.6 1.9-.9-.1-1.8-.4-2.6-.9zM323.8 156.4v.8H319v-6.6h4.7v.8H320v2h3.4v.8h-3.3v2.1l3.7.1zM329.7 157.3l-1.4-2h-2v2h-1v-6.6h2.6c1.7 0 2.8.9 2.8 2.3 0 .9-.6 1.8-1.5 2.1l1.6 2.2h-1.1zm0-4.4c0-.9-.6-1.5-1.9-1.5h-1.6v3h1.6c1.3 0 1.9-.5 1.9-1.5zM338 150.6l-2.9 6.6h-.9l-2.9-6.6h1l2.4 5.5 2.4-5.5h.9zM343.6 156.4v.8h-4.8v-6.6h4.7v.8h-3.7v2h3.3v.8h-3.3v2.1l3.8.1zM349.6 157.3l-1.4-2h-2v2h-1v-6.6h2.6c1.7 0 2.8.9 2.8 2.3 0 .9-.6 1.8-1.5 2.1l1.6 2.2h-1.1zm0-4.4c0-.9-.6-1.5-1.9-1.5h-1.6v3h1.6c1.2 0 1.9-.5 1.9-1.5zM295.4 167.9v1.3h-5.5v-7.1h5.4v1.3h-3.7v1.5h3.3v1.3h-3.3v1.6h3.8zM301.2 169.2l-1.4-2h-1.5v2h-1.6v-7.1h3.1c1.9 0 3.1 1 3.1 2.6 0 1-.5 1.9-1.5 2.2l1.6 2.3h-1.8zm-1.6-5.7h-1.3v2.5h1.3c1 0 1.5-.5 1.5-1.2s-.5-1.3-1.5-1.3zM308.6 169.2l-1.4-2h-1.5v2h-1.6v-7.1h3.1c1.9 0 3.1 1 3.1 2.6 0 1-.5 1.9-1.5 2.2l1.6 2.3h-1.8zm-1.5-5.7h-1.3v2.5h1.3c1 0 1.5-.5 1.5-1.2s-.5-1.3-1.5-1.3zM311.1 165.7c-.1-2.1 1.5-4 3.7-4.1 2.1-.1 4 1.5 4.1 3.7.1 2.1-1.5 4-3.7 4.1h-.2c-2 .1-3.7-1.4-3.9-3.4v-.3zm6 0c0-1.2-1-2.2-2.3-2.2-1.2 0-2.2 1-2.2 2.3 0 1.2 1 2.2 2.2 2.2 1.2 0 2.2-.9 2.2-2.1.1-.1.1-.2.1-.2zM324.5 169.2l-1.4-2h-1.5v2H320v-7.1h3.1c1.9 0 3.1 1 3.1 2.6 0 1-.5 1.9-1.5 2.2l1.6 2.3h-1.8zm-1.5-5.7h-1.3v2.5h1.3c1 0 1.5-.5 1.5-1.2s-.5-1.3-1.5-1.3z"/><path class="st6" d="M254.9 142.9c-.9 0-1.6-.5-2.1-1.2-.4-.7-.4-1.7 0-2.4l7-11.9c.4-.7 1.2-1.2 2.1-1.2.9 0 1.6.5 2.1 1.2l6.8 12c.4.7.4 1.7 0 2.4s-1.2 1.2-2.1 1.2l-13.8-.1zm7-16c-.6 0-1.2.3-1.5.8l-7 11.9c-.5.8-.2 1.8.6 2.3.3.1.5.2.8.2l13.8.1c.9 0 1.7-.7 1.7-1.7 0-.3-.1-.6-.2-.8l-6.8-12c-.2-.5-.8-.8-1.4-.8z"/><path class="st6" d="M260.9 139c0-.5.4-.9.9-.9h.1c.5 0 .9.3.9.8v.1c0 .5-.4.9-.9.9-.6 0-1-.3-1-.9 0 .1 0 0 0 0zm.1-7.1h1.7l-.3 5.4h-1.1l-.3-5.4zM343 142.9c-.9 0-1.6-.5-2.1-1.2-.4-.7-.4-1.7 0-2.4l7-11.9c.4-.7 1.2-1.2 2.1-1.2.9 0 1.6.5 2.1 1.2l6.8 12c.4.7.4 1.7 0 2.4s-1.2 1.2-2.1 1.2l-13.8-.1zm7-16c-.6 0-1.2.3-1.5.8l-7 11.9c-.5.8-.2 1.8.6 2.3.3.1.5.2.8.2l13.8.1c.9 0 1.7-.8 1.7-1.7 0-.3-.1-.6-.2-.8l-6.8-12c-.3-.5-.9-.8-1.4-.8z"/><path class="st6" d="M348.9 139c0-.5.4-.9.9-.9h.1c.5 0 .9.3.9.8v.1c0 .5-.4.9-.9.9-.6 0-1-.3-1-.9 0 .1 0 0 0 0zm.1-7.1h1.7l-.3 5.4h-1.1l-.3-5.4z"/></g><g id="Plant--inject-114"><path class="st6" d="m608.6 303.8 5.9 38.8h34.3l8-38.3z"/><path class="st3" d="M652 328.6c0 .1-8.8.2-19.6.2s-19.6-.1-19.6-.2 8.8-.2 19.6-.2 19.6.2 19.6.2zM652.1 326.7c0 .1-8.8.2-19.8.2s-19.8-.1-19.8-.2 8.8-.2 19.8-.2 19.8.1 19.8.2zM652.1 324.6c0 .1-8.8.2-19.8.2s-19.8-.1-19.8-.2 8.8-.2 19.8-.2 19.8.1 19.8.2zM618.5 340.4c-.5-1.6-.8-3.2-1-4.9-.4-1.6-.6-3.3-.7-5 .5 1.6.8 3.2 1 4.9.4 1.6.6 3.3.7 5zM620.8 339.9c-.2-1.6-.4-3.2-.4-4.8-.2-1.6-.2-3.2-.2-4.8.4 1.6.6 3.1.6 4.8.2 1.6.2 3.2 0 4.8zM625.1 339.9c-.8-3.2-1.2-6.5-1.2-9.9.5 3.4.9 6.6 1.2 9.9zM628.1 340.1c-.3-1.6-.5-3.3-.5-5-.1-1.7-.1-3.3.2-5 .2 1.7.3 3.3.2 5 .1 1.7.1 3.4.1 5zM633.3 339.9c-.3-1.6-.4-3.1-.4-4.7-.1-1.6-.1-3.2 0-4.7.3 1.6.4 3.1.4 4.7.2 1.6.2 3.2 0 4.7zM637.2 340.1c-.2-1.6-.2-3.2-.2-4.9-.1-1.6 0-3.3.2-4.9.2 1.6.2 3.2.2 4.9.1 1.7.1 3.3-.2 4.9zM640.8 339.6c.1-3.4.4-6.8 1-10.1-.1 3.4-.4 6.8-1 10.1zM645.5 339.1c0-1.5.2-2.9.6-4.3.2-1.4.7-2.8 1.3-4.2-.2 1.4-.5 2.9-.9 4.3-.3 1.4-.6 2.8-1 4.2z"/><path class="st5" d="M642.2 227.2v.2c0 .1-.1.3-.2.5-.2.5-.4 1.2-.7 2.1s-.7 2-1 3.3-.8 2.8-1.2 4.4-.9 3.5-1.3 5.4-.9 4-1.3 6.2c-.8 4.4-1.6 9.3-2.1 14.5s-.7 10.1-.8 14.6c0 2.2 0 4.4.1 6.4s.1 3.9.2 5.6.2 3.2.3 4.6.2 2.5.3 3.5.2 1.6.2 2.2v.8-.2c0-.1 0-.3-.1-.6-.1-.5-.2-1.2-.3-2.2s-.3-2.1-.4-3.5-.3-2.9-.4-4.6-.2-3.6-.3-5.6-.1-4.1-.1-6.4c0-4.5.3-9.5.8-14.6s1.3-10.1 2.1-14.5c.5-2.2.9-4.3 1.4-6.2s.9-3.8 1.4-5.4.9-3.1 1.3-4.4.8-2.4 1.1-3.3.5-1.6.7-2.1l.2-.5s.1-.1.1-.2z"/><path class="st5" d="M636 251.3c.9-2.8 2.8-5.2 5.3-6.7.8-.6 1.9-.8 2.8-.5 1.2.6 1.3 2.3.9 3.5-.6 2.2-2 4-3.9 5.3-1.7 1.2-3.8 1.8-5.8 1.5M633.9 267.5c.9-3.4 3.5-8.1 6.3-10.2.4-.4.9-.6 1.4-.8.5-.2 1.1 0 1.5.3.5.6.6 1.5.3 2.2-1.2 5-5 8.9-10 10.1M633.3 281.8c1.4-3.2 3.6-5.9 6.4-8 .6-.6 1.4-.8 2.2-.8 1.2.2 1.8 1.7 1.7 2.9-.2 2.5-2.2 4.5-4.1 6.1-1.8 1.3-3.8 2.3-5.9 3M633.7 292c1.3-2.4 3.2-4.5 5.4-6.2.5-.4 1-.6 1.6-.7.6-.1 1.2.1 1.6.6.5.8 0 1.9-.6 2.6-1.9 2.7-4.6 4.7-7.8 5.7M633.4 287.9c-2.3-2.9-4.9-5.5-7.8-7.9-.4-.4-1-.8-1.5-.6-.4.2-.7.6-.7 1s.1.9.3 1.3c1.9 4.2 5.6 7.3 10 8.4M633.6 274.5l-6.1-7.4c-.5-.7-1.2-1.4-2-1.9-1-.7-2.4-.5-3.1.5-.4.6-.5 1.3-.3 2 .2.9.6 1.7 1.2 2.4 1.2 1.8 2.7 3.4 4.5 4.7 1.8 1.2 3.4 2 5.6 1.7M634.5 259.5c-1.2-3.6-3.3-6.7-6.1-9.2-.4-.5-1-.8-1.6-.9-1.3-.1-2.5.8-2.8 2-.4 1.4-.2 2.8.6 4 .7 1.2 1.7 2.2 2.9 3 2.1 1.6 4.3 2.8 6.8 3.7M636.9 246c-.6-4.3-2.8-7.9-5.4-11.4-.5-.7-1.3-1.5-2.2-1.4-.6.1-1.1.5-1.3 1.1-.2.6-.3 1.1-.2 1.7.2 5.3 3.6 10 8.6 11.9M638.6 239.2c-.3-2.2-.4-4.4-.2-6.7.1-2.2.9-4.4 2.2-6.2.6-.8 1.3-1.4 2.2-1.8.9-.4 1.9-.2 2.7.4.7.6 1 1.5.9 2.4-.1.9-.3 1.8-.7 2.6-1.5 3.9-4.2 8.2-7.1 9.3"/><path class="st4" d="M612 244.3v4.6c0 1 0 2.1.1 3.3.1 2.4.3 5.3.7 8.5s.9 6.7 1.7 10.3 1.7 7 2.6 10.1 1.9 5.8 2.8 8.1c.4 1.1.8 2.1 1.2 3s.7 1.7 1 2.3.5 1.1.6 1.4c.1.2.1.3.2.5-.1-.2-.2-.3-.3-.5l-.7-1.4c-.3-.6-.7-1.4-1-2.3s-.8-1.9-1.3-3c-.9-2.2-1.9-5-2.9-8.1s-1.8-6.5-2.6-10.1-1.3-7.1-1.7-10.3-.6-6.1-.6-8.5c-.1-1.2 0-2.3-.1-3.3s0-1.8 0-2.5 0-1.2.1-1.6c.1-.1.2-.3.2-.5z"/><path class="st4" d="M613 262c0-2.1.8-4.1 2.2-5.7.4-.6 1.1-1 1.8-1 .9.1 1.4 1.3 1.4 2.2.1 1.6-.5 3.2-1.5 4.4-.9 1.2-2.2 2-3.7 2.3M615.1 273.6c-.1-2.5.7-6.3 2.1-8.3.2-.3.5-.6.8-.8.3-.2.8-.3 1.1-.1.5.3.7.9.7 1.4.3 3.6-1.5 7.1-4.6 9M617.7 283.4c.3-2.5 1.2-4.8 2.6-6.8.3-.5.8-.9 1.3-1 .9-.1 1.6.8 1.8 1.6.4 1.8-.5 3.6-1.5 5-1 1.3-2.1 2.4-3.4 3.3M620.2 290.3c.4-1.9 1.2-3.8 2.4-5.4.3-.4.6-.7 1-.9.4-.2.9-.2 1.2.1.5.4.4 1.3.2 1.9-.7 2.2-2.1 4.2-4 5.5M619.1 287.5c-2.2-1.5-4.6-2.7-7-3.7-.4-.2-.8-.2-1.2-.1-.3.2-.4.5-.3.9.1.3.3.6.5.8 2.2 2.4 5.4 3.8 8.6 3.6M616.4 278.4l-5.8-3.8c-.5-.4-1.1-.7-1.8-.9-.8-.3-1.7.1-2 1-.2.5-.1 1 .2 1.4.3.6.8 1 1.3 1.4 1.2 1 2.6 1.8 4 2.3 1.3.6 2.8.6 4.2 0M613.7 267.9c-1.6-2.2-3.7-3.9-6.2-5-.4-.2-.8-.3-1.3-.3-.9.2-1.5 1-1.5 1.9 0 1 .5 2 1.2 2.6.8.7 1.7 1.1 2.6 1.5 1.7.6 3.6.9 5.4 1M612.5 258.3c-1.3-2.8-3.6-4.8-6.2-6.6-.5-.5-1.2-.6-1.8-.5-.4.2-.6.6-.6 1s.1.8.2 1.2c1.3 3.6 4.6 6 8.5 6.2M612.2 253.2c-.7-1.4-1.2-2.9-1.6-4.5-.4-1.6-.3-3.2.2-4.7.2-.7.6-1.2 1.1-1.7.5-.4 1.3-.6 1.9-.3.6.3 1 .8 1.2 1.4.1.6.2 1.3.1 1.9-.2 3.1-1.2 6.6-2.9 7.9"/><path class="st5" d="M655.4 244c0 .2.1.4 0 .5 0 .4 0 .9.1 1.6s0 1.5 0 2.5 0 2.1-.1 3.3c-.1 2.4-.3 5.3-.6 8.5s-.9 6.7-1.7 10.3-1.7 7.1-2.6 10.1-1.9 5.8-2.8 8.1c-.4 1.1-.9 2.1-1.3 3s-.7 1.6-1 2.3-.5 1-.7 1.4c-.1.2-.2.3-.3.5 0-.2.1-.4.2-.5.2-.4.4-.8.6-1.4s.6-1.4 1-2.3.8-1.9 1.2-3c.9-2.3 1.8-5 2.8-8.1s1.8-6.5 2.6-10.1 1.3-7.1 1.7-10.3.6-6.1.7-8.5c.1-1.2.1-2.3.1-3.3v-4.1c0-.2.1-.4.1-.5z"/><path class="st5" d="M654.4 261.6c0-2.1-.8-4.1-2.2-5.7-.4-.6-1.1-1-1.8-1-.9.1-1.4 1.3-1.4 2.2 0 1.6.5 3.2 1.5 4.4.9 1.2 2.2 2 3.7 2.3M652.4 273.1c.1-2.5-.7-6.3-2.1-8.3-.2-.3-.5-.6-.8-.8-.3-.2-.8-.3-1.1-.1-.5.3-.7.9-.7 1.4-.3 3.6 1.5 7.1 4.6 9M649.7 283c-.2-2.5-1.2-4.8-2.6-6.9-.3-.5-.8-.9-1.3-1-.9-.1-1.6.8-1.8 1.6-.4 1.8.5 3.6 1.5 5.1 1 1.3 2.1 2.4 3.4 3.3M647.2 289.9c-.4-1.9-1.2-3.8-2.4-5.4-.3-.3-.6-.6-1-.9-.4-.2-.9-.2-1.2.1-.5.4-.4 1.3-.2 1.9.7 2.2 2.2 4.2 4.1 5.5M648.3 287.1c2.2-1.4 4.6-2.7 7-3.7.4-.2.8-.2 1.2-.1.3.2.4.6.3.9-.1.3-.3.6-.5.8-2.2 2.4-5.4 3.7-8.6 3.6M651 278l5.8-3.8c.5-.4 1.1-.7 1.8-.9.6-.2 1.3 0 1.8.5.4.6.4 1.3 0 1.9-.3.6-.8 1-1.3 1.4-1.2 1-2.5 1.8-4 2.3-1.3.6-2.8.6-4.2 0M653.7 267.6c1.6-2.2 3.7-3.9 6.2-5 .4-.2.8-.3 1.3-.3.9.2 1.5 1 1.5 1.9 0 1-.5 2-1.2 2.6-.8.7-1.7 1.1-2.6 1.5-1.7.6-3.6 1-5.4 1M654.9 257.9c1.3-2.8 3.6-4.8 6.2-6.6.5-.5 1.2-.6 1.8-.5.4.2.6.6.6 1s-.1.8-.2 1.2c-1.3 3.6-4.6 6.1-8.5 6.2M655.2 252.9c.7-1.4 1.2-3 1.6-4.5.4-1.6.3-3.2-.2-4.7-.2-.7-.6-1.2-1.1-1.7-.5-.4-1.3-.6-1.9-.3-.6.3-1 .8-1.2 1.4-.1.6-.2 1.3-.1 1.9.3 3 1.2 6.5 2.9 7.9"/><path class="st6" d="M604.7 296.1v7.2c0 1.6 1.3 2.9 2.9 2.9h49.7c1.6 0 2.9-1.3 2.9-2.9v-7.2h-55.5z"/><path d="m609 306.2.4 2.3 45.8 3.3 1.2-5.6z" style="opacity:.4"/></g><path class="st4" d="M685.5 343c0 .1-152.8.3-341.2.3S3 343.1 3 343s152.8-.3 341.3-.3 341.2.1 341.2.3z" id="Floor--inject-114"/><g id="Character--inject-114"><path class="st9" d="M113.3 132.6h1.2c11.5-.1 21.2 8.6 22.2 20.1.9 10.5 1.6 22.2 1.6 27.8-.2 11.7-12.2 13.5-12.2 13.5l.4 10.4c.3 7.8-5.7 14.3-13.5 14.8-7.9.5-14.6-5.6-15.1-13.4v-.2l-2.5-49.4c-1-12.2 5.4-23 17.9-23.6z"/><path class="st10" d="M126.2 193.9c-5.6 0-11-1.6-15.7-4.5 0 0 3.7 8.4 15.7 7.4v-2.9z"/><path class="st4" d="M134.2 161.2c0 .9-.7 1.7-1.7 1.7-.9.1-1.7-.6-1.8-1.5 0-.9.7-1.7 1.6-1.7 1-.1 1.8.5 1.9 1.5 0-.1 0-.1 0 0zM134.1 158.4c-.2.2-1.5-.7-3.4-.7s-3.2.9-3.4.7.1-.5.7-.9c.8-.5 1.8-.8 2.7-.8 1 0 1.9.3 2.7.9.6.3.8.7.7.8zM117.2 161.2c0 .9-.7 1.7-1.6 1.7-.9.1-1.7-.6-1.8-1.5 0-.9.7-1.7 1.7-1.7.9-.1 1.7.5 1.7 1.5 0-.1 0-.1 0 0zM116.9 158.6c-.2.2-1.5-.7-3.4-.7s-3.2.9-3.4.7.1-.5.7-.9c.8-.5 1.8-.8 2.7-.8 1 0 1.9.3 2.7.9.6.4.8.8.7.8zM122.7 172c1-.3 2-.5 3-.5.5 0 .9-.1 1-.4 0-.5-.1-.9-.3-1.4-.4-1.1-.9-2.3-1.4-3.5-1.9-5-3.3-9.1-3.1-9.1s1.9 3.9 3.9 8.9l1.3 3.5c.3.6.4 1.2.2 1.8-.1.3-.4.6-.8.7-.3.1-.5.1-.8.1-1 0-2 0-3-.1zM107.2 153.7c0-.5 1.8-1 3.7-2s3.3-2.2 3.8-1.9c.2.1.1.7-.4 1.4-1.3 1.8-3.4 2.9-5.7 3-.9-.1-1.4-.3-1.4-.5zM129 152.1c.5-.2 1.5.6 2.9 1.3s2.7.9 2.8 1.4c0 .2-.3.5-1 .7-.9.1-1.8 0-2.6-.4s-1.5-1-2-1.7c-.3-.7-.3-1.2-.1-1.3z"/><path class="st9" d="M97.2 164.8c-.2-.1-8.2-2.4-8 5.6s8.4 6.1 8.4 5.9-.4-11.5-.4-11.5z"/><path class="st10" d="M95.8 173.3s-.1.1-.4.2c-.3.1-.7.2-1.1.1-.9-.3-1.7-1.6-1.7-3.1 0-.7.1-1.4.3-2 .1-.5.5-.9 1-1.1.3-.1.7.1.8.4.1.2.1.4.1.4s.2-.1.1-.5c-.1-.2-.2-.4-.3-.5-.2-.2-.5-.2-.8-.2-.7.1-1.2.6-1.5 1.3-.3.7-.5 1.5-.4 2.2.1 1.6 1 3.1 2.2 3.4.5.1.9 0 1.3-.2s.5-.4.4-.4z"/><path class="st4" d="m102.7 141 34.2.7c-1.2-2.3-2.9-4.2-5-5.7-4.5-3.4-9.9-5.3-15.5-5.4-5.6-.1-16.9 6.5-21 10.3-3.2 3-3.2 5.6-3.2 5.6-.5 4.3 2 9.2 3 13.5.5 2.2 1.5 8.8 1.5 8.8 1.9 0 2.6-1.5 2.3-3.3l-.4-7.1c3.9-2.9 5.2-8.1 3.4-12.6-.6-.6-1.6-3.6.7-4.8z"/><path class="st10" d="M109.8 166.3c-.1 0-.2-.1-.2-.2s.1-.2.2-.2.2.1.2.2c0 0 0 .2-.2.2zM113.4 165.6c-.1 0-.2-.1-.2-.2s0-.2.1-.3c.1 0 .2.1.2.2.1.1 0 .2-.1.3zM115.7 165.4c-.1 0-.2-.1-.2-.3s.1-.3.2-.4.2.1.2.3 0 .4-.2.4zM111.6 168.4c-.1 0-.2-.1-.2-.1s.1-.1.2-.1.2.1.2.1-.1.1-.2.1zM114.8 167.7c-.1 0-.2-.1-.2-.2s.1-.2.2-.2.2.1.2.2-.1.2-.2.2zM131.6 165.8c-.1 0-.2-.1-.2-.2s0-.2.2-.3c.1 0 .2.1.2.2s-.1.3-.2.3zM134 165.6c-.1 0-.2-.1-.2-.2s.1-.2.2-.3c.1 0 .2.1.2.2s0 .2-.2.3zM129.5 165.8c-.1 0-.2 0-.2-.1s.1-.2.2-.2.2 0 .2.1-.1.2-.2.2zM131.2 168.2c-.1 0-.2 0-.3-.1-.1-.1 0-.2.1-.3.1 0 .2 0 .3.1.1.1.1.2-.1.3.1 0 .1 0 0 0zM133.3 167.8c-.1 0-.2-.1-.1-.2 0-.1.2-.1.2-.1.1 0 .2.1.1.2 0 .1-.1.1-.2.1z"/><path class="st4" d="M95.1 141.4c-.8-3-.1-6.2 1.9-8.6 2-2.4 5-3.8 8.2-3.7 1.6.2 3.2.3 4.8.3 3-.3 5.2-2.6 8-3.8 4.4-1.7 9.5-.2 12.3 3.6 1 1.5 1.7 3.4 3.3 4.3 1.4.8 3.1.8 4.7 1.2 3.2 1 5.2 4 5.1 7.3-.3 3.3-2.4 6.1-5.5 7.3-3.1 1.2-6.6.9-9.5-.6-2.6-1.4-4.9-3.8-7.8-3.7s-5.7 2.9-8.7 2.3c-1.6-.3-2.8-1.5-3.9-2.6s-2.5-2.2-4.1-2.3-2.4 2-1.9 3.5l-6.9-4.5"/><path class="st5" d="m136.2 137.6-.1.1c-.1.1-.1.2-.2.3-.3.4-.6.8-1 1.1-.6.5-1.3.9-2 1.1-1 .3-2.1.4-3.1.2-1.3-.2-2.4-.9-3.3-1.8-.8-1.1-1.6-2.3-2.4-3.5-.4-.6-1-1.1-1.6-1.5-.7-.3-1.5-.5-2.3-.5-.8 0-1.6.2-2.3.6-.7.4-1.3 1-1.7 1.7-.4.8-.8 1.5-1.2 2.2-.5.8-1.3 1.2-2.2 1.3-.8 0-1.7-.2-2.4-.7-.7-.4-1.3-.9-1.8-1.5-.9-1.1-2.1-1.9-3.4-2.4-1.2-.2-2.4.1-3.4.8-.8.6-1.5 1.4-1.9 2.3-.3.7-.6 1.4-.7 2.1-.1.6-.2 1.1-.2 1.4 0 .2 0 .3-.1.5v-.5c0-.5.1-1 .2-1.4.1-.8.3-1.5.7-2.2.4-1 1.1-1.8 1.9-2.4 1-.8 2.4-1.1 3.6-.9 1.4.5 2.6 1.3 3.5 2.4.5.5 1.1 1 1.8 1.4.7.4 1.4.6 2.2.6.8-.1 1.5-.5 1.9-1.2.5-.7.8-1.5 1.2-2.2.4-.8 1.1-1.4 1.9-1.9.8-.4 1.6-.6 2.5-.6 1.7-.1 3.2.7 4.2 2.1.7 1.2 1.5 2.4 2.3 3.5.8.9 1.9 1.5 3.1 1.8 1 .2 2 .2 3-.1.7-.2 1.4-.6 2-1.1.5-.1 1-.6 1.3-1.1zM142.4 137.6c.1.2.1.4.1.6.1.6 0 1.2-.2 1.8-.3.9-.7 1.7-1.3 2.4-.7.8-1.7 1.5-2.7 1.9-1.9.8-4 1-6 .6l-1.8-.3c-.2 0-.4-.1-.6-.2 0-.1.9.2 2.5.3 2 .2 4 0 5.8-.7 1-.4 1.9-1 2.6-1.8.6-.6 1-1.4 1.3-2.2.3-.8.4-1.6.3-2.4z"/><path class="st10" d="M121.1 174.8c-.8-.5-1.7-1-2.6-1.3-.6-.2-1.3-.1-1.8.4-.4.4-.6.9-.6 1.4-.1.7 0 1.3.4 1.9.5.6 1.1.9 1.8 1.1.6.3 1.2.3 1.8.2.6-.2 1-.8 1.1-1.4.2-.7.1-1.5-.1-2.3"/><path class="st4" d="M118.9 178.4c-.6.1-1.1-.1-1.6-.4-.6-.3-1-.8-1.3-1.3-.4-.7-.3-1.6.1-2.3.2-.4.6-.7 1-.8.4-.1.8-.2 1.1-.1.6.1 1.2.4 1.7.7.8.5 1.4.7 1.4.8s-.7 0-1.6-.5c-.5-.3-1-.4-1.6-.6-.6-.1-1.3.1-1.6.7-.3.5-.4 1.2-.1 1.8.2.5.6.9 1 1.2.8.6 1.5.7 1.5.8zM105.1 155c-.1 0-.2-.9-.2-1.9s0-1.9.2-1.9.3.9.3 1.9-.2 1.9-.3 1.9zM103.9 155.5c-.4-1.6-.4-3.2-.1-4.8.4 1.6.5 3.2.1 4.8z"/><path class="st6" d="M47.2 344.9c-.9.3-1.6.9-2.2 1.7l-1.5 1.9c-1.1 1.4-1.3 3.2-.8 4.8.7 2 2.7 3.3 4.9 3.3l44.3-1-4.4-17.8-1.9-5.1"/><path class="st7" d="M65.8 356.2c.1 0-.2-1.3-.1-2.9s.8-2.8.6-2.9c-1.3 1.7-1.5 4-.5 5.8z"/><path class="st4" d="M69.4 355.3c.1-.8.3-1.6.6-2.4.4-.7.8-1.5 1.3-2.1-.1-.1-1.2.5-1.7 2-.5.7-.5 1.6-.2 2.5z"/><path class="st7" d="M60.7 356.5c.1 0-.2-1.4 0-3.2s.8-3 .6-3.1c-.7.9-1.1 2-1.1 3.1-.2 1 0 2.2.5 3.2zM56.2 356.4c-.2-1-.3-2.1-.3-3.1.2-1 .5-2 1-3 0 0-.3.2-.7.7-.4.7-.7 1.4-.8 2.2-.1.8 0 1.6.3 2.3.2.6.4.9.5.9z"/><path class="st4" d="M85.6 336.2v.5s.6-.6 0-.5zM85.3 336.3zM85.2 336.4l-.3.1.3-.1zM69.6 337.1l-21.7 7.1c-1.2.4-2.3 1-3.3 1.8-1.8 1.6-3.3 4.3-2.4 6.8 1.2 3.3 3.2 3.5 3.2 3.5s-2.4-3-1.7-5.2 3.3-4.3 6.5-5.6l35.1-9 .2-.1v-3.6l-15.9 4.3z"/><path class="st7" d="M51.7 356.8c.6-1.8 1-3.8.9-5.8-.2-1.9-.8-3.8-1.7-5.6.4.4.8.9 1 1.4.7 1.3 1 2.7 1.1 4.1.1 1.4-.1 2.9-.6 4.2-.1.7-.4 1.2-.7 1.7zM85.3 342.8c-1.4-.1-2.7-.6-3.7-1.6-1.1-.8-1.9-2-2.2-3.3.8 1 1.6 2 2.6 2.9 1 .8 2.1 1.5 3.3 2z"/><path class="st4" d="M131.5 132.6c.2-1.4 1-2.6 2.2-3.4.1.7.2 1.3.4 2 1.1-1.6 2.8-2.6 4.7-2.6l-1.4 2.6c1-.4 2.1-.5 3.1-.4-.6 1.1-1.5 1.9-2.5 2.6-1 .7-1.8 1.7-2.1 2.9"/><path class="st9" d="m191.7 200.8-44.4 36.6c-.8-.6-14.3-27.2-14.3-27.2l38.8-23.1-33.3-29.9 8.6-6.5 42.2 23.6c4.8 2.7 7.9 7.7 8.3 13.2.3 5.1-1.9 10.1-5.9 13.3z"/><path class="st9" d="m140.8 159 6.9-7.9-8.9-8.3-2.3-5.9c.4-2-.9-3.9-2.9-4.3h-.3l-7.2-.5s-3.4-.2-3.1 2c.1.4.3.7.7.8l-.7 1.2c-.1 2 2.5 2.2 2.5 2.2l6 .6 1.2 3.2s-7.2-3.3-8.4-2 12.2 8.1 12.2 8.1l.5 8.7 1.4.5 2.4 1.6z"/><path class="st10" d="M136.4 137.2c-.3-.5-.8-1-1.3-1.4-.6-.4-1.2-.6-1.9-.7-.8-.1-1.7-.1-2.6-.1-2.2.1-4.5.1-6.7-.1 2.2-.3 4.5-.4 6.7-.4.9 0 1.8 0 2.7.1.7.1 1.4.4 2 .9 1 .8 1.1 1.7 1.1 1.7zM138.4 145.7c-.1 0-.3-.3-.7-.7-.6-.6-1.3-1-2-1.4-1.1-.5-2.2-1-3.2-1.6 1.2.1 2.4.5 3.5 1.2.8.4 1.5.9 2.1 1.6.3.5.4.9.3.9zM143.2 161.5c-.5-.3-1-.7-1.4-1.1-.9-.7-2.1-1.8-3.4-3h.2c-.8.2-1.6-.2-2-.9-.3-.5-.4-1.1-.4-1.8v-1.6c0-.9.1-1.8.1-2.7 0-.8.1-1.6.2-2.4.1.8.2 1.6.1 2.5v2.7c-.1 1 0 2.1.3 3.1.3.5.8.8 1.4.7l.1-.1.1.1c1.3 1.2 2.5 2.3 3.3 3.1.7.4 1.1.8 1.4 1.4zM179.6 194.6c-1.4-1.1-2.8-2.3-4-3.6-2.1-2.1-4-3.5-4-3.6s2.2 1.2 4.3 3.3c1.3 1 2.6 2.4 3.7 3.9z"/><path class="st4" d="M125.2 138.7c.5-.6 1.2-1.2 2-1.5.8-.3 1.7-.2 2.4.3.5.4.8 1 1.3 1.4.7.5 1.6.6 2.4.2.8-.3 1.4-.8 2-1.4.2-.2.4-.4.6-.2.1.1.2.2.2.4.1.7-.1 1.5-.4 2.1.3.1.7 0 1-.1.3.9-.2 1.9-1.2 2.3-.9.3-1.9.3-2.8 0-2.2-.4-4.2-1.2-6.1-2.4"/><path class="st6" d="M50.3 221.4c-.6-12.3 5.1-24.1 15-31.4 1.4 12.5-4.2 24.8-14.6 31.9"/><path d="M50.3 221.4c-.6-12.3 5.1-24.1 15-31.4 1.4 12.5-4.2 24.8-14.6 31.9" class="st11"/><path class="st9" d="m85.6 209.1-25.1-22.3L91 156.1l-11.9-8.7S43.2 174.5 36 182.1c-3.4 3.6-4.6 12.8-.5 17 10.7 10.9 32.1 30.4 32.1 30.4l18-20.4z"/><path class="st9" d="m117.8 141.8-10.5-1.7 6.1-3.1 2.9-.1c-.4-1.8-2-3.2-3.9-3.3-3.3-.2-3.8.4-3.8.4s-1.6-3.4-2.5-3.7c-1.3-.4-2.6-.6-3.9-.6-1 .4-2 1-2.8 1.8 0 0-3.9-2.1-4.8-.8-.9 1.7-1.6 3.5-2.2 5.3l-5.4 5.2-.9.6-15.8 12.4 11.3 11.3 13.7-14 2.2.7c1.2.2 2.4-.2 3.2-1 .8-.7 1.6-1.5 2.3-2.4.5-.7 1.5-2.4 1.7-2.6.5-.5 1.1-.9 1.8-1.2 0 0 11.1-.1 12-.7s2.1-2.1-.7-2.5z"/><path class="st10" d="M103.4 136.4c.9-.7 1.8-1.3 2.9-1.6 1-.6 2.1-.9 3.2-.9-1 .5-2 1-3 1.4-1 .5-2 .9-3.1 1.1z"/><path class="st10" d="M105.8 133.2c.1 0 .1.6-.1 1.3s-.5 1.2-.6 1.2-.1-.6.1-1.3.5-1.3.6-1.2zM96.2 135.6c.4-.9 1-1.7 1.7-2.4 1-1.2 1.9-2.1 2.1-2-.4.9-1 1.7-1.6 2.4-1.2 1.1-2 2-2.2 2zM119.6 142.6v.3c0 .3-.1.5-.2.8-.1.4-.5.7-.9.9-.5.2-1.1.3-1.6.3-1.2.1-2.6.2-4.2.2s-3.3 0-5.1.2c-.8 0-1.7.3-2.4.8-.6.5-1.1 1.1-1.4 1.8-.7 1.3-1.6 2.4-2.7 3.3-.8.6-1.7 1-2.6 1.1-.3.1-.7.1-1 0 0 0 .4 0 1-.2.9-.2 1.7-.6 2.4-1.2 1-.9 1.9-2 2.5-3.2.4-.8.9-1.4 1.6-2 .8-.5 1.7-.8 2.6-.9 1.8-.2 3.6-.1 5.1-.1s3 0 4.1-.1c.5 0 1-.1 1.6-.2.4-.1.7-.4.8-.8.3-.6.3-1 .4-1zM62 184.8c-.4.6-.8 1.2-1.4 1.7-.9 1-2.2 2.3-3.6 3.7s-2.7 2.7-3.7 3.6c-.5.5-1 1-1.6 1.4.4-.6.9-1.2 1.4-1.7.9-1 2.2-2.3 3.6-3.7s2.7-2.7 3.7-3.6c.5-.6 1-1 1.6-1.4z"/><path class="st4" d="M105.7 135.1c-1.4-1-2.3-2.5-2.7-4.1l1.4 1c-.8-2-.7-4.2.3-6.1l2.4 4c.1-.9.7-1.7 1.5-2.1-.1 2.1.2 4.2 1.1 6.1M98.6 132.6c-1.1-1-1.9-2.2-2.5-3.6.2-.1.5.1.7.2s.5.2.7.1.1-.4 0-.6c-.4-1-.3-2.2.2-3.1l2.8 5.2-1.9 1.8M236.5 361.5c-2.1-7-4.8-14-15.3-20.1l-10-5.1.8.3-44.3-22.6h-.6l-13.4-6.8-39.6 1.5-2.7 8.9-25.9 1.7-.6 20.3v8.5c-4.5-4.5-14.7.5-14.7 7.9l26 37.2c13 21.1 42.9 13.9 42.9 13.9l.4-.2c9.2-5.2 13.8-16 11-26.2l-1.2-4.6.2.6-.4-4.5.2.1 41.3 10.9c16.4 2.7 27.2 5.9 38.3-1 2.1-1.3 3.8-2.9 5.2-4.9 3.3-4.6 4.1-10.5 2.4-15.8z"/><path class="st5" d="M223.8 376.7c.4 0 .7-.1 1.1-.2.9-.2 1.9-.6 2.7-1.1 6-3.2 8.3-10.7 5.1-16.7-.4-.9-1-1.7-1.6-2.4-.2-.3-.5-.5-.8-.7.8 1 1.5 2.1 2.1 3.3 2.9 5.9.7 13-5 16.3-1.2.5-2.4 1.1-3.6 1.5zM106.2 397c-.6-3.2-1.3-6.3-2.2-9.5-.7-3.2-1.6-6.3-2.7-9.3.6 3.2 1.3 6.3 2.2 9.5 1.4 5.1 2.5 9.3 2.7 9.3z"/><path class="st5" d="M103.1 385.3c.1.7.2 1.4.5 2.1 1.2 3.3 3.1 6.2 5.7 8.4.5.5 1.1.9 1.7 1.2-1.7-1.6-3.3-3.4-4.7-5.4-1.2-2-2.3-4.1-3.2-6.3zM123.7 403.1c.3.1.5.2.8.2.8.1 1.5.1 2.3.1 5.2-.3 9.8-3.4 12-8.1.3-.7.6-1.4.8-2.2.1-.3.1-.5.1-.8-.1 0-.3 1.1-1.2 2.8-1.1 2.2-2.8 4.1-4.8 5.5-2.1 1.4-4.4 2.2-6.9 2.4-1.9.2-3.1 0-3.1.1zM100.9 334.8c.5-.2.9-.4 1.4-.7 1.2-.6 2.4-1.2 3.7-1.7 8.5-3.3 18.1-2.5 25.9 2.2 1.2.7 2.3 1.4 3.4 2.3l1.2.9-.3-.3c-.2-.2-.4-.5-.8-.8-1-.9-2.2-1.7-3.3-2.4-7.9-4.9-17.6-5.7-26.2-2.2-1.3.5-2.5 1.1-3.7 1.8-.4.2-.7.5-.9.6s-.4.2-.4.3zM150.2 321.1c-.6.6-1.1 1.3-1.5 2-2.1 3.4-3.3 7.4-3.2 11.4 0 .8.1 1.7.3 2.5 0-2.8.3-5.6 1-8.3.8-2.7 2-5.2 3.4-7.6zM101.2 379.5c-.3-.3-.6-.7-.8-1.1-.5-.8-1.2-1.9-2-3.2-1.6-2.8-3.7-6.6-5.9-11s-4.1-8.4-5.5-11.2c-.6-1.4-1.2-2.5-1.6-3.4-.2-.4-.4-.8-.5-1.3.3.4.5.8.7 1.2.4.8 1 1.9 1.7 3.4 1.5 3 3.4 6.9 5.6 11.2s4.2 8.2 5.8 11l1.8 3.3c.3.2.6.6.7 1.1zM200.5 377.5c-.2 0-.4-.1-.5-.1l-1.5-.4-5.6-1.5-18.4-5.2-18.4-5.2-5.6-1.6-1.5-.4c-.2 0-.4-.1-.5-.2.2 0 .4 0 .6.1.4.1.9.1 1.6.3 1.3.3 3.3.8 5.6 1.4 4.7 1.2 11.3 3 18.5 5.1s13.7 4 18.4 5.4l5.6 1.7 1.5.5.2.1zM141.1 319.9c.2 1 .3 1.9.3 2.9.1 1.8.3 4.3.5 7s.2 5.2.2 7c0 .7 0 1.4-.1 2.1 0 .3-.1.5-.2.8V336.8c-.1-2-.2-4.4-.4-7s-.3-5.2-.3-7c-.1-.9-.1-1.9 0-2.9zM135.4 322.3s.1-.2.4-.3c.5-.1 1-.1 1.4.1.7.3 1.1 1 1.2 1.8 0 .4-.1.9-.3 1.3-.3.4-.7.7-1.1.9-.9.3-1.9-.1-2.4-.9-.4-.6-.4-1.5-.1-2.1.2-.4.6-.7 1-1 .3-.1.5-.2.5-.2s-.1.1-.4.3c-.4.2-.6.6-.8.9-.2.6-.2 1.2.1 1.7.4.6 1.2.9 1.9.6.7-.2 1.2-.9 1.1-1.6 0-.6-.3-1.2-.8-1.5-.6 0-1.1-.1-1.7 0zM138.8 342c.3.4.5.9.7 1.4.4.9.9 2.2 1.5 3.9 1.2 3.3 2.7 8 4.2 13.1s2.7 9.9 3.6 13.3c.4 1.6.7 3 1 4l.3 1.5c-.2-.5-.4-1-.5-1.5-.3-1-.7-2.4-1.1-4-1-3.5-2.3-8.1-3.7-13.3s-2.9-9.8-4.1-13.1c-.6-1.7-1-3-1.4-3.9-.3-.4-.4-.9-.5-1.4z"/><path class="st5" d="M200.7 377.8c.4-.8.2-1.7-.4-2.3-.7-.7-1.7-1.1-2.6-1.2l-3.9-.8c-7.5-1.7-14.9-3.9-22.2-6.5-7.3-2.6-14.3-5.7-21.2-9.3-1.3-.7-2.5-1.3-3.5-1.9s-1.9-1.1-2.6-1.5l-1.6-1c-.2-.1-.4-.2-.6-.4l.6.3 1.7.9c.7.4 1.6.9 2.7 1.4s2.2 1.2 3.6 1.8c6.9 3.5 14 6.5 21.2 9.1 7.2 2.6 14.6 4.9 22.1 6.7l3.9.9c1 .1 2 .6 2.7 1.3.4.5.6 1.2.6 1.8-.2.3-.3.5-.5.7z"/><path class="st4" d="m97.9 263.9.3.3.9.9c.4.4.9.9 1.5 1.4s1.3 1.1 2.1 1.7 1.7 1.2 2.7 1.9 2.1 1.2 3.2 1.9c2.5 1.3 5.2 2.4 7.9 3.3 2.7.8 5.5 1.4 8.4 1.8 1.3.1 2.6.3 3.7.3h3.2c1 0 1.9-.1 2.7-.2.7 0 1.3-.1 2-.2l1.3-.2c.1 0 .3-.1.4-.1h-.4l-1.3.1c-.5.1-1.2.1-2 .2s-1.7.1-2.7.1-2.1 0-3.2-.1-2.4-.2-3.7-.3c-2.8-.4-5.6-1-8.3-1.8-2.7-.9-5.3-2-7.8-3.2-1.1-.6-2.2-1.2-3.2-1.8s-1.9-1.2-2.7-1.8-1.5-1.1-2.1-1.6-1.1-.9-1.6-1.3l-1-.8c-.1-.4-.3-.5-.3-.5z"/><path class="st6" d="m150.6 273.9-.7-9.5.8-26.3 23.8-18.7c-1.1-8.5-14.4-25.7-14.4-25.7l-20.3 8h-3.4l-3 2.9-6.9-.9c-2.7 13.3-19.5 11.5-28.6.7l-9.9.9-3.6-3.3-5.1 1.4-14-13.4c-.3 14.1-5.5 24.2-15 31.5L70.4 243l5 5c1.8 26.4 3.6 51.7 8.6 77.1l5.2-1.1c26.8-.5 67.5-8.7 78.4-9.9l2.2-2.2-4-3.5-15.2-34.5z"/><path class="st4" d="M86.6 210.8c.2.5.3 1 .4 1.5.2 1 .4 2.4.7 4.1.6 4.5.9 9.1.7 13.7-.1 2.5-.4 5.1-1 7.5-.4 2.1-1.5 4-3 5.4-1.1.9-2.5 1.5-3.9 1.5-.4 0-.8-.1-1.1-.2-.2-.1-.4-.1-.4-.2.5.1 1 .2 1.5.2 1.4-.1 2.7-.6 3.7-1.5 1.4-1.4 2.4-3.3 2.7-5.3.5-2.4.8-4.9.9-7.4.1-4.6 0-9.1-.6-13.7-.2-1.7-.4-3.1-.5-4.1-.1-.5-.1-1-.1-1.5zM96.9 225.7c-.2-1-.3-2.1-.3-3.1-.5-5-1.6-9.9-3.5-14.5-.4-.9-.8-1.9-1.1-2.9.2.2.3.5.4.7.3.5.6 1.2 1 2 1 2.3 1.8 4.7 2.4 7.2.6 2.4 1 4.9 1.1 7.5 0 1 .1 1.8 0 2.3.1.3.1.6 0 .8zM153.7 306.9c-.2.1-.3.2-.5.3l-1.5.7c-.6.3-1.4.7-2.4 1.1s-2 .9-3.2 1.3c-2.4.9-5.2 1.9-8.5 2.8-3.5.9-7.1 1.7-10.7 2.3-3.6.5-7.2.9-10.9 1-3.4.1-6.4 0-8.9-.2-1.3-.1-2.4-.2-3.4-.3s-1.9-.2-2.6-.3l-1.6-.3c-.2 0-.4-.1-.6-.1h.6l1.6.2c.7.1 1.6.2 2.6.2s2.1.2 3.4.2c2.5.1 5.5.2 8.9.1 7.3-.3 14.5-1.4 21.5-3.3 3.2-.9 6.1-1.8 8.5-2.7 1.2-.4 2.2-.9 3.2-1.2s1.7-.7 2.4-1l1.5-.6c.2-.1.4-.2.6-.2z"/><path d="M93.2 206c2.8 6.8 5 14.9 5.2 22.2.2 1.5-.1 3.1-.7 4.5-.2.3-.4.6-.7.6-.6 0-.7-.8-.7-1.3.2-8.8-.8-17.5-3.1-26M101.4 265.9c8.9 5.1 19 7.8 29.3 7.9 1.1-.1 2.3.1 3.3.7.9.7 1.2 2.3.2 2.9-.3.1-.7.2-1 .2-12 1.1-23.8-3.1-32.5-11.4" class="st11"/><path class="st4" d="M148.8 266.7c-.1 0 .5-10.4 1.5-23.3s1.9-23.3 2-23.3-.5 10.5-1.5 23.3-1.8 23.3-2 23.3z"/><path class="st3" d="m74.4 198.5.3 1.5c.2 1.3.3 2.7.2 4-.2 9.1-4.6 17.5-12 22.8-1.1.8-2.2 1.5-3.4 2.1-.4.2-.9.4-1.3.6.4-.3.8-.5 1.2-.8 1.1-.7 2.3-1.4 3.3-2.2 7.1-5.4 11.4-13.6 11.8-22.5.1-1.3.1-2.7 0-4-.1-.6-.1-1.1-.1-1.5zM81.7 202.7s.1.1.3.4c.2.4.5.8.7 1.1.7 1.5 1.2 3 1.4 4.7.7 4.1.4 9.8-.7 16-.5 2.9-1.5 5.7-2.7 8.4-1.1 2.2-2.4 4.2-4.1 6-1.1 1.2-2.4 2.2-3.8 3.1-.5.3-.9.5-1.2.6-.1.1-.3.1-.4.2 0 0 .5-.3 1.5-1 1.3-.9 2.5-2 3.6-3.2 1.6-1.8 2.9-3.8 3.9-5.9 1.2-2.7 2.1-5.4 2.6-8.3 1.1-6.1 1.5-11.8.9-15.8-.4-2.2-1-4.3-2-6.3zM95.4 214.9c-1.3-.1-2.7-.1-4 .1-1.3.3-2.5.8-3.7 1.5 0 0 .2-.4.9-.9 1.6-1.1 3.7-1.5 5.6-1.1.8.1 1.2.3 1.2.4zM95.7 210.7c.5.5.9 1.1 1.3 1.6 1.2 1.5 2.4 2.9 3.7 4.3 2 2 4.2 3.7 6.7 5 3 1.6 6.5 2.3 9.9 2 3.4-.3 6.7-1.7 9.3-3.9 2.1-1.8 3.8-4.1 4.9-6.7.7-1.8 1.2-3.6 1.3-5.5.1-1.3 0-2.1.1-2.1 0 .2.1.4.1.5.1.5.1 1 .1 1.6-.1 1.9-.5 3.8-1.2 5.6-1 2.7-2.7 5.1-4.9 6.9-5.5 4.7-13.4 5.5-19.8 2-2.5-1.4-4.8-3.1-6.7-5.2-1.3-1.4-2.5-2.9-3.6-4.4-.4-.5-.7-1-.9-1.3-.2-.1-.3-.2-.3-.4zM98.2 234.2c-1.8-.3-3.6-.4-5.3-.2-1.8.3-3.5.9-5.1 1.8.3-.4.8-.8 1.3-1 1.1-.7 2.4-1.1 3.7-1.3 1.3-.2 2.6-.1 3.9.1.6.1 1.1.3 1.5.6zM149.7 225.3c0 .1-.8-.1-2.1 0-1.9.2-3.7.7-5.4 1.6-2.5 1.4-4.9 2.9-7.1 4.6-1.4 1-2.8 1.8-4.4 2.6-1.6.8-3.4 1.4-5.1 1.8-3.4.8-7 1-10.5.8-2.8-.2-5.7-.6-8.5-1.2-2.4-.5-4.3-1-5.6-1.3l-1.5-.4c-.2 0-.4-.1-.5-.2.2 0 .4 0 .6.1l1.5.3c1.3.3 3.2.7 5.6 1.2 2.8.6 5.6.9 8.4 1.1 3.5.2 6.9 0 10.3-.8 1.7-.4 3.4-1 5-1.7 1.5-.7 2.9-1.6 4.3-2.5 2.3-1.7 4.7-3.2 7.2-4.5 1.7-.9 3.6-1.4 5.6-1.5.5 0 1 0 1.6.1.2-.2.4-.2.6-.1zM153.6 218.6c-.1 0-.2-1.2-.6-3-1.1-4.8-3.6-9.1-7.3-12.3-1.4-1.2-2.4-1.9-2.4-1.9.3.1.5.2.7.4.7.4 1.3.8 1.9 1.3 3.9 3.2 6.6 7.7 7.5 12.6.1.7.2 1.5.2 2.2.1.1.1.4 0 .7zM164.6 227.2v-1.3c0-.8 0-2-.1-3.5-.2-3.9-.8-7.7-2-11.5-.7-2-1.5-4-2.5-5.9-.8-1.5-1.7-3-2.7-4.5-1.7-2.4-3-3.8-2.9-3.9.3.3.7.6.9.9.8.9 1.6 1.8 2.3 2.7 1.1 1.4 2 2.9 2.9 4.5 1 1.9 1.9 3.9 2.6 6 1.2 3.8 1.9 7.7 1.9 11.6 0 1.2 0 2.4-.1 3.6-.1.4-.2.9-.3 1.3zM148.5 250.1c-.2.1-.4.2-.7.4-.7.3-1.3.6-2 .8-2.5.8-5.1 1.3-7.7 1.4-3.9.1-7.8 0-11.7-.3-2.2-.1-4.5-.2-6.8-.1-2.4.1-4.9.5-7.3 1-4.9 1.1-9.6 2.5-14 3-3.9.4-7.8.3-11.7-.2-3.3-.4-5.9-.9-7.8-1.3l-2.1-.4c-.2 0-.5-.1-.7-.2.2 0 .5 0 .7.1l2.1.3c1.8.3 4.5.7 7.8 1.1 3.8.5 7.7.5 11.6.1 4.3-.5 9-1.9 13.9-3 2.4-.5 4.9-.9 7.4-1 2.3-.1 4.6 0 6.9.1 3.9.3 7.7.5 11.6.4 2.6-.1 5.2-.5 7.7-1.2.9-.3 1.6-.5 2-.7.3-.1.5-.2.8-.3zM119.6 273.1h-6.3c-10.2.1-20.3 1.6-30 4.4-1.9.5-3.4 1-4.4 1.4-.5.2-1.1.4-1.6.5.5-.3 1-.5 1.6-.7 1-.4 2.5-.9 4.4-1.5 9.7-3.1 19.9-4.6 30.1-4.4 1.9 0 3.5.1 4.6.2.5-.1 1 0 1.6.1zM148.6 270.6c-.7.4-1.4.8-2.1 1.1-1.7.8-3.5 1.4-5.4 1.9-1.8.5-3.7.9-5.6 1.2-.8.1-1.6.2-2.4.2.7-.2 1.5-.4 2.3-.5 1.4-.3 3.4-.7 5.5-1.3s4-1.2 5.4-1.8c.7-.4 1.5-.7 2.3-.8zM157.7 288.3c-.2.1-.5.3-.7.4-.5.2-1.2.5-2.1.9-2.6 1.1-5.2 2-7.9 2.8-8.9 2.4-18 4.1-27.2 4.8-9.2.8-18.4.9-27.7.2-3.5-.3-6.4-.6-8.3-.9l-2.2-.3c-.3 0-.5-.1-.8-.1h.8l2.3.2c2 .2 4.8.5 8.3.7 9.2.6 18.4.4 27.6-.4 9.2-.8 18.3-2.3 27.2-4.7 3.4-.9 6.1-1.9 8-2.6l2.1-.8c.1 0 .4-.1.6-.2zM95.9 314.7c-2.4-.2-4.7-.2-7.1 0-2.4.3-4.7.8-7 1.5.6-.4 1.2-.7 1.9-.9 3.2-1.1 6.7-1.5 10.1-1 .7 0 1.4.2 2.1.4zM161 305.4c0 .1-1.8.1-4 .5s-3.9 1-3.9.9c2.4-1.3 5.2-1.8 7.9-1.4z"/></g></svg>