<svg version="1.1" id="Layer_1" xmlns="http://www.w3.org/2000/svg" x="0" y="0" viewBox="0 0 455.4 458.2" style="enable-background:new 0 0 455.4 458.2" xml:space="preserve"><style>.st0{fill:#ebebeb}.st1{fill:#f5f5f5}.st2{fill:#fff}.st3{fill:#e0e0e0}.st4{fill:#263238}.st5{fill:#0061f2}.st6{opacity:.4}.st7{opacity:.2}.st8{opacity:.3}.st9{fill:#455a64}.st10{opacity:.7}</style><g id="background-complete--inject-33"><path class="st0" d="M116.3 442.5c-3.3 1.7-5.9 4.6-7.3 8-3.6-3.8-5.7-8.8-5.9-14.1-4.2 1.8-6.8 6-6.4 10.6l-19.1-17.8c-1 7-2 14-3 21.1-3.7-10.4-8.9-20.2-15.7-29-.1 8-.3 15.9-.4 23.8-9.2-18.5-22.9-34.4-39.9-46.3 5 11.1 10 22.2 12.5 34.1-4.7-9.5-12.5-17.1-22.1-21.7 10.3 13.9 17.7 29.8 21.5 46.7l91.7.1s-3.9-10.1 2.9-13.5l-8.8-2z"/><circle class="st0" cx="74" cy="88.1" r="59.6"/><path class="st0" d="M454.5 369.9c-19.6 11.1-32.9 30.6-36 52.9.3-18.5 3.3-36.8 9-54.4-13.3 16.3-21.2 36.3-22.5 57.3l-2.5-34.8c-8.2 16-9 34.6-9.5 52.6-3.5-7.4-8.4-14.2-14.5-19.8 2.3 11 4.7 23.3 7 34.4l47.5-.1-.9-9.5c-2.8-28.1 5.2-56.2 22.4-78.6z"/><path class="st1" d="M411.1 152.2c.6-4.6-5.9-8.4-10.7-8.8-2.3-.2-4.8.2-7-.6-4.8-1.7-6.7-7.8-11.4-9.8-3.5-1.5-7.5-.2-10.9 1.5s-6.7 3.9-10.5 4.1c-3.3.2-6.9-1-9.7.6-2.1 1.2-3.3 3.7-5.2 5.1s-4.5 1.7-6.9 1.9-4.9.1-7 1.1-4 3.3-3.5 5.7l82.8-.8z"/><path class="st0" d="M286.9 68.6c.5-4-5.1-7.3-9.4-7.6-2-.2-4.1.2-6-.5-4.2-1.4-5.8-6.8-9.9-8.5-3-1.3-6.5-.1-9.5 1.3s-5.8 3.3-9.1 3.6c-2.9.2-6-.9-8.5.5-1.9 1-2.8 3.2-4.6 4.4s-3.9 1.5-6 1.6c-2.1-.1-4.2.3-6.1 1-1.9.9-3.5 2.9-3.1 4.9l72.2-.7zM130.7 229.1c.8-5.6-7.1-10.2-13.1-10.7-2.8-.2-5.8.2-8.4-.7-5.8-2-8.1-9.5-13.8-11.9-4.2-1.8-9.1-.2-13.2 1.9s-8.2 4.7-12.8 5c-4 .2-8.3-1.2-11.8.7-2.6 1.4-4 4.4-6.4 6.2s-5.4 2.1-8.3 2.2-5.9.2-8.6 1.4-4.8 4-4.3 6.9l100.7-1z"/><circle class="st0" cx="375.9" cy="201" r="28.3"/><path class="st2" d="M368.1 202.2c-2.2 1.2-5.1.4-6.3-1.8-1.2-2.2-.4-5.1 1.8-6.3 2.2-1.2 5.1-.4 6.3 1.8 1.2 2.2.4 5-1.8 6.3zM376.6 189.9c-1.3.7-2.9.2-3.7-1.1s-.2-2.9 1.1-3.7c1.3-.7 2.9-.2 3.6 1.1.8 1.4.3 3-1 3.7z"/><path class="st3" d="M358.3 180.3c-.4.4-32.7-9.7-34-1.8s22.7 24.9 49.5 35.9 56.3 18.4 58.7 10.6-26.5-24.1-26.5-24.1l-.3 4s17.8 9.7 16.7 16.4-23.1 1.3-47.5-10.1-44.3-24.4-42-29.3 22.3 1.5 22.3 1.5l3.1-3.1z"/><path class="st2" d="M387.6 177.7c-.1.3-2.5-.6-6.4-.9-10.4-1-20.4 4.3-25.4 13.4-2 3.4-2.5 5.9-2.9 5.8s-.2-2.7 1.5-6.5c1-2.2 2.4-4.3 4-6.1 4-4.6 9.6-7.5 15.7-8.2 2.4-.3 4.9-.2 7.3.2 4.1.7 6.3 2.1 6.2 2.3z"/><circle transform="rotate(-19.33 420.14 94.508)" class="st3" cx="420.1" cy="94.5" r="18.6"/><path class="st1" d="M426.2 87.4c0-1.7 1.4-3 3.1-2.9 1.7 0 3 1.4 2.9 3.1 0 1.6-1.4 2.9-3 2.9-1.7 0-3-1.3-3-3.1 0 .1 0 .1 0 0zM432.2 94.4c0-1 .8-1.7 1.8-1.7s1.7.8 1.7 1.8-.8 1.7-1.8 1.7c-.9 0-1.7-.8-1.7-1.8 0 .1 0 .1 0 0zM429.9 99.9c.3 0 .6.3.6.6 0 .4-.3.7-.6.7s-.7-.3-.7-.6c0-.4.3-.7.7-.7z"/></g><path class="st4" d="M443.1 458c0 .1-97.3.3-217.3.3S8.5 458.1 8.5 458s97.3-.3 217.3-.3 217.3.1 217.3.3z" id="Floor--inject-33"/><g id="Plant--inject-33"><path class="st4" d="M75.9 458c-.1-.2-.1-.3-.1-.5-.1-.4-.2-.9-.3-1.4-.2-1.2-.6-3-1.1-5.3-1.3-5.8-3-11.4-5.3-16.9-1.3-3-2.7-5.9-4.3-8.7-.8-1.3-1.5-2.5-2.2-3.6l-1.1-1.6c-.4-.5-.7-1-1-1.4-.7-.9-1.3-1.7-1.9-2.4s-1.1-1.3-1.5-1.8l-1-1.1c-.1-.1-.2-.3-.3-.4 0 0 .2.1.4.3l1 1c.6.6 1.1 1.1 1.6 1.8.6.7 1.3 1.5 2 2.4l1 1.4c.4.5.7 1 1.1 1.6.8 1.1 1.5 2.3 2.3 3.6 1.6 2.8 3.1 5.8 4.4 8.8 2.3 5.5 4 11.2 5.2 17 .4 2.2.8 4 .9 5.3.1.6.1 1.1.2 1.5v.4zM48.1 427.9c.5.1 1 .3 1.5.5.6.2 1.1.4 1.7.7.6.3 1.4.6 2.2 1.1.9.5 1.7 1 2.5 1.6.9.6 1.8 1.3 2.7 2 4 3.3 7.2 7.5 9.5 12.2.5 1 .9 2.1 1.3 3.1.3.9.6 1.9.9 2.8.3.9.4 1.7.5 2.4l.3 1.8c.1.5.1 1 .1 1.6-.1 0-.3-2.2-1.3-5.7-.3-.9-.6-1.9-.9-2.8-.3-1-.8-2-1.3-3.1-1.1-2.3-2.5-4.5-4-6.5-1.6-2-3.4-3.9-5.3-5.5-.9-.7-1.8-1.5-2.7-2-.8-.6-1.6-1.1-2.4-1.6-3.3-1.8-5.4-2.5-5.3-2.6zM73.5 397.9c0 .2.1.4.1.6 0 .5 0 1 .1 1.8.1 1.5.2 3.8.3 6.5.3 5.5 1 13.1 2.2 21.3 1.2 8.3 2.8 15.7 4.1 21.1.6 2.7 1.2 4.8 1.6 6.3.2.7.3 1.3.4 1.7.1.2.1.4.1.6-.1-.2-.2-.4-.2-.6-.1-.4-.3-1-.5-1.7-.4-1.5-1-3.6-1.7-6.3-3.6-13.9-5.7-28.2-6.4-42.5-.1-2.8-.2-5-.2-6.5v-1.8c.1-.1.1-.3.1-.5zM38.6 442.9c.3.1.5.2.8.3.5.2 1.1.6 1.9 1.2 2.1 1.4 3.9 3 5.6 4.8 1.7 1.8 3.1 3.8 4.4 6 .5.8.8 1.5 1 2 .1.2.2.5.3.8-.6-.8-1.1-1.7-1.6-2.6-1.3-2.1-2.8-4-4.4-5.8-1.7-1.8-3.5-3.4-5.5-4.8-1.6-1.3-2.5-1.9-2.5-1.9zM54.5 441.5c.2.8.3 1.6.3 2.4.2 1.5.3 3.5.6 5.8s.6 4.3.8 5.8c.2.8.2 1.6.3 2.4-.3-.8-.5-1.6-.6-2.4-.3-1.5-.7-3.5-.9-5.8-.3-2.3-.4-4.4-.5-5.9-.1-.7-.1-1.5 0-2.3zM204.4 405.5v.5l-.1 1.5c-.1 1.3-.2 3.3-.3 5.6-.6 12.4.2 24.9 2.3 37.2.4 2.4.8 4.3 1 5.6.1.6.2 1.1.3 1.5 0 .2.1.4.1.5-.1-.2-.1-.3-.2-.5l-.4-1.5c-.3-1.3-.7-3.2-1.2-5.5-1.2-6.1-1.9-12.3-2.3-18.6-.4-6.2-.4-12.5 0-18.7.2-2.4.3-4.3.5-5.7.1-.6.1-1.1.2-1.5 0-.1.1-.3.1-.4zM212.5 433.9c-.1 1.2-.4 2.3-.6 3.5-.4 2.1-.9 5.1-1.3 8.3-.4 3.3-.5 6.3-.6 8.4 0 1.2 0 2.3-.2 3.5-.1-.3-.1-.6-.1-.9 0-.6-.1-1.5-.1-2.6 0-2.8.1-5.7.4-8.5.3-2.8.8-5.6 1.4-8.4.2-1.1.5-1.9.6-2.5.3-.2.4-.5.5-.8zM311.1 411.1c0 .2.1.3.1.5 0 .4 0 .8.1 1.4.1 1.3.1 3 .2 5.1.2 4.3.5 10.2 1.1 16.7.6 6.5 1.3 12.4 1.9 16.6.3 2.1.5 3.8.7 5 .1.5.1 1 .2 1.4v.5c-.1-.1-.1-.3-.1-.5-.1-.4-.2-.8-.3-1.3-.2-1.2-.5-2.9-.9-5-.7-4.2-1.5-10.1-2-16.6-.6-6.5-.9-12.4-1-16.7 0-2.1-.1-3.9 0-5.1v-1.4c-.1-.3-.1-.5 0-.6zM322.3 434.2c.1 0-.4 1.3-.9 3.4-.7 2.8-1.3 5.6-1.7 8.4-.3 2.8-.5 5.7-.4 8.5 0 2.2.1 3.5 0 3.6-.1-.3-.2-.6-.2-.9-.1-.6-.2-1.5-.2-2.6-.2-2.9-.1-5.8.3-8.6.4-2.9 1-5.7 1.8-8.4.3-1 .6-1.9.9-2.5.2-.6.4-.9.4-.9zM455.4 402.5c-.2.2-.3.3-.5.4l-1.5 1.1-1.1.8c-.4.3-.8.7-1.3 1-.9.8-2 1.5-3 2.6l-1.7 1.6c-.6.5-1.1 1.2-1.7 1.8-1.2 1.2-2.4 2.7-3.6 4.2-5.2 6.6-9.1 14.3-11.2 22.4-.4 1.9-.9 3.7-1.1 5.4-.1.8-.3 1.7-.4 2.5s-.2 1.6-.2 2.3c-.2 1.5-.1 2.8-.2 4v3c0 .8 0 1.4.1 1.9v.7c-.1-.2-.1-.4-.1-.7 0-.5-.1-1.1-.1-1.9 0-.4-.1-.9-.1-1.4v-1.6c0-1.2 0-2.5.1-4 .1-.7.1-1.5.2-2.3s.2-1.6.4-2.5c.2-1.7.7-3.5 1.1-5.4 1.1-4.1 2.6-8.1 4.5-11.9 1.9-3.8 4.2-7.4 6.9-10.7 1.3-1.5 2.4-2.9 3.7-4.2l1.8-1.8 1.7-1.6c1.1-1 2.2-1.8 3.1-2.5.5-.4.9-.7 1.3-1l1.1-.8 1.6-1c-.2-.2 0-.3.2-.4zM449.5 429.6c.1.1-1.5 1.2-3.7 3.3-1.3 1.2-2.5 2.6-3.7 4-1.4 1.7-2.7 3.5-3.8 5.4-1.1 1.9-2.1 3.9-3 5.9-.7 1.7-1.3 3.4-1.8 5.1-.9 3-1.1 4.9-1.2 4.8 0-.5 0-.9.1-1.3s.1-1 .3-1.5.3-1.3.5-2c.5-1.8 1-3.5 1.7-5.2 1.7-4.1 4-8 6.9-11.4 1.2-1.4 2.4-2.7 3.8-3.9.6-.5 1.1-1 1.6-1.3.4-.4.8-.7 1.3-1 .2-.5.6-.7 1-.9z"/></g><g id="Numbers--inject-33"><path class="st5" d="M204.5 427c-1.5 18.3-16.2 33.1-45.7 30.7-14.3-1.2-29-6.4-38.4-14.3l3.5-17.8 7.4.3c7.3 6.5 17.8 10.8 28.6 11.7 11.9 1 19.7-3.4 20.4-11.8.7-8.1-4.2-13.8-22.9-15.4l-26.4-2.2 10.1-57.6 62.9 5.1-1.6 19.2-43-3.5-3.2 19.5 8.4.7c30.4 2.5 41.4 17.2 39.9 35.4z"/><path d="M204.5 427c-1.5 18.3-16.2 33.1-45.7 30.7-14.3-1.2-29-6.4-38.4-14.3l3.5-17.8 7.4.3c7.3 6.5 17.8 10.8 28.6 11.7 11.9 1 19.7-3.4 20.4-11.8.7-8.1-4.2-13.8-22.9-15.4l-26.4-2.2 10.1-57.6 62.9 5.1-1.6 19.2-43-3.5-3.2 19.5 8.4.7c30.4 2.5 41.4 17.2 39.9 35.4z" class="st6"/><path class="st5" d="M197 426.4c-1.5 18.3-16.2 33.1-45.7 30.7-14.3-1.2-29-6.4-38.4-14.3l10.9-17.5c7.3 6.5 17.8 10.8 28.5 11.7 11.9 1 19.7-3.4 20.4-11.8.7-8.1-4.2-13.8-22.9-15.4l-26.4-2.2 10.1-57.6 62.9 5.1-1.6 19.2-43-3.5-3.2 19.5 8.4.7c30.5 2.5 41.5 17.1 40 35.4z"/><path d="m166 434.9 10.6 7.7 1.6 4.2.3-7.2-7.5-8.9c-1.2 1.9-2.9 3.4-5 4.2zM172.6 426.1s5.3 6.7 6.1 7c.8.3 12.2 3.4 12.2 3.4l2.3 3 1.8-4.5-2.5-1.8-10.3-2-9.5-9.1-.1 4zM172.1 419.9l9.6 3.6c.6-.4 10-1.3 11-1.5.9-.2 4.5 1 4.5 1l-.8-5.4-14.7 2.9-11.4-3.9 1.8 3.3zM188.8 402.7l-9.6 7.3-12.9 3.4 2.5 1.6 7.8-.6h10.7l7.8-2.7-1.5-2.9s-14 4-12.9 2.8c1.1-1.2 9.9-7.2 9.9-7.2l-1.8-1.7M182.5 397.9l-7 8.7-12.2 5.8-3-1.2 9.5-7.8 6.2-8.6c2.3.8 4.4 1.9 6.5 3.1zM124.6 403.6s5 3.4 7.8 3.4 17.1-5.7 17.1-5.7l12 .4 10.3-6.2-11 3-10.4-.8-12.1 3-12.2-6.1-1.5 9zM148.5 390l-12.5-2.4-9.4 2.3.9-4.8 11.4-.9 10.2 2.6zM129 376.3s14.2 5.1 16.1 5.2 4.9.7 4.9.7l.5-3-9.4-2.7-10.6-9.4-.4 4 4.4 4.5-5-1.9-.5 2.6zM131.7 361.3s11 7.6 13.9 7.5 10.1-.9 10.1-.9l20.3 4.5 9.5 1.2-22.3-8.2s-13-3.8-13.1-3.5c-.1.3-7.1.9-7.1.9l-9.7-9.6-1.6 8.1zM145.2 351.2l8.6 7.9 20.1 2.9 14.5 8.2-10.3-9.1-14.8-3.3-9.2-6.2zM115.8 438.9s9.2-2 10-1.8c.8.2 15.5 8.5 15.5 8.5s16.2-.4 16.8-.3c.6 0 11 6.7 11 6.7l-8.4-10-19.8-.4-10.7-10.3-10.9 1.3-3.5 6.3zM123 449s4.9-1.9 6.9-1.4c2.1.5 9.1 4.1 9.1 4.1l10.5-.5 10.5 1.4 9.5 3.5s-5.9.8-8.2 1.1l-6.3-2.7-13-.8-7.4.3-4.8-3.5-4.7-.2-2.1-1.3zM180.2 353.9l5.7 7.5 9.6 4.8.3-3.4-7.8-2.8-3.1-6z" class="st7"/><path class="st5" d="M217.1 407.6c-4.3-34.3 12.1-56.1 37.7-59.4 25.7-3.3 47 13.7 51.4 48 4.4 34.3-12 56.1-37.6 59.4s-47.1-13.7-51.5-48zm64.9-8.3c-3-23.6-12.6-32.3-24.6-30.8-12 1.5-18.9 12.4-15.9 36s12.6 32.3 24.4 30.8c12-1.5 19.1-12.4 16.1-36z"/><path d="M217.1 407.6c-4.3-34.3 12.1-56.1 37.7-59.4 25.7-3.3 47 13.7 51.4 48 4.4 34.3-12 56.1-37.6 59.4s-47.1-13.7-51.5-48zm64.9-8.3c-3-23.6-12.6-32.3-24.6-30.8-12 1.5-18.9 12.4-15.9 36s12.6 32.3 24.4 30.8c12-1.5 19.1-12.4 16.1-36z" class="st6"/><path class="st5" d="M208.4 409.6c-4.4-34.3 12.1-56.1 37.6-59.4 25.5-3.3 47 13.7 51.4 48s-12 56.1-37.6 59.4c-25.6 3.2-47-13.8-51.4-48zm64.8-8.3c-3-23.6-12.6-32.3-24.6-30.8-12 1.5-18.9 12.4-15.9 36s12.6 32.3 24.5 30.8c11.8-1.5 19-12.5 16-36z"/><path d="M236.8 454.5s9.3-4.1 10-4.3 14.7 2.5 14.7 2.5l12.1-5.1 9.3-.3 2.8-2.7-14.5-1.9-12.8 4.8-16.8-.8-9.5 5.5 4.7 2.3zM227 448.3l12.5-5.8 12.8.8-12.8-3.3-12.7 4-5-.8zM266.6 433.1s8.2.7 9.7.8 10.9-4.6 10.9-4.6l7.2 1 1-2.9-8.3-.8-10.9 5-6.9-1.6-2.7 3.1zM241.8 431.5l-6.9.1-9.2 2.7-10-.3-2.2-4.7 9.7.8 10.6-2.8 5.8 1.3zM272.8 421.1l9.2-.3 11.4-7.4 4.5 1s.3-5.4.1-8.2l-7.6 3.3-9.7 7.7-7.1.3c-.2 1.2-.5 2.4-.8 3.6zM236.4 422.3l-10 .3-7.8 1.1-7.8-1.9-.8-3.3 7.1 2.5 6.9-2.9 11.4 1.4zM208.4 409.6s7.3 3.3 8.5 3.1c1.2-.1 12.9-.4 12.9-.4l3.9.5-.6-3.3-8.9-1.2-8.5.2-8-6.7.7 7.8zM273.9 411.6l4.8-.9 9.1-7.9 5.7-8.1 3.6 1.8-.3-1.9-6.1-2.6-6.8 9.8-10.1 5zM222.9 360.3l9.5 5.7 14.2-4.9 15.6 4 11.4-4.8-13.2.4-11.4-3.6-15.5 4.4-5.2-5.2zM208 392.3s16.3 8.7 17 9.1c.7.4 7.2-.2 7.2-.2l-.1-3.8-6.1-.7-17-11.3-1 6.9zM270 387l5.2-5.7 15.7-5.9 2.4 5.6-13.6 3.2-7.7 11zM210.8 378.8l9.4 9 12.5-.3 1.3-4.7-10.5.3-10.1-10.5zM246.9 370.8l5-2.2 15.5.5 13.8-7.6 3.1 3.4-16.6 9.6-6.9-1.2c.1 0-4.7-4.3-13.9-2.5zM216.7 367.2s13.4 9.2 13.1 8.5-9.6-12.8-9.6-12.8l-3.5 4.3z" class="st7"/></g><g id="Dinosaur--inject-33"><path class="st5" d="m123.2 190.1.2-.1c-1.2 0-2.3.3-3.4.8-1 .5-1.9 1.1-2.8 1.8-1.8 1.4-3.3 3.1-5.2 4.3-3 1.9-6.5 2.6-10 2 1.6 2.8 5.2 3.8 8.4 3.4s6.1-2 8.9-3.5c4.7-2.3 9.6-4.4 14.5-6-2.9-2.4-6.8-3.4-10.6-2.7z"/><path d="m123.2 190.1.2-.1c-1.2 0-2.3.3-3.4.8-1 .5-1.9 1.1-2.8 1.8-1.8 1.4-3.3 3.1-5.2 4.3-3 1.9-6.5 2.6-10 2 1.6 2.8 5.2 3.8 8.4 3.4s6.1-2 8.9-3.5c4.7-2.3 9.6-4.4 14.5-6-2.9-2.4-6.8-3.4-10.6-2.7z" class="st8"/><path class="st4" d="M282.1 248.6s6.7 2.5 12.2.4 8.3-2.9 8.3-2.9l2.1-.1 1.4 12.8-3.8 4.6-2.3-2.7-.8-7.4s-11.2 2.3-18.7.3l1.6-5z"/><path class="st5" d="M395.6 287.9c8.1 15.7 3.4 36.2-23 49.8-13 6.7-28.2 10-40.5 8.3l-6.1-17.4 6-3.4c9.8 1.7 21.1-.3 30.8-5.3 10.8-5.5 15.1-13.3 11.2-20.9-3.6-7-11-8.7-23.2-2.5l-9.8 5-7.3-14.2 8-31.5-39.5 20.3-8.9-17.2 65-33.5 7.2 13.9-8.7 34.7c18-5.7 31.8.3 38.8 13.9z"/><path d="M395.6 287.9c8.1 15.7 3.4 36.2-23 49.8-13 6.7-28.2 10-33.2 8l-13.4-17 6-3.4c9.8 1.7 21.1-.3 30.8-5.3 10.8-5.5 15.1-13.3 11.2-20.9-3.6-7-11-8.7-23.2-2.5l-9.8 5-7.3-14.2 8-31.5-39.5 20.3-8.9-17.2 65-33.5 7.2 13.9-8.7 34.7c18-5.8 31.8.2 38.8 13.8z" class="st6"/><path class="st5" d="M389.6 291.3c8.1 15.6 3.4 36.2-23 49.8-13 6.7-28.2 10-40.5 8.3l-.1-20.8c9.8 1.7 21.1-.3 30.8-5.3 10.7-5.5 15.1-13.3 11.2-20.9-3.6-7-11-8.7-23.2-2.5l-9.8 5-7.3-14.2 8-31.5-39.7 20.6-8.9-17.2 65-33.5 7.2 13.9-8.7 34.7c18.2-6 32 0 39 13.6z"/><path d="m365.2 317.2 12.4 4.6 2.7 3.7-1.7-7-9.9-6.8c-.7 2-1.9 3.9-3.5 5.5zM369.3 309s7.8.8 8.5.7 12.1-4.1 12.1-4.1l3.1 1.5c.1-1.9 0-3.7-.2-5.6l-3.4.4-9.7 4.2-11-1.9c.6 1.6.8 3.2.6 4.8zM366.4 300l10.2-3.3c.2-.7 7.6-6.8 8.3-7.5.8-.6 1.8-1 2.8-1.2-1.1-1.6-2.2-3.2-3.1-3.7l-9.6 9.8-11.8 3.2c1.2.7 2.3 1.6 3.2 2.7zM365.5 275.4l-3.8 11.4-8.6 10c1.2-.3 2.4-.5 3.6-.6l5.3-4.2 9-6.1 5.9-7.6c-1.1-.5-2.2-1-3.4-1.4 0 0-9.9 12-9.6 10.4s4.2-11.6 4.2-11.6l-2.6-.3M356.8 276l-1 11.6-5.8 10-5.2 2.3 4.4-11.8 1.5-10.5c2-.6 4-1.2 6.1-1.6zM338.9 289.1l-9.5 5.5 2.1 3.9 9.8-7.1 5-11zM351.9 272.9l-11.8 5.2-12.3 12.1 2-8 10.8-8.6 12.2-4.4zM354.6 261.8s-12.4 5.4-14.4 5.7c-1.9.3-8 5-8 5l1.7-6.7 10-3.6 14.3-14.5-1.3 4.8-6.3 8.3 4.9-2.3-.9 3.3zM293.5 274.7s13.5.1 15.8-1.5 7.9-6.5 7.9-6.5l19.6-7.7 8.6-4.4-23.3 5.8s-13.1 4.2-12.9 4.5c.1.3-5.4 4.8-5.4 4.8l-14.3-2.6 4 7.6zM297.1 257.4l13.6 2.9 18.4-9 16.7-1.4-13.7-1.7-14.2 5.6-12.2-.8zM326 343s7.7-6.2 8.5-6.4 17.8 1.1 17.8 1.1 14.6-7.3 15.2-7.5c.5-.2 12.9 1.4 12.9 1.4l-12-5.5-18.2 8.2-14.2-4.8-10 6.3v7.2zM326.1 349.3s5.7-5.7 7.8-6c2.1-.3 10.1.5 10.1.5l9.7-4.4 10.4-2.5 10.1-.3s-4.8 3.1-7 4.2l-7-.3-12.5 4.1-6.8 3-5.9-1.6-5.7 3.8-3.2-.5zM329.8 240.9l9 3.1 16.4-1.7-7.3-2.7-8.1 2.1-6-3.3z" class="st7"/><path class="st9" d="m244.5 197.2-6.4-32s-31.9-60-40.3-81.3-2-83.9-2-83.9c-44.3 47.9-36.2 113-36.2 113 33.1 37.3 27.6 76.5 27.6 76.5l57.3 7.7zM180.2 75c-1-.4-1.5-1.6-1.1-2.6.1-.2.2-.4.3-.5l2-2.3c1.9-2.3 5.5-2 7.7-2.1s3 8.9-.4 9.6c-2.1.4-5.9-1-8.5-2.1z"/><path d="M188 189.4s23.1 4 26.7 1.3c3.6-2.7 10.6-11.7 10.6-11.7l10.8-17.6-9.1-17.5s2.2 24.6-8.6 30.7-30.8 8.2-30.8 8.2l.4 6.6z" class="st8"/><g class="st7"><path class="st2" d="M187.8 176.7c10.5-5.7 20.4-12.4 29.6-20 1.1-.9 2.2-2.4 1.3-3.5-.7-.8-1.9-.6-2.9-.3l-28.9 8.5c-.6.1-1.1.4-1.5.8-.3.6-.4 1.3-.1 2l2.9 13.5"/></g><g class="st7"><path class="st2" d="M212.6 116.8c-2.4 5.2-5.2 11-10 14.7s-10.4 6.2-16.1 8.3c-1.5.6-3.3 1.5-3.2 3s2.1 2.1 3.7 2.4c11.5 1.5 23.1-.3 33.6-5.2.9-.3 1.7-.9 2.1-1.8.2-.8 0-1.6-.4-2.3-2.2-4.7-6.6-12.4-9.7-19.1"/></g><g class="st7"><path class="st2" d="M174.4 132.5c3.5 6.5 9.2-10.9 13.4-17 1-1.3 1.8-2.8 2.3-4.4.5-1.6 0-3.4-1.2-4.6-1.3-1-3.1-1.3-4.6-.8-1.5.5-3 1.3-4.4 2.2-6 3.4-12.8 5.2-19.6 5.1-.2-.1 10.7 13.3 14.1 19.5z"/></g><g class="st7"><path class="st2" d="M197.2 82c-3.6 1-7.4 4.1-11.4 5s-8.2 1.2-12 2.7c-1.5.6-3.2 1.9-2.9 3.5s2.1 2.1 3.6 2.4c9.4 1.6 19 1.6 28.4-.2-2.2-5-3.8-8.1-5.7-13.4"/></g><g class="st7"><path class="st2" d="M160.9 76c9-4.5 17.3-10 24.9-16.6.7-.5 1.3-1.2 1.6-2 .4-.8.1-1.8-.6-2.3-.6-.3-1.3-.3-1.9-.1l-20.6 4.3c-1.5 5.9-2.6 11.5-3.4 16.7"/></g><g class="st7"><path class="st2" d="M193.5 43c-5.9-.5-11.5-2.5-16.3-6 4.3-4.1 10.6-5.6 16.6-6.9-.2 4-.3 9.2-.3 12.9"/></g><path class="st4" d="M189.3 189c-.7-13.1-1.4-26.4-5.6-38.8-4.8-14.1-13.9-26.3-24.1-37.1 17.6 20.8 27 49 25.8 76.3l3.9-.4z"/><path class="st9" d="M409.7 55c-65-4-114.5 17.5-149.7 62.4 0 0-25.8 51.6-36.6 64.6-10.5 12.7-32 17.5-32 17.5l58.7 27.8 6.2 9.1 25.8 17.2s10.1-17.9 3.7-36.1c-13.3-38.2 9.4-55.8 9.4-55.8 7.7-23.3 24.1-42.7 45.8-54.2C355.2 76 409.7 55 409.7 55zm-119.3 96.1c-.9.7-2.2.7-3-.1-.8-.8-.8-2.1-.1-3l.5-.4c1-.6 2.4-.3 3 .7.5 1 .3 2.1-.4 2.8zm6.3-8.9c-2.2.5-6-1-8.6-2.1-1-.4-1.5-1.6-1.1-2.6l.3-.6 2-2.3c1.9-2.3 5.5-2 7.7-2.1s3.1 9-.3 9.7z"/><g class="st7"><path class="st2" d="M279.4 104.8c1.6 1.7 3.8 2.6 6 2.6 2.3 0 4.5-.4 6.7-1.1 10.3-2.9 20.4-6.8 30-11.5 1.2-.6 2.7-1.9 2-3.1-.5-.7-1.4-1-2.2-.9-6.5-.5-15-1-21.5-1.5l-21 15.5z"/></g><g class="st7"><path class="st2" d="M373.8 67.4s-11.3-5.7-8.8-6.8 16-1.8 16-1.8l-7.2 8.6z"/></g><g class="st7"><path class="st2" d="M325.1 73c6 8.5 15 14.4 25.2 16.4 1 .4 2.2.2 3.1-.3 1.3-1.1.7-3.2-.1-4.8l-6.6-13.2c-.5-1.4-1.5-2.6-2.7-3.4-1.6-.8-2.7 0-4.9.7-4.8 1.7-14 4.6-14 4.6"/></g><path class="st9" d="M300.1 251.7c-.8-.1-1.6-.3-2.4-.5 0 0-9.9 5.1-13.8 3.6-3.9-1.5-19.6-15.9-17.9-25.7 5.3-5.8 8.6-14.3-4.2-23.4-23-16.4-68.9-16.6-68.9-16.6-5.4-.3-10.8-.2-16.3.2-8.5.6-15.6-3.2-18-4.6-2.4-1.4-11.3-8.8-11.3-8.8s30-20.1 29.4-20.7c-.6-.6-43.4 15.1-43.4 15.1S79.7 196.6 74 201.9c-4.9 4.6-3.3 5.3-3.3 5.3 23.8-13.2 50.8-16.6 52.9-16.7 2.1 0 4.2.2 6.3.8 0 0-3.9 1.2-16.9 9.4-9 5.7-24.4 14.7-27.9 17.4s-3.3 3.1-1 3.6 41.6-15.5 47.3-17.7c6.5-2.6 16.2-5.8 16.2-5.8 9.3 8.4 31.6 19.7 31.6 19.7s19.9 5 34.5 3.9c15.5.7 27.2 2.7 40 11.6 0 0 13.6 22.5 23.6 25.7 5.7 2 11.9 1.9 17.5-.3l1.1 7.7 2.1 2.3 4.6-2.7c.1-.1-2.2-2.9-2.5-14.4z"/><path class="st2" d="M137.3 181.7c.2 2.3-1.6 4.3-3.9 4.5-2.3.2-4.3-1.6-4.5-3.9-.2-2.3 1.6-4.3 3.9-4.5 2.3-.1 4.3 1.6 4.5 3.9z"/><path class="st4" d="M136.5 181.8c.1 1.9-1.3 3.6-3.2 3.7s-3.6-1.3-3.7-3.2c-.1-1.9 1.3-3.6 3.2-3.7 2-.2 3.6 1.3 3.7 3.2zM95.8 192.1c-.2.1 8-5.6 8.3-5.1s-.2 2.9-8.3 5.1zM299.2 268.7s2.9 3.7 3.1 3.6c.2-.1 4.8 0 4.8 0l-6.3-5.3-1.6 1.7z"/><path class="st4" d="M300.5 267.3s3.1 3.5 3.3 3.4c.2-.1 4.8-.1 4.8-.1l-6.3-5.3-1.8 2z"/><path class="st4" d="M301.8 266.3s3.9 2.6 4.1 2.5c.2-.2 4.5-1.5 4.5-1.5l-7.5-3.2-1.1 2.2z"/><g class="st10"><path class="st2" d="M172.7 209c-.7.8-.6 2.1.2 2.8.2.1.3.3.5.3 2.6 1.1 6.5 2.6 8.6 2.1 3.4-.7 2.6-9.7.4-9.6-2.2.1-5.8-.2-7.7 2.1-.7.9-1.4 1.7-2 2.3z"/></g><g class="st7"><path class="st2" d="M151.1 191.9c.1.6.7 1.1 1.4.9.1 0 .2-.1.3-.1 1.4-.8 3.5-2 4.1-3.2.9-1.8-3.5-4.7-4.2-3.7s-2.2 2.6-1.9 4.3c.1.7.2 1.3.3 1.8z"/></g><g class="st7"><path class="st2" d="M137.3 188c-.7.8-.6 2.1.2 2.8.2.1.3.3.5.3 2.5 1.1 6.5 2.6 8.6 2.1 3.4-.7 2.6-9.7.4-9.6-2.2.1-5.8-.2-7.7 2.1l-2 2.3z"/></g><g class="st10"><path class="st2" d="M192.3 212.6c-.3-.4-.6-.7-1-.9-.8-.5-1.9-.2-2.4.6-.1.1-.1.2-.1.3-.2.5-.2 1-.1 1.6.3 1 1.1 1.8 2 2.3.4.3 1 .4 1.4.2.5-.2.8-.7.9-1.2.1-1-.1-2.1-.7-2.9z"/></g><g class="st10"><path class="st2" d="M178.5 201.2c-.1-.2-.3-.4-.5-.5-.4-.3-1-.1-1.3.3 0 .1-.1.1-.1.2-.1.3-.1.5-.1.8.2.5.6 1 1.1 1.2.2.1.5.2.8.1.2-.1.4-.4.5-.6.1-.6 0-1.1-.4-1.5z"/></g><g class="st10"><path class="st2" d="M166.7 204.6c.1 1.1-.1 3.1.7 3.5.7.4 1 .3 2.3 0s2.8-.6 2.5-2.1.1-2.4-.9-2.8-4.7.5-4.6 1.4z"/></g><g class="st10"><path class="st2" d="M184.1 214.7c0 .4 0 1.2.3 1.4.3.2.4.1.9 0s1.1-.2 1-.8 0-.9-.4-1.1c-.3-.2-1.8.1-1.8.5z"/></g><g class="st7"><path class="st2" d="M117.9 182.5c.1 1.1-.1 3.1.7 3.5s1 .3 2.3 0 2.8-.6 2.5-2.1.1-2.4-.9-2.8-4.7.5-4.6 1.4z"/></g><path class="st4" d="M105.7 186.4c.1 0 .2.4.1 1.1-.2.8-.7 1.6-1.3 2.2-.6.6-1.4 1-2.1 1.3-.6.2-1 .3-1 .3s.3-.3.8-.6c.7-.4 1.4-.8 2-1.3.6-.5 1-1.2 1.3-1.9.2-.7.2-1.1.2-1.1zM84.6 221.2s.1-.1.3-.2l.8-.5 3-1.9 11.2-6.9 16.7-10.2c3.2-2.1 6.6-4 10.1-5.6 1.9-.8 3.8-1.5 5.9-1.9 1-.2 2.1-.4 3.1-.5.5 0 1-.1 1.5-.2.4-.1.8-.4 1-.8.1-.4 0-.9-.3-1.2-.3-.3-.8-.6-1.3-.6-1-.2-2-.2-3-.1-2 .2-4 .7-5.8 1.6-3.5 1.7-6.8 3.6-10 5.7l-16.7 10.3L90 215l-3.1 1.9-.8.5-.3.1c.1-.1.2-.1.3-.2l.8-.5 3-1.9 11.2-7 16.6-10.4c3.2-2.1 6.6-4.1 10.1-5.8 1.9-.9 3.9-1.4 6-1.6 1.1-.1 2.1-.1 3.2.1.6.1 1.1.4 1.5.8.4.5.6 1.1.4 1.7-.2.6-.8 1-1.4 1.1-.5.1-1.1.2-1.6.2-1 .1-2.1.2-3.1.5-2 .4-3.9 1.1-5.8 1.9-3.5 1.6-6.9 3.4-10.1 5.5L100.2 212l-11.4 6.8-3.1 1.8-.8.5-.3.1z"/><path class="st4" d="M90.4 217.5c-.1.1-.8-.2-1-1s0-1.5.1-1.4.1.6.3 1.3.7 1 .6 1.1zM94.8 214.6c0 .1-.8 0-1.2-.8s-.1-1.4 0-1.4.1.6.4 1.1.9.9.8 1.1zM100 211.8c-.1 0-.4-.5-.8-1.1s-.8-1.1-.7-1.2.7.2 1.1.9.5 1.4.4 1.4zM104.7 208.7c-.1 0-.4-.4-1-.9s-1-.8-1-.9.7 0 1.3.6.9 1.1.7 1.2zM110.5 205.4c-.1.1-.5-.3-1.1-.8s-1-.9-.9-1 .7.1 1.2.6.9 1.1.8 1.2zM114.7 203.1c-.1 0-.4-.6-.8-1.2s-.9-1-.9-1.2.8.2 1.3.9.5 1.5.4 1.5zM121.6 198.6c-.1 0-.3-.6-.7-1.3s-.9-1.1-.8-1.2.8.2 1.2.9.5 1.6.3 1.6zM127.7 195.6c-.1 0-.1-.6-.4-1.2s-.8-1-.7-1.1.8.1 1.2.9c.3.7 0 1.4-.1 1.4zM133.8 193.9c-.1 0 0-.9-.5-1.8-.4-.9-1.1-1.5-1-1.6s1 .3 1.5 1.4c.5 1.1.1 2.1 0 2zM140.2 182.9c0 .1-.2-.1-.6-.1-.5.1-1.1.3-1.4.7-.6.6-1.1 1.3-1.5 2-.7.9-1.7 1.5-2.8 1.6-1.1.1-2.2-.1-3.1-.7-.8-.5-1.4-1.1-1.9-1.8-.5-.6-.9-1.3-1.1-2.1.1 0 .4.8 1.3 1.9.5.6 1.1 1.2 1.9 1.6.9.5 1.9.7 2.9.6 1-.1 1.9-.6 2.5-1.4.5-.7 1-1.4 1.6-2 .5-.4 1.1-.6 1.7-.6.3.1.5.3.5.3zM138.6 181.2c-.6-.6-1.1-1.2-1.6-1.8-.6-.6-1.3-1.1-2.1-1.5-.9-.5-2-.5-3-.1-.9.5-1.7 1.2-2.4 2-.6.7-1.4 1.2-2.3 1.4-.6.1-1.3 0-1.8-.3-.4-.3-.5-.5-.4-.5s.2.2.5.4c.5.2 1.1.3 1.6.1.8-.3 1.5-.7 2.1-1.4.7-.9 1.6-1.6 2.5-2.2 1.1-.5 2.3-.4 3.4.1.8.4 1.5 1 2.1 1.7.4.5.7.9 1.1 1.5l.3.6z"/><path class="st4" d="M140.7 183.7s0 .2-.2.6c-.2.6-.5 1.1-.9 1.6-2.5 3.4-7.3 4.2-10.8 1.8-.5-.3-1-.7-1.4-1.2-.3-.3-.4-.5-.4-.6s.6.7 1.9 1.5c3.4 2.1 7.9 1.4 10.4-1.7.6-.7 1-1.3 1.4-2zM92.3 193.2c1.5-1.2 3-2.3 4.7-3.2 1.6-1.1 3.2-2 4.9-2.8-1.5 1.2-3 2.3-4.7 3.2-1.5 1.1-3.1 2-4.9 2.8z"/><path d="M205.7 207.2c12.5 5.1 27 4.1 39.6 9 8.4 3.3 15.6 9.1 21.5 15.9 5.8 6.7 11 13.8 15.6 21.3-2.4-10-4.9-20.1-10-29s-13.7-16.4-23.7-18.7c-13.8-3-34 6.9-42.5 1.1" class="st8"/><path class="st4" d="M282.5 253.4c0-.1-.1-.2-.1-.3-.1-.2-.1-.5-.2-.8-.2-.7-.4-1.7-.8-3-.7-2.6-1.7-6.4-3.1-11-1.7-5.4-4-10.5-6.8-15.4-3.5-5.9-8.6-10.8-14.7-14.1-3.1-1.7-6.5-2.8-10-3.3-3.3-.4-6.6-.4-9.9.1-6.3.7-11.9 2.2-16.6 2.9-2.1.3-4.3.5-6.5.4-1.7-.1-3.3-.4-4.9-.9-1-.3-1.9-.8-2.8-1.3l-.7-.5-.2-.2c1.2.8 2.4 1.4 3.7 1.8 1.6.5 3.2.7 4.8.8 2.2 0 4.3-.1 6.4-.5 4.7-.8 10.3-2.2 16.7-3 3.3-.5 6.7-.5 10-.1 3.6.5 7 1.7 10.2 3.4 6.2 3.4 11.3 8.3 14.8 14.4 2.8 4.9 5.1 10.1 6.8 15.5 1.5 4.6 2.4 8.4 3 11 .3 1.3.5 2.3.7 3l.2.8c-.1.2 0 .3 0 .3z"/><path d="M206 206.8c11-3.9 22.4-8.2 30.2-16.9 12.6-14 12.9-36.1 25.4-50.3 1.1-1.2 2.4-2.4 4-2.5 1 0 2.1.4 3.1.4 2.4 0 4.2-2.1 5.6-4 2.6-3.5 5.1-9.5 2.8-13.1-.8-1.2-8.3 1.9-8.9.6s3-5.3 1.9-5.7c-8.2 9.1-11.2 13.3-16.8 20.2-6.9 8.4-9.3 20.4-13.9 30.3-7.4 15.9-19.5 29.1-34.6 38" class="st7"/><path class="st4" d="M195.3 200.9c1.8 3.5 5 5.6 10.4 5.9 0 0 27.8-19.6 30-21.4s19.7-49.1 22-51.6 9.3-13.2 9.3-13.2l.9-4.5s-12.3 10.9-13.2 12.6-24.7 45.7-31.3 51.9c-7.6 7.1-16.3 19.7-28.1 20.3z"/><path class="st4" d="M260.1 125.4c.3-.2 7.7-9.3 7.7-9.3 33.2-40 82.3-60.7 141.8-61-58.2 4.4-108.5 23.5-140.4 62.3l-5.7 7.8-3.4.2zM340.9 107.4c-.3.1-.5.2-.8.3l-2.3.7c-1 .3-2.2.7-3.7 1s-3.1.8-4.9 1.2c-7.3 1.8-17.5 3.7-28.7 5.9-5.6 1.1-11 2.2-15.8 3.3-2.4.6-4.7 1.1-6.8 1.7l-3.1.8-2.8.8c-1.8.5-3.4 1-4.8 1.5l-2 .6-1.6.6-2.3.8c-.3.1-.5.2-.8.2.3-.1.5-.2.8-.3l2.2-.9 1.6-.6 2-.7c1.4-.5 3-1 4.8-1.6l2.8-.9 3.1-.8c2.1-.6 4.4-1.1 6.8-1.7 4.8-1.1 10.2-2.2 15.8-3.3 11.2-2.1 21.4-4 28.7-5.7 1.8-.4 3.5-.8 4.9-1.2s2.7-.7 3.7-.9l2.3-.6c.3-.1.6-.1.9-.2zM295.1 161.7c-.2-.1-.5-.2-.7-.4-.4-.2-1.1-.6-1.9-1.1-2.4-1.3-4.8-2.3-7.3-3.2-3.7-1.4-7.6-2.2-11.5-2.6-1.1-.1-2.2-.1-3.4-.1s-2.4.1-3.5.3c-2.5.3-4.9 1-7.2 2-4.4 2-8.2 5.1-11.1 9-1.3 1.7-2.5 3.4-3.6 5.2-1.1 1.7-2 3.3-2.8 4.8-1.7 2.9-3.1 5.3-4 6.9-.5.8-.9 1.4-1.2 1.9-.1.2-.3.4-.4.6.1-.2.2-.5.4-.7l1.1-1.9 3.9-7c.8-1.5 1.7-3.1 2.8-4.8 1.1-1.8 2.3-3.6 3.6-5.3 2.9-4 6.8-7.1 11.3-9.2 2.3-1 4.8-1.7 7.3-2l3.6-.3c1.2 0 2.3 0 3.5.1 4 .4 7.9 1.3 11.6 2.7 2.5.9 5 2.1 7.3 3.4.8.4 1.4.9 1.9 1.1 0 .3.2.4.3.6zM198.8 200.7c-.4.3-.9.5-1.4.5-1.2.3-2.4.3-3.6.1-1.2-.2-2.3-.6-3.4-1.2-.8-.5-1.2-.9-1.2-.9 1.5.7 3 1.3 4.6 1.6 1.7.2 3.4.1 5-.1zM154.2 194.6s-.1.1-.4.2-.7.3-1.2.6c-1.1.5-2.7 1.1-4.7 1.9-3.9 1.6-9.4 3.7-15.5 6l-15.6 5.9-4.7 1.7c-1.1.4-1.7.6-1.7.6s.1-.1.4-.2.7-.3 1.2-.6c1.1-.5 2.7-1.1 4.7-1.9 4-1.6 9.4-3.7 15.5-6l22-8.2zM413 289c.2.5.4 1 .5 1.6.1.5.3 1.1.5 1.9s.4 1.6.5 2.5c.4 2.2.7 4.4.8 6.6.1 2.7.1 5.4-.1 8.1-.2 2.7-.6 5.4-1.2 8-.5 2.2-1.1 4.3-1.8 6.4-.3.9-.6 1.7-.9 2.4s-.5 1.3-.8 1.8c-.2.5-.5 1-.7 1.5.1-.5.3-1 .6-1.5.2-.5.4-1.1.7-1.8s.6-1.5.8-2.4c.7-2.1 1.3-4.2 1.7-6.4.6-2.6.9-5.3 1.2-8 .2-2.7.2-5.4.1-8.1-.1-2.2-.3-4.4-.7-6.6-.1-.9-.3-1.8-.4-2.5-.1-.7-.3-1.4-.4-1.9-.3-.6-.4-1.1-.4-1.6zM421.1 319.5c-.1 0 .4-1.4.9-3.7 1.3-6 1.3-12.2 0-18.2-.5-2.3-1-3.7-.9-3.7.2.3.3.6.4.9.3.9.6 1.8.8 2.7 1.5 6 1.5 12.3 0 18.3-.2.9-.5 1.8-.8 2.7-.1.3-.3.7-.4 1zM286.9 298.7c-.2 0-.5 0-.7-.1-.6-.1-1.3-.3-1.9-.5-.9-.3-1.8-.7-2.6-1.2-2-1.3-3.7-3-4.9-5-.5-.8-.9-1.7-1.2-2.6-.2-.6-.4-1.2-.5-1.9-.1-.5-.1-.7 0-.7s.3 1 .9 2.5c.4.9.8 1.7 1.3 2.5.6 1 1.3 1.8 2.1 2.7.8.8 1.7 1.5 2.6 2.2.8.5 1.6.9 2.5 1.3 1.5.6 2.5.7 2.4.8zM291.7 297.2c-.8-.1-1.6-.4-2.4-.8-1.8-.8-3.5-2-5-3.4s-2.7-3-3.6-4.8c-.4-.7-.7-1.5-.9-2.4.1 0 .4.9 1.2 2.2 2 3.5 4.9 6.3 8.5 8.1 1.3.7 2.2 1 2.2 1.1z"/></g><g id="Sign--inject-33"><path class="st9" d="M72.2 246.4v118.7l-13.4-13-6.3 3s14 19 19.7 26.5v76.3h16.6V246.4H72.2z"/><path class="st9" d="M186.9 297.4 10.7 335.9.5 289l176.2-38.4 3.5 16.1-7.1 8.3 9.3 1.6z"/><path class="st4" d="M176.7 250.6s-.3.1-.9.2l-2.6.6-10 2.3-37.3 8.2L.5 289.5l.3-.5c1.6 7.7 3.3 15.8 5 24l4.9 23.5-.5-.3 125.7-27.7 37.4-8.2 10.1-2.2 2.6-.5.9-.2s-.3.1-.9.2l-2.6.6-10.1 2.3-37.3 8.4-125.6 28-.4.1-.1-.4L5 313.1c-1.7-8.2-3.4-16.3-5-24v-.3l.4-.1 125.4-27.2 37.3-8 10.1-2.1 2.6-.5.9-.3z"/><path class="st4" d="m183.1 284.1-1.8.3c-1.2.2-3 .4-5.3.9-6.4 1.3-12.7 3.1-18.9 5.3-7.8 2.7-16.9 6.6-27.1 10.7-5.1 2-10.5 4-16.2 5.9-5.9 1.9-11.9 3.3-18 4.1-6.1.8-12.3 1-18.5.7-6-.2-11.7-.8-17.2-1.2s-10.7-.7-15.6-.6c-4.5.1-9 .5-13.5 1.3-6.5 1.1-12.7 3.4-18.2 6.9-.9.5-1.7 1.1-2.5 1.8-.6.4-1.2.9-1.8 1.4-.9.8-1.4 1.2-1.4 1.2s.5-.4 1.4-1.3c.5-.4 1-.9 1.8-1.4.8-.6 1.6-1.2 2.5-1.8 5.6-3.5 11.8-5.9 18.3-7 4.5-.8 9-1.3 13.5-1.4 4.9-.1 10.1.2 15.6.5s11.2.9 17.2 1.2c6.1.4 12.3.1 18.4-.7 6.1-.8 12.1-2.2 18-4.1 5.7-1.8 11.1-3.8 16.2-5.8 10.2-4.1 19.3-7.9 27.1-10.6 6.2-2.2 12.5-3.9 18.9-5.2 2.3-.5 4.1-.6 5.3-.8l1.8-.3zM178.1 266s-.6-.1-1.9-.3l-5.3-.8c-6.5-1-13.1-1.7-19.6-2.1-8.3-.3-18.4-.1-28.9 3.2-.7.2-1.3.4-2 .6l-2 .8c-1.3.5-2.6 1.1-3.9 1.7-2.6 1.3-5.2 2.7-7.7 4.3-5.1 3.2-10.1 7-15.3 10.6-5 3.6-10.4 6.8-16 9.5-5.2 2.4-10.7 4.5-16.2 6.2-9.4 2.7-19 4.7-28.7 5.9-8.3 1.1-15 1.6-19.7 2-4.7.4-7.2.5-7.2.5s.6-.1 1.9-.2l5.4-.5c4.7-.4 11.4-1 19.7-2.1 9.7-1.2 19.3-3.2 28.7-5.9 5.5-1.7 10.9-3.7 16.2-6.2 5.6-2.7 11-5.8 16-9.4 5.2-3.6 10.2-7.4 15.3-10.6 2.5-1.6 5.1-3 7.7-4.3 1.3-.6 2.6-1.2 3.9-1.7l2-.8c.7-.2 1.3-.4 2-.7 10.6-3.3 20.7-3.5 29-3.2 6.6.4 13.1 1.1 19.7 2.2 4.4.9 6.9 1.3 6.9 1.3z"/><path class="st4" d="m93.1 270.2-.7.7-2.1 2-1.5 1.4c-.6.5-1.2 1-1.9 1.6-1.4 1.1-2.9 2.5-4.8 3.7l-2.9 2.1c-1 .7-2.1 1.3-3.2 2.1-2.2 1.5-4.7 2.8-7.3 4.2-5.8 3-11.8 5.4-17.9 7.4-6.2 1.9-12.5 3.2-18.9 4-3 .3-5.8.6-8.4.7-1.3 0-2.6.1-3.8.1l-3.5-.1c-2.2 0-4.3-.2-6-.4-.9-.1-1.7-.1-2.5-.2l-2.1-.3-2.9-.4c-.6-.1-1-.2-1-.2l1 .1 2.9.4 2.1.3c.8.1 1.6.1 2.5.2 1.8.1 3.8.3 6 .3l3.5.1c1.2 0 2.5-.1 3.8-.1 2.6 0 5.4-.4 8.4-.7 6.4-.8 12.8-2.2 19-4 6.1-2 12.1-4.4 17.8-7.3 2.6-1.4 5.1-2.7 7.3-4.2 1.1-.7 2.2-1.3 3.2-2l2.9-2c1.9-1.3 3.4-2.6 4.8-3.7.7-.6 1.3-1.1 1.9-1.6l1.6-1.4c.9-.8 1.6-1.4 2.1-1.9s.6-.9.6-.9zM34.9 327.1c-.5.6-1.3.9-2.1.9-.9 0-1.8.2-2.6.5-.5.2-.9.6-1 1.2-.2.6.1 1.2.7 1.4h.1c.7.1 1.3.1 2-.1.7-.1 1.4-.3 2.2-.5 1.6-.4 3.1-1 4.5-1.8.8-.4 1.4-1 1.9-1.8s.6-1.7.3-2.5c-.4-.9-1-1.6-1.9-2-.9-.4-1.9-.6-2.8-.7-3.8-.3-7.6.1-11.2 1.3-2.9.9-5.8 2.2-8.5 3.6-2.3 1.2-4.2 2.4-5.4 3.1l-1.4.9c-.3.2-.5.3-.5.3 2.3-1.7 4.7-3.2 7.2-4.5 2.7-1.5 5.6-2.8 8.5-3.7 3.6-1.2 7.5-1.6 11.3-1.3 1 .1 2 .3 2.9.8.9.4 1.6 1.2 2 2.1.4.9.2 2-.3 2.8-.5.8-1.2 1.4-2 1.8-1.5.8-3 1.4-4.6 1.8-.8.2-1.5.4-2.2.5-.7.2-1.4.2-2.1.1-.3-.1-.6-.3-.8-.7-.1-.3-.2-.7 0-1 .2-.6.6-1 1.1-1.3.9-.3 1.8-.4 2.7-.4.6 0 1.1-.2 1.6-.5.1-.1.2-.2.4-.3z"/><path class="st4" d="M46 283c-.3.2-.6.3-.9.3-.9.2-1.8-.1-2.5-.8l-.1-.1.1-.1c2.6-1.4 5.4-2.4 8.4-2.7 2-.3 4-.3 5.9 0 .5.1 1 .4 1.4.8.4.4.5 1.1.3 1.7-.6 1.1-1.9 1.4-2.9 1.8-5.5 2-11.4 3-17.3 2.9-2.4 0-4.9-.3-7.2-.8h.5l1.4.2c7.6.9 15.3 0 22.5-2.6 1-.4 2.2-.7 2.7-1.6.2-.4.1-1-.2-1.3-.4-.3-.8-.6-1.3-.7-1.9-.3-3.9-.3-5.8-.1-2.9.4-5.7 1.2-8.3 2.6v-.1c.6.6 1.5.9 2.4.8.3-.1.6-.1.9-.2zM182.3 290.3c-.3.1-.6.2-.9.2-.6.1-1.5.3-2.5.5-2.8.6-5.5 1.5-8.1 2.7-2.6 1.2-5.1 2.6-7.4 4.2-.9.6-1.6 1.2-2.1 1.5-.2.2-.5.4-.8.6.2-.2.4-.5.7-.7.5-.4 1.1-1 2-1.6 4.7-3.5 10-5.8 15.7-6.9 1.1-.2 2-.4 2.6-.4.2 0 .5-.1.8-.1zM178.5 258.6c-.2.1-.4.1-.7.1H176c-2-.1-4-.4-5.9-.9-1.9-.5-3.8-1.3-5.5-2.3-.5-.3-1-.6-1.5-1-.2-.1-.4-.3-.5-.4 0 0 .8.5 2.1 1.2 1.7.9 3.6 1.7 5.5 2.2 1.9.5 3.8.9 5.8 1 1.6.1 2.5.1 2.5.1z"/><path class="st2" d="m64.8 296.3.6 2.7-11.4 2.5-3.1-14.7 11.1-2.3.6 2.7-7.8 1.6.7 3.2 6.8-1.4.6 2.6-6.8 1.4.7 3.4 8-1.7zM77.4 296.5l-3.7-3.5h-.2l-3 .6.9 4.1-3.4.7-3.1-14.7 6.4-1.3c3.9-.8 6.8.7 7.5 4 .5 2-.3 4.1-2 5.3l4.3 4-3.7.8zm-5.7-11.3-2.8.6 1.1 5.1 2.8-.6c2.1-.4 2.9-1.6 2.6-3.2-.3-1.5-1.6-2.3-3.7-1.9zM92.9 293.2l-3.7-3.5H89l-3 .6.9 4.1-3.4.7-3.1-14.7 6.4-1.3c3.9-.8 6.8.7 7.5 4 .5 2-.3 4.1-2 5.3l4.3 4-3.7.8zM87.2 282l-2.8.6 1.1 5.1 2.8-.6c2.1-.4 2.9-1.6 2.6-3.2-.4-1.6-1.7-2.4-3.7-1.9zM96.5 284.8c-.9-4.4 1.8-8.3 6.4-9.3s8.7 1.5 9.6 5.9c.9 4.4-1.8 8.3-6.4 9.3-4.6 1-8.7-1.5-9.6-5.9zm12.6-2.7c-.6-2.5-3.1-4.1-5.6-3.5-2.5.6-4.1 3.1-3.5 5.6.6 2.5 3 4.1 5.5 3.5 2.5-.5 4.1-2.9 3.7-5.3 0 0-.1-.2-.1-.3zM126 286.2l-3.7-3.5h-.2l-3 .6.9 4.1-3.4.7-3.1-14.7 6.4-1.3c3.9-.8 6.8.7 7.5 4 .5 2-.3 4.1-2 5.3l4.3 4-3.7.8zm-5.7-11.2-2.8.6 1.1 5.1 2.8-.6c2.1-.4 2.9-1.6 2.6-3.2-.3-1.6-1.6-2.4-3.7-1.9zM27.7 321.3l.2-.9c1.1.6 2.4.8 3.6.5 1.9-.4 2.5-1.4 2.3-2.4-.6-2.8-6.5.2-7.2-3.5-.3-1.5.6-3 3.1-3.6 1.1-.2 2.3-.2 3.3.2l-.2.9c-.9-.4-2-.5-3-.3-1.8.4-2.5 1.4-2.3 2.4.6 2.8 6.5-.2 7.2 3.5.3 1.5-.6 3-3.2 3.6-1.1.4-2.6.3-3.8-.4zM43.5 315.6l-6.4 1.3c.4 1.5 2 2.4 3.6 2 .9-.2 1.7-.7 2.1-1.5l.7.5c-1.2 1.9-3.7 2.5-5.7 1.3-.9-.6-1.6-1.5-1.8-2.5-.4-2 .9-4 2.9-4.5 2-.4 4 .9 4.5 2.9 0 .3.1.4.1.5zm-6.5.6 5.4-1.1c-.4-1.5-1.9-2.3-3.4-1.9-1.4.3-2.3 1.6-2 3zM48.5 310.2l.2 1h-.2c-1.6.3-2.3 1.6-2 3.4l.8 3.9-1 .2-1.6-7.6 1-.2.3 1.5c.3-1.3 1.3-2.1 2.5-2.2zM57.1 308.5l-1.8 8.3-1 .2-5-6.9 1.1-.2 4.2 5.9 1.5-7.1 1-.2zM57.8 305.8c-.1-.4.2-.8.6-.9.4-.1.8.1.9.5.1.4-.2.8-.6.9-.4.1-.8-.1-.9-.5zm.8 2.3 1-.2 1.6 7.6-1 .2-1.6-7.6zM62.5 311.2c-.5-2 .8-4.1 2.8-4.6.1 0 .2 0 .3-.1 1.2-.3 2.4 0 3.3.9l-.7.7c-.7-.6-1.6-.9-2.5-.7-1.6.3-2.7 2-2.3 3.6s2 2.7 3.6 2.3c.9-.1 1.7-.7 2-1.6l.9.4c-.4 1.1-1.5 1.9-2.7 2.1-2 .5-4.1-.7-4.7-2.7.1-.1 0-.2 0-.3zM78 308.3l-6.4 1.3c.4 1.5 2 2.4 3.5 2 .9-.2 1.7-.7 2.1-1.5l.7.5c-1.2 1.9-3.7 2.5-5.6 1.4-.9-.6-1.6-1.5-1.8-2.5-.5-2 .6-4 2.6-4.6.1 0 .2 0 .3-.1 2-.5 4 .8 4.4 2.8 0 .1 0 .2.1.3 0 .2.1.3.1.4zm-6.5.6 5.4-1.1c-.4-1.5-2-2.3-3.5-1.8-1.3.3-2.1 1.6-1.9 2.9zM89.9 301.5l1.6 7.6-1 .2-.3-1.4c-.4 1.1-1.3 1.8-2.4 2-1.6.5-3.3-.4-3.8-1.9-.1-.2-.1-.4-.1-.6L83 303l1-.2.9 4.3c.3 1.6 1.3 2.3 2.8 2 1.4-.2 2.3-1.5 2.1-2.9 0-.1-.1-.3-.1-.4l-.8-4 1-.3zM100.4 302.6l.9 4.4-1 .2-.9-4.3c0-1.2-1.1-2.1-2.2-2.1-.2 0-.4 0-.5.1-1.4.2-2.4 1.5-2.2 2.9 0 .1.1.3.1.4l.8 4-1 .2-1.6-7.6 1-.2.3 1.4c.4-1.1 1.4-1.9 2.6-2.1 1.6-.4 3.2.6 3.6 2.2.1.2.1.4.1.5zM108.9 300.5l1 4.7-1 .2-.2-1.2c-.4 1-1.3 1.7-2.4 1.8-1.7.4-3-.3-3.2-1.6s.3-2.3 2.5-2.8l2.4-.5-.1-.5c-.1-1-1.1-1.8-2.1-1.7-.2 0-.3.1-.5.1-.9.2-1.8.7-2.3 1.4l-.6-.7c.7-.9 1.8-1.5 2.9-1.7 1.9-.2 3.2.5 3.6 2.5zm-.5 2.7-.3-1.2-2.4.5c-1.5.3-1.8 1-1.7 1.8.2.8 1 1.3 2.2 1 1.1-.3 2-1.1 2.2-2.1zM117.3 295.7l-1.8 8.3-1.1.2-5-6.9 1.1-.2 4.2 5.9 1.5-7.1 1.1-.2zM124.9 297.1l1 4.7-1 .2-.2-1.2c-.4 1-1.3 1.7-2.4 1.8-1.7.4-3-.3-3.2-1.6s.3-2.3 2.5-2.8l2.4-.5-.1-.5c-.1-1.1-1.1-1.8-2.1-1.7-.1 0-.3.1-.4.1-.9.2-1.8.7-2.3 1.4l-.6-.7c.7-.9 1.8-1.5 2.9-1.7 1.8-.1 3.1.6 3.5 2.5zm-.5 2.7-.3-1.2-2.4.5c-1.5.3-1.8 1-1.7 1.8.2.8 1 1.3 2.2 1 1.2-.2 2-1.1 2.2-2.1zM126.3 291.3c-.1-.4.2-.8.6-.9.4-.1.8.1.9.5.1.4-.2.8-.6.9-.4.2-.8-.1-.9-.5zm.8 2.4 1-.2 1.6 7.6-1 .2-1.6-7.6zM130.3 289.7l1-.2 2.3 10.7-1 .2-2.3-10.7zM141.2 293.7l1 4.7-1 .2-.2-1.2c-.4 1-1.3 1.7-2.4 1.8-1.7.4-3-.3-3.2-1.6-.2-1.3.3-2.3 2.5-2.8l2.4-.5-.1-.5c-.1-1-1.1-1.8-2.1-1.7-.2 0-.3.1-.5.1-.9.2-1.8.7-2.4 1.4l-.6-.7c.7-.9 1.8-1.5 2.9-1.7 2-.2 3.3.5 3.7 2.5zm-.5 2.6-.3-1.2-2.4.5c-1.5.3-1.8 1-1.7 1.8.2.8 1 1.3 2.2 1 1.2-.2 2-1 2.2-2.1zM151.9 292.4c.5 2-.7 4.1-2.7 4.6-.1 0-.2 0-.3.1-1.2.3-2.4-.1-3.3-1l.3 1.5-1 .2-2.2-10.7 1-.2 1 4.6c.4-1.1 1.4-1.9 2.6-2.1 2-.5 4 .8 4.5 2.8.1 0 .1.1.1.2zm-1 .2c-.4-1.5-2-2.5-3.5-2.1-1.5.4-2.5 2-2.1 3.5.4 1.5 1.9 2.4 3.4 2.1 1.5-.3 2.5-1.8 2.2-3.3v-.2zM152.5 285l1-.2 2.2 10.7-1 .2-2.2-10.7zM164.6 290l-6.4 1.3c.4 1.5 2 2.4 3.5 2 .9-.2 1.7-.7 2.1-1.5l.7.5c-1.2 1.9-3.7 2.5-5.6 1.4-.9-.6-1.6-1.5-1.8-2.5-.4-2 .9-4 2.9-4.5 2-.4 4 .9 4.5 2.9 0 .2.1.3.1.4zm-6.5.6 5.4-1.1c-.4-1.5-1.9-2.3-3.4-1.9-1.4.3-2.2 1.6-2 3z"/></g></svg>