<svg version="1.1" id="Layer_1" xmlns="http://www.w3.org/2000/svg" x="0" y="0" viewBox="0 0 663.4 423.1" style="enable-background:new 0 0 663.4 423.1" xml:space="preserve"><style>.st0{fill:#f5f5f5}.st1{fill:#ebebeb}.st2{fill:#e0e0e0}.st3{fill:#0061f2}.st4{fill:#fff}.st5{fill:#263238}.st6{fill:#455a64}.st7{fill:#fafafa}.st8{fill:#a36957}.st9{fill:#7c3b29}.st10{opacity:.3}.st11{opacity:.4}</style><g id="background-complete--inject-35"><path class="st0" d="M306.8 66.9c2.6-1.6 5.4-2.8 8.2-3.6l1.7-8.2 13.8-.2 2 8.1c2.9.7 5.7 1.8 8.4 3.3l7-4.6 9.9 9.6-4.3 7.1c1.6 2.6 2.8 5.4 3.6 8.3l8.2 1.7.2 13.8-8.1 2c-.7 2.9-1.8 5.7-3.3 8.4l4.6 7-9.6 9.9-7.1-4.3c-2.6 1.6-5.4 2.8-8.3 3.6L332 137l-13.8.2-2-8.1c-2.9-.7-5.7-1.8-8.4-3.3l-7 4.6-9.9-9.6 4.3-7.1c-1.6-2.6-2.8-5.4-3.6-8.3l-8.2-1.7-.3-13.9 8.1-2c.7-2.9 1.8-5.7 3.3-8.4l-4.6-7 9.6-9.9 7.3 4.4zm7.4 18.4c-5.7 5.9-5.5 15.3.4 20.9 5.9 5.7 15.3 5.5 20.9-.4 5.7-5.9 5.5-15.3-.4-20.9-5.9-5.6-15.2-5.5-20.9.4z"/><path class="st0" d="M314.2 85.3c.8-1 1.7-1.8 2.8-2.4 2.9-1.9 6.3-2.7 9.7-2.3 2.3.2 4.6 1 6.6 2.3 2.3 1.5 4.1 3.6 5.3 6 1.3 2.7 1.8 5.7 1.4 8.7-.9 6.6-5.9 11.9-12.5 12.9-1.5.3-3.1.3-4.6.1-1.5-.2-2.9-.6-4.2-1.2-2.5-1.1-4.6-2.9-6.2-5.1-1.4-1.9-2.2-4.2-2.6-6.5-.5-3.4.2-6.8 1.9-9.7.7-1 1.5-2 2.4-2.8.1.1-.9 1-2 3-1.6 2.9-2.2 6.2-1.7 9.5.8 4.9 4 9 8.5 11 2.6 1.1 5.5 1.5 8.3 1 6.2-1.1 11-6 11.8-12.2.4-2.8-.1-5.7-1.3-8.3-2.1-4.4-6.4-7.5-11.2-8.1-3.3-.4-6.6.3-9.4 2-2.1 1.2-3 2.2-3 2.1z"/><path class="st0" d="M306.8 66.9c-.2-.1-.3-.1-.5-.2l-1.4-.8-5.4-3.2h.2l-9.5 10v-.3l4.6 7 .1.1-.1.1a34.8 34.8 0 0 0-3.2 8.3v.2h-.2l-8.1 2 .2-.3c.1 4.3.2 9 .3 13.8l-.3-.3 8.2 1.7h.2l.1.2c.8 2.9 2 5.6 3.6 8.2l.1.2-.1.2c-1.3 2.2-2.8 4.6-4.3 7.1l-.1-.5 10 9.6-.5-.1c2.2-1.4 4.6-3 7-4.6l.2-.1.2.1c2.6 1.4 5.4 2.5 8.3 3.2l.2.1.1.2c.6 2.5 1.3 5.3 2 8.1l-.4-.3 13.8-.2-.4.3c.5-2.6 1.1-5.4 1.7-8.2v-.2l.2-.1c2.9-.8 5.6-2 8.1-3.5l.2-.1.2.1 7.1 4.3-.5.1 9.6-9.9v.5c-1.5-2.4-3.1-4.7-4.6-7l-.1-.2.1-.2c1.5-2.6 2.5-5.4 3.3-8.3l.1-.2h.2l8.1-2-.3.4c-.1-4.7-.2-9.3-.2-13.8l.3.4-8.2-1.7-.2-.1-.1-.2c-.8-2.9-2-5.6-3.5-8.2l-.1-.2.1-.2 4.3-7.1v.4l-9.9-9.6h.4l-7 4.6-.1.1-.2-.1c-2.6-1.5-5.4-2.6-8.3-3.3h-.2V63c-.7-3-1.4-5.6-2-8.1l.2.2-13.8.2.2-.2c-.7 3.3-1.3 5.9-1.8 8.2v.1h-.1c-2.2.6-4.3 1.4-6.3 2.4l-1.5.8c.1.1-.1.2-.3.3.2-.2.4-.3.5-.4.3-.2.8-.5 1.5-.8 2-1.1 4.1-1.9 6.3-2.6l-.1.1 1.6-8.2v-.2h.1l13.8-.3h.2v.2l2 8.1-.2-.2c3 .7 5.8 1.8 8.5 3.3h-.3l7-4.6.2-.1.2.2c3.1 3 6.5 6.2 10 9.6l.2.2-.1.2-4.3 7.1v-.4c1.6 2.6 2.8 5.4 3.6 8.3l-.3-.3 8.2 1.7.3.1v.3c.1 4.5.2 9.1.2 13.8v.3l-.3.1-8.1 2 .3-.3c-.8 3-1.9 5.9-3.4 8.6v-.4l4.6 7 .2.3-.2.2-9.6 9.9-.2.2-.3-.2-7.1-4.3h.4c-2.6 1.6-5.4 2.8-8.4 3.6l.3-.3c-.6 2.8-1.2 5.6-1.7 8.2l-.1.3h-.3l-13.8.2h-.3l-.1-.3-2-8.1.3.3c-3-.7-5.8-1.9-8.5-3.4h.4l-7 4.6-.3.2-.2-.2-9.9-9.6-.2-.2.1-.2 4.3-7.1v.4c-1.6-2.6-2.8-5.4-3.6-8.4l.3.2-8.2-1.7-.3-.1v-.3c-.1-4.9-.1-9.5-.2-13.8v-.2l.2-.1 8.1-2-.2.2c.7-2.9 1.9-5.8 3.3-8.4v.2c-1.6-2.5-3.2-4.9-4.5-7l-.1-.2.1-.1 9.6-9.9.1-.1.1.1 5.3 3.3 1.4.9c.3.3.4.4.6.5z"/><path class="st1" d="M56.9 330.1c4.9-2.5 10.7-2.9 16.2-2 2.9.5 6 1.4 8 3.6s2.4 6.1.1 8c-1.5 1-3.3 1.5-5.1 1.3-4.3 0-9-.8-12.5 1.8-2 1.5-3.2 3.9-5.6 4.6-2.4.6-4.9-.5-6.1-2.7-1.1-2.2-1.4-4.7-.7-7 .7-3.3 2.8-6.1 5.7-7.6zM45.6 308.3c3 4.3 8.9 2.9 11.6.2s3.9-6.4 4.9-10.1c2.4-8.3 4.8-17 3-25.5-.4-2.6-1.6-5-3.3-6.9-1.8-2-4.4-2.9-7-2.3-3 .8-4.8 3.7-6.1 6.4-3.9 8.1-6 17-6 26 0 4.3.5 8.7 2.9 12.2M37.3 314.4c3.3-3.9 3.9-9.5 2.4-14.4s-4.8-9-8.5-12.4c-4.5-4-9.7-7-15.3-9-2.2-.9-4.5-1.3-6.9-1.2-2.4.1-4.5 1.4-5.8 3.5-1.6 3.1-.1 6.8 1.6 9.8 2.9 5.3 6.3 10.5 10 15.3 3 3.9 6.5 7.7 11 9.5s9.4 1.5 11.8-1.6"/><path class="st2" d="M45.4 373.2c.2-.6.3-1.3.3-2 .1-1.4.3-3.2.5-5.3.3-2.6.7-5.2 1.2-7.8.7-3.1 1.6-6.2 2.8-9.2 1.2-3 2.8-5.8 4.7-8.4 1.6-2.1 3.7-3.8 6-5 1.6-.8 3.3-1.3 5-1.6.7 0 1.3-.1 1.9-.3-.7-.1-1.3-.1-2 0-1.8.1-3.6.6-5.2 1.4-2.5 1.2-4.6 2.9-6.3 5-2 2.6-3.7 5.5-4.9 8.5-1.2 3-2.2 6.2-2.8 9.4-.5 2.6-.8 5.3-1 7.9-.2 2.3-.2 4.1-.3 5.4 0 .7 0 1.3.1 2z"/><path class="st2" d="M45.7 369.1v-3.5c0-2.2 0-5.5.1-9.5.2-8 .9-16.7 2.2-28.9 1.3-11.5 3-24.9 4.8-33.5.4-2 .8-3.8 1.1-5.3s.6-2.9.9-4l.6-2.5c.1-.3.1-.6.2-.9-.1.3-.3.6-.3.9-.2.6-.4 1.5-.8 2.5s-.7 2.4-1.1 4-.8 3.3-1.3 5.3c-2.2 10.3-3.9 20.7-5 31.1-1.3 12.2-1.9 23.4-2 31.5 0 4 0 7.3.1 9.6.1 1 .1 1.9.2 2.6.2 0 .3.3.3.6z"/><path class="st2" d="M45.8 347.6c.1-.9.1-1.8 0-2.7-.1-1.8-.3-4.3-.8-7.4-.6-3.6-1.4-7.2-2.4-10.7-1.2-4.3-2.7-8.6-4.5-12.7-3.1-7.6-7.6-14.5-13.1-20.5-1-1-2-2-3.1-2.9-.5-.4-.9-.8-1.3-1.1l-1.2-.8c-.7-.5-1.5-1-2.3-1.5-.1.2 3.2 2.2 7.5 6.7 5.4 6 9.7 12.9 12.8 20.4 1.8 4.1 3.3 8.3 4.5 12.5 1.2 3.9 1.9 7.5 2.5 10.6s.9 5.5 1.1 7.3c0 1 .1 1.9.3 2.8zM25 385.5l2.2 29.5h37.9l2.1-29.5zM21.4 373.9h50.4v11.6H21.4z"/><path class="st1" d="M21.4 413.9v3.2h49.5v-3.2z"/><path class="st2" d="m26 422.8-2.3-5.7h45.4l-2.7 5.7z"/><path class="st0" d="M66.5 395.2c0 .1-.1.2-.2.3l-.6.8-2.2 2.8-.1.1-.1-.1-5.4-7.5h.3l-5.3 7.6-.2.2-.2-.2-6.3-7.5h.4l-.3.4-5.7 7.1-.2.2-.2-.2-5.3-7.6h.3l-6.6 7.5-.1.1-.1-.1-2.1-3.5c-.2-.4-.4-.7-.5-.9-.1-.1-.1-.2-.2-.3.1.1.2.2.2.3l.6.9c.5.8 1.2 2 2.2 3.4h-.2l6.5-7.6.2-.2.2.2 5.4 7.6h-.4l5.7-7.1.3-.4.2-.2.2.2L53 399h-.3l5.4-7.5.2-.2.2.2 5.3 7.6h-.2l2.3-2.8.6-.7c-.1-.3 0-.4 0-.4zM67.8 385.3c0 .1-9.5.2-21.2.2s-21.2-.1-21.2-.2 9.5-.2 21.2-.2 21.2.1 21.2.2zM69.7 417.4c0 .1-10.3.2-23.1.2s-23.1-.1-23.1-.2 10.3-.2 23.1-.2 23.1.1 23.1.2z"/><path class="st2" d="m545.9 389.4-2.3-9.5c-3.4-.8-6.7-2.1-9.8-3.9l-8.2 5.4-11.7-11.2 5-8.4c-1.8-3-3.2-6.3-4.2-9.6l-9.6-2-.3-16.2 9.5-2.3c.8-3.4 2.1-6.7 3.8-9.8l-5.4-8.2 11.3-11.8 8.3 5.1c3-1.8 6.3-3.2 9.7-4.2l2-9.6 16.2-.3 2.3 9.5c3.4.8 6.7 2.1 9.8 3.9l8.2-5.4 11.7 11.2-5.1 8.3c1.8 3 3.2 6.3 4.2 9.7l9.6 2 .3 16.2-9.5 2.3c-.8 3.4-2.1 6.7-3.8 9.8l5.4 8.2-11.2 11.8-8.3-5.1c-3 1.8-6.3 3.2-9.7 4.2l-2 9.6-16.2.3zm-12.1-13.5c3.1 1.7 6.4 3 9.8 3.9l2.3 9.5 16.1-.3 2-9.6c3.4-1 6.6-2.4 9.7-4.2l8.3 5.1 11.2-11.6-5.3-8.2c1.7-3.1 3-6.4 3.8-9.8l9.5-2.3-.3-16.1-9.6-2c-1-3.4-2.4-6.7-4.2-9.7l5.1-8.3-11.6-11.3-8.2 5.4c-3.1-1.7-6.4-3-9.8-3.9l-2.3-9.5-16.1.3-2 9.6c-3.4 1-6.6 2.4-9.7 4.2l-8.4-5.1-11.1 11.6 5.3 8.2c-1.7 3.1-3 6.4-3.8 9.8l-9.5 2.3.3 16.1 9.6 2c1 3.4 2.4 6.6 4.2 9.7L514 370l11.6 11.2 8.2-5.3zm19.9-17.9c-9.6.1-17.4-7.6-17.5-17.2-.1-9.6 7.6-17.4 17.2-17.5h.3c9.6-.1 17.4 7.6 17.5 17.2.1 9.6-7.6 17.4-17.2 17.5h-.3zm0-34.7h-.3c-9.6.1-17.3 7.9-17.2 17.5.1 9.6 7.9 17.3 17.5 17.2h.3c9.6-.1 17.3-7.9 17.2-17.5-.1-9.6-8-17.3-17.5-17.2z"/><path class="st1" d="M541.2 328.5c.9-1.1 2-2.1 3.2-2.8 3.3-2.2 7.4-3.1 11.3-2.7 2.7.3 5.4 1.2 7.7 2.7 2.7 1.7 4.8 4.2 6.2 7 1.6 3.2 2.1 6.7 1.7 10.2-1 7.7-7 13.9-14.7 15.2-1.8.3-3.6.4-5.3.1-1.7-.2-3.4-.7-4.9-1.4-2.9-1.3-5.4-3.4-7.2-6-4-5.6-4.2-13.1-.7-19 .7-1.2 1.6-2.3 2.7-3.3.1.1-1 1.1-2.4 3.5-1.9 3.4-2.5 7.3-1.9 11.1.4 2.6 1.4 5.1 3 7.2 1.8 2.4 4.2 4.4 6.9 5.6 1.5.7 3.1 1.1 4.7 1.3 1.7.2 3.4.2 5.1-.1 7.2-1.2 12.9-7 13.8-14.3.2-1.7.2-3.4-.1-5.1-.2-1.6-.7-3.2-1.5-4.6-2.5-5.2-7.5-8.7-13.2-9.5-3.8-.5-7.7.3-11 2.3-2.3 1.6-3.3 2.7-3.4 2.6z"/><path class="st1" d="M532.6 307c-.2-.1-.4-.2-.5-.3l-1.6-.9-6.3-3.7h.2l-11.1 11.7v-.3l5.4 8.2.1.1-.1.2c-1.7 3.1-3 6.3-3.8 9.8v.2h-.2l-9.5 2.4.3-.4c.1 5.1.2 10.5.3 16.2l-.3-.4 9.6 2h.2l.1.2c1 3.4 2.4 6.6 4.2 9.6l.1.2-.1.2-5 8.4-.1-.5 11.7 11.2-.6-.1 8.2-5.4.2-.2.2.1c3.1 1.7 6.3 3 9.7 3.8l.3.1.1.3c.7 3 1.5 6.2 2.3 9.5l-.5-.4 16.2-.3-.5.4c.6-3 1.3-6.3 2-9.6l.1-.3.3-.1c3.3-1 6.6-2.4 9.5-4.1l.3-.1.3.1 8.4 5.1-.6.1 11.2-11.6-.1.6-5.3-8.2-.2-.2.1-.3c1.7-3 3-6.3 3.8-9.7l.1-.3.3-.1 9.5-2.3-.4.5c-.1-5.5-.2-10.9-.3-16.2l.4.4-9.6-2h-.3l-.1-.3c-.9-3.4-2.3-6.6-4.1-9.6l-.1-.2.1-.2 5.1-8.4.1.5-11.6-11.3h.5l-8.2 5.3-.2.1-.2-.1c-3.1-1.7-6.3-3-9.7-3.9h-.2v-.2l-2.3-9.5.3.2-16.2.2.2-.2-2 9.6v.1h-.1c-2.6.7-5 1.7-7.4 2.8l-1.7.9-.6.3c.2-.1.4-.3.5-.4.4-.2.9-.6 1.7-1 2.4-1.3 4.8-2.3 7.4-3l-.1.1c.5-2.6 1.2-5.8 1.9-9.6v-.2h.2l16.2-.4h.2l.1.2 2.4 9.5-.2-.2c3.5.8 6.8 2.1 9.9 3.9h-.4l8.2-5.4.3-.2.2.2 11.6 11.3.2.2-.2.3-5.1 8.4v-.5c1.9 3.1 3.3 6.3 4.3 9.8l-.3-.3 9.6 2 .3.1v.4c.1 5.3.2 10.7.3 16.2v.4l-.4.1-9.5 2.3.4-.4c-.9 3.5-2.2 6.8-3.9 9.9v-.5c1.8 2.7 3.6 5.4 5.4 8.2l.2.3-.3.3-11.2 11.6-.3.3-.3-.2-8.4-5.1h.5c-3.1 1.8-6.4 3.3-9.8 4.2l.3-.4c-.7 3.3-1.4 6.5-2 9.6l-.1.4h-.4l-16.2.3h-.4l-.1-.4c-.8-3.3-1.6-6.5-2.3-9.5l.3.4c-3.5-.9-6.8-2.2-9.9-3.9h.5l-8.2 5.4-.3.2-.3-.3-11.6-11.2-.3-.2.2-.3 5.1-8.4v.5c-1.8-3.1-3.3-6.4-4.2-9.8l.3.3-9.6-2-.3-.1v-.3c-.1-5.7-.2-11.1-.2-16.2v-.3l.3-.1 9.5-2.3-.2.2c.9-3.5 2.2-6.8 3.9-9.9v.3c-1.9-3-3.7-5.7-5.3-8.2l-.1-.2.1-.1 11.3-11.5.1-.1.1.1 6.2 3.8 1.6 1c-.1.5.1.6.3.7z"/><path class="st2" d="M610.3 272.8c1.6-1 3.3-1.7 5.1-2.2l1-5 8.5-.1 1.2 5c1.8.4 3.5 1.1 5.2 2l4.3-2.8 6.1 5.9-2.7 4.4c1 1.6 1.7 3.3 2.2 5.1l5 1 .2 8.5-5 1.2c-.4 1.8-1.1 3.5-2 5.2l2.8 4.3-5.9 6.1-4.4-2.7c-1.6 1-3.3 1.7-5.1 2.2l-1 5-8.5.1-1.2-5c-1.8-.4-3.5-1.1-5.2-2l-4.3 2.8-6.1-5.9 2.7-4.4c-1-1.6-1.7-3.3-2.2-5.1l-5-1-.2-8.5 5-1.2c.4-1.8 1.1-3.5 2-5.2l-2.8-4.3 5.9-6.1 4.4 2.7zm4.6 11.3c-3.5 3.6-3.4 9.4.2 12.9s9.4 3.4 12.9-.2 3.4-9.4-.2-12.9-9.4-3.4-12.9.2z"/><path class="st2" d="M614.9 284.1c.5-.6 1.1-1.1 1.7-1.5 1.8-1.2 3.9-1.6 6-1.4 3.2.3 5.9 2.3 7.3 5.1.4.8.7 1.7.8 2.6.2.9.2 1.9 0 2.8-.5 4.1-3.7 7.3-7.7 8-.9.2-1.9.2-2.8 0-.9-.1-1.8-.4-2.6-.7-1.5-.7-2.8-1.8-3.8-3.1-2.1-3-2.2-6.9-.4-10 .5-.7.9-1.3 1.5-1.8l-1.2 1.8c-1 1.8-1.3 3.8-1 5.9.2 1.4.8 2.7 1.6 3.8.9 1.3 2.2 2.3 3.7 3 1.6.7 3.4.9 5.1.6 3.8-.6 6.8-3.7 7.3-7.6.1-.9.1-1.8 0-2.7-.1-.8-.4-1.7-.8-2.4-.7-1.4-1.8-2.7-3.1-3.5-1.2-.8-2.5-1.3-3.9-1.4-2-.3-4.1.2-5.8 1.2-.7.4-1.3.9-1.9 1.3z"/><path class="st2" d="M610.3 272.8c-.1 0-.2-.1-.3-.1l-.8-.5-3.3-2h.1l-5.9 6.2v-.2l2.8 4.3v.2c-.9 1.6-1.6 3.3-2 5.1v.1h-.1l-5 1.2.2-.2c0 2.7.1 5.5.2 8.5l-.2-.2 5 1h.1v.1c.5 1.8 1.2 3.5 2.2 5l.1.1-.1.1-2.7 4.4v-.3l6.2 5.9h-.3l4.3-2.8.1-.1.1.1c1.6.9 3.3 1.6 5.1 2h.2v.1c.4 1.6.8 3.3 1.2 5l-.2-.2 8.5-.1-.2.2c.3-1.6.7-3.3 1-5v-.1h.2c1.8-.5 3.4-1.2 5-2.2l.1-.1.1.1 4.4 2.7h-.3l5.9-6.1v.3c-1-1.5-1.9-2.9-2.8-4.3l-.1-.1.1-.1c.9-1.6 1.6-3.3 2-5.1v-.1h.2l5-1.2-.2.2c0-2.9-.1-5.8-.1-8.5l.2.2-5-1.1h-.1v-.2c-.5-1.8-1.2-3.5-2.2-5l-.1-.1.1-.1 2.7-4.4v.3l-6.1-5.9h.2l-4.3 2.8-.1.1h-.1c-1.6-.9-3.3-1.6-5.1-2h-.2v-.1c-.4-1.8-.8-3.5-1.2-5l.2.1-8.5.1.1-.1c-.4 2-.8 3.7-1.1 5-1.3.4-2.7.9-3.9 1.5l-.9.5-.4.1.2-.3c.2-.1.5-.3.9-.5 1.2-.7 2.5-1.2 3.9-1.6l-.1.1 1-5v-.1h.1l8.5-.2h.2v.1c.4 1.5.8 3.2 1.2 5l-.1-.1c1.8.4 3.6 1.1 5.2 2h-.2l4.3-2.8.1-.1.1.1 6.2 5.9.1.1-.1.1-2.7 4.4v-.2c1 1.6 1.7 3.3 2.2 5.2l-.2-.2 5 1h.2v.2c0 2.8.1 5.6.2 8.5v.2h-.2l-5 1.2.2-.2c-.4 1.8-1.1 3.6-2.1 5.2v-.1c.9 1.4 1.9 2.9 2.8 4.3l.1.2-.1.1-5.9 6.1-.2.1-.2-.1-4.4-2.7h.2c-1.6 1-3.3 1.7-5.2 2.2l.2-.2c-.4 1.7-.7 3.5-1 5v.2h.3l-8.5.1h-.3v-.2l-1.2-5 .2.2c-1.8-.5-3.6-1.1-5.2-2.1h.3l-4.3 2.8-.2.1-.1-.1-6.1-5.9-.1-.1.1-.2 2.7-4.4v.2c-1-1.6-1.7-3.3-2.2-5.2l.2.1-5-1.1h-.2v-.2c0-3-.1-5.8-.1-8.5v-.1h.2l5-1.2-.1.1c.5-1.8 1.2-3.6 2.1-5.2v.1l-2.8-4.3-.1-.1.1-.1c2.4-2.5 4.4-4.5 6-6.1h.1l3.2 2 .8.5-.2.8zM385.9 27.4c1.6-1 3.3-1.7 5.1-2.2l1-5 8.5-.2 1.2 5c1.8.4 3.5 1.1 5.2 2l4.3-2.8 6.1 5.9-2.7 4.4c1 1.6 1.7 3.3 2.2 5.1l5 1 .1 8.5-5 1.2c-.4 1.8-1.1 3.5-2 5.2l2.8 4.3-5.9 6.1-4.4-2.7c-1.6 1-3.3 1.7-5.1 2.2l-1 5-8.5.2-1.2-5c-1.8-.4-3.5-1.1-5.2-2l-4.3 2.8-6.1-5.9 2.7-4.4c-1-1.6-1.7-3.3-2.2-5.1l-5-1-.1-8.5 5-1.2c.4-1.8 1.1-3.5 2-5.2l-2.8-4.3 5.9-6.1 4.4 2.7zm4.5 11.3c-3.5 3.6-3.4 9.4.2 12.9s9.4 3.4 12.9-.2 3.4-9.4-.2-12.9-9.3-3.4-12.9.2z"/><path class="st2" d="M390.4 38.7c.5-.6 1.1-1.1 1.7-1.5 1.8-1.1 3.9-1.6 6-1.4 1.4.2 2.8.6 4 1.4 1.4.9 2.5 2.2 3.3 3.7.8 1.7 1.1 3.5.9 5.4-.5 4.1-3.7 7.3-7.7 8-1.8.3-3.7.1-5.4-.7-1.5-.7-2.8-1.8-3.8-3.2-2.1-3-2.2-6.9-.4-10 .4-.6.8-1.2 1.4-1.7-.5.6-.9 1.2-1.3 1.9-1 1.8-1.3 3.8-1 5.9.5 3 2.4 5.5 5.2 6.8.8.4 1.6.6 2.5.7.9.1 1.8.1 2.7-.1 3.8-.6 6.8-3.7 7.3-7.6.2-1.7 0-3.5-.8-5.1-.7-1.4-1.8-2.7-3.1-3.6-1.2-.8-2.5-1.3-3.9-1.4-2-.3-4.1.2-5.8 1.2-1.2.8-1.7 1.4-1.8 1.3z"/><path class="st2" d="M385.9 27.4c-.1 0-.2-.1-.3-.2l-.8-.5-3.3-2h.1l-5.9 6.2v-.2l2.8 4.3v.2c-.9 1.6-1.6 3.3-2 5.1v.1h-.1l-5 1.2.1-.2c0 2.7.1 5.5.2 8.5l-.2-.2 5 1h.1v.1c.5 1.8 1.2 3.4 2.2 5l.1.1-.1.1-2.7 4.4v-.3l6.1 5.9h-.3c1.4-.9 2.8-1.8 4.3-2.8l.1-.1.1.1c1.6.9 3.3 1.6 5.1 2h.1v.2c.4 1.6.8 3.3 1.2 5l-.2-.2 8.5-.2-.2.2c.3-1.6.7-3.3 1-5V65h.1c1.8-.5 3.4-1.2 5-2.2l.1-.1.1.1 4.6 2.8h-.3l5.9-6.1v.5l-2.8-4.3-.1-.1.1-.1c.9-1.6 1.6-3.3 2-5.1v-.2h.1l5-1.2-.2.2c0-2.9-.1-5.8-.1-8.5l.2.2-5-1h-.1v-.1c-.5-1.8-1.2-3.4-2.2-5l-.1-.1.1-.1 2.7-4.4v.3l-6.1-6.1h.2l-4.3 2.8-.1.1-.1-.1c-1.6-.9-3.3-1.6-5.1-2h-.1V25c-.4-1.8-.8-3.5-1.2-5l.1.1-8.5.1.1-.1c-.4 2-.8 3.7-1.1 5-1.3.4-2.6.9-3.9 1.5l-.9.5c-.1.1-.2.1-.3.2.1-.1.2-.1.3-.2.2-.1.5-.3.9-.5 1.2-.7 2.5-1.2 3.9-1.6l-.1.1c.3-1.4.6-3 1-5.1v-.1h.1l8.5-.2h.1v.1c.4 1.5.8 3.2 1.2 5l-.1-.1c1.8.4 3.6 1.1 5.2 2h-.2l4.3-2.8.1-.1.1.1 6.1 5.9.1.1-.1.2-2.7 4.4v-.2c1 1.6 1.7 3.4 2.2 5.2l-.2-.2 5 1h.2v.2c0 2.8.1 5.6.2 8.5v.2h-.2l-5 1.2.2-.2c-.4 1.8-1.1 3.6-2.1 5.2v-.3l2.9 4.4.1.2-.1.2-5.9 6.1-.1.2-.2-.1-4.4-2.7h.3c-1.6 1-3.3 1.7-5.2 2.2l.2-.2c-.4 1.7-.7 3.5-1.1 5v.2h-.2l-8 .4h-.2v-.2l-1.2-5 .2.2c-1.8-.5-3.6-1.2-5.2-2.1h.3l-4.3 2.8-.2.1-.1-.1c-2.1-2.1-4.2-4.1-6.1-5.9l-.1-.1.1-.2 2.7-4.4v.2c-1-1.6-1.7-3.3-2.2-5.2l.2.2-5-1.1h-.2V50c0-3-.1-5.8-.1-8.5v-.2h.1l5-1.2-.1.1c.5-1.8 1.2-3.6 2.1-5.2v.2l-2.8-4.3-.1-.1.1-.1 6-6.1h.1l3.2 2 .8.5c-.3.2-.2.2-.1.3zM456.8 367c1.1-.7 2.3-1.2 3.6-1.5l.7-3.5 5.9-.1.9 3.5c1.3.3 2.5.8 3.6 1.4l3-2 4.3 4.1-1.9 3.1c.7 1.1 1.2 2.3 1.5 3.5l3.5.7.1 5.9-3.5.9c-.3 1.3-.8 2.5-1.4 3.6l2 3-4.1 4.3-3-1.9c-1.1.7-2.3 1.2-3.5 1.5l-.7 3.5-5.9.1-.9-3.5c-1.3-.3-2.5-.8-3.6-1.4l-3 2-4.3-4.1 1.9-3.1c-.7-1.1-1.2-2.3-1.5-3.6l-3.5-.7-.1-5.9 3.5-.9c.3-1.3.8-2.5 1.4-3.6l-2-3 4.1-4.3 2.9 2zm3.2 7.9c-2.5 2.5-2.4 6.6.1 9 2.5 2.5 6.6 2.4 9-.1 2.5-2.5 2.4-6.6-.1-9-2.6-2.5-6.6-2.5-9 .1z"/><path class="st2" d="M460 374.9c.3-.4.7-.7 1.2-1 1.2-.8 2.7-1.2 4.2-1 1 .1 2 .4 2.8 1 1 .6 1.8 1.5 2.3 2.6.6 1.2.8 2.5.6 3.8-.4 2.8-2.6 5.1-5.4 5.6-.7.1-1.3.1-2 0-.6-.1-1.2-.2-1.8-.5-1.1-.5-2-1.2-2.6-2.2-.6-.8-1-1.8-1.1-2.8-.2-1.5.1-2.9.8-4.2.2-.6.5-1 1-1.3-.3.4-.6.8-.9 1.3-1.2 2.1-1 4.8.4 6.7.6.9 1.5 1.6 2.5 2.1 1.1.5 2.4.6 3.6.4 2.7-.5 4.7-2.6 5.1-5.3.1-.6.1-1.2 0-1.9-.1-.6-.3-1.2-.5-1.7-.5-1-1.2-1.9-2.1-2.5-.8-.5-1.7-.9-2.7-1-1.4-.2-2.8.1-4.1.8-.9.7-1.3 1.1-1.3 1.1z"/><path class="st2" d="m456.8 367-.2-.1-.6-.3-2.3-1.4h.1l-4.1 4.3v-.1l2 3v.1c-.6 1.1-1.1 2.3-1.4 3.6v.1h-.1l-3.5.9.1-.1c0 1.9.1 3.9.1 5.9l-.1-.1 3.5.7h.1v.1c.4 1.2.9 2.4 1.5 3.5v.2l-1.9 3.1v-.4l4.3 4.1h-.2l3-2 .1-.1h.1c1.1.6 2.3 1.1 3.6 1.4h.1v.1c.3 1.1.6 2.3.9 3.5l-.2-.1 5.9-.1-.2.1.7-3.5v-.1h.1c1.2-.3 2.4-.9 3.5-1.5l.1-.1.1.1 3.1 1.9h-.2c1.4-1.5 2.8-2.9 4.1-4.3v.2l-2-3-.1-.1.1-.1c.6-1.1 1.1-2.3 1.4-3.6v-.1h.1l3.5-.9-.1.2c0-2-.1-4-.1-5.9l.1.2-3.5-.7h-.1v-.1c-.3-1.2-.9-2.4-1.5-3.5v-.2l1.9-3.1v.2l-4.2-4.1h.2l-3 2h-.2c-1.1-.6-2.3-1.1-3.6-1.4h-.1v-.1c-.3-1.3-.6-2.4-.8-3.5l.1.1-6 .1.1-.1c-.3 1.4-.5 2.5-.8 3.5-.9.2-1.8.6-2.7 1l-.6.3-.2.3c.1-.1.2-.1.3-.2.1-.1.3-.2.6-.4.9-.5 1.8-.8 2.7-1.1.2-1 .4-2.1.7-3.5h.1l5.9-.1h.1v.1c.3 1.1.5 2.2.9 3.5l-.1-.1c1.3.3 2.5.8 3.6 1.4h-.1l3-2 .1-.1.1.1 4.3 4.1.1.1-.1.2-1.9 3.1v-.2c.7 1.1 1.2 2.3 1.6 3.6l-.1-.1 3.5.7h.1v.1c0 1.9 0 3.9.1 6v.1h-.1l-3.5.9.1-.1c-.3 1.3-.8 2.5-1.4 3.6v-.2l2 3 .1.1-.1.1c-1.3 1.4-2.7 2.8-4.1 4.3l-.1.1-.2-.1-3.1-1.9h.2c-1.1.7-2.3 1.2-3.6 1.6l.1-.1c-.3 1.2-.5 2.4-.7 3.5v.1h-.1l-6 .1h-.1v-.1c-.3-1.2-.6-2.4-.9-3.5l.1.1c-1.3-.3-2.6-.7-3.8-1.4h.2l-3 2-.1.1-.1-.1-4.3-4.1-.1-.1.1-.1 1.9-3.1v.2c-.7-1.1-1.2-2.3-1.5-3.6l.1.1-3.5-.7h-.1v-.1c0-2.1-.1-4.1-.1-5.9v-.1h.1l3.5-.8-.2-.1c.3-1.3.8-2.5 1.4-3.6v.1c-.7-1.1-1.4-2.1-2-3v-.1h.1l4.1-4.3 2.3 1.4.6.4.3.1z"/><path class="st0" d="M572.2 235.1c.9-.6 1.9-1 3-1.3l.6-3 5.1-.1.7 3c1.1.3 2.1.7 3.1 1.2l2.6-1.7 3.7 3.5-1.6 2.6c.6 1 1 2 1.3 3l3 .6.1 5.1-3 .7c-.3 1.1-.7 2.1-1.2 3.1l1.7 2.6-3.5 3.7-2.6-1.6c-.9.6-1.9 1-3 1.3l-.6 3-5.1.1-.7-3c-1.1-.3-2.1-.7-3.1-1.2l-2.6 1.7-3.7-3.5 1.6-2.6c-.6-.9-1-1.9-1.3-3l-3-.6-.1-5.1 3-.7c.3-1.1.7-2.1 1.2-3.1l-1.7-2.6 3.5-3.7 2.6 1.6zm2.7 6.8c-2.1 2.2-2 5.6.1 7.7 2.2 2.1 5.6 2 7.7-.1 2.1-2.2 2-5.6-.1-7.7-2.1-2.1-5.6-2.1-7.7.1z"/><path class="st0" d="M574.9 241.9c.3-.4.6-.7 1-.9 1.1-.7 2.3-1 3.6-.9 1.9.2 3.6 1.4 4.4 3.1.5 1 .7 2.1.5 3.2-.2 1.2-.7 2.3-1.5 3.2-.8.9-1.9 1.4-3.1 1.6-.6.1-1.1.1-1.7 0-.5-.1-1.1-.2-1.5-.5-2.8-1.2-4-4.5-2.8-7.3l.3-.6c.1-.3.4-.6.8-.9 0 0-.3.3-.8 1.1-.6 1.1-.8 2.3-.6 3.5.1.8.5 1.6.9 2.3.6.8 1.3 1.4 2.2 1.8.5.2 1 .4 1.5.4.5.1 1.1.1 1.6 0 2.3-.4 4.1-2.2 4.4-4.5.1-.5.1-1.1 0-1.6s-.2-1-.5-1.5c-.4-.9-1-1.6-1.8-2.1-.7-.5-1.5-.8-2.3-.9-1.2-.2-2.4.1-3.5.7-.8.5-1.1.8-1.1.8z"/><path class="st0" d="m572.2 235.1-.2-.1-.5-.3-2-1.2h.1l-3.5 3.7v-.1l1.7 2.6c-.5 1-.9 2-1.2 3.1v.1h-.1l-3 .7.1-.1c0 1.6.1 3.3.1 5.1l-.1-.1 3 .6h.1v.1c.3 1.1.7 2.1 1.3 3v.2c-.5.8-1 1.7-1.6 2.6v-.2l3.7 3.5h-.2l2.6-1.7h.2c1 .5 2 .9 3.1 1.2h.1v.1c.2.9.5 2 .7 3l-.2-.1 5.1-.1-.2.1.6-3v-.1h.1c1.1-.3 2.1-.7 3-1.3h.2l2.6 1.6h-.2l3.5-3.7v.2l-1.7-2.6v-.2c.5-1 .9-2 1.2-3.1v-.1h.1l3-.7-.1.1c0-1.7 0-3.4-.1-5.1l.1.1-3-.6h-.1v-.1c-.3-1.1-.7-2.1-1.3-3v-.2l1.6-2.6v.2l-3.7-3.6h.2l-2.6 1.7h-.2c-1-.5-2-1-3.1-1.2h-.1v-.1c-.3-1.1-.5-2.1-.7-3l.1.1-5.1.1h.1c-.3 1.2-.5 2.2-.7 3-.8.2-1.6.5-2.3.9l-.5.3v.3l.2-.2c.1-.1.3-.2.5-.3.7-.4 1.5-.7 2.3-1 .2-.8.4-1.8.6-3v-.1h.1l5.1-.1h.1v.1c.2.9.5 1.9.8 3l-.1-.1c1.1.3 2.1.7 3.1 1.2h-.1l2.6-1.7.1-.1.1.1 3.7 3.5.1.1v.1l-1.6 2.6v-.1c.6 1 1 2 1.3 3.1l-.1-.1 3 .6h.1v.1c0 1.7.1 3.4.1 5.1v.1h-.1l-3 .7.1-.1c-.3 1.1-.7 2.2-1.2 3.1v-.2l1.7 2.6.1.1-.1.1-3.5 3.7-.1.1-.1-.1-2.6-1.6h.2c-1 .6-2 1-3.1 1.3l.1-.1c-.2 1-.4 2.1-.6 3v.1h-.1l-5.1.1h-.1v.2l-.7-3 .1.1c-1.1-.3-2.1-.7-3.1-1.2h.2l-2.6 1.7-.1.1-.1-.1-3.8-3.4-.1-.1.1-.1c.5-.9 1.1-1.8 1.6-2.6v.1c-.6-1-1-2-1.3-3.1l.1.1-3-.6h-.1v-.1c0-1.8 0-3.5-.1-5.1v-.1h.1l3-.7-.1.1c.3-1.1.7-2.1 1.2-3.1v.1l-1.7-2.6v-.1l3.6-3.6 2 1.2c.2.1.4.2.5.3l-.2-.1z"/></g><g id="Plant--inject-35"><path class="st3" d="M596.9 390.7c-9.1-5.3-14-17.6-14.4-27.7s3.8-20.6 12.1-26.4c8.7-6.1 21.1-6 30-.2s14.2 16.5 13.8 27.1-6.2 20.8-14.7 27"/><path class="st4" d="M611.5 391.7c-.1-.8-.2-1.5-.2-2.3 0-1.6-.1-3.8-.2-6.3-.1-5.3-.3-12.6-.7-20.7s-.8-15.4-1.1-20.7c-.2-2.5-.3-4.6-.4-6.3-.1-.8-.1-1.5 0-2.3.2.8.3 1.5.4 2.3.2 1.5.4 3.6.7 6.2.5 5.3 1 12.6 1.4 20.7s.5 15.4.5 20.8c0 2.7 0 4.8-.1 6.3-.1.8-.2 1.6-.3 2.3z"/><path class="st5" d="M585.2 360.8c0 .2-1.5.3-3.2.2s-3.2-.5-3.2-.7 1.5-.3 3.2-.2 3.3.5 3.2.7zM585.7 351.8c-.1.2-1.3-.1-2.8-.8s-2.5-1.3-2.5-1.6 1.3.1 2.8.8 2.6 1.3 2.5 1.6zM590.4 345c-.1.2-1.5-.5-3-1.7s-2.4-2.5-2.2-2.6 1.3.8 2.8 2 2.5 2.2 2.4 2.3zM595.1 338.7c-.2.1-.9-1-1.5-2.4s-.9-2.6-.7-2.7.9 1 1.5 2.4.9 2.6.7 2.7zM602.4 334.2c-.2.1-.9-1-1.4-2.6s-.5-2.9-.3-2.9.7 1.2 1.1 2.7.8 2.7.6 2.8zM614.7 329.2c.2.1.1 1-.3 2.1s-.9 1.9-1.1 1.9-.1-1 .3-2.1.8-2 1.1-1.9zM623.7 333.1c.2.2-.4 1-1.3 1.8s-1.7 1.3-1.9 1.2.4-1 1.3-1.8 1.8-1.4 1.9-1.2zM631.7 338.2c.1.2-.6.9-1.6 1.6s-1.9 1.1-2.1.9.6-.9 1.6-1.6 2-1.1 2.1-.9zM637.4 345.9c.1.2-1 .9-2.5 1.5s-2.7 1-2.8.7 1-.9 2.5-1.5 2.7-.9 2.8-.7zM639.6 354.3c0 .2-1.1.6-2.5.8s-2.6.1-2.7-.1 1.1-.6 2.5-.7 2.7-.2 2.7 0zM640.8 364.7c-.1.2-1.3-.1-2.7-.7s-2.5-1.3-2.4-1.5 1.3.1 2.7.7 2.5 1.2 2.4 1.5zM639.8 373.5c-.1.2-1.6-.1-3.2-1.2s-2.6-2.3-2.4-2.5 1.3.8 2.9 1.8 2.8 1.7 2.7 1.9zM635.2 381.6c-.1.2-1.4-.5-2.5-1.8s-1.8-2.5-1.6-2.7 1.1.9 2.2 2.1 2 2.2 1.9 2.4zM591.3 382.5c.1.2-1.2 1.1-2.9 2s-3.2 1.4-3.3 1.2 1.2-1.1 2.9-2 3.2-1.4 3.3-1.2zM587.3 375.2c.1.2-.9.9-2.3 1.5s-2.6 1-2.7.7.9-.9 2.3-1.5 2.6-.9 2.7-.7zM584.4 368.8c0 .2-1.2.6-2.8.8s-2.9.2-3 0 1.2-.6 2.8-.8 2.9-.3 3 0zM594 365.2c.1.2-1.2.8-2.8 1s-3-.1-3-.3 1.3-.4 2.9-.5 2.9-.4 2.9-.2zM602 357.2c.1.2-.9.7-2.2.9s-2.4-.2-2.4-.4 1-.3 2.3-.5 2.3-.2 2.3 0zM603.6 350.9c-.1.2-1.1.1-2.4-.4s-2.2-1-2.1-1.2 1.1-.1 2.4.4 2.2.9 2.1 1.2zM606.5 344.4c-.2.2-.9-.3-1.4-1.2s-.6-1.8-.3-1.8.6.6 1.1 1.4.8 1.4.6 1.6zM603 370.9c0 .2-.9.6-2.1.9-.6.2-1.1.2-1.7.2l-.2-.5h.5s-.1.2-.3.4l-.2-.5c.5-.3 1.1-.4 1.7-.6 1.2-.1 2.2-.2 2.3.1zM604.6 382.2c.1.2-1.1.9-2.6 1.5s-2.8.9-2.9.7 1.1-.9 2.6-1.5 2.8-.9 2.9-.7zM595.6 377.1c.1.2-.7.7-1.8 1s-2 .5-2 .2.7-.7 1.8-1 1.9-.4 2-.2zM596.3 354.1c0 .2-1.4.1-3-.5s-2.7-1.3-2.6-1.5 1.4.2 2.9.7 2.7 1.1 2.7 1.3zM618.2 351.6c.1.2-.6.9-1.7 1.6s-2.1 1.1-2.2.9.6-.9 1.7-1.6 2.1-1.1 2.2-.9zM619.4 362.9c0 .2-.8.6-1.8.8s-1.9.2-2 0 .8-.6 1.8-.8 1.9-.2 2 0zM620.8 375.7c-.1.2-1.3-.1-2.6-.7s-2.3-1.3-2.2-1.5 1.3.1 2.6.7 2.3 1.3 2.2 1.5zM617.8 388.2c-.2.1-.9-.5-1.7-1.4s-1.2-1.8-1-1.9.9.5 1.7 1.4 1.2 1.8 1 1.9zM617.2 343.2c.1.2-.3.8-1.2 1.2s-1.7.5-1.7.2.6-.6 1.3-1 1.5-.6 1.6-.4zM628 354.7c.1.2-.9.8-2.3 1s-2.5-.1-2.5-.3 1.1-.4 2.3-.6 2.4-.4 2.5-.1zM625.8 344.3c.1.2-.9.9-2.3 1.4s-2.6.5-2.7.2 1.1-.6 2.4-1 2.5-.8 2.6-.6zM630.3 370.6c0 .2-1.7.4-3.7 0s-3.6-1.1-3.5-1.3 1.7.1 3.6.5 3.6.6 3.6.8zM626.3 385.6c-.1.2-1.4-.5-2.6-1.8s-2-2.5-1.8-2.6 1.2.8 2.4 2 2.2 2.2 2 2.4z"/><path class="st4" d="M608.8 332.2c.1.2-3.4 1.6-7.5 5.9-5.2 5.7-8.5 12.9-9.3 20.6-.4 4.2-.2 8.5.6 12.6.6 3.4 1.4 6.8 2.4 10.1.8 2.9 1.6 5.1 2.1 6.7.3.8.5 1.6.7 2.5-.4-.8-.7-1.6-1-2.4-.6-1.6-1.5-3.8-2.3-6.7-1.1-3.3-1.9-6.7-2.6-10.2-.8-4.2-1-8.6-.6-12.9 1.1-9.2 5.5-16.8 9.8-21 1.7-1.7 3.5-3.2 5.6-4.4.6-.3 1.1-.6 1.7-.9 0 .2.2.1.4.1z"/><path class="st4" d="M620.4 391.3c-.2-.1 1.9-3.3 3.8-9.2 2.6-7.6 3.4-15.7 2.3-23.6-.6-4.4-1.8-8.6-3.6-12.6-1.5-3.2-3.6-6.2-6.2-8.6-1.8-1.6-3.9-2.9-6.1-3.9-1.6-.7-2.5-.8-2.5-.9h.7c.7.1 1.3.3 1.9.5 2.3.9 4.5 2.1 6.4 3.7 2.7 2.5 4.9 5.5 6.5 8.8 1.9 4.1 3.2 8.4 3.8 12.8 1.1 8.1.2 16.3-2.6 23.9-.5 1.5-1.1 2.7-1.6 3.9s-1 2.1-1.4 2.8c-.4.9-.8 1.7-1.4 2.4z"/><path class="st5" d="M587.3 389.3h47.2l.2 9.4h-47.4z"/><path class="st5" d="m591.3 394 2.7 28.8h34.5l2.8-28.5z"/><path class="st6" d="M634.7 398.9c0 .2-10.6.4-23.7.4s-23.7-.2-23.7-.4 10.6-.4 23.7-.4 23.7.1 23.7.4zM630 407.6c-.3.6-.6 1.2-1 1.8-1.1 1.6-2.3 3-3.7 4.3l-.2.2-.2-.2c-2.8-3-5.9-5.7-9.2-8.1h.5l-4.1 3.6-4.9 4.2-.3.2-.3-.2-7.9-6.6h.5l-4.1 5c-.5.6-1 1.2-1.6 1.8.4-.7.8-1.4 1.3-2l3.8-5.1.2-.3.3.2 8 6.5h-.5l4.8-4.2 4.1-3.6.2-.2.3.2c3.3 2.5 6.4 5.3 9.2 8.4h-.4c1.9-2 3.6-3.9 5.2-5.9z"/></g><g id="error-504--inject-35"><path class="st1" d="m542.8 335.1-320.8-.3c-1.7 0-3.1-1.4-3.1-3.1V112.6c0-1.7 1.4-3.1 3.1-3.1h317.6c1.7 0 3.1 1.4 3.1 3.1v222.5z"/><path class="st7" d="M542.8 335.1H218.7l.6-208.8h323.5z"/><path class="st3" d="M336.4 241.9c0 13.1-9.5 24-29.6 24-10.6 0-21.3-3.2-28.1-8.7l5.9-10.8c5.5 4.5 13.6 7.4 22 7.4 10 0 15.8-4.4 15.8-11.4s-4.6-11.6-20.1-11.6h-18.1l3.9-40.7H332v11.6h-32.1l-1.6 17.4h7.2c22-.1 30.9 9.5 30.9 22.8zM344.4 227.5c0-24.6 13.5-38.5 31.2-38.5s31.3 13.9 31.3 38.5-13.5 38.5-31.3 38.5-31.2-14-31.2-38.5zm48.5 0c0-18.1-7.1-26.4-17.3-26.4s-17.2 8.3-17.2 26.4 7.1 26.4 17.2 26.4 17.3-8.4 17.3-26.4zM483.1 247.9h-13.3v17h-13.5v-17h-41.1v-9.6l36.9-48.2H467l-34.8 46.1h24.5V221h13v15.1H483v11.8z"/><path class="st5" d="M278.7 289h2.5v7.1c-2 1.6-4.4 2.4-6.9 2.3-5.6 0-9.7-3.9-9.7-9.3s4.1-9.3 9.8-9.3c2.6-.1 5.2.9 7 2.8l-1.6 1.6c-1.4-1.4-3.3-2.2-5.3-2.1-3.9 0-7 3.1-7 7s3.1 7 7 7c1.5 0 3-.4 4.3-1.2l-.1-5.9zM296.7 289.9v8.3h-2.4v-1.8c-.8 1.2-2.4 2-4.5 2-3.1 0-5.1-1.7-5.1-4.1 0-2.2 1.4-4 5.5-4h4v-.5c0-2.1-1.2-3.3-3.7-3.3-1.6 0-3.1.5-4.4 1.4l-1-1.9c1.7-1.2 3.7-1.8 5.7-1.8 3.8.1 5.9 1.9 5.9 5.7zm-2.5 4.1v-1.9h-3.9c-2.5 0-3.2 1-3.2 2.1 0 1.4 1.1 2.2 3 2.2 1.9.2 3.5-.8 4.1-2.4zM309.1 297.4c-.9.7-1.9 1-3 1-2.8 0-4.4-1.5-4.4-4.3v-7.6h-2.3v-2.1h2.3v-3h2.5v3h3.9v2.1h-4v7.5c-.2 1.1.6 2.1 1.7 2.3h.5c.7 0 1.4-.2 2-.6l.8 1.7zM324.1 292.2h-11.2c.3 2.4 2.3 4 5 4 1.5.1 3-.5 4-1.7l1.4 1.6c-1.4 1.5-3.4 2.3-5.4 2.2-4.5 0-7.4-2.9-7.4-7-.1-3.7 2.8-6.9 6.5-7h.4c4 0 6.8 2.9 6.8 7.1-.1.3-.1.5-.1.8zm-11.2-1.8h8.8c-.3-2.4-2.5-4.2-4.9-3.9-2.1.2-3.7 1.8-3.9 3.9zM348.2 284.4l-5.1 13.8h-2.4l-4-10.5-4 10.5h-2.4l-5.1-13.8h2.4l4 11 4.2-11h2.1l4.1 11 4.1-11h2.1zM361.2 289.9v8.3h-2.4v-1.8c-.8 1.2-2.4 2-4.5 2-3.1 0-5.1-1.7-5.1-4.1 0-2.2 1.4-4 5.5-4h4v-.5c0-2.1-1.2-3.3-3.7-3.3-1.6 0-3.1.5-4.4 1.5l-1-1.9c1.7-1.2 3.7-1.8 5.7-1.8 3.7 0 5.9 1.8 5.9 5.6zm-2.5 4.1v-1.9h-3.9c-2.5 0-3.2 1-3.2 2.1 0 1.4 1.1 2.2 3 2.2 1.8.2 3.4-.8 4.1-2.4zM377.7 284.4l-6.7 15.2c-1.2 2.9-2.8 3.8-4.9 3.8-1.3 0-2.6-.4-3.5-1.3l1.1-1.9c.7.6 1.6 1 2.5 1 1.2 0 2-.5 2.6-2.1l.5-1-6-13.7h2.6l4.8 11 4.8-11h2.2zM394.8 297.4c-.9.7-1.9 1-3 1-2.8 0-4.4-1.5-4.4-4.3v-7.6h-2.3v-2.1h2.3v-3h2.5v3h4v2.1h-4v7.5c-.2 1.1.6 2.1 1.7 2.3h.5c.7 0 1.4-.2 2-.6l.7 1.7zM397.4 280.2c0-.9.7-1.6 1.7-1.6.9 0 1.6.6 1.7 1.5v.1c0 .9-.7 1.7-1.7 1.7s-1.7-.8-1.7-1.7zm.4 4.2h2.5v13.8h-2.5v-13.8zM428 290.3v7.9h-2.5v-7.6c0-2.7-1.3-4-3.6-4-2.5 0-4.1 1.6-4.1 4.6v7.1h-2.5v-7.6c0-2.7-1.3-4-3.6-4-2.5 0-4.1 1.6-4.1 4.6v7.1h-2.5v-13.9h2.4v2.1c1.1-1.5 2.9-2.3 4.8-2.2 2-.1 3.8.9 4.8 2.5 1.2-1.7 3.2-2.6 5.3-2.5 3.3-.1 5.6 1.8 5.6 5.9zM445.1 292.2h-11.2c.4 2.4 2.5 4.2 5 4 1.5.1 3-.5 4-1.7l1.4 1.6c-1.4 1.5-3.4 2.3-5.4 2.2-4.5 0-7.4-2.9-7.4-7-.1-3.7 2.8-6.9 6.5-7h.4c4 0 6.8 2.9 6.8 7.1-.1.3-.1.5-.1.8zm-11.2-1.8h8.9c-.3-2.4-2.5-4.2-4.9-4-2.1.2-3.8 1.9-4 4zM447.3 291.3c-.1-4 3-7.2 7-7.3 4-.1 7.2 3 7.3 7 .1 4-3 7.2-7 7.3h-.2c-3.8.2-7-2.7-7.2-6.5.1-.2.1-.3.1-.5zm11.8 0c-.1-2.6-2.3-4.6-4.9-4.4-2.6.1-4.6 2.3-4.4 4.9.1 2.5 2.2 4.4 4.7 4.4 2.5.1 4.6-1.9 4.7-4.4 0-.2 0-.3-.1-.5zM478 284.4v13.8h-2.4v-2.1c-1.1 1.5-2.8 2.3-4.7 2.2-3.6 0-5.9-2-5.9-6v-7.9h2.5v7.6c0 2.7 1.4 4.1 3.7 4.1 2.6 0 4.3-1.6 4.3-4.6v-7.1h2.5zM490.5 297.4c-.9.7-1.9 1-3 1-2.8 0-4.4-1.5-4.4-4.3v-7.6h-2.3v-2.1h2.3v-3h2.5v3h4v2.1h-4v7.5c-.2 1.1.6 2.1 1.7 2.3h.5c.7 0 1.4-.2 2-.6l.7 1.7z"/><path class="st3" d="M354.2 169v3.3h-12v-15H354v3.3h-7.6v2.5h6.7v3.2h-6.7v2.7h7.8zM363.2 168.3h-2.3v4h-4.3v-15h6.9c4.1 0 6.7 2.1 6.7 5.6.1 2-1.1 3.9-2.9 4.7l3.2 4.7H366l-2.8-4zm0-7.7h-2.4v4.4h2.4c1.8 0 2.6-.8 2.6-2.2s-.9-2.2-2.6-2.2zM379 168.3h-2.3v4h-4.2v-15h6.9c4.1 0 6.7 2.1 6.7 5.6.1 2-1.1 3.9-2.9 4.7l3.2 4.7h-4.5l-2.9-4zm0-7.7h-2.4v4.4h2.4c1.8 0 2.6-.8 2.6-2.2s-.8-2.2-2.6-2.2zM387.5 164.9c0-4.5 3.5-7.8 8.3-7.8s8.3 3.3 8.3 7.8-3.5 7.8-8.3 7.8-8.3-3.4-8.3-7.8zm12.4 0c-.1-2.2-2-4-4.3-3.8-2.2.1-4 2-3.8 4.3.1 2.2 1.9 3.8 4.1 3.8 2.2 0 4-1.7 4.1-3.9-.1-.2-.1-.3-.1-.4zM413 168.3h-2.3v4h-4.2v-15h6.9c4.1 0 6.7 2.1 6.7 5.6.1 2-1.1 3.9-2.9 4.7l3.2 4.7h-4.5l-2.9-4zm0-7.7h-2.4v4.4h2.4c1.8 0 2.6-.8 2.6-2.2s-.8-2.2-2.6-2.2z"/><path class="st5" d="M542.8 335.1c0-1.7-.1-88.5-.2-225.7l.2.2H225.2c-1.9.1-4-.4-5.2 1-.4.4-.7 1-.8 1.5-.1.6-.1 1.2-.1 1.8v55.8c0 19.5 0 38.7-.1 57.5-.1 37.6-.1 73.8-.2 107.9l-.2-.2 324.2.2-324.2.3h-.2v-.2c0-34.1.1-70.2.1-107.9 0-18.8 0-38 .1-57.5V114.1c0-.6 0-1.3.1-1.9.1-.7.4-1.3.9-1.8.7-.8 1.7-1.2 2.7-1.2H543v.2c-.1 137.2-.1 224-.2 225.7z"/><path class="st5" d="M259.4 118.1c0 1.7-1.3 3-3 3s-3-1.3-3-3 1.3-3 3-3 3 1.4 3 3zM241 118.1c0 1.7-1.3 3-3 3s-3-1.3-3-3 1.3-3 3-3 3 1.4 3 3zM249.8 118.1c0 1.7-1.3 3-3 3s-3-1.3-3-3 1.3-3 3-3 3 1.4 3 3z"/></g><g id="Character--inject-35"><path class="st5" d="M164.7 62.5c1.8-.6-2.4-8-2.7-9.9s-4.7-2-6.6-2.1c1.6-.7 2.3-2.6 1.6-4.2-.5-1-1.4-1.7-2.5-1.8.6-2.3-2.3-4.6-4.3-3.5.4-1.5-.6-3-2.1-3.4-.3-.1-.6-.1-.9-.1.8-1.9-1.9-4-3.5-2.9.8.2 1.5-.9 1.2-1.7-.4-.8-1.1-1.3-2-1.5-5-1.4-10.3 2.8-15.3 1.4-1.6-.5-3-1.5-4.7-1.6s-3.6 1.4-3 2.9c-1.2-1.1-3.1-1-4.2.3-.3.3-.5.7-.6 1.1l-8.1 3.2c-2.2.7-4.3 1.8-6.1 3.3-1.9 1.5-2.9 3.7-2.8 6.1-2.7.1-4.9 2.3-5 5-2.8-.3-5.4 1.7-5.7 4.6v.1c-1.7-1-3.6.7-4.8 2.3-.8 1-1.5 2.1-1.8 3.4-.3 1.3.2 2.6 1.3 3.4-2 1.9-2.4 4.8-1.2 7.2-1.4.7-2.5 1.7-3.5 2.9-.9 1.2-1 3-.2 4.3-3 1.5-4.2 5.1-2.7 8.1-2.7-.4-2.8-.9-5.5-.3-.7.4-1.1 1.3-1 2.1.2 1.2.6 2.3 1.1 3.4 0 0-1.7 1.1-1.1 2.4.6 1.3 1.8 2.2 3.2 2.4l-.2 3.9c-.1 2.2 0 4.8 1.9 5.9-.4 1.8.3 3.7 1.8 4.9-1.8.9-2.5 3.1-1.5 4.8.2.3.4.6.6.8-1.2 1.3-.8 3.3-.3 5 .5 1.8 1.5 3.5 2.9 4.8 1.4 1.3 3.5 1.7 5.3 1.1-1.1 1.8-2.2 3.8-1.8 5.9s2.9 3.8 4.6 2.6c-.5-.6-1.4.4-1.2 1.1s.8 1.3 1.1 2c.4 1-.1 2.1-.2 3.2-.1 2.3 1.6 4.4 3.9 4.6.3 3.5 3.3 6.2 6.9 5.9.2 0 .5-.1.7-.1.1 4.3 3.7 7.7 7.9 7.5h.1c1.3 1.9 3.7 2.8 5.9 2.2 2.6 3.7 7.7 4.5 12.2 5 3.3.3 7.5.2 8.8-2.9 4.3.9 8.6-3.9 7.3-8"/><path class="st5" d="M160 64.6c-1.5-5 0-10.4 3.8-14 .9-.8 2.5-1.4 3.1-.3 0-1.4 1.1-2.5 2.5-2.6.4 0 .9.1 1.3.3.3-2 2.1-3.4 4.1-3.1.4.1.8.2 1.2.4.2-1.1 1.3-1.9 2.4-1.7 1.1.2 1.9 1.3 1.7 2.4 0 .2-.1.4-.2.6.9-.5 1.9-.2 2.4.6.1.1.1.2.1.3 1-1.1 2.6-1.2 3.7-.3l.5.5c1.2-.7 2.6-.9 3.9-.3.6-.1 1.2.2 1.3.8v.4c.8-.8 2.2-.8 3 0 .3.3.5.6.6.9.2-1.2 1.3-2 2.5-1.8.4.1.8.3 1.2.6 2.7-1.4 4.6 5.8-1.2 8.2l1.1-1.7c1 2 2.2.9 4.4 1.4 1.8.5 3.1 2.2 3 4.1.7-1 2.1 0 2.8 1l3.5 5c1.7 2.2 3.2 4.6 4.4 7.2 1.1 2.3 1.5 4.8 1.3 7.4-.1.6-.1 1.2.1 1.8.3.7 1 1.1 1.4 1.8 1.1 2.2-2.8 4.5-2 6.8 1.9-.7 4 .3 4.8 2.2.2.9.4 1.7.7 2.6.7 1.4 2.5 2.3 2.7 3.9.1.8-.3 1.7 0 2.4s1.2 1.1 1.7 1.7c.9 1.1.5 2.8-.1 4s-1.6 2.4-1.8 3.8c0 .4.7-.5 1-.3s.2 1.1 0 .8l-3.1 1.1c1.4.5 2.3 2 2 3.4-.3 1.4-1.1 2.7-2.2 3.6 1.2.8 1.5 2.4.6 3.6-.4.5-1 .8-1.2 1.4-.5 1.1.3 2.3.5 3.5.3 2.1-1.2 4.1-3.3 4.4h-.8c1 1.2.6 3 .2 4.6-.3.9-.5 1.8-.8 2.6-.5 1.5-1.6 3.3-3 2.7 1.1 1.5.7 3.5-.8 4.6-1 .7-2.3.8-3.3.3.2 3.5-4.2 6.3-7.3 4.5.6 2.6-2.9 5.1-5.1 3.6-.1.9-.8 1.6-1.7 1.8-.5 0-.9 0-1.4-.1-2.5-.3-4.9.9-6.3 3-2.8.3-4.9 2.4-7.4 3.8s-6.2 1.4-7.3-1.2c-.1 1.4-2.2 1.2-3.4.5-2.7-1.5-5-3.6-6.9-6.1"/><path class="st8" d="m181.4 94.3.4-7.2-43.3-9.6c-13.4-1.8-28.3 11.2-29.6 24.6-1.4 14.9-2.5 33.2-1.1 44.4 2.9 22.6 20 25.9 20 25.9l-.6 22.3 49.6 2.2 4.6-102.6z"/><path class="st5" d="M117.2 117.1c-.1 1.6 1.1 2.9 2.7 3 1.5.2 2.9-.9 3-2.4v-.1c.1-1.6-1.1-2.9-2.7-3-1.5-.2-2.9.9-3 2.5 0-.1 0-.1 0 0zM113.4 111.8c.3.4 2.6-1.2 5.7-1.1s5.3 1.7 5.7 1.4c.2-.2-.2-.9-1.1-1.6-1.3-1-2.9-1.5-4.5-1.6-1.6-.1-3.2.4-4.5 1.3-1.1.7-1.4 1.4-1.3 1.6zM146 118.7c-.1 1.6 1.1 2.9 2.7 3 1.5.1 2.9-1 3-2.5.1-1.6-1.1-2.9-2.7-3-1.5-.1-2.8 1-3 2.5zM143.9 113.3c.3.4 2.6-1.2 5.7-1.1s5.3 1.7 5.7 1.4c.2-.2-.2-.9-1.1-1.6-1.3-1-2.9-1.5-4.5-1.6-1.6-.1-3.2.4-4.5 1.3-1.2.7-1.5 1.4-1.3 1.6zM131.9 135.9c0-.2-1.9-.6-5-1.1-.8-.1-1.5-.3-1.6-.8 0-.8.2-1.6.6-2.3.8-1.9 1.6-3.9 2.5-6 3.5-8.5 6.1-15.5 5.7-15.6s-3.5 6.6-7 15.1c-.9 2.1-1.7 4.1-2.4 6-.5.9-.7 2-.5 3.1.2.6.7 1 1.3 1.2.4.1.9.2 1.3.2 3.1.3 5.1.4 5.1.2z"/><path class="st9" d="M127.9 172.5c10.8.5 21.6-2 31.1-7.1 0 0-8.1 15.4-31.2 12.7l.1-5.6zM133 143.4c1.2-1.5 3.2-2.2 5.1-1.9 1.4.2 2.6.9 3.5 2 .8 1.1.9 2.6.1 3.7-1.1 1.1-2.7 1.5-4.1.9-1.5-.6-2.8-1.4-3.9-2.5l-.9-.9c-.2-.4-.2-.8.1-1.2"/><path class="st5" d="M140.9 138.3c-.5 0-.6 3.3-3.6 5.6s-6.5 1.8-6.6 2.3c-.1.2.8.7 2.3.8 2 .1 3.9-.5 5.5-1.7 1.5-1.2 2.5-2.8 2.8-4.7.2-1.4-.1-2.3-.4-2.3zM143.4 104.5c.3.9 3.4.5 7 1.1s6.5 1.6 7 .9c.2-.4-.3-1.2-1.4-2-3.1-2.1-7.1-2.7-10.7-1.5-1.3.5-2 1.1-1.9 1.5zM113.8 101.1c.5.7 2.7.1 5.2.1s4.7.6 5.2-.1c.2-.4-.1-1.1-1-1.8-2.6-1.7-5.9-1.7-8.4 0-.9.8-1.2 1.5-1 1.8zM157.4 78.3c-.6 1.8-1.6 3.4-2.9 4.7-1.5 1.2-3.8 1.4-5 0-2 1.9-5.2 1.8-7.1-.2-.2-.2-.4-.5-.6-.8-2.4 1.9-5.7 2.1-8.2.3l-6.8 1c-2.4.4-5.5.5-6.9-1.6-.3-.5-.5-1.1-1-1.3-.6-.2-1.1-.2-1.7-.1-2 0-3.8-1-4.9-2.7-1-1.6-1.8-3.5-2.2-5.3-.8-2.9-1.4-6.5 1.1-8.3 1-.6 2.1-1 3.3-1.1 2.4-.4 4.8-.7 7.1-.1 2.8.8 5 3 6.6 5.5-.4-1.6.6-3.3 2.2-3.8 1.6-.4 3.3-.1 4.6.7 2.1 1.1 3.8 2.7 5 4.8 3.8.2 7.2 2.6 8.7 6.1 1.8-1 3.9-1.3 5.8-.7.7.1 1.3.6 1.7 1.2.3.6.1 1.3-.5 1.6-.1 0-.1.1-.2.1"/><path class="st5" d="M135.7 78.3c1.3 3.9-.9 8.1-4.8 9.3-2.4.8-5.1.3-7.1-1.4-1.3 3.1-4.7 4.8-7.9 3.9-.2 3.9-2.5 7.4-6.1 9.1.7 2 .6 4.2-.2 6.1-.5 1.3-1.5 2.3-2.7 2.8-1.6.4-3.2.2-4.6-.6-2.1-.9-3.7-2.7-4.4-4.9-.6-2.2.4-4.9 2.5-5.7-1.8-1.9-3.2-4.2-4.1-6.7-.6-1.4-.7-3-.1-4.4.7-1.3 2.7-2.1 3.8-1-1.5-3.3-.1-7.2 3.2-8.8 1.4-.6 2.9-.8 4.4-.4.2-3 2.9-5.3 5.9-5.1 1.3.1 2.5.7 3.5 1.6M158.5 78.3c-3.2 5.8.2 14.1 6.5 16-3 .9-4.7 4-3.8 7 .6 2 2.2 3.5 4.3 3.9-2.7 4.3-1.9 10 1.9 13.4-2.2 1-3.5 3.2-3.5 5.6.1 2.3 2.5 4.5 4.8 4-.2 3.5 1.9 6.8 5.1 8-2 3-1.2 7 1.7 9 1 .7 2.1 1 3.3 1.1-1.6 1.1-1.3 3.7.1 5.1 2.5 2.6 7.3 2 9.7-.8s2.7-6.8 1.7-10.3c1.7.8 3.7-.5 4.3-2.2.5-1.8.3-3.7-.5-5.3-.8-1.6-1.5-3.3-2-5.1-.1-.5-.1-1.1.1-1.6.4-.8 1.2-1.1 2-1.5 2.8-1.6 3.7-5.3 3.2-8.4s-1.9-6.1-2.8-9.1c-.3-.6-.3-1.3-.1-2 .3-.7 1.1-1.1 1.8-1.6 3.2-2.2 4-6.6 1.8-9.7-.8-1.1-1.8-2-3.1-2.5 1.9-.9 2-3.6 1.1-5.5s-2.8-3-4.3-4.5c-2.8-2.7-4.9-6.3-8.5-8-3.7-1.6-8-.8-10.8 2.1-2.4-1.3-5-2.6-7.7-2.4s-5.5 2.3-5.4 5.1"/><path class="st6" d="M212.5 83.5c.4-.9.5-1.8.4-2.7-.1-1.1-.6-2.1-1.4-2.9-1.1-1-2.5-1.5-4-1.3h-.3l.1-.3c.5-1.4 0-3-1.1-3.9-1.3-1-3.1-1.5-4.8-1.1h-.4l.1-.3c.5-1.3.1-2.7-1-3.6-1.2-.9-2.9-.8-4 .2l-.4.3-.1-.5c-.2-2.6-2.5-4.5-5.1-4.3-1.4.1-2.7.9-3.5 2.1l-.4-.2v-.1c.2-.6.1-1.3-.2-1.8-.3-.5-.9-.9-1.5-1.2-1.3-.3-2.6-.2-3.8.3l-3.7 1.2c-.6.2-1.1.5-1.6.9-.4.3-.6.9-.5 1.4l-.5.1c-.1-1.1-.9-2-2-2.3-1-.3-2.1-.2-3 .4-.8.6-1.4 1.4-1.8 2.3-.3.9-.6 1.8-.6 2.8v.3l-.2-.1c-1.6-.8-3.4-.9-5-.3-1.2.5-2.3 1.3-3.1 2.4-.5.7-.8 1.5-1 2.3-.1.6-.1.9-.2.9v-.2c0-.2 0-.4.1-.5.1-.9.5-1.7.9-2.4.7-1.2 1.8-2.1 3.1-2.6 1.7-.7 3.7-.6 5.3.2l-.3.2c0-1 .2-2 .6-2.9.4-1 1.1-1.9 2-2.6 1-.7 2.2-.9 3.4-.5.6.2 1.2.5 1.6 1 .5.5.7 1.1.8 1.8l.1 1.6-.5-1.5c-.1-.3-.1-.7 0-1.1.1-.3.3-.6.6-.8.5-.4 1.1-.8 1.7-1l3.7-1.3c1.3-.5 2.8-.7 4.1-.3.7.2 1.3.7 1.8 1.4s.6 1.5.3 2.3l-.1.1-.4-.3c1.6-2.4 4.8-3.1 7.2-1.5 1.3.9 2.2 2.3 2.3 3.9l-.4-.2c1.5-1.3 3.7-1.3 5.1.2.9 1 1.2 2.4.7 3.7l-.2-.3c1.8-.3 3.6.2 5.1 1.3 1.2 1.1 1.7 2.8 1.2 4.3l-.2-.2c1.6-.2 3.1.4 4.2 1.5.8.8 1.3 1.9 1.4 3.1.1.7 0 1.4-.3 2.1 0 .1-.1.3-.3.5zM188.6 50.9c-.7-.5-1.6-.8-2.4-1-1-.2-2-.1-3 .2-1.3.4-2.4 1.2-3.1 2.3l-.1.2-.2-.2c-1.5-1.2-3.4-1.5-5.1-.9-2 .7-3.4 2.6-3.5 4.7v.6l-.4-.4c-.1-.2-.3-.3-.5-.3-.8-.2-1.7 0-2.4.6-.7.5-1.2 1.2-1.6 2-.7 1.4-.9 3.1-.6 4.7l.1.4-.4-.1c-1.6-.4-3.3-.3-4.7.5-1.1.6-2 1.6-2.5 2.7-.4.7-.6 1.5-.6 2.4v.9s0-.1-.1-.2c0-.2-.1-.4-.1-.7 0-2.2 1.2-4.3 3.1-5.4 1.5-.9 3.3-1.1 5-.7l-.3.3c-.4-1.7-.2-3.4.6-5 .4-.9 1-1.6 1.7-2.2.8-.7 1.9-.9 2.9-.7.3.1.5.3.7.5l-.4.2c.2-3.2 3-5.6 6.2-5.3 1.2.1 2.4.6 3.3 1.3h-.3c.8-1.2 2-2.1 3.3-2.4 1-.3 2.1-.3 3.2-.1.7.1 1.3.4 1.9.8 0-.1.2.1.3.3zM108.8 42.2s0-.1.1-.2l.5-.6c.6-.8 1.3-1.5 2-2.2 1.2-1.1 2.6-1.8 4.2-1.9 1 0 2 .3 2.8.8 1 .6 1.7 1.6 1.8 2.7l-.3-.1c1.5-1.5 3.6-2.3 5.8-2.3 1.2.1 2.3.7 3.2 1.6.9.9 1.3 2.3 1.1 3.6l-.4-.2c2.3-2.3 6.1-2.3 8.3.1.9.9 1.5 2.2 1.7 3.5l-.4-.2c2.6-.9 5.5.4 6.4 3 .6 1.6.3 3.3-.7 4.6l-.2-.4c3-.5 5.9 1.5 6.4 4.5.4 2.3-.6 4.5-2.6 5.7l-.1-.4c2 .2 3.8 1.2 4.9 2.8.9 1.2 1.3 2.7 1.1 4.2-.1.9-.3 1.8-.8 2.6-.1.2-.2.4-.4.6 0 .1-.1.1-.2.2 0 0 .2-.3.4-.8.4-.8.6-1.7.6-2.6.1-1.4-.3-2.8-1.2-4-1.1-1.5-2.8-2.5-4.7-2.6h-.6l.5-.3c1.9-1.2 2.8-3.5 2.3-5.7-.7-2.5-3.2-4.1-5.8-3.7l-.6.1.4-.5c1.5-2 1-4.8-.9-6.3-1.2-.9-2.8-1.1-4.2-.6l-.3.1V47c-.3-2.1-1.7-3.9-3.7-4.5-1.9-.6-4-.1-5.4 1.3l-.6.6.2-.8c.2-1.1-.2-2.3-1-3.1-.7-.8-1.8-1.3-2.9-1.4-2-.1-4 .7-5.5 2.1l-.3.3v-.4c-.1-1-.7-2-1.6-2.5-.8-.5-1.7-.8-2.6-.8-.8 0-1.6.2-2.4.6-.6.3-1.2.7-1.8 1.2-.7.6-1.4 1.3-2.1 2.1.1 0-.1.3-.4.5zM79.2 98c-.2-.3-.3-.6-.4-.9-.8-2.3-.5-4.8.9-6.8 1.2-1.6 2.9-2.7 4.9-3.1l-.2.2c0-3.5 2.3-6.5 5.7-7.4l-.1.3c-1.4-2.3-.6-5.3 1.8-6.7 1.1-.6 2.3-.8 3.5-.6l-.3.3c-1.2-3.1.4-6.6 3.5-7.7 2.2-.8 4.7-.3 6.3 1.4l-.4.1c.4-1.2.9-2.3 1.7-3.3 1.2-1.7 3.1-2.7 5.1-2.9 2-.2 4 .7 5.2 2.3l-.5.1c.6-2.8 3.3-4.6 6.1-4 1.7.3 3.2 1.5 3.8 3.2h-.4c.8-1.4 2.3-2.3 4-2.3 1.5 0 3 .5 4.1 1.5 1 .9 1.9 1.9 2.5 3.1.6 1 1.1 2.1 1.6 3.2l-.2-.1c1.8-.4 3.7-.2 5.4.7 1.2.6 2.3 1.5 3.1 2.7.5.7.9 1.5 1.1 2.3.1.2.1.4.1.6v.2c-.2-1.1-.7-2.2-1.4-3.1-.8-1.1-1.8-1.9-3.1-2.5-1.6-.8-3.4-1-5.2-.6h-.1l-.1-.1c-.9-2-1.9-4.4-4-6.2-1.1-.9-2.4-1.4-3.8-1.3-1.5-.1-2.9.7-3.6 2l-.2.5-.2-.5c-.9-2.4-3.6-3.6-6-2.6-1.5.6-2.6 1.9-2.9 3.4l-.1.6-.3-.5c-1.1-1.5-2.9-2.3-4.8-2.1-1.9.2-3.7 1.2-4.8 2.7-.7.9-1.3 2-1.6 3.2l-.1.4-.3-.3c-2.2-2.1-5.7-2-7.8.2-1.4 1.5-1.9 3.7-1.2 5.6l.2.4-.7-.1c-2.4-.5-4.7 1-5.3 3.4-.2 1.1-.1 2.2.5 3.2l.1.2-.3.1c-3.2.8-5.4 3.7-5.4 7v.2h-.2c-1.9.3-3.6 1.3-4.7 2.9-.9 1.2-1.3 2.6-1.4 4 0 .9.1 1.8.4 2.7.3.5.5.8.5.8zM145.4 39.3c.3.1.5.2.8.3.7.3 1.4.7 2 1.1 1 .6 1.9 1.3 2.8 2.1.6.5 1 1.1 1.1 1.9.1.4 0 .8-.2 1.2-.2.4-.6.7-1 .9v-.5c1 .4 1.9 1.2 2.4 2.2.6 1 .8 2.1.6 3.2-.1 1-.6 2-1.3 2.7l-.1-.4c1 .5 1.8 1.4 2.2 2.4.3.8.5 1.7.4 2.5-.1.6-.2 1.1-.5 1.6-.1.2-.2.3-.4.5.3-.6.5-1.3.6-2.1.1-.8-.1-1.6-.4-2.3-.4-.9-1.1-1.7-2.1-2.2l-.3-.1.2-.2c1.3-1.5 1.6-3.6.6-5.4-.5-.9-1.2-1.5-2.1-1.9l-.7-.3.7-.2c.6-.2 1-.9.8-1.5-.1-.6-.5-1.2-.9-1.6-.8-.8-1.7-1.5-2.7-2.1-1.5-1.2-2.6-1.7-2.5-1.8zM75 112.2c-.1-.3-.1-.6-.1-.9 0-.9.1-1.8.3-2.6.3-1.4 1-2.6 2-3.6.7-.6 1.5-1 2.4-1.1 1-.2 2 .1 2.8.7l-.4.2c-.1-2.1 1.1-4 3-4.9 2.1-.8 4.4-1 6.6-.4l-.3.3c-.1-.8 0-1.6.4-2.3.5-1.1 1.4-1.9 2.4-2.5 1-.5 2-.9 3.1-1.2 1-.3 2.1-.5 3.1-.5s2 .2 2.9.8l-.4.2c.1-1.2.7-2.2 1.7-2.8.8-.6 1.7-1 2.7-1.1 1.6-.3 3.2-.4 4.8-.2 1 .1 2 .2 3 .4.4 0 .8.2 1.2.3-.4 0-.7-.1-1.1-.1-.7-.1-1.7-.2-3-.3-1.6-.1-3.1 0-4.6.4-.9.2-1.8.6-2.6 1.1-.9.5-1.4 1.5-1.4 2.5v.4l-.4-.2c-1.5-1-3.7-.8-5.6-.2-1 .3-2.1.6-3 1.1-1 .5-1.7 1.3-2.2 2.3-.3.6-.4 1.3-.3 2l.1.4-.4-.1c-2.1-.5-4.3-.4-6.2.3-1.7.7-2.9 2.5-2.8 4.4l.1.6-.4-.4c-.7-.6-1.6-.8-2.5-.7-.8.1-1.6.5-2.2 1-1 .9-1.7 2.1-2 3.4-.5 1-.7 2.1-.7 3.3zM201.2 151.7c.3.2.7.4 1.1.5 1.1.3 2.2.2 3.2-.4 1.5-.9 2.7-2.4 3.2-4.1.4-1 .6-2.1.6-3.3 0-.6-.2-1.2-.4-1.7-.3-.5-.8-1-1.4-1.1l-.4-.1.3-.2c.9-.6 1.9-1.3 2.9-2.1.5-.4 1-.8 1.4-1.2.5-.4.9-.9 1.3-1.4.3-.5.1-1.1-.3-1.7-.4-.6-.8-1.1-1.3-1.6-1-1-2.2-1.9-3.6-2.4l-.3-.1.3-.2c3.3-3.2 3.4-8.4.3-11.7-1.6-1.7-3.9-2.6-6.3-2.5h-.6l.4-.4c2.7-3.4 2.1-8.4-1.3-11.1-1.8-1.4-4.2-2-6.4-1.5l-.4.1.1-.4c.4-1.8.5-3.7.3-5.6-.2-1.8-1.2-3.4-2.7-4.3-1.5-.8-3.2-1.1-4.9-.8-1.6.3-3.2.7-4.7 1.3l-.5.2.2-.5c.6-1.5.3-3.2-.8-4.5-.9-1.2-2.2-2.1-3.7-2.4-2.9-.7-5.6.1-8 .6l-.4.1.2-.3c.5-.9.5-2 .1-3-.4-.9-1-1.6-1.8-2.1-1.3-.8-2.8-1-4.3-.7-.9.2-1.8.5-2.7.9-.6.3-.9.4-.9.4.1-.1.1-.1.2-.1.1-.1.4-.2.6-.4.8-.5 1.8-.8 2.7-1 1.5-.4 3.1-.2 4.5.6.8.5 1.5 1.3 1.9 2.2.5 1 .5 2.3-.1 3.3l-.2-.2c1.3-.3 2.5-.6 3.8-.8 1.4-.2 2.9-.2 4.3.1 1.6.3 3 1.2 4 2.5 1.2 1.4 1.5 3.2.9 4.9l-.3-.3c1.6-.6 3.2-1 4.8-1.3 1.8-.3 3.6 0 5.2.8 1.6 1 2.7 2.7 2.9 4.6.2 1.9.1 3.8-.3 5.7l-.3-.3c4.5-.9 9 2 9.9 6.5.5 2.4-.1 5-1.7 6.9l-.2-.4c4.8-.2 8.9 3.5 9.2 8.3.1 2.6-.9 5-2.7 6.8l-.1-.4c1.4.6 2.7 1.4 3.7 2.5.5.5.9 1.1 1.3 1.7.2.3.4.6.5 1 .1.4.1.8-.1 1.1-.4.6-.9 1.1-1.4 1.5-.5.4-1 .9-1.5 1.2-1 .8-2 1.5-2.9 2.1v-.3c.6.2 1.2.7 1.5 1.3.3.6.4 1.2.5 1.9 0 1.2-.2 2.3-.6 3.4-.6 1.8-1.8 3.3-3.4 4.2-1 .5-2.2.6-3.4.3-.3-.1-.7-.3-1-.6z"/><path class="st6" d="M181 119.4c-.3.2-.7.4-1.1.4-1.1.2-2.2 0-3.1-.6-1.4-1-2.4-2.4-2.7-4.1-.3-1-.4-2-.3-3.1.1-.6.3-1.1.8-1.6s1.2-.6 1.8-.3l1.6.8-1.8-.3c-1.8-.4-3.4-1.3-4.7-2.6-1.4-1.5-2.2-3.4-2.2-5.4-.1-2.2.7-4.4 2.1-6.1l.1.4c-2.6-.7-5.1-2.1-7-4.1-1.5-1.5-2.8-3.3-3.6-5.3-.5-1.3-.9-2.7-1.1-4.1-.1-.5 0-.9-.1-1.1v-.4c.2 1.9.7 3.8 1.4 5.5.9 1.9 2.1 3.7 3.6 5.2 1.9 1.9 4.3 3.2 6.8 3.9l.4.1-.3.3a7.99 7.99 0 0 0-2 5.7c.1 1.9.8 3.7 2.1 5.1 1.2 1.3 2.7 2.1 4.4 2.5l-.1.4c-.5-.2-1-.1-1.3.3-.4.3-.6.8-.6 1.3-.1 1 0 2 .2 2.9.3 1.6 1.2 3 2.5 4 .9.6 1.9.9 3 .7.5-.2.9-.3 1.2-.4z"/><path class="st3" d="m80.2 250.6 13.1 77.1s-36 53.3-36 95.1h169.2s-4.6-57.7-35.5-89.4l40.2-121.3-47.3-22.1-2-18.2-57.7 2.6V188l-36.5 2-7.5 60.6z"/><path class="st4" d="M186.7 310.8s-1 .2-2.9.4c-2.8.3-5.6.4-8.4.3-4.5-.2-8.9-1-13.1-2.4-5.6-1.9-10.7-5.2-14.7-9.5-1.1-1.3-2.2-2.6-3.1-4-1-1.5-1.8-3-2.6-4.6-.7-1.7-1.3-3.4-1.8-5.2-.4-1.9-.6-3.8-.6-5.7 0-4 .9-8 2.7-11.6.9-1.9 2.1-3.6 3.5-5.2s3.1-3 5-4.1c1.9-1.1 4.1-1.8 6.3-1.9 2.3-.3 4.6.3 6.5 1.6.9.7 1.7 1.6 2.2 2.7.5 1.1.7 2.3.7 3.5-.1 2.4-1 4.7-2.6 6.5-1.6 1.8-3.7 3.2-5.9 4-2.3.9-4.6 1.5-7 1.9-4.9.8-9.9.9-14.8.2-9.7-1.3-18.9-5.3-26.5-11.5l-1.4-1c-.4-.4-.9-.8-1.3-1.2l-1.3-1.2-1.2-1.3c-1.6-1.7-3-3.5-4.2-5.4-2.5-3.7-4-8.1-4.3-12.5-.1-2.2.3-4.3 1.1-6.4.8-2 2-3.7 3.6-5.2 1.5-1.4 3.3-2.5 5.2-3.1 1.9-.6 4-.6 5.9-.1 1.9.6 3.5 1.7 4.7 3.2 1.2 1.4 2 3.1 2.5 4.9.9 3.4.6 7-1.1 10.1-1.5 2.8-3.8 5-6.6 6.6-1.2.7-2.6 1.3-3.9 1.8-1.3.4-2.6.8-3.9 1-4.4.6-8.9.4-13.3-.7-3.6-.8-6.3-1.7-8.1-2.3l-2.1-.7-.7-.2.7.2 2.1.6c1.8.5 4.6 1.4 8.1 2.2 4.3 1 8.8 1.2 13.2.6 1.3-.2 2.6-.6 3.9-1 1.3-.5 2.6-1 3.9-1.8 2.7-1.5 4.9-3.7 6.4-6.4 1.6-3 1.9-6.5 1-9.8-.5-1.7-1.3-3.4-2.4-4.7-2.4-3-6.5-4.2-10.2-3-1.9.6-3.6 1.6-5.1 3-3.1 2.9-4.7 7-4.5 11.2.3 4.4 1.7 8.6 4.2 12.3 1.2 1.9 2.6 3.7 4.2 5.4l1.2 1.3 1.2 1.2c.4.4.8.8 1.3 1.2l1.4 1.1c7.5 6.2 16.6 10.1 26.3 11.4 4.9.6 9.8.6 14.6-.2 2.4-.3 4.7-.9 6.9-1.8 2.2-.8 4.2-2.2 5.7-3.9 1.5-1.7 2.4-3.9 2.4-6.2 0-1.1-.2-2.2-.7-3.2-.5-1-1.2-1.9-2.1-2.5-1.8-1.2-4-1.8-6.2-1.6-2.2.2-4.2.8-6.1 1.9-1.8 1.1-3.4 2.4-4.9 4-1.4 1.5-2.5 3.3-3.4 5.1-1.7 3.5-2.7 7.4-2.7 11.4 0 1.9.2 3.7.6 5.6.4 1.8 1 3.5 1.7 5.1.7 1.6 1.6 3.1 2.5 4.6.9 1.4 2 2.7 3.1 3.9 2.1 2.3 4.5 4.3 7.1 5.9 2.3 1.5 4.8 2.7 7.4 3.6 4.2 1.5 8.6 2.3 13 2.5 2.8.1 5.6.1 8.4-.2 1-.1 1.7-.2 2.2-.2l1.1-.5z"/><path d="M193 327.2c-4.1-.1-7-.5-10.1-3.1-3-2.8-5.8-5.9-8.1-9.2L151 283.4c-4.3-5.6-8.6-11.5-10.5-18.3-2.4-9.3.1-19.2 6.6-26.3l17.5 32.2 28.4 56.2z" class="st10"/><path class="st5" d="M124.4 285.1c-.1.1-.3.1-.4.1-.3 0-.7.1-1.2.2-1.5.2-2.9.3-4.4.2-9.9-.2-19-5.6-24-14.2-.7-1.3-1.4-2.6-1.9-4-.2-.5-.3-.9-.4-1.1s-.1-.3-.1-.3c.3.5.5 1 .7 1.5.6 1.3 1.3 2.6 2 3.8 5.1 8.3 14 13.6 23.7 14 1.4.1 2.9.1 4.4-.1.5-.1 1.1-.1 1.6-.1zM187.8 333.7H186.9l-2.8.1c-2.4.1-5.8.2-10.1.3-8.6.2-20.4.1-33.4-.7s-24.8-2.1-33.2-3.3c-4.2-.6-7.7-1.1-10-1.5l-2.7-.5-.7-.1c-.1 0-.2 0-.2-.1h.2l.7.1 2.7.4c2.4.4 5.8.8 10 1.4 8.5 1.1 20.2 2.4 33.2 3.1s24.8.9 33.4.9c4.3 0 7.7-.1 10.1-.2h3.8l-.1.1z"/><path d="M18.7 211.6c17.6 12 40.1 14.2 59.8 6 10.2-4.4 19.9-11.6 30.9-11 6.6.4 12.9 3.6 19.4 3.2 5.8-.4 11-3.6 16.7-4.9 10-2.3 21 1.5 30.6-2.2 2.1-.8 4.2-2.2 4.5-4.4.1-2-.9-3.9-2.7-4.9-1.8-.9-3.7-1.4-5.7-1.6-11-1.5-22-2.7-33-3.8-11.3-1-22.8-1.8-33.9.5-14.7 3-27.7 11.1-41.3 17.3s-29.1 10.8-43.4 6.3" class="st10"/><path class="st8" d="M113.9 190s6.9 7.4 11.5 7.8c3.6.2 7.1.2 10.7 0 0 0 10.1 4.2 12.9 4s5.9-3 4.2-5-6.5-3.6-6.5-3.6l33.5-.4c2.3 0 4.2-1.7 4.4-4 .1-.9-.2-1.8-1.1-2h-2.6s-.2-1.8-1.6-1.8h-10.9s1.4-2.3-1.8-2.6c-1.4-.1-18 .5-27.3-2.8s-23.5-4.4-23.5-4.4h-12.1l.8 16.5 9.4-1.7z"/><path class="st9" d="M103.5 175.3H106.6l9-.1c2.9.2 6.4.6 10.2 1.2 4.3.6 8.5 1.6 12.6 2.9 4.8 1.6 9.8 2.5 14.9 2.7 2.7.2 5.5.2 8.3.3h4.4c.8 0 1.6.2 2.2.7.3.3.5.7.5 1.2 0 .4-.1.8-.3 1.2l-.2-.4h10.9c.4 0 .7.1 1 .3.5.4.8 1 .9 1.7l-.2-.2h2.6c.5.1 1 .5 1.2 1 .1.5.2 1 .1 1.5-.1 1-.6 1.9-1.4 2.6-.7.7-1.7 1.2-2.7 1.3-1 .1-2 0-2.9.1l-31.1.3.1-.5c1.3.4 2.5 1 3.7 1.6 1.2.5 2.3 1.3 3.2 2.3.4.6.5 1.3.2 2-.3.6-.7 1.1-1.2 1.6-1 .8-2.2 1.3-3.4 1.5-1.2 0-2.4-.2-3.6-.6-1.1-.3-2.2-.7-3.3-1-2.1-.7-4.2-1.5-6.2-2.3h.1c-2.6.1-5.1.2-7.4.1-1.2 0-2.3-.1-3.4-.2-1.1-.2-2.1-.6-3.1-1.1-1.7-1-3.3-2.1-4.8-3.4-1.3-1.1-2.4-2.2-3.6-3.4h.1l-7.8 1.3-2 .3-.7.1.7-.1 2-.4 7.7-1.3h.1c1.1 1.2 2.3 2.3 3.6 3.3 1.5 1.3 3 2.4 4.7 3.3.9.5 1.9.9 3 1 1.1.1 2.2.1 3.4.2 2.3 0 4.8-.1 7.4-.2h.1c1.9.8 4 1.6 6.1 2.3 1.1.4 2.2.7 3.3 1 1.1.4 2.3.6 3.4.6 1.2-.1 2.3-.6 3.2-1.4.5-.4.8-.8 1.1-1.4.2-.5.2-1.1-.2-1.6-.8-.9-1.9-1.7-3-2.2-1.2-.6-2.4-1.1-3.6-1.5l-1.3-.5h1.4l31.1-.4c1 0 2 0 2.9-.1.9-.1 1.7-.5 2.4-1.1.6-.6 1.1-1.4 1.2-2.3.1-.9-.1-1.8-.9-2h-2.7v-.2c0-.5-.3-1-.7-1.3-.2-.1-.4-.2-.6-.2H168l.2-.4c.4-.5.3-1.3-.1-1.8-.6-.4-1.2-.6-1.9-.5-1.4-.1-2.9 0-4.3-.1-2.9 0-5.6-.1-8.4-.3-5.1-.2-10.2-1.1-15-2.8-4.1-1.3-8.3-2.3-12.6-3-3.8-.6-7.3-1-10.2-1.3l-9-.1h-2.3l-.9.2z"/><path class="st9" d="m145.7 193.2-.9.3c-.6.2-1.4.3-2.5.5-2.8.5-5.6.7-8.4.4-2.8-.3-5.5-.8-8.2-1.6-1-.3-1.9-.6-2.4-.8-.3-.1-.6-.2-.9-.4 1.1.2 2.3.4 3.4.8 2.7.7 5.4 1.2 8.2 1.4 2.8.2 5.5.1 8.3-.3 2-.1 3.3-.4 3.4-.3zM168.5 185.2c-1.1.2-2.3.3-3.4.4-2.1.1-5.1.2-8.4.3s-6.2-.1-8.4-.1c-1.2 0-2.3-.1-3.5-.3 1.2-.1 2.3-.1 3.5-.1h8.4l8.4-.1c1-.2 2.2-.2 3.4-.1zM180.3 185.7s.4.3.5 1c.1.4.1.9 0 1.3 0 .3-.2.6-.3.8-.2.2-.5.4-.8.5-.7.2-1.4.3-2.1.3l-2.3.1-5.3.1c-3.8.1-7.2.1-9.6.1h-2.9c-.4 0-.7 0-1.1-.1.3-.1.7-.1 1.1-.1l2.9-.1c2.5-.1 5.9-.2 9.6-.2l5.3-.1c1.4.1 2.8 0 4.2-.3.3-.1.5-.2.7-.4.2-.2.3-.4.3-.6.2-.8.1-1.5-.2-2.3z"/><path class="st3" d="M2.1 189.3c-4.3 12-2.8 25.2 12.6 36.8 15.4 11.7 66.5 26.1 66.5 26.1l4.4-46.2 16.6-6.6c1.7-.8 2.9-2.4 2.9-4.3.3-8.6.2-20.5.2-20.5H87.9c0 .1-76.3-11.6-85.8 14.7z"/><path class="st5" d="M105.4 174.9v4.6c0 3 .2 7.2.2 12.6.1 1.4 0 2.8-.3 4.2-.5 1.5-1.6 2.7-3 3.4-1.4.8-2.9 1.4-4.5 1.9l-4.8 1.9-21.2 8.3c-7.5 2.9-14.9 5.4-21.9 6.2-6.2.7-12.5.2-18.5-1.4-4.1-1-8-2.5-11.8-4.3-1.3-.6-2.4-1.2-3-1.6l-.8-.4c-.1 0-.2-.1-.3-.2.1 0 .2.1.3.1l.8.4c.7.4 1.7.8 3.1 1.4 3.8 1.7 7.8 3.1 11.8 4.1 6 1.5 12.2 1.9 18.4 1.2 7-.8 14.3-3.3 21.8-6.2l21.2-8.2 4.8-1.8c1.5-.5 3-1.2 4.4-1.9 1.3-.7 2.3-1.8 2.8-3.2.3-1.3.4-2.7.3-4.1.1-5.3 0-9.6 0-12.5 0-1.5 0-2.6.1-3.4v-.9c0-.1.1-.2.1-.2zM64.5 222.3c.4.2.8.5 1.2.8.4.3.8.6 1.3 1s1.1.9 1.7 1.5c1.4 1.3 2.7 2.8 3.9 4.3 1.4 1.9 2.7 3.8 3.9 5.9 1.1 2.1 2.1 4.3 2.8 6.5.6 1.8 1.1 3.7 1.5 5.6.2.8.2 1.5.3 2.2.1.5.1 1.1.2 1.7v1.4c-.1-.5-.2-.9-.2-1.4 0-.5-.1-1-.2-1.6s-.2-1.4-.4-2.2c-.4-1.9-.9-3.7-1.6-5.5-.8-2.2-1.7-4.3-2.8-6.4-1.1-2-2.4-4-3.8-5.9-1.2-1.5-2.4-3-3.8-4.3-.6-.6-1.1-1.1-1.6-1.5s-.9-.8-1.2-1.1c-.6-.4-.9-.7-1.2-1z"/><path d="M94.2 270.7c-.4 5.2-.6 10.7 2.4 15.1 2.9 4.5 7.6 7.5 12.9 8.1 5.4.6 10.6-1.9 13.6-6.3.2-.3.3-.6.4-1 0-.7-.6-1.4-1.3-1.5-.7-.1-1.5-.1-2.2 0-10.4 1.4-21-5-25.8-14.4" class="st10"/><path class="st3" d="M169.5 299.9c.4-.8 33.3 41 43.1 45.7 9.8 4.7 35.7 5.9 36.5-23s-4.5-74.1-4.5-74.1-1.8-33.1-13.6-36.2c-2.6-.7-6 8.1-6.9 8.6s-13.2 31.4-13.2 31.4l-2.7 40.4-13.4-10.8-25.3 18z"/><path class="st5" d="M218.4 300.9c-.2-.1-.3-.2-.5-.3l-1.3-1-4.9-3.8-17.2-13.7h.3L172.6 298l-3 2.1v-.4c10.2 11.2 18.6 21.8 25 29.2 3.2 3.7 5.9 6.5 7.8 8.5.9 1 1.7 1.7 2.2 2.2l.6.6.2.2-.2-.2-.6-.5c-.5-.5-1.3-1.2-2.2-2.2-1.9-1.9-4.7-4.7-7.9-8.4-6.5-7.3-14.9-17.9-25-29l-.2-.2.2-.2 3-2.1 22.2-15.8.1-.1.1.1c7 5.7 12.9 10.5 17.1 13.8l4.8 3.9 1.2 1 .4.4zM225.9 215c-.2.2-.5.3-.7.4-.7.4-1.4.8-2 1.3-2.4 1.7-4.5 3.9-6.1 6.3-2.4 3.6-4.2 7.7-5.1 12-1.1 5.3-1.7 10.6-1.7 16-.4 11.5-1 21.9-1.3 29.4-.2 3.7-.4 6.8-.5 8.9-.1 1-.1 1.8-.1 2.4s-.1.8-.1.8v-.9c0-.6 0-1.4.1-2.4.1-2.2.2-5.2.3-8.9.3-7.6.7-17.9 1.2-29.4 0-5.4.6-10.8 1.8-16.1 1-4.3 2.7-8.4 5.2-12.1 1.7-2.5 3.8-4.6 6.3-6.3.7-.5 1.4-.9 2.1-1.2.1 0 .3-.1.6-.2z"/><path d="M84.8 214.7s-7.4 4.1-11.9 5-31.7 4.5-44.2-3.7c0 0 12.9 2.6 22.8 1.5 10.2-1.2 34.2-11.4 34.2-11.4l-.9 8.6z" class="st10"/><path class="st4" d="m206 353.9-.6.7c-.4.5-.9 1.1-1.8 2-2.3 2.5-4.9 4.7-7.7 6.7-4.4 3.1-9.3 5.5-14.4 7.1-3.2 1-6.5 1.7-9.9 2.1-3.8.4-7.6 0-11.2-1.1-2-.6-3.8-1.6-5.4-2.9-1.6-1.4-2.9-3.2-3.6-5.2-.7-2.1-.8-4.4-.3-6.6.5-2.3 1.6-4.4 3-6.2 1.5-1.9 3.3-3.5 5.5-4.6 2.2-1.1 4.7-1.6 7.2-1.4 5.2.5 9.9 3.1 13.2 7.3 1.7 2.1 3 4.5 3.9 7 .8 2.6 1.2 5.3 1.1 8.1-.3 5.6-2.1 11.1-5.1 15.9-.8 1.2-1.6 2.4-2.5 3.5-.4.6-.9 1.1-1.4 1.7s-1 1-1.5 1.6L173 391c-.5.5-1.1.9-1.7 1.4l-1.7 1.4c-.6.5-1.2.8-1.8 1.2-5 3.3-10.5 5.7-16.4 7-11.6 2.7-23.8 1-34.3-4.6-2.5-1.4-4.8-3-7-4.8-2.1-1.8-4-3.9-5.6-6.2-1.6-2.2-2.7-4.8-3.3-7.5-.6-2.7-.4-5.4.4-8 .8-2.5 2.3-4.8 4.4-6.4 2-1.6 4.6-2.4 7.2-2.2 2.5.3 4.8 1.3 6.8 2.9.9.8 1.8 1.7 2.4 2.7.7 1 1.2 2 1.6 3.2.7 2.2.9 4.6.5 6.9-.4 2.2-1.1 4.3-2.2 6.2-2.2 3.6-5.3 6.5-9.1 8.3-3.4 1.7-7.1 2.8-10.9 3.2-3.3.4-6.7.5-10.1.2-2.9-.3-5.8-.8-8.6-1.6-2.4-.7-4.7-1.5-6.9-2.6-3.1-1.4-6-3.2-8.7-5.3-.9-.7-1.6-1.3-2-1.7l-.7-.6s.2.2.7.6 1.1 1 2.1 1.7c2.7 2.1 5.6 3.8 8.7 5.2 2.2 1 4.5 1.9 6.9 2.5 2.8.8 5.7 1.3 8.6 1.6 3.3.3 6.7.2 10-.2 3.7-.5 7.3-1.6 10.7-3.2 3.7-1.8 6.8-4.6 8.9-8.2 1.1-1.9 1.8-3.9 2.2-6.1.4-2.2.2-4.5-.5-6.7-1.6-4.6-5.6-7.8-10.4-8.4-2.5-.2-4.9.5-6.9 2.1s-3.4 3.8-4.2 6.2c-.8 2.5-1 5.1-.4 7.7.6 2.6 1.7 5.1 3.2 7.3 1.6 2.2 3.4 4.3 5.5 6.1 2.2 1.8 4.5 3.4 6.9 4.8 10.4 5.6 22.4 7.2 33.9 4.5 5.8-1.3 11.3-3.6 16.2-6.9l1.8-1.2 1.7-1.4c.6-.5 1.1-.9 1.6-1.4l1.5-1.5 1.5-1.5c.5-.5.9-1.1 1.4-1.6.9-1.1 1.7-2.3 2.4-3.5 3-4.7 4.8-10.1 5.1-15.6.1-2.7-.3-5.3-1.1-7.9-.8-2.5-2.1-4.8-3.8-6.8-3.1-4-7.8-6.6-12.8-7.1-2.4-.2-4.8.3-7 1.4-2.1 1.1-3.9 2.6-5.3 4.4-1.4 1.8-2.4 3.8-2.9 6-.5 2.1-.4 4.3.3 6.4.7 2 1.9 3.7 3.5 5.1 1.5 1.3 3.3 2.3 5.2 2.9 3.6 1.1 7.3 1.5 11.1 1.1 3.3-.3 6.6-1 9.8-2 8.4-2.6 16-7.3 22.1-13.6.8-.8 1.4-1.5 1.8-2s.7-1 .7-1zM40.5 216.6l-.2-.2-.6-.6c-.3-.3-.6-.7-.9-1.1-.4-.5-.7-1-1-1.6-.9-1.5-1.6-3-2.2-4.7-.7-2.2-1.1-4.4-1.1-6.7-.1-2.8.3-5.5 1.2-8.2 1-3 2.7-5.8 5-8.1 5.3-5.2 12.7-7.6 20-6.6 1.9.3 3.7.8 5.5 1.6 1.7.7 3.3 1.8 4.5 3.3 1.2 1.5 1.7 3.4 1.3 5.2-.2.9-.7 1.7-1.3 2.3-.7.6-1.5 1-2.3 1.2-1.6.3-3.3.3-4.9-.2-1.5-.4-3-.8-4.4-1.3-2.6-.9-5.1-2.4-7.1-4.3-.9-.8-1.6-1.8-2.2-2.9-.5-1-.8-2-1-3.1-.3-1.7-.1-3.5.6-5.1.4-1 1.1-1.9 2-2.6.3-.2.6-.4 1-.6 0 0-.3.2-.9.7-.8.7-1.5 1.6-1.9 2.6-.6 1.6-.8 3.3-.5 5 .2 1 .5 2.1 1 3 .6 1 1.3 2 2.1 2.8 2 1.8 4.4 3.2 7 4.1 1.4.5 2.9 1 4.4 1.3 1.5.4 3.1.4 4.7.1.8-.2 1.5-.6 2.1-1.1.6-.6 1-1.3 1.2-2.1.3-1.7-.1-3.5-1.2-4.8-1.2-1.4-2.7-2.4-4.3-3.1-1.7-.7-3.5-1.3-5.4-1.6-7.2-1.1-14.5 1.3-19.7 6.3-2.2 2.2-3.9 4.9-4.9 7.9-.9 2.6-1.3 5.3-1.2 8 .1 2.3.4 4.5 1.1 6.6.5 1.6 1.2 3.2 2 4.6.8 1.6 1.6 2.8 2.5 4zM51 216.6c.1.3.2.7.2 1 .1.4.1.8.2 1.1 0 .5.1 1 .1 1.5 0 1.3-.1 2.7-.3 4-.6 3.3-1.8 6.3-3.7 9.1-.8 1.1-1.6 2.1-2.6 3.1-.4.4-.7.7-1.2 1-.3.3-.6.5-.9.7-.3.2-.5.4-.8.5-.1-.1 1.1-.9 2.6-2.5.9-.9 1.7-2 2.5-3.1 1.8-2.7 3-5.7 3.6-8.9.2-1.3.4-2.6.4-3.9.1-2.2-.2-3.6-.1-3.6zM209.5 235.3c-.2 0-.3-.1-.5-.1-.3-.1-.8-.2-1.4-.5-1.7-.7-3.3-1.5-4.8-2.5-10.4-6.7-15.8-19.1-13.4-31.3.3-1.8.8-3.6 1.5-5.2.2-.6.5-1.1.6-1.4.1-.2.1-.3.2-.4 0 0-.2.7-.6 1.9-.6 1.7-1 3.5-1.3 5.2-2.1 12 3.1 24.2 13.3 30.9 1.5 1 3.1 1.9 4.7 2.6.5.2 1.1.5 1.7.8zM243.5 246h-1c-.9 0-1.9.1-2.8.2-3.4.4-6.7 1.6-9.7 3.5-4.4 2.8-7.6 7-9.1 11.9-.9 2.9-1.2 5.9-.9 8.9.2 1.6.5 3.1 1 4.6.5 1.5 1.4 2.9 2.6 4.1 1.2 1.1 2.7 1.7 4.3 1.8 1.6 0 3-.7 3.9-2 .8-1.3 1.3-2.7 1.3-4.2s-.2-2.9-.8-4.3c-1-2.6-2.6-4.8-4.8-6.5-1.9-1.5-4.1-2.3-6.5-2.5-2-.1-3.9.4-5.6 1.3-1.3.7-2.4 1.7-3.3 2.9-.8 1-1.3 2.2-1.7 3.4v-.2c0-.2.1-.4.2-.7.3-.9.7-1.8 1.3-2.5.9-1.2 2.1-2.3 3.4-3 1.8-1 3.8-1.5 5.8-1.5 2.5.1 4.8 1 6.8 2.5 2.3 1.7 4 4 5 6.6.6 1.4.8 2.9.8 4.5s-.5 3.2-1.4 4.5c-1 1.4-2.6 2.2-4.4 2.2-1.7 0-3.4-.7-4.7-1.9-1.2-1.2-2.2-2.6-2.7-4.3-.5-1.5-.9-3.1-1-4.8-.3-3.1.1-6.2 1-9.1.8-2.7 2.2-5.1 3.9-7.3 1.5-1.9 3.4-3.5 5.4-4.8 3-1.9 6.4-3 9.9-3.3 1.3-.2 2.5-.2 3.8 0zM244.4 338.6c-.2.1-.4.3-.6.4-.6.4-1.2.7-1.8.9-2.3 1-4.8 1.5-7.4 1.5-3.8.1-7.5-.8-10.9-2.4-4.1-2.1-7.6-5.2-10.2-9.1-2.6-3.8-4.3-8.1-5.2-12.7-.7-3.7-.9-7.4-.6-11.2.2-2.5.5-5 1.1-7.5.2-.9.4-1.5.5-2 .1-.2.1-.5.2-.7 0 .2 0 .5-.1.7-.1.5-.2 1.2-.4 2-.4 2.5-.7 5-.9 7.5-.2 3.7 0 7.4.7 11.1.9 4.5 2.6 8.7 5.1 12.5 2.5 3.8 6 6.9 10 8.9 3.3 1.6 7 2.5 10.7 2.5 2.5 0 5-.5 7.3-1.4.6-.2 1.3-.5 1.9-.8.2-.1.4-.2.6-.2z"/><path class="st8" d="m171.2 259.4.1-.2s-9.8-51.6-10-53c-.5-3.4-4-8-6.4-3.1l-.9-6.2s-5.7-.5-5 6.3c0 0-4-.1-3.3 8.5.6 7.4 1.1 23.4 1.1 23.4s-3.5-7.8-5-11.3-5.2-4-7.5-1c0 0 6.9 16.8 6.2 19.3s.7 17.8 7.1 23c1 .8 2 1.4 3.1 2l16.6 23.5 5.2 7.3 20-14.8-21.3-23.7z"/><path class="st9" d="M152 231c-.1-.2-.1-.5-.1-.7-.1-.5-.2-1.2-.3-2-.2-1.8-.6-4.4-1-7.6s-.9-7.1-1.4-11.6c-.1-1.1-.2-2.3-.4-3.4-.2-1.2-.2-2.5 0-3.7.2-1.3.8-2.5 1.7-3.5 1-1 2.2-1.7 3.6-1.9h.2v.3c.5 5.5 1.2 11.5 2 17.7 1.1 9.3 2.1 18 2.7 25.6v.3h-.3c-.3 0-.5.2-.6.4-.2.2-.4.4-.6.7-.3.5-.6 1.1-.9 1.7-.5 1.1-.9 2.3-1.2 3.4-.7 2.3-1.1 4.4-1.6 6.4-1 3.9-1.8 7.2-2.4 9.6 0 .7.2 1.4.5 2 .2.4.5.9.8 1.3.5.6.8 1 .8 1l-.9-.9c-.3-.4-.6-.8-.9-1.3-.4-.6-.6-1.3-.6-2.1l2.3-9.6c.5-2 .9-4.1 1.6-6.4.3-1.2.7-2.4 1.2-3.5.3-.6.6-1.2.9-1.7.2-.3.4-.6.6-.8.3-.3.7-.5 1.1-.5l-.3.2c-.6-7.6-1.7-16.3-2.7-25.6-.7-6.2-1.4-12.2-2-17.8l.3.2c-1.3.2-2.4.8-3.3 1.7-.8.9-1.4 2-1.6 3.3-.2 1.2-.2 2.4 0 3.6.1 1.2.2 2.3.3 3.4.4 4.4.9 8.3 1.3 11.6s.7 5.8.9 7.6c.1.9.1 1.5.2 2 .1.2.1.4.1.6z"/><path class="st9" d="M144.7 229.9c.4.4.7.8.9 1.3.6 1.2 1.1 2.5 1.5 3.8l-.2-.2c1.4.3 2.7.9 3.9 1.6 2 1.3 3.6 3.1 4.6 5.2.3.6.5 1.3.7 2 .1.5.1.8.1.8s-.3-1.1-1.1-2.6c-1.1-2-2.6-3.7-4.5-4.9-1.1-.7-2.4-1.3-3.7-1.6h-.1v-.1c-.6-1.9-1.3-3.6-2.1-5.3z"/></g><g id="Stopwatch--inject-35"><path transform="rotate(-58.707 492.966 84.33)" class="st5" d="M488.9 78.1h8v12.5h-8z"/><path class="st6" d="m495.2 76-8.6 14.1-11.5-7c1.5-5.4 4.5-10.2 8.6-14.1l11.5 7z"/><path class="st5" d="M488 87.7c-.1.2-2.9-1.2-6.3-3.2s-5.9-3.8-5.8-4 2.9 1.2 6.3 3.2 6 3.8 5.8 4zM489.6 85c-.2.2-3-1.3-6.3-3.5s-5.9-4-5.8-4.2 3 1.2 6.4 3.4 5.9 4.1 5.7 4.3zM491.8 81.4c-.1.2-3-1.4-6.3-3.6s-6-4.1-5.9-4.3 3 1.3 6.4 3.5 5.9 4.2 5.8 4.4zM493.8 78.1c-.1.2-2.9-1.2-6.2-3.3s-5.9-3.9-5.8-4.1 2.9 1.2 6.2 3.3 5.9 3.9 5.8 4.1z"/><path transform="rotate(-61.712 587.67 54.94)" class="st5" d="M581.5 50.9H594v8h-12.5z"/><path class="st6" d="m596.2 56.7-14.5-7.8 6.4-11.8c5.5 1.3 10.5 4 14.5 7.8l-6.4 11.8z"/><path class="st5" d="M584.1 50.2c-.2-.1 1-3 2.9-6.4s3.5-6.1 3.7-6-1 3-2.9 6.4-3.5 6.1-3.7 6zM586.9 51.7c-.2-.1 1.2-3 3.1-6.5s3.7-6.1 3.9-6.1-1.1 3.1-3 6.5-3.8 6.2-4 6.1zM590.6 53.6c-.2-.1 1.2-3 3.2-6.5s3.8-6.2 4-6.1-1.1 3.1-3.1 6.6-3.9 6.2-4.1 6zM594 55.4c-.2-.1 1.1-3 2.9-6.4s3.5-6.1 3.8-6-1.1 3-2.9 6.4-3.6 6.1-3.8 6z"/><path transform="rotate(-18.01 534.876 49.327)" class="st5" d="M530.2 41.9h9.5v14.8h-9.5z"/><path class="st3" d="m543.3 43.5-18.5 6-4.9-15.2c5.5-3.6 11.9-5.7 18.5-6l4.9 15.2z"/><path class="st5" d="M538.6 28.3c.2.1-3.1 3.7-8.7 5.4-5.5 1.8-10.3 1-10.2.8s4.6.1 9.9-1.7c5.4-1.7 8.8-4.7 9-4.5z"/><path class="st5" d="M530.9 47.5c-.2.1-1.4-2.8-2.6-6.3s-1.9-6.6-1.7-6.7 1.4 2.8 2.6 6.3 2 6.6 1.7 6.7zM534.4 46.4c-.3.1-1.4-2.8-2.6-6.4s-1.9-6.6-1.7-6.7 1.4 2.8 2.6 6.4 2 6.6 1.7 6.7zM538 45.2c-.2.1-1.4-2.8-2.6-6.4s-1.9-6.6-1.7-6.7 1.4 2.8 2.6 6.4 1.9 6.6 1.7 6.7zM540.9 44.3c-.3.1-1.5-3-2.8-6.9s-2.1-7.1-1.8-7.2 1.5 3 2.8 6.9 2.1 7.1 1.8 7.2zM527.5 48.5c-.2.1-1.5-3-2.8-6.9s-2.1-7.1-1.8-7.2 1.5 3 2.8 6.9 2.1 7.1 1.8 7.2z"/><circle transform="rotate(-45.001 556.043 117.94)" class="st3" cx="556" cy="117.9" r="68.9"/><circle class="st7" cx="555.8" cy="117.4" r="57.9"/><path class="st5" d="M610.9 99.5s-.2-.3-.4-.9-.6-1.5-1-2.6c-.2-.6-.5-1.2-.8-1.9s-.7-1.4-1.1-2.2c-.9-1.8-1.9-3.6-3-5.3-3-4.7-6.6-9-10.8-12.6-12.5-10.8-28.9-15.8-45.3-13.7-2.4.3-4.8.8-7.2 1.5-1.2.3-2.4.6-3.6 1l-3.5 1.4c-.6.2-1.2.4-1.8.7l-1.7.9c-1.2.6-2.3 1.1-3.5 1.8-4.6 2.8-8.9 6.1-12.7 10-1 1-1.8 2.1-2.7 3.1-.9 1.1-1.8 2.2-2.5 3.3-1.7 2.3-3.2 4.8-4.5 7.3-1.3 2.6-2.4 5.3-3.3 8.1-1.9 5.7-2.9 11.6-2.9 17.6-.1 12.4 3.8 24.5 11.2 34.4 3.5 4.8 7.8 9.1 12.7 12.5 4.6 3.4 9.8 6.1 15.3 7.8 1.3.5 2.6.9 4 1.2 1.4.3 2.7.7 4.1.9 2.7.5 5.4.7 8.1.8 2.7.1 5.3 0 8-.2 1.3-.1 2.6-.4 3.9-.6l1.9-.3c.6-.1 1.2-.3 1.9-.5l3.7-1c1.2-.4 2.4-.9 3.5-1.3 2.3-.8 4.5-1.8 6.7-3 14.5-7.9 24.9-21.7 28.6-37.7 1.3-5.4 1.7-11 1.4-16.6-.1-2-.3-4.1-.7-6.1-.2-.9-.2-1.7-.4-2.4s-.3-1.4-.5-2c-.3-1.1-.5-2-.7-2.7s-.4-.7-.4-.7l.3.9c.2.6.4 1.5.8 2.6.2.6.3 1.2.5 2s.3 1.5.5 2.4c.4 2 .7 4 .8 6.1.5 5.6 0 11.2-1.2 16.7-3.6 16.3-14.1 30.3-28.7 38.3-2.2 1.2-4.4 2.2-6.7 3.1-1.2.4-2.3.9-3.6 1.3l-3.7 1c-.6.2-1.2.4-1.9.5l-1.9.3c-1.3.2-2.6.5-3.9.6-2.7.3-5.4.3-8.1.2-2.8-.1-5.5-.3-8.3-.8-1.4-.2-2.7-.6-4.1-.9-1.4-.3-2.8-.7-4.1-1.2-5.6-1.8-10.8-4.5-15.6-7.9-5-3.5-9.3-7.8-12.9-12.7-7.5-10.1-11.5-22.4-11.4-35 0-6.1 1-12.1 3-17.9.9-2.8 2.1-5.5 3.4-8.2 1.4-2.6 2.9-5 4.6-7.4.8-1.2 1.7-2.3 2.6-3.4.9-1.1 1.8-2.2 2.8-3.2 1.9-2 4-3.8 6.2-5.5 2.1-1.7 4.4-3.2 6.7-4.6 1.2-.7 2.4-1.2 3.5-1.8l1.8-.9c.6-.3 1.2-.5 1.8-.7l3.6-1.4c1.2-.4 2.5-.7 3.7-1 2.4-.6 4.8-1.1 7.3-1.4 16.6-2.1 33.2 3 45.8 14 4.2 3.7 7.9 8 10.8 12.8 1.1 1.7 2.1 3.5 2.9 5.3.4.8.8 1.5 1.1 2.2s.5 1.3.7 1.9c.4 1.1.7 2 .9 2.6s0 1.1 0 1.1z"/><path class="st5" d="M602.5 101.3c-5 1.7-9.2 2.8-9.3 2.4s3.7-2.2 8.7-4.2 9.1-3 9.3-2.4-3.7 2.4-8.7 4.2zM600.4 138.8c-4.8-2.3-8.5-4.4-8.3-4.8s4.2 1 9.1 3.1 8.6 4.2 8.3 4.8-4.3-.8-9.1-3.1zM572.5 163.9c-1.8-5-2.9-9.1-2.5-9.3s2.3 3.7 4.2 8.6 3.1 9 2.5 9.3-2.5-3.6-4.2-8.6zM534.9 162.2c2.2-4.8 4.4-8.5 4.7-8.4s-1 4.2-3 9.1-4.2 8.6-4.7 8.4.8-4.3 3-9.1zM509.5 134.6c5-1.8 9.1-3 9.2-2.6s-3.7 2.3-8.6 4.3-9 3.2-9.2 2.6 3.6-2.5 8.6-4.3zM510.8 97c4.8 2.2 8.6 4.3 8.4 4.6s-4.2-1-9.2-2.9-8.7-4.1-8.4-4.6 4.4.8 9.2 2.9zM538.2 71.2c1.9 4.9 3.1 9.1 2.7 9.2s-2.3-3.7-4.4-8.5-3.3-9-2.7-9.2 2.5 3.6 4.4 8.5zM575.7 72.1c-2.1 4.8-4.2 8.6-4.5 8.5s.9-4.3 2.8-9.2 4-8.7 4.5-8.5-.6 4.4-2.8 9.2zM601.8 99.2c-4.9 1.9-9 3.2-9.2 2.8s3.7-2.4 8.5-4.5 8.9-3.4 9.2-2.8-3.6 2.6-8.5 4.5z"/><path class="st4" d="M515.1 64.8c-.8.8-1.6 1.5-2.4 2.2-2.2 2-4.3 4.1-6.3 6.3-13.2 14.9-19.1 34.9-16 54.6.4 2.9 1.1 5.9 1.9 8.7.3 1 .6 2.1.9 3.2 0 0-.2-.2-.4-.8s-.5-1.3-.8-2.3c-.9-2.9-1.7-5.8-2.2-8.7-3.5-19.9 2.5-40.3 16.2-55.2 2-2.2 4.2-4.3 6.5-6.2.8-.7 1.5-1.1 2-1.5s.6-.3.6-.3zM532.2 55.3c.1.3-2.7 1.6-6.1 3.2s-6.2 3-6.3 2.7 2.5-2 5.9-3.6 6.5-2.5 6.5-2.3z"/><path d="M522.6 164.8s43.2 35.7 79.9-1.7c38.4-39.1-5.1-85.9-5.1-85.9s36 36.9.3 80.2c-8.9 10.8-21.1 14.8-30.7 16.9-24.6 5.2-44.4-9.5-44.4-9.5z" class="st11"/><path class="st2" d="M561.7 83.2c2.9 8 5.3 16.1 7.1 24.4.8 3 1.1 6 1 9.1-.1 3.1-1.4 6-3.6 8.1-2.3 2-5.9 2.7-8.5 1l4-42.6z"/><path class="st3" d="m553.2 113.4 9.1-40.1.3 41.9-5.6 3.9z"/><path d="m562.3 73.3-3.7 39.2 4 2.7z" class="st11"/><path class="st7" d="M563.4 117c1.2 3.6-.8 7.4-4.4 8.5-3.6 1.2-7.4-.8-8.5-4.4-1.2-3.6.8-7.4 4.3-8.5 3.7-1.1 7.5.8 8.6 4.4z"/><path class="st5" d="M563.4 117c-.1 0-.3-.6-.9-1.4-.8-1.2-2.1-2.1-3.5-2.6-3.3-1.1-6.9.7-8 4-1.1 3.3.7 6.9 4 8 2.6.9 5.6-.1 7.2-2.3.9-1.2 1.3-2.6 1.3-4.1.1-1-.2-1.6-.1-1.6.3.5.5 1 .5 1.6.2 1.6-.2 3.2-1.1 4.5-1.3 2-3.6 3.2-6.1 3.2-4-.1-7.1-3.4-7-7.4.1-2.2 1.1-4.2 2.8-5.5 1.9-1.5 4.5-1.9 6.8-1 1.5.6 2.8 1.6 3.5 3 .4.4.6 1 .6 1.6z"/><path class="st6" d="M561.8 117.5c.8 2.6-.6 5.4-3.3 6.3-2.6.8-5.4-.6-6.3-3.3-.8-2.6.6-5.4 3.2-6.3 2.7-.8 5.5.6 6.4 3.3 0-.1 0 0 0 0z"/><path class="st5" d="M520 0s0 .1-.1.3l-.2.8c-.3 1-.7 2-1.2 3-2.9 6.3-7.7 11.4-13.8 14.6-2.9 1.6-6.1 2.6-9.3 3.1-7.8 1.2-15.7-.5-22.3-4.8l.4-.3c3.9 7.8 3.9 18.3-.9 27.1-1.8 3.4-4.4 6.4-7.5 8.8-8.6 6.4-19.9 7.7-29.8 3.5l.2-.4c4.8 3.5 8.2 8.6 9.6 14.4 1.7 7.4-.1 15.2-4.9 21.1-.6.8-1.3 1.6-2.1 2.2l.1-.1.4-.4c.4-.4.9-1 1.5-1.7 1.8-2.3 3.2-4.9 4.1-7.6 1.4-4.3 1.6-8.9.6-13.3-1.4-5.7-4.8-10.7-9.5-14.2l-1.8-1.3 2 .9c6.2 2.6 13.1 3.1 19.6 1.2 3.5-1 6.8-2.6 9.8-4.8 3-2.3 5.6-5.2 7.4-8.6 4.7-8.6 4.7-18.9.9-26.6l-.4-.8.8.5c6.5 4.3 14.3 6 22 4.8 6-1 11.6-3.7 16-7.9 2.9-2.7 5.3-6 7-9.5.5-1 .9-1.9 1.2-2.9l.3-.8c-.1-.2-.1-.3-.1-.3zM576.3 14.9c-.4.2-.9.3-1.4.4-.5.2-1.1.3-1.7.3-.7.1-1.5.2-2.2.2h-1.3c-.5 0-.9 0-1.4-.1-1-.1-2.1-.2-3.1-.4-2.3-.5-4.6-1.2-6.8-2.2-2.1-1.1-4.1-2.4-5.9-3.9-.8-.7-1.5-1.4-2.2-2.2-.3-.4-.7-.7-.9-1.1l-.8-1c-.4-.6-.8-1.2-1.2-1.9-.3-.5-.6-1-.8-1.5-.2-.4-.4-.9-.5-1.3.1-.1.9 1.9 2.8 4.5l.8 1c.3.3.6.7.9 1 .7.8 1.4 1.5 2.2 2.1 1.8 1.5 3.8 2.8 5.8 3.8 2.1 1 4.3 1.7 6.6 2.2 1 .2 2 .3 3 .4.5 0 .9.1 1.4.1h1.3c3.4 0 5.4-.6 5.4-.4zM663.4 134.3s-.1.1-.3.1l-.8.4c-.4.2-.8.4-1.3.6s-1.1.6-1.8 1c-6.4 3.8-11.7 9.3-15 16-1.6 3.2-2.7 6.6-3.3 10.1-1.4 8.2-.1 16.7 3.8 24.1l.2.5-.5-.1c-6.7-1.3-13.6-.4-19.8 2.4-3 1.3-5.7 3.1-8.1 5.3-2.3 2.1-4.3 4.5-5.9 7.2-3 5-4.6 10.7-4.7 16.5v.5l-.4-.4c-2.4-2.2-5.2-4-8.3-5.2-1.4-.6-2.9-1-4.3-1.4-1.4-.3-2.8-.5-4.3-.7-4.9-.5-9.8.2-14.3 2-2.9 1.1-5.7 2.7-8.1 4.7-.8.7-1.4 1.3-1.8 1.7l-.5.4c-.1.1-.2.1-.2.1.8-.8 1.5-1.6 2.4-2.4 2.4-2.1 5.1-3.7 8.1-4.9 4.6-1.8 9.5-2.5 14.5-2.1 1.5.1 2.9.3 4.3.6 1.5.4 3 .8 4.4 1.4 3.1 1.2 6 3 8.4 5.2l-.4.2c.1-9.2 4-17.9 10.8-24.1 2.4-2.2 5.2-4 8.2-5.4 6.3-2.9 13.3-3.7 20.1-2.4l-.3.4c-3.9-7.5-5.2-16.1-3.8-24.4.6-3.5 1.7-7 3.4-10.2 1.4-2.7 3.1-5.3 5.1-7.6 2.9-3.3 6.3-6.1 10.1-8.3 1.5-.5 2.9-1.2 4.4-1.8zM653.6 107.9c-.1-.1-.2-.2-.3-.4l-.9-1.2c-2.5-4.1-2.9-9.2-1.1-13.6 1.4-3.4 4.1-6.2 7.4-7.8v.5c-4.1-1-8.1-2.6-11.8-4.7-4.5-2.5-8.3-6.2-10.9-10.8-2-3.8-2.8-8-2.5-12.3.2-2.9 1.2-5.6 2.8-8l.8-1.1c.2-.3.5-.5.7-.7l.6-.6c-.2.2-.3.4-.5.6-.2.2-.4.4-.6.8s-.5.7-.8 1.1c-1.5 2.4-2.4 5.1-2.6 7.9-.3 4.2.5 8.3 2.5 12 2.6 4.4 6.3 8.1 10.8 10.6 3.7 2.1 7.6 3.6 11.7 4.6l.7.2-.6.3c-3.2 1.6-5.8 4.2-7.2 7.5-1.1 2.6-1.5 5.4-1 8.2.3 1.8.9 3.6 1.8 5.2.6 1.1 1 1.7 1 1.7z"/></g><path class="st5" d="M646.2 422.8c0 .1-140.6.3-314 .3s-314-.1-314-.3 140.6-.3 314-.3 314 .2 314 .3z" id="Table--inject-35"/></svg>