<svg version="1.1" id="Layer_1" xmlns="http://www.w3.org/2000/svg" x="0" y="0" viewBox="0 0 458.9 237.5" style="enable-background:new 0 0 458.9 237.5" xml:space="preserve"><style>.st0{fill:#263238}.st1{fill:#455a64}.st2{opacity:.2;enable-background:new}.st4{fill:#ffbe9d}.st5{fill:#eb996e}.st6{fill:#0061f2}.st7,.st9{fill:#fff}.st9{opacity:.5;enable-background:new}</style><path class="st0" d="M458.9 237.1c0 .1-102.7.3-229.4.3S0 237.3 0 237.1s102.7-.3 229.4-.3 229.5.2 229.5.3z" id="Floor--inject-462"/><g id="Character--inject-462"><path class="st1" d="m246.5 148.4-2 89h-4l.3-88.8zM260.7 147.4l19.1 90h4.3l-15.8-90zM224.9 148.4l-21.1 89h-4.4l19.2-89.4z"/><path class="st1" d="M279.8 63.1s21.1-1.2 19 23.2-3.3 49.1-11.1 57.5-86.7 8.7-93.3 1.8 12.6-6.6 16.2-6.6 25.9 2.1 33.1-16.9 5.4-60.3 36.1-59z"/><path class="st1" d="M281.2 63.1s16.1 3.3 14.6 20.2-5.7 46.4-13.5 53.9-38.5 9.2-55.1 8.1c-19.3-1.2-31.4-4.9-31.4-4.9s-3.5 2.3-2.4 3.7 10.5 7.3 56 6.3 42.4-7.7 44.3-15 5.9-46.5 5.3-55.1-5-15.8-17.8-17.2z"/><path class="st2" d="M281.2 63.1s16.1 3.3 14.6 20.2-5.7 46.4-13.5 53.9-38.5 9.2-55.1 8.1c-19.3-1.2-31.4-4.9-31.4-4.9s-3.5 2.3-2.4 3.7 10.5 7.3 56 6.3 42.4-7.7 44.3-15 5.9-46.5 5.3-55.1-5-15.8-17.8-17.2z"/><path class="st1" d="M268 95.9c.2 1 1.2 1.6 2.2 1.3 1-.2 1.6-1.2 1.3-2.2-.2-.8-.9-1.4-1.8-1.4-1.1.2-1.9 1.2-1.7 2.3z"/><path class="st1" d="M269.2 86c-.3 1.1-.5 2.1-.6 3.2 0 1.2.3 2.4.8 3.4.3.6.7 1.2 1.1 1.7.3.3.6.6.8.9.3.4.4.9.3 1.3-.2.8-.5 1.5-.9 2.2-.2.7-.3 1.3-.3 2 0 1.2.3 2.3.9 3.4.6.9 1.2 1.8 2 2.6 0 0-.3-.1-.8-.5-.6-.5-1.2-1.2-1.6-1.9-.7-1.1-1-2.3-1.1-3.6 0-.8.1-1.5.3-2.2l.9-2.1c.2-.7-.4-1.1-.9-1.7-.5-.6-.9-1.2-1.2-1.9-.5-1.1-.8-2.4-.7-3.7 0-.8.2-1.7.5-2.5.1-.1.2-.4.5-.6z"/><path class="st1" d="M264.4 93c.1 0 0 .5.2 1.3.3 1 .9 1.8 1.8 2.4.9.5 1.8.9 2.9 1 .8.1 1.3.1 1.3.2s-.6.1-1.4.1c-1.1 0-2.2-.3-3.2-.9-1-.6-1.6-1.6-1.8-2.8-.1-.8.1-1.4.2-1.3z"/><g style="opacity:.2"><path d="M268 95.9c.2 1 1.2 1.6 2.2 1.3 1-.2 1.6-1.2 1.3-2.2-.2-.8-.9-1.4-1.8-1.4-1.1.2-1.9 1.2-1.7 2.3z"/><path d="M269.2 86c-.3 1.1-.5 2.1-.6 3.2 0 1.2.3 2.4.8 3.4.3.6.7 1.2 1.1 1.7.3.3.6.6.8.9.3.4.4.9.3 1.3-.2.8-.5 1.5-.9 2.2-.2.7-.3 1.3-.3 2 0 1.2.3 2.3.9 3.4.6.9 1.2 1.8 2 2.6 0 0-.3-.1-.8-.5-.6-.5-1.2-1.2-1.6-1.9-.7-1.1-1-2.3-1.1-3.6 0-.8.1-1.5.3-2.2l.9-2.1c.2-.7-.4-1.1-.9-1.7-.5-.6-.9-1.2-1.2-1.9-.5-1.1-.8-2.4-.7-3.7 0-.8.2-1.7.5-2.5.1-.1.2-.4.5-.6z"/><path d="M264.4 93c.1 0 0 .5.2 1.3.3 1 .9 1.8 1.8 2.4.9.5 1.8.9 2.9 1 .8.1 1.3.1 1.3.2s-.6.1-1.4.1c-1.1 0-2.2-.3-3.2-.9-1-.6-1.6-1.6-1.8-2.8-.1-.8.1-1.4.2-1.3z"/></g><path class="st0" d="M243.8 2.2c-.3-.1-.6-.2-1.1-.3-1.6-.4-3.2-.6-4.8-.4-2.4.2-4.7 1.2-6.5 2.9-1 1-1.9 2.2-2.4 3.6-.3.7-.4 1.5-.4 2.2 0 .8.1 1.5 0 2.3 0 .7-.3 1.4-.8 1.9-.6.4-1.2.8-1.9 1-.7.3-1.3.6-1.9 1.1-1.6 1.4-2.2 3.5-1.7 5.5.4 1.1.8 2.1 1.4 3 .2.4.4.8.6 1.1v.9c-.2 1.4-.9 2.6-1.9 3.6-1 .9-1.9 2-2.6 3.2-.7 1.2-.7 2.7.2 3.9 1 1.2 2.8 1.2 4.3 1.1 5.3 0 10.7.3 16 .9l4.3-37.2c-.1-.1-.5-.2-.8-.3zm-13.5 6.6c-.2 1.5 0 3.1-.7 4.4s-2.3 2.1-3.5 3.1c-1.9 1.7-2.8 4.2-2.3 6.7.1.6.3 1.2.5 1.9l-.1-.1c-.6-.9-1-1.9-1.3-3-.3-1.2-.2-2.4.4-3.5.3-.6.7-1.1 1.2-1.5.5-.4 1.1-.8 1.8-1 .7-.3 1.4-.6 2-1.1.6-.6.9-1.4.9-2.2 0-.8-.1-1.6 0-2.3 0-.7.2-1.4.4-2.1.5-1.3 1.2-2.4 2.2-3.4 1.7-1.6 3.9-2.6 6.2-2.8.5-.1 1-.1 1.5-.1-1.2 0-2.3.3-3.5.6-2.9.9-5.1 3.4-5.7 6.4z"/><path class="st4" d="M237.7 46.2c.3-1.7-.2-8.9-.2-8.9s-6.4-.8-6.7-7.4.4-21.6.4-21.6L243 2.6l10.3 11.7.2 31.7-15.8.2z"/><path class="st0" d="M232.8 19.3c0 .5.4.8.8.8.5 0 .8-.4.8-.8s-.4-.8-.8-.8c-.5 0-.8.3-.8.8zM231.4 18.4c.1.1.7-.4 1.6-.4.9 0 1.5.4 1.6.3s-.1-.2-.3-.5c-.4-.3-.8-.4-1.3-.4s-.9.2-1.3.5c-.2.2-.3.4-.3.5zM242.3 19.3c0 .5.4.8.8.8.5 0 .8-.4.8-.8s-.4-.8-.8-.8-.8.3-.8.8zM241.1 18.5c.1.1.7-.4 1.6-.4s1.5.4 1.6.3-.1-.2-.3-.5c-.4-.3-.8-.4-1.3-.4s-.9.2-1.3.5c-.2.3-.3.5-.3.5zM237.9 26.1c-.5-.1-.9-.2-1.4-.2-.2 0-.4 0-.5-.2 0-.2 0-.5.1-.7.2-.6.4-1.2.6-1.9.6-1.6 1.1-3.2 1.4-4.8-.7 1.5-1.3 3.1-1.8 4.7-.2.6-.4 1.3-.6 1.9-.1.3-.2.6-.1.9.1.2.2.3.4.3h1.9z"/><path class="st5" d="M237.4 37.2c3-.1 6-1 8.5-2.8 0 0-2 4.8-8.4 4.4l-.1-1.6z"/><path class="st0" d="M269.2 23.1c-.4.1-.8.1-1.2 0-.7-1.2-2.1-2-3.1-3.1-.2-1-.1-1.9.2-2.9.2-.5.3-1 .5-1.6.1-.6.1-1.2-.1-1.8-.5-1.1-1.4-1.9-2.6-2.4-.9-1.2-2.5-1.8-3.6-2.9-.2-.6-.4-1.2-.5-1.8-.1-1-.4-1.9-.8-2.9-.4-.8-1-1.5-1.7-2-.8-.6-1.8-1-2.8-1.2-.7-.4-1.5-.6-2.3-.8-2.5-.4-5 .5-6.7 2.2-3.6-.9-7.4-.3-10.6 1.6-1.4.8-2.6 2-3.4 3.4-.5 1.4-.7 2.8-.6 4.2v3.1c0 .3 0 .5.1.8.3.3.7.5 1.1.4l4.9.6c.3 0 .7 0 1-.1.5-.3.8-.9.8-1.5v-1.6c.2.6.3 1.2.6 1.9.1.7.4 1.3 1 1.7.4.2.9.3 1.4.2h2.1c.4 0 .7-.1 1-.2.4-.4.5-1 .4-1.5-.2-.7-.3-1.4-.3-2.1.6 1.2.9 2.7 1.7 2.9.8.1 1.6.1 2.3-.2.8-.2 1.3-.4 1.9-.6 0 .3-.1.6-.2.9-.6 1.6-1.9 3.1-1.4 4.7s2.1 2.2 2.9 3.4c.8 1.5.9 3.2.2 4.8-.7 1.5-1.3 3.1-1.8 4.6-.4 1.6-.1 3.5 1.2 4.5 1.1.7 2.4 1 3.7.8l11.6.1c.7.1 1.5 0 2.2-.2.7-.2 1.3-.8 1.5-1.6 0-.9-.3-1.8-1.1-2.3-.7-.6-1.3-1.2-1.8-2-.6-1.3 0-2.8.7-4.1s1.5-2.6 1.2-4.1c-.1-.3-.2-.7-.3-1 .4 0 .8 0 1.1-.1.3-.1.7-.2.9-.4.2-.1.3-.2.2-.2-.6.1-1 .3-1.5.4zM254.4 1.3c.7.2 1.3.6 1.8 1 .6.5 1.2 1.2 1.5 1.9.3.9.6 1.8.7 2.8 0 .2.1.4.1.6-.6-1-.8-2.1-1.3-3.2-.7-1.2-1.6-2.3-2.8-3.1zm9 11c.7.4 1.3 1 1.7 1.7.2 1 .1 2.1-.3 3-.3.8-.4 1.6-.3 2.4-.2-.3-.4-.6-.5-.9-.9-1.9.1-4.3-.6-6.2z"/><path class="st5" d="M238.2 28.4c.1-.6.5-1 1-1.2.4-.2.8-.2 1.1 0 .4.2.6.6.5 1-.1.4-.5.8-.9.8-.4.1-.9 0-1.3-.1-.1 0-.2-.1-.3-.1-.1-.1-.2-.2-.1-.4"/><path class="st0" d="M240.3 26.1c.1 0 .2.2.1.7-.1.6-.3 1.1-.7 1.5-.4.4-1 .6-1.5.6-.4 0-.7-.1-.7-.2s1-.1 1.8-.8.9-1.8 1-1.8z"/><path class="st4" d="M225.1 49.3s-19.4 16.8-19.9 14.8c-2.7-11.1-2-25.4-1.5-30.8.3-.5.6-1 1.1-1.6.5-.6 1.1-1.2 1.8-1.6.8-.6 1.7-1.1 2.6-1.5.9-.3 1-1.4.3-1.7s-3.2.4-5.6 2.3-1.4-2.6-1.1-4.3 1-6.9.6-7.4c-.6-.7-1.6-.1-1.8 1.5s-1.4 6.6-2.3 6.5.8-8.7.8-8.7.7-1.8-.3-2c-1.8-.4-2.9 8.7-3 9.6-.1.6-1 .4-.9-.2s1.9-8.4 0-8.9c-1.4-.4-1 7.5-2.3 8.9s.3-6-1.1-6.3c-.5-.1-.9-.1-1.2 4.3-.1 3.5.1 7.1.4 10.6-1.2 12-3.6 48.9 13.1 47.6 19.6-1.5 24.1-17 24.1-17l-3.8-14.1z"/><path class="st6" d="M279.4 76.1 276 59.2c-2.5-13.8-21.8-14.7-21.8-14.7l-15.2-.2s-10.1-.3-18.2 6.3-13.5 11.7-13.5 11.7L220 77l7.5-5s-2.7 4.9-2.3 9c.4 4 4.6 7.1 4.6 7.1l-3.2 33.9 49.5-2-6.4-43.8h9.7z"/><path class="st7" d="m277 62.9-.6 1.2c-1.7 3-4.5 5.2-7.8 6.3-2.7.8-5.5.9-8.2.1-1.6-.4-3-1.2-4.3-2.2-1.4-1.1-2.3-2.8-2.5-4.6-.1-2 .9-3.9 2.6-4.9.9-.5 2-.6 3-.2 1 .4 1.8 1 2.4 1.9.6.9 1 1.9 1 3s-.2 2.2-.7 3.1c-1 2-2.5 3.7-4.3 4.9-3.8 2.6-8.5 3.7-13.1 2.8-2.3-.4-4.5-1.4-6.4-2.8-1.9-1.3-3.3-3.2-4.1-5.4-.7-2.1-.7-4.4.2-6.5.8-2 2.6-3.5 4.8-3.9 2.1-.3 4.2 1 4.8 3 .2 1 0 2-.5 2.9-.5.8-1.2 1.5-2 2-1.6.8-3.4 1-5.2.7-1.6-.3-3.1-.7-4.6-1.3-2.6-.9-5-2.4-6.9-4.5-1.4-1.6-2.1-3.6-2.2-5.8-.1-1.3.2-2.6.9-3.8.2-.4.5-.8.8-1.1 0 0-.3.4-.7 1.1-.6 1.2-.8 2.5-.7 3.8.1 2.1.9 4 2.2 5.6 1.8 2 4.2 3.5 6.8 4.3 1.5.5 3 1 4.6 1.2 1.7.3 3.4.1 4.9-.6.8-.4 1.4-1.1 1.8-1.8.5-.8.6-1.7.4-2.6-.6-1.8-2.4-3-4.3-2.7-2 .4-3.6 1.7-4.4 3.6-.8 1.9-.9 4.1-.2 6.1.7 2.1 2.1 3.8 3.9 5.1 1.8 1.3 3.9 2.2 6.2 2.6 4.4.8 9-.2 12.7-2.7 1.8-1.2 3.2-2.8 4.1-4.7.4-.9.7-1.9.6-2.9 0-1-.4-1.9-.9-2.7-.5-.8-1.3-1.4-2.2-1.7-.9-.3-1.8-.3-2.6.2-1.6.9-2.5 2.6-2.4 4.4.2 1.7 1 3.2 2.3 4.3 1.2 1 2.6 1.8 4.1 2.2 2.6.8 5.4.8 8 0 2-.6 3.8-1.6 5.3-3 1-.9 1.8-1.9 2.5-3l.5-.9.4-.1zM275 114.4l-.3.1c-.2.1-.5.2-.8.3-1.1.3-2.2.5-3.3.6-1.8.1-3.5-.1-5.2-.6-2.2-.7-4.3-1.8-6-3.4-3.2-3.1-4.9-7.5-4.7-11.9.1-1.7.5-3.3 1.4-4.8.5-.8 1.1-1.4 1.9-1.9.8-.5 1.7-.7 2.6-.7 1 0 1.9.4 2.5 1.2.7.7 1 1.7 1 2.7 0 1-.3 1.9-.8 2.8-.5.8-1.3 1.5-2.1 2-1.7 1.1-3.5 1.8-5.5 2.1-3.9.6-7.8-.2-11.1-2.2-1.6-1-3-2.2-4.1-3.7-1.1-1.4-1.8-3.1-2.1-4.8-.2-1.7.3-3.5 1.4-4.8.5-.6 1.2-1.1 2-1.4.8-.3 1.6-.3 2.4-.1.8.2 1.5.6 2 1.2s.8 1.3.8 2.1c0 1.4-.7 2.8-1.8 3.6-.9.8-2 1.4-3.2 1.8-1 .3-2.1.6-3.2.6-1.8.1-3.5-.2-5.2-.8-1-.4-2-1-2.9-1.6-.2-.2-.5-.4-.7-.6l-.2-.2s.3.2.9.7c2.3 1.7 5.2 2.5 8 2.2 1.1-.1 2.1-.3 3.1-.7 1.1-.4 2.2-.9 3.1-1.7 1-.8 1.6-2 1.6-3.3-.1-1.4-1.2-2.6-2.5-2.8-.7-.2-1.4-.2-2.1.1-.7.2-1.3.7-1.8 1.3-1 1.2-1.5 2.9-1.2 4.5.3 1.7.9 3.3 2 4.6 1.1 1.4 2.4 2.6 3.9 3.5 3.2 2 7 2.7 10.8 2.2 1.9-.3 3.7-1 5.3-2 1.6-.9 2.6-2.6 2.7-4.4 0-.9-.3-1.7-.8-2.4-.6-.6-1.4-1-2.2-1-.8 0-1.7.2-2.4.6-.7.4-1.3 1-1.7 1.7-.8 1.4-1.3 3-1.3 4.6-.1 1.5 0 3.1.4 4.6.7 2.7 2.1 5.1 4 7.1 1.6 1.6 3.6 2.8 5.8 3.4 2.7.8 5.6.9 8.4.2.8-.5 1.1-.6 1.2-.6z"/><path class="st0" d="M258.2 58.2c.1.3.2.7.3 1.1.2.8.4 1.8.6 3 .5 2.6 1.2 6 1.9 9.7s1.4 7.3 1.8 9.8c.2 1.3.3 2.3.4 3 .1.4.1.7.1 1.1-.1-.3-.2-.7-.3-1.1-.2-.8-.4-1.8-.6-3-.5-2.6-1.2-6-1.9-9.8s-1.4-7.3-1.7-9.8c-.2-1.3-.3-2.3-.4-3-.2-.3-.2-.6-.2-1z"/><path class="st0" d="M279.7 76.2c-3 .3-6.1.4-9.1.3-3.1.1-6.1 0-9.1-.2 3-.3 6.1-.4 9.1-.3 3-.1 6 0 9.1.2zM220 76.9c-2.2-2.3-4.3-4.8-6.3-7.3-2.1-2.4-4.1-5-5.9-7.6 2.2 2.3 4.3 4.7 6.3 7.3 2.1 2.5 4.1 5 5.9 7.6zM252.9 44.5c-.7.2-1.5.3-2.3.3-1.4.1-3.4.1-5.5.1s-4.1-.1-5.5-.3c-.8 0-1.5-.1-2.3-.3.8-.1 1.5-.1 2.3 0l5.5.1 5.5.1c.7-.1 1.5-.1 2.3 0zM225.4 76.3c.2-.7.5-1.4.9-2l1.1-2.1c.5-.8.8-1.7.8-2.6-.4-2-.7-3.9-.9-5.2-.2-.7-.2-1.5-.2-2.2.3.7.5 1.4.6 2.1.3 1.3.7 3.2 1.1 5.2.1.5 0 1.1-.2 1.6-.2.4-.4.9-.7 1.3l-1.2 2.1c-.4.7-.8 1.3-1.3 1.8z"/><path class="st6" d="M185.2 231.9v-10.3l18.5-.1.2 15.4-1.1.1c-5.1.3-25.9 1-29.4-.1-3.8-1.2 11.8-5 11.8-5z"/><path class="st0" d="M172.9 236c0 .2 6.9.3 15.4.3s15.4-.1 15.4-.3-6.9-.3-15.4-.3-15.4.1-15.4.3zM184.9 234.1c.1-.1 0-.6-.4-1.2s-.9-.8-1-.7.1.6.5 1.1.8.8.9.8zM183.7 234.7c.2-.1.1-.7-.3-1.3s-.8-1-1-.9.1.6.4 1.2.8 1.1.9 1z"/><path class="st0" d="M198.2 235.9c.1 0 .3-.2.7-.7.5-.6 1-1.1 1.6-1.6.6-.5 1.3-.8 2-.9.6-.1.9 0 1-.1s-.3-.3-1-.4c-.9 0-1.7.3-2.4.8-.6.5-1.2 1.1-1.6 1.9-.2.6-.3 1-.3 1zM184.9 232.1c-.1.1.2.5.8.7s1 .1 1 0-.4-.4-.8-.5-.9-.3-1-.2zM185.2 231.1c0 .2.5.3 1.1.3s1.1-.1 1.1-.3-.5-.3-1.1-.3-1.1.1-1.1.3z"/><path class="st6" d="M224.2 231.9v-10.3l18.5-.1.2 15.4-1.1.1c-5.1.3-25.9 1-29.4-.1-3.8-1.2 11.8-5 11.8-5z"/><path class="st0" d="M211.9 236c0 .2 6.9.3 15.4.3s15.4-.1 15.4-.3-6.9-.3-15.4-.3-15.4.1-15.4.3zM223.9 234.1c.2-.1 0-.6-.4-1.2s-.9-.8-1-.7.1.6.5 1.1.8.8.9.8zM222.8 234.7c.2-.1.1-.7-.3-1.3s-.8-1-1-.9.1.6.4 1.2.7 1.1.9 1z"/><path class="st0" d="M237.2 235.9c.1 0 .4-.2.8-.7.5-.6 1-1.1 1.6-1.6.6-.5 1.3-.8 2-.9.6-.1.9 0 1-.1s-.3-.3-1-.4c-.9 0-1.7.3-2.4.8-.6.5-1.2 1.1-1.6 1.9-.3.6-.4 1-.4 1zM223.9 232.1c-.1.1.2.5.8.7s1 .1 1 0-.4-.4-.8-.5-.9-.3-1-.2zM224.2 231.1c0 .2.5.3 1.1.3s1.1-.1 1.1-.3-.5-.3-1.1-.3-1.1.1-1.1.3z"/><path class="st4" d="M281.5 89.6c-1-8.1-2.1-13.3-2.1-13.3l-17.6.3s1.6 8.9 1.1 11.3c-.4 2.1-34.4 3.5-43.3 3.6-.5-.4-1.3.3-2-.3-.6-.5-1.1-1.2-1.5-1.9-.5-.9-.9-1.8-1.2-2.8 0-.5-.5-.9-1-.8-.3 0-.6.2-.7.5-.4.8 0 3.3 1.7 5.7s-2.7 1.2-4.3.7-6.7-1.5-7.2-1.1c-.8.6-.3 1.5 1.3 1.9s6.4 1.9 6.1 2.8-8.4-1.5-8.4-1.5-1.7-.8-2 .2c-.6 1.8 8.3 3.6 9.1 3.7.6.1.3 1-.3.9s-8.1-2.5-8.8-.7c-.5 1.4 7.3 1.5 8.6 2.9s-5.9-.8-6.3.6c-.1.5 2.8.7 7.1 1.3 4.4.4 8.8.6 13.3.5 10 .5 45.2 1.3 52.7.7 8.8-.5 6-12.5 5.7-15.2z"/><path class="st0" d="M200.3 118.1c15.2-1.5 30.4-1.7 45.6-.6l-19.3 27.7-17.4.1-3.6 85.1h-23.1l2.2-94.9c.3-8.9 6.9-16.3 15.6-17.4z"/><path class="st2" d="M200.3 118.1c15.2-1.5 30.4-1.7 45.6-.6l-19.3 27.7-17.4.1-3.6 85.1h-23.1l2.2-94.9c.3-8.9 6.9-16.3 15.6-17.4z"/><path class="st0" d="M242.7 147.4s34.5 2.3 33.6-28.6c0 0-47.9-5.8-57.1 4.1-7.7 8.3-.7 107.5-.7 107.5l25.6-1.2"/><path class="st1" d="M249.9 117.1h-.7l-2 .1c-1.7.1-4.1.2-7.1.4l-4.9.4c-1.8.2-3.7.3-5.6.7-2 .4-4.1.9-6 1.6-2 .8-4 1.9-5 4-.9 2-1.5 4.2-1.7 6.4-.2 2.1-.4 4.2-.4 6.2-.1 4-.3 7.6-.4 10.6s-.2 5.4-.3 7.1c0 .8-.1 1.5-.1 2 0 .2 0 .5-.1.7 0-.2-.1-.5-.1-.7v-2c0-1.7 0-4.1.1-7.2s.2-6.6.3-10.6c0-2.1.2-4.2.4-6.3.2-2.3.8-4.5 1.7-6.6.5-1.1 1.3-2 2.3-2.7.9-.6 1.9-1.2 3-1.6 2-.7 4-1.3 6.1-1.6 2-.3 3.9-.5 5.7-.6s3.4-.2 5-.3c3-.2 5.5-.2 7.2-.3h2c.1.2.3.2.6.3zM244.4 222.6c-.3.1-.7.2-1 .2-.6.1-1.6.1-2.8.2-2.4.2-5.6.4-9.2.5s-6.9.3-9.2.4c-1.2 0-2.1.1-2.8.1h-1c.3-.1.7-.1 1-.1.7-.1 1.6-.1 2.8-.2 2.4-.2 5.6-.4 9.2-.5s6.9-.3 9.2-.4h2.8c.3-.3.6-.2 1-.2zM206.4 223.8c0 .1-5.4.3-12 .3s-12-.1-12-.3 5.4-.3 12-.3 12 .1 12 .3z"/><path class="st1" d="M217 128.3h-.3l-.9-.1c-.7-.1-1.8-.2-3.3-.2s-3.2-.1-5.2 0c-1.1 0-2.1.2-3.2.3-1.2.2-2.3.5-3.4 1.1-.5.3-1 .7-1.3 1.3-.3.6-.5 1.3-.6 1.9-.4 1.4-.6 2.8-.8 4.2-.3 3-.6 6.1-.8 9.5-.5 6.7-.8 14.1-1.1 21.8-.5 15.5-1.1 29.6-1.5 39.7-.2 5-.4 9.1-.5 12-.1 1.4-.1 2.5-.2 3.3 0 .4 0 .6-.1.9v.3-1.2c0-.8 0-1.9.1-3.3.1-2.9.2-7 .4-12 .4-10.2.9-24.2 1.4-39.7.3-7.8.6-15.1 1.1-21.9.3-3.3.5-6.5.8-9.5.2-1.4.5-2.9.9-4.3.2-.7.4-1.3.7-2 .3-.6.8-1.1 1.4-1.5 1.1-.6 2.3-.9 3.5-1.1 1.1-.2 2.2-.3 3.2-.3 1.7-.1 3.5 0 5.2.1 1.4.1 2.5.2 3.3.3l.9.1c.1.2.2.3.3.3zM270.6 118.2v.4c0 .2 0 .6-.1 1-.2 1.3-.7 2.6-1.4 3.7-1.8 3-4.9 5-8.4 5.5-1.5.1-3 .2-4.4.1h-18.7c-1 0-1.9.3-2.8.7-1.9.9-3.3 2.4-4 4.4-.3 1-.5 2-.5 3.1v17.1c0 18.9-.1 36-.1 48.4 0 6.2-.1 11.2-.1 14.7v5.4-5.4c0-3.5 0-8.5-.1-14.7 0-12.4-.1-29.5-.1-48.4v-17.1c0-1.1.1-2.2.5-3.3.8-2.1 2.3-3.7 4.3-4.6.9-.4 2-.7 3-.7h8.6l10.1.1c1.5.1 2.9 0 4.4-.1 3.4-.4 6.4-2.4 8.2-5.3.7-1.1 1.2-2.4 1.5-3.7.1-.4.1-.8.2-1s-.1-.3-.1-.3z"/><path class="st1" d="M243 140.5c.2 2.6.1 5.3-.5 7.9-.2-1.3-.2-2.7 0-4 .1-1.3.2-2.6.5-3.9z"/><path class="st0" d="M99.9 83.4s-1.1-8.8-.2-8.8 1.4 8.8 1.4 8.8h-1.5"/><path class="st6" d="M102.8 83.4s-1.1-8.8-.2-8.8 1.4 8.8 1.4 8.8h-1.5"/><path d="M102.8 83.4s-1.1-8.8-.2-8.8 1.4 8.8 1.4 8.8h-1.5" style="opacity:.3;enable-background:new"/><path class="st0" d="M107.2 83.4s-1.1-8.8-.2-8.8 1.4 8.8 1.4 8.8h-1.5"/><path class="st1" d="M104.6 83.8s0-8.9.9-8.8.3 8.9.3 8.9l-1.4-.2"/><path class="st6" d="M101.9 83.4s-1.1-8.8-.2-8.8 1.4 8.8 1.4 8.8h-1.5"/><path class="st9" d="M101.9 83.4s-1.1-8.8-.2-8.8 1.4 8.8 1.4 8.8h-1.5"/><path class="st6" d="m99.7 97.3-1.4-13.9H110v13.9z"/><path class="st0" d="M350.2 97.3H89.9v7h13.9l-7.2 132.6h4l7.2-132.6H336l6.1 132.6 4.4.2-6.5-132.8h10.2z"/><path class="st0" d="m175.1 56.3 14.5 42.1h65.3l-.5-2.1-26.4-.8-12.2-39.3z"/><path class="st7" d="M204.1 76.1c.4 1.7-.3 3.4-1.7 3.8s-2.8-.8-3.2-2.5.3-3.4 1.6-3.8 2.9.7 3.3 2.5z"/><path class="st6" d="M330.6 84.4c-1.2-.9-2.6-1.3-4-1.2v-1.3h-22.2s-.7 14.6 10.5 15.1c5 .2 7.9-2 9.5-4.8.8.2 1.7.3 2.5.3 1.2 0 2.5-.3 3.5-1 1.1-.9 1.8-2.3 1.7-3.7 0-1.3-.6-2.5-1.5-3.4zm-1.6 5.4c-1 .7-2.6.6-3.7.4.6-1.5.9-3.2 1.1-4.8 1-.1 2 .1 2.8.6.5.5.7 1.1.7 1.8 0 .8-.3 1.6-.9 2z"/><path class="st0" d="M324.6 80.4c-.2-.2-.4-.4-.5-.6-.4-.7-.8-1.4-.9-2.2-.3-1.2-.2-2.5.3-3.7.8-1.5 1.8-2.7 3.1-3.8 1.4-1.3 2.4-3.1 2.8-5 .4-2.2 0-4.5-1.2-6.3-.6-1-1.5-1.9-2.5-2.6-1.1-.7-2.2-1.2-3.4-1.5-1.3-.4-2.5-1-3.6-1.8-.5-.5-1-1-1.3-1.7-.3-.7-.4-1.4-.3-2.2l.1-.3.3.3c-1.2.5-2 1.7-2 3-.1 1.3.2 2.5.8 3.7.5 1.1 1.2 2.2 1.7 3.4.6 1.1.8 2.4.7 3.7-.2 1.2-.7 2.3-1.6 3.1-.8.8-1.8 1.4-2.8 1.9-1.9.9-3.9 1.4-5.4 2.3-1.4.8-2.5 2-3.1 3.5-.5 1.1-.8 2.3-.8 3.5 0 1 .2 2 .6 3 0 0 0-.1-.1-.2-.1-.2-.2-.4-.2-.5-.3-.7-.4-1.5-.4-2.3 0-1.2.2-2.5.7-3.6.6-1.5 1.8-2.8 3.2-3.6 1.7-.9 3.5-1.7 5.4-2.4 1-.4 1.9-1 2.6-1.8.8-.8 1.3-1.8 1.5-2.9.1-1.2-.2-2.4-.7-3.4-.5-1.1-1.2-2.2-1.7-3.4-.7-1.2-1-2.6-.9-3.9.1-.7.3-1.4.7-2 .4-.6 1-1.1 1.7-1.4l.5-.2-.1.5-.1.2c-.2 1.3.4 2.6 1.4 3.4 1 .8 2.2 1.4 3.4 1.7 1.3.4 2.4.9 3.5 1.6 1 .7 1.9 1.6 2.6 2.7 1.3 2 1.7 4.4 1.2 6.7-.4 2-1.5 3.8-3 5.1-1.3 1-2.3 2.2-3.1 3.6-.5 1.1-.6 2.3-.4 3.5.3 1.1.7 2.1 1.3 2.9zM120.4 61l-.2-9.6 33.5 2.8 1 8.6z"/><path class="st1" d="M124.1 61.2c-.3-1.5-.5-3.1-.4-4.7-.1-1.6-.1-3.2.1-4.7.3 1.5.5 3.1.4 4.7.1 1.5 0 3.1-.1 4.7zM125.3 51.8c.3 1.5.4 3.1.4 4.7.1 1.6.1 3.2-.2 4.7-.3-1.5-.4-3.1-.4-4.7-.1-1.5 0-3.1.2-4.7z"/><path class="st7" d="M128.4 56.1c5.8.6 12.7 1 18.6 1.5"/><path class="st1" d="M147 57.6c-.9.1-1.8 0-2.7 0-1.7-.1-4-.2-6.6-.4s-4.9-.4-6.6-.6c-.9-.1-1.8-.2-2.7-.5.9-.1 1.8 0 2.7.1l6.6.5c2.6.2 4.9.4 6.6.6.9-.1 1.8 0 2.7.3zM149.4 62.5c-.5-2.8-.6-5.7-.4-8.5.5 2.8.7 5.6.4 8.5zM151.6 62.6c-.4-1.4-.6-2.8-.7-4.3-.2-1.4-.3-2.9-.2-4.3.4 1.4.6 2.8.7 4.3.2 1.4.3 2.9.2 4.3z"/><path class="st7" d="M133.3 58.2c3.7.2 6.5.4 9.4.5"/><path class="st1" d="M142.8 58.7c-1.6.2-3.2.2-4.7 0-1.6 0-3.2-.2-4.7-.5 1.6-.2 3.2-.2 4.7 0 1.5 0 3.1.1 4.7.5z"/><path class="st6" d="m126.8 97.4-.9-9.5 33.7.1 1.8 9.3z"/><path class="st9" d="m126.8 97.4-.9-9.5 33.7.1 1.8 9.3z"/><path transform="rotate(-89.9 144.115 92.512)" class="st0" d="M143.3 82h1.7v21h-1.7z"/><path class="st0" d="m122.1 88.7-.8-9.5 33.6.4 1.6 8.5z"/><path class="st7" d="m121.4 80.5.5 6.4 32.7-.3-1-5.9z"/><path class="st0" d="M151.9 83.3c-.4.1-.8.1-1.2.1h-3.2c-2.7 0-6.5 0-10.6-.1s-7.9-.2-10.6-.3l-3.2-.1c-.4 0-.8 0-1.2-.1.4-.1.8-.1 1.2-.1h3.2c2.7 0 6.5 0 10.6.1s7.9.2 10.6.3l3.2.1c.4 0 .8 0 1.2.1zM151.9 84.1c-.4.1-.8.1-1.2.1l-3.2.1c-2.7.1-6.5.2-10.7.2s-8 .1-10.7.1h-3.2c-.4 0-.8 0-1.2-.1.4-.1.8-.1 1.2-.1l3.2-.1c2.7-.1 6.5-.2 10.7-.2s7.9-.1 10.7-.1h3.2c.4 0 .8.1 1.2.1z"/><path class="st1" d="m122.6 79.6-.6-9.5 33.6 1 1.4 8.5z"/><path class="st7" d="m123.9 78.4 32.7-.4-.9-6-32.4-.6z"/><path class="st6" d="m123.5 70.3-.3-9.6 33.6 2.2 1.1 8.5z"/><path transform="rotate(-86.566 140.856 64.756)" class="st0" d="M140 54.2h1.7v21.1H140z"/><path class="st0" d="M156.1 74.5c-.4.1-.9.1-1.3.1l-3.5.1c-3 .1-7 .1-11.5.1h-11.6l-3.5-.1c-.4 0-.9 0-1.3-.1.4-.1.9-.1 1.3-.1l3.5-.1c3-.1 7-.1 11.6-.1h11.5l3.5.1c.4-.1.8 0 1.3.1zM156.4 76.3c-.4.1-.9.1-1.3.1h-3.5c-3 0-7.1 0-11.6-.1s-8.6-.1-11.6-.2l-3.5-.1c-.4 0-.9 0-1.3-.1.4-.1.9-.1 1.3-.1h3.5c3 0 7.1 0 11.6.1s8.6.1 11.6.2l3.5.1c.5 0 .9 0 1.3.1z"/></g></svg>