<svg version="1.1" id="Layer_1" xmlns="http://www.w3.org/2000/svg" x="0" y="0" viewBox="0 0 398.3 415.1" style="enable-background:new 0 0 398.3 415.1" xml:space="preserve"><style>.st0{fill:#e0e0e0}.st1{fill:#fafafa}.st2{fill:#f5f5f5}.st3{fill:#ebebeb}.st4{fill:#455a64}.st5{fill:#263238}.st6{fill:#0061f2}.st7{fill:#ffbe9d}.st8{fill:#eb996e}</style><g id="background-complete--inject-433"><path class="st0" d="M36.6 10.3h159.9v200.9H36.6z"/><path class="st1" d="M42.4 16h149.2v189.4H42.4z"/><path class="st2" d="M42.4 155.5h30.1l3.8 17.6h13.1l11.1-50.2h37.1V88.6h27v57.3h27.1v59.6H42.4z"/><path class="st0" d="M114.6 16h4.8v187.9h-4.8z"/><path class="st0" d="M42.4 107.8h149.2v4.9H42.4zM348.4 63.8l9.6 24.6h-6l-4.8-15.1z"/><path class="st3" d="m315.6 41.1-3.3 47.1 34.1.7 3.8-47.8z"/><path class="st1" d="m319 44.9-2.7 39.2 25.3 1.2 3.5-40.6z"/><path class="st0" d="M324.6 50.5 322.5 78h14l2.4-27.5z"/><path class="st3" d="M265 88.6V49.9h28.3v38.6z"/><path class="st0" d="M281.1 49.9S287.9 0 286 0s-6.7 45.5-6.7 45.5-.2-37.7-2-37.5 0 39.9 0 39.9-3.1-32.2-4.7-31.4c-1.7.8.7 33.3.7 33.3h7.8"/><path class="st3" d="M276 49.9s2.4-24.9 3.1-23.2 0 14.8 0 14.8 6.6-32.1 8.3-31.1-6.7 34.9-6.7 34.9 6.4-19.3 7.8-17.3-5.3 20.1-5.3 20.1 6.9-12.8 7.3-11.1-3.3 12.7-3.3 12.7l-11.2.2zM271.9 50s-15.1-29.7-13.3-28.8 11.6 20.1 11.6 20.1-6.4-18.5-5-19.1 8.4 20.8 8.4 20.8l1.6 7h-3.3z"/><path class="st0" d="m278.1 49.9.7 38.7h-13.4l-.3-38.8z"/><path class="st2" d="m265 53.3 13.1.2 15.2-.2.5-3.7h-29.1z"/><path class="st0" d="M240.7 87.9h141.7v6.2H240.7z"/></g><g id="Device--inject-433"><path class="st4" d="M267.2 312.1c-1.2-1.3 1.6-9.1 15.1-9.6s18.8 4.3 18.8 9.6c0 2.3-33.9 0-33.9 0z"/><path class="st2" d="m260.6 108.8-14.9 92.3h136.2l16.4-93.3z"/><path class="st0" d="M259.2 117.2c.1-.3 137.6-.5 137.6-.5l1.6-8.9-137.8 1-1.4 8.4"/><path class="st5" d="M266.3 112.9c0 .7-.6 1.3-1.3 1.3s-1.3-.6-1.3-1.3c0-.7.6-1.3 1.3-1.3.8.1 1.3.6 1.3 1.3zM272.5 112.9c0 .7-.6 1.3-1.3 1.3-.7 0-1.3-.6-1.3-1.3s.6-1.3 1.3-1.3 1.3.6 1.3 1.3zM278.7 112.9c0 .7-.6 1.3-1.3 1.3s-1.3-.6-1.3-1.3c0-.7.6-1.3 1.3-1.3.8.1 1.3.6 1.3 1.3z"/><path class="st6" d="M294.1 158.6 277 178.3c-6.5-4.4-10.5-11.8-10.6-19.7 0-13.7 12.5-25 27.7-25s27.7 11.3 27.7 25h-27.7z"/><path class="st5" d="M296.3 161.8c-.1.1-.2.3-.3.4l-.9 1.1-3.4 4c-2.9 3.4-7.1 8.3-12.1 14.1v-.4c3.8 2.6 8.1 4.2 12.7 4.7 5.1.6 10.4-.2 15.1-2.3 4.5-2 8.4-5.1 11.3-9.1 1.3-1.9 2.3-3.9 3.1-6.1.7-2 1.1-4.1 1.2-6.2l.2.2-19.5-.3-5.5-.1-1.5-.1c-.1.2-.2.2-.4.1.1.1.3.1.5.1h6.9l19.6.1h.2v.2c-.1 2.2-.5 4.3-1.2 6.3-.8 2.2-1.8 4.3-3.1 6.2-2.9 4.1-6.9 7.4-11.6 9.4-4.8 2.1-10.1 2.9-15.4 2.3-4.6-.5-9.1-2.2-12.9-4.9l-.2-.1.2-.2 12.3-14.1 3.5-3.9.9-1c.1-.1.2-.3.3-.4z"/><circle class="st5" cx="305.9" cy="143.8" r="1.5"/><path class="st5" d="M338.2 132.4c-.5.1-1 .1-1.5.1l-4 .1c-3.4 0-8 .1-13.1.1h-2.4l.2-.1c-3.2 3.2-6.1 6-8.1 8l-2.5 2.3c-.3.3-.6.6-.9.8.2-.3.5-.6.8-.9.6-.6 1.4-1.5 2.3-2.4 2-2.1 4.8-4.9 8-8.1l.1-.1h2.6c5.1 0 9.7 0 13.1.1l4 .1c.5-.1 1 0 1.4 0z"/><path class="st5" d="M373.3 151.9c0-.2 0-.4.1-.5.1-.4.1-.9.2-1.5l1-5.6 3.6-20.1.2.2-38.7.1.2-.2v.4l-.1.5-.2.9-.3 1.8c-.2 1.2-.5 2.4-.7 3.6-.4 2.4-.9 4.8-1.3 7.1-.9 4.6-1.7 9-2.5 13.2l-.2-.3 27.9.1 8 .1h2.1l.7.2.1-.1-.1.1-.6-.1h-2.1l-7.9.1-28 .1h-.3v-.3c.8-4.2 1.6-8.6 2.4-13.2.4-2.3.9-4.7 1.3-7.1.2-1.2.5-2.4.7-3.6l.3-1.8.2-.9.1-.5v-.4l.3-.2 38.7.1h.1v.2c-1.6 8.4-2.9 15.3-3.8 20.1-.5 2.4-.8 4.2-1.1 5.5l-.3 1.4c.1.5 0 .6 0 .6z"/><circle class="st5" cx="308.3" cy="175" r="1.5"/><path class="st5" d="M336.5 175c0 .1-6.3.3-14.1.3s-14.1-.1-14.1-.3 6.3-.3 14.1-.3 14.1.1 14.1.3z"/><path class="st5" d="M373.3 187c0-.1 0-.3.1-.4.1-.3.1-.6.2-1.1.2-1 .6-2.3 1-4.1.9-3.5 2.1-8.6 3.6-14.8l.2.2-39.9.1.2-.2v.4l-.1.3-.2.7-.3 1.3c-.2.9-.5 1.8-.7 2.6l-1.4 5.2c-.9 3.4-1.7 6.7-2.5 9.8l-.2-.3 28.6.1 8.3.1H373l.3.1h-3l-8.2.1-28.8.1h-.3l.1-.3c.8-3.1 1.6-6.4 2.5-9.8.4-1.7.9-3.4 1.3-5.2l.7-2.6.3-1.3.2-.7.1-.3v-.4l.2-.2 39.9.1h.4l-.1.2c-1.6 6.2-2.9 11.3-3.9 14.9-.5 1.7-.8 3.1-1.1 4-.1.4-.2.8-.3 1s0 .5 0 .4zM370.2 132.8c0 .1-5.9.3-13.2.3s-13.2-.1-13.2-.3 5.9-.3 13.2-.3 13.2.2 13.2.3zM369.9 137.1c0 .1-6 .3-13.3.3s-13.3-.1-13.3-.3 6-.3 13.3-.3 13.3.2 13.3.3zM369.1 141.4c0 .1-5.8.3-12.9.3s-12.9-.1-12.9-.3 5.8-.3 12.9-.3 12.9.1 12.9.3z"/><path class="st5" d="M369.6 174.5c0 .1-5.6.3-12.6.3s-12.6-.1-12.6-.3 5.7-.3 12.6-.3 12.6.2 12.6.3zM368 179.3c0 .1-4.8.3-10.8.3s-10.8-.1-10.8-.3 4.8-.3 10.8-.3 10.8.1 10.8.3z"/><path class="st4" d="M207.1 279.8c-.5 2.8-13.8 32.3-5.2 32.3h43.3s-4.5-4.2 9.1-32.3h-47.2z"/><path class="st4" d="m179.1 181.2-17.7 103.4h149.2l18.3-107z"/><path class="st1" d="m184.2 186.3-15 92.2h136.3l16.4-93.2z"/><path class="st5" d="m328.9 177.6 2.8 1.9-19 107.9H165.3l-3.9-2.8h149.2z"/><path class="st3" d="M182.8 194.7c.1-.3 137.5-.5 137.5-.5l1.6-8.9-137.8 1-1.3 8.4"/><path class="st5" d="M284 270.4v-.3l.1-.8c.1-.7.3-1.7.5-3 .5-2.7 1.1-6.5 2-11.3 1.7-9.7 4.1-23.2 6.8-38.5v-.2h11.3v.3c-4.2 22.6-7.8 42.4-9.9 53.8v.1h-.1l-7.8-.1h-2.5 2.6l7.8-.1-.1.1 9.7-53.9.3.3H294l.2-.2c-2.8 15.2-5.2 28.6-7 38.3-.9 4.8-1.6 8.7-2.1 11.4-.2 1.3-.4 2.3-.6 3.1-.1.3-.1.6-.2.8-.3.1-.3.1-.3.2zM266.7 270.4c0-.2.1-.5.1-.7.1-.5.2-1.2.4-2.1.4-1.9.9-4.7 1.5-8 1.3-6.9 3.1-16.6 5.2-27.6v-.2h11.3l-.1.3c-3.2 15.7-6 29.6-7.8 38.4v.1h-.1l-7.8-.1h-2.7 2.8l7.7-.1-.2.1c1.7-8.8 4.5-22.8 7.6-38.5l.2.3H274l.2-.2c-2.2 10.9-4.1 20.5-5.4 27.3-.7 3.4-1.2 6.1-1.6 8.1l-.5 2.2c.2.3.1.5 0 .7zM249.4 270.4v-.3l.2-1c.1-.9.4-2.1.6-3.8.6-3.3 1.4-8.1 2.5-14 2.1-12 5.1-28.6 8.4-47.4v-.2h11.3v.3c-5.2 28.6-9.8 53.5-12.3 66.4v.1h-.1l-7.9-.1h-2.7 2.7l7.8-.1-.1.1c2.3-13 6.8-37.9 12-66.5l.3.3h-10.7l.2-.2c-3.4 18.7-6.4 35.3-8.6 47.2-1.1 5.9-2 10.7-2.6 14l-.7 3.8c-.1.4-.1.8-.2 1l-.1.4zM232.1 270.4c0-.2 0-.3.1-.5.1-.4.1-.9.2-1.5.2-1.4.6-3.3 1-5.7.9-5 2.1-11.8 3.5-19.8v-.2h11.2l-.1.3c-2.1 10.8-3.9 20.5-5.2 27.4v.1h-.1l-7.8-.1-2.1-.1c-.3.1-.5.1-.7.1h2.8l7.7-.1-.2.1c1.3-6.9 3.1-16.6 5.1-27.4l.3.3h-10.7l.2-.2c-1.5 7.9-2.8 14.6-3.7 19.5-.5 2.4-.8 4.3-1.1 5.7-.1.6-.2 1.1-.3 1.5 0 .2-.1.4-.1.6zM214.7 270.4v-.2c0-.1 0-.4.1-.6.1-.6.2-1.5.4-2.5.4-2.2.9-5.5 1.5-9.5 1.4-8.1 3.2-19.5 5.4-32.3v-.2h11.3l-.1.3c-3.3 18.6-6.2 35.1-8 45.1v.1h-.1l-7.8-.1h-2c-.3-.1-.5-.1-.7-.1l.2.1h2.6l7.7-.1-.1.1 7.8-45.2.3.3h-10.7l.2-.2c-2.2 12.8-4.2 24-5.6 32.1-.7 4-1.3 7.2-1.7 9.5-.2 1.1-.4 2-.5 2.6l-.2.8zM197.4 270.4v-.3c0-.2.1-.5.1-.9.1-.8.3-2 .6-3.4.5-3 1.3-7.4 2.2-12.8 1.9-11 4.6-26.2 7.6-43.4v-.2h11.3v.3c-4.7 25.9-8.8 48.6-11.1 60.8v.1h-.1l-7.9-.1h-2.5 2.6l7.8-.1-.1.1c2.1-12.2 6.1-34.9 10.8-60.8l.2.3h-10.7l.2-.2c-3.1 17.2-5.8 32.3-7.7 43.2-1 5.4-1.8 9.8-2.4 12.8-.3 1.5-.5 2.7-.6 3.5-.1.4-.1.7-.2.9l-.1.2zM189.9 190.4c0 .7-.6 1.3-1.3 1.3-.7 0-1.3-.6-1.3-1.3 0-.7.6-1.3 1.3-1.3.7.1 1.3.6 1.3 1.3z"/><circle class="st5" cx="194.9" cy="190.4" r="1.3"/><path class="st5" d="M202.3 190.4c0 .7-.6 1.3-1.3 1.3-.7 0-1.3-.6-1.3-1.3 0-.7.6-1.3 1.3-1.3.8.1 1.3.6 1.3 1.3zM180.1 270.4s0-.3.1-.8.2-1.3.4-2.3c.4-2 .8-4.9 1.4-8.5 1.3-7.3 3.1-17.5 5.1-29.2v-.2h11.3l-.1.3c-3.1 16.7-5.8 31.4-7.6 40.7v.1h-.1l-7.8-.1h-2.7l.2.1h2.6l7.7-.1-.2.1 7.4-40.7.2.3h-10.8l.2-.2c-2.1 11.5-4 21.7-5.3 28.9-.7 3.6-1.2 6.5-1.6 8.6-.2 1-.3 1.8-.4 2.3v.7c.1-.1 0-.1 0 0z"/><path class="st6" d="M297 229.7h-57.1l3.3-19.2h57.5z"/><path class="st6" d="m239.9 229.7-1.1 6.7s7.5-7 7.4-7H240"/><path class="st1" d="M292.1 217.2c0 .1-9.5.3-21.2.3s-21.2-.1-21.2-.3 9.5-.3 21.2-.3 21.2.1 21.2.3zM291.5 221.8c0 .1-9.5.3-21.2.3s-21.2-.1-21.2-.3 9.5-.3 21.2-.3 21.2.1 21.2.3z"/></g><g id="Desk--inject-433"><path class="st5" d="M222.2 318.7h162.6v94.9H222.2z"/><path class="st4" d="M222.2 318.7h74.1v94.9h-74.1z"/><path class="st5" d="M288.7 350.9V343.7c0-4.6 0-11.1-.1-19.2l.2.2-59.6.1c-.2.2.3-.3.3-.2V351l-.2-.2 42.7.1 12.4.1h4.2l.1-.1c0-.1-.1-.1-.2-.1h-4.1l-12.3.1-42.9.1h-.2v-26.4c-.1 0 .5-.5.3-.3H289v.2c0 8.1-.1 14.8-.1 19.4v6.6c-.1.1-.1.3-.2.4z"/><path class="st5" d="M261.5 337.8s-.1-.2-.2-.6c-.2-.5-.5-1-.9-1.3-.6-.5-1.5-.6-2.2-.3-1.2.4-1.8 1.8-1.4 3 .2.6.7 1.1 1.4 1.4.7.3 1.6.2 2.2-.3.4-.3.8-.8.9-1.3.1-.4.2-.6.2-.6s.1.2 0 .6c-.1.6-.4 1.1-.9 1.5-.7.6-1.7.8-2.6.5-1.4-.5-2.2-2.1-1.7-3.5.3-.8.9-1.4 1.7-1.7.9-.3 1.9-.1 2.6.4.5.4.8.9.9 1.5.1.4 0 .7 0 .7zM288.7 380V372.8c0-4.6 0-11.1-.1-19.2l.2.2-59.6.1.3-.3V380l-.2-.2 42.7.1 12.4.1h4.2c0-.1.1-.1.1 0l-.2-.1h-4.1l-12.3.1-42.9.1h-.2v-26.4l.3-.3 59.6.1h.2v.2c0 8.1-.1 14.8-.1 19.3v6.5c-.2.2-.2.3-.3.5z"/><path class="st5" d="M261.5 366.8s-.1-.2-.2-.6c-.2-.5-.5-1-.9-1.3-.6-.5-1.5-.6-2.2-.3-1.2.4-1.8 1.8-1.4 3 .2.6.7 1.1 1.4 1.4.7.3 1.6.2 2.2-.3.4-.3.8-.8.9-1.3.1-.4.2-.6.2-.6s.1.2 0 .6c-.1.6-.4 1.1-.9 1.5-.7.6-1.7.8-2.6.4-1.4-.5-2.2-2.1-1.7-3.5.3-.8.9-1.4 1.7-1.7.9-.3 1.9-.1 2.6.5.5.4.8.9.9 1.5.1.4 0 .7 0 .7zM288.7 409V401.8c0-4.6 0-11.1-.1-19.2l.2.2-59.6.1c-.2.2.3-.3.3-.2V409.1l-.2-.2 42.7.1 12.4.1h4.2l.1-.1c0-.1-.1-.1-.2-.1h-4.1l-12.3.1-42.9.1h-.2v-26.4c-.1 0 .5-.5.3-.3l59.6.1h.2v.2c0 8.1-.1 14.8-.1 19.4v6.6c-.2 0-.2.1-.3.3z"/><path class="st5" d="M261.5 395.8s-.1-.2-.2-.6c-.2-.5-.5-1-.9-1.3-.6-.5-1.5-.6-2.2-.3-1.2.4-1.8 1.8-1.4 3 .2.6.7 1.1 1.4 1.4.7.3 1.6.2 2.2-.3.4-.3.8-.8.9-1.3.1-.4.2-.6.2-.6s.1.2 0 .6c-.1.6-.4 1.1-.9 1.5-.7.6-1.7.7-2.6.4-1.4-.5-2.2-2.1-1.7-3.5.3-.8.9-1.4 1.7-1.7.9-.3 1.9-.1 2.6.4.5.4.8.9.9 1.5.1.6 0 .8 0 .8zM5.2 318.7H142v94.9H5.2z"/><path class="st5" d="M0 312.1h390.8v9H0z"/><path class="st4" d="M5.2 321.1h12.1v92.5H5.2z"/></g><g id="Character--inject-433"><path class="st5" d="M157.2 169.4c-.1-.4-.1-.8-.2-1.1-.1-1-.5-2-1-2.9-.3-.6-.8-1.1-1.5-1.4-.7-.3-1.5-.2-2.1.4-2.4 3-2.4 7.2 0 10.1.6.5 1.4.7 2.1.4.6-.3 1.1-.8 1.5-1.4.5-.9.9-1.9 1-2.9 0-.5.1-.9.2-1.2.1.4.1.8 0 1.2-.1 1.1-.4 2.1-.9 3.1-.4.7-.9 1.2-1.6 1.6-.4.2-.9.3-1.3.2-.5-.1-.9-.3-1.3-.6-2.7-3.1-2.7-7.7 0-10.9.4-.3.8-.5 1.3-.6.4-.1.9 0 1.3.2.7.4 1.2.9 1.6 1.6.5 1 .8 2 .9 3.1v1.1z"/><path class="st7" d="m114 149.8-3 59.9 25.7 2.4 1.4-14.6s9 2.2 11.8-6.1c1.8-5.4 3.3-47.2 3.3-47.2l-39.2 5.6z"/><path class="st5" d="M158.7 150.4c-2.2 5.2-10.4 9.7-10.4 9.7l-1.4 13.3c-1.2-.1-2.5-.1-3.7 0 .7-6.2-7.4-5-8.2-.8-.8 4.1 3.9 6.8 3.9 6.8-3.2 4.9-4.5 7.5-9.1 12.1-4.9 5-7.6 5.4-12.7 5.2l-5.6-.3s-2-4.8-3.4-16.1c-.7-5.4-5-12.6-3.8-21.4 3.4-25.1 31.2-20.7 31.2-20.7 10.6-8 28.4 0 23.2 12.2z"/><path class="st5" d="M157.2 169.4c-1.9.4-3.8.6-5.8.6-1.9.2-3.9.2-5.8 0 1.9-.4 3.8-.5 5.8-.6 1.9-.1 3.8-.1 5.8 0z"/><path class="st7" d="m239.2 239.8-9.4 5.8-3.4 8v-7s2.5-3 4.6-5.2.6-3.7 0-4.5-9.5 9.6-9.5 9.6v6c-4.2-5.1-6.1-3.4-6.7-2.4s6.7 7.9 6.7 7.9v2.1l-36.7 19.7-9.6-24-19.7 10.3 11.8 28.5c3.1 7.6 11.8 11.2 19.4 8.1.7-.3 1.3-.6 1.9-1l43.1-25.5 2.9-4.8c1-1.7 1.6-3.5 1.7-5.4l1.5-21.5c2.6-1.6 1.4-4.7 1.4-4.7z"/><path class="st8" d="M185 279.9c-.9 3.4-2.1 6.7-3.6 9.8.8-3.4 2.1-6.6 3.6-9.8zM237.7 244.6c-.6.3-1.1.5-1.7.8-1.3.6-2.4 1.8-2.8 3.2-.7 2-1.7 4-2.7 5.8.6-2.1 1.3-4.1 2.2-6 .3-.8.8-1.6 1.4-2.2.5-.5 1.1-.9 1.8-1.1.6-.4 1.2-.5 1.8-.5zM237.6 248c-.3 0-.6.2-.8.5-.3.6-.7 1.4-1 2.4-.4 1.2-.8 2.4-1.3 3.5 0-1.3.3-2.5.8-3.7.3-.8.7-1.6 1.2-2.4.2-.3.5-.4.8-.4.2 0 .3.1.3.1z"/><path class="st6" d="m149.6 262.6 4.2 14.2 26.6-12c-1-3-5.4-16.2-13.8-37.2-4.7-11.7-15.1-20.1-27.6-22.2-8.7-1.4-18.2-2.6-25.5-2.5-14.9.1-27.7 10.7-30.7 25.3-2.2 11.1 1.7 18.5-.8 42.9l-.8 61.4 71 2.6-2.6-72.5z"/><path class="st6" d="M85.3 270.4s-9.9.6-13.8-6.9c0 0 10.6-39.3 14.3-43.9l-.5 50.8z"/><path class="st5" d="M167.9 231.5c-.3.2-.5.4-.8.5-.9.3-1.8.5-2.7.5-1.5 0-2.9-.2-4.3-.5-1.6-.4-3.5-.9-5.5-1.3-1.1-.1-2.1-.2-3.2-.2-1.2.1-2.3.3-3.4.6-2.5.7-4.9 1.7-7.2 3-2.4 1.3-4.9 2.9-7.5 4.4-2.7 1.7-5.6 3-8.6 4-3.1 1-6.4 1-9.6.1-2.8-.9-5.5-2.4-7.8-4.2-2.2-1.7-4.2-3.5-6-5.2-1.7-1.6-3.4-3-5.3-4.3-2.6-2-5.7-3.3-9-3.8-1.2-.1-2.4-.1-3.6 0 .3-.1.6-.2.9-.2.9-.1 1.8-.2 2.7-.1 3.4.4 6.6 1.6 9.3 3.6 1.9 1.3 3.7 2.7 5.5 4.3 1.9 1.6 3.8 3.4 6 5.1 2.2 1.8 4.8 3.1 7.5 4 3 .8 6.1.7 9-.2 2.9-1 5.8-2.3 8.4-3.9 2.6-1.5 5.1-3.1 7.6-4.4 2.3-1.3 4.8-2.3 7.4-3 1.2-.3 2.4-.5 3.6-.5 1.1 0 2.3.1 3.4.3 2.1.4 3.9 1 5.5 1.4 1.4.4 2.8.6 4.2.7 1.1-.1 2.3-.3 3.5-.7zM150 280.5c-1.4-.8-2.9-1.4-4.4-1.6-1.7-.2-3.4-.1-5.1.3-1.9.4-3.9 1.1-6.2 1.6-3.9 1-7.9 1-11.8.2-3-.7-4.6-1.6-4.6-1.8s1.8.5 4.7 1c3.8.6 7.7.5 11.4-.5 2.2-.5 4.3-1.2 6.3-1.6 1.8-.4 3.6-.4 5.4-.1 1.2.2 2.4.7 3.4 1.4.7.7 1 1.1.9 1.1zM150.7 317.1s-.3.5-.9 1.1c-1 .9-2.1 1.6-3.2 2.2-1.8.9-3.7 1.4-5.7 1.4-2.4-.1-4.8-.6-7-1.6-2.3-.9-4.5-1.9-6.5-2.5-1.8-.5-3.6-.8-5.5-.6-1.2.1-2.4.4-3.5 1-.8.4-1.1.8-1.2.7s.2-.5 1-1c1.1-.8 2.4-1.3 3.7-1.4 2-.2 3.9-.1 5.8.5 2.2.7 4.4 1.5 6.6 2.5 2.1.9 4.3 1.4 6.6 1.6 1.8 0 3.7-.4 5.4-1.1 2.9-1.4 4.3-2.9 4.4-2.8z"/><path d="M73.7 271.1c9.3 1.9 18.9 0 28.3-.6 5.8-.3 12.1-1 16.7 2.6 3.6 2.8 5 7.5 6.1 12 4 16.9 4.7 32.1 5.6 49.4l-46-1-10.7-62.4z" style="opacity:.3"/><path style="opacity:.3;enable-background:new" d="m85.9 239.2 2 28.7h-6.1z"/><path class="st5" d="m98.8 332.4 91.3 3.2c14.8.5 26.5 12.8 26.3 27.6l-.8 51.8h-33.5l-2.2-44.7-81.1-2.1v-35.8z"/><path class="st4" d="M120.5 379.8h9v32.9h-9zM45.1 275.4v79.2c0 10.4 8.4 18.8 18.8 18.8h52.7v-98c0-4.6-3.8-8.4-8.4-8.4H53.5c-4.6 0-8.4 3.7-8.4 8.4z"/><path class="st4" d="M187.6 379.8H59.2c0-7.7 6.3-13.9 14-13.9h100.6c7.6-.1 13.9 6.2 13.8 13.9z"/><path class="st5" d="M116.7 364c.1.8 0 1.6-.2 2.3-.9 3.6-3.8 6.4-7.5 7.1-.8.1-1.6.2-2.5.2H71.3l-6.4-.1h-1.7c-.2 0-.4 0-.6-.1h2.3l6.4-.1 21-.1h14.1c.8 0 1.6 0 2.4-.1 1.4-.2 2.7-.8 3.9-1.7 1.7-1.2 2.9-3 3.5-5.1.4-1.5.4-2.3.5-2.3zM132.8 380.1c-2.6.3-5.2.4-7.9.3-2.6.1-5.3 0-7.9-.3 2.6-.3 5.3-.3 7.9-.3 2.7-.1 5.3 0 7.9.3z"/><path class="st4" d="M171.9 374.1c-.1-.3-.2-.7-.2-1-.1-.6-.3-1.6-.5-2.8-.4-2.5-1-6-1.6-10.4-.4-2.2-.6-4.6-1.1-7.1-.1-.6-.2-1.3-.4-1.9s-.4-1.3-.6-1.9c-.1-.3-.2-.7-.3-1s-.2-.6-.4-1c-.3-.7-.5-1.3-.8-2-1.3-2.7-2.9-5.3-4.8-7.6-2.1-2.5-4.5-4.7-7.2-6.5-2.7-1.8-5.6-3.2-8.7-4.2-2.9-.9-5.9-1.4-8.9-1.5-5.8-.1-11.1-.1-15.5-.2s-8-.1-10.5-.2c-1.2 0-2.2-.1-2.9-.1-.3 0-.7 0-1-.1.3-.1.7-.1 1-.1l2.9-.1c2.5-.1 6.1-.1 10.5-.2s9.7-.1 15.6-.1c3.1.1 6.2.6 9.2 1.5 3.2 1 6.2 2.4 9 4.3s5.3 4.1 7.4 6.7c1.9 2.4 3.6 5.1 4.9 7.9.3.7.5 1.4.8 2 .1.3.2.7.4 1s.2.7.3 1c.2.7.4 1.3.6 2s.2 1.3.4 2c.4 2.6.7 5 1 7.2.6 4.4 1 8 1.3 10.4.1 1.2.2 2.2.3 2.8-.2.4-.2.8-.2 1.2z"/></g></svg>