<svg version="1.1" id="Layer_1" xmlns="http://www.w3.org/2000/svg" x="0" y="0" viewBox="0 0 677.3 259.1" style="enable-background:new 0 0 677.3 259.1" xml:space="preserve"><style>.st0{fill:#e0e0e0}.st1{fill:#f5f5f5}.st2{fill:#ebebeb}.st3{fill:#fafafa}.st4{fill:#263238}.st5{fill:#455a64}.st6{fill:#0061f2}.st7{opacity:.3}.st8{fill:#fff}</style><g id="freepik--background-complete--inject-2"><path class="st0" d="M206.2 35.7h258.1v171.2H206.2z"/><path class="st1" d="M0 48.2C-.3 24 19.1 4.2 43.2 3.9s44 19.1 44.2 43.2c.3 24.1-19 43.9-43 44.2C20.3 91.7.4 72.4 0 48.2zm64.6-1c-.2-11.5-9.8-20.7-21.3-20.5-11.5.3-20.7 9.8-20.5 21.4.2 11.5 9.7 20.6 21.2 20.5 11.7-.3 20.9-9.9 20.6-21.4z"/><path class="st0" d="M0 48.2C-.4 24 18.8 4 43 3.5l.4 22.9c-11.6.2-20.9 9.7-20.7 21.3.2 11.6 9.7 20.9 21.3 20.7l.4 22.9C20.2 91.7.4 72.4 0 48.2z"/><path class="st2" d="M39.1 0c28.2-.5 50.7 21.4 51.2 49.8l-26.7.4c-.2-13.6-10.5-22.1-24-21.9L39.1 0z"/><path class="st0" d="M616.8 62.3h11.3v45.2h-11.3zM633.5 72.2h11.3v35.4h-11.3zM650.4 80.3h11.3v27.3h-11.3zM666 91.4h11.3v16.2H666z"/><path class="st1" d="M659.1 163.9c-15.8-14.6-40.3-13.8-55.1 1.9-14.6 15.5-13.9 40 1.7 54.6l.2.2c15.8 14.6 40.4 13.8 55.1-1.9 14.6-15.5 13.8-40-1.7-54.6-.1-.1-.1-.2-.2-.2zm-13 41c-7.1 7.5-18.8 7.9-26.3.9-7.5-6.9-7.9-18.6-1-26.1l.1-.1c7.1-7.5 18.8-7.9 26.3-.9 7.5 6.9 7.9 18.6.9 26.2.1-.1 0-.1 0 0z"/><path class="st2" d="M604 165.7c14.7-15.6 39.3-16.4 55.1-1.9l-13.9 14.8c-7.5-7-19.3-6.6-26.3.9-7 7.4-6.6 19.1.8 26.1l.1.1-13.9 14.8c-15.6-14.5-16.5-39-2-54.6 0-.1.1-.1.1-.2z"/><path class="st3" d="M657.5 157.5c19.2 17.9 21.5 46.9 3.6 66l-19.5-16.9c8.6-9.1 10.5-21.4 1.3-29.9l14.6-19.2z"/><path class="st0" d="M132.4 227.9h104c1.8 0 3.2 1.4 3.2 3.2v24.6c0 1.8-1.4 3.2-3.2 3.2h-104c-1.8 0-3.2-1.4-3.2-3.2v-24.6c0-1.7 1.4-3.2 3.2-3.2z"/><ellipse class="st1" cx="147.2" cy="244.5" rx="6.7" ry="6.8"/><path class="st0" d="M151 242.2c-1.1 1.4-2.3 2.7-3.6 3.9l-.9.9-.2.2-.2-.2c-1-.9-1.9-2-2.7-3.1 1.1.8 2.1 1.7 3.1 2.7h-.4l.9-.9c1.2-1.3 2.6-2.5 4-3.5z"/><path class="st3" d="M228.8 241.1c0 .1-14.8.3-33.1.3s-33.1-.1-33.1-.3 14.8-.3 33.1-.3 33.1.2 33.1.3zM229.1 246.8c0 .1-14.8.3-33.1.3s-33.1-.1-33.1-.3 14.8-.3 33.1-.3 33.1.1 33.1.3z"/></g><g id="freepik--Screens--inject-2"><path class="st3" d="M190.7 40H458v175.4H190.7z"/><path class="st4" d="M458 215.3c0-1.7-.1-68.4-.2-175.4l.2.2H190.7l.3-.3v175.4l-.2-.2 267.2.3-267.3.2h-.2V39.6h.3l267.3.1h.2v.2c-.2 107-.3 173.7-.3 175.4z"/><path class="st5" d="m272.4 136.8 26.3.4c-.2 14-12 25.4-26.3 25.4h-.2l.2-25.8z"/><path class="st4" d="M315.9 172.4h-2.2l-5.9.1v-.1c-2.4-2.9-5.4-6.8-8.7-10.9l-7-8.9.1.1-7.7-.1-2.2.1h-.8c.3 0 .5-.1.8-.1h2.2l7.7-.1h.1v.1l7 8.9 8.6 11-.1-.1 5.9.1h1.6c.1-.1.4-.1.6-.1zM325.3 175.4c0 .1-3.8.2-8.5.2s-8.5-.1-8.5-.2 3.8-.2 8.5-.2 8.5.1 8.5.2zM325.3 178.6c0 .1-3.8.2-8.5.2s-8.5-.1-8.5-.2 3.8-.2 8.5-.2 8.5.1 8.5.2z"/><path class="st6" d="m268.2 133-.4 25.8c-14.3-.2-25.9-11.8-25.9-25.8s11.9-25.8 26.3-25.8 26.3 11.6 26.3 25.8h-26.3z"/><path class="st4" d="M258 124.6c-.1.1-.3.1-.5.1l-1.3.2-4.7.7h-.1l-.1-.1-6.3-6.1c-3-3-5.8-5.7-7.7-7.6l-2.3-2.4c-.3-.3-.6-.6-.8-.9.3.2.6.5.9.8l2.4 2.2c2 1.9 4.8 4.6 7.8 7.6l6.2 6.2h-.1l4.8-.5 1.3-.1c.2-.1.3-.1.5-.1zM227.6 107.4c0 .1-3.8.2-8.5.2s-8.5-.1-8.5-.2 3.8-.2 8.5-.2 8.5.1 8.5.2zM227.6 110.5c0 .1-3.8.2-8.5.2s-8.5-.1-8.5-.2 3.8-.2 8.5-.2 8.5.1 8.5.2z"/><path class="st6" d="m360.2 82.1-.1-16c-4.9.1-9.6 1.9-13.2 5.2-4.7 4.1-7.1 10.4-6.4 16.6.1.8.2 1.6.4 2.3v.1l19.3-4.4v-3.8z"/><g class="st7"><path class="st8" d="m360.2 82.1-.1-16c-4.9.1-9.6 1.9-13.2 5.2-4.7 4.1-7.1 10.4-6.4 16.6.1.8.2 1.6.4 2.3v.1l19.3-4.4v-3.8z"/></g><path class="st6" d="M380.1 77.2c-2.9-6.2-8.8-10.3-15.6-10.9l-.6-.1H362.2l.1 16V86l19.4 4.2c.3-1.4.4-2.8.4-4.1.1-3.2-.6-6.2-2-8.9z"/><path d="M380.1 77.2c-2.9-6.2-8.8-10.3-15.6-10.9l-.6-.1H362.2l.1 16V86l19.4 4.2c.3-1.4.4-2.8.4-4.1.1-3.2-.6-6.2-2-8.9z" class="st7"/><path class="st6" d="M361.3 87.9 342 92.2c2.4 10.7 13 17.4 23.7 15 7.5-1.7 13.4-7.6 15-15.1l-19.4-4.2"/><path class="st4" d="M436.5 85c0 .1-10 .3-22.3.3s-22.3-.1-22.3-.3 10-.3 22.3-.3 22.3.1 22.3.3zM436.5 79.9c0 .1-10 .3-22.3.3s-22.3-.1-22.3-.3 10-.3 22.3-.3 22.3.1 22.3.3zM436.5 74.8c0 .1-10 .3-22.3.3s-22.3-.1-22.3-.3 10-.3 22.3-.3 22.3.2 22.3.3zM436.5 89.7c0 .1-10 .3-22.3.3s-22.3-.1-22.3-.3 10-.3 22.3-.3 22.3.2 22.3.3zM422.6 94.8c0 .1-6.9.3-15.3.3S392 95 392 94.8s6.9-.3 15.3-.3 15.3.2 15.3.3z"/><path class="st6" d="M345.1 131.7h4.6V183h-4.6zM353.9 149.1h4.6V183h-4.6zM362.8 138h4.6v45.2h-4.6zM371.7 133.6h4.6v49.3h-4.6zM380.5 150.1h4.6v32.8h-4.6zM389.4 156.6h4.6V183h-4.6zM398.3 136.9h4.6v46h-4.6zM407.2 145.2h4.6v37.7h-4.6zM416 138.6h4.6V183H416zM424.9 152.7h4.6v30.2h-4.6zM433.8 147h4.6v36h-4.6z"/><path class="st4" d="M440.2 186.5c0 .1-21.8.2-48.7.2s-48.7-.1-48.7-.2 21.8-.2 48.7-.2 48.7.1 48.7.2zM351.6 190.6c-2.3.2-4.6.2-6.8 0 2.3-.2 4.6-.2 6.8 0zM362.9 190.8c-2.7.3-5.4.3-8.1 0 2.7-.3 5.4-.3 8.1 0zM372.6 190.8c-2.7.3-5.4.3-8.1 0 2.6-.3 5.4-.3 8.1 0zM382.2 190.8c-2.7.3-5.4.3-8.1 0 2.7-.3 5.4-.3 8.1 0zM391.9 190.8c-2.7.3-5.4.3-8.1 0 2.6-.3 5.4-.3 8.1 0zM401.5 190.8c-2.7.3-5.4.3-8.1 0 2.7-.3 5.4-.3 8.1 0zM411.2 190.8c-2.7.3-5.4.3-8.1 0 2.6-.3 5.4-.3 8.1 0zM420.8 190.8c-2.7.3-5.4.3-8.1 0 2.6-.3 5.4-.3 8.1 0zM430.5 190.8c-2.7.3-5.4.3-8.1 0 2.6-.3 5.3-.3 8.1 0zM440.1 190.8c-2.7.3-5.4.3-8.1 0 2.7-.3 5.4-.3 8.1 0z"/><g class="st7"><path class="st8" d="M353.9 149.1h4.6V183h-4.6z"/></g><g class="st7"><path class="st8" d="M371.7 133.6h4.6v49.3h-4.6z"/></g><g class="st7"><path class="st8" d="M389.4 156.6h4.6V183h-4.6z"/></g><g class="st7"><path class="st8" d="M407.2 145.2h4.6v37.7h-4.6z"/></g><g class="st7"><path class="st8" d="M424.9 152.7h4.6v30.2h-4.6z"/></g><path class="st6" d="M223.2 72.9c0 2.4-2 4.4-4.4 4.4s-4.4-2-4.4-4.4c0-2.4 2-4.4 4.4-4.4 2.4 0 4.4 2 4.4 4.4zM299.2 69.4c0 .2-14.9.3-33.3.3s-33.3-.1-33.3-.3 14.9-.3 33.3-.3 33.3.2 33.3.3zM259.3 74.8c-.3.1-.7.1-1 .1l-2.8.1c-2.4 0-5.7.1-9.3.1s-6.9 0-9.3-.1l-2.8-.1c-.3 0-.7 0-1-.1.3-.1.7-.1 1-.1.7 0 1.6-.1 2.8-.1 2.4 0 5.6-.1 9.3-.1s6.9 0 9.3.1c1.2 0 2.2.1 2.8.1.4 0 .7 0 1 .1z"/><path class="st3" d="M45.3 55.8h139.9v159.7H45.3z"/><path class="st4" d="M185.3 215.5v-11.6c0-7.5 0-18.6-.1-32.6 0-28-.1-67.9-.1-115.5l.2.2H45.4l.3-.3v159.7l-.2-.2 101.3.1 28.4.1h7.5l2.6.1h-10l-28.3.1-101.6.1h-.2V55.7h140.4v.2c-.1 47.7-.1 87.6-.1 115.7 0 14-.1 25-.1 32.5v10.8c0 .5-.1.6-.1.6z"/><path class="st6" d="M173.2 137.4c0 .1-1.6-.8-4.5-1.7-4.2-1.3-8.6-1.6-12.9-1-3 .5-5.8 1.4-8.5 2.7-3 1.6-5.9 3.6-8.4 6-2.7 2.4-5.5 5.2-8.6 7.7-3.2 2.7-7 4.8-11 5.9-2.1.6-4.3.7-6.4.4-2.1-.3-4.1-.9-5.9-1.8-3.4-1.8-6.8-3.8-10-5.9-2.9-1.9-6-3.3-9.4-4.2-2.9-.7-5.9-.9-8.9-.7-4.4.4-8.6 1.7-12.3 4-2.6 1.6-3.9 2.8-4 2.7l.9-.9c.9-.8 1.8-1.5 2.9-2.2 6.4-4.1 14.2-5.5 21.6-3.8 3.4.9 6.7 2.3 9.6 4.2 3.2 2.1 6.5 4.1 9.9 5.8 3.6 1.9 7.8 2.3 11.7 1.4 3.9-1.1 7.6-3.1 10.8-5.7 3.1-2.5 5.8-5.2 8.6-7.6 2.6-2.4 5.5-4.4 8.6-6.1 6.8-3.4 14.7-3.9 21.9-1.4 1.1.4 2.2.9 3.3 1.4.4.3.7.5 1 .8zM83.9 158.8h11.9V191H83.9zM134.3 158.8h11.9V191h-11.9z"/><path class="st6" d="M151.2 139.9h11.9V191h-11.9zM68.5 180.9h11.9v10.8H68.5zM100.7 173.3h11.9v17.6h-11.9zM117.5 169.3h11.9V191h-11.9z"/><path class="st4" d="M96.2 194.8c0 .3-2.9.5-6.4.5s-6.4-.2-6.4-.5 2.9-.5 6.4-.5c3.6 0 6.4.2 6.4.5zM81.4 194.8c0 .3-2.9.5-6.4.5s-6.4-.2-6.4-.5 2.9-.5 6.4-.5 6.4.2 6.4.5zM165.4 194.8c0 .3-3.2.5-7.3.5s-7.3-.2-7.3-.5 3.2-.5 7.3-.5 7.3.2 7.3.5z"/><ellipse class="st4" cx="140.5" cy="194.8" rx="7.3" ry=".5"/><path class="st4" d="M129.4 194.8c0 .3-2.9.5-6.4.5s-6.4-.2-6.4-.5 2.9-.5 6.4-.5 6.4.2 6.4.5zM112 194.8c0 .3-2.9.5-6.4.5s-6.4-.2-6.4-.5 2.9-.5 6.4-.5 6.4.2 6.4.5z"/><path class="st0" d="M68.2 79.1h97.2v40.4H68.2z"/><path class="st4" d="M88.4 91.9c0 2.5-2 4.5-4.5 4.5s-4.5-2-4.5-4.5 2-4.5 4.5-4.5c2.4-.1 4.5 2 4.5 4.5zM92.9 88.7h31.6v1.8H92.9z"/><path class="st8" d="M92.9 92.7h61.4v1.8H92.9z"/><path class="st6" d="M88.4 105.8c0 2.5-2 4.5-4.5 4.5s-4.5-2-4.5-4.5 2-4.5 4.5-4.5c2.4 0 4.5 2 4.5 4.5zM92.9 102.7H109v1.8H92.9z"/><path class="st8" d="M92.9 106.7h61.4v1.8H92.9z"/><path class="st3" d="M471.1 27.2h153.6v175.4H471.1z"/><path class="st4" d="M624.8 202.5v-12.7c0-8.3 0-20.4-.1-35.8 0-30.8-.1-74.6-.1-126.9l.2.2H471.2l.3-.3v175.4l-.2-.2 111.4.1 31.2.1h8.2l2.7.1c.1-.1-.9-.1-2.7-.1h-8.2l-31.1.2-111.6.1h-.2V26.9h154.1v.2c0 52.4-.1 96.2-.1 127 0 15.4 0 27.5-.1 35.7v11.8c-.1.6-.1.9-.1.9z"/><path class="st0" d="M483.4 41.2h124.5V141H483.4z"/><path class="st4" d="M492.1 123.3h4.1v1.2h-4.1zM501.4 129.6h5.2v1.2h-5.2zM519.6 129.6h5.2v1.2h-5.2zM537.8 129.6h5.2v1.2h-5.2zM555.9 129.6h5.2v1.2h-5.2zM574.1 129.6h5.2v1.2h-5.2zM592.3 129.6h5.2v1.2h-5.2zM492.1 107.6h4.1v1.2h-4.1zM492.1 78h4.1v1.2h-4.1zM492.1 63.1h4.1v1.2h-4.1zM492.3 92.8h4.1V94h-4.1zM597.4 124.5h-6.7l-18.2.1-60 .1h-14.4v-.3c0-20 .1-37.7.1-50.3 0-6.3.1-11.4.1-14.9v-5.3 5.3c0 3.5 0 8.6.1 14.9 0 12.7 0 30.3.1 50.3l-.3-.2h14.2l60 .1 18.2.1 5 .1h1.8z"/><path class="st4" d="M598.5 93.4c0 .1-21.5.3-48.1.3s-48.1-.1-48.1-.3 21.5-.3 48.1-.3 48.1.1 48.1.3zM598.5 78.6c0 .2-21.5.3-48.1.3s-48.1-.1-48.1-.3 21.5-.3 48.1-.3 48.1.1 48.1.3zM598.5 63.7c0 .2-21.5.3-48.1.3s-48.1-.1-48.1-.3 21.5-.3 48.1-.3 48.1.1 48.1.3zM598.5 108.1c0 .1-21.5.3-48.1.3s-48.1-.1-48.1-.3 21.5-.3 48.1-.3 48.1.2 48.1.3z"/><path class="st5" d="M503.3 121.3v-13.1l8.2-12.7 5.6 4.3L528.4 82l6.7 4.7 9.3-16.3 7.6 6.2 11.4-21.7 12.3 24.2 9.9-12.1 11.7-3.4v57.6h-94z"/><path class="st6" d="M598.5 59h-3.2l-9 .1.1-.1-9.6 12.6-.1.1h-24.1l.2-.1c-3.2 5.3-6.6 11-10.1 16.8l-9.9 16.5-.2.3-.2-.3c-4.7-6.5-9.1-12.6-13-17.9h.3l-11.9 18.6-3.3 5.1-.9 1.3c-.2.3-.3.4-.3.4s.1-.2.3-.5l.8-1.4 3.2-5.2 11.7-18.6.2-.3.2.3 13.1 17.9h-.4l9.9-16.5 10.1-16.8.1-.1h24.3l-.2.1 9.7-12.5v-.1h.1l9 .1h3l.1.2z"/><path class="st6" d="M523.5 91.2c0 .5-.4.9-.9 1-.5 0-.9-.4-1-.9s.4-.9.9-1c.6 0 1 .4 1 .9zM551.3 75.4c0 .5-.4 1-.9 1s-1-.4-1-.9.4-1 .9-1h.1c.4.1.9.4.9.9zM572.8 71.6c0 .5-.4.9-.9 1-.5 0-.9-.4-1-.9 0-.5.4-.9.9-1 .6 0 1 .4 1 .9z"/><path class="st4" d="M602.3 155.9c0 .1-26.3.3-58.7.3s-58.6-.2-58.6-.3 26.3-.3 58.7-.3 58.6.1 58.6.3zM602.3 162.2c0 .1-26.3.3-58.7.3s-58.7-.1-58.7-.3 26.3-.3 58.7-.3 58.7.2 58.7.3zM602.3 168.6c0 .1-26.3.3-58.7.3s-58.7-.1-58.7-.3 26.3-.3 58.7-.3 58.7.1 58.7.3zM602.3 174.9c0 .1-26.3.3-58.7.3s-58.6-.2-58.6-.3 26.3-.3 58.7-.3 58.6.2 58.6.3z"/></g></svg>