<svg xmlns="http://www.w3.org/2000/svg" viewBox="0 0 500 500"><path style="fill:#263238" d="M366.71 414.87h67.19v9.23h-67.19z"/><path d="M434 424.22h-67.4v-9.47H434zm-67.17-.22h66.95v-9h-66.95z" style="fill:#263238"/><path style="fill:#263238" d="m372.94 421.03 9.67 47.71h35.78l9.35-44.64-54.8-3.07z"/><path style="fill:#455a64" d="m372.94 464.23 5.16 7.09h43.49l6.15-7.09h-54.8z"/><path d="M397.78 422.42c-.13 0-.3-22.1-.38-49.36s0-49.37.1-49.37.3 22.1.38 49.37.03 49.36-.1 49.36zM412.75 367.11a2.94 2.94 0 0 1-.18.51l-.6 1.43-.44 1-.45 1.26c-.16.45-.33.93-.52 1.44s-.32 1.06-.49 1.64a65.5 65.5 0 0 0-1.88 8.22 99.07 99.07 0 0 0-1 10.29 138.69 138.69 0 0 0 .53 18.79c.21 2.4.43 4.34.59 5.68.07.63.13 1.14.17 1.54a3.66 3.66 0 0 1 0 .54 1.82 1.82 0 0 1-.12-.52c-.07-.41-.16-.91-.26-1.54-.22-1.33-.49-3.26-.75-5.66a123.65 123.65 0 0 1-.67-18.85 94.21 94.21 0 0 1 1.08-10.34 62.29 62.29 0 0 1 2-8.25c.19-.58.34-1.13.54-1.64s.38-1 .55-1.44l.49-1.24c.16-.38.33-.72.48-1 .27-.57.5-1 .68-1.4s.23-.47.25-.46z" style="fill:#263238"/><path d="M411 349.23a4.08 4.08 0 0 1-.21.73c-.18.51-.41 1.2-.7 2.06l-.52 1.48c-.16.55-.34 1.14-.54 1.78-.39 1.28-.85 2.73-1.25 4.37-.22.82-.44 1.67-.68 2.55s-.41 1.83-.62 2.8c-.47 1.92-.81 4-1.25 6.2-.74 4.39-1.39 9.24-1.84 14.36s-.61 10-.67 14.47 0 8.47.22 11.83c.06 1.69.17 3.21.26 4.54s.16 2.49.24 3.43.13 1.62.17 2.16a4 4 0 0 1 0 .76s-.05-.26-.12-.75-.15-1.25-.25-2.16-.23-2.08-.33-3.42-.24-2.85-.32-4.54c-.23-3.37-.32-7.39-.33-11.85s.21-9.37.63-14.51 1.12-10 1.89-14.4c.45-2.19.8-4.28 1.29-6.21.23-1 .45-1.9.66-2.79s.48-1.74.7-2.56c.43-1.63.91-3.08 1.33-4.36.2-.63.4-1.23.58-1.78l.55-1.47c.33-.84.59-1.52.79-2a4.38 4.38 0 0 1 .32-.72zM393.53 426.33a1.11 1.11 0 0 1 0-.26c0-.2 0-.45-.06-.76-.05-.7-.11-1.68-.2-2.92-.16-2.58-.39-6.25-.67-10.77-.58-9.09-1.43-21.65-3-35.45a427.65 427.65 0 0 0-2.63-19.41c-.5-3-1-5.79-1.47-8.42s-1-5.07-1.45-7.3-.93-4.23-1.33-6-.76-3.28-1.08-4.51-.53-2.16-.7-2.85c-.07-.3-.12-.55-.17-.74a1.27 1.27 0 0 1 0-.26.9.9 0 0 1 .09.25l.22.73.78 2.82c.34 1.23.75 2.74 1.16 4.5s.94 3.76 1.4 6 1 4.66 1.51 7.3 1 5.45 1.52 8.42c1 5.95 1.89 12.51 2.67 19.42 1.53 13.83 2.32 26.39 2.82 35.49.24 4.55.42 8.23.52 10.78 0 1.24.08 2.22.11 2.93v.76a1 1 0 0 1-.04.25z" style="fill:#263238"/><path d="M397.23 334.32c-.29-3.13-3.45-5.5-6.6-5.53a10.41 10.41 0 0 0-8 4.34 25.16 25.16 0 0 0-3.85 8.55c-2.12 7.38-3.27 15.13-2.37 22.75s4 15.13 9.47 20.51c.89.88 2 1.75 3.26 1.49a3.88 3.88 0 0 0 1.72-1.06 50.91 50.91 0 0 0 16.52-38.71c-.08-2.9-.46-5.92-2.07-8.33s-5.34-5-8.08-4M373.75 309.24l-4.43 8c-.1.18-.24.39-.45.41s-.41-.2-.54-.39l-11.7-18 2.69-1.52z" style="fill:#0061f2"/><path d="m373.75 309.24-4.43 8c-.1.18-.24.39-.45.41s-.41-.2-.54-.39l-11.7-18 2.69-1.52z" style="opacity:.2"/><path d="m397.5 323.69-39.94-23.57a1.82 1.82 0 0 1-1-1c-.16-.59.28-1.16.71-1.6a27.53 27.53 0 0 1 21.34-8.39 24.4 24.4 0 0 1 19.3 12c3.86 6.89 4 16-.44 22.54" style="fill:#0061f2"/><path d="M363.32 292.6a1.79 1.79 0 0 1 .52-.07c.34 0 .85-.08 1.51-.07a29.86 29.86 0 0 1 5.54.44 32.36 32.36 0 0 1 7.89 2.4 32.46 32.46 0 0 1 18 21 30.59 30.59 0 0 1 1 5.47c.07.66 0 .82.06 1.17a2.18 2.18 0 0 1-.31.87 6.65 6.65 0 0 0 .06-2 32.79 32.79 0 0 0-26.72-28.55 35.29 35.29 0 0 0-5.48-.59c-1.39-.05-2.07-.03-2.07-.07z" style="fill:#263238"/><path d="M392.1 307.42a9.7 9.7 0 0 1-2 .92c-1.28.5-3.05 1.14-5 1.77s-3.82 1.14-5.14 1.46a9.73 9.73 0 0 1-2.18.42 9.77 9.77 0 0 1 2.08-.74l5.09-1.59L390 308a11 11 0 0 1 2.1-.58zM385.81 290.53a16.79 16.79 0 0 1 .47 4.45 17.08 17.08 0 0 1-.25 4.48 28.44 28.44 0 0 1-.23-4.47 26.85 26.85 0 0 1 .01-4.46zM357.21 299.67a18.33 18.33 0 0 1 2.9-1c1.82-.56 4.34-1.27 7.16-1.95s5.39-1.19 7.26-1.52a16.74 16.74 0 0 1 3.05-.41 22.81 22.81 0 0 1-3 .74c-1.85.41-4.41 1-7.22 1.66S362 298.5 360.2 299a20.78 20.78 0 0 1-2.99.67z" style="fill:#263238"/><path d="M380.65 327.52c-3.43-2.6-7.06-3.12-11.37-2.94a34.73 34.73 0 0 0-12.45 3.21c-6.74 2.95-13.07 7.3-17.09 13.45s-5.43 14.3-2.42 21a2.93 2.93 0 0 0 1.37 1.65 3.2 3.2 0 0 0 2.25-.17c7.66-2.5 15.38-5 22.42-8.93s13.46-9.36 17.24-16.47a14.31 14.31 0 0 0 1.81-5.47 6.76 6.76 0 0 0-1.76-5.34" style="fill:#0061f2"/><path d="M380.72 326.71a2 2 0 0 1-.55.23l-1.6.55-1.17.39c-.42.15-.87.34-1.35.53-1 .39-2.1.78-3.28 1.36l-1.88.85c-.65.3-1.3.67-2 1-1.39.69-2.8 1.56-4.29 2.44A67.94 67.94 0 0 0 347.71 349c-1.07 1.37-2.11 2.65-3 3.94-.43.64-.88 1.24-1.26 1.85l-1.09 1.75c-.72 1.1-1.25 2.17-1.77 3.08-.25.46-.49.88-.69 1.28s-.37.77-.54 1.1c-.3.63-.55 1.13-.75 1.52a2.52 2.52 0 0 1-.29.52 3.13 3.13 0 0 1 .2-.55l.68-1.57.49-1.12c.19-.41.43-.84.67-1.3.49-.93 1-2 1.71-3.13l1.07-1.78c.37-.62.82-1.23 1.25-1.87.84-1.31 1.88-2.61 2.94-4a65.94 65.94 0 0 1 17-15c1.51-.87 2.93-1.74 4.33-2.41.7-.35 1.36-.71 2-1l1.9-.83c1.2-.56 2.34-.93 3.32-1.3.5-.18.95-.36 1.38-.5l1.18-.35 1.63-.46a3.25 3.25 0 0 1 .65-.16zM353.88 341.25a82.49 82.49 0 0 1-8.35 2.69 79.44 79.44 0 0 1-8.5 2.23 84.32 84.32 0 0 1 8.36-2.69 79.64 79.64 0 0 1 8.49-2.23z" style="fill:#263238"/><path d="M353.54 359.69a12.83 12.83 0 0 1-.18-2.61c-.05-1.61-.06-3.83 0-6.29s.2-4.68.34-6.28a12.47 12.47 0 0 1 .33-2.59 16.31 16.31 0 0 1 0 2.61c-.05 1.76-.12 3.91-.19 6.28s-.11 4.51-.16 6.27a14.71 14.71 0 0 1-.14 2.61zM369.34 351.64c-.14 0-.56-4.51-.94-10.1s-.59-10.12-.46-10.13.55 4.51.94 10.1.59 10.12.46 10.13z" style="fill:#263238"/><path d="M349.67 331a14.73 14.73 0 0 1 2.68-.08c1.65 0 3.93.06 6.45.14s4.8.19 6.44.29a15.28 15.28 0 0 1 2.67.25 13.46 13.46 0 0 1-2.67.08c-1.65 0-3.94-.06-6.46-.14s-4.8-.18-6.44-.28a14.58 14.58 0 0 1-2.67-.26zM387.59 386a2.46 2.46 0 0 1-.06-.53c0-.41 0-.91-.07-1.54-.06-1.33-.07-3.27 0-5.66s.21-5.23.49-8.38.77-6.59 1.41-10.18 1.46-7 2.27-10 1.69-5.77 2.5-8 1.48-4.07 2-5.3l.61-1.42a2.33 2.33 0 0 1 .24-.48 2.39 2.39 0 0 1-.15.52c-.14.37-.31.85-.52 1.44-.48 1.25-1.12 3.08-1.87 5.34s-1.58 5-2.39 8-1.57 6.43-2.23 10-1.1 7-1.44 10.15-.5 6-.59 8.34-.13 4.31-.13 5.65v1.53a2 2 0 0 1-.07.52z" style="fill:#263238"/><path d="M389.7 359.84a11.47 11.47 0 0 1-1.6 1.75c-1 1-2.5 2.41-4.17 3.88s-3.24 2.74-4.4 3.63a10.72 10.72 0 0 1-1.94 1.35 12.5 12.5 0 0 1 1.73-1.61l4.29-3.73 4.26-3.77a12.14 12.14 0 0 1 1.83-1.5zM402.34 370a18.23 18.23 0 0 1-1.7-2.35l-3.94-5.76c-1.53-2.17-2.92-4.12-4-5.7a19.71 19.71 0 0 1-1.62-2.41 16.48 16.48 0 0 1 1.89 2.2c1.11 1.41 2.59 3.39 4.15 5.64s2.9 4.32 3.84 5.85a16.35 16.35 0 0 1 1.38 2.53zM395.72 338c.07.11-4.13 2.94-9.38 6.32s-9.57 6-9.64 5.91 4.13-2.94 9.38-6.32 9.57-6.03 9.64-5.91zM407.56 350.77a75.9 75.9 0 0 1-6.35-5.87 76.11 76.11 0 0 1-6-6.21 78 78 0 0 1 6.35 5.87 80.11 80.11 0 0 1 6 6.21z" style="fill:#263238"/><path d="m410.54 350.52 3.6-.3a17.85 17.85 0 0 0 7.29-2.23 28.24 28.24 0 0 1 3.39-1.7c4.46-1.79 9.43-1.47 14.23-1.71a59.12 59.12 0 0 0 22.63-5.79 2.22 2.22 0 0 0 1-.9c.74-1.35-.64-2.55-1.82-3.28-6.07-3.74-12.26-7.53-19.15-9.39s-14.7-1.54-20.58 2.5c-6.9 4.75-9.41 14.5-10.58 22.8" style="fill:#0061f2"/><path d="M462.75 337.45a3.57 3.57 0 0 1-.61-.28l-1.71-.9c-1.48-.78-3.62-1.93-6.31-3.22a59.71 59.71 0 0 0-9.77-3.77 32.29 32.29 0 0 0-12.67-1 21.62 21.62 0 0 0-11.54 4.95 25.83 25.83 0 0 0-6 8.45 70.65 70.65 0 0 0-2.62 6.57c-.26.76-.48 1.36-.64 1.82a4.14 4.14 0 0 1-.25.62 3.19 3.19 0 0 1 .16-.65c.14-.47.33-1.08.56-1.85a59.12 59.12 0 0 1 2.48-6.66 25.65 25.65 0 0 1 6-8.63 21.92 21.92 0 0 1 11.77-5.1 32.12 32.12 0 0 1 12.84 1.08 57.26 57.26 0 0 1 9.81 3.88c2.68 1.34 4.79 2.54 6.25 3.37l1.67 1a4.41 4.41 0 0 1 .58.32z" style="fill:#263238"/><path d="M454.09 342.1c-.07.11-4.79-2.94-10.53-6.81s-10.34-7.1-10.27-7.21 4.79 2.94 10.54 6.81 10.33 7.11 10.26 7.21zM449.06 327.83a11.34 11.34 0 0 1-3.43.62 11.47 11.47 0 0 1-3.5-.05 23.55 23.55 0 0 1 3.46-.35 23.93 23.93 0 0 1 3.47-.22zM428.42 325.14a9.26 9.26 0 0 1-1.55 2.42 9.93 9.93 0 0 1-2 2.22 9.31 9.31 0 0 1 1.55-2.41 10.42 10.42 0 0 1 2-2.23zM432.64 344.88a12.92 12.92 0 0 1-2.27-1.23c-1.36-.83-3.2-2-5.17-3.47s-3.7-2.78-4.94-3.76a13.92 13.92 0 0 1-2-1.68 12.45 12.45 0 0 1 2.16 1.41l5 3.65c2 1.42 3.76 2.67 5.07 3.57a14.32 14.32 0 0 1 2.15 1.51z" style="fill:#263238"/><path d="M415.85 365.84c-3.44-.91-7.54 2.43-8.25 5.92s.6 7.05 2.13 10.26A52.36 52.36 0 0 0 424 400.63a35.21 35.21 0 0 0 21.75 8c-1.46-6.75.38-13.81-.43-20.67a26.87 26.87 0 0 0-23.81-23.57c-2.2-.24-4.74-.58-5.61 1.45" style="fill:#0061f2"/><path d="M445.7 408.63a1.68 1.68 0 0 1-.49-.23 9.11 9.11 0 0 1-1.29-.86 13.44 13.44 0 0 1-3.4-4.54c-.54-1.07-1.16-2.22-1.76-3.5l-1.85-4.09a38 38 0 0 0-2.27-4.37 33.19 33.19 0 0 0-3.13-4.26c-2.35-2.76-4.88-5.16-7.07-7.44a49 49 0 0 1-5.39-6.47 23.46 23.46 0 0 1-2.63-5 13.68 13.68 0 0 1-.46-1.48 1.9 1.9 0 0 1-.11-.52s.24.7.74 1.93a25.9 25.9 0 0 0 2.74 4.91 51.42 51.42 0 0 0 5.43 6.35c2.2 2.26 4.74 4.65 7.12 7.44a35 35 0 0 1 3.16 4.32 38.19 38.19 0 0 1 2.28 4.44c.63 1.44 1.24 2.81 1.8 4.1s1.18 2.44 1.7 3.51a14 14 0 0 0 3.18 4.53c1 .86 1.72 1.19 1.7 1.23z" style="fill:#263238"/><path d="M427.91 403a10.75 10.75 0 0 1 .32-2.32c.27-1.41.71-3.36 1.3-5.47s1.24-4 1.75-5.36a10.37 10.37 0 0 1 .94-2.14 12.61 12.61 0 0 1-.62 2.25c-.43 1.37-1 3.27-1.6 5.38s-1.09 4-1.44 5.42a12.86 12.86 0 0 1-.65 2.24zM445 386.44a14.07 14.07 0 0 1-2.42-.55c-1.48-.39-3.53-.92-5.8-1.43s-4.36-.91-5.86-1.2a14.92 14.92 0 0 1-2.43-.53 11.05 11.05 0 0 1 2.48.2c1.53.2 3.62.55 5.91 1.06s4.33 1.1 5.8 1.57a11.44 11.44 0 0 1 2.32.88zM415.15 391.26a14.4 14.4 0 0 1 .37-2.68c.31-1.64.79-3.9 1.43-6.36s1.33-4.67 1.87-6.25a13.57 13.57 0 0 1 1-2.52 16.53 16.53 0 0 1-.66 2.62c-.46 1.6-1.09 3.81-1.73 6.27s-1.17 4.69-1.56 6.31a15.67 15.67 0 0 1-.72 2.61zM437.15 372c0 .13-4.3-.22-9.58-.78S418 370.1 418 370s4.3.22 9.59.78 9.58 1.09 9.56 1.22z" style="fill:#263238"/><path d="M434 424.06c0 .13-15.09.24-33.7.24s-33.71-.11-33.71-.24 15.09-.24 33.71-.24 33.7.11 33.7.24zM423.51 443.48c0 .13-10.17.24-22.71.24s-22.71-.11-22.71-.24 10.17-.24 22.71-.24 22.71.11 22.71.24zM423.11 446.26c0 .13-10 .24-22.31.24s-22.31-.11-22.31-.24 10-.24 22.31-.24 22.31.11 22.31.24zM423.91 441.19c0 .14-10.52.24-23.49.24s-23.49-.1-23.49-.24 10.51-.24 23.49-.24 23.49.11 23.49.24z" style="fill:#455a64"/><g><path d="M351.48 138.48c-3.07-14.85-18.2-63.11-83.45-60.36-32.41 1.36-50.31 16.7-59.63 29.33a73 73 0 0 0-12.61 27.4l-.07.41h-36.15v-.5c0-.15 0-14.8 1.58-22.15l1 .2c-1.37 6.49-1.54 18.82-1.56 21.45h34.32a75.06 75.06 0 0 1 12.68-27.37C217 94.07 235.16 78.5 268 77.12c26.75-1.12 48.16 6.18 63.6 21.71 13.95 14 19.06 30.74 20.86 39.45z" style="fill:#0061f2"/><path d="M291.49 370.18h-54.11V216.07l.59.11c51.11 9 73.29-13.64 82-27.94 10.24-16.89 12-37.27 4.8-54.51C320.26 123.09 306.21 98.42 272 99c-16.74.29-39.23 5.57-51.36 29.08a69.64 69.64 0 0 0-7.36 28.42v.5H145.4v-.49c-.06-5.72 0-25.12 0-25.31v-.56l8.37.88V144l49-.07a81.19 81.19 0 0 1 12-28.69c8.83-13.1 25.78-28.64 56.23-28.64h1c22.3.24 40.7 8.08 53.22 22.68 13.49 15.73 17.57 36.5 15.62 50.12 0 .26-1.28 31.6-24.83 52.47-16.43 14.57-39.56 20.7-68.76 18.22V278h10.08v-38.27l.54.05a106.74 106.74 0 0 0 27.24-2.06c13.74-2.82 32.7-9.75 45-26.78 22.05-30.62 22.29-47.93 22.46-60.57v-3l-.11-2.52h15v.45c0 .32 2.4 31.54-23.62 66.57-16.19 21.79-35.16 35.83-53.41 39.51l-.19-1c18-3.63 36.75-17.53 52.8-39.13 24.07-32.4 23.63-61.46 23.45-65.42h-13l.06 1.51v3c-.18 12.77-.42 30.27-22.64 61.14-12.46 17.3-31.68 24.33-45.61 27.19a109 109 0 0 1-27 2.1V279h-12.04v-50l.54.05c29.16 2.57 52.23-3.46 68.55-17.92 23.23-20.58 24.5-51.5 24.51-51.81 1.92-13.45-2.1-33.9-15.38-49.39C312.15 95.57 294 87.85 272 87.61c-30.66-.33-47.59 15.14-56.41 28.17a79.55 79.55 0 0 0-12 28.75l-.07.42-50.81.07v-12.61l-6.37-.67v24.25h65.92a71.13 71.13 0 0 1 7.44-28.35c6.87-13.23 21.47-29.12 52.3-29.64h1.22c33.89 0 47.94 24.66 52.43 35.36 7.36 17.54 5.54 38.26-4.87 55.42-7.42 12.23-24.55 30.47-60.67 30.48a127.53 127.53 0 0 1-21.73-2v151.92h53.11z" style="fill:#0061f2"/><path d="M305.49 369.68h-1v-90l.37-.1c.24-.06 23.73-6.29 46.9-25.06C373.13 237.2 398.6 205.37 398.6 152c0-41.93-17-75.6-49-97.4-26.49-18-58.33-24.39-77.54-24.39-28.35 0-96.71 7.22-119.2 74.05a135.9 135.9 0 0 0-4.11 18.62l-1-.14a137 137 0 0 1 4.12-18.74c22.7-67.49 91.59-74.78 120.13-74.78 19.35 0 51.42 6.44 78.11 24.56 32.36 22 49.47 56 49.47 98.23 0 53.77-25.69 85.86-47.24 103.3a141.32 141.32 0 0 1-46.87 25.12z" style="fill:#0061f2"/><path d="M298.05 311.81h-1l.07-40.23.42-.07c.11 0 11.34-1.82 25.9-9.68 13.44-7.26 32.54-21.3 47.25-47 21-36.69 17.17-64.93 17.13-65.21-2.48-36.22-16.73-64.41-42.34-83.84-26.75-20.3-57.58-24.61-73.57-25.38-12.5-.6-34.26 1.5-54.42 9.41-27.33 10.72-45.47 28.88-53.91 54l-1-.32c8.54-25.39 26.88-43.75 54.49-54.58 20.31-8 42.24-10.08 54.84-9.48 16.1.77 47.16 5.13 74.13 25.59 25.85 19.61 40.22 48.05 42.72 84.52 0 .25 3.91 28.81-17.26 65.81-14.83 25.95-34.11 40.11-47.67 47.43-13.11 7.08-23.57 9.29-25.76 9.7zM297.97 361.09h-40.13v-1h39.13l.05-31.09h1l-.05 32.09z" style="fill:#0061f2"/><path style="fill:#0061f2" d="M257.84 361.09h-10.75v-70.68h11.25v61.79h-1v-60.79h-9.25v68.68h9.75v1zM188.41 123.32h-17.93v-.52c.58-18.83 8.34-31.17 14.75-38.2a49.89 49.89 0 0 1 13.26-10.54L189 65.84l.65-.75 10.69 9.21-.71.32c-.26.13-26.77 12.68-28.09 47.7H188c.79-3.5 7.11-28.77 24.28-35.42l-5.6-5.9c-2.09.64-16.09 5.81-23.86 31.61l-1-.29C190.42 84 206.07 80.14 206.73 80l.28-.06 7.07 7.39-.73.26C195 94 189 122.63 188.9 122.92l-.08.4zM218.55 81.17l-22.31-20.74.68-.74 21.62 20.11a44.78 44.78 0 0 1 9.23-6 77.72 77.72 0 0 1 29.47-7.64c27-1.9 46.21 3.2 54.74 8.25L319.39 62c-5.72-2.51-58.57-24.47-101.74.53l-.5-.87c45.93-26.59 102.6-.61 103.17-.34l.5.23-8.5 14.29-.43-.27c-8.17-5.06-27.36-10.28-54.58-8.36C231.39 69 219 80.72 218.89 80.84zM288.12 347.81h-1l1.52-85.21h.49c28.68-.21 68.75-41.18 80.22-73.32 16-44.85 3-76.26-10.74-94.71A108.47 108.47 0 0 0 325 65.13l-7.28 13.21c4.91 2.08 42.09 19.19 42.4 59.34l15.78.12v1l-16.77-.13v-.5c0-42.43-41.87-58.95-42.29-59.12l-.54-.2 8.3-15 .4.15a108.48 108.48 0 0 1 34.37 29.9c13.89 18.65 27.06 50.39 10.9 95.68-6.46 18.1-19.85 37-36.75 51.71-15.64 13.67-32 21.95-43.91 22.26zM279.73 348.3h-13.65l.01-.51 1.59-88-.04-5.86h12.32v83.27h-1v-82.27h-10.32l.04 4.87-1.58 87.5h12.63v1zM366.72 241c-.85-1-6.35-6.59-7.72-8l-.14-.15-.15-.14a.4.4 0 0 1-.13-.49l.38-.35c.11 0 .18 0 .42.17l.28.29c.52.48 1.47 1.45 3.37 3.38 2.52 2.56 4 4.12 4.44 4.65z"/><path transform="rotate(-51.74 332.306 50.32)" style="fill:#0061f2" d="M327.32 49.83h9.93v1h-9.93z"/><path d="M331.74 152.5h-2.24v-1c1.59.06 3.64 0 5.63 0s4.07-.05 5.68 0v1c-1.59-.05-3.65 0-5.64 0zM175.89 144.61h1v11.44h-1zM268.49 87.87h1v9.84h-1z" style="fill:#0061f2"/><path transform="rotate(-66.36 364.78 213.57)" style="fill:#0061f2" d="M364.3 207.31h1v12.51h-1z"/><path transform="rotate(-37.38 315.22 233.089)" style="fill:#0061f2" d="M314.68 227.06h1v12.02h-1z"/><path transform="rotate(-15.53 388.43 116.423)" style="fill:#0061f2" d="M382.33 115.91h12.18v1h-12.18z"/><path style="fill:#0061f2" d="M306.3 448.17h-69.1V395.6h1v51.57h67.1v-62.61h-67.6v-1h68.6v64.61z"/><path style="fill:#0061f2" d="M298.02 437.28h-50.93v-30.97h41.03v18.48h-30.28v-8.91h19.84v1h-18.84v6.91h28.28v-16.48h-39.03v28.97h48.93v-39.8H237.7v-1h60.32v41.8z"/><path style="fill:#0061f2" d="M258.92 436.78h1v10.88h-1zM297.52 412.82h8.28v1h-8.28zM266.09 406.81h1v9.06h-1zM237.7 421.62h9.89v1h-9.89z"/></g><g><path style="fill:#455a64" d="m188.61 138.06-3.5.87-1.45 1.29 1.93.49 4.25-1.22-1.23-1.43z"/><path d="m201.3 139.69-5.3-6.46h-5.4l-3.42 4a1.54 1.54 0 0 0 .21.64 2.49 2.49 0 0 0-1.87.21l3.11 8.24 5.92 5.93 7.49-2.09zm-8.16 3-2.77-1.31a7.66 7.66 0 0 0-2-3.06 1.34 1.34 0 0 0 .28 0 3.35 3.35 0 0 0 1.05-.36c2.37-1.18 3-1.44 3-1.44l1.51 2.76z" style="fill:#ffbe9d"/><path d="M197.18 137.71a7.64 7.64 0 0 1-1.82-2 7.28 7.28 0 0 1-1.4-2.34c.11-.09.93.82 1.82 2a7.06 7.06 0 0 1 1.4 2.34zM193.14 142.71a12.43 12.43 0 0 1-3-.86h-.11v-.13a8.41 8.41 0 0 0-.65-1.6 4.14 4.14 0 0 0-2.37-2.14 4.25 4.25 0 0 0-1.37.09s.08-.14.32-.26a2 2 0 0 1 1.1-.2 4.14 4.14 0 0 1 2.78 2.26 7.12 7.12 0 0 1 .66 1.73l-.15-.17a13.51 13.51 0 0 1 2.79 1.28z" style="fill:#eb996e"/><path d="m189.46 139.59 12.34-3.27a.89.89 0 0 0 .62-1.12.88.88 0 0 0-1-.6l-13.14 3.56a5.77 5.77 0 0 1 1.18 1.43z" style="fill:#455a64"/><path d="m95 294.05 7.48-4.05.28 2.78L99 306.92a30.13 30.13 0 0 1-2.9-6.34s-1.2-5.26-1.2-5.64a3.76 3.76 0 0 1 .12-.89" style="fill:#ffbe9d"/><path style="fill:#455a64" d="m156.24 441.2 1.27 30.1 16.25-.36-1.21-30.16-16.31.42z"/><path d="M165.49 470c.14 0-.11-6.6-.56-14.72s-.92-14.7-1.05-14.69.11 6.59.56 14.72.92 14.69 1.05 14.69z" style="fill:#263238"/><path style="fill:#263238" d="m157.43 469.23 16.25-.42.08 2.13-16.25.36-.08-2.07zM173.38 461.3a2.43 2.43 0 0 0-.45-.64 11.7 11.7 0 0 0-4.22-3.12 8.73 8.73 0 0 0-3.83-.7 8.6 8.6 0 0 0-6.2 3.05 7.48 7.48 0 0 0-1.11 1.82 1.94 1.94 0 0 0-.22.75 16.11 16.11 0 0 1 1.59-2.34 8.65 8.65 0 0 1 6-2.78 9.94 9.94 0 0 1 6.29 2.12c1.38 1.04 2.08 1.9 2.15 1.84z"/><path d="m156.63 453.36.24 2.68h16.29l-.1-2.68h-16.43z" style="opacity:.30000000000000004"/><path d="m101.45 443.31-.58 18.05s-18.16 6.87-18.28 10.27l35.48-.45.83-28.18z" style="fill:#455a64"/><path d="M111.6 459.63a1.47 1.47 0 0 1 1.05 1.65 1.41 1.41 0 0 1-1.63 1.05 1.54 1.54 0 0 1-1.1-1.75 1.47 1.47 0 0 1 1.81-.91" style="fill:#e0e0e0"/><path d="M118.07 471.18v-2.28L83.6 470a2.7 2.7 0 0 0-1.19 1.79zM100.55 461.48c0 .18.89.24 1.76.78s1.35 1.26 1.51 1.19-.13-1.08-1.2-1.71-2.11-.42-2.07-.26zM96.83 463.12c0 .17.73.45 1.34 1.18s.8 1.5 1 1.49.27-1-.51-1.89-1.83-.9-1.83-.78zM94.8 467.67c.16 0 .38-.85-.09-1.79s-1.3-1.31-1.37-1.17.45.65.83 1.44.46 1.51.63 1.52zM100.77 457.25c.07.16.87-.1 1.86-.06s1.77.34 1.86.19-.67-.76-1.84-.79-1.97.53-1.88.66zM100 453.32a3.31 3.31 0 0 0 1.79-.05 7.94 7.94 0 0 0 1.86-.62 8.7 8.7 0 0 0 1-.57 2 2 0 0 0 .53-.44.76.76 0 0 0 .06-.93 1 1 0 0 0-.77-.38 2.61 2.61 0 0 0-.68.11 6.25 6.25 0 0 0-1.1.41 6 6 0 0 0-1.63 1.12c-.81.79-1.08 1.45-1 1.48s.47-.5 1.3-1.15a7.09 7.09 0 0 1 1.58-.94 5.55 5.55 0 0 1 1-.34c.38-.11.7-.12.8 0s0 .09 0 .21a2 2 0 0 1-.39.31 9.43 9.43 0 0 1-.94.57 9.58 9.58 0 0 1-1.72.7 12.9 12.9 0 0 0-1.69.51z" style="fill:#263238"/><path d="m118.59 453.58-.12 4.16-17.49.27.16-3.77 17.45-.66z" style="opacity:.30000000000000004"/><path d="m111.23 152.65 8.6 36.4 20.46-2.72-1.5-11.61s7.46.12 8.11-6.9c.21-2.34-1.61-12.68-3.4-22.06a16.5 16.5 0 0 0-19.5-13.07 16.5 16.5 0 0 0-12.77 19.96z" style="fill:#ffbe9d"/><path d="M130.11 131.39c1.76.64 1.31 1.51 1.68 2.3s1.91.73 3.43 1.33 5 3.39 5.93 5.13.37 1.95.2 2.93 1.23 5.89 1.43 6.76c.38 1.65 1.11 6.51 1.11 6.51l-1.47.77s-.77-5.32-2.5-5.29-2.16 1.84-2.24 2.33a7.78 7.78 0 0 0-1.12 2.46c-.38 2.32-.21 5.71-.38 7.84-.27 3.29-3.88 8.16-3.88 8.16l-16 1.48s-7.25-16.4-7.72-20.68 1.17-10 3.57-13.86a18.81 18.81 0 0 1 4.24-4.31 31.51 31.51 0 0 1 3.64-2.17 17.46 17.46 0 0 1 8.91-1.76z" style="fill:#263238"/><path d="M142.52 162.38s0 .26-.35.59a2.44 2.44 0 0 1-1.71.71 3.36 3.36 0 0 1-2.49-1.2 5.86 5.86 0 0 1-1.26-3.11 10 10 0 0 1 .91-5.91 3.49 3.49 0 0 1 1.25-1.36 1.14 1.14 0 0 1 .63-.22 4.51 4.51 0 0 0-1.56 1.75 10.56 10.56 0 0 0-.71 5.67 5.51 5.51 0 0 0 1.11 2.86 3 3 0 0 0 2.12 1.15 2.47 2.47 0 0 0 1.58-.49c.32-.25.44-.46.48-.44z" style="fill:#eb996e"/><path d="M140.6 160c.05 0-.34.3-.89 0a2.32 2.32 0 0 1-.92-1.94 3.12 3.12 0 0 1 .69-2c.35-.43.67-.56.71-.51a5.11 5.11 0 0 0-.87 2.5 2.22 2.22 0 0 0 .6 1.64c.34.25.67.2.68.31z" style="fill:#eb996e"/><path d="m105.36 279.35-7.52 31.29v146.19l22.54.67 2-86.92 11.33-53.79 10.43 55.28 10.47 83.21 20.07-.58s-3.41-35.22-2.81-45.06-3.51-40.85-3.51-40.85.64-51.77-.43-58c-1.21-7-2.23-29.72-2.23-30.61z" style="fill:#263238"/><path d="M133.68 317.1a34.11 34.11 0 0 1-3.65.8c-2.25.46-5.35 1.17-8.72 2.15s-6.38 2-8.53 2.86-3.48 1.35-3.51 1.28a4 4 0 0 1 .88-.49c.57-.29 1.43-.68 2.49-1.13a78.09 78.09 0 0 1 8.52-3 80.11 80.11 0 0 1 8.81-2c1.14-.19 2.07-.31 2.71-.38a3.31 3.31 0 0 1 1-.09zM156.21 314.34a3.3 3.3 0 0 1-.82.39c-.53.22-1.33.5-2.32.82a46 46 0 0 1-16 2c-1-.05-1.87-.13-2.45-.21a2.93 2.93 0 0 1-.89-.18 32.42 32.42 0 0 1 3.36 0 61.28 61.28 0 0 0 8-.46 60.12 60.12 0 0 0 7.9-1.56 31.88 31.88 0 0 1 3.22-.8zM154.56 338.25c-.1.1-4.85-4.48-10.62-10.23s-10.36-10.5-10.25-10.6 4.85 4.48 10.62 10.23 10.36 10.5 10.25 10.6zM104.01 284.94l9.63-.34 1.18-5.12-9.46-.13-1.35 5.59zM117.88 279.52l-.89 5.42h33.82l.09-4.97-33.02-.45zM153.8 280.01v4.93h12.09l-.21-4.76-11.88-.17zM112.42 392.82c-.14 0-1.88-5.35-3.88-12s-3.53-12.15-3.39-12.19 1.88 5.35 3.89 12 3.52 12.15 3.38 12.19zM159.25 387.87a72.1 72.1 0 0 1-4.9-7 70.56 70.56 0 0 1-4.47-7.31 69.64 69.64 0 0 1 4.91 7 71.43 71.43 0 0 1 4.46 7.31z" style="fill:#455a64"/><path d="M108 193.64s-13.06 5.45-14.72 11.22c-1.83 6.4-3.71 20.48-3.71 20.48v37.08s-2.81 12.5-2.28 17.76 6.22 14.59 6.22 14.59l9.21-4.47 2.88-13.05.54-39.81-1-19.73z" style="fill:#0061f2"/><path d="m108 193.64 8.68-6.94.42-5.91 22.35-3.79 2.55 5 10 2.71 6.72-2 1.64 3.83 8.36 25.63-6.32 37.61s3.75 20 3.27 30.38l-60.32-.83c-1.56-1.91-1.8-5.32-1.49-9.35l-.81-50.54z" style="fill:#0061f2"/><path d="M157.89 191.1a1.72 1.72 0 0 1-.51.14l-1.5.32-5.5 1.09c-4.65.93-11 2.27-18.08 3.92s-13.37 3.31-17.94 4.55l-5.36 1.47-1.48.38a1.61 1.61 0 0 1-.52.1 2.62 2.62 0 0 1 .49-.2l1.45-.48c1.26-.41 3.1-1 5.37-1.63 4.55-1.33 10.87-3 17.92-4.7s13.46-2.94 18.13-3.77c2.33-.42 4.22-.74 5.54-.93l1.51-.22a2.11 2.11 0 0 1 .48-.04zM118.55 248.83a12.19 12.19 0 0 1 1.31-1.19l3.63-3.13c3.05-2.65 7.2-6.39 11.59-10.72s8.2-8.43 10.89-11.44l3.18-3.58a11.51 11.51 0 0 1 1.21-1.29 13 13 0 0 1-1.05 1.42c-.7.89-1.74 2.15-3.06 3.69-2.63 3.08-6.4 7.23-10.8 11.57s-8.61 8.05-11.73 10.63c-1.55 1.3-2.83 2.32-3.74 3a11 11 0 0 1-1.43 1.04zM158.83 235.15a2.73 2.73 0 0 1-.31.41l-.94 1.1c-.83 1-2.07 2.31-3.63 3.94a157 157 0 0 1-27.14 22.45c-1.89 1.23-3.45 2.19-4.54 2.83-.51.28-.92.52-1.26.72a1.61 1.61 0 0 1-.46.22s.13-.12.4-.31l1.21-.81c1.06-.68 2.58-1.69 4.44-2.95 3.73-2.53 8.78-6.18 14.08-10.56s9.82-8.66 13-11.85c1.59-1.6 2.87-2.9 3.74-3.81l1-1c.26-.27.39-.39.41-.38zM146.91 274.9a62 62 0 0 0 4.16-6.84 60.81 60.81 0 0 0 2.73-7.52 8.15 8.15 0 0 1-.34 2.35 27 27 0 0 1-1.92 5.4 26.69 26.69 0 0 1-3 4.87 8.24 8.24 0 0 1-1.63 1.74z" style="fill:#263238"/><path d="m159 184.44 22.58-.92 11-5.26 1.23-15.45-1-10.93 9.5-2.82s7.89 20.25 7.63 27.62c-.09 2.48-.24 4.92-.39 7.08a13.18 13.18 0 0 1-7 10.68l-33.87 17.75-9.68-27.75" style="fill:#0061f2"/><path d="M105 227.6a20.4 20.4 0 0 1-1.31-4.47 21 21 0 0 1-.81-4.6 20.73 20.73 0 0 1 1.32 4.47 21.06 21.06 0 0 1 .8 4.6z" style="fill:#263238"/><path d="M104.81 220.18a2.66 2.66 0 0 1 .07.6c0 .46.05 1 .09 1.74.06 1.58.13 3.74.23 6.39.14 5.46.34 12.88.56 21.09a72.38 72.38 0 0 1-.29 11.63c-.23 1.79-.74 3.44-1 5a13.36 13.36 0 0 0-.16 2.26c0 .73-.1 1.44-.15 2.12a23.8 23.8 0 0 0 .17 6.33 4.57 4.57 0 0 0 .64 1.57c.24.3.4.44.39.46s0 0-.13-.09a1.75 1.75 0 0 1-.34-.31 4.07 4.07 0 0 1-.75-1.58 21.61 21.61 0 0 1-.35-6.4c0-.68.08-1.38.11-2.12a14.24 14.24 0 0 1 .14-2.31c.26-1.6.74-3.21.95-5a75.18 75.18 0 0 0 .25-11.56c-.16-8.21-.3-15.63-.41-21.09 0-2.65 0-4.82-.06-6.39v-1.74a3.2 3.2 0 0 1 .04-.6zM166.06 203.88a14.79 14.79 0 0 1-1.06-2.48c-.59-1.56-1.35-3.73-2.13-6.15s-1.43-4.63-1.86-6.24a13.66 13.66 0 0 1-.59-2.64 14.17 14.17 0 0 1 .94 2.53c.57 1.75 1.25 3.86 2 6.19s1.43 4.43 2 6.18a13.74 13.74 0 0 1 .7 2.61zM98.22 269.28a9.48 9.48 0 0 1-5.8-7.07 26.4 26.4 0 0 0 2.39 4 26.62 26.62 0 0 0 3.41 3.07zM105.35 284.64a6 6 0 0 1-1.41 1.79 13.19 13.19 0 0 1-10.17 3.64 6 6 0 0 1-2.23-.5c0-.08.87.1 2.25.13a14.63 14.63 0 0 0 9.9-3.54c1.04-.9 1.59-1.58 1.66-1.52zM204.29 154.9c0 .15-2.48.52-5.41 1.51s-5.14 2.18-5.22 2a19.87 19.87 0 0 1 10.63-3.55zM201.34 150.84c0 .07-.21.16-.29.46a.46.46 0 1 0 .77-.13c-.18-.25-.42-.27-.43-.34s.3-.23.69.09a.87.87 0 0 1 .32.78.88.88 0 0 1-.76.74.86.86 0 0 1-.93-1.29c.29-.43.64-.38.63-.31zM142.06 182a3.61 3.61 0 0 1-1 .26l-2.71.51-8.94 1.63-8.94 1.69-2.71.49a4.15 4.15 0 0 1-1 .12 3.69 3.69 0 0 1 1-.32c.63-.17 1.54-.39 2.68-.65 2.27-.53 5.42-1.19 8.91-1.84s6.67-1.16 9-1.48c1.15-.16 2.09-.28 2.74-.35a4.27 4.27 0 0 1 .97-.06zM101.56 217.3a3 3 0 0 1-.23-.78 16.76 16.76 0 0 1-.28-2.17 43.24 43.24 0 0 1 .25-7.2c.29-2.79.67-5.31.92-7.12a20.23 20.23 0 0 1 .46-2.94 13.87 13.87 0 0 1-.1 3c-.15 1.83-.47 4.35-.76 7.13a59 59 0 0 0-.4 7.13c.03 1.81.23 2.93.14 2.95zM126.2 235.9c-.13-.07 3.08-6.41 7.16-14.18s7.5-14 7.63-13.93-3.08 6.41-7.17 14.18-7.49 14.03-7.62 13.93zM173.22 200.13a13 13 0 0 1-.86 2.2c-.56 1.34-1.3 3.21-2 5.32s-1.18 4-1.51 5.47a13.69 13.69 0 0 1-.59 2.28 8.77 8.77 0 0 1 .23-2.36 41.23 41.23 0 0 1 1.37-5.55 38.73 38.73 0 0 1 2.15-5.31 9.13 9.13 0 0 1 1.21-2.05z" style="fill:#263238"/><path d="M99.75 212.21a9.84 9.84 0 0 1-1.28.35c-.79.2-1.88.48-3.08.84s-2.26.71-3 1a9.2 9.2 0 0 1-1.26.41 6.41 6.41 0 0 1 1.21-.55c.76-.3 1.83-.69 3-1s2.3-.62 3.11-.78a7.57 7.57 0 0 1 1.3-.27zM136.83 214.23c0 .05-7.09 2.15-15.87 4.68S105 223.45 105 223.4s7.09-2.16 15.88-4.69 15.93-4.54 15.95-4.48zM165.78 205.79c0 .05-6.34 2.4-14.19 5.24s-14.24 5.1-14.26 5.05 6.33-2.4 14.19-5.25 14.24-5.1 14.26-5.04zM163.13 195.54l-.62.18-1.79.48-6.6 1.74c-5.57 1.46-13.28 3.46-21.82 5.57s-16.29 3.93-21.91 5.18l-6.67 1.44-1.82.37c-.42.09-.64.12-.64.12l.63-.16 1.81-.41 6.65-1.51c5.62-1.28 13.37-3.12 21.9-5.23l21.83-5.51 6.62-1.68 1.8-.44zM150.63 184c0 .06-9.49 2.47-21.22 5.38s-21.26 5.23-21.27 5.17 9.48-2.46 21.22-5.37 21.26-5.24 21.27-5.18zM172.05 184.4a.67.67 0 0 1 0 .19l.07.54c.05.46.11 1.14.16 2a55.4 55.4 0 0 1 0 6.57 53.58 53.58 0 0 1-.84 6.52c-.16.83-.3 1.49-.42 2 0 .18-.09.36-.13.53s-.06.18-.06.17v-.18l.09-.54.36-1.95c.28-1.66.6-4 .77-6.51a64.59 64.59 0 0 0 .08-6.55c0-.74-.07-1.39-.1-2v-.54a.94.94 0 0 1 .02-.25zM187.53 201.7v-.19l-.08-.54c-.06-.48-.15-1.16-.29-2a52.27 52.27 0 0 0-1.45-6.5 55 55 0 0 0-2.29-6.26c-.35-.78-.64-1.41-.85-1.84l-.23-.5a1.44 1.44 0 0 1-.07-.18s.05 0 .11.16.17.32.27.48c.23.42.54 1 .9 1.82a44.91 44.91 0 0 1 2.36 6.26 46.57 46.57 0 0 1 1.4 6.54c.12.85.19 1.54.22 2v.55a.94.94 0 0 1 0 .2zM200.36 194a6.1 6.1 0 0 1-.26-.65l-.66-1.79c-.58-1.51-1.43-3.56-2.53-5.77s-2.23-4.12-3.09-5.48c-.37-.59-.72-1.13-1-1.61a5.25 5.25 0 0 1-.36-.6 5.39 5.39 0 0 1 .43.55c.27.36.64.9 1.09 1.58a54 54 0 0 1 3.15 5.47 53.13 53.13 0 0 1 2.48 5.81c.27.76.47 1.38.6 1.81a3.85 3.85 0 0 1 .15.68zM209 173.48a2.61 2.61 0 0 1-.62-.08l-1.67-.3c-1.41-.25-3.36-.57-5.52-.87s-4.13-.5-5.55-.64l-1.69-.16a4.68 4.68 0 0 1-.62-.08 2.47 2.47 0 0 1 .62 0c.4 0 1 0 1.7.09 1.43.1 3.4.29 5.57.59s4.12.64 5.52.93c.7.14 1.27.26 1.66.36a4.27 4.27 0 0 1 .6.16zM206.6 159.84h-1.85a27.4 27.4 0 0 0-4.44.38 28.76 28.76 0 0 0-4.31 1.08l-1.27.44a2.11 2.11 0 0 1-.48.16 2 2 0 0 1 .45-.23c.29-.14.72-.31 1.26-.51a24.06 24.06 0 0 1 4.33-1.15 24.8 24.8 0 0 1 4.47-.32 13.61 13.61 0 0 1 1.36.08 1.78 1.78 0 0 1 .48.07zM127.57 231c0 .06-4.93 1.21-11 2.58s-11.1 2.42-11.11 2.42 4.93-1.21 11-2.58 11.1-2.42 11.11-2.42zM134.57 233.52a27.39 27.39 0 0 1-3.5-.12 27.37 27.37 0 0 1-3.49-.33 32.66 32.66 0 0 1 3.5.12 33.33 33.33 0 0 1 3.49.33zM166.8 221.21s-5.71 1.58-12.78 3.41-12.82 3.27-12.83 3.21 5.7-1.58 12.78-3.41 12.81-3.27 12.83-3.21zM118.89 247.68c0 .06-2.86.62-6.42 1.25S106 250 106 250s2.87-.61 6.43-1.24 6.45-1.13 6.46-1.08zM153 240c0 .05-6.51 1.14-14.56 2.42s-14.59 2.28-14.59 2.22 6.51-1.14 14.56-2.42S153 240 153 240zM164.23 241a1.55 1.55 0 0 1-.45.07l-1.21.11c-1 .09-2.43.22-4 .42s-3 .41-4 .57l-1.2.2a1.46 1.46 0 0 1-.44 0l.43-.12c.28-.07.68-.16 1.19-.26 1-.2 2.41-.44 4-.64s3-.31 4-.36h1.22a2 2 0 0 1 .46.01zM130 260.15a1.47 1.47 0 0 1-.24.11l-.7.3c-.61.25-1.51.59-2.62 1a69.73 69.73 0 0 1-18.06 3.7c-1.18.08-2.13.12-2.8.13h-1 1.02c.66 0 1.61-.1 2.79-.19a80.79 80.79 0 0 0 9.12-1.31 79.24 79.24 0 0 0 8.9-2.39c1.12-.37 2-.69 2.64-.92l.71-.26zM164.19 254.48a3 3 0 0 1-.36.14l-1.05.36c-.92.32-2.25.75-3.9 1.26-3.31 1-7.91 2.31-13 3.51s-9.85 2.05-13.26 2.59c-1.71.28-3.1.48-4.06.6l-1.1.14a3.65 3.65 0 0 1-.39 0l.38-.07 1.1-.18 4-.66c3.41-.58 8.1-1.46 13.24-2.66s9.74-2.46 13.06-3.45l3.91-1.18 1.07-.33zM148.76 271.42l-.44.09-1.27.22c-1.11.18-2.72.43-4.71.69-4 .54-9.5 1.14-15.62 1.47s-11.68.34-15.69.23c-2-.05-3.63-.12-4.75-.19l-1.3-.07h-.44 1.75c1.12 0 2.74.09 4.75.12 4 .07 9.56 0 15.68-.29s11.63-.9 15.61-1.4c2-.25 3.6-.47 4.71-.63l1.29-.18zM164.78 269.09a2.4 2.4 0 0 1-.55 0h-6.45c-1.95 0-3.68.1-4.95.17l-1.5.07a2.6 2.6 0 0 1-.55 0 3.56 3.56 0 0 1 .55-.08l1.49-.14c1.27-.1 3-.2 5-.23s3.69 0 5 .05l1.5.09zM105.1 229.16c0 .05-3.57.74-8 1.53s-8 1.39-8 1.33 3.57-.74 8-1.53 7.99-1.39 8-1.33zM104.56 244.85c0 .05-3.33.43-7.45.83s-7.48.68-7.48.62 3.33-.43 7.46-.83 7.47-.68 7.47-.62zM105.91 257.46c0 .06-3.46.21-7.74.34s-7.74.19-7.74.13 3.46-.21 7.74-.34 7.74-.19 7.74-.13zM103 273a3.2 3.2 0 0 1-.57 0c-.36 0-.89 0-1.54-.1a32.36 32.36 0 0 1-9.89-2.5c-.6-.26-1.08-.48-1.4-.65a2 2 0 0 1-.49-.28 3.22 3.22 0 0 1 .52.21c.34.14.82.35 1.43.59a39.75 39.75 0 0 0 4.82 1.57 40.33 40.33 0 0 0 5 .92l1.53.16a3.35 3.35 0 0 1 .59.08zM103.81 277.32a4.26 4.26 0 0 1-.51.41c-.34.26-.84.61-1.47 1a41.5 41.5 0 0 1-5.14 2.9 41.08 41.08 0 0 1-5.51 2.14c-.73.21-1.32.38-1.73.47a5.52 5.52 0 0 1-.64.14 3.74 3.74 0 0 1 .62-.22c.41-.12 1-.3 1.7-.54a47.77 47.77 0 0 0 10.62-5c.64-.4 1.15-.74 1.5-1a3.54 3.54 0 0 1 .56-.3z" style="fill:#e0e0e0"/><path d="M114.37 280.36v-.79c0-.52.05-1.34.08-2.29.07-2 .16-4.9.27-8.41.2-7.1.37-16.91.29-27.75s-.38-20.65-.68-27.75c-.16-3.51-.3-6.36-.39-8.4 0-.95-.08-1.71-.11-2.29s0-.79 0-.79 0 .27.06.79.11 1.32.11 2.32c.13 2 .29 4.86.45 8.41.34 7.09.67 16.91.75 27.75s-.12 20.66-.35 27.76c-.12 3.55-.24 6.42-.34 8.4l-.12 2.29c.01.48-.02.75-.02.75zM132.06 224.46c-.06 0-.84-5.85-1.74-13.07s-1.58-13.08-1.52-13.09.83 5.84 1.73 13.07 1.58 13.08 1.53 13.09zM130.45 236.3a37 37 0 0 1-.68-3.92c-.31-2.17-.52-3.94-.47-3.95a37.61 37.61 0 0 1 .68 3.92 36.14 36.14 0 0 1 .47 3.95zM134.54 257.8c-.06 0-.15-5.05-.2-11.28s-.05-11.29 0-11.29.15 5.05.21 11.29.05 11.28-.01 11.28zM134.22 280.05c-.05 0-.72-4.57-1.49-10.21s-1.35-10.22-1.29-10.23.73 4.56 1.5 10.2 1.34 10.19 1.28 10.24zM154 237c-.06 0-1.59-9.37-3.43-20.93s-3.29-21-3.23-21 1.59 9.36 3.43 20.93 3.23 21 3.23 21zM151.5 264.26c-.05 0-.57-4.16-1.16-9.3s-1-9.33-1-9.33.58 4.16 1.17 9.3 1.05 9.33.99 9.33zM195.69 182.92a36.71 36.71 0 0 1-4 3.18 46.17 46.17 0 0 1-4.79 2.9 52.06 52.06 0 0 1-6.24 2.77 53.33 53.33 0 0 1-6.57 1.85 45.3 45.3 0 0 1-5.52.8 38.55 38.55 0 0 1-5.14.13H164.79c.88 0 2.17-.07 3.74-.22a49.94 49.94 0 0 0 5.5-.84 55 55 0 0 0 6.54-1.87 54.16 54.16 0 0 0 6.22-2.74 49.93 49.93 0 0 0 4.77-2.86c1.31-.89 2.34-1.66 3-2.22l.8-.63zM195.78 182.94a.74.74 0 0 1 0-.26c0-.23.05-.48.07-.75.08-.77.18-1.7.29-2.77.22-2.34.49-5.57.65-9.15s.19-6.82.17-9.17v-3.8a.9.9 0 0 1 0 .26c0 .24 0 .48.05.76 0 .66.07 1.61.1 2.78 0 2.35 0 5.6-.11 9.18s-.45 6.82-.72 9.15c-.13 1.17-.25 2.11-.35 2.77 0 .27-.08.51-.11.74s-.04.26-.04.26z" style="fill:#e0e0e0"/><path d="M204.17 156.34s.06.24.15.7.24 1.14.45 2c.41 1.74 1.13 4.21 1.95 7.3a33.42 33.42 0 0 1 1.34 11.11 15.4 15.4 0 0 1-6.38 11.76 55.77 55.77 0 0 1-6 3.91c-2 1.18-3.88 2.3-5.71 3.35a330.42 330.42 0 0 1-16.53 8.91l-1.84.92-.65.3.63-.34 1.82-1c1.59-.82 3.88-2 6.68-3.53s6.14-3.36 9.79-5.47c1.83-1.06 3.74-2.18 5.71-3.37a57 57 0 0 0 5.93-3.9 15.23 15.23 0 0 0 6.31-11.6 33.86 33.86 0 0 0-1.29-11.06c-.8-3.09-1.5-5.58-1.89-7.32s-.47-2.67-.47-2.67zM93.44 262.33v-.62c0-.4.08-1 .14-1.77l.53-6.5c.43-5.49 1-13.08 1.46-21.47s.77-16 1-21.51c.09-2.7.16-4.91.21-6.52q0-1.08.06-1.77v-.62 2.39c0 1.61-.08 3.82-.14 6.53-.14 5.5-.43 13.11-.9 21.51s-1 16-1.52 21.47c-.24 2.69-.45 4.9-.59 6.5-.08.72-.14 1.31-.18 1.76s-.07.62-.07.62zM96.07 291s0-.08-.1-.24-.14-.45-.22-.71c-.19-.62-.45-1.52-.73-2.64a73.67 73.67 0 0 1-1.65-8.9 70.53 70.53 0 0 1-.5-9c0-1.16 0-2.1.08-2.75v-1a1 1 0 0 1 0 .26v3.49a83.19 83.19 0 0 0 .57 9 82.08 82.08 0 0 0 1.58 8.88c.27 1.13.5 2 .67 2.66q.11.39.18.72zM102.46 288v-2.7c0-1.81 0-4.32.07-7.4 0-6.24.08-14.87 0-24.4s-.22-18.17-.36-24.41c-.08-3.08-.13-5.59-.18-7.4v-2.7.7c0 .46 0 1.18.09 2 0 1.81.13 4.32.23 7.4.18 6.24.36 14.87.43 24.41s0 18.16-.08 24.41c0 3.07-.09 5.59-.13 7.39 0 .83 0 1.5-.05 2s-.02.7-.02.7zM114.83 201.27c-.06 0-.25-2.82-.43-6.3s-.27-6.3-.21-6.31.25 2.82.42 6.3.28 6.3.22 6.31zM129.64 197.11c-.06 0-.34-2.87-.63-6.42s-.47-6.44-.42-6.44.34 2.87.63 6.42.47 6.43.42 6.44zM145.75 193.44c-.06 0-.87-2.61-1.81-5.86s-1.66-5.9-1.61-5.92.87 2.61 1.81 5.86 1.66 5.9 1.61 5.92zM140.42 178.83a.81.81 0 0 1-.24.06l-.7.13-2.58.45c-2.17.38-5.17.94-8.46 1.63s-6.27 1.38-8.41 1.9l-2.54.62-.69.16a.68.68 0 0 1-.25 0l.24-.08.68-.2 2.52-.68c2.14-.56 5.11-1.28 8.41-2s6.3-1.22 8.48-1.57l2.58-.38.71-.09a.94.94 0 0 1 .25.05z" style="fill:#e0e0e0"/><path d="M120.79 186.06a20 20 0 0 1-.06-2.86 21.09 21.09 0 0 1 .14-2.85 19.09 19.09 0 0 1 .07 2.86 19.79 19.79 0 0 1-.15 2.85zM135.46 183.47a18.76 18.76 0 0 1-.58-2.57 15.8 15.8 0 0 1-.38-2.61 34.07 34.07 0 0 1 1 5.18z" style="fill:#e0e0e0"/></g><g><path d="M473.39 471.32c0 .14-98.68.26-220.38.26s-220.4-.12-220.4-.26 98.66-.26 220.4-.26 220.38.11 220.38.26z" style="fill:#263238"/></g><g><path d="M67.4 104.22a3 3 0 0 0-.45 0h-1.34a13.87 13.87 0 0 0-2.18.21c-.42.07-.89.11-1.37.21l-1.55.38a25.3 25.3 0 0 0-15 11 25.24 25.24 0 0 0-4 12.43 25.51 25.51 0 0 0 3.53 14.53 26 26 0 0 0 12.44 10.82 25.14 25.14 0 0 0 8.63 1.9 24.47 24.47 0 0 0 9-1.12l.26-.08h-.21l15.09 5.23.61.21-.19-.62c-1.35-4.34-2.66-8.54-3.92-12.56l-.06.3a25.82 25.82 0 0 0 6-22.34 25.32 25.32 0 0 0-3.89-9.3 26 26 0 0 0-6-6.23 29 29 0 0 0-3.13-2 27.73 27.73 0 0 0-3-1.36 21.55 21.55 0 0 0-2.57-.83 15.87 15.87 0 0 0-2.33-.48c-.71-.1-1.33-.2-1.87-.25h-2.21a1.29 1.29 0 0 0-.29 0 .85.85 0 0 0 .29 0l.83.07 1.36.1c.54.06 1.16.18 1.85.29a17.29 17.29 0 0 1 2.3.53 20.48 20.48 0 0 1 2.67.9 29.43 29.43 0 0 1 3 1.38 29 29 0 0 1 3.06 2 26.07 26.07 0 0 1 5.82 6.18 25 25 0 0 1 3.76 9.14 25.32 25.32 0 0 1-6 21.82l-.12.13v.17q1.88 6 3.89 12.58l.42-.41-15.08-5.24H75.24L75 154a24.05 24.05 0 0 1-8.8 1.09 24.84 24.84 0 0 1-8.41-1.84 25.5 25.5 0 0 1-12.16-10.53 25.47 25.47 0 0 1 .3-26.4 25.32 25.32 0 0 1 14.67-11l1.52-.4c.48-.12.94-.17 1.37-.24a13.36 13.36 0 0 1 2.15-.28l1.33-.1a2.62 2.62 0 0 0 .43-.08z" style="fill:#263238"/><path d="M76.77 129.67a8.73 8.73 0 1 0-12.32 8.08v2.2l7.65-.11v-2.34a8.73 8.73 0 0 0 4.67-7.83z" style="fill:#fafafa"/><path d="M76.77 129.67a2.31 2.31 0 0 1 0 .66 8.84 8.84 0 0 1-.27 1.9 8.61 8.61 0 0 1-1.25 2.77 8.91 8.91 0 0 1-3 2.69l.1-.17v2.54h-.21l-7.64.16h-.25V137.8l.14.22a9 9 0 0 1-5-5.9 8.92 8.92 0 0 1 .52-6 9.08 9.08 0 0 1 3.75-4.12 9.8 9.8 0 0 1 2.48-.92 9.54 9.54 0 0 1 2.48-.17 8.94 8.94 0 0 1 4.19 1.39 8.72 8.72 0 0 1 3.71 5.08 6.68 6.68 0 0 1 .25 2.32 16.68 16.68 0 0 0-.44-2.26 8.64 8.64 0 0 0-7.74-6.1 9.1 9.1 0 0 0-2.36.19 9.47 9.47 0 0 0-2.33.89 8.56 8.56 0 0 0-3.56 3.92 8.37 8.37 0 0 0-.48 5.64 8.51 8.51 0 0 0 4.69 5.57l.15.07V139.98l-.25-.24 7.65-.08-.21.2v-2.45h.1a8.8 8.8 0 0 0 4.26-5.16 13.8 13.8 0 0 0 .52-2.58z" style="fill:#263238"/><path d="M69.36 139.84a1 1 0 0 1 0-.11v-.31c0-.28.07-.69.14-1.21s.17-1.17.32-1.9a12.7 12.7 0 0 1 .76-2.44 7.26 7.26 0 0 1 .69-1.32 1.73 1.73 0 0 1 .59-.55.9.9 0 0 1 .83 0 .56.56 0 0 1 .28.34.59.59 0 0 1 0 .45 1.23 1.23 0 0 1-.66.59 2.39 2.39 0 0 1-3.07-1.54 1.79 1.79 0 0 1-.07-1 .78.78 0 0 1 .78-.62.54.54 0 0 1 .45.3.75.75 0 0 1 .08.53 1.7 1.7 0 0 1-.6.88 2.59 2.59 0 0 1-2 .62 2.25 2.25 0 0 1-1.71-1.23 1.35 1.35 0 0 1-.08-1.06.72.72 0 0 1 .38-.39.68.68 0 0 1 .54 0 .9.9 0 0 1 .37.38 1.14 1.14 0 0 1 .14.5 2.58 2.58 0 0 1-1.32 2.48 2.66 2.66 0 0 1-1.8.28 1.38 1.38 0 0 1-.8-.41.69.69 0 0 1-.06-.84.6.6 0 0 1 .39-.19.75.75 0 0 1 .42.07 1.28 1.28 0 0 1 .54.59c.23.47.41.93.6 1.37.72 1.74 1.24 3.19 1.59 4.19.17.49.3.88.39 1.15l.09.3v.11-.1l-.11-.3c-.09-.27-.23-.66-.4-1.15-.36-1-.89-2.43-1.62-4.17-.19-.44-.38-.9-.6-1.36a1.18 1.18 0 0 0-.51-.55.59.59 0 0 0-.7.1.61.61 0 0 0 .06.73 1.37 1.37 0 0 0 .75.37 2.58 2.58 0 0 0 1.73-.27 2.55 2.55 0 0 0 1.16-1.43 2.37 2.37 0 0 0 .11-1A.94.94 0 0 0 67 130a.51.51 0 0 0-.45 0 .55.55 0 0 0-.32.33 1.18 1.18 0 0 0 .08 1 2.15 2.15 0 0 0 1.62 1.18 2.48 2.48 0 0 0 1.94-.6 1.6 1.6 0 0 0 .57-.82.68.68 0 0 0-.07-.46.45.45 0 0 0-.37-.25.63.63 0 0 0-.43.15.76.76 0 0 0-.24.39 1.81 1.81 0 0 0 .06 1 2.35 2.35 0 0 0 1.2 1.38 2.3 2.3 0 0 0 1.74.1 1.18 1.18 0 0 0 .62-.54.51.51 0 0 0-.21-.67.83.83 0 0 0-.75 0 1.55 1.55 0 0 0-.56.52 7.78 7.78 0 0 0-.69 1.3 12.62 12.62 0 0 0-.77 2.42c-.16.73-.26 1.37-.34 1.89s-.12.93-.16 1.21 0 .24 0 .32a.65.65 0 0 1-.11-.01zM71.56 141.26l-6.56.1a.48.48 0 0 1-.5-.48.48.48 0 0 1 .48-.5l6.57-.1a.49.49 0 0 1 .5.48.49.49 0 0 1-.49.5zM71.57 141.69l-6.57.1a.49.49 0 0 0-.48.5.5.5 0 0 0 .5.49h.72l1 1.8a.62.62 0 0 0 .57.33h2.35a.63.63 0 0 0 .55-.36l.9-1.83h.5a.5.5 0 0 0 0-1z" style="fill:#263238"/><g style="opacity:.2"><path d="M62.35 124.32a6.27 6.27 0 0 1 1.73-1.18 4.81 4.81 0 0 1 1.34-.42c.33 0 .52 0 .54.06s-.62.41-1.5 1a7.53 7.53 0 0 0-2.63 3.08 7.66 7.66 0 0 0-.54 4c.14 1.07.4 1.72.26 1.79s-.22-.08-.41-.35a4.75 4.75 0 0 1-.59-1.27 6.8 6.8 0 0 1-.27-2.09 6.93 6.93 0 0 1 .57-2.53" style="fill:#fff"/></g><g style="opacity:.2"><path d="M68.06 123.13c-.55 0-1-.14-1.1-.43s.07-.31.27-.43a1.62 1.62 0 0 1 .82-.21 1.57 1.57 0 0 1 .83.19c.2.12.3.28.28.42" style="fill:#fff"/></g><path d="M70.07 144.67s-.17-.06-.45-.13a3.62 3.62 0 0 0-1.12-.12 3.74 3.74 0 0 0-1.1.22c-.27.1-.43.18-.44.17a1.45 1.45 0 0 1 .41-.24 3.19 3.19 0 0 1 1.13-.26 3.1 3.1 0 0 1 1.14.16 1.19 1.19 0 0 1 .43.2zM71.11 142.71s-1.19.07-2.65.09-2.65 0-2.65 0 1.18-.07 2.65-.1 2.65-.02 2.65.01zM70.71 143.49a2.92 2.92 0 0 1-.65.08c-.4 0-1 .06-1.56.08s-1.17 0-1.57 0a3.24 3.24 0 0 1-.65 0H70.06a5.55 5.55 0 0 1 .65-.16z" style="fill:#455a64"/><path d="M61.22 121.13c-.12.09-.59-.33-1.07-.93s-.76-1.2-.65-1.2.59.32 1.06.93.77 1.07.66 1.2zM67.35 118.66a6.84 6.84 0 0 1-.5-2.55 6.82 6.82 0 0 1 0-2.61 6.49 6.49 0 0 1 .5 2.56 6.33 6.33 0 0 1 0 2.6zM73.92 117.94c.12.08-.07.58-.42 1.1s-.73.89-.85.81.07-.57.42-1.1.73-.89.85-.81z" style="fill:#263238"/></g><g><path d="M370.88 142.64a6.16 6.16 0 0 0-4.75-1.4l-12.41-.18a9.08 9.08 0 0 1-5.45-1.49 8.8 8.8 0 0 1-3.42-4.38l-.5-1.61c-1-3.24-2.06-6.59-3.32-9.77a50.2 50.2 0 0 0-2.48-5.42c-.45-.87-1-1.7-1.5-2.55s-1.07-1.69-1.6-2.46a72 72 0 0 0-34.61-27 83.83 83.83 0 0 0-39.15-4.12 91.17 91.17 0 0 0-17.35 4l-4 1.43c-.84.33-1.67.67-2.48 1l-1.34.55a56.87 56.87 0 0 0-7.11 3.66 50.81 50.81 0 0 0-11.39 9.4 47.94 47.94 0 0 0-4.18 5.35c-1.06 1.59-2.1 3.31-3.27 5.42-1.49 2.68-2.8 5.21-4.06 7.66l-1.2 2.32-.85 1.62a53 53 0 0 1-3.79 6.49c-3.91 5.46-8.1 7.3-9.74 7.84a9.54 9.54 0 0 1-1.35.4l-.43.1-.58.1a6.53 6.53 0 0 1-.77.1l-1.14.09a.37.37 0 0 0-.34.39.37.37 0 0 0 .37.36h1.15a8.61 8.61 0 0 0 .87-.11l.59-.09.44-.1a9.9 9.9 0 0 0 1.46-.41c1.71-.54 6.11-2.42 10.2-8.08a52.19 52.19 0 0 0 3.9-6.61c.28-.52.56-1.06.85-1.61.41-.77.82-1.56 1.24-2.36 1.26-2.43 2.56-4.93 4-7.57 1.17-2.08 2.2-3.78 3.24-5.34a47.1 47.1 0 0 1 4.11-5.22A49.48 49.48 0 0 1 230 93.76a55.36 55.36 0 0 1 7-3.58l1.33-.55c.81-.34 1.62-.68 2.44-1l3.94-1.41a90.44 90.44 0 0 1 17.14-3.88 82.81 82.81 0 0 1 38.6 4.11 70.91 70.91 0 0 1 34 26.61c.49.72 1.05 1.55 1.56 2.42s1 1.64 1.47 2.48a50 50 0 0 1 2.41 5.3c1.24 3.13 2.23 6.31 3.28 9.68l.52 1.64a10 10 0 0 0 3.89 5 10.3 10.3 0 0 0 6.15 1.71l12.48.18a5.06 5.06 0 0 1 3.82 1.07 4.79 4.79 0 0 1 1.17 3.81l-.06 1.65c0 1-.07 2-.13 3-.05.56-.09 1.13-.14 1.69-.08 1-.16 2-.27 3a116.83 116.83 0 0 1-3.69 18.74 135.57 135.57 0 0 1-16.24 35.94 118.8 118.8 0 0 1-14.24 18.36 83.3 83.3 0 0 1-8.41 7.73 84.82 84.82 0 0 1-9.31 6.39 108.28 108.28 0 0 1-20.31 9l-1.44.47c-1.24.41-2.52.83-3.79 1.2l-2.62.79a10.49 10.49 0 0 0-2.64 1.17 9.56 9.56 0 0 0-3.7 4.35 9.29 9.29 0 0 0-.7 2.8c-.05.67-.05 1.31 0 1.93v.81c0 20.44-.47 39.72-.93 58.37-.18 7.34-.36 14.51-.5 21.47a20.17 20.17 0 0 0 .47 4.66 7.56 7.56 0 0 0 2.28 4.21 4.51 4.51 0 0 0 4.79.44 5.48 5.48 0 0 0 1.88-1.52 7.08 7.08 0 0 0 1.14-2.06 23.79 23.79 0 0 0 1.05-7.55v-1.09c.06-2.7 0-5.37 0-8v-8.75a41.09 41.09 0 0 1 .6-7.25 4.43 4.43 0 0 1 .59-1.53 3.69 3.69 0 0 1 1.32-.93 3.36 3.36 0 0 1 3-.07 3.54 3.54 0 0 1 1.28 2.77 22.22 22.22 0 0 1 0 2.45v1.06l-.58 46.52a14.73 14.73 0 0 0 0 3.31 5.5 5.5 0 0 0 1.16 3.05 2.63 2.63 0 0 0 1.54.82c.51.06 1 .12 1.42.13.9.05 1.77.07 2.67.07h.61c2.93 0 5.46-.08 7.52-.15l5.67-.24c1.18-.06 1.79-.11 1.79-.11a.37.37 0 0 0 .34-.39.41.41 0 0 0-.38-.36s-.6 0-1.78.06l-5.87.18c-2.15.06-4.82.13-7.9.1-.91 0-1.74 0-2.6-.08h-.42a2.55 2.55 0 0 1-1.9-.62 4.4 4.4 0 0 1-.92-2.54 13.49 13.49 0 0 1 .05-3.16l.71-46.55v-1.05a22.35 22.35 0 0 0 0-2.58 6.78 6.78 0 0 0-.45-1.91 3.34 3.34 0 0 0-1.33-1.67 3.42 3.42 0 0 0-2.09-.53 6 6 0 0 0-2 .51 4.61 4.61 0 0 0-1.74 1.26 5.21 5.21 0 0 0-.81 2 42.52 42.52 0 0 0-.64 7.38v.5c-.05 2.43 0 4.83 0 7.38v9.92a23.05 23.05 0 0 1-1 7.25 4.79 4.79 0 0 1-2.48 2.89 3.34 3.34 0 0 1-3.55-.29 6.62 6.62 0 0 1-1.87-3.57 18.84 18.84 0 0 1-.43-4.37c.14-6.81.32-13.81.5-21 .48-18.8 1-38.24 1-58.88v-2.63a8 8 0 0 1 .61-2.42 8.24 8.24 0 0 1 3.22-3.78 8.76 8.76 0 0 1 2.33-1l2.62-.79c1.28-.38 2.58-.8 3.83-1.21l1.43-.47a110 110 0 0 0 20.58-9.03 87.6 87.6 0 0 0 9.46-6.5 86.07 86.07 0 0 0 8.54-7.84 120 120 0 0 0 14.39-18.55 137.08 137.08 0 0 0 16.39-36.29 118 118 0 0 0 3.73-18.94c.11-1 .19-2 .27-3 0-.56.09-1.12.14-1.69.06-1 .1-2 .13-3l.06-1.66a6 6 0 0 0-1.57-4.89z" style="fill:#455a64"/></g></svg>