<svg version="1.1" id="Layer_1" xmlns="http://www.w3.org/2000/svg" x="0" y="0" viewBox="0 0 461.3 453.4" style="enable-background:new 0 0 461.3 453.4" xml:space="preserve"><style>.st0{fill:#e0e0e0}.st1{fill:#f5f5f5}.st2{fill:#ebebeb}.st3{fill:#fff}.st4{fill:#263238}.st5{fill-rule:evenodd;clip-rule:evenodd}.st5,.st6{fill:#6900c7}.st7{opacity:.6}.st8{opacity:.3}.st9{fill:#455a64}.st10{fill:#ffbe9d}.st11{fill:#eb996e}.st12{fill:#fafafa}</style><g id="background-complete--inject-2"><path class="st0" d="M97.4 148.3c1.5-.9 3-1.5 4.7-2l1-4.6 7.8-.1 1.1 4.6c1.7.4 3.2 1 4.7 1.9l3.9-2.6 5.6 5.4-2.4 4c.9 1.5 1.5 3 2 4.7l4.6 1 .1 7.8-4.6 1.1c-.4 1.7-1 3.2-1.9 4.7l2.6 3.9-5.4 5.6-4-2.4c-1.5.9-3 1.5-4.7 2l-1 4.6-7.8.1-1.1-4.6c-1.7-.4-3.2-1-4.7-1.9l-3.9 2.6-5.6-5.4 2.4-4c-.9-1.5-1.5-3-2-4.7l-4.6-1-.1-7.8 4.5-1.1c.4-1.7 1-3.2 1.9-4.7l-2.6-3.9 5.4-5.6 4.1 2.4zm4.2 10.4c-3.2 3.3-3.1 8.6.2 11.8s8.6 3.1 11.8-.2c3.2-3.3 3.1-8.6-.2-11.8-3.3-3.2-8.6-3.1-11.8.2z"/><path class="st0" d="M101.6 158.7c.4-.5 1-1 1.6-1.4 1.6-1 3.5-1.5 5.5-1.3 2.9.3 5.4 2.1 6.7 4.7.4.7.6 1.5.8 2.4.1.9.1 1.7 0 2.6-.5 3.7-3.4 6.7-7.1 7.3-.9.1-1.7.1-2.6 0-.8-.1-1.6-.3-2.4-.7-1.4-.6-2.6-1.6-3.5-2.9-1.9-2.7-2-6.3-.3-9.2.3-.5.7-1.1 1.3-1.5-.5.5-.8 1.1-1.2 1.7-.9 1.6-1.2 3.5-.9 5.4.4 2.7 2.2 5.1 4.8 6.2 1.5.7 3.1.9 4.7.6 3.5-.6 6.2-3.3 6.7-6.8.1-.8.1-1.6 0-2.4-.1-.8-.4-1.5-.7-2.2-1.2-2.5-3.6-4.2-6.3-4.6-1.8-.2-3.7.2-5.3 1.1-.7.2-1.3.6-1.8 1z"/><path class="st0" d="m97.4 148.3-.3-.1-.8-.4-3-1.8h.1l-5.4 5.6v-.1c.8 1.2 1.7 2.5 2.6 3.9v.2c-.8 1.5-1.4 3.1-1.8 4.7v.1h-.1l-4.6 1.1.1-.2c.1 2.4.1 5.1.2 7.8l-.2-.2 4.6 1h.1v.1c.5 1.6 1.1 3.2 2 4.6l.1.1-.1.1-2.4 4v-.3l5.6 5.4H94l3.9-2.6.1-.1.1.1c1.5.8 3 1.4 4.7 1.8h.1v.1c.3 1.4.7 3 1.1 4.6l-.2-.2 7.8-.1-.2.2c.3-1.5.6-3 1-4.6v-.1h.1c1.6-.5 3.2-1.1 4.6-2l.1-.1.1.1 4 2.4h-.3c1.8-1.9 3.6-3.8 5.4-5.6v.3c-.9-1.3-1.7-2.6-2.6-3.9l-.1-.1.1-.1c.8-1.5 1.4-3 1.9-4.7v-.1h.1l4.6-1.1-.2.2c0-2.7-.1-5.3-.1-7.8l.2.2-4.6-1h-.1v-.1c-.5-1.6-1.1-3.2-2-4.6l-.1-.1.1-.1c.8-1.4 1.7-2.7 2.4-4v.2l-5.6-5.4h.2l-4 2.6-.1.1-.1-.1c-1.5-.8-3-1.4-4.7-1.9h-.1v-.1c-.4-1.7-.8-3.2-1.1-4.6l.1.1-7.8.1.1-.1c-.4 1.8-.7 3.4-1 4.6-1.2.3-2.4.8-3.6 1.4l-.8.4-.1.2.3-.1c.2-.1.4-.3.8-.5 1.1-.6 2.3-1.1 3.6-1.4l-.1.1c.2-1.3.6-2.8.9-4.6v-.1h.1l7.8-.2h.1v.1c.4 1.4.7 2.9 1.1 4.6v-.2c1.7.4 3.3 1 4.8 1.9h-.2l3.9-2.6.1-.1.1.1 5.6 5.4.1.1-.1.1c-.8 1.3-1.6 2.7-2.4 4v-.2c.9 1.5 1.6 3.1 2.1 4.7l-.2-.1 4.6 1h.2v.2c.1 2.5.1 5.1.1 7.8v.2l-.2.1-4.5 1.2.2-.2c-.4 1.7-1 3.3-1.9 4.8v-.4l2.6 3.9.1.2-.1.1-5.4 5.6-.1.1-.2-.1-4-2.4h.2c-1.5.9-3.1 1.5-4.7 2l.2-.2c-.3 1.6-.7 3.2-1 4.6v.2h-.2l-7.8.1h-.2v-.2c-.4-1.6-.8-3.1-1.1-4.6l.2.2c-1.7-.4-3.3-1-4.8-1.9h.2l-3.9 2.6-.2.1-.1-.1-5.6-5.4-.1-.1.1-.1 2.4-4v.2c-.9-1.5-1.5-3.1-2-4.7l.2.1-4.6-1h-.2v-.1c0-2.7-.1-5.3-.1-7.8v-.1h.1l4.6-1.1-.1.1c.4-1.7 1.1-3.3 1.9-4.8v.1c-.9-1.4-1.8-2.8-2.6-3.9v-.1l.1-.1 5.4-5.6 3 1.9c.3.2.6.4.8.5l.1.1z"/><path class="st1" d="M326.3 203.7c.9-.5 1.8-.9 2.8-1.2l.5-2.8 4.7-.1.7 2.7c1 .3 1.9.6 2.8 1.1l2.4-1.6 3.4 3.2-1.5 2.4c.5.9.9 1.8 1.2 2.8l2.8.6.1 4.7-2.7.7c-.2 1-.6 1.9-1.1 2.8l1.5 2.4-3.2 3.4-2.4-1.5c-.9.5-1.8.9-2.8 1.2l-.6 2.8-4.7.1-.7-2.7c-1-.3-1.9-.6-2.8-1.1l-2.4 1.6-3.4-3.2 1.5-2.4c-.5-.9-.9-1.8-1.2-2.8l-2.8-.6-.1-4.7 2.7-.7c.2-1 .6-1.9 1.1-2.8l-1.6-2.4 3.2-3.4 2.6 1.5zm2.5 6.2c-1.9 2-1.9 5.2.1 7.1 2 1.9 5.2 1.9 7.1-.1 1.9-2 1.9-5.1-.1-7.1s-5.2-1.9-7.1.1z"/><path class="st1" d="M328.8 209.9c.3-.3.6-.6.9-.8 1.7-1.1 3.8-1.1 5.5 0 .8.5 1.4 1.2 1.8 2 .2.4.4.9.5 1.4.1.5.1 1 0 1.5-.3 2.2-2 4-4.2 4.4-.5.1-1 .1-1.5 0s-1-.2-1.4-.4c-.8-.4-1.6-1-2.1-1.7s-.8-1.4-.9-2.2c-.2-1.1.1-2.3.7-3.3.1-.4.4-.7.7-.9 0-.1-.3.2-.7.9-.5 1-.7 2.1-.5 3.2.3 1.6 1.3 3 2.9 3.7.4.2.9.3 1.3.4.5.1 1 .1 1.5 0 2.1-.4 3.7-2 4-4.1.1-.5.1-1 0-1.5s-.2-.9-.4-1.3c-.4-.8-1-1.5-1.7-1.9-1.6-1.1-3.7-1.1-5.3-.1-.8.4-1.1.7-1.1.7z"/><path class="st1" d="m326.3 203.7-.2-.1-.5-.3-1.8-1.1-3.2 3.4v-.1l1.5 2.4v.1c-.5.9-.9 1.8-1.1 2.8v.1h-.1l-2.7.7.1-.1c0 1.5.1 3 .1 4.7l-.1-.1 2.8.6h.1v.1c.3 1 .7 1.9 1.2 2.8v.2l-1.5 2.4v-.2l3.4 3.2h-.2c.7-.5 1.5-1 2.4-1.6l.1-.1h.1c.9.5 1.8.9 2.8 1.1h.1v.1l.7 2.7-.1-.1 4.7-.1-.1.1c.2-.9.4-1.8.6-2.8v-.1h.1c1-.3 1.9-.7 2.8-1.2l.1-.1.1.1 2.4 1.5h-.2c1.1-1.1 2.2-2.2 3.2-3.4v.2l-1.5-2.4v-.1c.5-.9.9-1.8 1.1-2.8v-.1h.1l2.7-.7-.1.1c0-1.6 0-3.1-.1-4.7l.1.1-2.8-.6h-.1v-.1c-.3-1-.7-1.9-1.2-2.8v-.2l1.5-2.4v.1l-3.4-3.2h.1l-2.4 1.5h-.1c-.9-.5-1.8-.9-2.8-1.1v-.1c-.2-1-.5-1.9-.7-2.8l.1.1-4.7.1h.1c-.2 1.1-.4 2-.6 2.8-.7.2-1.5.5-2.1.8l-.5.3c-.2.3-.3.4-.3.4l.2-.1c.1-.1.3-.2.5-.3.7-.4 1.4-.7 2.1-.9.2-.8.3-1.7.6-2.8l4.7-.1h.1v.1c.2.9.4 1.8.7 2.7l-.1-.1c1 .2 2 .6 2.9 1.1h-.1l2.4-1.6h.1l.1.1 3.4 3.2.1.1v.1l-1.4 2.4v-.1c.5.9.9 1.8 1.2 2.8l-.1-.1 2.8.6h.1v.1c0 1.5.1 3.1.1 4.7v.1h-.1l-2.7.7.1-.1c-.2 1-.6 2-1.1 2.9v-.2l1.5 2.4.1.1-.1.1-3.2 3.4-.1.1-.1-.1-2.4-1.5h.2c-.9.5-1.8.9-2.8 1.2l.1-.1c-.2 1-.4 1.9-.6 2.8v.1h-.1l-4.7.1h-.1v-.1l-.7-2.7.1.1c-1-.2-2-.6-2.9-1.1h.1l-2.4 1.5-.1.1-.1-.1-3.3-3.2-.1-.1.1-.1 1.5-2.4v.1c-.5-.9-.9-1.8-1.2-2.8l.1.1-2.8-.6h-.1v-.1c0-1.6 0-3.2-.1-4.7v-.1h.1l2.7-.7-.1.1c.2-1 .6-2 1.1-2.9v.1l-1.5-2.3c1.3-1.4 2.4-2.5 3.3-3.3l1.8 1.1c.2.1.3.2.5.3l-.3-.1zM363 32.3c1.1-.7 2.3-1.2 3.6-1.6l.7-3.6 6-.1.9 3.5c1.3.3 2.5.8 3.6 1.4l3-2 4.3 4.2-1.9 3.1c.7 1.1 1.2 2.3 1.6 3.6l3.6.7.1 6-3.5.9c-.3 1.3-.8 2.5-1.4 3.7l2 3-4.2 4.3-3.1-1.8c-1.1.7-2.3 1.2-3.6 1.6l-.7 3.6-6 .1-.9-3.5c-1.3-.3-2.5-.8-3.6-1.4l-3 2-4.3-4.2 1.9-3.1c-.7-1.1-1.2-2.3-1.6-3.6l-3.6-.8-.1-6 3.5-.9c.3-1.3.8-2.5 1.4-3.7l-2-3 4.2-4.3 3.1 1.9zm3.2 8c-2.5 2.6-2.4 6.6.2 9.1s6.6 2.4 9.1-.2 2.4-6.6-.2-9.1c-2.6-2.4-6.6-2.3-9.1.2z"/><path class="st1" d="M366.2 40.3c.3-.4.7-.8 1.2-1.1 1.2-.8 2.7-1.2 4.2-1 2.2.2 4.2 1.6 5.2 3.6.3.6.5 1.2.6 1.8.1.7.1 1.3 0 2-.4 2.9-2.6 5.2-5.4 5.6-.7.1-1.3.1-2 0-.6-.1-1.3-.3-1.8-.5-1.1-.5-2-1.2-2.6-2.2-1.5-2.1-1.6-4.9-.3-7.1.1-.3.5-.7.9-1.1 0 .1-.4.5-.9 1.4-.7 1.3-.9 2.7-.7 4.1.2.9.5 1.8 1.1 2.6.7.9 1.5 1.6 2.6 2.1.6.2 1.1.4 1.7.5.6.1 1.3.1 1.9 0 2.7-.4 4.8-2.6 5.2-5.3.2-1.2 0-2.5-.6-3.6-.9-1.9-2.8-3.2-4.9-3.5-1.4-.2-2.9.1-4.1.9-.9.4-1.3.9-1.3.8z"/><path class="st1" d="m363 32.3-.2-.1-.6-.3-2.3-1.4h.1l-4.2 4.3v-.2c.6.9 1.3 1.9 2 3v.2c-.6 1.1-1.1 2.4-1.4 3.6v.1h-.1l-3.5.9.1-.1c0 1.9.1 3.9.1 6l-.1-.1 3.6.7h.1v.1c.4 1.3.9 2.4 1.5 3.6v.2l-1.9 3.1v-.2l4.3 4.2h-.2l3-2 .1-.1h.1c1.1.6 2.3 1.1 3.6 1.4h.1v.1l.9 3.5-.2-.1 6-.1-.2.2c.2-1.1.5-2.3.7-3.6v-.1h.1c1.2-.4 2.4-.9 3.5-1.5l.1-.1.1.1 3.1 1.9h-.2l4.2-4.3v.2l-2-3-.1-.1v-.1c.6-1.1 1.1-2.3 1.4-3.6v-.1h.1l3.5-.9-.1.2c0-2.1-.1-4.1-.1-6l.1.2-3.5-.7h-.1v-.1c-.4-1.2-.9-2.4-1.5-3.6v-.2l1.9-3.1v.2l-4.3-4.2h.2l-3 2h-.2c-1.1-.6-2.3-1.1-3.6-1.4v-.1c-.3-1.3-.6-2.4-.8-3.5l.1.1-6 .1.1-.1c-.3 1.4-.5 2.6-.8 3.5-.9.3-1.9.6-2.8 1.1l-.7.3h-.1l.2-.2.6-.4c.9-.4 1.8-.8 2.8-1.1.2-1 .4-2.1.7-3.6h.1l6-.1h.1v.1c.3 1.1.6 2.2.9 3.5l-.1-.1c1.3.3 2.5.8 3.7 1.4h-.1l3-2 .1-.1.1.1 4.3 4.2.1.1-.1.1c-.6 1-1.2 2-1.9 3.1v-.2c.7 1.1 1.2 2.4 1.6 3.6l-.1-.1 3.5.7h.1v.2c0 1.9 0 3.9.1 6v.1h-.1l-3.5.9.1-.1c-.3 1.3-.8 2.5-1.5 3.7V52c.7 1 1.3 2 2 3l.1.1-.1.1-4.2 4.4-.1.1-.1-.1-3.1-1.9h.2c-1.1.7-2.4 1.2-3.6 1.6l.1-.1c-.2 1.2-.5 2.4-.7 3.6v.2h-.2l-6 .1h-.1V63c-.3-1.2-.6-2.4-.9-3.5l.1.1c-1.3-.3-2.5-.8-3.7-1.5h.2l-3 2-.1.1-.1-.1-4.3-4.2-.1-.1.1-.1 1.9-3.1v.2c-.7-1.1-1.2-2.4-1.6-3.6l.1.1-3.6-.7h-.1v-.1c0-2.1-.1-4.1-.1-6v-.1h.1l3.5-.9-.1.1c.3-1.3.8-2.5 1.5-3.7v.1l-2-3v-.1l-.1-.2 4.2-4.3 2.3 1.4.6.4.3.1zM264.9 58.9c.9-.5 1.8-.9 2.8-1.2l.6-2.8 4.7-.1.7 2.7c1 .3 1.9.6 2.8 1.1l2.4-1.6 3.4 3.2-1.5 2.4c.5.9.9 1.8 1.2 2.8l2.8.6.1 4.7-2.7.7c-.2 1-.6 1.9-1.1 2.8l1.5 2.4-3.2 3.4-2.4-1.5c-.9.5-1.8.9-2.8 1.2l-.6 2.8-4.7.1-.7-2.7c-1-.3-1.9-.6-2.8-1.1l-2.3 1.6-3.4-3.2 1.5-2.4c-.5-.9-.9-1.8-1.2-2.8l-2.8-.6-.1-4.7 2.7-.7c.2-1 .6-1.9 1.1-2.8l-1.5-2.4 3.2-3.4 2.3 1.5zm2.5 6.3c-1.9 2-1.9 5.2.1 7.1 2 1.9 5.2 1.9 7.1-.1 1.9-2 1.9-5.1-.1-7.1s-5.2-1.9-7.1.1z"/><path class="st1" d="M267.4 65.2c.3-.3.6-.6.9-.8 1.7-1.1 3.8-1.1 5.5 0 .8.5 1.4 1.2 1.8 2 .2.4.4.9.5 1.4.1.5.1 1 0 1.5-.1 1.1-.6 2.1-1.4 2.9-.8.8-1.8 1.3-2.8 1.5-.5.1-1 .1-1.5 0s-1-.2-1.4-.4c-.8-.4-1.6-1-2.1-1.7s-.8-1.4-.9-2.2c-.2-1.1.1-2.3.7-3.3.2-.4.5-.7.8-1 0 0-.3.3-.7 1-.5 1-.7 2.1-.5 3.2.1.7.4 1.5.9 2.1.5.7 1.2 1.3 2 1.6.4.2.9.3 1.4.4.5.1 1 .1 1.5 0 2.1-.3 3.7-2 4-4.1.1-.5.1-1 0-1.5s-.2-.9-.4-1.3c-.7-1.5-2.2-2.5-3.8-2.7-1.1-.1-2.2.1-3.2.7-1 .4-1.3.7-1.3.7z"/><path class="st1" d="m264.9 58.9-.2-.1-.5-.3-1.8-1.1h.1l-3.2 3.4v-.1l1.6 2.3c-.5.9-.9 1.8-1.1 2.8v.2h-.1l-2.7.7.1-.1c0 1.5.1 3 .1 4.7l-.1-.1 2.8.6h.1v.1c.3 1 .7 1.9 1.2 2.8v.2l-1.5 2.4V77l3.4 3.2h-.2l2.4-1.6h.2c.9.5 1.8.9 2.8 1.1h.1v.1l.7 2.7-.1-.1 4.7-.1-.1.1c.2-.9.4-1.8.6-2.8v-.1h.1c1-.3 1.9-.7 2.8-1.2h.2l2.4 1.5h-.7c1.1-1.1 2.2-2.3 3.2-3.4v.2l-1.5-2.4V74c.5-.9.9-1.8 1.1-2.8v-.1h.1l2.7-.7-.1.1c0-1.6 0-3.2-.1-4.7l.1.1-2.8-.6h-.1v-.1c-.3-1-.7-1.9-1.2-2.8v-.2l1.5-2.4v.2l-3.3-3.2h.1l-2.4 1.5h-.1c-.9-.5-1.8-.9-2.8-1.1h-.1c-.2-1-.5-1.9-.7-2.8l.1.1-4.7.1.1-.1c-.2 1.1-.4 2-.6 2.8-.7.2-1.5.5-2.1.8l-.5.3v.5l.2-.1c.1-.1.3-.2.5-.3.7-.4 1.4-.7 2.1-.9.2-.8.3-1.7.6-2.8v-.1l4.7-.1h.1v.1c.2.8.4 1.8.7 2.7l-.1-.1c1 .3 2 .7 2.9 1.2h-.1l2.3-1.6h.1l.1.1 3.4 3.2.1.1v.1l-1.5 2.4v-.1c.5.9.9 1.8 1.2 2.8l-.1-.1 2.8.6h.1v.1c0 1.5.1 3.1.1 4.7v.2h-.1l-2.7.7.1-.1c-.2 1-.6 2-1.1 2.9v-.1l1.5 2.3.1.1-.1.1-3.2 3.4-.1.1-.1-.1-2.5-1.5h.1c-.9.5-1.8.9-2.8 1.2l.1-.1c-.2 1-.4 1.9-.6 2.8v.1h-.1l-4.7.1h-.1v-.1L268 80l.1.1c-1-.2-2-.6-2.9-1.1h.1l-2.4 1.5-.1.1-.1-.1-3.3-3.2-.1-.1.1-.1 1.5-2.4v.1c-.5-.9-.9-1.8-1.2-2.8l.1.1-2.8-.6v-.1c0-1.6 0-3.2-.1-4.7v-.1h.1l2.7-.7-.1.1c.2-1 .6-2 1-2.9v.1c-.6-.8-1.1-1.7-1.5-2.4 1.3-1.4 2.4-2.5 3.3-3.3l1.8 1.1c.2.1.4.2.5.3h.2zM51 141.3c.9-.5 1.8-.9 2.8-1.2l.6-2.8 4.7-.1.7 2.7c1 .2 1.9.6 2.8 1.1l2.4-1.6 3.4 3.2-1.5 2.4c.5.9.9 1.8 1.2 2.8l2.8.6.1 4.7-2.7.7c-.2 1-.6 1.9-1.1 2.8l1.6 2.4-3.2 3.4-2.4-1.5c-.9.5-1.8.9-2.8 1.2l-.6 2.8-4.7.1-.7-2.7c-1-.2-1.9-.6-2.8-1.1l-2.4 1.6-3.3-3.2 1.5-2.4c-.5-.9-.9-1.8-1.2-2.8l-2.8-.6-.4-4.8 2.7-.7c.2-1 .6-1.9 1.1-2.8l-1.6-2.4 3.2-3.4 2.6 1.6zm2.5 6.2c-1.9 2-1.9 5.2.1 7.1 2 1.9 5.2 1.9 7.1-.1 1.9-2 1.9-5.1-.1-7.1s-5.2-1.9-7.1.1z"/><path class="st1" d="M53.5 147.5c.3-.3.6-.6.9-.8 1.7-1.1 3.8-1.1 5.5 0 .8.5 1.4 1.2 1.8 2 .2.4.4.9.4 1.4.1.5.1 1 0 1.5-.1 1.1-.6 2.1-1.4 2.9-.8.8-1.8 1.3-2.8 1.5-.5.1-1 .1-1.6 0-.5-.1-1-.2-1.4-.4-1.6-.7-2.7-2.2-3-3.9-.2-1.1.1-2.3.7-3.3.2-.4.5-.7.9-.9-.1-.1-.4.2-.8.9-1.3 2.4-.5 5.4 1.9 6.7.1.1.3.1.4.2.4.2.9.3 1.3.4.5.1 1 .1 1.5 0 2.1-.3 3.7-2 4-4.1.1-.5.1-1 0-1.5s-.2-.9-.4-1.3c-.7-1.5-2.2-2.5-3.8-2.7-1.1-.1-2.2.1-3.2.7-.6.4-.9.7-.9.7z"/><path class="st1" d="M51 141.3s-.1 0-.2-.1l-.5-.3-1.8-1.1h.1l-3.2 3.4v-.1l1.6 2.4v.1c-.5.9-.9 1.8-1.1 2.8v.1l-2.7.7.1-.1c0 1.5.1 3 .1 4.7l-.1-.1 2.8.6h.1v.1c.3 1 .7 1.9 1.2 2.8v.2l-1.5 2.4v-.2l3.3 3.3H49l2.4-1.6h.2c.9.5 1.8.9 2.8 1.1h.1v.1c.2.9.4 1.8.7 2.7l-.1-.1 4.7-.1-.1.1c.2-.9.4-1.8.6-2.8v-.1H60c1-.3 1.9-.7 2.8-1.2l.1-.1.1.1 2.4 1.5h-.2l3.2-3.4v.2l-1.6-2.4v-.2c.5-.9.9-1.8 1.1-2.8v-.1h.1l2.7-.7-.1.1c0-1.6 0-3.1-.1-4.7l.1.1-2.8-.6h-.1v-.1c-.3-1-.7-1.9-1.2-2.8v-.2l1.5-2.5v.1c-1.2-1.1-2.3-2.2-3.3-3.2h.1l-2.4 1.5h-.2c-.9-.5-1.8-.9-2.8-1.1h-.1v-.1l-.7-2.7.1.1-4.7.1.1-.1c-.2 1.1-.4 2-.6 2.8-.7.2-1.4.5-2.1.8l-.5.3c.2.3.1.3.1.4l.2-.2c.1-.1.3-.2.5-.3.7-.4 1.4-.6 2.1-.9.2-.8.3-1.7.6-2.8v-.1H59.1v.1c.2.8.4 1.7.7 2.7l-.1-.1c1 .2 2 .6 2.9 1.1h-.1l2.3-1.6h.1l.1.1 3.4 3.3.1.1v.1l-1.5 2.4v-.1c.5.9 1 1.8 1.2 2.8l-.1-.1 2.8.6h.1v.1c0 1.5.1 3.1.1 4.7v.1H71l-2.7.7.1-.1c-.2 1-.6 2-1.1 2.9v-.1l1.5 2.3.1.1-.1.1-3.2 3.4-.1.1-.1-.1-2.4-1.5h.1c-.9.5-1.8.9-2.8 1.2l.1-.1c-.2 1-.4 1.9-.6 2.8v.1h-.1l-4.7.1h-.1v-.1l-.7-2.7.1.1c-1-.2-2-.6-2.9-1.1h.1l-2.4 1.5-.1.1-.1-.1-3.3-3.2-.1-.1v-.1L47 157v.1c-.5-.9-.9-1.8-1.2-2.8l.1.1-2.8-.6H43v-.1c0-1.6 0-3.2-.1-4.7v-.1h.1l2.7-.7-.1.1c.3-1 .6-2 1.1-2.9v.1l-1.5-2.4 3.3-3.3 1.8 1.1.5.3.2.1z"/><path class="st0" d="m85 289.2-2.1-8.7c-3.1-.8-6.2-2-9-3.5l-7.5 4.9-10.6-10.3 4.6-7.6c-1.7-2.8-2.9-5.7-3.8-8.8l-8.8-1.8-.3-14.8 8.7-2.1c.8-3.1 2-6.2 3.5-9l-4.9-7.5 10.3-10.7 7.6 4.6c2.8-1.7 5.7-3 8.8-3.8l1.8-8.8 14.8-.3 2.1 8.7c3.1.8 6.2 1.9 9 3.5l7.5-4.9 10.7 10.4-4.6 7.6c1.7 2.8 3 5.7 3.8 8.8l8.8 1.8.3 14.8-8.7 2.1c-.8 3.1-2 6.2-3.5 9l4.9 7.5-10.2 10.7-7.6-4.6c-2.8 1.7-5.7 3-8.8 3.8L100 289l-15 .2zm-11.1-12.3c2.8 1.6 5.9 2.8 9 3.5l2.1 8.7 14.8-.2 1.8-8.8c3.1-.9 6.1-2.2 8.8-3.8l7.6 4.6 10.2-10.6-4.9-7.5c1.6-2.8 2.8-5.9 3.5-9l8.7-2.2-.3-14.8-8.7-1.8c-.9-3.1-2.2-6.1-3.8-8.8l4.6-7.6-10.6-10.2-7.5 4.9c-2.8-1.6-5.9-2.8-9-3.5l-2.1-8.7-14.8.3-1.8 8.7c-3.1.9-6.1 2.2-8.8 3.8l-7.6-4.6-10.3 10.6 4.9 7.5c-1.6 2.8-2.8 5.9-3.5 9l-8.7 2.1.3 14.8 8.7 1.8c.9 3.1 2.2 6.1 3.8 8.8l-4.6 7.6 10.6 10.2 7.6-4.8zm18.2-16.4c-8.8 0-15.9-7.1-15.9-15.9 0-4.1 1.6-8.1 4.5-11 2.9-3 6.9-4.8 11.2-4.9h.3c8.8-.1 16 7 16 15.8.1 8.8-7 16-15.8 16h-.3zm0-31.7c-8.7-.2-16 6.7-16.2 15.4-.2 8.7 6.7 16 15.4 16.2h1.1c8.7-.3 15.6-7.6 15.3-16.3-.3-8.4-7.1-15.2-15.6-15.3z"/><path class="st2" d="M80.7 233.6c.8-1 1.9-1.9 3-2.6 3.1-2 6.7-2.9 10.3-2.5 5.5.6 10.3 4 12.7 8.9.7 1.4 1.2 2.9 1.4 4.5.3 1.6.3 3.3.1 4.9-.9 7.1-6.4 12.7-13.4 13.9-1.6.3-3.3.3-4.9.1-1.6-.2-3.1-.6-4.5-1.3-2.6-1.2-4.9-3.1-6.6-5.5-1.5-2.1-2.4-4.5-2.8-7-.5-3.6.2-7.2 2.1-10.3.8-1.2 1.6-2.2 2.6-3.1.1.1-1 1.1-2.1 3.3-1.7 3.1-2.3 6.7-1.8 10.2.9 5.2 4.3 9.5 9.1 11.6 1.4.6 2.8 1 4.3 1.2 1.5.2 3.1.2 4.6-.1 6.6-1.1 11.8-6.4 12.7-13.1.4-3-.1-6.1-1.4-8.9-2.3-4.7-6.8-8-12-8.6-3.5-.4-7.1.3-10.1 2.1-2.3 1.3-3.2 2.4-3.3 2.3z"/><path class="st2" d="M72.8 213.9c-.2-.1-.3-.2-.5-.3l-1.5-.9-5.8-3.4h.2L55 220v-.3l4.9 7.4.1.1-.1.1c-1.5 2.8-2.7 5.8-3.5 8.9v.2h-.2l-8.7 2.2.2-.3c.1 4.6.2 9.6.3 14.8l-.3-.4 8.7 1.8h.2l.1.2c.9 3.1 2.2 6 3.8 8.8l.1.2-.1.2-4.6 7.6-.1-.5 10.7 10.3H66l7.5-4.9.2-.1.2.1c2.8 1.5 5.8 2.7 8.9 3.5l.3.1.1.3c.7 2.7 1.4 5.7 2.1 8.7l-.4-.3 14.8-.3-.4.4c.6-2.8 1.2-5.8 1.8-8.8l.1-.3.3-.1c3.1-.9 6-2.1 8.7-3.8l.2-.1.2.1 7.6 4.6-.6.1L128 270v.6l-4.9-7.5-.1-.2.1-.2c1.6-2.8 2.7-5.8 3.5-8.9l.1-.3.3-.1 8.7-2.1-.3.4c-.1-5-.2-10-.2-14.8l.3.4-8.7-1.8h-.2l-.1-.2c-.9-3.1-2.1-6-3.8-8.8l-.1-.2.1-.2c1.6-2.6 3.1-5.2 4.6-7.6l.1.5-10.6-10.3h.4l-7.5 4.9-.2.1-.2-.1c-2.8-1.6-5.8-2.7-8.9-3.5h-.2v-.2c-.8-3.2-1.4-6-2.1-8.7l.3.2-14.8.2.2-.2c-.8 3.5-1.4 6.4-1.9 8.7v.1h-.1c-2.3.6-4.6 1.5-6.8 2.6l-1.6.8c-.2.1-.3.2-.5.3.2-.1.3-.2.5-.3.3-.2.8-.5 1.6-.9 2.1-1.1 4.4-2.1 6.8-2.8l-.1.1c.5-2.4 1.1-5.3 1.8-8.8v-.2h.2l14.8-.3h.2l.1.2c.7 2.7 1.4 5.5 2.2 8.7l-.2-.2c3.2.8 6.2 2 9.1 3.5h-.3l7.4-4.9.2-.2.2.2 10.7 10.2.2.2-.2.3-4.6 7.6v-.4c1.7 2.8 3 5.8 3.9 8.9l-.3-.3 8.8 1.8.3.1v.3c.1 4.8.2 9.7.3 14.8v.4l-.3.1-8.7 2.1.3-.3c-.8 3.2-2 6.2-3.6 9.1v-.5l4.9 7.5.2.3-.2.3-10.3 10.6-.2.3-.3-.2-7.7-4.7h.5c-2.8 1.7-5.8 3-9 3.9l.3-.3c-.6 3-1.2 6-1.8 8.8l-.1.4h-.4l-15.1.3h-.3l-.1-.4c-.7-3-1.4-6-2.1-8.7l.3.3c-3.2-.8-6.2-2-9.1-3.6h.4l-7.5 4.9-.3.2-.2-.2-10.6-10.3-.2-.2.2-.3 4.7-7.6v.4c-1.7-2.8-3-5.8-3.9-8.9l.3.3-8.8-1.8-.3-.1v-.3c-.1-5.2-.2-10.1-.2-14.8v-.3l.2-.1 8.7-2.1-.2.2c.8-3.1 2-6.2 3.6-9v.3c-1.8-2.7-3.4-5.2-4.9-7.5l-.1-.1.1-.1L65 209.2l.1-.1.1.1 5.6 3.5 1.4.9c.3.1.5.2.6.3z"/><path class="st0" d="M327.8 64.7c2.2 0 4.3.4 6.4 1l4.2-4.3 8.5 5.2-1.9 5.7c1.5 1.6 2.8 3.3 3.8 5.2l6-.1 2.4 9.7-5.4 2.7c0 2.2-.4 4.3-1 6.4l4.3 4.2-5.2 8.5-5.7-1.9c-1.6 1.5-3.3 2.8-5.2 3.8l.1 6-9.7 2.4-2.7-5.4c-2.2 0-4.3-.4-6.4-1l-4.2 4.3-8.5-5.2 1.9-5.7c-1.5-1.6-2.8-3.3-3.8-5.2l-6 .1-2.4-9.7 5.4-2.7c.1-2.2.4-4.3 1-6.4l-4.3-4.2 5.1-8.5 5.7 1.9c1.6-1.5 3.3-2.8 5.2-3.8l-.1-6 9.7-2.4 2.8 5.4zm-2.6 14c-5.7 1.4-9.2 7.2-7.8 12.9 1.4 5.7 7.2 9.2 12.9 7.8 5.7-1.4 9.2-7.2 7.8-12.9-1.4-5.7-7.1-9.2-12.9-7.8z"/><path class="st0" d="M325.2 78.7c.8-.3 1.7-.4 2.6-.4 2.5 0 4.8.8 6.8 2.3 1.3 1.1 2.4 2.4 3.1 4 .8 1.8 1.1 3.7.9 5.7-.1 1-.4 2-.8 3s-1 2-1.7 2.8c-3.1 3.7-8.2 5-12.6 3.1-2-.8-3.7-2.2-4.9-4-2.1-3.1-2.4-7-.9-10.4 1-2.2 2.7-4.1 4.9-5.2.9-.5 1.8-.8 2.6-.9-.8.3-1.6.7-2.4 1.1-2.1 1.2-3.7 3-4.6 5.2-1.4 3.3-1 7 .9 9.9.6.8 1.2 1.6 2 2.2.8.7 1.7 1.2 2.7 1.6 4.2 1.7 9 .6 11.9-2.9.7-.8 1.2-1.7 1.6-2.7.4-.9.7-1.9.8-2.9.2-1.8-.1-3.7-.8-5.4-.7-1.5-1.7-2.8-2.9-3.8-1.8-1.5-4.1-2.4-6.5-2.4-.9-.1-1.8 0-2.7.1z"/><path class="st0" d="M327.8 64.7c-.1-.1-.1-.2-.2-.3l-.5-1c-.5-.9-1.2-2.3-2-4h.1l-9.6 2.4.1-.1c0 1.8.1 3.8.1 6v.1l-.1.1c-1.9 1-3.6 2.3-5.2 3.8l-.1.1h-.1l-5.7-1.9.3-.1-5.2 8.5V78l4.3 4.2.1.1v.2c-.6 2.1-.9 4.2-1 6.3v.2l-.2.1-5.4 2.7.1-.3c.8 3 1.6 6.3 2.4 9.7l-.3-.2 6-.1h.2l.1.1c1 1.9 2.3 3.6 3.8 5.2l.1.1-.1.2c-.6 1.8-1.2 3.7-1.9 5.7l-.1-.4 8.5 5.1-.4.1 4.2-4.3.1-.1.2.1c2.1.6 4.2 1 6.3 1h.2l.1.2 2.7 5.4-.3-.2 9.7-2.4-.2.3c0-2-.1-4-.1-6v-.2l.2-.1c1.9-1 3.6-2.3 5.2-3.8l.1-.1.2.1 5.7 1.9-.3.1c1.8-2.9 3.5-5.7 5.2-8.5v.3l-4.3-4.2-.1-.1v-.2c.6-2.1.9-4.2 1-6.3v-.2l.1-.1 5.4-2.7-.2.1c-.8-3.4-1.6-6.6-2.3-9.7l.2.2-6 .1h-.1l-.1-.1c-1-1.9-2.3-3.6-3.8-5.2l-.1-.1v-.1l1.9-5.7.1.2-8.5-5.2h.2l-4.2 4.3h-.1c-1.6-.5-3.2-.8-4.8-1l-1.2-.1c-.1.1-.2.1-.4.1h1.6c1.6.1 3.3.4 4.8.9h-.1l4.1-4.4.1-.1.1.1 8.5 5.1.1.1v.1l-1.9 5.7V72c1.5 1.6 2.8 3.3 3.9 5.3l-.2-.1 6-.1h.2v.2c.8 3 1.5 6.3 2.4 9.7l-.2.1-5.4 2.7.2-.2c0 2.2-.4 4.4-1 6.5l-.1-.3 4.3 4.2.2.2-.1.2c-1.7 2.8-3.4 5.6-5.1 8.5l-.1.2-.1-.1-5.7-1.9.3-.1c-1.6 1.5-3.4 2.8-5.3 3.9l.2-.3c0 2 .1 4 .1 6v.2l-.2.1-9.6 2.5-.2.1-.1-.2-2.7-5.4.3.2c-2.2 0-4.4-.4-6.5-1l.3-.1-4.2 4.3-.2.2-.2-.1-8.5-5.2-.2-.1.1-.2c.7-2 1.3-3.9 1.9-5.7l.1.3c-1.5-1.6-2.8-3.4-3.9-5.3l.3.1-6 .1h-.2v-.2l-2.4-9.7v-.2l.2-.1 5.4-2.7-.2.2c0-2.2.4-4.4 1-6.5l.1.2c-1.5-1.5-3-2.9-4.3-4.2l-.1-.1.1-.2 5.2-8.5.1-.2.2.1 5.7 1.9h-.2c1.6-1.5 3.4-2.8 5.3-3.8l-.1.2c0-2.2-.1-4.2-.1-6v-.1h.1l9.7-2.3h.1v.1l2 4 .5 1c-.4.2-.4.4-.4.4z"/><path class="st2" d="M355.7 254.2c.8-.3 1.7-.4 2.6-.4 4.3 0 8.2 2.4 10 6.3.8 1.8 1.1 3.8.9 5.7-.2 2.2-1.1 4.2-2.5 5.9-3.1 3.7-8.3 5-12.7 3.1-1-.4-2-1-2.8-1.7-.8-.7-1.5-1.5-2.1-2.4-2.1-3.1-2.4-7.1-.9-10.5 1-2.3 2.8-4.1 5-5.2.8-.4 1.7-.7 2.5-.8-.8.3-1.6.7-2.4 1.1-2.1 1.2-3.8 3-4.7 5.2-.6 1.5-.9 3.1-.8 4.8.1 1.9.7 3.7 1.8 5.2.6.8 1.2 1.6 2 2.2.8.7 1.7 1.2 2.7 1.6 4.2 1.7 9.1.6 12-2.9.7-.8 1.2-1.7 1.6-2.7.4-.9.7-1.9.8-2.9.4-3.6-1-7.1-3.8-9.3-1.9-1.5-4.2-2.4-6.6-2.4-.8-.1-1.7 0-2.6.1z"/><path class="st2" d="m358.3 240-.2-.3-.5-1-2.1-4h.1l-9.7 2.4.1-.1c0 1.8.1 3.9.1 6.1v.1l-.1.1c-1.9 1-3.7 2.3-5.2 3.9l-.1.1h-.1l-5.8-1.9.3-.1-5.2 8.6v-.3l4.4 4.2.1.1v.1c-.6 2.1-1 4.2-1 6.4v.2l-.1.1-5.4 2.7.2-.3c.8 3.1 1.6 6.4 2.4 9.8l-.3-.2 6.1-.1h.2l.1.2c1 1.9 2.3 3.6 3.8 5.2l.1.1-.1.2c-.6 1.8-1.2 3.8-1.9 5.8l-.1-.4 8.6 5.2h-.4l4.2-4.4.1-.1h.2c2.1.6 4.2 1 6.4 1h.2l.1.2 2.7 5.4-.3-.2 9.8-2.4-.2.3c0-2-.1-4.1-.1-6.1v-.2l.2-.1c1.9-1 3.7-2.3 5.2-3.8l.1-.1.2.1 5.8 1.9-.3.1 5.2-8.6v.4l-4.4-4.2-.1-.1v-.2c.6-2.1 1-4.2 1-6.4v-.2l.1-.1 5.4-2.7-.1.3c-.8-3.4-1.6-6.7-2.4-9.8l.2.2-6.1.1h-.1l-.1-.1c-1-1.9-2.3-3.7-3.8-5.2l-.1-.1v-.1c.7-2.1 1.3-4 1.9-5.8l.1.2-8.6-5.2h.2c-1.7 1.7-3.1 3.1-4.2 4.3-1.6-.5-3.2-.8-4.8-1l-1.2-.1h-.4 1.6c1.6.1 3.3.4 4.9.9h-.1l4.2-4.4.1-.1.1.1 8.5 5.1.1.1v.1l-1.9 5.8v-.2c1.5 1.6 2.9 3.4 3.9 5.3l-.2-.1 6.1-.1h.2v.2l2.4 9.8v.2l-.2.1-5.4 2.7.2-.2c0 2.2-.4 4.4-1 6.5l-.1-.3 4.4 4.2.2.2-.1.2c-1.7 2.8-3.4 5.7-5.2 8.6l-.1.2-.2-.1-5.8-1.9.3-.1c-1.6 1.5-3.4 2.9-5.3 3.9l.2-.3c0 2 .1 4 .1 6.1v.2l-.2.1-9.8 2.4-.2.1-.1-.2-2.7-5.4.3.2c-2.2 0-4.4-.4-6.5-1l.3-.1c-1.5 1.5-2.9 3-4.2 4.4l-.2.2-.2-.1-8.6-5.2-.2-.1.1-.2c.7-2 1.3-4 1.9-5.8l.1.3c-1.5-1.6-2.9-3.4-3.9-5.3l.3.1-6.7-.2h-.2v-.2c-.8-3.4-1.6-6.7-2.4-9.8v-.2l.2-.1c1.9-.9 3.7-1.9 5.4-2.7l-.2.2c0-2.2.4-4.4 1-6.5l.1.3-4.4-4.2-.1-.1.1-.2c1.8-3 3.6-5.9 5.2-8.6l.1-.1h.2l5.8 1.9h-.2c1.6-1.5 3.4-2.8 5.3-3.9l-.1.2c0-2.2-.1-4.2-.1-6.1v-.1h.1l9.8-2.3h.1v.1c.8 1.8 1.5 3.1 2 4l.5 1c0 .2.1.3.1.4z"/><path class="st1" d="M36.9 422.1V453H131.7v-30.9z"/><path class="st0" d="M32.9 413.5v8.6h102.2v-8.6H82z"/><path class="st0" d="M84 453h47.7v-30.9h3.4v-8.6H82v7.8zM50.1 427.1h19.2v4.6H50.1z"/><path class="st3" d="M47.7 437.5h24.7v9.8H47.7z"/><path class="st1" d="M51.5 382.7v30.8H146.3v-30.8z"/><path class="st0" d="M47.5 374.1v8.6h102.1v-8.6h-53z"/><path class="st0" d="M98.6 413.5h47.7v-30.8h3.3v-8.6h-53v7.8zM64.7 387.7h19.2v4.6H64.7z"/><path class="st3" d="M62.3 398.1H87v9.8H62.3z"/></g><path class="st4" d="M461.3 453c0 .1-103.3.3-230.7.3S0 453.1 0 453s103.3-.3 230.7-.3 230.6.1 230.6.3z" id="Floor--inject-2"/><g id="Gears--inject-2"><path class="st5" d="M66.8 33.1c3.7-2.2 7.7-3.9 11.8-5.1L81 16.4l19.6-.3 2.8 11.5c4.2 1 8.2 2.6 11.9 4.7l9.9-6.5 14.1 13.7-6.2 10.1c2.2 3.7 3.9 7.6 5.1 11.8l11.6 2.5.3 19.6-11.5 2.8c-1 4.2-2.6 8.2-4.7 11.9l6.5 9.9-13.7 14.1-10.1-6.2c-3.7 2.2-7.6 3.9-11.8 5.1l-2.5 11.6-19.6.3-2.8-11.5c-4.2-1-8.2-2.6-11.9-4.7l-10 6.5-14-13.7 6.2-10.1c-2.2-3.7-3.9-7.7-5.1-11.8l-11.6-2.5-.3-19.5 11.5-2.8c1-4.2 2.6-8.2 4.7-11.9L43 41l13.7-14.1 10.1 6.2z"/><path class="st3" d="M103.3 68.8c-.1-1.4-.3-2.8-.6-4.2-.4-1.6-1-3.1-1.9-4.5-2.5-4.1-6.6-7-11.4-7.9-2.9-.5-6-.3-8.8.8-1.5.5-2.9 1.3-4.2 2.3-1.4 1-2.6 2.2-3.5 3.6-4.3 5.9-4.3 13.9 0 19.8.5.7 1.1 1.4 1.6 2 .6.6 1.2 1.1 1.9 1.6 1.3 1 2.7 1.7 4.2 2.3 2.8 1 5.9 1.3 8.8.7 4.7-.9 8.9-3.8 11.4-7.9.9-1.4 1.5-2.9 1.9-4.5.3-1.3.5-2.7.6-4.1v1.1c0 .4 0 .9-.1 1.3l-.3 1.8c-.4 1.6-1 3.2-1.8 4.6-2.5 4.3-6.7 7.2-11.6 8.2-3 .6-6.1.3-9-.7-1.6-.6-3.1-1.4-4.4-2.4-1.4-1-2.6-2.2-3.7-3.7-4.5-6.1-4.5-14.3 0-20.4a16.32 16.32 0 0 1 3.7-3.7c1.3-1 2.8-1.8 4.3-2.3 5.5-2 11.6-1 16.2 2.5 1.7 1.3 3.2 3 4.3 4.9.9 1.4 1.5 3 1.9 4.6.2.6.3 1.2.3 1.8.1.4.1.9.1 1.3v.8c.1.1.1.2.1.3z"/><path class="st3" d="M97.9 81.2c.1-.1 3.8 3.4 8.3 7.9s8 8.2 7.9 8.3-3.8-3.4-8.3-7.9-8-8.2-7.9-8.3z"/><path class="st5" d="M201.1 107.4c4.7-2.8 9.8-5 15.1-6.5l3.2-14.9 25.2-.3 3.6 14.8c5.3 1.3 10.5 3.4 15.3 6.1l12.8-8.3 18.1 17.6-7.9 13c2.8 4.7 5 9.8 6.5 15.1l14.9 3.2.4 25.2-14.8 3.6c-1.3 5.3-3.4 10.5-6.1 15.3l8.3 12.8-17.6 18.1-13-7.9c-4.7 2.8-9.8 5-15.1 6.5l-3.1 14.9-25.2.4-3.6-14.8c-5.3-1.3-10.5-3.4-15.3-6.1l-12.8 8.3-18.1-17.6 7.9-13c-2.8-4.7-5-9.8-6.5-15.1l-14.9-3.1-.4-25.2 14.8-3.6c1.3-5.3 3.4-10.5 6.1-15.3l-8.3-12.8 17.6-18.1 12.9 7.7z"/><path class="st3" d="M224.5 186.9h4.5l12.4-.1-.1.1c0-2.1-.1-4.5-.2-7.1v-.1l.1-.1c3.9-1.8 7.5-4.3 10.6-7.3 1.7-1.7 3.2-3.6 4.4-5.7 1.3-2.2 2.1-4.7 2.4-7.2.6-5.6-.7-11.2-3.8-15.8-3.3-5-8.2-8.9-13.8-11-4.2-1.6-8.8-1.9-13.2-.9-4.2.8-8.2 2.6-11.5 5.3-3.1 2.5-5.5 5.9-6.9 9.6-.3.9-.7 1.8-.9 2.7s-.4 1.8-.7 2.7c-.3 1.8-.5 3.5-.5 5.3 0 1.7.3 3.4.6 5 .4 1.5.9 3 1.6 4.5 1.3 2.6 3 4.9 5 6.9 3 3 6.5 5.4 10.3 7.1h.1v.1c-.1 1.9-.2 3.4-.3 4.4 0 .5 0 .9-.1 1.1v.5-1.5c0-1 .1-2.5.2-4.5l.1.1c-3.9-1.7-7.4-4-10.5-7-2.1-2-3.8-4.4-5.1-7-.7-1.5-1.3-3-1.7-4.6-.4-1.7-.6-3.4-.7-5.1 0-1.8.1-3.6.5-5.4.2-.9.4-1.8.7-2.8s.6-1.8.9-2.7c1.5-3.8 3.9-7.2 7.1-9.8 3.4-2.7 7.4-4.6 11.7-5.3 4.5-1 9.2-.7 13.5.9 5.7 2.2 10.6 6.1 14 11.2 1.6 2.4 2.7 5.1 3.4 7.9.2.7.3 1.4.4 2.1.1.7.2 1.4.2 2.1 0 .7.1 1.4.1 2.1l-.2 2c-.3 2.6-1.2 5.1-2.5 7.4-1.2 2.1-2.8 4.1-4.5 5.8-3.1 3-6.8 5.5-10.7 7.3l.1-.2c0 2.6.1 5 .1 7.1v.2h-.2l-12.5-.1h-4.1l-.3-.2zM241.6 191.7c-2.9.3-5.8.4-8.6.3-2.9.1-5.8 0-8.6-.3 2.9-.3 5.8-.3 8.6-.3 2.8-.1 5.7 0 8.6.3zM235.9 198.2c-1 .4-2 .5-3.1.4-1 0-2.1-.1-3-.6 1-.1 2-.1 3.1 0 1-.1 2.1 0 3 .2z"/><path class="st3" d="M228 186.9v-1.1c0-.8 0-1.9.1-3.2.1-2.8.2-6.9.3-11.8.1-2.5.1-5.2.2-8.2 0-.7-.1-1.4-.3-2.1-.2-.7-.8-1.1-1.5-1-.7.2-1.2.8-1.3 1.5-.2.7-.1 1.5.3 2.2.8 1.4 2.2 2.4 3.9 2.6 1.7.2 3.4-.5 4.5-1.8 1.2-1.3 1.8-3.1 1.9-4.8.1-.9-.1-1.8-.5-2.6-.4-.7-1.3-1.1-2.1-.9-.8.4-1.2 1.2-1 2.1.2.9.6 1.7 1.2 2.4 1.1 1.4 2.5 2.6 4.2 3.2.8.3 1.7.4 2.5.3.8-.1 1.6-.5 2.3-.9.7-.5 1.2-1.1 1.4-1.9.3-.7.2-1.5-.1-2.2-.3-.7-1-1.1-1.7-1.2-.7.1-1.4.5-1.8 1.1-.8 1.2-.8 2.8-1 4.3-.3 2.9-.5 5.6-.7 8.1-.3 5-.6 9-.8 11.8-.1 1.4-.2 2.4-.2 3.2 0 .4 0 .6-.1.8v.3-1.1c0-.8.1-1.9.1-3.2.1-2.8.3-6.8.6-11.8.2-2.5.4-5.2.6-8.2.1-.7.2-1.5.3-2.2.1-.8.4-1.6.8-2.2.5-.7 1.3-1.2 2.2-1.3.9 0 1.8.6 2.1 1.4.4.8.5 1.8.2 2.6-.3.9-.9 1.6-1.6 2.1-.7.6-1.6.9-2.5 1.1-.9.1-1.9 0-2.8-.3-1.8-.7-3.3-1.9-4.4-3.4-.7-.7-1.1-1.6-1.3-2.6-.2-1.1.4-2.2 1.4-2.6 1.1-.3 2.2.2 2.7 1.1.5.9.7 1.9.6 2.9 0 1.9-.8 3.7-2 5.2s-3.1 2.2-4.9 2c-1.8-.2-3.4-1.3-4.2-2.9-.4-.8-.5-1.7-.3-2.5.2-.9.8-1.6 1.7-1.8.4-.1.9 0 1.3.3.3.3.6.6.8 1 .3.7.4 1.5.3 2.3-.1 2.9-.2 5.7-.3 8.2-.2 5-.3 9-.4 11.8-.1 1.4-.1 2.4-.1 3.2v.8c-.5-.2-.5-.1-.6-.1zM240 194.9c-2.3.3-4.7.3-7 .3-2.3.1-4.7 0-7-.3 2.3-.3 4.7-.3 7-.3 2.4-.1 4.7 0 7 .3z"/><path class="st5" d="M366.6 147.7c3-1.9 6.3-3.4 9.7-4.4l1.9-9.7 16.3-.5 2.5 9.6c3.5.8 6.9 2.1 10 3.8l8.2-5.5 11.9 11.2-5 8.5c1.9 3 3.3 6.3 4.4 9.7l9.7 1.9.5 16.3-9.6 2.5c-.8 3.5-2.1 6.9-3.8 10l5.5 8.2-11.2 11.9-8.5-5c-3 1.9-6.3 3.4-9.7 4.4l-1.9 9.7-16.4.5-2.5-9.6c-3.5-.8-6.8-2.1-10-3.8l-8.2 5.5-11.9-11.2 5-8.5c-1.9-3-3.3-6.3-4.4-9.7l-9.7-1.9-.5-16.4 9.6-2.5c.8-3.5 2.1-6.9 3.8-10l-5.5-8.2 11.2-11.8 8.6 5z"/><path class="st3" d="M409.8 199.5c-.3 0-.5.1-.8.1h-2.3l-8.4.1-27.6.1h-2.2v-.3c0-10.3.1-19.6.1-26.3 0-3.3.1-6 .1-7.9v-2.8 2.8c0 1.9 0 4.6.1 7.9 0 6.7 0 16 .1 26.3l-.3-.3h2l27.6.1 8.4.1h2.3c.3-.1.6 0 .9.1z"/><path class="st3" d="m405.2 171.4-1.2 1.2-3.5 3c-2.9 2.6-7 6.1-11.5 9.9l-.7.6-.2.1-.2-.2-5.1-4.8h.3l-7.5 6.2-2.2 1.8c-.3.2-.5.4-.8.6.2-.3.5-.5.7-.7l2.1-1.9 7.4-6.4.2-.1.2.1 5.2 4.8h-.4l.7-.6c4.5-3.8 8.6-7.3 11.6-9.8l3.6-2.9c.4-.3.8-.6 1.3-.9z"/><path class="st3" d="M405.2 180c-.1-.8-.2-1.7-.2-2.6 0-1.6-.1-3.8-.1-6.2l.3.3h-.4c-2.5 0-4.9 0-6.5-.1-.9 0-1.8 0-2.7-.2.9-.1 1.8-.2 2.7-.2 1.7 0 4-.1 6.5-.1h.7v.3c0 2.4 0 4.6-.1 6.2 0 .9-.1 1.7-.2 2.6z"/><path class="st4" d="M140.7 200.9c-.5-.9-.9-1.8-1.2-2.8-.4-.9-.6-1.9-.7-2.9.5.9.9 1.8 1.2 2.8.4.9.6 1.9.7 2.9zM151.3 222.3c-2.5-3.1-4.5-6.6-6-10.4 1.1 1.7 2.1 3.4 3.1 5.1 1 1.8 2 3.5 2.9 5.3zM166.9 240.4c-3.2-2.4-6-5.3-8.4-8.5 1.5 1.3 2.9 2.7 4.2 4.2 1.5 1.3 2.9 2.8 4.2 4.3zM186.7 253.8c-1.9-.7-3.7-1.5-5.4-2.6-1.8-.9-3.4-2.1-4.9-3.4 1.8.9 3.5 1.9 5.2 3 1.7.8 3.4 1.9 5.1 3zM209.4 261.1c-4-.3-7.9-1.3-11.6-2.8 2 .3 3.9.8 5.8 1.4 2 .3 3.9.7 5.8 1.4zM233.2 261.6c-2 .5-4 .7-6 .7-2 .2-4 .1-6-.2 2-.2 4-.3 6-.3 2-.2 4-.2 6-.2zM256.6 256.5c-1.8.9-3.7 1.5-5.6 2-1.9.6-3.9 1-5.9 1.2 1.9-.7 3.8-1.2 5.7-1.7 1.9-.7 3.8-1.2 5.8-1.5zM278.2 246.3c-3.2 2.4-6.8 4.3-10.6 5.7 1.7-1.1 3.4-2 5.2-2.9 1.8-1 3.6-2 5.4-2.8zM296.8 231.3c-1.2 1.6-2.5 3.1-4.1 4.4-1.4 1.4-3 2.7-4.7 3.7 1.4-1.4 2.8-2.8 4.4-4.1 2.4-2.2 4.3-4.1 4.4-4zM310 211.4c-.6 1.9-1.4 3.8-2.5 5.5-.9 1.8-2 3.5-3.3 5-.1-.1 1.3-2.4 2.9-5.2.9-1.8 1.8-3.6 2.9-5.3zM318.2 189c-.4 2-.9 3.9-1.6 5.8-.5 1.9-1.3 3.8-2.1 5.6.4-2 .9-3.9 1.6-5.8.5-2 1.2-3.8 2.1-5.6zM325.8 166.3c.2.1-.8 2.6-1.8 5.7-.6 1.9-1.3 3.8-2.2 5.6.4-2 1-3.9 1.7-5.7.5-1.6 1.1-3 1.5-3.9.2-.7.5-1.2.8-1.7zM336.5 144.9c-.8 1.8-1.8 3.6-2.8 5.3-.9 1.8-1.9 3.5-3 5.2.6-1.9 1.5-3.7 2.5-5.4.9-1.9 2-3.6 3.3-5.1zM352.4 127.2c.1.1-2 1.8-4.4 4-2.4 2.2-4.2 4.2-4.4 4.1 1.1-1.7 2.5-3.2 4-4.5 1.5-1.4 3.1-2.6 4.8-3.6zM374 117.1c-1.8.8-3.7 1.4-5.6 2-3.1 1.1-5.6 2.1-5.6 2 1.7-1.1 3.5-1.9 5.5-2.5 1.8-.8 3.7-1.3 5.7-1.5zM397.7 114.4c0 .1-2.7.1-6 .2s-6 .3-6 .2c2-.5 4-.7 6-.7 2-.1 4 0 6 .3zM420.8 120.3c-1.9-.5-3.8-1.2-5.7-1.9-3.1-1.1-5.7-1.9-5.6-2 2 .3 3.9.8 5.8 1.6 1.9.5 3.7 1.3 5.5 2.3zM441.1 132.8c-.1.1-2.2-1.5-4.9-3.4s-4.9-3.4-4.9-3.5c1.8.8 3.6 1.9 5.2 3.1 1.7 1 3.3 2.3 4.6 3.8zM453.1 146.1c-1.4-1.5-2.6-3.1-3.6-4.8 1.6 1.3 2.8 2.9 3.6 4.8z"/><path class="st4" d="M13.2 60.3s0-.3.2-.9l.6-2.7c.9-3.4 2-6.7 3.3-9.9 2.2-5 5-9.8 8.3-14.2C29.9 26.8 35 21.5 40.8 17c7-5.4 14.9-9.7 23.3-12.6 4.7-1.6 9.5-2.7 14.4-3.5 5.1-.7 10.3-1 15.6-.9 5.5.1 11 .8 16.3 2.1 5.6 1.3 11 3.2 16.2 5.7 5.3 2.7 10.3 6 14.8 9.8 4.7 4 8.8 8.5 12.2 13.6 3.5 5.1 6.3 10.6 8.3 16.4 1.9 5.6 3.1 11.4 3.7 17.3.1 1.5.3 2.9.3 4.3s.1 2.9.1 4.3V78c0 1.5-.2 2.8-.4 4.2-.7 5.5-2.2 10.8-4.3 15.9-2.1 4.8-4.4 9.5-7.1 14-2.6 4.4-5.1 8.6-7.5 12.7-4.4 7.7-7.3 16.1-8.7 24.8-.7 3.8-1.1 7.6-1.4 11.4-.3 3.6-.4 7.1-.4 10.3-.1 5.5.1 11 .8 16.4.5 3.4 1.3 6.8 2.3 10.1.4 1.1.7 2 .9 2.6.1.3.2.5.3.6 0 .1.1.1.1.2-.5-1.1-1-2.2-1.4-3.4-1.1-3.3-1.9-6.7-2.4-10.1-.7-5.5-1-11-.9-16.5 0-3.2.1-6.7.4-10.3.3-3.9.7-7.7 1.4-11.5 1.4-8.8 4.4-17.2 8.7-24.9l7.4-12.7c2.6-4.5 5-9.1 7.1-13.9 2.1-5.1 3.5-10.4 4.2-15.8.2-1.4.3-2.8.4-4.2s.1-2.8.1-4.2-.1-2.9-.1-4.3-.2-2.9-.3-4.3c-.6-5.9-1.8-11.7-3.7-17.3-2-5.8-4.7-11.2-8.2-16.2-3.5-5-7.6-9.5-12.2-13.5-4.5-3.9-9.4-7.1-14.7-9.8-5.1-2.5-10.5-4.4-16.1-5.7C105 1.4 99.5.7 94.1.5c-5.2-.1-10.4.1-15.6.9-4.9.7-9.6 1.9-14.3 3.4C55.9 7.7 48 11.9 41 17.3c-5.7 4.5-10.9 9.7-15.2 15.5-3.3 4.4-6.1 9.2-8.3 14.2-1.4 3.2-2.5 6.5-3.4 9.8l-.7 2.6-.2.9z"/></g><g id="Character--inject-2"><path class="st6" d="m256.6 428.1 15 5.3-.2 14.4c-7.2 2-8.2 5.7-8.2 5.7l15-.3 13.1-26.6-10.3-6.8-19.3-8.5"/><g class="st7"><path class="st3" d="m291.3 426.5-13.1 26.6-15 .3 1.6-2.3 12.2-.9 12.1-25.1z"/></g><path class="st4" d="M271.3 441.1c.1.1 1-.4 2.1-.4s2 .5 2.1.3-.7-1-2.1-1c-1.3.1-2.2 1-2.1 1.1zM271.5 437.6c.2.1.8-.8 2-1.1s2.2.3 2.2.1c.1-.2-.1-.3-.5-.5-.6-.3-1.2-.4-1.9-.2-.6.1-1.2.5-1.6 1-.2.3-.3.6-.2.7zM271.3 433c.2.1.7-.8 1.7-1.2 1-.4 2-.1 2.1-.2s-.2-.3-.6-.4c-1.1-.4-2.4.1-3 1.1-.3.4-.3.6-.2.7zM270.2 433c.2 0 .1-1 .5-2s1.2-1.6 1.1-1.8c-.1-.2-1.2.2-1.7 1.5-.5 1.2-.1 2.3.1 2.3zM268.4 431.3c.2-.6.3-1.3.3-2 .1-.7.1-1.5.2-2.2.1-.5.1-.9 0-1.4-.1-.3-.3-.6-.5-.7-.3-.2-.7-.2-1 0-.4.4-.7.8-.9 1.3-.2.4-.2.9-.3 1.4 0 .8.1 1.6.4 2.3.5 1.2 1.3 1.7 1.3 1.6l-.9-1.8c-.2-.7-.3-1.4-.2-2.1 0-.4.1-.8.3-1.2.1-.4.3-.7.6-1 .1-.1.2-.1.3 0 .1.1.2.2.2.4v1.2c0 .8 0 1.5-.1 2.2.1.6.2 1.3.3 2z"/><path class="st4" d="M268.2 431.9c.1 0-.4-.7-1.5-1.1-1.6-.5-3.3.1-4.3 1.5-.1.2 0 .4.1.6.1.1.2.3.4.3.2.1.5.1.7.1h1.2c.7-.1 1.4-.2 2-.5 1-.4 1.5-.9 1.4-.9 0-.2-.5.2-1.6.6-.6.2-1.2.3-1.9.3h-1.1c-.2 0-.3 0-.5-.1-.1-.1-.1 0-.1-.1.1-.1.2-.3.3-.4l.4-.4c.3-.2.6-.4 1-.5.6-.2 1.2-.2 1.8-.1.6.3 1.2.5 1.7.7z"/><g class="st7"><path class="st3" d="M279.3 426.3c0 1 .8 1.8 1.8 1.7 1 0 1.8-.8 1.7-1.8s-.8-1.8-1.8-1.7c-.9 0-1.7.8-1.7 1.8z"/></g><path class="st6" d="m179.5 422 .2 19.6s-19.9 6.8-20.2 10.5l38.1 1 .9-30.6-19-.5z"/><g class="st7"><path class="st3" d="M191.6 440.3c.7.3 1.2 1 1 1.8-.2.8-1 1.2-1.8 1-.8-.3-1.3-1.1-1.1-1.9.3-.8 1.2-1.2 2-.9"/></g><g class="st7"><path class="st3" d="M197.7 453.1V450l-36.6.2s-1.7.7-1.6 1.9l38.2 1z"/></g><path class="st4" d="M179.1 441.5c0 .2.9.3 1.8.9s1.4 1.4 1.5 1.4-.1-1.1-1.2-1.9-2.1-.6-2.1-.4zM175.1 443c-.1.2.8.5 1.4 1.3s.8 1.6 1 1.6.3-1-.4-2-2-1.1-2-.9zM172.7 447.7c.2 0 .4-.9 0-1.9s-1.3-1.5-1.4-1.3.4.7.8 1.6.4 1.6.6 1.6zM179.6 437c.1.2.9-.1 2 0s1.9.5 2 .3-.7-.9-1.9-.9-2.2.4-2.1.6z"/><path d="M179.6 425.9v3.5l18.8.3.1-3.1z" class="st8"/><path class="st4" d="M179.7 433c.6.2 1.3.2 1.9 0 .7-.1 1.4-.3 2-.6.4-.2.8-.3 1.1-.6.2-.1.4-.3.6-.4.3-.3.3-.7.1-1-.2-.3-.5-.4-.8-.5-.2 0-.5 0-.7.1-.4.1-.8.2-1.2.4-.7.3-1.3.6-1.8 1.1-.9.9-1.3 1.6-1.2 1.5.1.1.6-.4 1.5-1.1.5-.4 1.1-.7 1.7-.9.4-.1.7-.2 1.1-.3.4-.1.8-.1.9.1s0 .1 0 .2c-.1.1-.3.2-.4.3-.3.2-.7.4-1 .5-.6.3-1.2.5-1.9.7-.7.2-1.3.3-1.9.5z"/><path class="st4" d="M179.9 433.3c.1 0 .4-.6.6-1.8.1-.7 0-1.4-.2-2.1-.1-.4-.3-.8-.5-1.2-.2-.5-.6-.9-1.2-1-.3 0-.7.2-.8.5-.1.2-.2.5-.2.7-.1.4-.1.9 0 1.3.1.7.3 1.4.8 2 .7 1 1.5 1.2 1.5 1.2s-.6-.5-1.1-1.4c-.3-.6-.5-1.2-.6-1.8 0-.4 0-.7.1-1.1.1-.4.2-.7.4-.7s.5.3.6.6c.2.3.3.7.4 1 .2.6.3 1.3.3 1.9 0 1.2-.2 1.9-.1 1.9zM268.2 412l-43.9-16.3 46.2-6.5 2.3-22.5-86.4 7.5-12.1 17.6 3.2 22 84.1 21.4z"/><path class="st4" d="m175.1 427.7-4.2-80.4c.2-7.8 4.5-15 11.3-18.9 5.6-3.2 12.3-3.9 18.5-1.9l56 18.7 30.7 7.9s5.2 12.9 2.2 23c-3 9.8-13.8 16.4-23.2 13.5-11.8-3.5-65.8-26.7-65.8-26.7v65.4l-25.5-.6z"/><path class="st9" d="M265.5 389.9c-.1 0-.2-.1-.3-.1l-1-.4-3.7-1.5-13.5-5.5-44.3-18.3-2.3-.9.4-.2c0 18.2-.1 34.5-.1 46.4 0 5.9-.1 10.6-.1 14v5.1-1.3c0-.9 0-2.2-.1-3.8 0-3.3 0-8.1-.1-14 0-11.8 0-28.2-.1-46.4v-.4l.4.1 2.3.9 44.3 18.5 13.4 5.6 3.6 1.6.9.4c.2.1.2.1.3.2z"/><path class="st9" d="M213.7 390c4.1.7 7.8 2.8 10.5 5.8-.1.1-2.1-1.7-5-3.3s-5.5-2.4-5.5-2.5zM195.7 352.1c1.2 1.7 2.2 3.5 3 5.4a31 31 0 0 1 2.1 5.8c-.9-1.8-1.8-3.7-2.6-5.6-.9-1.8-1.8-3.7-2.5-5.6z"/><path class="st10" d="m195.8 316.7-9.9-1.9-10.5 10.6 2 6.8 12.1-4.5z"/><path class="st11" d="m159.1 198.8-2.7.2s-4.8.8-4.8.9-2.1 3.1-2.1 3.1l-1.9 3c.9.3 2 .1 2.7-.5l-.7 1.5c1.4.5 3-.1 3.7-1.4.6-1 1.3-2 2.1-3l.9-.1c.1.2 3.5 5 3.5 4.9s2.9-2.8 2.9-2.8l-3.6-5.8z"/><path class="st10" d="m166.3 219.7.8-14.8-7.5-8.5-8.3.5-3.4 2.4c.2.8 2.5 1.4 5.1.6 1.7-.4 3.5-.5 5.2-.2l3.2 5.6-2.1 2.3 2.7 14.2 4.3-2.1z"/><path class="st4" d="M144.4 200.1h26.9c.7 0 1.2.6 1.2 1.2 0 .7-.6 1.2-1.2 1.2h-26.9l-2.6-1.2 2.6-1.2z"/><path class="st10" d="m158 223.7-2.7-6.7c-.3-.9-.5-1.8-.5-2.7.1-2.4.3-7.3-.1-8.4-.5-1.5-2.5-6.6-1.4-7.4s2.7-1 3.8 2 4.5 9.5 4.5 9.5l2.6 10.7-6.2 3z"/><path class="st11" d="M161.3 209.3c-.6-.9-1.1-1.9-1.6-2.9-.9-1.8-2.1-4.4-3.4-7.1-.3-.6-.9-1-1.6-1-.6 0-1.1.4-1.3 1-.1.6-.1 1.2.1 1.8.1.6.2 1.1.4 1.6.5 1.9 1.1 3.1 1 3.1s-.2-.2-.5-.8c-.4-.7-.6-1.5-.9-2.2-.1-.5-.3-1-.4-1.6-.2-.6-.2-1.3-.1-2 .2-.8 1-1.3 1.8-1.4.8.1 1.6.5 2 1.3 1.4 2.8 2.5 5.3 3.3 7.2.4.9.8 2 1.2 3z"/><path class="st10" d="m286.5 353-2.7-4.8-29.3-7.4 3.4 6z"/><path class="st6" d="m155.4 223.7 18.4 43.7c1.7 4.1 5 7.4 9.2 9.1l39.8 16.4 9.3-25.6-38.8-13.7-25.2-35.9-12.7 6z"/><path class="st6" d="M215.4 267.6c0 1-4.3 32.8-4.3 39.3s12.4 13.5 12.4 13.5l13.6 28.9h48.5L269 318.2l-7.5-25c-2.8-9.5-8-18.1-15.1-25l-8.1-5.4-22.9 4.8z"/><path class="st6" d="m229.5 292.7 8.2 34.2-41.1-11.6-7 12.4 53.5 24.4c6.6 3 14.4.9 18.5-5 2.5-3.6 3.3-8.1 2.2-12.4l-12-46.8c-1.6-6.1-7.8-9.8-13.9-8.2-.3.1-.5.1-.8.2-5.4 1.8-8.6 7.2-7.6 12.8z"/><path class="st4" d="M223.5 320.5c-.2 0-.3-.1-.5-.2-.3-.1-.7-.4-1.3-.7-1.6-.9-3.1-1.9-4.5-3-2.2-1.6-4-3.6-5.3-6-1.3-2.9-1.2-6.4-.8-9.8s1.2-6.7 1.6-9.7.8-5.7.9-7.9.2-4.1.2-5.4v-2c0 .2.1.3.1.5 0 .3.1.8.1 1.5.1 1.8.1 3.6 0 5.4-.1 2.3-.4 5-.8 8s-1.1 6.2-1.6 9.7-.6 6.8.7 9.5c1.3 2.3 3 4.4 5.1 6 1.4 1.1 2.9 2.2 4.4 3.1 1.1.6 1.7.9 1.7 1zM246.2 283.7c-1.8-.7-3.6-1.1-5.5-1.3-1.9 0-3.8.2-5.7.6 1.7-.9 3.7-1.3 5.7-1.1 2 0 3.9.6 5.5 1.8zM240.7 265.2s-.2.3-.7.8-1.2 1.2-2.2 2.1c-1.9 1.7-4.5 4.1-7.6 6.5s-5.9 4.5-8 6c-1 .7-1.9 1.3-2.5 1.7-.3.2-.6.4-1 .5.3-.3.5-.5.9-.7l2.4-1.8c2-1.5 4.9-3.6 7.9-6.1s5.7-4.7 7.6-6.4l2.3-2c.2-.2.5-.4.9-.6zM193.4 253.5c.1.1-1.4.8-3.1 1.9s-2.8 2.2-2.9 2.1c1.4-2 3.5-3.4 6-4z"/><path class="st12" d="m233.4 308.2-.9.3c-.8.2-1.7.4-2.5.4-1.3.1-2.5.2-3.8.1-3.1-.2-6.2-.9-9-2.2-1.2-.5-2.3-1.2-3.3-1.9-.7-.5-1.4-1-2-1.6-.4-.4-.7-.6-.6-.7s1.1.8 2.9 2c2.4 1.5 4.9 2.6 7.6 3.2 2.7.7 5.5.9 8.2.7 2.1-.1 3.4-.4 3.4-.3zM236.2 323.2c-.6.2-1.2.3-1.8.3-1.5.1-3 0-4.5-.3s-2.9-.8-4.3-1.5c-.6-.2-1.1-.6-1.6-1 1.9.8 3.9 1.5 5.9 2 2.1.4 4.2.6 6.3.5zM257.5 313.9c-.2.2-.5.3-.8.5-.7.4-1.5.7-2.2 1-5 2-10.4 2.7-15.7 2.2-.8-.1-1.6-.2-2.4-.4-.3 0-.6-.1-.9-.2 0-.1 1.3.1 3.3.2 5.3.3 10.6-.4 15.5-2.1 2-.8 3.1-1.3 3.2-1.2zM253.7 297.2c0 .1-1.3-.2-3.3-.4-2.7-.3-5.3-.4-8-.3-2.7.1-5.4.4-8 .9-2 .4-3.2.7-3.3.6.3-.2.5-.3.8-.3.6-.2 1.4-.4 2.4-.7 2.6-.6 5.3-1 8-1.1 2.7-.1 5.4.1 8.1.5 1 .2 1.9.3 2.4.5.3 0 .6.1.9.3zM262.1 343.9c-.4 0-.8-.1-1.2-.2-1.1-.3-2.1-.6-3.1-1-6.8-2.5-12.7-6.7-17.4-12.2-.7-.8-1.4-1.7-2-2.6-.2-.3-.5-.6-.6-1 .1 0 1 1.3 2.9 3.4 4.7 5.3 10.6 9.5 17.2 12.1 2.6 1 4.2 1.5 4.2 1.5zM225.3 343.4c-.2-.9-.2-1.9-.1-2.8.1-2.3.4-4.6 1-6.8s1.4-4.4 2.5-6.4c.4-.9.9-1.7 1.5-2.4-.3.9-.7 1.7-1.2 2.6-.9 2.1-1.7 4.2-2.3 6.4-.6 2.2-1 4.4-1.1 6.7-.1.8-.2 1.8-.3 2.7zM200.5 332.2c-.1-.8-.1-1.6 0-2.4.2-1.9.8-3.8 1.8-5.5 1-1.6 2.3-3.1 3.9-4.3.6-.5 1.2-1 1.9-1.4-.5.6-1.1 1.2-1.7 1.7-1.4 1.3-2.6 2.7-3.7 4.3-.9 1.6-1.6 3.4-1.9 5.3 0 .7-.1 1.5-.3 2.3zM282.5 343.2c-.9.5-1.9.9-2.9 1.3-2.4.9-4.8 1.6-7.3 2.2-2.5.6-5 .9-7.6.8-.4 0-.9 0-1.3-.1-.3 0-.7-.1-1-.1-.3 0-.6-.1-.8-.2 0-.1 1.2.1 3.1.1 2.5-.1 5-.4 7.5-1 2.9-.6 5.5-1.4 7.3-2 .9-.5 1.9-.8 3-1zM271.5 323.4s-.3.6-1.1 1.2c-1.1.8-2.3 1.4-3.5 1.9-1.2.5-2.5.9-3.8 1.1-.4.1-.8.1-1.2.1-.3 0-.5-.1-.4-.1 0 0 .6-.1 1.6-.4 1-.3 2.3-.7 3.7-1.2 1.2-.5 2.4-1 3.5-1.7.7-.5 1.1-.9 1.2-.9zM264.6 303.3s0 .2-.1.4c-.2.3-.5.5-.8.6-.9.6-2 1-3 1.4-1 .4-2.1.7-3.2.9-.8.1-1.4 0-1.4 0s.5-.1 1.3-.3 1.9-.6 3.1-1l3-1.2c.3-.1.6-.3.8-.5l.3-.3zM228.9 292.7c-.8.1-1.6.2-2.4.1-1.9-.1-3.8-.4-5.6-.8-1.8-.4-3.6-1-5.4-1.8-.7-.3-1.4-.7-2.1-1.1.1-.1 3.3 1.5 7.6 2.5s7.9 1 7.9 1.1zM257.7 283.7c.1.1-1.3 1.1-3.3 1.9-1.9.8-3.6 1.1-3.7.9s1.6-.6 3.5-1.4c2-.8 3.5-1.5 3.5-1.4zM235.3 270.7c.5.3 1 .6 1.4 1.1 2 2.1 3.3 4.8 3.5 7.7.1.6.1 1.2-.1 1.8-.3-4-2-7.8-4.8-10.6zM203.8 284.9c-.2-.3-.4-.6-.5-.9-.3-.9-.6-1.8-.8-2.8-.6-3.1-.6-6.3.1-9.4.6-3.1 1.5-6.1 2.7-9 .4-1.1.8-2 1.1-2.6.1-.3.3-.6.5-.9-.1.3-.2.7-.3 1-.3.7-.6 1.6-.9 2.7-1.1 2.9-1.9 5.9-2.6 9-.6 3-.7 6.2-.2 9.2.4 2.3 1 3.7.9 3.7zM180.3 275.3c0-.3.1-.7.2-1 .2-.9.5-1.8.8-2.7 2.1-5.8 5.6-11 10.4-14.9.7-.6 1.5-1.2 2.2-1.7.3-.2.6-.4.9-.5.1.1-1.1.9-2.9 2.5-4.6 4-8.1 9.1-10.3 14.8-.9 2.1-1.2 3.5-1.3 3.5zM184.1 240.2c0 .1-1.1.1-2.9.6-2.3.7-4.5 1.6-6.5 2.9-2 1.2-3.9 2.7-5.6 4.4-1.3 1.3-2 2.2-2 2.2s.1-.3.4-.7c.2-.3.4-.5.6-.8.3-.3.5-.6.8-1 1.7-1.8 3.6-3.3 5.6-4.5 2.1-1.3 4.3-2.2 6.7-2.8.4-.1.8-.2 1.2-.2.3-.1.6-.1.9-.1.2-.1.5-.1.8 0zM174.7 226.5c-2.9-.2-5.8 0-8.6.7-2.8.8-5.4 2-7.9 3.5.6-.6 1.3-1.2 2-1.6 1.8-1.1 3.7-1.9 5.7-2.4s4.1-.7 6.2-.6c1 0 1.8.1 2.6.4z"/><path class="st4" d="M229.5 292.7c.1.2.2.4.2.7.1.5.3 1.1.5 1.9l1.8 7.1c1.5 6.1 3.6 14.7 5.9 24.5l.1.4-.4-.1-10.5-3-30.6-8.7.2-.1-5.2 9-1.4 2.4-.4.6c0 .1-.1.1-.1.2 0 0 0-.1.1-.2l.3-.6 1.4-2.5c1.2-2.2 2.9-5.3 5.1-9.1l.1-.1h.1l30.6 8.6 10.4 3-.3.3c-2.3-9.8-4.3-18.4-5.7-24.5-.7-3-1.2-5.4-1.6-7.2l-.4-1.9c-.2-.3-.2-.5-.2-.7zM252 290.6c.1.2.2.4.2.6.1.5.3 1 .5 1.7.4 1.5 1 3.7 1.6 6.3 1.4 5.4 3.2 12.7 5.3 20.9 1 4.1 2 7.9 2.8 11.5.8 3.1 1.1 6.4.8 9.6-.3 2.2-1 4.3-2.3 6.1-.4.7-1 1.3-1.6 1.8.5-.6 1-1.2 1.5-1.9 1.2-1.8 1.9-3.9 2.1-6 .3-3.2 0-6.4-.9-9.5-.9-3.5-1.8-7.4-2.9-11.5-2-8.1-3.8-15.5-5.1-20.9l-1.5-6.3c-.1-.7-.3-1.3-.4-1.7-.1-.3-.1-.5-.1-.7z"/><path d="M259.5 349.4c6 .6 9.5-2.9 10.2-7.6.3-2.6-.5-5.2-1.3-7.6-3.7-10.8-7.4-21.7-13.3-31.5 2.2 9.8 5 19.2 7.2 29.1.7 2.7 1 5.5.9 8.4-.2 3.3-1.5 6.6-3.7 9.2" class="st8"/><path class="st4" d="M237.3 260.8c6.5 2 13.3-1.7 15.3-8.2.1-.4.2-.7.3-1.1 1.7 1.5 4 2.1 6.2 1.6s4.2-1.6 5.8-3.1c3.1-2.8 4.9-6.7 4.9-10.9-.1-4.2-2.7-7.9-6.6-9.5-3.9-1.4-8.7.4-10.3 4.2-.7-2.1 1.1-5 .7-7.2-.9-4.4-3.5-7.1-5.8-7.1"/><path class="st4" d="M242.1 259.7c4.4-7.7 5.7-17.9 6.8-26.8.5-4.2 1.5-10.1-1.4-12.7-3-2.8-3.3-7.1-6.8-9.2s-8.2-2.3-11.5.1"/><path class="st10" d="M219.3 274.9v-12s-12.6-2.3-13.3-12.3-.5-33.3-.5-33.3c10.9-5.8 24.2-4.9 34.3 2.2l-.5 35.4v11.5l-10.3 8.3-9.8 7.7.1-7.5z"/><path class="st4" d="M215.7 238.3c1.7-2.1 4.4-3 6.7-1.5 2.3 1.7 3.1 4.7 1.9 7.3-1 1.9-2.7 3.2-4.8 3.7 0 0 4.5 8.2 7.4 10.4 3.4 2.6 5 3.9 9.2 4.4s3.7.5 6.1-3c1.6-2.4 2.4-5.3 2.4-8.2.1-7.4.3-14.8.4-22.2.2-2.7 0-5.4-.5-8-.5-2.6-2-5-4.1-6.6-2.4-1.6-5.4-1.7-8.1-2.6-3.4-1.1-6.3-3.4-9.4-5.1s-7-2.6-10.2-1c-2.3 1.2-3.8 3.5-6 4.8-3.1 1.9-7.4 1.4-9 6.2-.5 1.7-.5 3.5.1 5.1 2.2 6.5 10 9.1 15.6 6.3.1 1.1-.9 3.6.2 7 .2 1.2.3 2.9 2.1 3"/><path class="st11" d="M217.4 244.6s0 .2.1.4c.3.3.7.5 1.1.6 1.4-.1 2.5-1.3 2.5-2.8.1-.8-.2-1.5-.7-2.1-.4-.5-.9-.8-1.5-.9-1-.2-1.6.2-1.5.2s.6 0 1.4.2c1.1.4 1.7 1.4 1.7 2.5s-.7 2.1-1.8 2.3c-.9.1-1.2-.5-1.3-.4z"/><path class="st9" d="M268.4 239.3c-.1.3-.2.6-.3 1-.3.8-.8 1.6-1.3 2.3-1.8 2.4-4.5 4.1-7.5 4.6-3 .4-6.1-.4-8.5-2.2-.7-.5-1.4-1.2-1.9-1.9-.2-.2-.4-.5-.5-.8.8.9 1.7 1.7 2.7 2.4 2.4 1.7 5.3 2.4 8.2 2 2.9-.5 5.4-2 7.2-4.3.7-1 1.4-2 1.9-3.1z"/><path class="st9" d="M267 237.7c-.1.3-.2.5-.3.8-.4.7-.8 1.3-1.4 1.9-1.7 1.9-4 3.3-6.5 3.9-2.5.6-5.2.3-7.5-.7-.7-.3-1.4-.7-2-1.1-.2-.1-.5-.3-.6-.5.1-.1 1 .7 2.8 1.4 2.3.9 4.8 1.1 7.2.5 2.4-.6 4.6-1.8 6.4-3.6 1.3-1.6 1.8-2.6 1.9-2.6zM250.2 250.6s-.1.1-.4.2c-.4.2-.9.3-1.3.4-1.7.1-3.4-.3-4.8-1.3-2-1.5-3.6-3.5-4.5-5.9-1.2-2.5-2.2-5.4-4.1-8-.9-1.2-2.1-2.2-3.4-2.9-1.3-.6-2.7-1-4.1-1.1-2.7-.3-5.2-.1-7.4-.4-1.7-.2-3.3-.7-4.8-1.5-.4-.2-.8-.5-1.1-.8-.1-.1-.2-.2-.3-.4 0 0 .5.4 1.5 1 1.5.7 3.1 1.2 4.7 1.3 2.1.2 4.6 0 7.4.3 1.5.1 2.9.5 4.3 1.1 1.4.7 2.7 1.8 3.6 3.1 2 2.6 2.9 5.6 4.1 8.1.9 2.3 2.4 4.3 4.3 5.8 1.3 1 2.9 1.5 4.6 1.4.5-.1 1.1-.2 1.7-.4z"/><path class="st9" d="M249.2 247c-.1 0-.3.1-.5 0-.4 0-.9-.1-1.3-.2-1.5-.5-2.9-1.4-3.9-2.6-.7-.8-1.4-1.7-1.9-2.7-.6-1-1.1-2.2-1.7-3.4-.6-1.2-1.3-2.4-2-3.5-.4-.6-.9-1.1-1.4-1.6l-.9-.6-.9-.6c-1.3-.7-2.7-1.1-4.1-1.2-1.4-.2-2.7-.2-4.1-.2-2.3.1-4.7 0-7-.2-1.6-.2-3.1-.6-4.5-1.4-.4-.2-.7-.5-1.1-.7l-.3-.3s.5.3 1.5.8c1.4.6 2.9 1 4.5 1.2 2.3.2 4.7.2 7 .1 1.4 0 2.8 0 4.1.2 1.5.2 3 .6 4.3 1.3.4.2.7.4 1 .6.3.2.6.4.9.7.6.5 1.1 1 1.5 1.6.8 1.1 1.5 2.3 2.1 3.6.6 1.2 1.1 2.3 1.6 3.4.5.9 1.1 1.8 1.8 2.7.9 1.2 2.2 2.2 3.7 2.7.5.1 1.1.2 1.6.3z"/><path class="st6" d="M251.7 252.1s-.2-.1-.6-.5c-.5-.5-.9-1-1.2-1.5-1.2-1.9-1.8-4-1.9-6.2-.1-2.2.4-4.4 1.5-6.3.3-.6.7-1.1 1.1-1.6.3-.4.5-.5.5-.5s-.6.8-1.3 2.3c-1.8 3.9-1.7 8.4.5 12.1.7 1.4 1.4 2.2 1.4 2.2z"/></g><g id="Plant--inject-2"><path class="st6" d="M390.8 390.6c6.9 2.4 15.9.2 21.8-4.1s10.2-10.5 13.9-16.7c1.6-2.7 3.2-5.5 3.7-8.5s-.2-6.5-2.6-8.5c-3.7-3.1-9.4-1.5-13.6.9-13.4 7.6-22 21.4-23.2 36.9M398.2 407.1c4.1 5.5 11.3 7.9 18.1 8.2s13.6-1.6 20-4c2.3-.9 4.9-2.1 5.7-4.5.5-1.8.1-3.8-1.2-5.3-1.3-1.4-2.8-2.5-4.6-3.1-6.4-2.6-13.5-2.9-20.2-1.1-6.6 1.7-12.4 5.6-17.8 9.8M390.7 361c5.7.1 10-4.9 12.6-10 3.6-7.1 4.8-15.2 3.4-23.1-.5-2.9-1.6-6.1-4.2-7.5s-6.1-.5-8.3 1.5c-2.2 2-3.5 4.9-4.3 7.8-3.2 10-2.5 21.4.8 31.3M371.9 392.6c9.7-16.6 11.4-36.9 5.6-55.2-.9-3-2.7-6.4-5.8-6.6-3.4-.2-5.6 3.6-6.5 6.9-3.3 11.6-2.6 24-1.9 36.1.5 7.5 3 13.9 8.6 18.8M361.8 399.4c-3.7-11.5-12.4-20.7-23.6-25.1-2.6-1-5.9-1.5-7.8.5s-1.3 5.2-.1 7.6c2 3.9 5.1 7.1 8.3 10.1 2.9 2.8 5.9 5.5 9.5 7.1 3.7 1.6 10.4 2 13.7-.2"/><path class="st4" d="M422.2 356.8s0 .1-.2.1l-.5.4-2 1.5-1.5 1.2c-.5.4-1.1.9-1.7 1.4-1.2 1-2.6 2.1-4.1 3.5l-2.3 2.1c-.8.7-1.6 1.5-2.4 2.4-1.7 1.6-3.3 3.5-5 5.4-7.4 8.6-13.4 18.3-17.8 28.8-1 2.4-1.9 4.7-2.6 6.9-.4 1.1-.8 2.2-1.1 3.2s-.6 2-.8 3c-.6 1.9-.9 3.6-1.3 5.2-.2.8-.4 1.5-.5 2.1s-.2 1.3-.3 1.8c-.2 1.1-.3 1.9-.5 2.5-.1.3-.1.5-.1.7l-.1.2v-.2c0-.2 0-.4.1-.7.1-.6.2-1.5.4-2.5.1-.5.2-1.2.3-1.8.1-.7.3-1.4.4-2.1.3-1.5.7-3.3 1.2-5.2.3-1 .5-2 .8-3 .3-1 .7-2.1 1-3.2.7-2.2 1.6-4.5 2.6-7 4.3-10.5 10.4-20.3 17.9-28.9 1.8-1.9 3.4-3.8 5.1-5.4l2.4-2.4 2.3-2.1c1.5-1.4 2.9-2.4 4.1-3.4.6-.5 1.2-1 1.7-1.4l1.5-1.1c.9-.6 1.6-1.1 2.1-1.5l.6-.4c.2 0 .3-.1.3-.1z"/><path class="st4" d="M435.1 402.8c-.2 0-.5-.1-.7-.1-.4-.1-1.1-.2-1.9-.4-2.3-.4-4.7-.7-7-.9-15.9-1-31.3 5.4-41.8 17.4-1.6 1.8-3 3.6-4.3 5.6-.5.7-.8 1.2-1.1 1.6-.1.2-.2.4-.4.6l.3-.6c.2-.4.5-1 1-1.7 1.3-2 2.7-3.9 4.3-5.7 10.4-12.2 26-18.6 42-17.5 2.4.2 4.7.5 7.1 1 .8.2 1.5.4 1.9.5.1 0 .4.1.6.2zM399.1 327.1v.3c0 .2-.1.4-.2.7-.1.7-.4 1.6-.6 2.9-.6 2.5-1.4 6-2.5 10.5-2.1 8.8-5.3 21-8.5 34.4-1.6 6.7-3.1 13.2-4.3 19-1.3 5.8-2.3 11.2-3.1 15.6-.4 2.2-.7 4.2-1 6s-.5 3.3-.7 4.6l-.5 2.9-.1.7-.1.3v-.3c0-.2 0-.5.1-.8.1-.7.2-1.7.4-2.9s.4-2.8.6-4.6c.3-1.8.6-3.8 1-6 .7-4.5 1.8-9.8 3-15.7s2.7-12.3 4.3-19c3.2-13.5 6.4-25.6 8.7-34.4 1.1-4.4 2-7.9 2.6-10.4.3-1.2.5-2.1.7-2.8.1-.3.2-.5.2-.7v-.3zM376.8 423.7c0-.1-.1-.1-.1-.2 0-.2-.1-.4-.1-.6l-.5-2.3c-.4-2-1-4.9-1.6-8.5-1.2-7.2-2.7-17.2-3.6-28.4-.4-5.6-.7-10.9-.8-15.7s0-9.2.1-12.9c0-1.8.2-3.5.2-4.9.1-1.4.2-2.7.3-3.7.1-1 .2-1.8.2-2.3 0-.2 0-.5.1-.6v-.2.8c0 .6-.1 1.4-.1 2.4-.1 1-.1 2.3-.2 3.7s-.2 3.1-.2 4.9c-.1 3.7-.1 8 0 12.8s.4 10.1.8 15.7c.9 11.1 2.3 21.1 3.5 28.4.6 3.6 1.1 6.5 1.4 8.5.2 1 .3 1.8.4 2.3 0 .2.1.4.1.6 0 0 .1.1.1.2z"/><path class="st4" d="m377.5 425.8-.3-.6c-.2-.4-.4-1-.6-1.7l-.5-1.2-.6-1.4-.7-1.6c-.3-.6-.6-1.1-.9-1.8l-1-1.9-1.2-2c-.8-1.4-1.8-2.9-2.8-4.4-2.3-3.3-4.7-6.4-7.3-9.4-2.7-2.9-5.5-5.8-8.4-8.4-1.4-1.2-2.7-2.4-4-3.4l-1.9-1.5-1.7-1.3c-1.1-.8-2.1-1.5-3-2.1s-1.7-1.1-2.4-1.5l-1.5-1c-.2-.1-.4-.2-.5-.4l.6.3 1.6.9c.7.4 1.5.9 2.4 1.5.9.6 2 1.3 3.1 2.1l1.8 1.3 1.9 1.5c1.3 1 2.6 2.2 4 3.3 3 2.7 5.8 5.5 8.5 8.4 2.6 3 5.1 6.1 7.3 9.4 1 1.6 2 3 2.8 4.4l1.2 2.1c.3.7.7 1.3 1 2 .3.7.6 1.2.9 1.8s.5 1.1.7 1.6c.2.5.4 1 .6 1.4l.4 1.2.6 1.7c-.2.3-.2.5-.1.7zM418.6 376.1c0 .1-1.2.1-3.1.2-4.9.3-9.8 1.2-14.5 2.8-1.8.6-2.9 1-2.9 1 .2-.2.5-.3.7-.4.5-.2 1.2-.5 2.1-.9 2.3-.9 4.7-1.5 7.2-2 2.4-.5 4.9-.7 7.4-.8h2.3c.2 0 .5 0 .8.1zM425.9 411.9c-2-4.5-5.4-8.2-9.7-10.5.7.2 1.4.5 2 .9 3 1.8 5.5 4.4 7 7.6.3.6.6 1.3.7 2zM400.9 340.6c.1.1-1.7 1.9-3.7 4.3s-3.3 4.5-3.5 4.4c1.8-3.4 4.2-6.4 7.2-8.7zM395 330.4c.5 1.2.7 2.5.9 3.9.3 1.3.4 2.6.4 3.9-.5-1.2-.7-2.5-.9-3.9-.3-1.3-.4-2.6-.4-3.9zM376.8 362.3c-.8 2.1-1.8 4.1-2.8 6-1 2-2 3.9-3.3 5.8.8-2.1 1.8-4.1 2.9-6 .9-2 2-4 3.2-5.8zM365.9 351.5c.9 1.4 1.7 2.8 2.4 4.3.8 1.5 1.5 3 2 4.5-.9-1.4-1.8-2.8-2.4-4.3-.8-1.5-1.5-3-2-4.5z"/><path class="st4" d="M350 388.5c0 .1-2-.2-4.4-.4s-4.4-.1-4.4-.2c3-.6 6-.4 8.8.6zM360.9 421.2l5.4 28.5c.4 1.9 2 3.2 3.9 3.2h16c2 0 3.6-1.4 3.9-3.3l4.7-28.4h-33.9z"/><path class="st9" d="M362.6 430.5h30.7l1.6-9.3h-34z"/><path class="st12" d="m362.6 430.5.7 3.3h29.5l.5-3.3z"/></g></svg>