<svg version="1.1" id="Layer_1" xmlns="http://www.w3.org/2000/svg" x="0" y="0" viewBox="0 0 461 423.4" style="enable-background:new 0 0 461 423.4" xml:space="preserve"><style>.st0{fill:#e0e0e0}.st1{fill:#f5f5f5}.st2{fill:#fff}.st4{fill:#263238}.st5{fill:#936754}.st6{fill:#7c5142}.st7{fill:#0061f2}.st8{opacity:.6}.st9{opacity:.3}.st10{fill:#455a64}.st11{fill:#fafafa}.st12{fill:#eb996e}.st13{fill:#d1734a}.st14{fill:#ffbe9d}.st15{opacity:.2}.st16{fill:#b78876}</style><g id="freepik--background-complete--inject-2"><path class="st0" d="M326 11h70.3v101.9H326z"/><path class="st1" d="M322.5 11h70.3v101.9h-70.3z"/><path class="st2" d="M331.2 22.1H384v79.8h-52.8z"/><path class="st0" d="M384.1 101.9V79.6c0-14.1 0-34-.1-57.5l.2.2h-52.9l.2-.2v79.8l-.1-.1 38.5.1h14.2l-.9-.1H369.8l-38.5.1h-.2V21.8h53.2v.2c0 23.5-.1 43.5-.1 57.6v21.9c0 .2-.1.4-.1.4z"/><path class="st0" d="m393 11-1.2 1.8c-.8 1.1-2 2.6-3.3 4.2-1.3 1.6-2.6 3-3.5 4-.5.6-1 1.1-1.5 1.6.4-.6.8-1.2 1.3-1.8l3.4-4.1 3.4-4.1c.4-.5.9-1.1 1.4-1.6z"/><path class="st2" d="M384.3 101.6c2.6 4.2 5.7 8 9.2 11.5"/><path class="st0" d="M393.6 113.2c-.6-.4-1.1-.9-1.6-1.5-1.2-1.2-2.4-2.6-3.5-3.9-1.1-1.4-2.1-2.8-3.1-4.3-.4-.6-.8-1.2-1.1-1.9.5.5.9 1.1 1.3 1.7.8 1.1 1.9 2.6 3.1 4.2s2.5 3 3.4 4c.6.5 1 1.1 1.5 1.7z"/><path class="st2" d="m322.5 112.8 9.2-11.4"/><path class="st0" d="M331.7 101.5c-1.4 2-2.9 3.9-4.5 5.8-1.5 1.9-3.1 3.8-4.8 5.6 1.4-2 2.9-3.9 4.5-5.8 1.5-2 3.1-3.8 4.8-5.6zM322.5 11c1.6 1.7 3.1 3.5 4.5 5.3 1.5 1.8 2.9 3.6 4.2 5.6-1.6-1.7-3.1-3.5-4.5-5.3-1.5-1.8-2.9-3.6-4.2-5.6zM349.9 38.3h17.7v50.2h-17.7zM216 0v66.2h-95.1L117.5.5z"/><path class="st2" d="M117.5.5h95.1v65.6h-95.1z"/><path class="st0" d="M213.1 66.5h-96V0h96v66.5zm-95.1-.9h94.2V.9H118v64.7z"/><path class="st2" d="M127.8 8.6h74.5v49.3h-74.5z"/><path class="st0" d="M202.3 8.6h-20.9l-53.6.1.2-.2v49.3l-.2-.2h74.5l-.2.2c0-15 .1-27.3.1-35.9V8.5v13.4c0 8.6.1 20.9.1 36v.4h-.2l-74.5.1h-.1V8.4h.2l53.8.1 15.3.1h5.5z"/><path class="st0" d="M117.5.3c.6.3 1.1.6 1.6 1.1 1 .7 2.3 1.7 3.7 2.8s2.7 2.2 3.6 3c.5.4 1 .9 1.4 1.4-.1.1-2.4-1.8-5.2-4.1-1.8-1.3-3.5-2.7-5.1-4.2zM212.6.5c-1.6 1.5-3.2 3-5 4.3-1.7 1.4-3.4 2.7-5.3 3.9 1.6-1.5 3.2-3 5-4.3 1.6-1.5 3.4-2.8 5.3-3.9z"/><path class="st2" d="M212.6 66.1 202 57.5"/><path class="st0" d="M201.9 57.5c1.9 1.2 3.7 2.6 5.4 4.1 1.8 1.4 3.5 2.9 5.2 4.5-1.9-1.2-3.7-2.6-5.4-4.1-1.8-1.4-3.6-2.9-5.2-4.5zM117.5 66.1c1.6-1.5 3.2-2.9 4.9-4.2 1.7-1.4 3.4-2.7 5.2-3.8-1.6 1.5-3.2 2.9-5 4.2-1.5 1.3-3.3 2.6-5.1 3.8zM142.9 24h46.9v16.5h-46.9z"/><path class="st1" d="M39.1 386.6c.9-3.7-1.5-7.4-4.2-10.1s-6-5.1-7.4-8.6c-2.3-5.7.7-13.2-3.2-18-2.3-2.8-6.5-3.7-8.5-6.7-1-1.7-1.6-3.5-1.9-5.4-2.2-9.5-7-18.3-13.8-25.4-.4 8.5 1.5 17 5.5 24.5 1.6 3 3.6 5.9 4.1 9.3.9 5.5-2.1 11.1-.8 16.5 1.6 6.1 8.5 10.2 8.9 16.5.3 5.3-4.3 10.1-3.9 15.4.3 2.3 1.1 4.4 2.4 6.3 4.2 6.8 10.3 11.5 19.5 11.3l11.3.3-8-25.9z"/><path class="st0" d="M49.2 412.9c1 .1 2.1.1 3.1-.1 1.2-.2 2.5-.5 3.7-.9 1.6-.6 3.2-1.4 4.5-2.5.8-.7 1.4-1.5 1.8-2.5.3-1.1.5-2.2.5-3.4 0-1.2.1-2.4.2-3.6.2-1.3.7-2.5 1.4-3.6 1.3-2.3 3.5-4.6 4.2-7.7s.2-6.5-.4-9.9-1.1-7.1.2-10.6 3.7-6.7 4.9-10.7.6-8.3.8-12.6c.1-2.2.6-4.3 1.4-6.3.9-2 2.2-3.9 3.1-6 2-4.3 2.3-9.1 2.8-13.8.3-2.4.5-4.8.8-7.2.1-2.4.6-4.9 1.2-7.2.7-2.4 1.6-4.7 2.7-7 .5-1.2 1-2.4 1.3-3.6.2-1.3.3-2.6.3-3.9.1-2.6 0-5.2-.3-7.8-.3-2.6-.8-5.2-1.1-7.8v-.5l-.1-.5-.5.2c-2.4 1.2-4.4 3-6 5.1-1.6 2.1-2.8 4.4-3.7 6.9-1.9 4.9-2.5 9.9-3.4 14.8s-2.1 9.6-4.6 13.7c-1.2 2-2.7 3.9-4 5.8-1.4 1.9-2.3 4.1-2.8 6.4-.6 4.8 2 8.9 1.5 13.2-.2 2.1-.9 4.1-2 5.9-1 1.8-2.2 3.5-3.3 5.2-1.2 1.6-2.2 3.4-3 5.2-.8 1.8-1.2 3.7-1.3 5.7-.3 3.8.3 7.4 0 10.8-.3 3.2-1.2 6.4-2.7 9.3-1.4 2.8-2.9 5.3-4.2 7.8-.6 1.2-1.2 2.4-1.7 3.6-.5 1.2-.8 2.3-1 3.6-.3 2.1-.3 4.3 0 6.4.3 3 1.4 5.8 3.3 8.2.3.4.6.7.9 1 .2.2.5.4.8.6.5.3.7.4.7.3-.8-.6-1.5-1.3-2.2-2.1-1.8-2.4-2.8-5.2-3.1-8.1-.3-2.1-.2-4.2.1-6.3.2-1.2.5-2.4 1-3.5.5-1.2 1.1-2.4 1.7-3.5 1.3-2.4 2.8-4.9 4.2-7.7 1.5-2.9 2.5-6.2 2.8-9.5.3-3.5-.3-7.1 0-10.8.1-1.9.6-3.7 1.3-5.5.8-1.8 1.8-3.5 3-5.1 1.1-1.7 2.3-3.4 3.4-5.2 1.1-1.9 1.9-3.9 2.1-6.1.5-4.5-2.1-8.7-1.5-13.1.4-2.2 1.3-4.3 2.6-6.2 1.3-1.9 2.8-3.8 4-5.8 2.5-4.2 3.8-9 4.7-13.9s1.6-9.9 3.4-14.6c.9-2.4 2.1-4.7 3.6-6.7 1.5-2.1 3.5-3.8 5.8-4.9l-.5-.3v.5c.3 2.6.8 5.2 1.1 7.8.3 2.5.4 5.1.3 7.7 0 1.3-.1 2.5-.3 3.8-.3 1.2-.7 2.4-1.2 3.5-1 2.3-1.9 4.7-2.7 7.1-.7 2.4-1.1 4.9-1.2 7.3-.2 2.4-.5 4.8-.8 7.2-.5 4.7-.8 9.5-2.7 13.6-.9 2-2.2 3.9-3.1 6-.9 2.1-1.4 4.3-1.5 6.5-.2 4.4.4 8.6-.8 12.5s-3.6 7-4.8 10.7-.7 7.5-.2 10.9 1.1 6.7.4 9.7-2.8 5.2-4.1 7.6c-.7 1.2-1.2 2.4-1.4 3.8-.1 1.2-.2 2.5-.2 3.7 0 1.1-.2 2.2-.5 3.3-.4.9-1 1.7-1.7 2.4-1.3 1.1-2.8 1.9-4.4 2.5-1.2.5-2.4.8-3.6 1-.8.1-1.5.2-2.3.2-.4-.4-.7-.4-.7-.4z"/><path class="st0" d="M84.1 280c-.1.1-.1.2-.1.3-.1.3-.1.6-.2 1-.2.9-.5 2.2-.9 3.9s-1.4 3.6-2.3 5.9-1.8 5-2.6 8-1.6 6.4-2.4 9.9-1.6 7.4-3.6 11c-.9 1.8-1.9 3.7-2.8 5.7-.8 2.1-1.3 4.3-1.6 6.5-.5 4.6-1.3 9.1-2.3 13.6-2.2 9.2-4.3 18.1-6.2 26.1l-5.2 21.3c-1.4 6-2.6 10.9-3.4 14.4-.4 1.7-.7 3-.9 3.9l-.2 1v.4s.1-.1.1-.3.2-.6.3-1c.3-.9.6-2.2 1-3.9.9-3.4 2.1-8.3 3.7-14.3s3.3-13.2 5.4-21.2 4.1-16.8 6.3-26.1c1-4.5 1.8-9.1 2.3-13.7.2-2.2.8-4.3 1.5-6.3.8-2 1.8-3.8 2.7-5.7 2-3.7 2.8-7.6 3.5-11.2s1.5-6.9 2.3-9.9 1.7-5.7 2.5-8 1.8-4.2 2.2-6 .6-3 .8-4c.1-.4.1-.8.2-1-.1-.1-.1-.2-.1-.3z"/><path class="st0" d="M51.2 413c7.4-4.4 9.4-17.7 6.3-25.7s-8.5-15.2-9.4-23.8c-.7-6.5 1.4-13.3-.1-19.7-2.1-8.6-10.6-15.3-10.5-24.2 0-5 2.8-9.7 2.6-14.7-.3-6.1-5-10.9-8-16.3-4.4-8.2-4.8-18-6.4-27.2s-5.1-19.1-13.3-23.6c-1.2 7.9-3.2 13.2-2.5 23.9.2 3.8 4.7 11.1 5.4 19.4.4 5 .7 10 1 15 .3 5 .7 9.8 2.4 14.4 1.4 3.5 3.5 6.6 4.5 10.2 1.9 6.8-.5 14.1 1 21 1.3 5.8 5.4 10.8 6.2 16.7 1.2 8.3-4.1 16.9-1.3 24.8 1.4 3.9 4.6 7 5.6 11.1.7 3.1 0 6.5.6 9.6 1.1 5.1 10.8 9 16 8.6"/><path d="M14.3 245.7v.4c0 .3.1.8.2 1.3.2 1.1.4 2.8.8 4.9s1.6 4.6 2.5 7.5 1.9 6.3 2.8 10.1 1.6 8 2.3 12.5 1.6 9.4 3.9 14.1c1 2.4 2.2 4.7 3.1 7.2.9 2.6 1.4 5.2 1.6 8 .4 5.7 1.2 11.5 2.2 17.1 2.3 11.6 4.5 22.7 6.5 32.7 2 10.1 4 19 5.6 26.6s2.9 13.7 3.8 18c.5 2.1.8 3.7 1.1 4.9.1.5.2.9.3 1.3 0 .1.1.3.1.4v-.4c-.1-.3-.1-.8-.2-1.3-.2-1.2-.6-2.8-1-4.9-.9-4.3-2.1-10.4-3.6-18s-3.4-16.6-5.5-26.7-4.2-21.1-6.5-32.7c-1.1-5.6-1.8-11.4-2.3-17.1-.2-2.8-.8-5.5-1.7-8.1-.9-2.6-2.1-4.9-3.1-7.2-2.2-4.6-3.1-9.4-3.9-13.9s-1.5-8.7-2.5-12.5c-.8-3.4-1.7-6.8-2.9-10.1-1-2.9-2.1-5.3-2.6-7.5s-.7-3.8-.9-4.9l-.2-1.3c.2-.1.2-.2.1-.4z" style="fill:#ebebeb"/><path class="st1" d="M396.4 400.1c-18.3-10.9-23.9-33.1-24.7-53.4-.1-3.4-.8-6.9.6-10s5-5.4 8.1-4.2c2.6 1 3.9 3.8 5.5 6.1 2.1 3.1 5.1 5.5 8.5 7 2.2 1 5 1.5 7 .1 2.8-1.8 2.9-5.9 2.6-9.2-.5-6.3-1-12.5-1.5-18.8-.3-3.4-.5-6.8.3-10.1s2.9-6.4 6-7.5 7.2.4 8.1 3.7c.2 1.4.4 2.8.4 4.2.2 1.4 1 2.9 2.3 3.2s2.6-.8 3.6-1.8c3.2-3.6 5.2-8.2 7.1-12.7s3.7-9.1 6.6-13.1 7-7.2 11.8-7.8 10.1 2 11.7 6.6-.8 9.7-3.6 13.7c-4 6-8.9 11.4-14.5 16.1-1.1.7-1.9 1.8-2.4 3-.6 2.3 1.7 4.4 4 4.9 2.6.6 5.3.2 7.9.3s5.6 1.1 6.7 3.5c1.6 3.3-1 7.1-3.6 9.7-5.3 5.1-11.5 9.3-18.2 12.4-2.4 1.1-5 2.1-6.8 4s-2.9 5-1.5 7.3 4.5 2.8 7.1 2.1 4.8-2.2 7.2-3.4c4.5-2.1 10.5-2.2 13.7 1.6 2.1 2.5 2.6 6.1 1.8 9.3-.9 3.2-2.4 6.1-4.5 8.7a66.12 66.12 0 0 1-26.2 21.5c-10.3 4.5-20.1 6.2-31.1 3"/><path class="st0" d="M399.7 401.1c.1-8.1-1.3-3.6 1-14 2.5-11.3 5.7-22.4 9.6-33.3 1-2.9 2-5.8 3-8.6s1.9-5.6 3.1-8.3c2.2-5.1 4.6-10.1 7.3-15 2.5-4.7 5.1-9 7.6-13s4.8-7.8 7.1-11c3.6-5.2 7.6-10.1 12-14.7 1.5-1.6 2.8-2.8 3.6-3.7l1-.9c.1-.1.2-.2.4-.3-.1.1-.2.2-.3.4l-.9 1c-.8.9-2 2.1-3.6 3.7-4.3 4.6-8.3 9.6-11.8 14.8-2.3 3.3-4.6 7-7.1 11.1s-5 8.4-7.5 13.1c-2.7 4.9-5.1 9.9-7.2 15-1.1 2.7-2.1 5.4-3 8.3s-2 5.7-3 8.6c-3.8 10.9-7 22-9.6 33.3-2.3 10.4-.9 5.9-1.1 13.9"/><path class="st0" d="M416.5 336.8c-.2-.5-.3-.9-.4-1.4-.2-.9-.6-2.2-.9-3.9-.7-3.3-1.6-7.9-2.5-13s-1.8-9.7-2.6-13c-.4-1.6-.7-3-.9-3.9-.2-.5-.3-1-.3-1.5.2.4.4.9.5 1.4.3.9.7 2.2 1.1 3.9.9 3.3 1.9 7.9 2.8 13s1.7 9.6 2.3 13c.3 1.6.5 2.9.7 4 .1.4.2.9.2 1.4z"/><path class="st0" d="M459.1 325.5c-.6.2-1.1.3-1.7.3-1.1.2-2.7.4-4.7.8-3.9.7-9.3 1.9-15.2 3.5s-11.2 3.2-14.9 4.5c-1.9.6-3.4 1.2-4.5 1.6-.5.2-1.1.4-1.7.5.5-.3 1-.6 1.6-.8 1-.5 2.5-1.1 4.4-1.8 3.8-1.4 9-3.1 14.9-4.7 5-1.4 10.2-2.5 15.3-3.3 2-.3 3.6-.5 4.7-.6h1.8zM401.2 386.2c-.1-.2-.2-.3-.3-.5-.2-.4-.5-.9-.9-1.5-.7-1.3-1.8-3.2-3-5.6-2.5-4.8-5.6-11.5-9-19s-6.5-14.2-8.9-19.1c-1.1-2.4-2.1-4.3-2.8-5.7l-.7-1.6c-.1-.2-.2-.4-.2-.6.1.2.2.3.3.5.2.4.5.9.9 1.5.7 1.3 1.8 3.2 3 5.6 2.5 4.8 5.6 11.5 9 19s6.5 14.2 8.9 19.1c1.2 2.4 2.1 4.3 2.8 5.7.3.6.5 1.1.8 1.6 0 .2 0 .4.1.6zM457.3 363.5c-.2.1-.4.2-.5.3l-1.6.7c-1.5.6-3.5 1.5-6 2.5-5.1 2.1-12 5-19.7 8.3s-14.7 6.1-19.8 8.1c-2.6 1-4.6 1.8-6.1 2.3l-1.7.6c-.2.1-.4.1-.6.2.2-.1.4-.2.5-.3l1.6-.7 6-2.5c5.1-2.1 12-5 19.8-8.3s14.7-6.1 19.8-8.1c2.6-1 4.6-1.8 6.1-2.3l1.7-.6c.1-.1.3-.2.5-.2z"/></g><path class="st4" d="M447.2 410.4c0 .1-98.2.3-219.3.3s-219.4-.2-219.4-.3 98.2-.3 219.4-.3 219.3.1 219.3.3z" id="freepik--Floor--inject-2"/><g id="freepik--character-4--inject-2"><path class="st4" d="M363.9 53.2c-7.2-3.1-15.5 1.3-18.7 6.2s-4.6 10.7-5.5 16.5c-1.9 11.9-2.2 24-.9 36 .4 3.5 1.1 7.4 3.8 9.7s6.3 2.4 9.6 1.8c3-.5 6-1.7 8-4 3-3.6 2.6-8.8 2.3-13.5-1.1-16.1.6-32.3 5-47.8"/><path class="st4" d="M348.3 59.8c3.3-6.5 13.3-10.1 21.4-7.9 6.8 1.8 14.1 8.8 14.6 16 .7 10.4-4.9 21.1-1.6 31 3.9 11.5 18.2 17.1 21.9 28.7 1.5 4.9 1 10.1-1.6 14.5-1.3 2.2-3.3 4.3-5.8 4.7-3.2.5-6.1-1.6-8.6-3.6-6.8-5.4-13.6-11-18.4-18.3-5.5-8.6-7.7-19-7.8-29.3s1.7-20.4 3.6-30.4"/><path class="st5" d="M376.8 72.4c1.1-8.4-4.9-16.2-13.4-17.2-.2 0-.3 0-.5-.1-8.2-.8-15.5 5.3-16.8 13.5-1.1 7.2-2 14.4-2 17 .1 7.9 4.7 11 6.6 11.9.7.2 1.4.4 2.1.5v.1l-1.8 9.1c-.8 5.9 2.5 11.2 8.5 12.1s10.6-3.7 11.5-9.6l5.8-37.3z"/><path class="st4" d="M348 72.6c-.1.7.3 1.3 1 1.4.7.1 1.3-.3 1.4-.9.1-.7-.3-1.3-1-1.4-.6-.2-1.2.2-1.4.9zM348 70.8c.1.2 1.2-.4 2.5-.2s2.2 1 2.4.9 0-.4-.4-.8c-.5-.5-1.2-.8-1.9-.9-.7-.1-1.4 0-2 .3-.4.4-.6.6-.6.7zM360.7 74.6c-.1.7.3 1.3 1 1.4.6.2 1.3-.2 1.4-.9.1-.7-.3-1.3-1-1.4-.6-.1-1.2.3-1.4.9zM361.2 73c.1.2 1.2-.4 2.5-.2s2.2 1 2.4.9 0-.4-.4-.8c-.5-.5-1.2-.8-1.9-.9-.7-.1-1.4 0-2 .3-.5.3-.7.6-.6.7zM354.9 82.2c-.7-.3-1.4-.6-2.1-.7-.3-.1-.6-.2-.7-.4 0-.4.2-.7.4-1 .4-.8.9-1.6 1.4-2.4 1.3-2.1 2.3-4.2 3.3-6.5-1.4 2-2.7 4-3.8 6.2-.5.9-.9 1.7-1.4 2.5-.3.4-.4.9-.4 1.4.1.3.2.5.5.6.2.1.4.1.6.2.7 0 1.4.1 2.2.1z"/><path class="st6" d="M353 98.2s5.1 1.2 12.1-1.8c0 0-3 6.5-12.6 4.2l.5-2.4zM355 85.5c.6-.6 1.5-.8 2.3-.6.6.1 1.1.5 1.4 1 .3.5.2 1.2-.1 1.6-.5.4-1.2.5-1.8.2-.6-.3-1.1-.8-1.6-1.3-.1-.1-.2-.3-.3-.4-.2-.2-.1-.4.1-.5"/><path class="st4" d="M358.7 83.7c-.2 0-.4 1.4-1.8 2.3s-2.9.5-3 .7.3.3 1 .4c.9.1 1.7 0 2.5-.5.7-.4 1.2-1.1 1.4-1.9.1-.6 0-1-.1-1zM360.9 70.5c.1.4 1.4.4 3 .8s2.8 1 3 .7c.1-.1 0-.5-.5-.9-.6-.5-1.4-.9-2.1-1.1-.8-.2-1.6-.2-2.4-.1-.7.3-1 .5-1 .6zM348.9 68.2c.2.3 1.2.2 2.3.3s2 .5 2.3.2 0-.5-.4-.8c-.5-.4-1.1-.7-1.8-.8-.7-.1-1.3 0-1.9.3-.4.3-.5.6-.5.8z"/><path class="st4" d="M352.4 56.2c1 6.1 5.4 11.2 11.3 13l-.5-2.2c2.6 5.1 7.1 9.1 12.5 11.1 4.4-7.5 1.9-17.2-5.6-21.7-5.6-3.3-12.5-2.8-17.7 1.1M403.6 133.7c.6-.7 1.1-1.6 1.5-2.4 1.1-2.4 1.3-5 .8-7.6-.4-1.8-1-3.5-1.9-5-1.1-1.8-2.3-3.4-3.8-4.9-3-3.2-7-6-10.6-9.6-1.8-1.7-3.3-3.8-4.4-6-1-2.1-1.6-4.4-1.9-6.7-.4-3.9-.4-7.8 0-11.7.2-3.3.5-6 .7-7.8.1-.9.1-1.6.2-2.1 0-.2.1-.5.1-.7v.8c0 .5-.1 1.2-.1 2.1-.1 1.9-.3 4.6-.5 7.8-.3 3.9-.3 7.7.2 11.6.3 2.3.9 4.4 1.9 6.5 1.1 2.2 2.5 4.2 4.3 5.9 3.6 3.6 7.5 6.4 10.5 9.6 1.5 1.5 2.7 3.2 3.8 5 .9 1.6 1.6 3.3 1.9 5.1.5 2.6.2 5.3-1 7.7-.3.6-.7 1.2-1.2 1.8-.1.3-.3.5-.5.6z"/><path class="st7" d="m411.3 379.2 4.7 23.2 9 17.3c.6 1.2.2 2.7-1 3.3-.1 0-.1.1-.2.1-.7.3-1.5.3-2.2-.1-4.3-2.6-20.1-12.1-20.3-13.9-.3-2-6.6-24.2-6.6-24.2l16.6-5.7z"/><g class="st8"><path class="st2" d="M423.9 423.1 401 407.6l.2 1c.2.8.7 1.6 1.4 2.1 1.9 1.4 7.1 5.1 19 12.4.7.4 1.5.4 2.3 0z"/></g><g class="st8"><path class="st2" d="M404 399c.7.3 1 1.1.8 1.8-.3.7-1 1.1-1.8.8-.7-.3-1.1-1.1-.9-1.9.4-.7 1.2-1 1.9-.7"/></g><path class="st4" d="M416.3 414.2c.4-.8.9-1.6 1.6-2.3.8-.5 1.6-.9 2.5-1.1 0-.1-.3-.2-.9-.1-1.5.2-2.8 1.2-3.2 2.6-.1.6-.1.9 0 .9zM418.6 417c.1.1.7-.9 1.8-1.5.7-.3 1.5-.6 2.2-.8-.8-.3-1.7-.1-2.5.4-1.2.7-1.6 1.8-1.5 1.9zM412.3 411c.8-.9 1.7-1.7 2.7-2.5 1-.6 2.1-1.1 3.2-1.6-2.6.1-4.9 1.7-5.9 4.1zM410.3 404c.1.1 1.2-.7 2.9-1.1s3-.3 3.1-.5c-2.2-.6-4.5 0-6 1.6zM408.7 397.2c.9-.5 1.9-1 3-1.3 1.1-.1 2.2-.1 3.2.1 0-.1-.3-.3-.9-.5-1.6-.5-3.4-.1-4.7.9-.4.5-.6.8-.6.8zM411.4 394.7c0-.3 0-.6-.2-.9-.3-.8-.7-1.5-1.2-2.1-.4-.5-.9-.8-1.5-1-.4-.1-.8.1-1 .5-.2.3-.2.8-.1 1.1.5 1.6 2 2.6 3.6 2.4 1.6-.2 2.9-1.3 3.4-2.9.1-.4 0-.8-.2-1.1-.3-.3-.7-.4-1.1-.3-.5.3-1 .6-1.3 1.1-.5.6-.9 1.4-1.2 2.2-.1.3-.2.6-.2.9.4-1 1-2 1.6-2.8.3-.4.7-.8 1.2-1 .2-.1.5 0 .6.1.1.2.2.5.1.8-.4 1.3-1.6 2.3-3 2.5-1.4.1-2.7-.7-3.1-2-.1-.3-.1-.5 0-.8.1-.2.3-.3.6-.3.5.1.9.4 1.2.9.8.8 1.4 1.7 1.8 2.7z"/><path class="st7" d="m348.5 381.7 1.1 18.9s-18.8 7.5-19 11l36.7-.8-.5-29.5-18.3.4z"/><g class="st8"><path class="st2" d="M360.9 398.7c.7.2 1.2.9 1.1 1.7-.2.7-.9 1.2-1.7 1.1-.8-.2-1.3-1-1.1-1.8.3-.8 1.1-1.2 1.9-.9"/></g><g class="st8"><path class="st2" d="m367.3 410.7-.2-3-35.1 1.9s-1.6.8-1.4 1.9l36.7-.8z"/></g><path class="st4" d="M349 400.4c0 .2.9.2 1.8.8s1.4 1.3 1.5 1.2-.1-1.1-1.2-1.8-2.1-.4-2.1-.2zM345.2 402.1c0 .2.8.5 1.4 1.2s.8 1.5 1 1.5.3-1-.5-1.9-1.9-1-1.9-.8zM343.1 406.7c.2 0 .4-.9-.1-1.8s-1.3-1.3-1.4-1.2.5.7.8 1.5.5 1.5.7 1.5zM349.2 396.1c.1.2.9-.1 1.9-.1s1.8.4 1.9.2-.7-.8-1.9-.8-2 .5-1.9.7z"/><path d="m348.7 385.4.2 3.4 18-.6v-3z" class="st9"/><path class="st4" d="M349.1 392.2c.6.1 1.2.1 1.8 0 .7-.1 1.3-.3 1.9-.6.3-.2.7-.4 1-.6.2-.1.4-.3.5-.4.3-.3.3-.7.1-1-.2-.2-.5-.4-.8-.4-.2 0-.5 0-.7.1-.4.1-.8.2-1.1.4-.6.3-1.2.7-1.7 1.1-.8.8-1.1 1.5-1 1.4.1.1.5-.4 1.4-1.1.5-.4 1-.7 1.6-1 .3-.1.7-.3 1-.4.4-.1.7-.1.8 0s0 .1 0 .2c-.1.1-.3.2-.4.3-.3.2-.7.4-1 .6-.6.3-1.2.5-1.8.7-.5.3-1.1.5-1.6.7z"/><path class="st4" d="M349.3 392.5c.3-.5.5-1.2.4-1.8 0-.7-.1-1.4-.3-2-.1-.4-.3-.8-.5-1.1-.2-.5-.7-.8-1.2-.9-.3 0-.6.2-.8.5-.1.2-.2.4-.2.7-.1 1.1.2 2.2.9 3.1.7.9 1.5 1.1 1.5 1.1s-.6-.4-1.1-1.3c-.3-.5-.5-1.1-.6-1.7V388c0-.4.2-.7.3-.7s.5.3.7.6c.2.3.3.7.5 1 .2.6.3 1.2.4 1.8.1 1.1-.1 1.8 0 1.8z"/><path class="st4" d="M377 179.7s10.8 23.4 12.4 30.2c1.6 6.8 31.7 187.3 31.7 187.3l-27.7 1.7-37.6-176.5L371 397.7l-27.2 2.3s-20.6-185.2-19.7-190.4c1.3-7.9 8-30.6 8-30.6l44.9.7z"/><path class="st10" d="M355.7 221.3s0 .1-.2.3c-.3.2-.8.1-1.1-.1-.4-.4-.6-1-.6-1.6l-.4-2.1c-.5-3.2-1.2-7.6-1.9-12.5s-1.4-9.3-1.8-12.5c-.2-1.5-.4-2.8-.5-3.8-.1-.5-.1-.9-.1-1.4.1.4.3.9.3 1.4.2 1 .4 2.2.6 3.8.5 3.2 1.2 7.6 2 12.5s1.4 9.3 1.8 12.5c.1.8.2 1.5.3 2.2 0 .5.2 1 .5 1.5.2.2.6.3.9.2.1-.3.2-.4.2-.4zM352.9 191.1s0-.2.3-.3c.3-.2.7-.2 1.1-.2.6.1 1.1.6 1.2 1.2.1.7-.2 1.5-.9 1.8-.7.3-1.5.2-2-.3-.4-.4-.6-1-.5-1.6.2-1 .9-1.2.9-1.1-.3.3-.5.7-.5 1.2-.1.4.1.9.4 1.2.4.4 1 .4 1.5.2.5-.3.7-.8.6-1.3-.1-.4-.4-.8-.8-.9-.5-.1-.9 0-1.3.1z"/><path class="st5" d="m305.3 76.3-17-26.2-5.2-8.6s-1.5-8.6-2.3-11.1c-1.5-5-2-4.9-2.5-4.6-1.5.7 2.3 8.9.5 7.6s-3.5-10.5-5-9.7c-2 1.1 2.2 9.6 2.5 10.3s-.8 1.2-1 .5c-.3-1-4.1-11.2-6.1-10.2-1.1.6.1 2.4.1 2.4s4.2 9.3 3.3 9.8-3.6-4.9-4.4-6.8-2-2.2-2.5-1.2c-.4.7 1.9 6.5 2.7 8.4s3.1 6.9 0 5.3-6.1-1.6-7-1c-.5.4-.5 1.1-.1 1.6.2.3.5.4.9.4 1.2.2 2.3.5 3.4.9.9.3 1.7.8 2.4 1.4.9.7 1.5 1.4 2.1 1.9l4.2 8.8L293 92.8l38.9 32.2 9.8-17.7-36.4-31zM405.8 222.5c.2.8.5 1.7.8 2.8.2.9.3 1.9.2 2.8-.1 1.2-.3 2.3-.7 3.5-.5 1 .5 2 1.4 1.6s2.2-3.1 2.3-6.6 3.5.8 4.7 2.4 5.4 6.2 6.2 6.2c1.2 0 1.4-1.3 0-2.8s-4.9-6.4-4-7 7.2 7.4 7.2 7.4 1.1 1.9 2.1 1.2c1.8-1.3-5.5-9.3-6.3-10.1-.5-.5.4-1.2.9-.6s6.1 8.2 8 6.9c1.4-1-6-6.7-6.3-8.9s5.2 4.9 6.5 3.9c.5-.4.8-.7-2.9-4.3-1.8-1.8-8.8-7.1-8.8-7.1l-14.8-48.6-18.4.3 21.9 57z"/><path class="st7" d="M349 107.3c-3-1.1-5.9-2.5-8.8-3.9l-29.1-22.1-13 17.4s33.2 30 33.8 29.8 17.1-21.2 17.1-21.2z"/><path class="st7" d="m351.2 107.2-2.2.1c-6.4.2-11.9 4.4-13.9 10.4-2.2 6.7-2.1 8.9-3.6 13.9-3.7 11.9 2.9 26.4 2.9 26.4l-2.3 21 44.9.8 2.3-25.3 8.4-37.8s-1.9-8.1-9-8.8c-3.7-.4-27.5-.7-27.5-.7z"/><path class="st7" d="M380 108.5s10.6-.1 13.9 12.2 9.7 44.5 9.7 44.5l-20.2 6.1-10.8-44.3c-.8-2.5-1-5.1-.9-7.8.3-4.4 2-10.1 8.3-10.7zM348 107.8l3.6-6.8 6 3.4v3l1.9-3 14.1-3.4v8.4l-16.5 1.8z"/><path class="st4" d="M336.9 118.2c-.2.5-.5 1-.8 1.4-.3.4-.6 1-.9 1.7s-.7 1.4-1.1 2.3-.8 1.8-1.1 2.8-.7 2.2-1 3.3c-1.3 5.2-1.7 10.5-1 15.8.2 1.2.3 2.4.6 3.4.2 1 .4 2 .7 2.9.2.9.5 1.7.8 2.4.2.6.4 1.2.7 1.8.2.5.4 1 .5 1.5-.3-.5-.5-.9-.7-1.5-.3-.6-.5-1.2-.8-1.8-.2-.7-.6-1.5-.8-2.4-.3-1-.6-2-.8-3-.3-1.1-.4-2.2-.6-3.5-.3-2.7-.4-5.3-.3-8 .2-2.7.6-5.3 1.3-8 .4-1.2.7-2.3 1.1-3.3.3-1 .7-1.9 1.2-2.8.3-.8.7-1.5 1.1-2.2.3-.6.6-1.1 1-1.6l.9-1.2zM356.5 103.9c-.1.7-.3 1.4-.5 2.1l-1.6 4.8-.3.9-.1.3-.3-.2c-1.3-.8-2.5-1.7-3.6-2.8-.5-.4-.9-.9-1.2-1.4 1.6 1.3 3.3 2.6 5 3.7l-.4.1.3-.9c.7-1.9 1.3-3.6 1.8-4.8.2-.5.5-1.2.9-1.8zM368.1 110.2c-.7.4-1.4.7-2.1.9-1.3.5-3.2 1.2-5.3 1.9l-.3.1v-.6c-.3-2.2-.6-4.3-.8-5.7-.1-.8-.2-1.6-.2-2.4.3.8.4 1.5.5 2.4.3 1.4.6 3.5.9 5.7v.3l-.3-.2c2.1-.7 4-1.3 5.4-1.7.7-.5 1.5-.6 2.2-.7zM375.6 170.8c2 2.1 2.5 5.3 1.3 7.9.2-1.4.2-2.7 0-4.1-.3-1.3-.8-2.6-1.3-3.8z"/><path class="st11" d="M401.9 158.1c-.9.4-1.9.7-2.9.9-1.8.5-4.3 1-7.1 1.6s-5.3.9-7.2 1.1c-1 .2-2 .2-3 .2 1-.3 2-.5 3-.6 1.8-.3 4.4-.7 7.1-1.2 2.8-.5 5.3-1 7.1-1.4 1-.3 2-.5 3-.6zM399.6 145.9c-1 .5-2 .8-3 1.1-1.9.6-4.5 1.3-7.3 2s-5.5 1.4-7.4 1.8c-1 .3-2 .6-3.1.7 1-.5 2-.8 3-1.1 1.9-.6 4.5-1.3 7.3-2 2.9-.7 5.5-1.3 7.4-1.8 1-.3 2-.5 3.1-.7z"/><path class="st4" d="M383.4 171.3c-.2-.4-.3-.8-.4-1.2-.2-.9-.5-1.9-.8-3.2-.7-2.7-1.5-6.5-2.5-10.7-.9-4.2-1.8-8-2.3-10.7-.3-1.3-.5-2.4-.6-3.3-.1-.4-.2-.8-.2-1.2.2.4.3.8.4 1.2l.8 3.2c.7 2.7 1.5 6.5 2.5 10.7s1.8 8 2.3 10.7c.3 1.3.5 2.4.6 3.3.1.4.2.8.2 1.2z"/><path class="st11" d="M398.5 136.5c0 .1-15.1-.1-33.6-.6s-33.6-1-33.6-1.2 15.1.1 33.6.6 33.6 1 33.6 1.2zM393.3 119.3c-.2.1-.4.1-.6.1l-1.7.1c-1.5.1-3.6.3-6.2.4-5.2.3-12.4.6-20.4.9s-15.2.3-20.4.2c-2.6 0-4.7 0-6.2-.1l-1.7-.1c-.2 0-.4 0-.6-.1h.6l1.7-.1 6.2-.1c5.2-.1 12.4-.2 20.4-.4s15.1-.5 20.4-.7l6.2-.2h1.7c.2.2.4.1.6.1zM321.3 120.1c-.1-.1 3.3-4.2 7.7-9.2s8-9 8.1-8.9-3.3 4.2-7.7 9.2-8 9-8.1 8.9zM377.7 155.1c0 .1-10.3-.8-22.9-2-12.6-1.2-22.9-2.4-22.9-2.5 0-.2 10.3.8 22.9 2 12.7 1.2 22.9 2.4 22.9 2.5zM378.2 169c0 .1-10 0-22.3-.2s-22.2-.6-22.2-.8c0-.1 10 0 22.3.2 12.2.3 22.2.7 22.2.8z"/><path class="st4" d="M348 178.8V176c0-1.8.1-4.5.4-7.8.1-1.6.2-3.4.5-5.4s.5-4 .8-6.1c.5-4.3 1-9.1 1.5-14 .7-8.5 1.9-17 3.6-25.4.7-3.2 1.5-5.8 2-7.5.3-.8.5-1.5.7-2 .1-.2.2-.5.3-.7 0 .2-.1.5-.2.7-.2.5-.4 1.2-.6 2-.5 1.8-1.2 4.3-1.9 7.5-1.6 8.4-2.8 16.9-3.5 25.4-.5 5-1 9.7-1.5 14-.3 2.1-.6 4.2-.8 6.1s-.4 3.7-.5 5.3c-.3 3.3-.4 5.9-.5 7.8l-.1 2.1c-.1.3-.1.5-.2.8z"/><path class="st11" d="M364.3 134.6h10.9v2.8h-10.9z"/><path d="M376.9 143.2c-4.9 7.7-4.6 17.5.8 24.9.7-4.7 1.3-9.3 2-14" class="st9"/><path class="st4" d="M370.6 73.4c1.3 2.6.6 5.8-.3 8.6-.9 2.8-2.1 5.6-1.9 8.5.2 2.7 1.7 5.2 1.9 7.9.5 4.6-2.5 8.7-3.7 13.1-1.5 5.8-.1 12 3.9 16.5.4.5.9.8 1.5.9.7-.1 1.3-.7 1.4-1.4.1-.7.1-1.4 0-2.1-.5-6.5 5.7-11.8 6.6-18.3.6-4.2-1.1-8.4-1.4-12.7-.3-5.4 1.7-10.6 2.4-15.9.3-1.8.2-3.7-.3-5.4-.5-1.8-1.9-3.2-3.7-3.8-1.8-.5-3.8.4-4.5 2.2"/></g><g id="freepik--character-3--inject-2"><path class="st12" d="m249.5 113.4-21.2 13.4 15-41.1 4-8.1c.5-.7 1.2-1.5 2-2.3.7-.8 1.5-1.4 2.5-1.9 1.1-.6 2.3-1.1 3.6-1.4.7 0 1.1-.6 1.1-1.3 0-.4-.2-.7-.5-.9-1-.5-4.2-.1-7.4 2s-1.4-3.6-.7-5.7 2.3-8.6 1.8-9.3c-.7-1-2-.4-2.5 1.7s-2.8 8.3-3.9 7.9 2.3-11 2.3-11 1.1-2.2-.1-2.6c-2.2-.9-5 10.6-5.2 11.7-.2.8-1.4.4-1.1-.4s3.6-10.5 1.3-11.4c-1.8-.7-2.4 9.5-4.2 11.1s1.2-7.7-.5-8.3c-.6-.2-1.1-.3-2.1 5.3-.5 2.7-1 12.2-1 12.2l-4.9 9.7.1.1-20.2 42.6c-3.9 10.2 2.4 18.5 8.8 22.2 5.9 3.5 13.3 3.3 19-.5l24.5-16.3-10.5-17.4zM363.3 203.4c.5.8 1.1 1.6 1.7 2.7.5.9.9 1.9 1.1 3 .3 1.3.4 2.7.3 4-.2.7.2 1.3.9 1.5.4.1.8 0 1.1-.3.8-.8 1.4-4.1.4-7.9s4-.2 5.9 1.1 7.8 5 8.7 4.7c1.2-.4 1.1-1.8-.8-3s-7.3-5.4-6.6-6.3c.7-.9 10.1 5.7 10.1 5.7s1.8 1.7 2.6.7c1.6-1.9-8.9-8.3-9.9-8.9-.7-.4 0-1.5.8-1s9.2 6.9 10.8 4.9c1.2-1.5-8.6-5.3-9.6-7.6s7.2 3.7 8.3 2.2c.4-.6.7-1-4.5-3.8-2.5-1.3-11.7-4.9-11.7-4.9l-56.5-73L300 132l63.3 71.4z"/><path class="st10" d="m262.7 382 1.1 18.5s-18.5 7.3-18.6 10.8l36-.2-.5-29.5-18 .4z"/><g class="st8"><path class="st2" d="M274.8 398.7c.7.2 1.2.9 1.1 1.7-.2.7-.9 1.2-1.6 1.1-.8-.2-1.2-1-1.1-1.8.3-.7 1.1-1.1 1.8-.9"/></g><g class="st8"><path class="st2" d="M281.1 411.1v-3l-34.6 1.3s-1.6.7-1.4 1.9l36-.2z"/></g><path class="st4" d="M263.2 400.3c0 .2.9.2 1.8.8s1.4 1.3 1.5 1.2-.1-1.1-1.2-1.7-2.2-.5-2.1-.3zM259.4 402c0 .2.7.5 1.4 1.2s.8 1.5 1 1.5.3-1-.5-1.9-1.9-1-1.9-.8zM257.4 406.5c.2 0 .4-.9-.1-1.8s-1.3-1.3-1.4-1.2.5.6.8 1.4.5 1.6.7 1.6zM263.4 396.1c.1.2.9-.1 1.9 0s1.8.3 1.9.2-.7-.8-1.8-.8-2.1.4-2 .6zM263.2 392.3c.6.2 1.2.1 1.8 0 .6-.1 1.3-.3 1.9-.6.3-.2.7-.4 1-.6.2-.1.4-.3.5-.4.2-.3.3-.6.1-.9-.2-.2-.5-.4-.8-.4-.2 0-.5 0-.7.1-.4.1-.8.2-1.1.4-.6.3-1.2.7-1.6 1.1-.8.8-1.1 1.5-1 1.5s.5-.5 1.3-1.2c.5-.4 1-.7 1.6-1 .3-.1.7-.2 1-.3.4-.1.7-.1.8 0s0 .1 0 .2c-.1.1-.2.2-.4.3l-.9.6c-.6.3-1.1.5-1.7.7-.6.2-1.2.3-1.8.5z"/><path class="st4" d="M263.5 392.6c.3-.5.5-1.1.4-1.8 0-.7-.1-1.4-.3-2-.1-.4-.3-.7-.5-1.1-.2-.5-.7-.8-1.2-.9-.3 0-.6.2-.7.5-.1.2-.1.4-.2.7-.1.4-.1.8 0 1.2.1.7.4 1.3.8 1.9.7.9 1.5 1.1 1.5 1s-.6-.4-1.1-1.3c-.3-.5-.5-1.1-.6-1.7v-1c0-.4.2-.7.3-.7s.5.3.6.6c.2.3.3.7.5 1 .2.6.3 1.2.4 1.8.2 1.1 0 1.7.1 1.8z"/><path class="st10" d="m325 381.7 1.4 18.5s-18.3 7.6-18.4 11.1l36-1.4-2.9-28.8-16.1.6z"/><g class="st8"><path class="st2" d="M337.4 398.1c.7.2 1.2.9 1.1 1.6-.2.7-.9 1.2-1.6 1.1-.8-.2-1.3-1-1.1-1.7.2-.7 1-1.2 1.8-.9"/></g><g class="st8"><path class="st2" d="m343.9 409.8-.2-2.9-34.4 2.5s-1.6.8-1.3 1.9l35.9-1.5z"/></g><path class="st4" d="M325.8 400c0 .2.9.2 1.8.8s1.4 1.2 1.5 1.2-.1-1.1-1.2-1.7-2.2-.4-2.1-.3zM322.1 401.8c0 .2.7.4 1.4 1.1s.8 1.5 1 1.5.2-1-.5-1.9-1.9-.9-1.9-.7zM320.1 406.4c.2 0 .4-.9-.1-1.8s-1.3-1.3-1.4-1.1.5.6.9 1.4.4 1.4.6 1.5zM325.9 395.8c.1.2.9-.1 1.9-.1s1.8.3 1.9.2-.7-.8-1.9-.8-2 .5-1.9.7zM325.7 392c.6.1 1.2.1 1.8-.1.6-.1 1.3-.4 1.9-.6.3-.2.7-.4 1-.6.2-.1.4-.3.5-.5.2-.3.2-.7 0-.9-.2-.2-.5-.4-.8-.4-.2 0-.5 0-.7.1-.4.1-.8.3-1.1.4-.6.3-1.1.7-1.6 1.2-.8.8-1.1 1.5-1 1.5s.5-.5 1.3-1.2c.8-.6 1.6-1.1 2.6-1.3.4-.1.7-.1.8 0s0 .1 0 .2c-.1.1-.2.2-.4.3l-.9.6c-.5.3-1.1.5-1.7.7-.6.2-1.2.4-1.7.6z"/><path class="st4" d="M325.9 392.3c.3-.5.5-1.1.4-1.8 0-.7-.1-1.4-.3-2-.1-.4-.3-.7-.5-1.1-.2-.5-.7-.8-1.2-.9-.3 0-.6.2-.7.5-.1.2-.1.4-.2.7v1.2c.1.7.4 1.3.8 1.8.7.9 1.5 1.1 1.5 1s-.6-.4-1.1-1.3c-.3-.5-.5-1.1-.6-1.7-.1-.3-.1-.7 0-1 0-.4.2-.7.3-.7s.5.3.6.6c.2.3.4.7.5 1 .2.6.4 1.2.4 1.8.2 1.2 0 1.9.1 1.9z"/><path class="st12" d="m295.3 68.3-3.5 41-20.5-1.6c-.1-2.4 0-11.7 0-11.7s-8.5-1.3-8.6-9.9c-.1-4.2.5-12.7 1.2-20.4.7-8.6 8.1-15 16.7-14.5 8.7.5 15.3 8 14.8 16.7-.1.1-.1.2-.1.4z"/><path class="st13" d="M271.3 95.8c3.9.1 7.8-1 11.1-3.2 0 0-2.6 6.1-11.1 5.4v-2.2z"/><path class="st4" d="M265.9 72.7c.1.2 1.1-.5 2.4-.4s2.2.8 2.4.6-.1-.4-.5-.7c-1.1-.9-2.6-.9-3.8-.2-.4.3-.6.6-.5.7zM277.9 72.9c.2.2 1.1-.6 2.4-.6s2.3.6 2.4.4-.1-.4-.5-.7c-.6-.4-1.3-.6-2-.5-.7 0-1.3.3-1.9.7-.4.3-.5.6-.4.7zM273.8 80.8c-.7-.2-1.4-.4-2.1-.4-.3 0-.6-.1-.7-.3 0-.3 0-.7.2-1 .3-.8.7-1.7 1-2.6.9-2.2 1.7-4.4 2.2-6.7-1.1 2.1-2 4.3-2.8 6.5-.3.9-.6 1.7-1 2.6-.2.4-.3.9-.2 1.3.1.2.3.4.5.5.2.1.4.1.6.1.9.1 1.6.1 2.3 0zM277.7 81.7c-.2 0-.2 1.4-1.4 2.4s-2.7.9-2.7 1.1.3.3 1 .3c.8 0 1.6-.3 2.3-.8.6-.5 1-1.2 1.1-2-.1-.6-.2-1-.3-1zM278.2 66.8c.1.4 1.4.2 3 .4s2.8.6 3 .3c.1-.2-.1-.5-.6-.8-.7-.4-1.4-.7-2.2-.8-.8-.1-1.6 0-2.3.3-.6.2-.9.4-.9.6zM266.2 67.4c.3.3 1.3 0 2.5 0s2.3.2 2.5-.1c.1-.2-.1-.5-.5-.8-1.3-.8-2.9-.7-4.1.1-.4.3-.6.6-.4.8zM286.1 58.9c1.4 1.1 2.3 2.6 2.5 4.3v.2c.3 2.4.3 4.9.6 7.3.2 2.5 1.3 4.8 3 6.6.7.7 2 1.2 2.6.4.2-.3.3-.7.3-1.1.5-5.9 2.1-11.1 2-17.2 0-1.7-.8-3.2-2.1-4.2-1.3-.9-2.9-1.9-4.3-1.2s-3.3 3.4-4.4 4.5"/><path class="st12" d="M292.4 72.2c.1-.1 5.9-1.7 5.7 4.1s-6 4.4-6 4.3.3-8.4.3-8.4z"/><path class="st13" d="M294 78.3s.1.1.3.2c.2.1.5.1.8 0 .8-.5 1.3-1.3 1.2-2.2 0-.5-.1-1-.2-1.5-.1-.4-.4-.7-.7-.8-.2-.1-.5 0-.6.3-.1.2 0 .3-.1.3s-.1-.1-.1-.3c0-.1.1-.3.2-.4.2-.1.4-.2.6-.1.5.1.8.5 1 .9.2.5.3 1.1.3 1.6 0 1.1-.6 2-1.6 2.5-.3.1-.7 0-.9-.2-.2-.1-.3-.2-.2-.3z"/><path class="st4" d="M291 54.9c1.4-2.3-2.5-5.7-5.4-6.6s-6.7.5-9.5 1.4c-1.8.6-3.6 1.4-5.5 1.4-1.3-.1-2.5-.4-3.7-.9-1.2-.5-2.4-.8-3.7-.7-1.3 0-2.5.8-3.1 1.9-.5 1.1 0 2.4 1.2 2.9.1 0 .2.1.3.1-1.4-.8-3.1-.2-3.9 1.1-.8 1.4-.2 3.1 1.1 3.9.6.3 1.3.4 2 .3-.8-.6-2.1.4-2 1.4.2 1 1 1.9 2 2.2 2.4 1.1 5.3.7 7.8-.1s4.9-2.2 7.3-3.1 6.7-2.5 9.2-1.7c1.9.7 3.1 2.9 4.2 2.4 1-.5 1.7-1.5 1.9-2.6.1-1.1 0-2.2-.2-3.3"/><path class="st10" d="M260.9 54.2s.3.4.9 1.1c.9.9 2 1.7 3.2 2.1a7 7 0 0 0 5.5-.2c2-.9 3.7-2.7 5.6-4.3 1.8-1.7 4.1-2.8 6.5-3.1 2.1-.3 4.1.5 5.6 1.9.9 1 1.4 2.4 1.3 3.8 0 .4-.1.7-.2 1.1-.1.2-.2.3-.2.3.1-.5.2-.9.2-1.4 0-1.3-.5-2.5-1.4-3.5-1.4-1.3-3.3-2-5.2-1.7-2.4.4-4.5 1.5-6.3 3.1-1.9 1.6-3.7 3.5-5.8 4.4-1.9.8-4 .9-5.9.1-1.3-.5-2.4-1.3-3.3-2.3l-.6-.9c.1-.3.1-.4.1-.5zM293.9 71.9s-.2-.2-.5-.6c-.3-.7-.4-1.4-.3-2.1.1-1.9 1.8-3.9 2-6.5.2-1.2 0-2.4-.6-3.5-.5-.8-1.3-1.5-2.2-1.9-.6-.3-1.3-.4-1.9-.3-.5.1-.7.2-.7.1s.2-.2.7-.4c.7-.2 1.5-.1 2.1.1 1 .4 1.9 1.1 2.5 2 .7 1.2.9 2.5.8 3.8-.1 1.3-.5 2.5-1.1 3.7-.5.9-.8 1.8-1 2.8-.3 1-.2 1.9.2 2.8z"/><path class="st4" d="m311.5 200.5 33.5 195-26.4 3.2-37.5-173.9 3.1 171.4h-25.3l-10-197.4z"/><path class="st7" d="m251.4 138.4-9.5 5.9-10.7-20.6c4.7-3.4 19.8-13.1 23.6-15.6.9-.6 2-1.2 3-1.6 2.5-1 5.2-1.6 7.9-1.9 2.4-.3 4.3-.5 5.5-.6 6.9 2.2 14.3 2.2 21.2 0 .8 0 1.6.1 2.4.2 7 1 13.8 5.9 18 10.5l16.7 15-16.4 19.6-5.1-6 1.2 27.6 4.8 34.4h-65.4s-.1-8.1.5-19.4c.8-15.8 1.7-40.5 1.7-40.5"/><path class="st4" d="M250.7 155.8c.2-1.5.4-3 .4-4.6.2-2.8.4-6.7.8-11s.7-8.1 1-10.9c.2-1.5.3-3 .3-4.5-.4 1.5-.7 3-.8 4.5-.4 2.8-.9 6.7-1.2 10.9s-.5 8.2-.6 11c-.1 1.5 0 3.1.1 4.6zM306.9 128.5c-.2 1-.2 2.1-.2 3.1 0 1.9.1 4.6.3 7.5.2 2.9.5 5.6.8 7.5.1 1 .3 2.1.6 3.1.1-1 0-2.1-.1-3.1-.2-2.2-.4-4.7-.6-7.5s-.4-5.3-.5-7.5c0-1-.1-2-.3-3.1z"/><path class="st11" d="M290.6 131.8h10.9v2.8h-10.9zM311.7 113.7c-.8-.2-1.7-.4-2.6-.4-2.4.1-4.7 1-6.6 2.4-1.3.8-2.6 1.9-4 2.9-1.6 1.1-3.2 2.1-5 2.9-2 .8-4 1.5-6.1 1.8-2.3.4-4.6.5-6.9.4-2.3-.1-4.6-.6-6.8-1.3-1-.3-2.1-.7-3.1-1.2-.9-.4-1.9-.9-2.8-1.5-3.5-2.1-5.9-5-8.4-6.7-1.9-1.5-4.3-2.3-6.7-2.2-.9.1-1.7.3-2.5.7l.1-.1c.1-.1.3-.2.5-.3.6-.3 1.2-.5 1.9-.6 2.5-.2 4.9.6 6.9 2.1 2.6 1.7 5 4.6 8.4 6.6.9.5 1.8 1 2.7 1.4 1 .4 2 .8 3 1.1 2.2.7 4.4 1.1 6.6 1.2 2.2.1 4.5 0 6.7-.3 2.1-.4 4.1-1 6-1.8 1.7-.8 3.4-1.7 5-2.8 1.5-1 2.8-2.1 4.1-2.9 2-1.4 4.4-2.3 6.9-2.3.7 0 1.4.1 2 .3.2 0 .3.1.5.2l.2.4zM251.5 134.8c-.1 0-.7-.9-2-2-.8-.7-1.6-1.3-2.5-1.8-1.1-.6-2.3-1.1-3.5-1.5-1.2-.4-2.5-.6-3.7-.7-1-.1-2.1-.1-3.1 0-1.8.2-2.8.6-2.8.5 0-.1.2-.1.7-.3.7-.2 1.4-.4 2.1-.5 1.1-.2 2.1-.2 3.2-.2 1.3.1 2.6.3 3.8.7 1.2.4 2.4 1 3.5 1.6.9.6 1.8 1.2 2.5 2 .3.3.6.6.8.9.2.2.4.5.6.7.3.3.4.5.4.6zM306.7 144.4c-.2.1-.3.2-.5.3l-1.5.8-1.1.6c-.4.2-.9.4-1.3.6-1 .4-2 .9-3.3 1.3l-2 .6-2.1.6c-1.5.4-3.1.7-4.8 1-3.7.6-7.5.8-11.2.7-3.8-.2-7.5-.7-11.2-1.6-1.7-.5-3.3-.9-4.7-1.4-.7-.3-1.4-.5-2.1-.8l-1.9-.8c-1.2-.5-2.2-1.1-3.2-1.5-.5-.2-.9-.5-1.3-.7l-1-.6-1.4-.9c-.2-.1-.3-.2-.5-.4.2.1.4.2.5.3l1.5.8 1.1.6c.4.2.8.4 1.3.6.9.4 2 1 3.2 1.5l1.9.8c.7.3 1.4.5 2.1.7 1.4.5 3 .9 4.7 1.4 7.3 1.8 14.8 2.1 22.2.9 1.7-.3 3.3-.6 4.8-1 .7-.2 1.5-.3 2.1-.5l2-.6c1.2-.4 2.3-.8 3.3-1.2.5-.2.9-.4 1.4-.5l1.1-.5 1.5-.7c0-.3.2-.4.4-.4zM324.6 127.6c-1-.2-2-.2-3-.2-2.5.1-4.8.8-7 2.1-2.1 1.3-4.1 2.8-5.8 4.5-.7.7-1.5 1.4-2.3 2.1.6-.8 1.3-1.6 2-2.3 1.7-1.8 3.7-3.4 5.8-4.7 2.2-1.3 4.7-2 7.2-2 .8 0 1.5.1 2.3.3.3-.1.5 0 .8.2zM308 165.5c-.2.1-.4.2-.5.3l-1.6.7c-.7.3-1.5.7-2.5 1-1 .3-2.1.8-3.4 1.2l-2 .6c-.7.2-1.5.4-2.2.6-1.5.4-3.2.7-4.9 1-7.6 1.3-15.4 1.4-23 .2-1.8-.3-3.4-.6-5-1-.8-.2-1.5-.3-2.2-.5l-2-.6c-1.3-.3-2.4-.8-3.5-1.1s-1.9-.7-2.6-1l-1.6-.7c-.2-.1-.4-.2-.5-.3.2 0 .4.1.6.2l1.6.6c.7.3 1.5.6 2.6.9s2.2.7 3.5 1l2 .5c.7.2 1.5.3 2.2.5 1.5.4 3.2.6 4.9.9 7.6 1.1 15.3 1.1 22.9-.2 1.7-.3 3.4-.6 4.9-1 .8-.2 1.5-.3 2.2-.5l2-.6c1.3-.3 2.4-.8 3.4-1.1 1-.3 1.9-.6 2.6-.9l1.6-.6c.1-.2.3-.2.5-.1zM311.8 191.7h-.6l-1.8-.2c-1.6-.2-3.8-.5-6.6-.8-2.8-.3-6.2-.6-9.9-.7s-7.8-.2-12.1-.1-8.4.4-12.1.7c-3.7.3-7 .8-9.8 1.2-2.8.4-5 .8-6.6 1.1l-1.8.3c-.2 0-.4.1-.6.1.2-.1.4-.1.6-.2l1.8-.4c1.5-.4 3.8-.8 6.6-1.2 2.8-.5 6.1-.9 9.9-1.3 3.7-.4 7.8-.6 12.1-.7 4.3-.1 8.4 0 12.2.2s7.1.5 9.9.9 5.1.7 6.6.9l1.8.3c-.1-.2.1-.1.4-.1z"/></g><g id="freepik--character-1--inject-2"><path class="st4" d="M82 55c-9 0-16.7 6.3-18.5 15.2-.8 4.4.1 9.3-2 13.3-2.7 5.3-9.8 7.8-11.4 13.5-1.3 4.8 1.8 10 .5 14.8-1 3.5-4.1 5.9-5.6 9.2-1.5 3.2-1.2 7 .7 10 2 3 5.5 4.5 9 4.1 2.2-.3 4.2-1.4 6.3-2.1 4.6-1.5 9.5-1 14.2-.3 4.7.7 9.6 1.4 14.3.3 4.7-1.1 9.1-4.5 9.8-9.3.4-3.1-.7-6.1-1.7-9.1-6.2-19.6-3.3-40.9-7.8-60.9"/><path class="st4" d="M64.6 73c-1.2-1.6-2.6-2.9-4.2-4.1-1.6-1.2-3.6-1.7-5.5-1.4-2 .3-3.6 1.7-4.1 3.7-.4 2 .9 3.8 2.9 4.2h.1c-1.5-.5-3.1.2-3.6 1.7-.1.2-.1.3-.1.5-.2 1.7.8 3.3 2.4 4 1.6.6 3.3.6 4.9-.1 1.5-.7 3-1.6 4.2-2.7l4.5-3.4"/><path class="st10" d="M48.9 129.8c-.3-.1-.5-.2-.8-.4-.7-.5-1.2-1.2-1.5-1.9-.5-1.2-.5-2.6-.1-3.9.6-1.6 1.6-3.1 2.8-4.3 1.5-1.4 2.8-3 4-4.7 1.1-2.1 1.4-4.5.8-6.8-.4-2.4-1.4-5-1.4-7.8 0-1.5.4-2.9 1.2-4.1.9-1.2 1.9-2.2 3.2-3 2.5-1.6 5.2-2.4 7.5-4 1.1-.7 2-1.6 2.7-2.7.6-1.1 1.1-2.3 1.3-3.6.3-2.4.4-4.7.5-7.1.1-2.1.4-4.2 1.1-6.2.8-3 2.7-5.5 5.2-7.3.7-.5 1.4-.8 2.2-1.1.2-.1.4-.1.6-.2h.2c-1 .3-2 .8-2.9 1.5-2.4 1.8-4.2 4.3-5 7.2-.6 2-.9 4-1 6.1 0 2.4-.1 4.8-.4 7.2-.2 1.3-.6 2.6-1.3 3.7-.7 1.2-1.7 2.2-2.9 3-2.3 1.6-5.1 2.5-7.5 4-1.2.7-2.2 1.7-3 2.8-.7 1.1-1.1 2.5-1.2 3.8 0 2.7.9 5.2 1.4 7.7.3 1.2.4 2.5.2 3.7-.1 1.2-.5 2.3-1.1 3.4-1.2 1.7-2.6 3.3-4.1 4.8-1.2 1.2-2.2 2.6-2.8 4.2-.4 1.2-.4 2.5 0 3.7.3.8.7 1.4 1.4 1.9.5.3.8.4.7.4zM63 79.2c.4-1.3.7-2.6.9-3.9 0-1.3-.2-2.6-.5-3.9 1.4 2.4 1.3 5.5-.4 7.8z"/><path class="st10" d="m68.2 111.6-.4-.4c-.3-.4-.6-.9-.8-1.3-.6-1.8-.6-3.8.1-5.6.7-2.3 2.5-4.6 4.2-7.1.9-1.3 1.7-2.7 2.3-4.2.5-1.6.8-3.4.8-5.1.1-3.6-.6-6.9-.8-10.1-.3-2.8 0-5.6 1-8.2.7-1.8 1.8-3.3 3.3-4.5.4-.3.9-.6 1.3-.8.2-.1.3-.1.5-.2-.6.3-1.1.7-1.7 1.1-1.4 1.2-2.5 2.7-3.1 4.5-.9 2.6-1.2 5.4-.8 8.1.2 3.1.9 6.5.9 10.1 0 1.8-.3 3.6-.9 5.2-.6 1.5-1.4 3-2.4 4.3-1.8 2.5-3.6 4.7-4.3 7-.7 1.7-.8 3.6-.2 5.4.3.7.6 1.3 1 1.8z"/><path class="st4" d="M41.8 113.7s.1.2.3.5c.3.4.7.8 1.1 1 .7.4 1.5.5 2.3.5 1.1-.1 2.1-.6 2.8-1.4.9-1 1.4-2.2 1.6-3.5.2-1.5.1-3-.4-4.5-.4-1.6-1-3.1-1.4-4.9-.6-1.8-.7-3.7-.4-5.5.4-1.8 1.3-3.5 2.6-4.9 1.2-1.3 2.5-2.4 3.9-3.4 1.3-1 2.6-1.8 3.8-2.6 1.1-.8 2.1-1.6 3-2.6 1.4-1.3 2.5-2.9 3.1-4.8.2-.7.3-1.4.4-2.1.1.7 0 1.4-.2 2.1-.5 1.9-1.6 3.6-3 5-.9 1-1.9 1.8-3 2.6-1.2.9-2.5 1.7-3.8 2.7-1.4 1-2.7 2.1-3.8 3.3-1.2 1.3-2.1 2.9-2.4 4.7-.3 1.8-.1 3.6.4 5.3.4 1.7 1 3.3 1.4 4.9.4 1.5.5 3.1.3 4.6-.2 1.4-.8 2.7-1.7 3.7-.8.8-1.9 1.4-3 1.4-.9 0-1.7-.2-2.5-.6-.5-.3-.9-.7-1.1-1.1-.1-.1-.1-.2-.2-.4-.1.1-.1 0-.1 0zM105.1 64.5c.8 5.2 2.2 10.3 4.4 13.5 1.8 2.6 5.3 4 5.8 7.1.4 2.6-1.1 5.2-.9 7.8.4 4.1 5 6.7 6.3 10.6 1.1 3.3-.4 7-2.9 9.4s-5.9 3.6-9.2 4.6c-4.8 1.3-10.6 1.7-14-1.9-2.3-2.4-2.9-6.1-3.2-9.4-.8-9-.8-18.1-.7-27.2"/><path class="st14" d="M73.9 73.2c-1.1-8.5 5-16.3 13.5-17.3.2 0 .4 0 .5-.1 8.3-.8 15.6 5.4 16.9 13.6 1.1 7.2 2 14.5 2 17.1-.1 8-4.8 11.1-6.7 12-.7.2-1.4.4-2.1.5 0 0-.1 0-.1.1l1.8 9.1c.8 6-2.5 11.3-8.5 12.2s-10.7-3.7-11.6-9.7l-5.7-37.5z"/><path class="st4" d="M103.2 72.9c-.1.2-1.2-.4-2.5-.2s-2.2 1-2.4.9 0-.4.4-.8c.5-.5 1.2-.8 1.9-.9.7-.1 1.4 0 2 .3.5.3.6.6.6.7zM91 75.3c-.1.2-1.2-.4-2.5-.2s-2.2 1-2.4.9 0-.4.4-.8c.5-.5 1.2-.8 1.9-.9.7-.1 1.4 0 2 .3.5.3.7.6.6.7zM96.1 83c.7-.3 1.4-.6 2.1-.7.3-.1.7-.2.7-.4 0-.4-.2-.7-.4-1-.4-.8-.9-1.6-1.4-2.5-1.3-2.1-2.4-4.3-3.3-6.5.2-.1 1.8 2.7 3.8 6.2l1.4 2.5c.3.4.4.9.4 1.3-.1.3-.3.5-.5.6-.2.1-.4.1-.6.2-.7.2-1.5.3-2.2.3z"/><path class="st12" d="M97.9 99.1s-5.2 1.2-12.2-1.8c0 0 3 6.6 12.7 4.2l-.5-2.4zM96 86.4c-.6-.6-1.5-.8-2.3-.6-.6.1-1.1.5-1.4 1-.3.5-.3 1.2.1 1.6.5.4 1.2.5 1.8.2.6-.3 1.1-.8 1.6-1.3.1-.1.3-.3.3-.5.1-.1 0-.3-.1-.4"/><path class="st4" d="M92.2 84.6c.2 0 .4 1.4 1.8 2.3s2.9.5 3 .7-.3.3-1 .4c-.9.1-1.7 0-2.5-.5-.7-.4-1.2-1.1-1.4-1.9-.1-.6 0-1 .1-1zM90.3 71.4c-.1.4-1.5.4-3 .8s-2.8 1-3 .7 0-.5.5-1c1.3-1.1 3-1.5 4.6-1.2.6.3.9.5.9.7zM102 69.2c-.2.3-1.2.2-2.3.3s-2 .5-2.3.2c-.1-.1 0-.5.4-.8.5-.4 1.1-.7 1.8-.7.7-.1 1.3 0 1.9.3.4.2.6.5.5.7zM100.8 74c-.1.7.3 1.3 1 1.4.6.1 1.3-.3 1.4-.9.1-.7-.3-1.3-1-1.4-.6-.2-1.2.3-1.4.9zM88.5 76.3c-.1.7.3 1.3 1 1.4.6.2 1.3-.2 1.4-.9.1-.7-.3-1.3-1-1.4-.6-.2-1.3.2-1.4.9z"/><path class="st14" d="m74.8 111.1 30.3-5.9-.9 16.9s-13.5 4.2-14 4.4-9.3 0-9.3 0l-6.1-15.4zM41.2 225.9c-.2.8-.5 1.7-.7 2.8-.2.9-.2 1.9-.1 2.8.1 1.2.4 2.3.8 3.4.5 1-.5 2-1.3 1.6s-2.3-3.1-2.4-6.6-3.5.9-4.7 2.5-5.3 6.3-6.1 6.3c-1.2 0-1.4-1.2-.1-2.8s4.8-6.5 3.9-7.1-7.1 7.5-7.1 7.5-1 2-2.1 1.3c-1.8-1.2 5.4-9.4 6.1-10.2.5-.5-.4-1.2-.9-.6s-6 8.3-7.9 7c-1.5-1 5.9-6.8 6.2-9s-5.1 5-6.5 4c-.5-.4-.8-.7 2.9-4.4 1.8-1.8 8.7-7.2 8.7-7.2l14-48.9h18.3l-21 57.6zM130.4 98s26.1-10.4 30.3-13.6 30.2-26.7 30.2-26.7l3.5-2.9c.4-.7.9-1.5 1.4-2.5.4-.8.8-1.7.9-2.7.2-1.2.3-2.4.2-3.5-.2-.6.2-1.2.8-1.3.3-.1.7 0 .9.2.7.7 1.4 3.6.5 7s3.6.1 5.2-1.1 6.8-4.6 7.6-4.4c1.1.3 1 1.6-.7 2.7s-6.4 4.9-5.7 5.8 8.9-5.3 8.9-5.3 1.5-1.6 2.3-.7c1.4 1.7-7.8 7.6-8.6 8.1-.6.4.1 1.3.7.9s8.1-6.3 9.5-4.6c1.1 1.3-7.5 4.9-8.4 7s6.3-3.4 7.3-2.1c.4.5.6.9-3.9 3.4-2.2 1.2-10.3 4.6-10.3 4.6l-.9.9-34.8 36-31.9 12.8-5-18z"/><path class="st7" d="m32.6 372.4-5.1 23.1-9.3 17.1c-.6 1.2-.2 2.7 1 3.3l.1.1c.7.3 1.5.3 2.2-.1 4.3-2.5 20.3-11.8 20.5-13.5.3-2 7-24.1 7-24.1l-16.4-5.9z"/><g class="st8"><path class="st2" d="m19.3 416 23.1-15.2-.2 1c-.2.8-.7 1.6-1.4 2.1-1.9 1.4-7.2 5-19.2 12-.7.4-1.6.5-2.3.1z"/></g><g class="st8"><path class="st2" d="M39.5 392.2c-.7.3-1.1 1-.8 1.8.3.7 1 1.1 1.8.9.7-.3 1.1-1.1.9-1.9-.4-.7-1.2-1-1.9-.7"/></g><path class="st4" d="M27 407.3c-.4-.9-.9-1.6-1.6-2.3-.8-.5-1.6-.9-2.5-1.2 0-.1.3-.2.9-.1.7.1 1.4.4 2 .9.6.5 1 1.1 1.2 1.8.1.5.1.8 0 .9zM24.6 409.9c-.1.1-.7-.9-1.8-1.5s-2.2-.7-2.2-.9c.8-.3 1.7-.1 2.4.4 1.3.8 1.7 2 1.6 2zM31 404c-.8-.9-1.7-1.7-2.6-2.5-1-.6-2.1-1.2-3.2-1.6 1.3 0 2.5.4 3.5 1.2 1.1.7 1.9 1.7 2.3 2.9zM33.2 397.1c-.1.1-1.2-.7-2.9-1.2s-3-.4-3.1-.5c1-.4 2.2-.3 3.2 0 1.1.3 2.1.9 2.8 1.7zM34.8 390.4c-.9-.6-1.9-1-3-1.3-1.1-.1-2.2-.1-3.2 0 0-.1.3-.3.9-.5.8-.2 1.6-.2 2.5-.1.8.2 1.6.5 2.2 1 .5.5.7.8.6.9zM32.2 387.8c0-.3.1-.6.2-.9.3-.8.7-1.5 1.2-2.1.4-.5.9-.8 1.5-1 .4-.1.8.1 1 .5.2.4.2.8.1 1.1-.5 1.6-2 2.6-3.7 2.4-1.6-.2-2.9-1.4-3.3-3-.1-.4 0-.8.2-1.1.3-.3.7-.4 1.1-.3.5.3 1 .7 1.3 1.2.5.7.9 1.4 1.1 2.2.1.3.2.6.2.9-.4-1-.9-2-1.6-2.8-.3-.4-.7-.8-1.2-1-.2-.1-.5 0-.6.1-.1.2-.2.5-.1.8.4 1.3 1.5 2.3 2.9 2.5 1.4.2 2.7-.7 3.2-2 .1-.3.1-.5 0-.8-.1-.2-.3-.3-.5-.3-.5.1-.9.4-1.3.8-.7.8-1.3 1.8-1.7 2.8z"/><path class="st7" d="m104.8 380.9-.7 18.5s18.6 6.9 18.8 10.4l-36-.1-.1-28.9 18 .1z"/><g class="st8"><path class="st2" d="M92.9 397.9c-.7.2-1.1.9-1 1.7.2.7.9 1.1 1.7 1 .8-.2 1.2-1 1.1-1.8-.3-.7-1.1-1.1-1.8-.9"/></g><g class="st8"><path class="st2" d="m86.9 409.7.1-2.9 34.5 1.2s1.6.7 1.4 1.8l-36-.1z"/></g><path class="st4" d="M104.7 399.2c0 .2-.9.2-1.8.8s-1.3 1.3-1.5 1.2.1-1.1 1.2-1.8 2.1-.3 2.1-.2zM108.4 400.8c0 .2-.7.5-1.3 1.2s-.8 1.5-.9 1.5-.3-1 .5-1.9 1.7-1 1.7-.8zM110.6 405.3c-.2 0-.4-.8 0-1.8s1.3-1.4 1.4-1.2-.4.7-.8 1.5-.5 1.5-.6 1.5zM104.3 395c-.1.2-.9-.1-1.9 0s-1.8.4-1.9.2.7-.8 1.8-.8 2.1.5 2 .6z"/><path d="m104.6 384.6-.1 3.3-17.7-.2v-3z" class="st9"/><path class="st4" d="M104.4 391.3c-.6.2-1.2.2-1.8 0-1-.2-2-.6-2.9-1.1-.2-.1-.4-.3-.5-.4-.2-.3-.3-.6-.1-.9.2-.2.5-.4.8-.4.2 0 .5 0 .7.1 1 .2 2 .8 2.8 1.5.8.8 1.1 1.4 1.1 1.5s-.5-.5-1.3-1.1c-.5-.4-1-.7-1.6-.9-.3-.1-.7-.2-1-.3-.4-.1-.7-.1-.8.1s0 .1 0 .2c.1.1.3.2.4.3.3.2.7.4 1 .5.6.3 1.1.5 1.7.7.4-.2 1 0 1.5.2z"/><path class="st4" d="M104.2 391.5c-.1 0-.4-.6-.5-1.7 0-.7.1-1.4.2-2 .1-.4.3-.7.5-1.1.2-.5.6-.8 1.1-.9.3 0 .6.2.8.5.1.2.2.4.2.7.1.4.1.8 0 1.2-.1.7-.4 1.3-.8 1.9-.7.9-1.4 1.1-1.5 1.1s.6-.4 1.1-1.3c.3-.5.5-1.1.6-1.7v-1c0-.4-.2-.7-.3-.6s-.5.3-.6.6c-.2.3-.3.7-.4 1-.2.6-.3 1.2-.3 1.8-.2.8 0 1.5-.1 1.5zM69.6 177.3s-11.4 18-13 24.9c-1.5 6.2-26.4 140.2-31.5 168-.5 2.8 1.2 5.6 4 6.5l22.5 6.8c3 .9 6.2-.8 7.1-3.8 0-.2.1-.3.1-.5l27.8-129.9L78.4 378c-.2 3.6 2.5 6.8 6.1 7h.6l22.1-.7c3.4-.1 6.1-2.8 6.3-6.2 1.9-31 10.5-172 8.8-176.4-1.9-5-7.1-22.3-7.1-22.3l-45.6-2.1z"/><path class="st10" d="M60.6 372.8c-.5 0-.9-.1-1.4-.2-.9-.1-2.2-.4-3.7-.7-3.1-.6-7.4-1.6-12.1-3s-8.9-2.8-11.9-4c-1.5-.6-2.7-1-3.5-1.4-.4-.2-.9-.4-1.3-.6.5.1.9.2 1.3.4l3.6 1.2c3 1 7.2 2.4 11.8 3.8s8.9 2.4 12 3.2l3.7.9c.6.2 1.1.3 1.5.4zM32.7 364.6c-.8-.6-1.3-1.5-1.4-2.5-.3-.9-.2-1.9.2-2.8.2 0 0 1.3.3 2.7s1 2.5.9 2.6zM35.5 359.8c.2.9.1 1.8-.3 2.7-.2.9-.6 1.7-1.2 2.4.2-.9.4-1.7.7-2.5.2-.9.5-1.8.8-2.6zM106.2 366.6c.4.7.6 1.5.6 2.3.2.8.3 1.6.1 2.4-.6-1.4-.8-3.1-.7-4.7zM108.8 365.4c.3 1.7.3 3.4-.1 5-.3-.8-.3-1.7-.2-2.5 0-.9.1-1.7.3-2.5zM96.4 183.6v.7c0 .5 0 1.2-.1 2-.1 1.8-.2 4.3-.4 7.4-.5 6.3-1.3 15-2.7 24.5-1.4 9.5-3 18.1-4.3 24.2-.6 3.1-1.2 5.6-1.6 7.3-.2.8-.3 1.5-.5 2 0 .2-.1.5-.2.7 0-.2 0-.5.1-.7.1-.5.2-1.2.4-2 .3-1.8.8-4.3 1.4-7.3 1.2-6.2 2.8-14.7 4.2-24.2s2.3-18.1 2.9-24.4c.2-3.1.5-5.6.6-7.4.1-.8.1-1.5.2-2-.1-.3 0-.6 0-.8z"/><path class="st10" d="M116.6 183.6c-.2 0-.3.1-.5.1l-1.4.1c-1.2.1-3.1.1-5.3.1-4.5.1-10.7.1-17.6-.1s-13.1-.5-17.5-.9c-2.2-.2-4.1-.3-5.3-.4l-1.4-.1c-.2 0-.3 0-.5-.1h.5l1.4.1 5.3.3c4.5.2 10.7.5 17.5.7s13.1.2 17.6.3H116.1c.1-.2.3-.2.5-.1z"/><path class="st10" d="M100.3 183.4v1.7c0 1.2-.1 2.7-.2 4.6-.2 3.9-.4 9.3-.7 15.3-.2 3-.3 5.8-.5 8.4-.1 2.3-.7 4.6-1.8 6.7-.7 1.4-1.8 2.6-3.2 3.4-.4.2-.8.4-1.2.5-.1 0-.3.1-.4.1 0-.1.6-.2 1.5-.8 1.3-.9 2.3-2 3-3.4 1-2 1.5-4.3 1.6-6.5.2-2.6.3-5.4.4-8.4.3-6 .6-11.4.8-15.3.1-1.9.2-3.4.3-4.6.2-.6.3-1.2.4-1.7zM74.6 194.5c.1.4.1.8 0 1.2-.1 1.1-.3 2.1-.6 3.1-1.9 6.9-7.5 12.2-14.6 13.6-1 .2-2.1.3-3.1.3-.4 0-.8 0-1.2-.1 1.4-.1 2.8-.3 4.2-.6 6.8-1.6 12.3-6.7 14.3-13.4.4-1.4.7-2.7 1-4.1zM122.3 213.3s-.3 0-.8-.2c-.7-.2-1.4-.5-2-.9-1-.5-1.9-1.1-2.7-1.8-1-.9-2-1.8-2.8-2.9-.8-1.1-1.5-2.2-2.1-3.5-.5-1-.8-2-1.1-3.1-.2-.7-.3-1.4-.3-2.2v-.8c.1 0 .2 1.1.7 2.9.3 1 .7 2 1.1 3 .6 1.2 1.3 2.3 2.1 3.3s1.7 2 2.7 2.9c.8.7 1.7 1.3 2.6 1.9 1.5.9 2.6 1.2 2.6 1.4zM82.2 197.7v.4c0 .3-.1.8-.2 1.3-.2 1.2-.4 2.9-.7 5-.6 4.4-1.6 10.7-2.8 18.5-2.4 15.6-6.2 37.1-11 60.7s-10 44.8-13.9 60.1c-1.9 7.6-3.6 13.8-4.8 18.1-.6 2.1-1 3.8-1.3 4.9l-.4 1.3c0 .1-.1.3-.1.4 0 0 0-.1.1-.4s.2-.7.3-1.3c.3-1.1.7-2.8 1.3-4.9 1.1-4.3 2.7-10.5 4.6-18.1 3.8-15.3 8.8-36.5 13.7-60.1s8.7-45.1 11.2-60.6c1.3-7.8 2.3-14.1 2.9-18.5.3-2.2.6-3.9.8-5l.2-1.3c.1-.3.1-.5.1-.5zM100.6 372.7v-.4c0-.3.1-.7.1-1.2.1-1.1.2-2.7.4-4.8.4-4.2.9-10.1 1.6-17.5 1.3-14.8 3.4-35.2 5-57.9.8-11.3 1.3-22.1 1.5-31.9s.2-18.7 0-26.1-.6-13.4-.9-17.6c-.1-2-.3-3.6-.4-4.8 0-.5-.1-.9-.1-1.2v-.4c0 .1.1.3.1.4 0 .3.1.7.1 1.2.1 1.1.2 2.7.4 4.8.4 4.1.8 10.1 1 17.6s.4 16.3.1 26.1-.7 20.6-1.5 32c-1.6 22.6-3.7 43.1-5.1 57.9-.7 7.4-1.3 13.4-1.7 17.5-.2 2-.4 3.6-.5 4.8-.1.5-.1.9-.1 1.2v.3z"/><path class="st10" d="M114.2 370.4c0 .1-7.9 1.1-17.7 2.2s-17.7 1.8-17.8 1.7 7.9-1.1 17.7-2.2 17.8-1.9 17.8-1.7z"/><path class="st4" d="M84.5 59.6c-3 3.6-3.8 8.5-2.2 12.9 1.1 2.9 3.3 5.5 3.2 8.6-.2 3.8-4.1 6.8-3.9 10.6.2 4.3 5.8 7 5.8 11.4s-2.7 6.1-7.8 7c-3.3.6-5.1-3.5-6.8-6.4s-2.2-6.3-2.5-9.6c-.6-5.5-.6-11.1-.2-16.6.3-4.5 1-9.1 3.3-12.9 2.4-4 6.4-6.7 11-7.7"/><path class="st4" d="M106.3 67.6c-1.6 2.5-6.9 1-10-.8-3.4 2.2-8 1.2-10.3-2.1-1.8 2.3-5.5 1.5-6.8-1s-.6-6.2 1.2-8.4c1.9-2.1 4.4-3.5 7.2-3.9 6.5-1.3 13.2 1.5 16.9 7 1.9 2.6 2.9 6.1 1.8 9.2"/><path class="st10" d="M106.4 67.2c-.1.1-1-1.6-3-3.8-2.5-2.9-5.8-5.1-9.5-6.2-3.7-1.1-7.7-.8-11.2.9-1.4.7-2.7 1.7-3.8 2.9 0 0 0-.1.2-.3.2-.3.4-.5.6-.8.8-.9 1.8-1.6 2.8-2.2 3.6-1.8 7.7-2.1 11.5-1 2.1.6 4 1.6 5.8 2.9 1.4 1 2.7 2.3 3.8 3.6.8.9 1.5 1.9 2.1 2.9.3.3.5.7.7 1.1z"/><path class="st10" d="M90.8 68.2c-.1 0-.3-.9-.9-2.2-.8-1.7-2-3.2-3.6-4.3-1.6-1.1-3.5-1.5-5.4-1.3-.8.1-1.5.4-2.3.6 0 0 .2-.2.5-.4.5-.3 1.1-.5 1.7-.6 2-.4 4.1.1 5.8 1.2 1.6 1.1 2.9 2.8 3.6 4.6.4.7.6 1.5.6 2.4z"/><path class="st7" d="M74.8 111.1s-13.5 3.9-18.6 12.2-20.7 66.9-20.7 66.9l17.9 2 14.9-39 3.7 12.2-2.3 12 45.7 2.1 3.2-52.6 48.8-23.8 5.5-5.7-14.2-15-5.4 5.1-49 17.9s1.8 14.5-11.4 16.6-18.1-10.9-18.1-10.9z"/><path class="st11" d="M100.9 130.7h10.9v2.8h-10.9z"/><path class="st4" d="M63.2 135.8c.1 0 2.2 6.4 4.6 14.4s4.2 14.5 4.1 14.5c-.1.1-2.2-6.4-4.6-14.4-2.4-7.9-4.2-14.4-4.1-14.5zM127.3 115.4c-2 1.6-3.9 3.4-5.5 5.4-1.5 2.1-2.7 4.4-3.6 6.8.1-.8.3-1.5.6-2.2 1.3-3.5 3.6-6.5 6.6-8.8.5-.5 1.2-.9 1.9-1.2z"/><path d="M64.1 138.6c-1 4.9-1.6 10-1.6 15 0 1.2.1 2.5.4 3.7.3 1.2 1.1 2.2 2.2 2.9 1.3-1.9 2.8-4 3-6.4 0-1.7-.2-3.3-.8-4.9-1-3.6-2.1-7.2-3.1-10.9" class="st15"/><path class="st4" d="M76.1 108.2c2.4 1.7 3.2 4.9 3.1 7.9s-1 5.8-1.1 8.8.6 6.2 3 7.9l11.6-3.9c-2.3-1.3-2.8-4.4-2.3-7s1.7-5 1.8-7.7c.4-6.9-4.6-12.8-6.9-15.6"/></g><g id="freepik--character-2--inject-2"><path class="st7" d="m123.8 384.5-4.5 25.7h22.2l2.5-24.3z"/><path class="st4" d="M142 408.1c-1.1.2-2.2.2-3.2.2-2 0-4.8 0-7.8-.1l-7.8-.3c-1.1 0-2.2-.1-3.2-.3 1.1-.2 2.2-.2 3.2-.2 2 0 4.8 0 7.8.1l7.8.3c1 .1 2.1.2 3.2.3z"/><g class="st8"><path class="st2" d="M119.3 410.2h22.2l.3-2.1-22.1-.6-.4 2.5"/></g><path class="st4" d="M130.2 408.1c.2-3.3.6-6.6 1.2-9.8.4-3.3 1-6.5 1.7-9.7-.2 3.3-.6 6.6-1.2 9.8-.4 3.2-1 6.5-1.7 9.7z"/><path class="st4" d="M140.8 408c.2-1.6.1-3.2-.4-4.7-.5-1.6-1.5-3.1-2.8-4.1-1.6-1.3-3.6-2-5.7-2s-4.1.6-5.8 1.9c-1.4 1.1-2.4 2.4-3.1 4-.6 1.5-1 3-1 4.6 0 0 0-.1-.1-.3v-1c0-1.2.3-2.4.7-3.5.7-1.6 1.8-3.1 3.1-4.2 1.7-1.3 3.9-2 6.1-2 4.1 0 7.7 2.6 8.9 6.6.4 1.1.5 2.3.3 3.5 0 .3-.1.6-.2 1v.2z"/><path class="st7" d="m219.5 377.3 5.4 17.7s19.9.5 21.2 3.6l-34 11.7-9.6-27.3 17-5.7z"/><g class="st8"><path class="st2" d="M213.9 397.1c-.6.4-.8 1.3-.4 1.9.4.6 1.2.8 1.9.4.6-.5.8-1.3.4-2-.5-.6-1.4-.7-2-.2"/></g><g class="st8"><path class="st2" d="m212.1 410.4-.9-2.8 32.9-10.2s1.7.1 1.9 1.3l-33.9 11.7z"/></g><path class="st4" d="M225.4 394.7c.1.2-.8.5-1.4 1.4s-.8 1.7-1 1.6-.3-1.1.5-2 1.9-1.2 1.9-1zM229.5 394.9c.1.1-.5.7-.9 1.6s-.2 1.7-.4 1.8-.6-.9-.2-2 1.4-1.5 1.5-1.4zM233 398.5c-.1.1-.6-.7-.5-1.7s.8-1.7.9-1.6-.2.8-.3 1.6.1 1.6-.1 1.7zM223.7 390.8c0 .2-.9.2-1.8.6s-1.6.9-1.7.8.4-1 1.4-1.4 2.2-.2 2.1 0z"/><path d="m220.6 380.8 1 3.1-16.8 5.7-1-2.8z" class="st9"/><path class="st4" d="M222.6 387.1c-.5.3-1.1.5-1.7.6-.7.1-1.3.1-2 .1-.4 0-.8-.1-1.2-.2-.2 0-.5-.1-.7-.2-.3-.2-.5-.5-.4-.9.1-.3.3-.5.6-.6.2-.1.4-.1.7-.1h1.2c.7.1 1.3.2 1.9.5 1 .5 1.5 1 1.5 1s-.6-.3-1.6-.6c-.6-.2-1.2-.3-1.8-.3H218c-.4 0-.7.1-.7.3s0 .1.1.2c.2.1.3.1.5.2.4.1.7.2 1.1.2.6.1 1.2.1 1.9.1.5-.2 1.1-.3 1.7-.3z"/><path class="st4" d="M222.4 387.5c-.1 0-.6-.4-1-1.5-.2-.6-.4-1.3-.4-1.9 0-.4 0-.8.1-1.2 0-.5.3-1 .8-1.2.3-.1.7 0 .9.2.2.2.3.4.4.6.5 1 .6 2.1.3 3.2-.4 1.1-1 1.5-1 1.5.2-.5.4-1.1.6-1.6.1-.6.1-1.2 0-1.8-.1-.4-.2-.7-.4-1-.2-.3-.4-.6-.5-.5s-.4.4-.4.8c-.1.4-.1.7-.1 1.1 0 .6.1 1.2.2 1.8.2.9.7 1.4.5 1.5z"/><path class="st16" d="m119.7 153-6.4 13.2c-2.9 6-1.9 13.1 2.6 18 3.5 3.8 8.6 5.7 13.7 5.1l24.9-2.8v-14.8l-24.5.7 6.1-10.8-16.4-8.6z"/><path class="st4" d="M151.3 106c-4.1-6.9-5.3-16.2-6.3-24.2-.5-3.8-1.4-9.1 1.3-11.5 2.8-2.5 3.1-6.4 6.4-8.4s7.7-2.1 10.8.1"/><path class="st16" d="M162.7 130.6c6.1.5 11.5-4.1 12-10.2v-.4c.2-6.1.5-12.2.5-12.2s9.2-.8 9.9-9.9.4-30.1.4-30.1c-10.2-5.2-22.5-4.4-32 2l.5 32-.1 17.2c0 5.8 3 11.1 8.8 11.6z"/><path class="st4" d="M176 86.8c-1.6-1.9-4.1-2.7-6.2-1.4-2.1 1.5-2.9 4.3-1.8 6.6.9 1.7 2.6 2.9 4.4 3.4 1.7.4 2.9 2 2.7 3.8-.3 2.3-4.1 3.1-5.8 5-2.7 2.9-8.5 4.2-12.5 4.6s-3.4.5-5.6-2.7c-1.5-2.2-2.3-4.8-2.2-7.4l-.4-20.1c-.1-2.4 0-4.8.5-7.2.5-2.4 1.8-4.6 3.8-6 2.2-1.4 5-1.6 7.6-2.4 3.1-1 5.8-3.1 8.8-4.6s6.6-2.4 9.5-.9c2.1 1.1 3.5 3.2 5.6 4.4 2.9 1.7 6.9 1.3 8.4 5.6.5 1.5.5 3.1-.1 4.6-2 5.9-9.3 8.2-14.6 5.7-.1 1 .9 3.2-.2 6.4-.2.9-.3 2.5-1.9 2.6"/><path class="st6" d="M174.4 92.4s0 .2-.1.4c-.2.3-.6.5-1 .5-1.3-.1-2.4-1.2-2.4-2.5 0-.7.2-1.4.7-1.9.4-.4.9-.7 1.4-.8.9-.2 1.5.1 1.4.2s-.6 0-1.3.2c-1 .3-1.6 1.2-1.6 2.3 0 1 .7 1.9 1.7 2.1.8 0 1.1-.5 1.2-.5z"/><path class="st4" d="M152 71.6c5.4-2.3 7.9-8.6 5.5-14-2.3-5.4-8.6-7.9-14-5.5-4.8 2.1-7.3 7.3-6.1 12.3.2.6.2 1.3 0 1.9-.4.7-1.3.8-2 1-2.6 1-2.9 4.9-1 6.9s5 2.3 7.7 1.6c-.6 2.3 1.4 4.8 3.9 5.1 2.5.1 4.8-1.1 6.1-3.2 1.2-2.1 1.9-4.5 2.1-6.9"/><path class="st1" d="M158.2 60.5v.9c0 .8-.2 1.7-.4 2.5-1.3 5.6-5.6 10-11.2 11.3-.8.2-1.7.3-2.5.4-.3.1-.6.1-.9 0 0-.1 1.3-.1 3.4-.7 5.4-1.5 9.5-5.7 11-11.1.4-2 .5-3.3.6-3.3z"/><path class="st10" d="M148.1 52.1s.1-.1.3-.1c.3-.1.6-.1.8-.1 1 0 2.1.4 2.9 1.1.6.4 1 1 1.4 1.6.4.7.7 1.5.9 2.3.3 1.8.2 3.7-.2 5.6-.7 3.3-2.2 6.4-4.3 9-.6.8-1.3 1.5-2 2.2-.3.3-.5.5-.9.7-.1-.1 1.1-1.1 2.6-3.2 1.9-2.7 3.3-5.7 4.1-8.9.4-1.7.5-3.6.3-5.3-.1-.8-.4-1.5-.8-2.2-.3-.6-.8-1.1-1.3-1.5-.8-.6-1.7-1-2.7-1.1-.7-.2-1.1 0-1.1-.1z"/><path class="st10" d="M137 66.6s.1-.3.3-.7c.4-.6.8-1.1 1.3-1.6 3.3-3.4 8.4-4.2 12.6-2 .6.3 1.2.7 1.7 1.1.4.3.5.5.5.5s-.9-.6-2.4-1.3c-4.1-1.9-8.9-1.1-12.2 2-1.2 1.1-1.7 2-1.8 2zM154.9 70.2c.1-.1 1.2.9 3.2 2.2 2.6 1.7 5.3 3.2 8.1 4.5 1.6.7 3.2 1.3 4.8 1.8 1.3.5 2.6.8 4 .9.9 0 1.8-.2 2.6-.7.6-.3.8-.7.8-.6s-.1.4-.7.8c-.8.6-1.8.9-2.7.9-1.4-.1-2.8-.3-4.2-.8-4.7-1.4-9.1-3.5-13-6.4-1-.7-1.7-1.3-2.2-1.8-.3-.3-.5-.6-.7-.8z"/><path class="st4" d="M152.2 58.7c-.1-.4-.1-.8-.1-1.3 0-1.2.2-2.3.6-3.4.6-1.7 1.8-3 3.4-3.8.9-.5 2-.7 3.1-.6 1.1.1 2.2.7 3 1.5.8.8 1.4 1.8 1.7 2.9.3 1 .3 2 .2 3.1-.2 1.7-.8 3.4-1.7 4.8-.6 1-1.3 1.9-2 2.8-.2.4-.5.7-.8 1 .2-.4.4-.7.7-1.1.4-.7 1.1-1.6 1.8-2.9.8-1.5 1.4-3.1 1.6-4.7.1-1 0-2-.2-2.9-.3-1-.8-1.9-1.6-2.6-.7-.7-1.7-1.2-2.7-1.3-1-.1-1.9.1-2.8.5-1.5.7-2.7 2-3.3 3.5-.4 1.1-.7 2.2-.8 3.3-.1.3-.1.7-.1 1.2z"/><path class="st16" d="M255.9 37.6c-1.5-.8-5.8 7.2-5.8 5s6.3-9.1 4.8-9.8c-2.1-.9-6.4 7.4-6.8 8.1s-1.4.1-1-.5c.6-.9 6.5-10 4.5-11-1.1-.5-1.9 1.6-1.9 1.6s-5 9-5.9 8.5 1.8-5.8 2.8-7.6.6-2.9-.5-2.8c-.8.1-4.1 5.4-5.1 7.1s-3.6 6.6-4.3 3.2-2.4-5.9-3.4-6.2c-.6-.1-1.2.3-1.3.9-.1.3 0 .7.2.9.6 1 1 2.1 1.3 3.3.3.9.4 1.9.3 2.8-.1 1.1-.2 2-.3 2.8l-1.9 4.1s-14.1 32.2-16.5 36.8-22 24.9-22 24.9l4.1 23.7L229 99.2 245.8 52l.4-1.2s6-6.4 7.5-8.4c3.2-4.2 2.8-4.5 2.2-4.8z"/><path class="st10" d="M138.7 196.8s-10 22.6-12.1 45L116 385.4l35.3 3.7 10.3-148.9s32.4 150.3 33.6 150.3 28.4-10.1 28.4-10.1l-31.9-182.9-53-.7z"/><path class="st4" d="M176.6 243.9c0 .2-7.2-1.4-16-3.6s-15.9-4-15.8-4.2 7.2 1.4 16 3.6 15.8 4 15.8 4.2z"/><path class="st11" d="M153.3 358s-.1 0-.4.1c-.4.1-.7.1-1.1.1-1.3 0-2.6 0-3.9-.2-1.9-.3-3.8-.8-5.7-1.4-2.1-.7-4.4-1.5-6.8-2.3-2.2-.8-4.5-1.3-6.9-1.6-1.9-.3-3.8-.3-5.7 0-1.8.3-3.5.8-5.1 1.6.1-.1.2-.2.3-.2.3-.2.6-.4.9-.5 1.2-.6 2.5-1 3.8-1.2 1.9-.3 3.9-.3 5.9-.1 2.4.3 4.7.9 7 1.6l6.8 2.3c1.8.6 3.7 1.1 5.6 1.5 1.7.2 3.5.4 5.3.3zM153.4 345.9H152c-1.3 0-2.6 0-3.9.1-3.3.2-7.8 1.3-12.7 2.3-2.3.5-4.7.8-7.1.9-2 .1-3.9 0-5.8-.4-1.3-.3-2.6-.7-3.8-1.2-.3-.2-.6-.3-.9-.5-.1-.1-.2-.1-.3-.2 1.6.7 3.4 1.2 5.1 1.5 3.2.6 7.8.4 12.8-.7s9.4-2 12.8-2.2c1.3-.1 2.6-.1 3.9 0 .4.2.9.3 1.3.4zM216.3 331.9c0 .1-.1.2-.2.3-.2.3-.4.6-.7.8-1 .9-2.1 1.6-3.4 2-1.9.6-3.9.8-5.8.6-2.2-.2-4.6-.7-7-1.1-2.3-.4-4.7-.5-7-.2-1.9.2-3.8.7-5.5 1.5-1.6.7-3.2 1.5-4.7 2.5l.3-.3c.2-.2.5-.4.9-.6 1.1-.8 2.2-1.4 3.4-1.9 1.8-.8 3.7-1.3 5.6-1.6 2.4-.3 4.8-.3 7.1.1 2.5.4 4.8 1 7 1.1 1.9.2 3.8 0 5.7-.5 1.2-.4 2.4-1 3.4-1.8.6-.5.9-.9.9-.9zM221.7 358.4c-.3.4-.6.8-.9 1.1-.9 1-1.9 1.8-2.9 2.6-3.5 2.6-7.5 4.4-11.8 5.2-4.3.8-8.7.5-12.9-.7-1.3-.4-2.5-.8-3.7-1.4-.4-.2-.9-.4-1.3-.7.5.1.9.3 1.3.5 1.2.5 2.4.9 3.7 1.2 4.1 1.1 8.5 1.3 12.7.5 4.2-.8 8.2-2.5 11.7-4.9 2.7-1.9 4-3.5 4.1-3.4zM212.9 320.9h-1.4c-1.3.1-2.5.3-3.7.9-1.7.8-3.3 1.8-4.8 3-1.7 1.3-3.4 3-5.4 4.4-1.9 1.4-4.1 2.3-6.5 2.7-1.9.3-3.8.3-5.7 0-1.6-.2-2.9-.5-3.8-.7-.5-.1-.9-.2-1.4-.4.5 0 .9.1 1.4.2.9.1 2.2.3 3.8.5 1.9.2 3.7.2 5.6-.1 2.3-.4 4.4-1.3 6.2-2.6 2-1.4 3.7-3 5.4-4.3 1.5-1.2 3.1-2.2 4.9-2.9 1.2-.5 2.5-.7 3.8-.7.3 0 .7.1 1 .1.4-.2.5-.2.6-.1zM156.4 315.1s-.1.1-.3.2c-.3.2-.7.4-1 .5-1.3.5-2.6.9-3.9 1-2 .2-4 .1-6-.3-2.4-.4-4.8-1.1-7.1-1.8-2.3-.8-4.7-1.4-7.1-1.9-1.9-.4-3.9-.5-5.9-.4-1.8.2-3.6.6-5.3 1.3.1-.1.2-.2.3-.2.3-.2.7-.4 1-.5 1.3-.5 2.6-.9 3.9-1 2-.2 4-.1 6 .3 2.4.5 4.8 1.1 7.1 1.8 2.3.8 4.6 1.4 7 1.8 1.9.4 3.9.5 5.9.4 2 0 3.7-.4 5.4-1.2zM208.2 290.6s0 .1-.1.4c-.1.3-.3.7-.4 1-.6 1.2-1.5 2.3-2.5 3.2-1.5 1.4-3.3 2.4-5.2 3.1-2.3.8-4.7 1.4-7.2 1.7-2.6.3-5.1.6-7.3.9-2 .2-3.9.6-5.9 1-1.3.4-2.5 1-3.5 1.8-.4.4-.7.7-1.1 1 .1-.1.1-.2.2-.3.2-.3.5-.6.8-.8 1-.9 2.2-1.6 3.5-2a56 56 0 0 1 5.9-1.2c2.2-.4 4.7-.6 7.3-1 2.4-.3 4.8-.8 7.1-1.6 1.9-.7 3.6-1.7 5.1-3 1.4-1.1 2.5-2.6 3.3-4.2zM122 287.7c1.5 1 3.2 1.8 5 2.3 1.9.6 3.9.7 5.9.5 2.4-.3 4.8-1.1 6.9-2.4 2.3-1.2 4.4-2.6 6.6-3.5 1.9-.9 3.9-1.4 5.9-1.5 1.4-.1 2.8.2 4.1.7.4.2.7.3 1 .6.1.1.2.1.3.2 0 0-.5-.3-1.4-.6-1.3-.5-2.6-.6-4-.5-2 .2-3.9.7-5.8 1.6-2.1 1-4.2 2.3-6.5 3.6-2.2 1.3-4.6 2.1-7.1 2.4-2 .2-4.1 0-6.1-.6-1.3-.4-2.6-1-3.7-1.8-.3-.2-.6-.4-.9-.7-.1-.2-.2-.3-.2-.3zM202.5 261.4c-.2.4-.5.9-.8 1.3-.8 1.1-1.7 2.1-2.7 3-3.3 3-7.5 5-11.9 5.7-2.4.3-4.9.3-7.3 0-2-.2-3.9-.2-5.9.1-1.3.2-2.6.6-3.7 1.3-.8.5-1.2.9-1.2.9s.1-.1.2-.3c.3-.3.5-.5.9-.7 1.1-.8 2.4-1.3 3.8-1.5 2-.3 4-.4 6-.2 2.4.3 4.8.2 7.2-.1 4.4-.7 8.4-2.6 11.8-5.5 1.2-1.3 2.5-2.6 3.6-4zM157.9 258.9c-1.6-.6-3.3-.9-5.1-1-1.9 0-3.7.3-5.5.9-1 .4-2 .9-3.1 1.4-.6.2-1.2.4-1.8.5-.6.1-1.3 0-1.9-.2-1.1-.5-2.2-1.1-3.2-1.8-.9-.6-1.9-1-3-1.4-1.8-.6-3.6-.8-5.5-.7-1.7.2-3.4.5-5 1.1 0 0 .1-.1.3-.2.3-.2.7-.3 1-.4 1.2-.5 2.5-.7 3.7-.9 1.9-.2 3.8.1 5.7.6 1.1.3 2.1.8 3.1 1.4 1 .7 2 1.3 3.1 1.8 1.1.4 2.3.3 3.3-.2 1.1-.4 2-1 3.1-1.3 1.8-.6 3.7-.9 5.6-.8 1.3.1 2.6.3 3.8.7.3.1.7.2 1 .4.3 0 .4.1.4.1zM202.5 255.3c-.3.4-.7.8-1.1 1.1-1 1-2.1 1.9-3.2 2.7-.7.5-1.5 1.1-2.4 1.6-.4.3-.9.6-1.4.8l-1.5.8c-2.3 1.1-4.7 2-7.2 2.6-2.5.6-5 .9-7.6.9h-1.7c-.6 0-1.1-.1-1.6-.1-1.1-.1-2-.3-2.9-.4-1.4-.2-2.7-.6-4.1-1-.5-.1-1-.3-1.4-.5 0-.1 2.1.6 5.6 1.2.9.1 1.8.3 2.9.4.5 0 1 .1 1.6.1h1.7c2.5 0 5-.3 7.5-.9 2.4-.6 4.8-1.5 7.1-2.5l1.5-.8c.5-.3.9-.5 1.4-.8.9-.5 1.7-1.1 2.4-1.5 1.4-1 2.6-1.9 3.3-2.5.3-.6.7-.9 1.1-1.2zM196.4 226.7c-.2.2-.4.3-.6.4l-1.9 1c-1.7.9-4.1 2.1-7.2 3.5-3.7 1.6-7.5 2.7-11.5 3.2-2.3.3-4.7.2-7.1-.1-2.5-.4-4.9-1.1-7.3-2-4.9-1.8-9.3-3.9-13.6-5-3.8-1-7.8-1.3-11.7-.9-2.6.3-5.3.8-7.8 1.7-.9.3-1.6.6-2 .8-.2.1-.5.2-.7.3l.6-.3c.4-.2 1.1-.5 2-.9 2.5-1 5.1-1.6 7.8-1.9 4-.5 8-.2 11.9.8 4.4 1.1 8.9 3.2 13.7 5 2.3.9 4.8 1.5 7.2 2 2.3.4 4.6.4 6.9.2 3.9-.5 7.7-1.5 11.4-3 3.1-1.3 5.6-2.5 7.3-3.3l2-1c.2-.3.4-.4.6-.5zM194.4 211.8c-.6-.7-1.2-1.2-1.9-1.8-2-1.2-4.3-1.8-6.7-1.8-1.6 0-3.2.3-4.7.8-1.6.6-3.4 1.3-5.2 2.2-3.9 1.9-7.9 3.5-12.1 4.6-10 2.5-20.6 1.5-30-2.7-.8-.4-1.3-.7-1.7-.9l-.6-.3c.2.1.4.1.6.2l1.8.8c2.2.9 4.4 1.6 6.7 2.2 3.4.9 6.9 1.4 10.4 1.5 4.3.1 8.6-.3 12.7-1.3 4.1-1.1 8.2-2.6 12-4.5 1.8-.8 3.6-1.6 5.2-2.1 1.6-.6 3.2-.8 4.9-.8 2.4 0 4.8.7 6.8 2 .5.4 1 .8 1.4 1.3.1.2.3.4.4.6z"/><path class="st7" d="m214.5 118.9-14.1-18.5-.6.4-22.4 14.2-23.9.8s-16.8 0-23.1 13.2l-14.5 29 21.3 7.8 3.4-9.8 4.4 22.3-6.3 18.4 53.4 2.9-4.5-26.7 4-32 22.9-22z"/><path class="st4" d="M177.4 162c.1.5.1 1 0 1.5-.1 1.4-.5 2.8-1 4.1-1.8 4.3-5.1 7.9-9.3 10-4.2 2-8.8 3-13.5 2.7-1.4 0-2.8-.2-4.2-.4-.5-.1-1-.2-1.5-.4 0-.1 2.2.3 5.7.3 4.6.1 9.1-.9 13.2-2.8 4.1-2.1 7.3-5.4 9.2-9.6.6-1.7 1.1-3.5 1.4-5.4zM145.2 179.4c-.2 0-2.7-11.6-5.7-25.9-3-14.3-5.3-26-5.1-26s2.7 11.5 5.7 25.9c3 14.3 5.3 25.9 5.1 26z"/><path d="M151.8 180.3c-.6-2.1 1.1-4.2 3-5.2s4.2-1.1 6.3-1.6c4.1-1 7.8-3.4 10.3-6.9.3-.5.7-1 1.3-1 .6 0 1.1.4 1.2 1 .2.6.2 1.3.1 2-1 5.1-5.1 7.3-9.4 9.5-4.2 2.4-7.6 2.6-12.8 2.2" class="st15"/></g></svg>