<svg height="512" viewBox="0 0 512.001 512.001" width="512" xmlns="http://www.w3.org/2000/svg"><path d="M257.435 82.501c-42.576 0-80.209 17.04-106.487 44.68-17.097 29.294-31.254 68.123-28.293 109.066l5.63 77.857c5.014 69.338 61.019 110.324 129.149 115.397 81.16 0 134.128-46.06 139.147-115.398l5.635-77.856c6.168-85.188-59.372-153.746-144.781-153.746z" fill="#ffcbce"/><g fill="#ffb3b7" transform="translate(0 75)"><ellipse cx="257.435" cy="153.228" rx="89.272" ry="53.872"/><path d="m134.286 239.104-5.63-77.857c-2.961-40.943 5.196-79.772 22.293-109.067-26.438 27.807-41.383 66.345-38.293 109.067-15.327 1.108-26.491 19.436-24.936 40.935 1.555 21.5 15.24 38.03 30.566 36.922 5.014 69.338 57.989 115.397 139.149 115.397-59.707-5.517-118.135-46.06-123.149-115.397zM402.217 161.246l-5.635 77.856c15.326 1.109 29.012-15.42 30.568-36.919 1.557-21.499-9.606-39.828-24.933-40.937z"/></g><path d="M333.278 338.872c-222.185-225.915-111.093-112.957 0 0z" fill="#ff8086"/><path d="M257.435 437.001c-81.237 0-137.846-45.24-146.021-115.863-7.161-1.398-13.854-5.592-19.354-12.234-6.76-8.165-10.958-19.238-11.822-31.18-1.641-22.694 8.796-41.952 24.596-47.455-.488-15.294 1.222-30.326 5.098-44.777a7.502 7.502 0 0 1 14.489 3.887c-3.991 14.877-5.433 30.464-4.285 46.328a7.497 7.497 0 0 1-6.94 8.021c-10.988.795-19.229 15.867-17.997 32.914.64 8.854 3.629 16.915 8.416 22.696 2.423 2.928 7.488 7.776 14.129 7.285a7.55 7.55 0 0 1 5.448 1.81 7.498 7.498 0 0 1 2.573 5.13c2.33 32.221 15.596 59.366 38.365 78.5 23.306 19.586 55.57 29.938 93.304 29.938 37.733 0 69.996-10.353 93.301-29.939 22.767-19.133 36.033-46.278 38.365-78.5a7.499 7.499 0 0 1 8.021-6.94c11.015.803 21.313-12.934 22.548-29.98 1.233-17.047-7.007-32.12-17.994-32.915a7.5 7.5 0 0 1-6.939-8.02c2.789-38.538-9.729-74.87-35.251-102.306-26.034-27.986-62.276-43.399-102.051-43.399-52.488 0-99.507 27.877-122.708 72.751a7.5 7.5 0 0 1-13.324-6.888c25.788-49.88 77.913-80.864 136.033-80.864 43.987 0 84.13 17.112 113.033 48.184 26.942 28.962 40.863 66.776 39.57 107.084 15.8 5.504 26.234 24.762 24.593 47.455-1.644 22.698-14.749 40.255-31.181 43.423-8.184 70.614-64.789 115.854-146.015 115.854zm95.384-192.645a7.47 7.47 0 0 1-3.519-.882c-11.837-6.306-31.508-6.322-42.958-.044a7.502 7.502 0 0 1-7.213-13.153c15.831-8.683 40.967-8.7 57.222-.044a7.502 7.502 0 0 1-3.532 14.123zm-190.769 0a7.501 7.501 0 0 1-3.532-14.123c16.256-8.656 41.391-8.638 57.222.044a7.5 7.5 0 0 1-7.213 13.153c-11.45-6.28-31.122-6.26-42.958.044a7.475 7.475 0 0 1-3.519.882z"/><path style="fill:#ff9da3;stroke:#c39bff;stroke-width:0" d="M291.184 278.966c0 6.137-16.595.557-35.923.557-19.329 0-35.553 6.136-35.553 0s17.15-11.667 36.478-11.667c19.329 0 34.998 4.974 34.998 11.11z" transform="translate(0 75)"/><path d="M287.87 281.05a9.507 9.507 0 0 1-4.48-1.124c-15.066-8.026-40.103-8.046-54.676-.056a9.55 9.55 0 0 1-12.961-3.78 9.548 9.548 0 0 1 3.78-12.96c20.15-11.052 52.143-12.555 72.832-1.536 4.653 2.478 6.416 9.739 3.94 14.393a9.547 9.547 0 0 1-8.436 5.062z" style="fill:#ffb3b7;fill-opacity:1;stroke-width:1.2728;opacity:.81587302" transform="translate(0 75)"/><path d="M287.87 277.05a9.507 9.507 0 0 1-4.48-1.124c-15.066-8.026-40.103-8.046-54.676-.056a9.55 9.55 0 0 1-12.961-3.78 9.548 9.548 0 0 1 3.78-12.96c20.15-11.052 52.143-11.075 72.832-.057 4.653 2.478 6.416 8.26 3.94 12.914a9.547 9.547 0 0 1-8.436 5.062z" style="stroke-width:1.2728" transform="translate(0 75)"/><path d="M271.618 220.904c-4.23 0-8.212-1.778-11.091-5.073-.871-1-.769-2.514.23-3.389 1-.877 2.518-.772 3.389.228 2.501 2.86 6.242 4.029 10.025 3.12 3.532-.82 6.44-3.726 7.254-7.24 1.403-5.831-2.024-10.45-6.133-12.006-2.543-1.01-4.472-3.206-5.186-5.887a2.4 2.4 0 0 1 1.7-2.94 2.4 2.4 0 0 1 2.941 1.7c.33 1.24 1.163 2.204 2.28 2.646 7.05 2.671 10.877 10.076 9.07 17.59-1.23 5.316-5.48 9.57-10.821 10.809a15.494 15.494 0 0 1-3.658.442zM237.425 220.904c-1.21 0-2.44-.147-3.674-.442-5.323-1.236-9.573-5.49-10.809-10.829-1.803-7.494 2.027-14.896 9.112-17.58 1.252-.486 2.155-1.72 2.341-3.209 0 0 2.394-3.23 4.77.573-.408 3.267-2.473 5.986-5.391 7.123-4.129 1.563-7.556 6.182-6.16 11.992.82 3.536 3.729 6.44 7.24 7.257 3.791.9 7.542-.253 10.043-3.116a2.39 2.39 0 0 1 3.389-.228c.999.872 1.101 2.39.23 3.389-2.876 3.29-6.857 5.07-11.091 5.07z" style="stroke-width:7.00001367;stroke:#000;stroke-opacity:1;stroke-miterlimit:4;stroke-dasharray:none" transform="translate(0 75)"/><path d="M254.521 220.914a11.65 11.65 0 0 1-9.528-4.958c-1.367-1.96-3.459-3.05-5.685-3.05h-1.601a2.403 2.403 0 0 1 0-4.804h1.601a11.65 11.65 0 0 1 9.529 4.958c1.367 1.96 3.459 3.05 5.684 3.05a6.83 6.83 0 0 0 5.593-2.912c2.27-3.241 5.829-5.096 9.62-5.096h1.602a2.403 2.403 0 0 1 0 4.805h-1.601a6.83 6.83 0 0 0-5.592 2.911c-2.271 3.241-5.83 5.096-9.622 5.096z" style="stroke:#000;stroke-width:7.00001;stroke-miterlimit:4;stroke-dasharray:none;stroke-opacity:1" transform="translate(0 75)"/><path d="M184.343 100.25c-6.33 2.007-12.149 5.622-16.061 10.4a7.5 7.5 0 0 0 11.606 9.504c4.135-5.05 13.277-7.948 19.565-6.204a7.499 7.499 0 0 0 9.232-5.222 7.5 7.5 0 0 0-5.221-9.231c-5.951-1.653-12.791-1.254-19.12.753zM324.381 103.21c6.33 2.006 12.15 5.621 16.062 10.4a7.5 7.5 0 0 1-11.606 9.504c-4.135-5.051-13.278-7.949-19.565-6.205a7.499 7.499 0 0 1-9.233-5.221 7.5 7.5 0 0 1 5.222-9.232c5.95-1.653 12.79-1.254 19.12.753z" style="stroke-width:1" transform="translate(0 75)"/></svg>