<svg height="582.565" width="582.565" xmlns="http://www.w3.org/2000/svg"><path d="m423.425 204.233-28.8 21.59c-8.89-11.75-38.49-42.32-68.06-42.32-35.34 0-46.653 32.651-55.852 13.834l-.853-35.28 31.204-18.394 7.5-85.52h36v88.207a3.983 3.983 0 0 0 2.989 3.864c43.178 11.02 74.376 52.016 75.872 54.019z" fill="#fdba91"/><path d="M443.482 477.91c-15.727 0-133.318 8.503-133.318-134.39 0-142.893-13.433-241.514 36.023-241.514S504.5 263.625 504.5 384.998c0 72.7-43.595 92.912-61.018 92.912z" fill="#fa6f5f" style="fill:#ff5d68;fill-opacity:1" transform="translate(70.565 24.137)"/><path d="M346.187 102.007c-5.791 0-10.709 1.369-14.898 3.986C384.835 131.54 474.5 274.842 474.5 384.998c0 65.692-35.593 88.526-55.31 92.318 11.694 1.039 20.682.595 24.292.595 17.423 0 61.018-20.213 61.018-92.913 0-121.373-108.857-282.991-158.313-282.991z" fill="#eb5e4e" style="fill:#ff424f;fill-opacity:1" transform="translate(70.565 24.137)"/><path d="M564.382 311.295c-10.627-31.191-25.67-63.361-43.5-93.033-16.964-28.232-35.376-52.538-53.244-70.29-19.59-19.46-36.71-29.328-50.887-29.328-21.705 0-32.867 15.413-38.51 36.182-8.322-4.726-17.044-8.566-26.177-11.163v-85.52a7.5 7.5 0 0 0-7.5-7.5h-36a7.5 7.5 0 0 0-7.5 7.5v85.52c-8.166 2.322-26.177 11.163-26.177 11.163s-14.702 3.013-12.426 13.15c5.12 50.51 6.323 40.069 50.6 25.275a7.5 7.5 0 0 0 4.86-9.428 7.5 7.5 0 0 0-9.427-4.86 73.806 73.806 0 0 0-4.484 1.603l-8.231-19.232c3.903-1.57 7.792-2.868 11.653-3.854a11.474 11.474 0 0 0 8.634-11.126v-13.46h21v13.46c0 5.252 3.55 9.828 8.635 11.127 3.86.985 7.749 2.283 11.652 3.853l-8.263 19.307a74.388 74.388 0 0 0-4.228-1.545 7.501 7.501 0 0 0-4.666 14.256c12.294 4.024 23.61 12.344 31.619 19.37-.572 22.573-.078 48.953.49 78.968.456 24.068.927 48.956.927 75.969 0 47.262 12.563 83.563 37.339 107.896 15.33 15.055 35.08 25.28 58.702 30.392 18.984 4.108 32.367 3.602 44.777 3.602 10.97 0 29.112-6.12 44.135-23.37a7.5 7.5 0 0 0-11.312-9.851c-10.903 12.519-24.658 18.22-32.823 18.22-1.78 0-4.705.1-8.457.1-18.313 0-56.568-2.352-84.511-29.795-21.797-21.407-32.85-54.107-32.85-97.194 0-27.155-.494-53.24-.93-76.253-.965-51.033-1.791-94.761 3.316-123.133.02-.1.037-.198.053-.296 3.232-17.75 9.08-34.332 26.084-34.332 9.647 0 24.342 9.1 40.315 24.97 16.759 16.649 34.856 40.577 50.959 67.374 37.278 62.04 59.536 130.506 59.536 183.145 0 15.703-2.14 29.787-6.361 41.859a7.5 7.5 0 1 0 14.159 4.95c4.779-13.666 7.202-29.416 7.202-46.81 0-29.511-6.118-62.43-18.183-97.838zM290.555 187.252a116.751 116.751 0 0 0-10.034 6.785c-.541-8.593-1.328-16.49-2.432-23.676a127.667 127.667 0 0 1 4.175-2.48zm46.51-121.608v15.25h-21v-15.25zm-21 52.25v-22h21v22zm46.475 69.439 8.326-19.453c1.392.79 2.784 1.617 4.175 2.479-1.106 7.2-1.894 15.113-2.435 23.724a122.159 122.159 0 0 0-10.066-6.75z"/><path d="M513.42 342.205a7.5 7.5 0 1 0 12.241-8.669c-13.941-19.69-33.302-35.983-52.401-44.255-4.576-16.554-11.126-32.085-20.203-46.362 12.14 1.619 24.096 1.087 35.698-1.42a7.501 7.501 0 0 0-3.167-14.662 88.963 88.963 0 0 1-46.275-2.358c-7.206-8.321-14.82-15.415-22.425-21.782a7.5 7.5 0 1 0-9.629 11.501c16.54 13.848 32.33 30.558 43.562 56.002-.354 14.232-6.517 33.504-19.587 43.567a7.5 7.5 0 0 0 9.15 11.886c9.14-7.037 15.65-17.097 19.8-27.732 5.443 21.938 8.115 48.965 6.756 83.025a7.5 7.5 0 0 0 14.988.598c1.142-28.608-.555-52.684-4.315-73.168 13.173 7.938 25.947 19.903 35.808 33.829z"/><g><path d="M333.48 328.768c-22.362 0-40.49 18.129-40.49 40.49v86.666c0 17.962-14.561 32.523-32.523 32.523h-60.93c-17.963 0-32.524-14.561-32.524-32.523V427.21c0-7.27 1.628-14.448 4.765-21.006l40.918-85.555-29.437-14.079-29.382 61.437c-2.063 4.313-8.202 4.313-10.264 0l-29.384-61.437-29.436 14.079 40.918 85.555a48.692 48.692 0 0 1 4.765 21.006v30.894c0 36.936 29.943 66.88 66.88 66.88h65.291c36.937 0 66.88-29.944 66.88-66.88v-84.019a8.78 8.78 0 0 1 8.781-8.78h59.143v-36.538z" fill="#1c8ae5"/><path d="m212.696 320.65-16.972-8.117-12.465-5.962-26.856 56.155 2.526 5.282c2.062 4.313 8.201 4.313 10.263 0l10.146-21.214a10.34 10.34 0 0 1 9.33-5.88h14.336zM308.306 455.924v-86.665c0-22.363 18.129-40.49 40.49-40.49H333.48c-22.362 0-40.49 18.128-40.49 40.49v86.665c0 17.962-14.561 32.523-32.523 32.523h15.316c17.962 0 32.523-14.561 32.523-32.523zM145.792 458.105V427.21c0-7.27-1.628-14.448-4.765-21.006l-24.146-50.488c-3.283-6.863 1.72-14.803 9.329-14.803h4.444L117.08 312.53l-2.852-5.962-29.436 14.079 40.918 85.556a48.679 48.679 0 0 1 4.765 21.006v30.894c0 36.937 29.943 66.88 66.88 66.88h15.316c-36.936 0-66.88-29.943-66.88-66.88z" fill="#1e6ee2"/><path d="m101.918 117.026-20.764-7.05V72.98l20.764-7.05c7.348-2.495 14.974 2.969 14.974 10.729v29.637c-.001 7.762-7.626 13.225-14.974 10.73zM195.57 65.93l20.764 7.05v36.995l-20.764 7.05c-7.348 2.495-14.973-2.969-14.973-10.729V76.66c0-7.761 7.624-13.224 14.973-10.73z" fill="#b3e59f"/><path d="M20.251 220.801h37.342l-19.981-55.23a42.322 42.322 0 0 1 5.21-38.787l3.653-5.18a27.44 27.44 0 0 1 22.426-11.628h12.252V72.98H71.53a69.506 69.506 0 0 0-56.804 29.452l1.999.001C.45 125.513-1.522 155.09 8.085 181.646zM251.012 121.603l3.654 5.181a42.32 42.32 0 0 1 5.21 38.785l-19.98 55.231h37.341l14.166-39.156c9.606-26.556 7.634-56.131-8.64-79.21a69.506 69.506 0 0 0-56.805-29.454h-9.623v36.996h12.252a27.439 27.439 0 0 1 22.425 11.627z" fill="#e9efff"/><path d="M218.1 281.046a13.88 13.88 0 0 1-13.051 9.158H92.439a13.88 13.88 0 0 1-13.051-9.158l-21.795-60.245H20.251l30.463 84.204c4.819 13.32 15.467 22.195 29.631 22.195h136.8a33.638 33.638 0 0 0 31.63-22.195l28.462-84.204h-37.342z" fill="#42c3fc"/><path d="M39.374 102.433a69.503 69.503 0 0 1 49.78-29.09v-.363h-9.623a69.506 69.506 0 0 0-56.804 29.452l-.001.001a86.43 86.43 0 0 0-10.64 79.213L26.25 220.8H42.9l-14.165-39.155a86.43 86.43 0 0 1 10.64-79.213zM271.315 126.785l-3.654-5.18a27.44 27.44 0 0 0-22.426-11.628h-12.252V73.343a69.486 69.486 0 0 0-7.025-.363h-9.623v36.996h12.252a27.441 27.441 0 0 1 22.426 11.627l3.654 5.181a42.32 42.32 0 0 1 5.21 38.785l-19.98 55.231h16.647l19.98-55.23a42.318 42.318 0 0 0-5.21-38.785z" fill="#d3dcfb"/><path d="m234.748 281.046 21.795-60.245h-16.648l-21.794 60.245a13.88 13.88 0 0 1-13.052 9.158h16.648a13.88 13.88 0 0 0 13.051-9.158zM73.361 305.005l-30.463-84.204H26.25l30.463 84.204A33.638 33.638 0 0 0 88.344 327.2h16.648a33.639 33.639 0 0 1-31.63-22.195z" fill="#1aa9e8"/><circle cx="451.824" cy="312.086" fill="#bac5e2" r="50" transform="translate(-10.462 58.395) scale(.92488)"/><path d="M377.492 347.037c0-22.754 16.44-41.657 38.086-45.512a46.49 46.49 0 0 0-8.157-.732c-25.54 0-46.244 20.705-46.244 46.244 0 25.54 20.704 46.244 46.244 46.244 2.785 0 5.508-.26 8.157-.731-21.646-3.856-38.086-22.759-38.086-45.513z" fill="#a7b4d1"/><circle cx="451.824" cy="312.086" fill="#e9efff" r="19.339" transform="translate(-10.462 58.395) scale(.92488)"/><g><path d="M450.283 315.552a6.937 6.937 0 0 0-11.175 8.221c4.985 6.777 7.62 14.821 7.62 23.263 0 21.675-17.633 39.308-39.308 39.308s-39.307-17.633-39.307-39.308c0-21.674 17.632-39.307 39.307-39.307 4.555 0 9.016.77 13.258 2.29a6.937 6.937 0 0 0 4.679-13.06 53.041 53.041 0 0 0-17.937-3.103c-29.324 0-53.18 23.856-53.18 53.18 0 3.89.43 7.679 1.227 11.333h-17.16c-8.666 0-15.717 7.051-15.717 15.717v84.019c0 33.052-26.891 59.943-59.943 59.943h-65.292c-33.053 0-59.944-26.891-59.944-59.943V427.21a55.951 55.951 0 0 0-5.444-24l-33.036-69.076h20.792l17.63 36.866c2.119 4.428 6.483 7.178 11.392 7.178 4.907 0 9.27-2.751 11.387-7.178l17.63-36.865h20.793l-33.037 69.077a55.951 55.951 0 0 0-5.444 23.999v28.713c0 21.757 17.703 39.46 39.46 39.46h60.93c21.759 0 39.46-17.703 39.46-39.46V369.26c0-18.502 15.052-33.554 33.555-33.554h4.259a6.936 6.936 0 0 0 6.936-6.937 6.936 6.936 0 0 0-6.936-6.936h-4.26c-26.15 0-47.426 21.276-47.426 47.427v86.665c0 14.108-11.478 25.586-25.587 25.586h-60.93c-14.11 0-25.587-11.478-25.587-25.586v-28.713a42.008 42.008 0 0 1 4.085-18.014l35.9-75.062h3.208c17.03 0 24.362-10.758 30.155-26.771l44.628-123.361c10.37-28.666 6.073-60.654-11.494-85.567-14.3-20.284-37.654-32.393-62.473-32.393h-8.476l-19.682-6.683a18.307 18.307 0 0 0-16.512 2.448 18.308 18.308 0 0 0-7.628 14.849v29.638a18.305 18.305 0 0 0 7.628 14.848 18.3 18.3 0 0 0 16.513 2.449l19.677-6.682h11.11c6.656 0 12.92 3.249 16.756 8.689l3.654 5.182a35.409 35.409 0 0 1 4.355 32.428l-41.775 115.476a6.964 6.964 0 0 1-6.53 4.58H100.44a6.966 6.966 0 0 1-6.53-4.58L52.135 163.21a35.404 35.404 0 0 1 4.356-32.428l3.653-5.181a20.53 20.53 0 0 1 16.757-8.689h11.107l19.68 6.682a18.302 18.302 0 0 0 16.514-2.448 18.306 18.306 0 0 0 7.626-14.849V76.66a18.308 18.308 0 0 0-7.627-14.85 18.303 18.303 0 0 0-16.513-2.448l-19.68 6.682H79.53c-24.817 0-48.172 12.11-62.474 32.391-17.567 24.914-21.864 56.903-11.493 85.57l44.628 123.36c5.793 16.012 13.125 26.77 30.153 26.77h3.21l35.899 75.062a42.001 42.001 0 0 1 4.085 18.014v30.894c0 40.702 33.114 73.816 73.817 73.816h65.292c40.703 0 73.816-33.114 73.816-73.816v-84.019c0-1.017.828-1.844 1.844-1.844h22.297c8.997 16.643 26.606 27.975 46.816 27.975 29.324 0 53.18-23.856 53.18-53.18.002-11.422-3.567-22.309-10.317-31.485zm-301.54 47.11-13.642-28.527h27.286zm52.654-257.658-16.056 5.453c-1.934.654-3.422-.194-3.974-.59-.55-.394-1.834-1.534-1.834-3.57l13.643-29.638c0-2.038 1.284-3.177 1.834-3.572.407-.292 1.326-.83 2.553-.83.437 0 .914.069 1.42.24l16.057 5.454zM258.4 167.93a49.288 49.288 0 0 0-6.064-45.142l-3.654-5.182a34.42 34.42 0 0 0-28.094-14.567h-5.316V79.917h2.686c20.315 0 39.43 9.912 51.136 26.514a79.549 79.549 0 0 1 9.786 72.853l-12.51 34.58h-24.588zM112.147 72.499c1.928-.656 3.42.194 3.972.589.552.395 1.835 1.534 1.835 3.572v29.637c0 2.038-1.283 3.177-1.835 3.572-.55.396-2.042 1.243-3.972.59l-16.057-5.454V77.951zm-83.75 33.93c11.705-16.6 30.82-26.512 51.134-26.512h2.686v23.122H76.9a34.422 34.422 0 0 0-28.095 14.567l-3.653 5.181a49.29 49.29 0 0 0-6.064 45.144l16.617 45.934H31.118L18.61 179.286a79.546 79.546 0 0 1 9.787-72.856zm34.84 196.217-27.1-74.908h24.588l20.14 55.669c2.972 8.214 10.84 13.734 19.575 13.734h96.609c8.735 0 16.602-5.52 19.575-13.734l20.138-55.668h24.588l-27.099 74.908c-3.811 10.538-13.902 17.617-25.108 17.617H88.344c-11.205-.001-21.295-7.08-25.107-17.618z"/><path d="M407.42 322.214c-13.686 0-24.822 11.135-24.822 24.822 0 13.688 11.136 24.823 24.823 24.823 13.688 0 24.824-11.135 24.824-24.823-.001-13.686-11.137-24.822-24.824-24.822zm0 35.773c-6.037 0-10.949-4.912-10.949-10.95 0-6.037 4.912-10.95 10.95-10.95 6.038 0 10.95 4.913 10.95 10.95 0 6.038-4.912 10.95-10.95 10.95z"/></g></g></svg>