<svg height="512" width="512" xmlns="http://www.w3.org/2000/svg"><path d="M471.977 205.061c-8.564 3.929-17.127 20.666-17.127 20.666l-20.65-10.061c-10.761-5.243-21.767-3.706-30.13 1.748-6.654 9.447-10.371 19.007-4.992 30.398l6.807 36.253c-17.684-10.167-40.301-13.907-61.631-13.907l14.904-26.337a30.43 30.43 0 0 0-2.946-12.987 30.532 30.532 0 0 0-30.598-17.29l-11.867 1.178c-3.538-9.327-14.026-19.135-28.422-18.799l-14.618 3.638c-3.853-10.879-10.803-19.661-18.707-25.703 2.333-18.81-10.069-27.637-26.852-23.21-20.479-34.106-57.824-56.93-100.502-56.93-25.046 0-48.252 7.865-67.295 21.253C27.629 141.066 16.5 171.243 16.5 203.863c0 64.698 52.448 116.145 117.145 116.145h53.604c.57 0 28.043 28.615 33.152 33.033 77.657 67.141 201.622 73.678 263.102 22.762 11.808-17.543 12.972-41.02 1.497-60.141l-23.395-38.986s35.572 2.802 41.052-15.941c1.387-6.784 1.843-14.171 1.843-21.427 0-28.742-18.167-37.713-32.523-34.247z" fill="#ffcdbe"/><path d="M405.885 284.065 392.867 256.5c-7.31-15.477-.756-31.287 11.203-39.086-3.408 9.113-3.019 21.29 2.36 32.68l33.052 69.982c1.754 3.713.422 8.303-3.237 10.167a7.5 7.5 0 0 1-10.192-3.477zm-185.484 58.976a26.762 26.762 0 0 1-7.792-28.985c.952-2.752 1.755-5.034 2.249-6.362 0 0 5.121-13.792 10.069-21.209s11.849-13.322 19.942-17.065l61.079-28.249c9.202-4.256 2.907-17.872-6.297-13.614l-12.254 5.668c2.042-10.427 1.722-19.405.586-26.429a70.808 70.808 0 0 0-2.659-10.871c-4.52.106-9.421 1.2-14.618 3.638 4.172 11.779 4.703 26.019-1.146 41.912h.001l-30.989 14.333a63.372 63.372 0 0 0-26.122 22.354c-5.756 8.627-11.067 22.733-11.654 24.313-2.883 7.764-7.661 10.536-13.547 10.536h-53.604c-64.698 0-111.145-47.448-111.145-112.145 0-32.62 13.337-63.393 34.851-85.893C27.204 136.165 7.5 171.211 7.5 210.863c0 64.698 52.448 117.145 117.145 117.145h58.026c73.576 93.698 213.102 114.444 286.962 62.018a55.198 55.198 0 0 0 13.869-14.223c-65.428 45.347-185.443 34.379-263.101-32.762zm39.804-31.282c2.206 3.464 6.903 4.35 10.431 2.248l73.618-43.85c9.552-5.689 14.934-15.849 14.904-26.337l-96.468 57.461a7.5 7.5 0 0 0-2.485 10.478zm238.723-39.362c1.671-3.544 2.875-7.489 3.729-11.662-4.519 7.279-13.568 12.684-27.003 6.425l-27.426-12.777 13.378 22.293 9.048 4.484c11.594 5.746 24.333-.407 28.274-8.763zm-30.843-55.221c0-4.712 1.465-8.806 3.892-12.115-9.376 2.264-17.127 9.829-17.127 20.666l13.236 6.449-.001-15z" fill="#ebae9d"/><path d="M371.035 425.782c-26.171 0-53.592-4.511-80.496-13.687a7.5 7.5 0 0 1 4.843-14.197c30.431 10.379 62.379 14.577 92.398 12.135 30.079-2.446 56.882-11.479 77.512-26.123 20.417-14.491 26.248-42.774 13.277-64.389l-36.773-61.279a7.501 7.501 0 0 1 12.862-7.719l12.247 20.408 7.079 3.508c4.358 2.159 8.343 1.544 10.918.648 3.294-1.147 6.07-3.404 7.243-5.89 3.267-6.926 4.855-16.703 4.855-29.89 0-20.081-9.761-27.349-18.896-27.456l-.198-.001c-6.259 0-12.729 3.474-14.843 9.536l8.306 4.047a7.5 7.5 0 0 1 3.457 10.027 7.498 7.498 0 0 1-10.027 3.457l-33.885-16.51c-10.938-5.328-20.899-1.238-26.574 4.37-5.675 5.607-9.888 15.518-4.692 26.519l33.186 70.267a7.5 7.5 0 0 1-3.579 9.985 7.5 7.5 0 0 1-9.985-3.579l-19.136-40.517c-17.487-9.329-38.573-11.604-53.838-11.783l-72.094 42.942a7.497 7.497 0 0 1-10.281-2.605 7.5 7.5 0 0 1 2.605-10.281l73.888-44.011c10.267-6.116 14.145-18.868 9.02-29.664-4.157-8.759-13.433-13.999-23.082-13.043l-11.867 1.178a7.5 7.5 0 0 1-7.753-4.803c-1.557-4.105-5.571-9.482-12.168-12.266-4.567-1.928-9.491-2.237-14.688-.93 2.842 12.754 1.896 27.313-4.439 42.832l27.361-12.655a7.5 7.5 0 1 1 6.297 13.615l-61.079 28.25a40.88 40.88 0 0 0-16.851 14.42c-3.649 5.469-7.935 16.045-9.279 19.659a7.502 7.502 0 0 1-9.642 4.418 7.499 7.499 0 0 1-4.419-9.64c.221-.597 5.488-14.708 10.862-22.761a55.864 55.864 0 0 1 23.032-19.71l11.116-5.141c14.436-21.464 15.97-40.25 11.083-54.761-8.009 5.469-19.124 9.21-29.213 9.409-4.122.054-7.565-3.209-7.646-7.351s3.209-7.565 7.351-7.646c8.896-.176 17.65-4.143 22.429-7.831a49.01 49.01 0 0 0-9.395-9.476 7.502 7.502 0 0 1-2.888-6.882c.756-6.1-.429-10.859-3.339-13.401-2.998-2.62-8.159-3.217-14.157-1.633a7.504 7.504 0 0 1-8.343-3.391 110.301 110.301 0 0 0-11.38-15.646 7.5 7.5 0 0 1 11.309-9.855 125.42 125.42 0 0 1 10.112 13.302c8.804-1.124 16.594.915 22.33 5.927 5.898 5.154 8.911 12.963 8.677 22.283 6.137 5.352 11.331 11.934 15.091 19.485 10.905-3.114 19.735-1.161 25.543 1.29 7.427 3.134 13.774 8.711 17.785 15.449l6.689-.664c15.928-1.577 31.249 7.074 38.114 21.538 5.656 11.915 4.67 25.275-1.667 35.84 9.249.886 19.354 2.631 29.287 5.818l-4.521-9.574c-7.038-14.901-4.01-32.014 7.713-43.596 11.724-11.582 28.871-14.402 43.687-7.183l12.031 5.862c1.703-4.059 4.377-7.686 7.907-10.638 5.732-4.794 13.114-7.388 20.857-7.294 16.784.196 33.72 13.4 33.72 42.455 0 15.448-2.057 27.318-6.289 36.289-2.873 6.091-8.809 11.196-15.877 13.657a29.248 29.248 0 0 1-10.961 1.621l12.559 20.927c16.979 28.294 9.311 65.34-17.457 84.34-27.6 19.588-63.877 29.639-102.941 29.639zm-105.574-24.517a7.473 7.473 0 0 1-3.239-.74c-32.59-15.636-61.268-38.07-83.158-65.017h-54.418C55.916 335.509 0 279.593 0 210.863S55.916 86.218 124.646 86.218c25.941 0 50.81 7.895 71.917 22.831a7.5 7.5 0 1 1-8.664 12.244c-18.56-13.133-40.433-20.075-63.253-20.075C64.187 101.218 15 150.404 15 210.863s49.187 109.646 109.646 109.646h58.026a7.5 7.5 0 0 1 5.899 2.868c20.75 26.425 48.462 48.426 80.14 63.624a7.5 7.5 0 0 1 3.518 10.006 7.504 7.504 0 0 1-6.768 4.258zM143.472 293.503c-20.8 0-37.722-16.922-37.722-37.722 0-17.185 13.981-31.166 31.166-31.166a7.5 7.5 0 0 1 0 15c-8.914 0-16.166 7.252-16.166 16.166 0 12.529 10.193 22.722 22.722 22.722 8.914 0 16.166-7.252 16.166-16.166a7.5 7.5 0 0 1 15 0c-.001 17.185-13.982 31.166-31.166 31.166zm42.287-93.977c-1.5 0-3.01-.142-4.515-.428a7.5 7.5 0 0 1 2.804-14.736 8.834 8.834 0 0 0 6.66-1.383 8.83 8.83 0 0 0 3.732-5.687 7.495 7.495 0 0 1 8.77-5.966 7.5 7.5 0 0 1 5.966 8.77 23.728 23.728 0 0 1-10.03 15.286c-4.009 2.727-8.643 4.144-13.387 4.144z"/><g><path style="fill:none;stroke:#1c8ae5;stroke-width:12;stroke-linecap:round;stroke-linejoin:round;stroke-miterlimit:4;stroke-dasharray:none;stroke-opacity:1" d="m300.393 181.272-12.484-27.16h-.74M287.91 154.112l29.464-5.029.192-.714" transform="rotate(-120.805 303.505 154.973)"/><path style="fill:none;stroke:#1c8ae5;stroke-width:12;stroke-linecap:round;stroke-linejoin:round;stroke-miterlimit:4;stroke-dasharray:none;stroke-opacity:1" d="m326.289 76.185.74 80.786" transform="translate(-16.277 11.838)"/></g><g><path style="fill:none;stroke:#1c8ae5;stroke-width:12;stroke-linecap:round;stroke-linejoin:round;stroke-miterlimit:4;stroke-dasharray:none;stroke-opacity:1" d="m300.393 181.272-12.484-27.16h-.74M287.91 154.112l29.464-5.029.192-.714" transform="rotate(-120.805 332.787 138.34)"/><path style="fill:none;stroke:#1c8ae5;stroke-width:12;stroke-linecap:round;stroke-linejoin:round;stroke-miterlimit:4;stroke-dasharray:none;stroke-opacity:1" d="m326.289 76.185.74 80.786" transform="translate(42.287 11.838)"/></g></svg>