<svg height="582.565" width="582.565" xmlns="http://www.w3.org/2000/svg"><path d="m423.425 204.233-28.8 21.59c-8.89-11.75-38.49-42.32-68.06-42.32-35.34 0-46.653 32.651-55.852 13.834l-.853-35.28 31.204-18.394 7.5-85.52h36v88.207a3.983 3.983 0 0 0 2.989 3.864c43.178 11.02 74.376 52.016 75.872 54.019z" fill="#fdba91"/><path d="M443.482 477.91c-15.727 0-133.318 8.503-133.318-134.39 0-142.893-13.433-241.514 36.023-241.514S504.5 263.625 504.5 384.998c0 72.7-43.595 92.912-61.018 92.912z" fill="#fa6f5f" style="fill:#ff5d68;fill-opacity:1" transform="translate(70.565 24.137)"/><path d="M346.187 102.007c-5.791 0-10.709 1.369-14.898 3.986C384.835 131.54 474.5 274.842 474.5 384.998c0 65.692-35.593 88.526-55.31 92.318 11.694 1.039 20.682.595 24.292.595 17.423 0 61.018-20.213 61.018-92.913 0-121.373-108.857-282.991-158.313-282.991z" fill="#eb5e4e" style="fill:#ff424f;fill-opacity:1" transform="translate(70.565 24.137)"/><path d="M564.382 311.295c-10.627-31.191-25.67-63.361-43.5-93.033-16.964-28.232-35.376-52.538-53.244-70.29-19.59-19.46-36.71-29.328-50.887-29.328-21.705 0-32.867 15.413-38.51 36.182-8.322-4.726-17.044-8.566-26.177-11.163v-85.52a7.5 7.5 0 0 0-7.5-7.5h-36a7.5 7.5 0 0 0-7.5 7.5v85.52c-8.166 2.322-26.177 11.163-26.177 11.163s-14.702 3.013-12.426 13.15c5.12 50.51 6.323 40.069 50.6 25.275a7.5 7.5 0 0 0 4.86-9.428 7.5 7.5 0 0 0-9.427-4.86 73.806 73.806 0 0 0-4.484 1.603l-8.231-19.232c3.903-1.57 7.792-2.868 11.653-3.854a11.474 11.474 0 0 0 8.634-11.126v-13.46h21v13.46c0 5.252 3.55 9.828 8.635 11.127 3.86.985 7.749 2.283 11.652 3.853l-8.263 19.307a74.388 74.388 0 0 0-4.228-1.545 7.501 7.501 0 0 0-4.666 14.256c12.294 4.024 23.61 12.344 31.619 19.37-.572 22.573-.078 48.953.49 78.968.456 24.068.927 48.956.927 75.969 0 47.262 12.563 83.563 37.339 107.896 15.33 15.055 35.08 25.28 58.702 30.392 18.984 4.108 32.367 3.602 44.777 3.602 10.97 0 29.112-6.12 44.135-23.37a7.5 7.5 0 0 0-11.312-9.851c-10.903 12.519-24.658 18.22-32.823 18.22-1.78 0-4.705.1-8.457.1-18.313 0-56.568-2.352-84.511-29.795-21.797-21.407-32.85-54.107-32.85-97.194 0-27.155-.494-53.24-.93-76.253-.965-51.033-1.791-94.761 3.316-123.133.02-.1.037-.198.053-.296 3.232-17.75 9.08-34.332 26.084-34.332 9.647 0 24.342 9.1 40.315 24.97 16.759 16.649 34.856 40.577 50.959 67.374 37.278 62.04 59.536 130.506 59.536 183.145 0 15.703-2.14 29.787-6.361 41.859a7.5 7.5 0 1 0 14.159 4.95c4.779-13.666 7.202-29.416 7.202-46.81 0-29.511-6.118-62.43-18.183-97.838zM290.555 187.252a116.751 116.751 0 0 0-10.034 6.785c-.541-8.593-1.328-16.49-2.432-23.676a127.667 127.667 0 0 1 4.175-2.48zm46.51-121.608v15.25h-21v-15.25zm-21 52.25v-22h21v22zm46.475 69.439 8.326-19.453c1.392.79 2.784 1.617 4.175 2.479-1.106 7.2-1.894 15.113-2.435 23.724a122.159 122.159 0 0 0-10.066-6.75z"/><path d="M513.42 342.205a7.5 7.5 0 1 0 12.241-8.669c-13.941-19.69-33.302-35.983-52.401-44.255-4.576-16.554-11.126-32.085-20.203-46.362 12.14 1.619 24.096 1.087 35.698-1.42a7.501 7.501 0 0 0-3.167-14.662 88.963 88.963 0 0 1-46.275-2.358c-7.206-8.321-14.82-15.415-22.425-21.782a7.5 7.5 0 1 0-9.629 11.501c16.54 13.848 32.33 30.558 43.562 56.002-.354 14.232-6.517 33.504-19.587 43.567a7.5 7.5 0 0 0 9.15 11.886c9.14-7.037 15.65-17.097 19.8-27.732 5.443 21.938 8.115 48.965 6.756 83.025a7.5 7.5 0 0 0 14.988.598c1.142-28.608-.555-52.684-4.315-73.168 13.173 7.938 25.947 19.903 35.808 33.829z"/><g><path d="M274.887 162.826c-25.425 0-48.206 12.043-63.622 31.07-15.417-19.027-38.198-31.07-63.622-31.07-46.446 0-84.103 40.182-84.103 89.754 0 43.322 39.584 116.92 127.254 161.98a312.718 312.718 0 0 0 17.653 8.383 7.047 7.047 0 0 0 5.637 0 312.46 312.46 0 0 0 17.654-8.382C319.396 369.5 358.98 295.902 358.98 252.58c0-49.573-37.649-89.755-84.094-89.755z" fill="#fc5a95"/><path d="M358.98 252.577c0 43.328-39.582 116.92-127.242 161.985a313.093 313.093 0 0 1-17.658 8.383 7.05 7.05 0 0 1-5.635-.001 311.919 311.919 0 0 1-17.65-8.381c-.3-.15-.592-.306-.883-.463 87.04-45.1 126.352-118.343 126.352-161.522 0-41.69-26.625-76.738-62.727-86.826a79.026 79.026 0 0 1 21.35-2.926c46.447-.001 84.094 40.18 84.094 89.751z" fill="#fb3a82"/><g><path d="M158.25 286.438c-18.216 0-34.538 8.628-45.585 22.262-11.046-13.634-27.368-22.262-45.584-22.262-33.278 0-60.26 28.79-60.26 64.308 0 31.04 28.362 83.772 91.176 116.058a223.477 223.477 0 0 0 11.844 5.653 6.999 6.999 0 0 0 5.649 0 223.742 223.742 0 0 0 11.843-5.653c62.808-32.286 91.17-85.018 91.17-116.058 0-35.517-26.974-64.308-60.252-64.308z" fill="#fca5cd"/><path d="M218.504 350.743c0 31.04-28.363 83.772-91.17 116.058a223.839 223.839 0 0 1-11.846 5.651 7 7 0 0 1-5.651-.001c-4.072-1.8-8.02-3.687-11.84-5.65a159.599 159.599 0 0 1-3.482-1.837c60.372-32.414 87.68-83.765 87.68-114.221 0-28.769-17.69-53.117-42.102-61.333a56.557 56.557 0 0 1 18.154-2.976c33.282.001 60.257 28.791 60.257 64.309z" fill="#fc7cb6"/></g><g><path d="M297.132 361.201c-19.346 19.08-42.165 35.444-67.825 48.634a308.261 308.261 0 0 1-17.353 8.239 1.724 1.724 0 0 1-1.38 0 309.283 309.283 0 0 1-10.949-5.047c.405-.556.8-1.106 1.183-1.647 14.623-20.65 23.01-42.749 23.01-60.633 0-18.864-6.99-36.525-19.682-49.73a5.315 5.315 0 0 0-7.663 7.366c10.78 11.215 16.716 26.261 16.716 42.365 0 31.97-30.942 81.854-88.284 111.332a219.518 219.518 0 0 1-11.562 5.517c-.43.19-.924.19-1.354 0-3.91-1.727-7.8-3.584-11.561-5.517-57.348-29.478-88.292-79.362-88.292-111.334 0-32.53 24.648-58.994 54.945-58.994 15.897 0 31.006 7.397 41.455 20.294a5.314 5.314 0 0 0 8.258 0c10.45-12.896 25.56-20.293 41.457-20.293a51.351 51.351 0 0 1 20.932 4.438 5.314 5.314 0 0 0 4.305-9.718 61.918 61.918 0 0 0-25.238-5.349c-17.102 0-33.406 7.068-45.585 19.582-10.56-10.85-24.222-17.603-38.815-19.207-3.27-10.358-4.997-20.32-4.997-28.918 0-46.56 35.344-84.44 78.789-84.44 22.824 0 44.508 10.607 59.493 29.101a5.313 5.313 0 0 0 8.258 0c12.806-15.805 30.48-25.911 49.768-28.456a5.315 5.315 0 0 0-1.39-10.538c-19.983 2.636-38.41 12.344-52.508 27.542-16.754-18.045-39.615-28.279-63.621-28.279-49.305 0-89.417 42.648-89.417 95.07 0 8.834 1.501 18.47 4.458 28.703-34.114 2.41-61.176 32.641-61.176 69.462 0 17.885 8.387 39.985 23.01 60.633 12.005 16.951 34.077 41.148 71.051 60.152a230.872 230.872 0 0 0 12.125 5.786 12.304 12.304 0 0 0 4.972 1.048c1.697 0 3.393-.35 4.973-1.048 4.1-1.81 8.178-3.758 12.125-5.786 30.04-15.442 50.241-34.31 63.2-49.935 4.38 2.16 8.856 4.25 13.353 6.216a12.346 12.346 0 0 0 4.948 1.031c1.688 0 3.377-.343 4.948-1.031a318.321 318.321 0 0 0 17.953-8.525c26.62-13.684 50.316-30.68 70.43-50.519a5.314 5.314 0 1 0-7.463-7.567zM342.65 190.556c-13.877-17.129-33.035-28.462-53.942-31.913a5.314 5.314 0 1 0-1.73 10.487c38.019 6.274 66.688 42.15 66.688 83.45 0 26.865-15.328 61.183-41.004 91.803a5.315 5.315 0 0 0 8.144 6.829c27.231-32.475 43.489-69.346 43.489-98.632 0-22.77-7.687-44.798-21.644-62.024z"/><path d="M73.691 379.745v7.795a5.314 5.314 0 0 0 10.629 0v-7.795a5.314 5.314 0 0 0-10.629 0zM141.005 379.745v7.795a5.314 5.314 0 0 0 10.629 0v-7.795a5.314 5.314 0 0 0-10.629 0zM122.768 400.766c-.922 4.839-5.172 8.35-10.106 8.35-4.935 0-9.185-3.512-10.107-8.35a5.314 5.314 0 1 0-10.44 1.99c1.875 9.843 10.517 16.987 20.547 16.987 10.03 0 18.671-7.144 20.547-16.988a5.314 5.314 0 1 0-10.44-1.989z"/></g></g></svg>