<svg id="Capa_1" enable-background="new 0 0 512 512" height="512" viewBox="0 0 512 512" width="512" xmlns="http://www.w3.org/2000/svg"><g><path d="m57.391 338.971c3.147-11.688 8.056-25.842-19.468-44.395s-38.265-37.106-11.412-79.514 30.88-108.006 100.697-68.249c0 0 16.112 13.252 50.349 9.939s48.335 29.697 29.202 58.31c-22.153 33.131 25.846 31.143 18.461 92.104-7.384 60.961-40.95 58.31-68.474 56.985s-26.181 27.83-56.39 25.179c-30.21-2.651-49.343-26.671-42.965-50.359z" fill="#ffd0c7"/><circle cx="350.5" cy="256" fill="#fff" r="152.5"/><ellipse cx="133.5" cy="256" fill="#a0e5a5" rx="20" ry="20.5"/><circle cx="350.5" cy="256" fill="#ffd0c7" r="112.5"/><g><circle cx="458.21" cy="363.96" r="10"/><path d="m499.23 192.75c-4.07-9.63-9.11-18.92-14.98-27.6-5.82-8.61-12.49-16.7-19.85-24.05-7.35-7.36-15.44-14.03-24.04-19.85-8.69-5.86-17.98-10.91-27.61-14.98-20.03-8.47-41.31-12.77-63.25-12.77s-43.22 4.3-63.25 12.77c-9.63 4.07-18.92 9.12-27.6 14.98-8.61 5.82-16.7 12.49-24.05 19.85-6.749 6.74-12.909 14.108-18.374 21.922-1.848-2.504-3.98-4.792-6.39-6.802-8.954-7.466-20.792-10.723-34.238-9.423-28.365 2.743-42.599-7.343-43.761-8.214-22.302-12.697-41.256-16.925-56.555-11.968-22.078 7.151-32.759 30.645-43.089 53.364-4.625 10.174-9.409 20.693-15.131 29.732-14.428 22.791-19.508 40.667-15.988 56.256 3.874 17.15 17.469 28.28 30.26 36.906 20.722 13.962 18.356 22.649 15.556 32.929-3.57 13.255-1.216 27.523 6.907 39.145 9.667 13.829 25.953 22.702 44.68 24.346 1.594.14 3.122.206 4.595.206 17.198-.001 26.357-9.06 33.188-15.817 6.071-6.006 10.757-9.946 19.673-9.51 18.71.917 46.147 2.26 63.174-21.187 4.721 6.331 9.907 12.337 15.493 17.916 7.35 7.36 15.44 14.03 24.05 19.85 8.68 5.859 17.97 10.899 27.6 14.979 20.03 8.471 41.31 12.771 63.25 12.771h.03c13.52 0 26.97-1.67 39.98-4.96 12.63-3.2 24.87-7.94 36.38-14.08 4.86-2.59 6.71-8.66 4.11-13.53-1.74-3.26-5.12-5.29-8.83-5.29-1.63 0-3.25.4-4.7 1.18-20.75 11.06-43.28 16.68-66.969 16.68-38.05 0-73.84-14.83-100.76-41.74-24.538-24.548-39.018-56.473-41.388-90.76h20.058c5.105 62.887 57.909 112.5 122.089 112.5 67.547-.001 122.5-54.954 122.5-122.501s-54.953-122.5-122.499-122.5c-64.18 0-116.984 49.613-122.089 112.5h-20.058c2.37-34.288 16.849-66.212 41.388-90.76 26.92-26.91 62.71-41.73 100.76-41.74 38.05.01 73.839 14.83 100.759 41.74 26.909 26.92 41.739 62.71 41.739 100.76 0 23.47-5.83 46.73-16.84 67.27-1.27 2.35-1.54 5.06-.77 7.61.78 2.56 2.5 4.67 4.85 5.93 1.45.78 3.08 1.19 4.72 1.19 3.69 0 7.08-2.02 8.82-5.28 6.2-11.54 10.98-23.84 14.21-36.53 3.33-13.07 5.01-26.59 5.01-40.19 0-21.94-4.3-43.22-12.77-63.25zm-342.324 161.444c-17.696-.852-27.434 8.07-34.711 15.269-6.616 6.545-10.984 10.868-21.969 9.905-12.819-1.125-23.767-6.913-30.036-15.881-4.676-6.689-6-15.013-3.995-22.457 3.284-12.055 8.926-32.771-23.681-54.741-13.516-9.116-20.075-16.511-21.931-24.729-2.243-9.929 2.133-23.39 13.378-41.151 6.46-10.204 11.533-21.362 16.439-32.153 8.927-19.636 17.36-38.183 31.046-42.616 9.404-3.047 22.601.159 39.229 9.526 4.297 3.188 22.616 14.841 56.85 11.537 8.005-.778 14.748.911 19.503 4.876 3.608 3.009 5.95 7.195 6.879 12.199-1.468 2.953-2.856 5.943-4.136 8.971-7.177 16.971-11.347 34.843-12.457 53.25h-26.477c-4.082-11.919-15.238-20.5-28.335-20.5-16.542 0-30 13.682-30 30.5s13.458 30.5 30 30.5c13.097 0 24.254-8.581 28.335-20.5h26.477c1.11 18.407 5.28 36.278 12.457 53.25 2.153 5.094 4.588 10.09 7.264 14.955-9.549 20.388-26.024 21.172-50.129 19.99zm-14.404-98.194c0 5.79-4.486 10.5-10 10.5s-10-4.71-10-10.5 4.486-10.5 10-10.5 10 4.71 10 10.5zm109.781 32.493c8.354-5.411 17.883-12.161 28.047-20.402 8.578 10.674 18.628 21.092 30.394 30.576 8.691 7.007 16.958 14.404 24.796 22.148-12.667 10.762-24.53 19.149-34.515 25.465-22.769-12.28-40.39-32.922-48.722-57.787zm97.218 70.007c-8.916 0-17.569-1.147-25.821-3.296 7.956-5.562 16.619-12.157 25.65-19.882 6.237 6.981 12.136 14.214 17.695 21.674-5.697.985-11.551 1.504-17.524 1.504zm38.029-7.319c-7.216-10.163-15.022-19.941-23.387-29.296 9.806-9.43 19.813-20.167 29.619-32.327 6.648-8.248 14.113-15.939 22.35-23.053 9.604 10.151 18.497 20.863 26.61 32.086-10.935 23.841-30.753 42.791-55.192 52.59zm64.47-95.181c0 6.6-.635 13.053-1.832 19.31-5.751-7.267-11.808-14.318-18.175-21.125 6.04-4.215 12.407-8.171 19.092-11.86.6 4.475.915 9.038.915 13.675zm-5.728-33.786c-10.156 5.314-19.688 11.183-28.566 17.587-6.859-6.518-14.005-12.79-21.44-18.783-13.302-10.721-24.181-22.843-33.011-34.967 10.218-7.776 21.466-14.752 33.687-20.889 22.88 11.998 40.693 32.386 49.33 57.052zm-96.771-68.714c7.754 0 15.307.871 22.573 2.51-6.941 4.15-13.552 8.584-19.824 13.294-3.196-5.393-6.005-10.651-8.456-15.643 1.889-.104 3.791-.161 5.707-.161zm-1.533 45.508c9.603 13.005 21.38 26.002 35.747 37.581 6.276 5.059 12.334 10.327 18.174 15.782-8.687 7.616-16.603 15.833-23.697 24.634-9.216 11.427-18.611 21.515-27.815 30.375-8.553-8.505-17.589-16.615-27.101-24.284-10.759-8.671-19.944-18.241-27.781-28.061 11.857-10.822 24.165-23.568 36.173-38.458 4.979-6.174 10.428-12.027 16.3-17.569zm-24.77-42.081c3.602 7.81 8.052 16.392 13.471 25.266-7.464 6.818-14.333 14.097-20.569 21.829-10.742 13.321-21.731 24.817-32.362 34.663-8.852-13.687-15.328-27.174-19.984-38.775 13.679-20.842 34.743-36.419 59.444-42.983zm-70.895 66.52c4.4 9.094 9.748 18.751 16.211 28.477-7.378 6.02-14.407 11.207-20.858 15.623-.427-3.792-.654-7.643-.654-11.547-.001-11.375 1.865-22.321 5.301-32.553z"/></g></g></svg>