<?xml version="1.0" encoding="UTF-8" standalone="no"?>
<svg
   id="Capa_1"
   enable-background="new 0 0 512.009 512.009"
   height="512"
   viewBox="0 0 512.009 512.009"
   width="512"
   version="1.1"
   sodipodi:docname="3.svg"
   inkscape:version="1.1 (c68e22c387, 2021-05-23)"
   xmlns:inkscape="http://www.inkscape.org/namespaces/inkscape"
   xmlns:sodipodi="http://sodipodi.sourceforge.net/DTD/sodipodi-0.dtd"
   xmlns="http://www.w3.org/2000/svg"
   xmlns:svg="http://www.w3.org/2000/svg">
  <defs
     id="defs31" />
  <sodipodi:namedview
     id="namedview29"
     pagecolor="#505050"
     bordercolor="#ffffff"
     borderopacity="1"
     inkscape:pageshadow="0"
     inkscape:pageopacity="0"
     inkscape:pagecheckerboard="1"
     showgrid="false"
     inkscape:zoom="0.4778495"
     inkscape:cx="-336.92617"
     inkscape:cy="170.55579"
     inkscape:window-width="1538"
     inkscape:window-height="877"
     inkscape:window-x="54"
     inkscape:window-y="-8"
     inkscape:window-maximized="1"
     inkscape:current-layer="g26" />
  <g
     id="g26">
    <g
       id="g22" />
    <g
       id="g1018"
       transform="translate(-4.0350215,66.49707)">
      <path
         d="m 442.58,204.527 c 0,98.225 -83.533,160.03 -186.576,160.03 C 152.961,364.557 75.348179,279.81418 75.348179,181.59018 75.348179,83.366181 152.962,7.5 256.004,7.5 359.046,7.5 442.58,106.302 442.58,204.527 Z"
         fill="#ffd3bd"
         id="path2"
         sodipodi:nodetypes="sssss" />
      <path
         d="M 204.84,15.782 C 126.672,41.508 76.088077,98.058492 76.088077,179.37049 c 0,98.225 89.452173,188.1461 192.495173,188.1461 58.485,0 98.09675,-22.87759 132.30575,-58.05559 C 112.056,288.42 168.794,94.65 204.84,15.782 Z"
         fill="#ffbe9d"
         id="path4"
         sodipodi:nodetypes="csscc" />
      <ellipse
         cx="213.311"
         cy="217.24001"
         fill="#cb9d82"
         rx="53.298"
         ry="47.249001"
         id="ellipse6"
         style="stroke:#000000;stroke-width:12.0002;stroke-linecap:round;stroke-miterlimit:4;stroke-dasharray:none;stroke-opacity:1;paint-order:normal" />
      <path
         d="m 183.16491,187.95763 c -10.12851,7.20789 -16.6181,18.26776 -16.6181,30.67682 0,21.7194 19.86082,39.3263 44.361,39.3263 6.52456,0 12.71452,-1.2593 18.29356,-3.50157 -25.8169,-18.69891 -39.74911,-41.97641 -46.03646,-66.50155 z"
         fill="#b7856b"
         id="path8"
         style="stroke-width:0.83232" />
      <ellipse
         cx="213.311"
         cy="217.24001"
         fill="#b7856b"
         rx="20.327"
         ry="18.02"
         id="ellipse10"
         style="stroke:#000000;stroke-width:12.0002;stroke-miterlimit:4;stroke-dasharray:none;stroke-opacity:1" />
      <g
         id="g18">
        <g
           fill="#eda1ab"
           id="g16">
          <ellipse
             cx="175.77499"
             cy="120.756"
             rx="29.603001"
             ry="23.573999"
             id="ellipse12" />
          <ellipse
             cx="336.23401"
             cy="120.756"
             rx="29.603001"
             ry="23.573999"
             id="ellipse14" />
        </g>
      </g>
      <path
         d="M 200.528,98.062 V 85.96 c 0,-4.142 -3.357,-7.5 -7.5,-7.5 -4.143,0 -7.5,3.358 -7.5,7.5 v 12.102 c 0,4.142 3.357,7.5 7.5,7.5 4.142,0 7.5,-3.358 7.5,-7.5 z M 256.004,0 c -36.312,0 -72.186,11.835 -103.745,34.225 -3.378,2.396 -4.174,7.078 -1.777,10.457 2.398,3.378 7.078,4.174 10.457,1.777 C 189.947,25.878 222.82,15 256.004,15 c 98.583,0 179.076,95.012 179.076,189.527 0,32.384 -9.291,61.229 -27.614,85.734 -2.48,3.317 -1.802,8.018 1.516,10.498 3.31,2.475 8.012,1.81 10.498,-1.515 20.018,-26.773 30.601,-59.526 30.601,-94.717 C 450.081,102.908 364.067,0 256.004,0 Z m 70.477,98.062 V 85.96 c 0,-4.142 -3.358,-7.5 -7.5,-7.5 -4.143,0 -7.5,3.358 -7.5,7.5 v 12.102 c 0,4.142 3.357,7.5 7.5,7.5 4.143,0 7.5,-3.358 7.5,-7.5 z m -70.477,14.704 c 8.531,0 16.644,-3.694 22.258,-10.136 2.722,-3.123 2.396,-7.86 -0.727,-10.582 -3.125,-2.721 -7.86,-2.396 -10.582,0.726 -2.765,3.172 -6.755,4.992 -10.949,4.992 -4.194,0 -8.185,-1.819 -10.949,-4.992 -2.723,-3.123 -7.46,-3.447 -10.582,-0.726 -3.122,2.722 -3.448,7.459 -0.727,10.582 5.615,6.442 13.727,10.136 22.258,10.136 z"
         id="path24"
         sodipodi:nodetypes="sssssssscccsscccsssssssssscccscccs" />
      <path
         d="m 264.07504,379.01486 c 36.312,0 72.186,-11.835 103.74501,-34.225 3.378,-2.396 4.17399,-7.078 1.777,-10.457 -2.398,-3.378 -7.078,-4.174 -10.457,-1.777 -29.00801,20.581 -61.88101,31.459 -95.06501,31.459 -98.583,0 -179.075997,-95.012 -179.075997,-189.52699 0,-32.384 9.29101,-61.22901 27.613997,-85.734012 2.48,-3.317 1.802,-8.01799 -1.516,-10.498 -3.31,-2.475 -8.012,-1.81 -10.498,1.515 -20.017987,26.773002 -30.600997,59.526012 -30.600997,94.717012 0,101.61899 86.013997,204.52699 194.076997,204.52699 z"
         id="path2064"
         style="stroke-width:1.00002" />
    </g>
  </g>
</svg>
