<svg id="Layer_1" enable-background="new 0 0 480.055 480.055" height="512" viewBox="0 0 480.055 480.055" width="512" xmlns="http://www.w3.org/2000/svg"><path d="m418.61 64.812c-72.56-74.47-193.07-75.86-267.24-3-65.32 64.15-73.87 163.91-25.64 237.38l-25.8 25.792c-1.563 1.562-4.096 1.561-5.657-.001l-11.462-11.47c-7.76-7.77-20.32-7.83-28.16-.14l-26.63 26.12c-7.94 7.79-8 20.58-.12 28.44l11.702 11.671c1.566 1.562 1.571 4.097.007 5.661l-25.72 25.707c-7.72 7.72-7.84 20.2-.27 28.07l25.88 26.88c7.76 8.07 20.64 8.18 28.55.26l26.274-26.347c1.56-1.564 4.094-1.568 5.658-.007l11.958 11.933c7.82 7.8 20.47 7.79 28.28-.02l26.23-26.27c7.81-7.81 7.8-20.46 0-28.27l-11.987-11.995c-1.56-1.561-1.561-4.09-.003-5.653l25.819-25.882c73.11 47.9 172.23 39.74 236.49-24.45 73.001-72.909 73.611-190.749 1.841-264.409z" fill="#ffa4b8"/><g fill="#ffbfcb"><path d="m296.758 8.514c9.947.695 9.794 15.298-.154 15.966-43.394 2.917-85.972 20.66-119.234 53.331-63.754 62.612-73.427 159.148-29.01 232.052 1.928 3.164 1.469 7.228-1.151 9.848l-13.716 13.71c-5.814 5.812-15.273 5.724-20.973-.199-6.122-6.361-5.405-15.423-.017-20.808l13.228-13.223c-48.23-73.47-39.68-173.23 25.64-237.38 39.935-39.228 93.302-56.934 145.387-53.297z"/><path d="m54.02 355.492c-7.94 7.789-8 20.58-.12 28.44l11.7 11.67c1.57 1.56 1.57 4.1.01 5.66l-25.72 25.71c-7.72 7.72-7.84 20.2-.27 28.07l5.973 6.204c3.37 3.501-1.678 8.809-5.245 5.509-.615-.569 1.683 1.81-26.728-27.712-7.572-7.868-7.45-20.35.27-28.07l25.718-25.709c1.56-1.56 1.563-4.101-.007-5.661l-11.701-11.671c-7.88-7.86-7.82-20.65.12-28.44l26.63-26.12c7.84-7.69 20.399-7.63 28.16.14 4.118 4.122 3.799 10.915-.728 14.583-1.069.867 1-1.112-28.062 27.397z"/><path d="m272.904 338.382c-8.44-1.72-6.822-14.319 1.77-13.71 75.838 5.375 139.844-54.886 139.323-130.583-.059-8.648 12.589-9.61 13.773-1.044 12.261 88.729-66.739 163.294-154.866 145.337z"/></g><circle cx="284" cy="195.002" fill="#ffebd2" r="130"/><path d="m296.872 96.964c-62.033 13.743-107.449 75.231-103.005 138.601 1.29 18.388-24.088 24.256-30.85 7.108-5.82-14.76-9.018-30.842-9.018-47.671 0-75.926 64.723-135.622 140.474-129.584 18.266 1.455 20.288 27.583 2.399 31.546z" fill="#fff3e4"/><path d="m301.4 68.422h-.01c-6.612-15.119-28.155-15.149-34.78 0h-.01c-100.448-65.79-75.124 137.508 2.01 52.78l.01-.01c7.569 10.473 23.185 10.481 30.76 0l.01.01c77.134 84.727 102.46-118.572 2.01-52.78z" fill="#ffbfcb"/><path d="m287.536 57.381c4.968.936 6.266 7.622 1.923 10.208-5.462 3.25-9.459 9.307-9.459 16.463 0 0 .009 34.68.027 35.016.27 5.135-5.808 8.064-9.445 4.429-3.454-3.452-5.582-8.221-5.582-13.445v-34c0-11.729 10.675-20.906 22.536-18.671z" fill="#ffd9e0"/><path d="m356.273 79.3c-9.183-9.007-24.336-11.219-46.44.79-3.08 1.673-6.832-.534-6.832-4.039 0-2.71-.57-5.3-1.61-7.63.768 0 27.689-20.561 48.094-10.659 6.884 3.341 11.527 9.396 14.354 16.61 1.821 4.65-4.002 8.424-7.566 4.928z" fill="#ffd9e0"/><path d="m223.949 132.054c2.058 3.771-2.46 7.7-5.9 5.127-26.144-19.557-25.321-89.118 19.377-81.529 4.125.7 4.482 6.482.495 7.752-23.918 7.619-26.329 46.01-13.972 68.65z" fill="#ffd9e0"/><g><path d="m424.337 59.228c-75.709-77.706-201.162-79.159-278.577-3.124-65.744 64.574-77.01 165.093-30.209 241.954l-18.448 18.438-8.639-8.644c-10.813-10.819-28.494-10.907-39.413-.195l-26.63 26.124c-11.133 10.921-11.209 28.796-.167 39.811l8.868 8.847-22.887 22.872c-10.732 10.726-10.902 28.346-.38 39.277l25.879 26.884c10.798 11.218 28.815 11.545 39.977.356l23.452-23.508 9.129 9.107c10.923 10.896 28.681 10.881 39.585-.035l26.237-26.266c10.902-10.915 10.899-28.67-.005-39.582l-14.81-14.818c-3.124-3.125-8.188-3.126-11.314-.003-3.125 3.124-3.126 8.188-.003 11.314l14.81 14.818c4.674 4.676 4.675 12.286.002 16.963l-26.236 26.266c-4.673 4.678-12.284 4.685-16.965.015l-14.793-14.757c-3.125-3.118-8.193-3.114-11.313.014l-29.102 29.172c-4.71 4.722-12.434 4.72-17.123-.153l-25.879-26.884c-4.518-4.693-4.445-12.258.163-16.863l28.554-28.536c3.126-3.125 3.126-8.199-.005-11.322l-14.54-14.505c-4.732-4.721-4.7-12.382.072-17.062l26.63-26.124c4.681-4.59 12.258-4.552 16.891.084l14.293 14.302c3.122 3.123 8.189 3.125 11.314.003l28.633-28.617c2.683-2.682 3.114-6.878 1.033-10.049-46.985-71.575-36.659-167.162 24.552-227.283 71.046-69.784 186.346-68.521 255.904 2.874 68.451 70.256 67.663 183.829-1.756 253.171-60.174 60.107-155.413 69.956-226.46 23.42-3.696-2.419-8.654-1.388-11.076 2.309-2.421 3.696-1.387 8.655 2.309 11.076 37.197 24.364 82.204 35.396 126.725 31.075 98.59-9.577 176.706-92.054 177.358-194.094.332-51.902-19.428-100.955-55.64-138.122z"/><path d="m176.009 122.16c-3.806-2.247-8.71-.98-10.955 2.827-12.465 21.135-19.054 45.344-19.054 70.011 0 76.093 61.907 138 138 138 76.094 0 138-61.907 138-138 0-39.773-17.001-77.302-46.768-103.539-.632-14.469-5.503-28.397-15.74-36.737-9.784-7.971-27.227-13.484-55.784 2.903-4.931-5.27-11.939-8.572-19.708-8.572-14.888 0-27 12.112-27 27v34c0 3.391.636 6.687 1.838 9.776-9.001 8.863-22.699 18.826-34.152 12.169-13.133-7.633-19.983-33.687-13.829-52.601 3.872-11.901 11.61-17.339 23.001-16.167 4.394.455 8.324-2.743 8.777-7.138s-2.743-8.325-7.138-8.778c-34.747-3.577-49.318 32.99-40.334 66.897 5.109 19.281 18.103 35.995 37.677 35.994 10.763 0 24.954-5.247 41.66-23.588 1.293-1.402 1.996-3.181 2.098-4.973.279-5.131-3.598-5.562-3.598-11.59v-34c0-6.065 4.935-11 11-11s11 4.935 11 11v34c0 2.938-1.145 5.7-3.223 7.778-3.124 3.124-3.124 8.189 0 11.313 3.126 3.125 8.189 3.124 11.314 0 5.1-5.1 7.908-11.88 7.908-19.092 0-36.578.115-35.221-.297-37.991 16.825-9.866 30.443-11.646 38.683-4.935 18.945 15.434 9.306 68.759-15.449 67.042-4.425-.308-8.229 3.021-8.533 7.429-.306 4.408 3.021 8.228 7.428 8.533 21.427 1.474 35.72-17.107 40.534-38.176 20.891 22.456 32.635 51.973 32.635 83.043 0 67.271-54.729 122-122 122s-122-54.729-122-122c0-21.81 5.822-43.208 16.835-61.883 2.246-3.806.98-8.711-2.826-10.955z"/><path d="m259 206.998c4.418 0 8-3.582 8-8v-15c0-4.418-3.582-8-8-8s-8 3.582-8 8v15c0 4.418 3.582 8 8 8z"/><path d="m317 198.998v-15c0-4.418-3.582-8-8-8s-8 3.582-8 8v15c0 4.418 3.582 8 8 8s8-3.581 8-8z"/><path d="m251.473 251.525c17.935 17.935 47.119 17.936 65.055 0 3.124-3.124 3.124-8.189 0-11.313-3.125-3.124-8.189-3.124-11.314 0-11.695 11.697-30.73 11.697-42.426 0-3.125-3.124-8.189-3.124-11.314 0-3.125 3.123-3.125 8.189-.001 11.313z"/></g></svg>