<svg id="Layer_1" enable-background="new 0 0 480.002 480.002" height="512" viewBox="0 0 480.002 480.002" width="512" xmlns="http://www.w3.org/2000/svg"><path d="m451.962 8.134h-131c-11.03.02-19.96 9.09-19.96 20.12v16.27c0 10.94 8.9 19.81 19.89 19.44h31.686c3.56 0 5.346 4.302 2.833 6.824l-55.709 55.896c-73.11-47.82-172.23-39.68-236.49 24.43-73 72.82-73.61 190.5-1.84 264.07 72.56 74.37 193.07 75.76 267.24 3 65.32-64.08 73.87-163.71 25.64-237.08l55.93-55.583c2.523-2.508 6.82-.72 6.82 2.837v31.746c-.25 10.97 8.67 19.86 19.66 19.86h15.43c11.03 0 19.95-8.96 19.91-19.98v-131.98c-.001-11.06-8.98-19.9-20.04-19.87z" fill="#80aaff"/><g fill="#9cbcff"><path d="m93.212 161.114c-73.19 73.009-73.883 191.706-.476 265.455 5.198 5.222-1.806 13.445-7.755 9.098-93.112-68.047-103.404-203.119-21.769-284.553 37.315-37.228 86.392-55.582 135.3-55.061 7.393.079 8.128 10.879.811 11.936-38.829 5.611-76.239 23.321-106.111 53.125z"/><path d="m453.073 8.161c6.395.328 6.013 9.973-.39 9.973h-101.721c-11.03.02-19.991 9.09-19.96 20.12.045 15.93-.211 16.837.304 19.737.551 3.103-1.743 5.973-4.894 5.973h-5.52c-10.99.37-19.89-8.5-19.89-19.44v-16.27c0-11.03 8.93-20.1 19.96-20.12 0 0 131.743.008 132.111.027z"/><path d="m368.392 97.864-30.881 30.984c-4.504 4.519-11.464 5.375-16.998 2.199-8.6-4.936-9.339-15.871-3.105-22.128l30.727-30.835c2.629-2.638 6.2-4.121 9.924-4.121 13.301.001 18.955 15.25 10.333 23.901z"/><path d="m194.206 430.616c-9.671-1.4-8.631-15.701 1.14-15.653 71.869.355 131.01-58.467 130.654-130.654-.048-9.771 14.253-10.811 15.653-1.14 12.464 86.081-61.771 159.852-147.447 147.447z"/></g><path d="m191.541 155.044c73.657-2.488 134.46 56.48 134.46 129.92 0 71.8-58.2 130-130 130s-130-58.2-130-130c0-70.31 55.81-127.58 125.54-129.92z" fill="#ffebd2"/><path d="m208.873 186.926c-62.033 13.743-107.449 75.231-103.005 138.601 1.29 18.388-24.088 24.256-30.85 7.108-5.82-14.76-9.018-30.842-9.018-47.671 0-75.926 64.723-135.622 140.474-129.584 18.266 1.456 20.288 27.583 2.399 31.546z" fill="#fff3e4"/><g><path d="m452.019.13h-131.072c-15.409.03-27.945 12.648-27.945 28.127v16.271c0 15.415 12.519 27.846 28.011 27.436h21.934l-44.39 44.545c-76.417-46.367-176.284-35.622-240.997 28.937-75.087 74.908-77.732 197.602-1.91 275.325 35.938 36.839 85.583 59.1 140.958 59.1 102.876-.001 185.403-77.798 195.365-175.933 4.314-42.5-5.444-85.447-27.523-121.678l15.55-15.404c3.139-3.109 3.163-8.175.054-11.314-3.109-3.138-8.174-3.162-11.313-.053l-20.12 19.931c-2.705 2.68-3.146 6.896-1.055 10.078 46.98 71.477 36.655 166.932-24.551 226.972-71.051 69.698-186.353 68.432-255.912-2.871-68.444-70.161-67.656-183.578 1.756-252.825 60.174-60.032 155.417-69.869 226.468-23.39 3.173 2.076 7.369 1.639 10.046-1.048l62.506-62.725c5.024-5.041 1.428-13.647-5.667-13.647 0 0-41.5.001-41.588.004-6.434.221-11.622-4.994-11.622-11.44v-16.27c0-6.674 5.373-12.115 11.961-12.127h131.016c6.487-.057 12.023 5.128 12.023 11.873v132.008c.026 6.599-5.307 11.953-11.906 11.953h-15.433c-6.526 0-11.808-5.213-11.663-11.68.001-.06.002-41.54.002-41.54 0-4.418-3.582-8-8-8s-8 3.582-8 8v41.278c-.292 15.381 12.151 27.941 27.661 27.941h15.433c15.571 0 27.967-12.671 27.906-27.985v-131.976c-.001-15.449-12.506-27.873-27.983-27.873z"/><path d="m141.751 175.658c3.956-1.967 5.568-6.77 3.601-10.726-1.968-3.956-6.77-5.567-10.726-3.601-46.21 22.982-76.625 70.337-76.625 123.633 0 76.093 61.907 138 138 138s138-61.907 138-138c0-77.687-64.489-140.482-142.594-137.923-1.381.013-2.971.458-4.319 1.368-14.239 9.6-27.328 25.406-24.925 42.338 2.994 21.092 28.577 30.894 46.347 14.018 3.204-3.042 3.335-8.106.292-11.31-3.042-3.204-8.106-3.334-11.31-.292-13.632 12.944-34.561-6.498-3.253-30.169 68.532-.994 123.762 54.569 123.762 121.97 0 67.271-54.729 122-122 122s-122-54.729-122-122c0-46.639 25.961-88.523 67.75-109.306z"/><path d="m171.001 286.964c4.418 0 8-3.582 8-8v-15c0-4.418-3.582-8-8-8s-8 3.582-8 8v15c0 4.419 3.582 8 8 8z"/><path d="m229.001 278.964v-15c0-4.418-3.582-8-8-8s-8 3.582-8 8v15c0 4.418 3.582 8 8 8s8-3.581 8-8z"/><path d="m163.475 331.491c17.935 17.935 47.118 17.936 65.054 0 3.125-3.124 3.125-8.189 0-11.313-3.124-3.124-8.189-3.124-11.313 0-11.697 11.697-30.729 11.697-42.427 0-3.124-3.124-8.189-3.124-11.313 0-3.126 3.124-3.126 8.189-.001 11.313z"/></g></svg>