<?xml version="1.0" encoding="UTF-8" standalone="no"?>
<svg
   id="Layer_1"
   enable-background="new 0 0 512 512"
   height="512"
   viewBox="0 0 512 512"
   width="512"
   version="1.1"
   sodipodi:docname="baby.svg"
   inkscape:version="1.1 (c68e22c387, 2021-05-23)"
   xmlns:inkscape="http://www.inkscape.org/namespaces/inkscape"
   xmlns:sodipodi="http://sodipodi.sourceforge.net/DTD/sodipodi-0.dtd"
   xmlns="http://www.w3.org/2000/svg"
   xmlns:svg="http://www.w3.org/2000/svg">
  <defs
     id="defs39" />
  <sodipodi:namedview
     id="namedview37"
     pagecolor="#505050"
     bordercolor="#ffffff"
     borderopacity="1"
     inkscape:pageshadow="0"
     inkscape:pageopacity="0"
     inkscape:pagecheckerboard="1"
     showgrid="false"
     inkscape:zoom="1.3515625"
     inkscape:cx="255.63006"
     inkscape:cy="256.36994"
     inkscape:window-width="1538"
     inkscape:window-height="877"
     inkscape:window-x="54"
     inkscape:window-y="-8"
     inkscape:window-maximized="1"
     inkscape:current-layer="Layer_1" />
  <g
     id="g34">
    <path
       d="m488 64v336c0 13.25-10.75 24-24 24h-416c-13.25 0-24-10.75-24-24v-336c0-13.25 10.75-24 24-24h416c13.25 0 24 10.75 24 24z"
       fill="#e2e0e0"
       id="path2" />
    <path
       d="m464 40c13.25 0 24 10.75 24 24v56h-464v-56c0-13.25 10.75-24 24-24z"
       fill="#f79caf"
       id="path4"
       style="fill:#aa87de" />
    <path
       d="m488 64v336c0 13.25-10.75 24-24 24h-40c13.25 0 24-10.75 24-24v-336c0-13.25-10.75-24-24-24h40c13.25 0 24 10.75 24 24z"
       fill="#cecccc"
       id="path6" />
    <path
       d="m488 64v56h-40v-56c0-13.25-10.75-24-24-24h40c13.25 0 24 10.75 24 24z"
       fill="#e3889b"
       id="path8"
       style="fill:#8d5fd3" />
    <path
       d="m128 24v40c0 8.837-7.163 16-16 16-8.809 0-16-7.136-16-16v-40c0-8.837 7.163-16 16-16 8.809 0 16 7.136 16 16z"
       fill="#f3d4b7"
       id="path10"
       style="fill:#b3b3b3" />
    <path
       d="m416 24v40c0 8.837-7.163 16-16 16-8.809 0-16-7.136-16-16v-40c0-8.837 7.163-16 16-16 8.809 0 16 7.136 16 16z"
       fill="#f3d4b7"
       id="path12"
       style="fill:#b3b3b3" />
    <path
       d="m383.7 424h-191.39c-.56-9.09-.31-30.4-.31-120 0-52.93 43.07-96 96-96s96 43.07 96 96c0 89.71.24 111.09-.3 120z"
       fill="#cecccc"
       id="path14" />
    <path
       d="m168 304v112c0 24.3 9.85 46.3 25.78 62.22 39.397 39.422 105.383 32.818 136.02-14.28 8.98-13.79 14.2-30.26 14.2-47.94v-112z"
       fill="#acebe2"
       id="path16"
       style="fill:#00ffff" />
    <path
       d="m344 304v112c0 56.309-52.461 98.62-108.03 85.71 39.907-9.232 68.03-44.85 68.03-85.71v-112z"
       fill="#98d7ce"
       id="path18"
       style="fill:#008080" />
    <circle
       cx="256"
       cy="304"
       fill="#f8e9d2"
       r="88"
       id="circle20"
       style="fill:#ffd3bd;fill-opacity:1" />
    <path
       d="m344 304c0 56.566-52.715 98.553-108 85.72 38.97-9.06 68-44 68-85.72s-29.03-76.66-68-85.72c55.335-12.841 108 29.197 108 85.72z"
       fill="#e4d5c1"
       id="path22"
       style="fill:#ffbe9d;fill-opacity:1" />
    <path
       d="m464 32h-40v-8c0-13.233-10.767-24-24-24s-24 10.767-24 24v8h-240v-8c0-13.233-10.766-24-24-24s-24 10.767-24 24v8h-40c-17.645 0-32 14.355-32 32v336c0 17.645 14.355 32 32 32h88c4.418 0 8-3.582 8-8s-3.582-8-8-8h-88c-8.822 0-16-7.178-16-16v-272h448v272c0 8.822-7.178 16-16 16h-88c-4.418 0-8 3.582-8 8s3.582 8 8 8h88c17.645 0 32-14.355 32-32 0-14.641 0-319.924 0-336 0-17.645-14.355-32-32-32zm-72-8c0-4.411 3.589-8 8-8s8 3.589 8 8v40c0 4.411-3.589 8-8 8s-8-3.589-8-8zm-288 0c0-4.411 3.589-8 8-8s8 3.589 8 8v40c0 4.411-3.589 8-8 8s-8-3.589-8-8zm-72 88v-48c0-8.822 7.178-16 16-16h40v16c0 13.233 10.766 24 24 24s24-10.767 24-24v-16h240v16c0 13.233 10.767 24 24 24s24-10.767 24-24v-16h40c8.822 0 16 7.178 16 16v48z"
       id="path24" />
    <path
       d="m256 208c-52.935 0-96 43.065-96 96v112c0 53.034 42.926 96 96 96 53.893 0 96-43.81 96-96v-112c0-52.935-43.065-96-96-96zm-69.396 162.268c37.794 39.561 100.66 39.653 138.572.226-10.875 29.324-31.596 56.346-69.187 71.796-37.46-15.375-58.418-42.106-69.385-72.022zm69.396 125.732c-44.193 0-80-35.775-80-80v-29.774c18.806 41.795 58.202 79.188 137.901 84.995-14.956 15.717-35.732 24.779-57.901 24.779zm80-80c0 14.063-3.653 27.739-10.602 39.817-17.753-.625-33.48-2.833-47.416-6.343 26.066-14.405 45.483-35.528 58.017-63.251v29.777zm-80-32c-44.112 0-80-35.888-80-80 0-36.702 24.852-67.689 58.605-77.071-4.935 5.186-8.87 11.899-10.438 19.443-3.103 14.928 9.353 33.628 31.833 33.628 31.013 0 30.713-32.843 10.53-39.59-4.193-1.395-8.722.868-10.12 5.06-1.397 4.192.868 8.723 5.059 10.12.022.007 2.283.969 2.94 2.94.322.965.365 2.33-.263 3.202-2.085 2.893-15.296 4.268-21.461-3.312-2.448-3.009-3.289-6.701-2.854-8.793 2.244-10.785 12.458-17.627 16.169-17.627 4.283 0 7.77-3.369 7.98-7.601 40.379 4.018 72.02 38.182 72.02 79.601 0 44.112-35.888 80-80 80z"
       id="path26" />
    <path
       d="m232 296c0-4.418-3.582-8-8-8s-8 3.582-8 8v8c0 4.418 3.582 8 8 8s8-3.582 8-8z"
       id="path28" />
    <path
       d="m288 288c-4.418 0-8 3.582-8 8v8c0 4.418 3.582 8 8 8s8-3.582 8-8v-8c0-4.418-3.582-8-8-8z"
       id="path30" />
    <path
       d="m267.314 339.313c-6.239 6.237-16.391 6.239-22.628 0-3.124-3.123-8.189-3.124-11.314.001-3.124 3.124-3.124 8.189 0 11.313 12.475 12.473 32.777 12.477 45.254 0 3.125-3.124 3.125-8.189.001-11.313s-8.189-3.124-11.313-.001z"
       id="path32" />
  </g>
</svg>
