<svg height="512" viewBox="0 0 256 256" width="512" xmlns="http://www.w3.org/2000/svg"><path d="M248.66 159.45v15.83c0 5.02-4.07 9.09-9.08 9.09H22.66c-9.39 0-17-7.61-17-17 0-4.69 1.9-8.95 4.98-12.02 3.08-3.08 7.32-4.98 12.02-4.98h216.92a9.08 9.08 0 0 1 9.08 9.08z" fill="#ffe2e2"/><path d="M248.66 159.45v15.83c0 5.02-4.07 9.09-9.08 9.09h-15v-34h15a9.08 9.08 0 0 1 9.08 9.08z" fill="#ff4a73"/><path d="M74.99 150.37v34H22.66c-9.39 0-17-7.61-17-17 0-4.69 1.9-8.95 4.98-12.02 3.08-3.08 7.32-4.98 12.02-4.98z" fill="#b76c6c"/><path d="M37.66 184.37h-15c-9.39 0-17-7.61-17-17 0-4.69 1.9-8.95 4.98-12.02 3.08-3.08 7.32-4.98 12.02-4.98h15c-4.7 0-8.94 1.9-12.02 4.98a16.927 16.927 0 0 0-4.98 12.02c0 9.39 7.61 17 17 17z" fill="#c98585"/><path d="M248.66 159.45v15.83c0 5.02-4.07 9.09-9.08 9.09h-11.12c5.01 0 9.08-4.07 9.08-9.09v-15.83a9.08 9.08 0 0 0-9.08-9.08h11.12a9.08 9.08 0 0 1 9.08 9.08z" fill="#ea2a6a"/><path d="M209.58 150.37h15v34h-15z" fill="#ffcfcf"/><path d="M74.99 150.37h15v34h-15z" fill="#ffefee"/><g fill="#5f266d"><path d="M239.578 146.367H22.661c-11.579 0-21 9.421-21 21s9.421 21 21 21h216.917c7.214 0 13.083-5.869 13.083-13.084V159.45c0-7.214-5.869-13.083-13.083-13.083zm-168.584 34H22.661c-7.168 0-13-5.832-13-13s5.832-13 13-13h48.333zm149.586 0H78.994v-26H220.58zm24.081-5.084a5.089 5.089 0 0 1-5.083 5.084H228.58v-26h10.998a5.088 5.088 0 0 1 5.083 5.083zM250.339 83.335a4 4 0 0 0-4 4v2.353c0 5.46-4.442 9.901-9.902 9.901-9.871 0-17.902 8.031-17.902 17.902v12.042a4 4 0 0 0 8 0v-12.042c0-5.46 4.442-9.902 9.902-9.902 9.871 0 17.902-8.03 17.902-17.901v-2.353a4 4 0 0 0-4-4zM200.653 107.037a4 4 0 0 0 4-4v-1.248c0-5.46 4.441-9.901 9.901-9.901 9.871 0 17.902-8.031 17.902-17.902v-2.353a4 4 0 0 0-8 0v2.353c0 5.46-4.442 9.902-9.902 9.902-9.871 0-17.901 8.03-17.901 17.901v1.248a4 4 0 0 0 4 4z"/><path d="M188.086 174h3.957a4 4 0 0 0 0-8h-3.957a4 4 0 0 0 0 8zM159.086 174h14a4 4 0 0 0 0-8h-14a4 4 0 0 0 0 8z"/></g></svg>