<svg height="512" viewBox="0 0 256 256" width="512" xmlns="http://www.w3.org/2000/svg"><path d="m138.326 110.121-8.501-29.681H33.069l-8.501 29.681s-12.623 38.703 1.913 60.479c.926 1.388 2.411 2.171 3.96 2.171h102.012c1.548 0 3.033-.783 3.96-2.171 14.535-21.776 1.913-60.479 1.913-60.479z" fill="#87828e"/><path d="M45.44 172.77h-15c-1.55 0-3.03-.78-3.96-2.17-14.54-21.78-1.91-60.48-1.91-60.48l8.5-29.68h15l-8.5 29.68s-12.63 38.7 1.91 60.48c.93 1.39 2.411 2.17 3.96 2.17z" fill="#a4a4a5"/><path d="M136.41 170.6c-.92 1.39-2.41 2.17-3.96 2.17h-15c1.55 0 3.04-.78 3.96-2.17 14.54-21.78 1.92-60.48 1.92-60.48l-8.51-29.68h15l8.51 29.68c.001 0 12.621 38.7-1.92 60.48z" fill="#796e84"/><path d="M66.354 145.185h30v34.28h-30z" fill="#ffbb98"/><path d="M81.354 147.69c-25.605 0-46.554-20.949-46.554-46.554v-41.62c0-3.462 2.833-6.295 6.295-6.295h80.516c3.462 0 6.295 2.833 6.295 6.295v41.62c.001 25.605-20.948 46.554-46.552 46.554z" fill="#ffbb98"/><path d="M127.907 59.515v41.62c0 25.61-20.95 46.55-46.55 46.55-2.55 0-5.06-.21-7.5-.61 22.07-3.61 39.05-22.88 39.05-45.94v-41.62c0-3.46-2.83-6.29-6.3-6.29h15c3.47 0 6.3 2.83 6.3 6.29z" fill="#ffaa80"/><path d="M88.857 147.075c-2.44.4-4.95.61-7.5.61-25.61 0-46.56-20.94-46.56-46.55v-41.62c0-3.46 2.84-6.29 6.3-6.29h15c-3.46 0-6.3 2.83-6.3 6.29v41.62c0 23.06 16.98 42.33 39.06 45.94z" fill="#ffcaa6"/><path d="M91.687 4.799H71.02c-26.512 0-48.004 21.492-48.004 48.004v22.125a5.01 5.01 0 0 0 4.971 5.004c40.648.333 48.405-19.037 52.417-35.521 3.955 16.512 11.072 35.302 54.251 35.451 2.773.01 5.036-2.23 5.036-5.003V52.803c0-26.512-21.492-48.004-48.004-48.004z" fill="#87828e"/><path d="M139.687 52.805v22.05a5.01 5.01 0 0 1-5.03 5.01c-4.56-.02-8.73-.24-12.52-.65a5.008 5.008 0 0 0 2.55-4.36v-22.05c0-26.51-21.49-48.01-48-48.01h15c26.51 0 48 21.5 48 48.01z" fill="#796e84"/><path d="M38.017 52.805v22.12c0 1.89 1.04 3.53 2.59 4.39-3.81.44-8 .66-12.62.62-2.75-.03-4.97-2.26-4.97-5.01v-22.12c0-26.51 21.49-48.01 48-48.01h15c-26.51 0-48 21.5-48 48.01z" fill="#a4a4a5"/><path d="M66.357 145.185h15v34.28h-15z" fill="#ffcaa6"/><path d="M157.114 238.495v.97c0 5.523-4.477 10-10 10H15.594c-5.523 0-10-4.477-10-10v-.97c0-24.04 11.19-45.47 28.65-59.34 1.18-.94 2.38-1.84 3.61-2.7 12.31-8.65 27.3-13.73 43.49-13.73h.02c16.19 0 31.18 5.08 43.49 13.73 1.23.86 2.44 1.76 3.61 2.7 2.26 1.79 4.42 3.72 6.46 5.76 13.71 13.71 22.19 32.65 22.19 53.58z" fill="#ffe2e2"/><path d="M88.847 163.095c-13.31 1.3-25.6 6.06-35.99 13.36-1.23.86-2.43 1.76-3.61 2.7-17.46 13.87-28.65 35.3-28.65 59.34v.97c0 5.52 4.47 10 10 10h-15c-5.53 0-10-4.48-10-10v-.97c0-24.04 11.19-45.47 28.65-59.34 1.18-.94 2.38-1.84 3.61-2.7 12.31-8.65 27.3-13.73 43.49-13.73h.02c2.52 0 5.02.12 7.48.37z" fill="#ffefee"/><circle cx="182.801" cy="183.536" fill="#ff4a73" r="67.606"/><path d="m196.837 206.594-3.674 15.156a10.633 10.633 0 0 1-3.774 5.871 10.605 10.605 0 0 1-6.584 2.281 10.67 10.67 0 0 1-10.367-8.152l-3.674-15.156a60.357 60.357 0 0 1 0-28.382l1.392-5.737 2.281-9.419a10.666 10.666 0 0 1 10.367-8.152c4.915 0 9.201 3.372 10.358 8.152l2.357 9.729 1.317 5.427a60.318 60.318 0 0 1 .001 28.382z" fill="#b76c6c"/><path d="M250.41 183.54c0 37.33-30.27 67.6-67.61 67.6-2.54 0-5.04-.14-7.5-.42 33.81-3.72 60.11-32.39 60.11-67.18 0-34.8-26.3-63.47-60.11-67.19 2.46-.28 4.96-.42 7.5-.42 37.341 0 67.61 30.27 67.61 67.61z" fill="#ea2a6a"/><path d="M190.3 250.72c-2.46.28-4.96.42-7.5.42-37.34 0-67.61-30.27-67.61-67.6 0-37.34 30.27-67.61 67.61-67.61 2.54 0 5.04.14 7.5.42-33.81 3.72-60.11 32.39-60.11 67.19 0 34.79 26.3 63.46 60.11 67.18z" fill="#f973a3"/><path d="m183.76 213.38 2.91 15.78c-1.2.48-2.51.74-3.87.74-4.92 0-9.2-3.37-10.36-8.15l-3.68-15.16a60.505 60.505 0 0 1 0-28.38l1.4-5.74 2.28-9.41c1.16-4.78 5.44-8.16 10.36-8.16 1.65 0 3.22.38 4.63 1.07l-2.27 12.4-1.4 7.57c-2.25 12.3-2.25 25.14 0 37.44z" fill="#c98585"/><path d="M195.483 172.785a19.455 19.455 0 0 1-12.505 4.521c-4.923 0-9.419-1.82-12.858-4.831l2.281-9.419a10.666 10.666 0 0 1 10.367-8.152c4.915 0 9.201 3.372 10.358 8.152z" fill="#b76c6c"/><path d="M126.18 113.69c-4.85 17.2-19.41 30.46-37.33 33.39-2.45.4-4.95.61-7.5.61-2.53 0-5.01-.2-7.43-.6-.02 0-.04 0-.06-.01-17.92-2.93-32.48-16.18-37.33-33.39l1.52-.5 12.36-4.5 29.23-10.63c1.11-.41 2.32-.41 3.42 0l29.23 10.64c.06.02.12.04.19.06l12.17 4.43z" fill="#5fcdff"/><path d="M126.18 113.69c-4.85 17.2-19.41 30.46-37.33 33.39-2.45.4-4.95.61-7.5.61-2.53 0-5.01-.2-7.43-.6-.02 0-.04 0-.06-.01 19.61-3.21 35.2-18.78 38.43-38.38.06.02.12.04.19.06l12.17 4.43z" fill="#30b6ff"/><path d="M88.85 147.08c-2.45.4-4.95.61-7.5.61-21.26 0-39.31-14.45-44.82-34l1.52-.5 12.36-4.5c3.241 19.6 18.83 35.18 38.44 38.39z" fill="#73d7f9"/><g fill="#5f266d"><path d="M145.433 122.481c-1.42-7.676-1.933-8.844-10.474-38.632a8.955 8.955 0 0 0 6.087-2.619 8.934 8.934 0 0 0 2.646-6.371V52.803c0-28.675-23.329-52.004-52.004-52.004H71.022c-28.675 0-52.004 23.329-52.004 52.004v22.125c0 4.909 3.985 8.936 8.892 9.001l-7.166 25.023c-.805 2.494-12.852 41.009 2.412 63.873 1.653 2.47 4.376 3.945 7.284 3.945h.401c-17.843 14.599-29.249 36.351-29.249 62.695 0 7.72 6.28 14 14 14h131.52c3.408 0 6.663-1.247 9.177-3.433 47.019 18.815 98.119-16.1 98.119-66.497 0-55.921-61.561-90.181-108.975-61.054zm37.368-2.552c16.098 0 30.808 6.023 42.025 15.919l-27.481 27.48-.294-1.213a14.606 14.606 0 0 0-9.914-10.55c1.175-8.725 3.237-15.503 4.804-17.387.547.486 1.598 1.665 3.059 4.4a3.999 3.999 0 1 0 7.057-3.766c-6.747-12.637-14.922-11.192-19.255-.131-2.006-5.121-4.586-8.032-7.737-8.646-6.199-1.207-10.199 6.308-11.518 8.777a4 4 0 1 0 7.059 3.766c1.459-2.735 2.51-3.914 3.057-4.4 1.567 1.884 3.627 8.657 4.803 17.378a14.608 14.608 0 0 0-9.951 10.559l-1.49 6.151h-15.057l-11.998-11.813a4 4 0 1 0-5.613 5.701l13.166 12.962a4.005 4.005 0 0 0 2.807 1.149h14.794l-.244 1.006c-.769 3.178-1.263 6.416-1.538 9.673h-9.869a3.998 3.998 0 0 0-3.359 1.829l-11.761 18.192c-1.729 2.675.222 6.172 3.355 6.172 2.908 0 2.729-.848 13.941-18.193h7.509c.032.812.078 1.623.14 2.433l-28.178 28.187c-36.13-40.94-6.928-105.635 47.681-105.635zm-8.145 50.959 1.67-6.89a6.645 6.645 0 0 1 6.46-5.092 6.64 6.64 0 0 1 6.452 5.092l1.722 7.106a15.585 15.585 0 0 1-7.983 2.202c-2.965 0-5.848-.848-8.321-2.418zm4.145 10.043v43.629a6.637 6.637 0 0 1-2.475-3.753l-3.674-15.154a56.61 56.61 0 0 1-.001-26.499l.052-.213a23.454 23.454 0 0 0 6.098 1.99zm8 .052c2.125-.35 4.19-.982 6.135-1.888l.014.057a56.604 56.604 0 0 1 0 26.501l-3.674 15.156a6.595 6.595 0 0 1-2.364 3.671c-.035.028-.075.046-.11.073v-43.57zm-48.616-53.394c-11.903 9.512-20.725 22.724-24.679 37.89a79.45 79.45 0 0 0-13.153-4.461v-13.045c18.19-7.404 31.122-25.099 31.534-45.818 3.663 12.78 4.974 16.84 6.298 25.434zm-56.833 16.102c-18.171 0-33.711-11.454-39.799-27.518l39.46-14.357c.222-.08.464-.08.684 0l39.463 14.358c-6.089 16.063-21.632 27.517-39.808 27.517zm11 6.78v9.026a79.997 79.997 0 0 0-11.01-.772c-3.686 0-7.358.265-10.99.77v-9.025c3.544.79 7.222 1.22 11 1.22s7.456-.429 11-1.219zM39.44 108.429a42.608 42.608 0 0 1-.637-7.288V83.522c13.82-1.229 24.295-5.216 31.829-12.089 4.542-4.142 7.576-8.978 9.738-13.928 5.425 12.594 16.294 23.568 43.543 25.897v17.739a42.61 42.61 0 0 1-.638 7.289L84.433 94.298a9.004 9.004 0 0 0-6.155 0zM27.018 74.928V52.803c0-24.264 19.74-44.004 44.004-44.004h20.667c24.264 0 44.004 19.74 44.004 44.004V74.86c0 .565-.468 1.003-1.019 1.003h-.004c-36.815-.127-45.725-12.972-50.374-32.383a4 4 0 0 0-3.883-3.068h-.007a4.001 4.001 0 0 0-3.887 3.054c-3.828 15.727-10.982 32.471-47.503 32.471-1 0-1.998.077-1.998-1.009zm3.422 93.842c-.24 0-.465-.14-.633-.391-13.279-19.891-1.554-56.651-1.434-57.018.015-.046.029-.093.042-.14l2.427-8.476c.643 20.463 13.497 37.891 31.509 45.226v13.056a79.26 79.26 0 0 0-19.765 7.743zm-14.848 76.696c-3.309 0-6-2.691-6-6 0-28.568 15.049-51.558 36.889-63.707 10.594-5.91 22.649-9.033 34.881-9.033a71.962 71.962 0 0 1 30.545 6.818c-4.197 29.916 10.622 57.734 35.017 71.922zm167.209 1.676c-16.099 0-30.809-6.023-42.025-15.92l24.028-24.036c.027.116.046.235.074.351l1.44 5.94-10.245 10.958a4.003 4.003 0 0 0-.886 3.957l3.215 9.994a4 4 0 0 0 3.807 2.776c2.712 0 4.638-2.647 3.809-5.226l-2.494-7.755 5.053-5.405a14.62 14.62 0 0 0 14.223 11.126h.007c3.276 0 6.494-1.116 9.055-3.136a14.707 14.707 0 0 0 5.167-7.99l5.052 5.404-2.494 7.755c-.831 2.582 1.099 5.226 3.809 5.226 1.69 0 3.262-1.08 3.807-2.776 3.274-10.177 4.404-11.73 2.329-13.951l-10.245-10.958 1.44-5.94v-.002c.998-4.126 1.555-8.35 1.721-12.59h7.509c11.205 17.333 11.033 18.193 13.941 18.193 3.134 0 5.085-3.497 3.355-6.172l-11.761-18.192a4 4 0 0 0-3.359-1.829h-9.869c-.275-3.257-.77-6.497-1.538-9.675l-.243-1.003h14.793c1.05 0 2.058-.413 2.807-1.149l13.166-12.962a4 4 0 0 0-5.613-5.701l-11.998 11.813h-9.914l26.761-26.761c36.13 40.94 6.925 105.636-47.684 105.636z"/><circle cx="58.43" cy="88.457" transform="rotate(-9.25 58.44 88.592)" r="6.237"/><circle cx="104.281" cy="88.457" r="6.237"/><path d="M104.905 29.722a26.478 26.478 0 0 1 13.787 16.397 4 4 0 1 0 7.685-2.225 34.49 34.49 0 0 0-17.961-21.361 4.001 4.001 0 0 0-3.511 7.189zM119.733 58.323v3.393a4 4 0 0 0 8 0v-3.393a4 4 0 0 0-8 0z"/><circle cx="81.355" cy="198.216" r="6.25"/><circle cx="81.355" cy="224.466" r="6.25"/><path d="M89.146 112.327H73.565a4 4 0 0 0 0 8h15.581a4 4 0 0 0 0-8zM89.146 126.466H73.565a4 4 0 0 0 0 8h15.581a4 4 0 0 0 0-8z"/></g></svg>