<svg height="512" viewBox="0 0 256 256" width="512" xmlns="http://www.w3.org/2000/svg"><path d="m138.327 110.15-8.501-29.681H33.07l-8.501 29.681s-12.623 38.703 1.913 60.479c.926 1.388 2.411 2.171 3.96 2.171h102.012c1.548 0 3.033-.783 3.96-2.171 14.536-21.775 1.913-60.479 1.913-60.479z" fill="#87828e"/><path d="M45.442 172.8h-15c-1.55 0-3.03-.78-3.96-2.17-14.54-21.78-1.91-60.48-1.91-60.48l8.5-29.68h15l-8.5 29.68s-12.63 38.7 1.91 60.48c.93 1.39 2.41 2.17 3.96 2.17z" fill="#a4a4a5"/><path d="M136.412 170.63c-.92 1.39-2.41 2.17-3.96 2.17h-15c1.55 0 3.04-.78 3.96-2.17 14.54-21.78 1.92-60.48 1.92-60.48l-8.51-29.68h15l8.51 29.68s12.62 38.7-1.92 60.48z" fill="#796e84"/><path d="M66.355 145.215h30v34.28h-30z" fill="#ffbb98"/><path d="M66.359 145.215h15v34.28h-15z" fill="#ffcaa6"/><path d="M157.115 238.525v.97c0 5.523-4.477 10-10 10H15.595c-5.523 0-10-4.477-10-10v-.97c0-24.04 11.19-45.47 28.65-59.34 1.18-.94 2.38-1.84 3.61-2.7 12.31-8.65 27.3-13.73 43.49-13.73h.02c16.19 0 31.18 5.08 43.49 13.73 1.23.86 2.44 1.76 3.61 2.7 2.26 1.79 4.42 3.72 6.46 5.76 13.71 13.71 22.19 32.65 22.19 53.58z" fill="#ffe2e2"/><path d="M88.849 163.125c-13.31 1.3-25.6 6.06-35.99 13.36-1.23.86-2.43 1.76-3.61 2.7-17.46 13.87-28.65 35.3-28.65 59.34v.97c0 5.52 4.47 10 10 10h-15c-5.53 0-10-4.48-10-10v-.97c0-24.04 11.19-45.47 28.65-59.34 1.18-.94 2.38-1.84 3.61-2.7 12.31-8.65 27.3-13.73 43.49-13.73h.02c2.52 0 5.02.12 7.48.37z" fill="#ffefee"/><path d="M81.355 147.72c-25.605 0-46.554-20.949-46.554-46.554v-41.62c0-3.462 2.833-6.295 6.295-6.295h80.516c3.462 0 6.295 2.833 6.295 6.295v41.62c.002 25.605-20.948 46.554-46.552 46.554z" fill="#ffbb98"/><path d="M127.909 59.545v41.62c0 25.61-20.95 46.55-46.55 46.55-2.55 0-5.06-.21-7.5-.61 22.07-3.61 39.05-22.88 39.05-45.94v-41.62c0-3.46-2.83-6.29-6.3-6.29h15c3.47 0 6.3 2.83 6.3 6.29z" fill="#ffaa80"/><path d="M88.859 147.105c-2.44.4-4.95.61-7.5.61-25.61 0-46.56-20.94-46.56-46.55v-41.62c0-3.46 2.84-6.29 6.3-6.29h15c-3.46 0-6.3 2.83-6.3 6.29v41.62c0 23.06 16.98 42.33 39.06 45.94z" fill="#ffcaa6"/><path d="M91.688 4.828H71.022c-26.512 0-48.004 21.492-48.004 48.004v22.125a5.01 5.01 0 0 0 4.971 5.004c40.648.333 48.405-19.037 52.417-35.521 3.955 16.512 11.072 35.302 54.251 35.451 2.773.01 5.036-2.23 5.036-5.003V52.832C139.692 26.32 118.2 4.828 91.688 4.828z" fill="#87828e"/><path d="M139.689 52.835v22.05a5.01 5.01 0 0 1-5.03 5.01c-4.56-.02-8.73-.24-12.52-.65a5.008 5.008 0 0 0 2.55-4.36v-22.05c0-26.51-21.49-48.01-48-48.01h15c26.51 0 48 21.5 48 48.01z" fill="#796e84"/><path d="M38.019 52.835v22.12c0 1.89 1.04 3.53 2.59 4.39-3.81.44-8 .66-12.62.62-2.75-.03-4.97-2.26-4.97-5.01v-22.12c0-26.51 21.49-48.01 48-48.01h15c-26.51 0-48 21.5-48 48.01z" fill="#a4a4a5"/><circle cx="182.803" cy="183.565" fill="#ff4a73" r="67.606"/><path d="M209.369 145.435c31.45 27.4 5.62 54.18.75 58.75-.27.25-.5.47-.76.72z" fill="#87828e"/><path d="M209.349 145.435c-31.44 27.4-5.61 54.18-.75 58.75.27.25.49.46.76.72z" fill="#a4a4a5"/><path d="M250.409 183.565c0 37.34-30.27 67.61-67.61 67.61-2.54 0-5.04-.14-7.5-.42 33.81-3.72 60.11-32.39 60.11-67.19s-26.3-63.47-60.11-67.19c2.46-.28 4.96-.42 7.5-.42 37.34 0 67.61 30.27 67.61 67.61z" fill="#ea2a6a"/><path d="M190.299 250.755c-2.46.28-4.96.42-7.5.42-37.33 0-67.6-30.27-67.6-67.61s30.27-67.61 67.6-67.61c2.54 0 5.04.14 7.5.42-33.8 3.72-60.1 32.39-60.1 67.19s26.3 63.47 60.1 67.19z" fill="#f973a3"/><path d="M160.57 222.986c-16.02 0-29.053-13.033-29.053-29.053s13.033-49.79 29.053-49.79 29.053 33.77 29.053 49.79-13.033 29.053-29.053 29.053z" fill="#ffe2e2"/><path d="M189.619 193.935c0 16.02-13.03 29.05-29.05 29.05-2.59 0-5.11-.34-7.5-.99 12.4-3.31 21.55-14.63 21.55-28.06s-9.15-39.32-21.55-47.35c2.39-1.55 4.91-2.44 7.5-2.44 16.02 0 29.05 33.77 29.05 49.79z" fill="#ffcfcf"/><path d="M168.069 221.995c-2.39.65-4.91.99-7.5.99-16.02 0-29.05-13.03-29.05-29.05s13.03-49.79 29.05-49.79c2.59 0 5.11.89 7.5 2.44-12.4 8.03-21.55 33.92-21.55 47.35s9.15 24.75 21.55 28.06z" fill="#ffefee"/><path d="M160.57 209.866c-8.786 0-15.933-7.147-15.933-15.933S151.784 178 160.57 178s15.933 7.147 15.933 15.933-7.147 15.933-15.933 15.933z" fill="#f9d335"/><path d="M168.079 207.985c-2.23 1.2-4.79 1.88-7.51 1.88-8.78 0-15.93-7.15-15.93-15.93 0-8.79 7.15-15.93 15.93-15.93 2.72 0 5.28.68 7.51 1.89-5.02 2.67-8.44 7.96-8.44 14.04 0 6.07 3.42 11.37 8.44 14.05z" fill="#f9e27d"/><g fill="#5f266d"><circle cx="58.429" cy="88.487" transform="rotate(-9.25 58.437 88.623)" r="6.237"/><circle cx="104.281" cy="88.487" r="6.237"/><circle cx="81.355" cy="198.245" r="6.25"/><circle cx="81.355" cy="224.495" r="6.25"/><path d="M145.434 122.511c-1.432-7.738-1.969-8.968-10.475-38.634 4.99-.184 8.733-4.204 8.733-8.987V52.833c0-28.675-23.329-52.004-52.004-52.004H71.022c-28.675 0-52.004 23.329-52.004 52.004v22.125c0 4.909 3.986 8.937 8.894 9.001l-7.166 25.023c-.805 2.494-12.852 41.009 2.412 63.873 1.653 2.47 4.376 3.945 7.284 3.945h.397c-17.842 14.599-29.248 36.35-29.248 62.694 0 7.72 6.28 14 14 14h131.52c3.408 0 6.662-1.247 9.177-3.432a71.203 71.203 0 0 0 26.514 5.11c39.484 0 71.606-32.123 71.606-71.606 0-55.922-61.559-90.182-108.974-61.055zm79.398 13.372-9.582 9.576a69.009 69.009 0 0 0-3.258-3.039c-.772-.672-1.698-.968-2.65-.967-1.019.006-2.008.43-2.625.968-9.67 8.427-16.768 19.028-16.705 31.962-1.442-4.5-3.253-9.015-5.336-13.15-6.849-13.599-15.411-21.088-24.106-21.088s-17.257 7.489-24.106 21.088c-5.352 10.625-8.947 23.767-8.947 32.702 0 10.691 5.106 20.207 13.003 26.253l-5.404 5.404c-9.896-11.216-15.92-25.927-15.92-42.026.001-54.606 64.691-83.817 105.636-47.683zm-15.475 63.384c-14.408-15.544-15.873-32.832-.002-48.387 15.969 15.646 14.314 32.975.002 48.387zm-23.734-5.333c0 13.814-11.239 25.053-25.053 25.053s-25.053-11.239-25.053-25.053c0-16.014 12.877-45.791 25.053-45.791s25.053 29.777 25.053 45.791zm-47.436-66.316c-11.904 9.512-20.726 22.724-24.68 37.89a79.515 79.515 0 0 0-13.148-4.46v-13.051c18.187-7.405 31.116-25.101 31.526-45.82 3.69 12.873 4.98 16.853 6.302 25.441zM81.36 143.715c-23.468 0-42.56-19.088-42.56-42.55V83.552c13.82-1.229 24.297-5.216 31.831-12.089 4.542-4.143 7.576-8.978 9.738-13.927 5.424 12.593 16.292 23.567 43.541 25.896v17.734c0 23.461-19.088 42.549-42.55 42.549zm10.999 6.781v9.031c-7.271-1.012-14.479-1.044-22-.01v-9.021a50.22 50.22 0 0 0 22 0zM27.018 74.958V52.833c0-24.264 19.74-44.004 44.004-44.004h20.667c24.264 0 44.004 19.74 44.004 44.004v22.056a1.01 1.01 0 0 1-1.019 1.003h-.004c-39.392-.136-46.306-15.395-50.374-32.382a4 4 0 0 0-3.883-3.068h-.007a4.001 4.001 0 0 0-3.887 3.054c-3.862 15.868-11.138 32.77-48.498 32.466a1.01 1.01 0 0 1-1.003-1.004zm3.424 93.842c-.24 0-.465-.14-.633-.391-12.245-18.343-3.895-48.419 1.033-65.623.649 20.457 13.505 37.879 31.517 45.211v13.038a78.935 78.935 0 0 0-19.763 7.764H30.442zm-14.85 76.694c-3.309 0-6-2.691-6-6 0-55.084 55.828-87.804 102.317-65.921a71.916 71.916 0 0 0-.712 9.992c0 26.414 14.387 49.517 35.726 61.929zm167.21 1.677c-16.1 0-30.813-6.025-42.029-15.923l6.888-6.888a32.867 32.867 0 0 0 12.909 2.627c18.618 0 35.07-15.738 32.799-37.42 2.985 6.829 7.316 12.164 10.289 15.326-2.091 2.07-7.133 7.078-11.731 11.644-3.748 3.721 1.891 9.394 5.637 5.677 7.032-6.983 9.977-9.907 11.794-11.706 12.624 12.503 12.378 12.867 14.608 12.867 3.538 0 5.36-4.315 2.818-6.838-8.319-8.262-10.173-10.104-11.727-11.643 14.927-15.849 18.864-35.765 5.496-53.424l9.937-9.93c36.12 40.939 6.921 105.631-47.688 105.631z"/><path d="M140.637 193.934c0 10.991 8.942 19.933 19.933 19.933s19.933-8.942 19.933-19.933-8.942-19.933-19.933-19.933-19.933 8.942-19.933 19.933zm31.866 0c0 6.58-5.353 11.933-11.933 11.933s-11.933-5.353-11.933-11.933 5.353-11.933 11.933-11.933 11.933 5.353 11.933 11.933zM206.401 166.992a4.18 4.18 0 1 0 5.913-5.912 4.18 4.18 0 0 0-5.913 5.912zM87.605 108.201h-12.5a4 4 0 0 0 0 8h12.5a4 4 0 0 0 0-8zM104.812 29.248a26.475 26.475 0 0 1 13.787 16.397 4 4 0 1 0 7.685-2.225 34.49 34.49 0 0 0-17.961-21.361 4.001 4.001 0 0 0-3.511 7.189zM119.64 57.848v3.393a4 4 0 0 0 8 0v-3.393a4 4 0 0 0-8 0z"/></g></svg>