<svg height="512" viewBox="0 0 256 256" width="512" xmlns="http://www.w3.org/2000/svg"><path d="M249 128c0 21.94-5.84 42.52-16.05 60.26-15.76 27.39-41.94 48.03-73.13 56.5-10.14 2.77-20.81 4.24-31.82 4.24h-.05C61.14 248.97 7 194.81 7 128 7 61.17 61.17 7 128 7s121 54.17 121 121z" fill="#ff4a73"/><path d="M249 128c0 21.94-5.84 42.52-16.05 60.26-15.76 27.39-41.94 48.03-73.13 56.5-10.14 2.77-20.81 4.24-31.82 4.24h-.05c-3.34 0-6.66-.14-9.93-.41 7.48-.61 14.77-1.91 21.8-3.83 31.19-8.47 57.37-29.11 73.13-56.5C223.16 170.52 229 149.94 229 128c0-63.46-48.85-115.51-111-120.59 3.3-.27 6.63-.41 10-.41 66.83 0 121 54.17 121 121z" fill="#ea2a6a"/><path d="M138.02 248.59c-3.3.27-6.65.41-10.02.41h-.05C61.14 248.97 7 194.81 7 128 7 61.17 61.17 7 128 7c3.37 0 6.7.14 10 .41C75.85 12.49 27 64.54 27 128c0 63.47 48.86 115.52 111.02 120.59z" fill="#f973a3"/><path d="M232.95 146.1v42.16c-15.76 27.39-41.94 48.03-73.13 56.5-10.14 2.77-20.81 4.24-31.82 4.24h-.05V146.1c0-.52.01-1.03.05-1.54.38-6.88 3.32-13.07 7.89-17.64 4.91-4.9 11.69-7.94 19.18-7.94V67.44h50.77v51.54c14.97 0 27.11 12.14 27.11 27.12z" fill="#44c7b6"/><path d="M108 197.258H51.181c-11.046 0-20-8.954-20-20V79.733c0-11.046 8.954-20 20-20H108c11.046 0 20 8.954 20 20v97.525c0 11.046-8.954 20-20 20z" fill="#5fcdff"/><g fill="#ffe2e2"><circle cx="100.895" cy="164.003" r="10.889"/><circle cx="58.286" cy="164.003" r="10.889"/><circle cx="100.895" cy="128.496" r="10.889"/><circle cx="58.286" cy="128.496" r="10.889"/><circle cx="100.895" cy="92.988" r="10.889"/><circle cx="58.286" cy="92.988" r="10.889"/></g><path d="M128 79.73v97.53c0 11.04-8.95 20-20 20H93c11.05 0 20-8.96 20-20V79.73c0-11.04-8.95-20-20-20h15c11.05 0 20 8.96 20 20z" fill="#30b6ff"/><path d="M66.18 197.26h-15c-11.04 0-20-8.96-20-20V79.73c0-11.04 8.96-20 20-20h15c-11.04 0-20 8.96-20 20v97.53c0 11.04 8.96 20 20 20z" fill="#73d7f9"/><path d="M232.95 146.1v42.16c-4.34 7.55-9.48 14.58-15.29 20.99.1-.19.19-.39.29-.58v-49.28c0-17.51-12.14-31.7-27.11-31.7V67.44h15v51.54c14.97 0 27.11 12.14 27.11 27.12z" fill="#3bb2a0"/><path d="M232.95 156.77v31.49c-15.76 27.39-41.94 48.03-73.13 56.5v-87.99z" fill="#ffe2e2"/><path d="M232.95 156.77v31.49c-4.27 7.42-9.3 14.35-15 20.66v-52.15z" fill="#ffcfcf"/><path d="M174.82 156.77v82.83c-4.85 2.03-9.85 3.76-15 5.16v-87.99z" fill="#ffefee"/><path d="M155.07 67.44h15v60.25c-7.49 0-14.27 3.55-19.18 9.28-4.57 5.34-7.51 12.57-7.89 20.62-.04.59-.05 1.19-.05 1.8v88.69c-4.9.61-9.89.92-14.95.92h-.05V146.1c0-.52.01-1.03.05-1.54.38-6.88 3.32-13.07 7.89-17.64 4.91-4.9 11.69-7.94 19.18-7.94z" fill="#4bdbc3"/><path d="M210.07 81.278h-59.231a5 5 0 0 1-5-5V59.375a5 5 0 0 1 5-5h59.231a5 5 0 0 1 5 5v16.903a5 5 0 0 1-5 5z" fill="#87828e"/><path d="M215.07 59.38v16.9c0 2.76-2.24 5-5 5h-15c2.76 0 5-2.24 5-5v-16.9c0-2.77-2.24-5-5-5h15c2.76 0 5 2.23 5 5z" fill="#796e84"/><path d="M165.84 81.28h-15c-2.76 0-5-2.24-5-5v-16.9c0-2.77 2.24-5 5-5h15c-2.76 0-5 2.23-5 5v16.9c0 2.76 2.24 5 5 5z" fill="#a4a4a5"/><g fill="#5f266d"><path d="M128 3C59.08 3 3 59.07 3 128c0 68.89 56.05 124.97 124.95 125h.05c68.43 0 125-55.491 125-125C253 59.07 196.92 3 128 3zm22.84 74.28c-.55 0-1-.45-1-1v-16.9c0-.56.45-1 1-1h59.23c.55 0 1 .44 1 1v16.9c0 .55-.45 1-1 1h-59.23zM51.18 193.26c-8.82 0-16-7.18-16-16V79.73c0-8.82 7.18-16 16-16H108c8.82 0 16 7.18 16 16v64.7c-.01.16-.02.31-.02.46-.03.46-.03.87-.03 1.21v32.39c-.366 7.69-7.217 14.77-15.95 14.77zM11 128C11 63.49 63.49 11 128 11c30.82 0 58.89 11.98 79.81 31.53l-7.85 7.85h-49.12c-4.96 0-9 4.03-9 9v16.9c0 4.96 4.04 9 9 9h.23v13.99L132 118.34V79.73c0-13.23-10.77-24-24-24H51.18c-13.23 0-24 10.77-24 24v97.53c0 12.55 9.69 22.89 21.99 23.91l-6.64 6.64C22.98 186.89 11 158.82 11 128zm140.07-17.41v4.64c-2.07.26-4.09.73-6.04 1.4zM60.4 201.26c50.634 0 47.852.018 48.73-.03 4.697-.124 10.071-2.005 14.82-6.05v49.75c-29.22-1-55.76-12.76-75.76-31.46zm71.6-56.61c.35-5.62 2.73-10.91 6.71-14.9 4.38-4.37 10.19-6.77 16.36-6.77 2.21 0 4-1.79 4-4v-33.7h42.77v33.7c0 2.21 1.79 4 4 4 12.74 0 23.11 10.37 23.11 23.12v6.67h-69.13c-2.21 0-4 1.79-4 4v84.89a116.2 116.2 0 0 1-23.87 3.27c0-86.027.05-38.551.05-100.28zm31.82 94.75v-78.63h65.13v26.41c-14.1 24.005-37.583 43.47-65.13 52.22zm73.13-93.3c0-15.8-11.84-28.89-27.11-30.86V85.28h.23c4.96 0 9-4.04 9-9v-16.9c0-4.58-3.44-8.37-7.86-8.93l2.26-2.26C233.02 69.11 245 97.18 245 128c0 14.67-2.75 29.18-8.05 42.71V146.1z"/><path d="M115.78 164c0-8.21-6.67-14.89-14.88-14.89S86.01 155.79 86.01 164s6.68 14.89 14.89 14.89 14.88-6.68 14.88-14.89zm-14.88 6.89c-3.8 0-6.89-3.09-6.89-6.89s3.09-6.89 6.89-6.89c3.79 0 6.88 3.09 6.88 6.89s-3.09 6.89-6.88 6.89zM58.29 149.11c-8.21 0-14.89 6.68-14.89 14.89s6.68 14.89 14.89 14.89 14.88-6.68 14.88-14.89-6.67-14.89-14.88-14.89zm0 21.78c-3.8 0-6.89-3.09-6.89-6.89s3.09-6.89 6.89-6.89c3.79 0 6.88 3.09 6.88 6.89s-3.09 6.89-6.88 6.89zM100.9 143.38c8.21 0 14.88-6.67 14.88-14.88s-6.67-14.89-14.88-14.89-14.89 6.68-14.89 14.89 6.68 14.88 14.89 14.88zm0-21.77c3.79 0 6.88 3.09 6.88 6.89 0 3.79-3.09 6.88-6.88 6.88-3.8 0-6.89-3.09-6.89-6.88 0-3.8 3.09-6.89 6.89-6.89zM58.29 113.61c-8.21 0-14.89 6.68-14.89 14.89s6.68 14.88 14.89 14.88 14.88-6.67 14.88-14.88-6.67-14.89-14.88-14.89zm0 21.77c-3.8 0-6.89-3.09-6.89-6.88 0-3.8 3.09-6.89 6.89-6.89 3.79 0 6.88 3.09 6.88 6.89 0 3.79-3.09 6.88-6.88 6.88zM100.9 107.88c8.21 0 14.88-6.68 14.88-14.89S109.11 78.1 100.9 78.1s-14.89 6.68-14.89 14.89 6.68 14.89 14.89 14.89zm0-21.78c3.79 0 6.88 3.09 6.88 6.89s-3.09 6.89-6.88 6.89c-3.8 0-6.89-3.09-6.89-6.89s3.09-6.89 6.89-6.89zM58.29 78.1c-8.21 0-14.89 6.68-14.89 14.89s6.68 14.89 14.89 14.89 14.88-6.68 14.88-14.89S66.5 78.1 58.29 78.1zm0 21.78c-3.8 0-6.89-3.09-6.89-6.89s3.09-6.89 6.89-6.89c3.79 0 6.88 3.09 6.88 6.89s-3.09 6.89-6.88 6.89z"/></g></svg>