<svg height="512" viewBox="0 0 256 256" width="512" xmlns="http://www.w3.org/2000/svg"><path d="m187.3 67.88.008-.002c0-.056-.007-.11-.008-.166v-.007c-.084-8.555-6.326-15.464-14.021-15.464-7.696 0-13.937 6.908-14.021 15.464h-.008v-26.4c0-10.689-7.774-19.353-17.363-19.353-9.529 0-17.253 8.61-17.253 19.231V24.316c0-10.655-7.749-19.292-17.308-19.292-9.559 0-17.308 8.637-17.308 19.292v16.927c0-10.655-7.749-19.292-17.308-19.292-9.559 0-17.308 8.637-17.308 19.292v55.609l.084-.019v14.118L40.584 96.148c-8.003-7.95-20.978-7.95-28.981 0s-8.003 20.839 0 28.789l32.561 32.345c7.277 7.228 11.322 16.736 11.322 26.611v23.242c0 11.046 8.954 20 20 20h111.822V168.53h-.008z" fill="#ffbb98"/><path d="M187.297 168.53h.01v58.6h-15v-58.6h-.01V67.88h.01c0-.06-.01-.11-.01-.17v-.01c-.04-4.27-1.62-8.14-4.15-10.94-.71-.79-1.51-1.49-2.36-2.09 2.17-1.54 4.74-2.43 7.49-2.43 3.85 0 7.34 1.73 9.87 4.52 2.53 2.8 4.11 6.67 4.15 10.94v.01c0 .06.01.11.01.17h-.01z" fill="#ffaa80"/><path d="M90.488 227.13h-15c-11.05 0-20-8.95-20-20v-23.24c0-9.87-4.05-19.38-11.32-26.61l-32.56-32.34a20.196 20.196 0 0 1-6.01-14.39c0-5.22 2-10.42 6.01-14.4 5.94-5.91 14.63-7.42 21.99-4.55-2.55.99-4.93 2.5-6.99 4.55a20.201 20.201 0 0 0-6.01 14.4c0 5.2 2 10.42 6.01 14.39l32.56 32.34c7.27 7.23 11.32 16.74 11.32 26.61v23.24c0 11.05 8.95 20 20 20z" fill="#ffcaa6"/><circle cx="183.108" cy="183.23" fill="#ff4a73" r="67.606"/><path d="M250.718 183.23c0 37.34-30.27 67.61-67.61 67.61-2.54 0-5.04-.14-7.5-.42 33.81-3.72 60.11-32.39 60.11-67.19s-26.3-63.47-60.11-67.19c2.46-.28 4.96-.42 7.5-.42 37.34 0 67.61 30.27 67.61 67.61z" fill="#ea2a6a"/><path d="M190.607 250.42c-2.46.28-4.96.42-7.5.42-37.34 0-67.61-30.27-67.61-67.61s30.27-67.61 67.61-67.61c2.54 0 5.04.14 7.5.42-33.81 3.72-60.11 32.39-60.11 67.19s26.3 63.47 60.11 67.19z" fill="#f973a3"/><g fill="#ffe2e2"><path d="m156.041 182.396-17.826-4.777c-7.923-2.123-10.576-12.026-4.777-17.826 5.8-5.8 15.703-3.146 17.826 4.777zM156.041 182.396l-4.777 17.826c-2.123 7.923-12.026 10.576-17.826 4.777-5.8-5.8-3.146-15.703 4.777-17.826z"/></g><g fill="#ffe2e2"><path d="m210.176 182.396 17.826 4.777c7.923 2.123 10.576 12.026 4.777 17.826-5.8 5.8-15.703 3.146-17.826-4.777zM210.176 182.396l4.777-17.826c2.123-7.923 12.026-10.576 17.826-4.777 5.8 5.8 3.146 15.703-4.777 17.826z"/></g><path d="m183.108 223.626-19.877-34.429c-8.834-15.302 2.209-34.429 19.877-34.429 17.669 0 28.712 19.127 19.877 34.429z" fill="#f9d335"/><g fill="#ffcfcf"><path d="M235.907 197.51c0 2.65-.99 5.35-3.13 7.49s-4.83 3.13-7.49 3.13c-1.75 0-3.49-.43-5.04-1.25.9-.47 1.75-1.1 2.53-1.88 2.14-2.14 3.13-4.84 3.13-7.49 0-4.56-2.9-9-7.91-10.34l-7.05-1.89-.77-2.88 17.82 4.77c5.01 1.34 7.91 5.78 7.91 10.34zM235.907 167.28c0 4.56-2.9 9-7.91 10.34l-17.82 4.78.77-2.89 7.05-1.89c5.01-1.34 7.91-5.78 7.91-10.34 0-2.65-.99-5.35-3.13-7.49-.78-.78-1.63-1.41-2.53-1.88 1.55-.82 3.29-1.25 5.04-1.25 2.66 0 5.35.99 7.49 3.13s3.13 4.84 3.13 7.49z"/></g><g fill="#ffefee"><path d="m156.037 182.4-17.82-4.78c-5.01-1.34-7.91-5.78-7.91-10.34 0-2.65.99-5.35 3.13-7.49s4.83-3.13 7.49-3.13c1.75 0 3.49.43 5.04 1.25-.9.47-1.75 1.1-2.53 1.88-2.14 2.14-3.13 4.84-3.13 7.49 0 4.56 2.9 9 7.91 10.34l7.05 1.89zM156.037 182.4l-.77 2.88-7.05 1.89c-5.01 1.34-7.91 5.78-7.91 10.34 0 2.65.99 5.35 3.13 7.49.78.78 1.63 1.41 2.53 1.88-1.55.82-3.29 1.25-5.04 1.25-2.66 0-5.35-.99-7.49-3.13s-3.13-4.84-3.13-7.49c0-4.56 2.9-9 7.91-10.34z"/></g><path d="M206.097 177.76c0 3.82-.98 7.74-3.11 11.44l-19.88 34.43-7.5-12.99 12.38-21.44c2.13-3.7 3.11-7.62 3.11-11.44 0-9.6-6.15-18.57-15.49-21.76 2.32-.79 4.83-1.23 7.5-1.23 13.4 0 22.99 11 22.99 22.99z" fill="#f2c300"/><path d="m178.228 189.2 12.38 21.44-7.5 12.99-19.88-34.43c-2.13-3.7-3.11-7.62-3.11-11.44 0-11.99 9.59-22.99 22.99-22.99 2.67 0 5.18.44 7.5 1.23-9.34 3.19-15.49 12.16-15.49 21.76-.001 3.82.979 7.74 3.11 11.44z" fill="#f9e27d"/><g fill="#ffe2e2"><circle cx="200.058" cy="156.43" r="12.045"/><circle cx="166.158" cy="156.43" r="12.045"/></g><path d="M172.157 166.86a11.887 11.887 0 0 1-6 1.61c-6.65 0-12.04-5.39-12.04-12.04s5.39-12.05 12.04-12.05c2.18 0 4.23.58 6 1.61-3.61 2.08-6.04 5.98-6.04 10.44s2.43 8.36 6.04 10.43z" fill="#ffefee"/><path d="M212.107 156.43c0 6.65-5.4 12.04-12.05 12.04-2.18 0-4.24-.58-6-1.61 3.61-2.07 6.05-5.96 6.05-10.43s-2.44-8.37-6.05-10.44a11.86 11.86 0 0 1 6-1.61c6.651 0 12.05 5.4 12.05 12.05z" fill="#ffcfcf"/><g fill="#5f266d"><path d="M69.137 139.39v6.38c0 5.302 8 5.276 8 0v-6.38c0-5.281-8-5.294-8 0zM111.817 118.1c0-5.285-8-5.293-8 0v6.38c0 5.285 8 5.293 8 0zM145.887 74.17v-6.38c0-5.285-8-5.293-8 0v6.38c0 5.285 8 5.293 8 0zM177.677 91.69v-6.38c0-5.285-8-5.293-8 0v6.38c0 5.285 8 5.293 8 0zM111.817 44.03v-6.38c0-5.285-8-5.293-8 0v6.38c0 5.285 8 5.293 8 0zM69.137 70.16v6.38c0 5.302 8 5.276 8 0v-6.38c0-5.28-8-5.294-8 0zM30.577 112.05v6.39c0 5.285 8 5.293 8 0v-6.39c0-5.285-8-5.293-8 0zM86.007 166.03v6.38c0 5.285 8 5.293 8 0v-6.38c0-5.285-8-5.293-8 0zM69.137 200.97v6.38c0 5.302 8 5.276 8 0v-6.38c0-5.281-8-5.294-8 0z"/><path d="M191.297 112.09V68.18c.01-.1.01-.2.01-.3 0-.12 0-.22-.01-.33-.245-15.551-16.254-24.673-28.05-15.96V41.3c0-19.598-20.829-30.381-34.64-18.24-1.427-29.175-41.167-29.236-42.56.03-14.001-12.313-34.65-1.252-34.65 18.15 0 64.079.09 59.828.09 60.1l-8.08-8.03C20.514 70.585-14.09 105.1 8.787 127.78l32.56 32.34c6.54 6.5 10.14 14.94 10.14 23.77v23.24c0 13.23 10.77 24 24 24h54.44c13.12 14.55 32.1 23.71 53.18 23.71 39.48 0 71.61-32.13 71.61-71.61.001-36.71-27.779-67.07-63.42-71.14zm33.401 23.05-11.75 11.74c-2.92-3.93-7.61-6.49-12.89-6.49-6.89 0-12.77 4.35-15.04 10.46-1.27-.1-2.55-.1-3.82 0-2.26-6.11-8.15-10.46-15.04-10.46-8.66 0-15.73 6.88-16.03 15.47-5.445-4.349-13.877-4.528-19.52 1.1-7.963 7.985-4.342 21.6 6.57 24.52l3.41.92-3.41.91c-10.895 2.915-14.547 16.522-6.57 24.52 8.008 7.979 21.6 4.322 24.52-6.57l3.37-12.56c.626 1.463 1.324 2.593 4.51 8.12l-28 28c-9.691-11.25-15.51-25.688-15.51-41.59 0-35.07 28.54-63.61 63.61-63.61a63.385 63.385 0 0 1 41.59 15.52zm-41.591 80.49-4.24-7.35h8.49zm-1.07-56.83c.71-.04 1.44-.04 2.16 0a15.952 15.952 0 0 0 4.08 8.51h-10.34c2.056-2.198 3.622-5.216 4.1-8.51zm-16.9 25a18.226 18.226 0 0 1-.85-8.49h37.64a18.22 18.22 0 0 1-.85 8.49zm42.97-27.37c0 4.449-3.623 8.04-8.05 8.04a8.04 8.04 0 0 1 0-16.08c4.354 0 8.05 3.507 8.05 8.04zm-33.899 0c0 4.44-3.61 8.04-8.05 8.04-4.453 0-8.04-3.623-8.04-8.04 0-4.44 3.61-8.04 8.04-8.04s8.05 3.59 8.05 8.04zm-23.821 20.31-11.14-2.98c-4.939-1.341-6.61-7.51-2.98-11.14 3.608-3.608 9.805-1.979 11.13 2.98zm41.591 23.54h-17.73l-4.89-8.48h27.51zm26.839-34.68c1.325-4.956 7.522-6.588 11.13-2.98 3.626 3.626 1.965 9.797-2.98 11.14l-11.13 2.98zm-68.43 22.45-2.99 11.14c-1.323 4.949-7.514 6.596-11.13 2.98-3.635-3.635-1.95-9.812 2.98-11.13zm-26.74 35.08h-48.16c-8.82 0-16-7.18-16-16v-23.24c0-10.97-4.44-21.43-12.5-29.45l-32.57-32.34c-15.377-15.229 7.946-38.418 23.35-23.11l14.9 14.8c2.51 2.489 6.82.719 6.82-2.84 0-3.135-.09-17.841-.09-69.71 0-19.904 26.175-20.332 26.61-.4 0 0 .01 0 0 .01v60.29c0 5.285 8 5.293 8 0 0-8.389.01-68.422.01-76.82 0-20.279 26.62-20.192 26.62 0l-.01 76.82c0 5.285 8 5.293 8 0V41.39c.01-.07.01-.14.01-.21 0-20.228 26.61-20.103 26.61.12 0 6.206-.01 22.298-.01 59.84 0 5.281 8 5.294 8 0v-33c.01-.13.02-.26.02-.4.144-15.196 19.895-15.149 20.04-.03v43.91h-.19c-39.48 0-71.61 32.13-71.61 71.61.001 14.945 4.8 28.934 12.15 39.9zm59.46 23.71c-16.31 0-31.22-6.17-42.49-16.31l26.54-26.54 11.95 20.7v11.65c0 5.285 8 5.293 8 0V224.7c21.238-36.753 19.758-34.104 20.62-36l3.36 12.56c2.919 10.887 16.516 14.546 24.52 6.57 7.965-7.965 4.349-21.598-6.57-24.52l-3.41-.91 3.41-.92c10.922-2.922 14.533-16.557 6.57-24.52-5.587-5.572-13.998-5.502-19.51-1.1-.01-.26-.02-.51-.05-.76l14.36-14.36c10.13 11.27 16.31 26.17 16.31 42.49.001 35.07-28.54 63.61-63.61 63.61zm32.73-58.79 11.13 2.99c4.944 1.321 6.617 7.493 2.98 11.13-3.62 3.62-9.81 1.96-11.13-2.98z"/><circle cx="166.157" cy="156.43" r="4.05"/><path d="M200.057 152.38c-2.24 0-4.05 1.81-4.05 4.05s1.81 4.05 4.05 4.05 4.05-1.81 4.05-4.05-1.81-4.05-4.05-4.05z"/></g></svg>