<svg height="512" viewBox="0 0 256 256" width="512" xmlns="http://www.w3.org/2000/svg"><path d="m138.325 110.15-8.501-29.681H33.068l-8.501 29.681s-12.623 38.703 1.913 60.479c.926 1.388 2.411 2.171 3.96 2.171h102.012c1.548 0 3.033-.783 3.96-2.171 14.536-21.775 1.913-60.479 1.913-60.479z" fill="#87828e"/><path d="M45.44 172.8h-15c-1.55 0-3.03-.78-3.96-2.17-14.54-21.78-1.91-60.48-1.91-60.48l8.5-29.68h15l-8.5 29.68s-12.63 38.7 1.91 60.48c.93 1.39 2.41 2.17 3.96 2.17z" fill="#a4a4a5"/><path d="M136.41 170.63c-.92 1.39-2.41 2.17-3.96 2.17h-15c1.55 0 3.04-.78 3.96-2.17 14.54-21.78 1.92-60.48 1.92-60.48l-8.51-29.68h15l8.51 29.68s12.62 38.7-1.92 60.48z" fill="#796e84"/><path d="M66.353 145.216h30v34.28h-30z" fill="#ffbb98"/><path d="M66.35 145.22h15v34.28h-15z" fill="#ffcaa6"/><path d="M157.113 238.525v.97c0 5.523-4.477 10-10 10H15.593c-5.523 0-10-4.477-10-10v-.97c0-24.04 11.19-45.47 28.65-59.34 1.18-.94 2.38-1.84 3.61-2.7 12.31-8.65 27.3-13.73 43.49-13.73h.02c16.19 0 31.18 5.08 43.49 13.73 1.23.86 2.44 1.76 3.61 2.7 2.26 1.79 4.42 3.72 6.46 5.76 13.71 13.71 22.19 32.65 22.19 53.58z" fill="#ffe2e2"/><path d="M88.847 163.123c-13.31 1.3-25.6 6.06-35.99 13.36-1.23.86-2.43 1.76-3.61 2.7-17.46 13.87-28.65 35.3-28.65 59.34v.97c0 5.52 4.48 10 10 10h-15c-5.52 0-10-4.48-10-10v-.97c0-24.04 11.19-45.47 28.65-59.34 1.18-.94 2.38-1.84 3.61-2.7 12.31-8.65 27.3-13.73 43.49-13.73h.02c2.52 0 5.02.12 7.48.37z" fill="#ffefee"/><path d="M81.353 147.72c-25.605 0-46.554-20.949-46.554-46.554v-41.62c0-3.462 2.833-6.295 6.295-6.295h80.516c3.462 0 6.295 2.833 6.295 6.295v41.62c.002 25.605-20.947 46.554-46.552 46.554z" fill="#ffbb98"/><path d="M127.91 59.55v41.62c0 25.6-20.95 46.55-46.56 46.55-2.55 0-5.05-.21-7.49-.61 22.07-3.61 39.05-22.89 39.05-45.94V59.55c0-3.47-2.84-6.3-6.3-6.3h15c3.46 0 6.3 2.83 6.3 6.3z" fill="#ffaa80"/><path d="M88.86 147.11c-2.45.4-4.95.61-7.51.61-25.6 0-46.55-20.95-46.55-46.55V59.55c0-3.47 2.83-6.3 6.29-6.3h15c-3.46 0-6.29 2.83-6.29 6.3v41.62c0 23.05 16.98 42.33 39.06 45.94z" fill="#ffcaa6"/><path d="M91.687 4.829H71.02c-26.512 0-48.004 21.492-48.004 48.004v22.125a5.01 5.01 0 0 0 4.971 5.004c40.648.333 48.405-19.037 52.417-35.521 3.955 16.512 11.072 35.302 54.251 35.451 2.773.01 5.036-2.23 5.036-5.003V52.833c-.001-26.512-21.493-48.004-48.004-48.004z" fill="#87828e"/><path d="M139.69 52.83v22.06c0 2.77-2.26 5.01-5.04 5-4.56-.01-8.72-.24-12.51-.65a5.004 5.004 0 0 0 2.55-4.35V52.83c0-26.51-21.49-48-48-48h15c26.51 0 48 21.49 48 48z" fill="#796e84"/><path d="M38.02 52.83v22.13c0 1.88 1.04 3.52 2.58 4.38-3.81.44-8 .66-12.61.62a5.002 5.002 0 0 1-4.97-5V52.83c0-26.51 21.49-48 48-48h15c-26.51 0-48 21.49-48 48z" fill="#a4a4a5"/><path d="M126.18 113.72c-4.85 17.2-19.41 30.46-37.33 33.39-2.45.4-4.95.61-7.5.61-2.53 0-5.01-.2-7.43-.6-.02 0-.04 0-.06-.01-17.92-2.93-32.48-16.18-37.33-33.39l1.52-.5 12.36-4.5 29.23-10.63c1.11-.41 2.32-.41 3.42 0l29.23 10.64c.06.02.12.04.19.06l12.17 4.43z" fill="#5fcdff"/><path d="M126.18 113.72c-4.85 17.2-19.41 30.46-37.33 33.39-2.45.4-4.95.61-7.5.61-2.53 0-5.01-.2-7.43-.6-.02 0-.04 0-.06-.01 19.61-3.21 35.2-18.78 38.43-38.38.06.02.12.04.19.06l12.17 4.43z" fill="#30b6ff"/><path d="M88.85 147.11c-2.45.4-4.95.61-7.5.61-21.26 0-39.31-14.45-44.82-34l1.52-.5 12.36-4.5c3.24 19.6 18.83 35.18 38.44 38.39z" fill="#73d7f9"/><circle cx="182.801" cy="183.565" fill="#ff4a73" r="67.606"/><path d="M250.41 183.57c0 37.33-30.27 67.6-67.61 67.6-2.54 0-5.04-.14-7.5-.42 33.81-3.72 60.11-32.39 60.11-67.18 0-34.8-26.3-63.47-60.11-67.19 2.46-.28 4.96-.42 7.5-.42 37.34 0 67.61 30.27 67.61 67.61z" fill="#ea2a6a"/><path d="M190.3 250.75c-2.46.28-4.96.42-7.5.42-37.34 0-67.61-30.27-67.61-67.6 0-37.34 30.27-67.61 67.61-67.61 2.54 0 5.04.14 7.5.42-33.81 3.72-60.11 32.39-60.11 67.19 0 34.79 26.3 63.46 60.11 67.18z" fill="#f973a3"/><path d="M220.234 154.177a6.105 6.105 0 0 1-5.46-5.111c-2.359-14.358-16.877-19.593-27.876-10.087a6.109 6.109 0 0 1-8.013-.004c-10.907-9.419-25.274-4.356-27.811 9.749-.492 2.739-2.777 4.794-5.55 5.034-6.588.57-12.278 5.328-14.197 13.039-2.892 11.619 3.721 25.906 14.469 30.104 2.674 1.044 4.377 3.756 4.006 6.602-.621 4.766.102 9.641 2.172 14.147 4.341 9.445 14.001 15.308 24.396 15.308h10.873c10.714 0 20.611-6.231 24.767-16.106a25.802 25.802 0 0 0 1.922-12.525c-.29-2.988 1.636-5.679 4.511-6.545 6.615-1.992 12.105-7.994 14.762-15.295l.001-.001c5.074-13.937-1.403-27.187-12.972-28.309z" fill="#b76c6c"/><path d="M220.23 154.18c-2.78-.27-5-2.35-5.46-5.11-2.05-12.53-13.36-18.11-23.52-13.02 4.26 2.37 7.51 6.86 8.52 13.02a6.116 6.116 0 0 0 5.46 5.11c8.85.86 14.72 8.81 14.72 18.75 0 3.05-.55 6.29-1.74 9.56-2.66 7.3-8.15 13.3-14.77 15.29-2.87.87-4.8 3.56-4.51 6.55.41 4.22-.23 8.5-1.92 12.52-3.88 9.23-12.78 15.28-22.68 16.03.68.05 1.36.08 2.04.08h10.87c10.72 0 20.62-6.23 24.77-16.11 1.69-4.02 2.33-8.3 1.92-12.52-.29-2.99 1.64-5.68 4.51-6.55 6.62-1.99 12.11-7.99 14.77-15.29 1.19-3.27 1.74-6.51 1.74-9.56 0-9.94-5.87-17.89-14.72-18.75z" fill="#965959"/><path d="M166.98 217.65c-2.07-4.51-2.8-9.38-2.18-14.15.37-2.84-1.33-5.55-4-6.6-10.75-4.2-17.36-18.48-14.47-30.1 1.92-7.72 7.61-12.47 14.19-13.04 2.78-.24 5.06-2.3 5.55-5.04 1.08-6 4.3-10.37 8.49-12.67-10.07-5.05-21.28.38-23.49 12.67-.49 2.74-2.77 4.8-5.55 5.04-6.58.57-12.27 5.32-14.19 13.04-2.89 11.62 3.72 25.9 14.47 30.1 2.67 1.05 4.37 3.76 4 6.6-.62 4.77.11 9.64 2.18 14.15 4.34 9.45 14 15.31 24.39 15.31h10.87c.7 0 1.4-.03 2.09-.08-9.6-.71-18.3-6.4-22.35-15.23z" fill="#c98585"/><path d="M175.783 220.473c-4.944 0-9.371-2.556-11.842-6.838-2.472-4.281-2.471-9.393 0-13.674l6.034-10.453c2.472-4.281 6.899-6.837 11.843-6.837s9.37 2.556 11.842 6.837l6.035 10.453c2.471 4.281 2.471 9.393 0 13.675-2.472 4.281-6.899 6.837-11.842 6.837z" fill="#ffe2e2"/><path d="M189.32 220.39c-.48.05-.97.08-1.47.08h-12.07c-4.94 0-9.37-2.55-11.84-6.83-2.47-4.29-2.47-9.4 0-13.68l6.03-10.45c2.48-4.28 6.9-6.84 11.85-6.84 2.74 0 5.32.79 7.5 2.22a13.782 13.782 0 0 0-4.35 4.62l-6.03 10.45c-2.47 4.28-2.47 9.39 0 13.68 2.22 3.85 6.04 6.3 10.38 6.75z" fill="#ffefee"/><g fill="#5f266d"><path d="M145.433 122.512c-1.393-7.533-3.044-12.805-3.275-13.528l-7.199-25.105a8.99 8.99 0 0 0 8.734-8.99V52.833c0-28.675-23.329-52.004-52.004-52.004H71.021c-28.675 0-52.004 23.329-52.004 52.004v22.125c0 4.909 3.986 8.936 8.893 9.001l-7.166 25.022c-.804 2.489-12.853 41.008 2.411 63.872 1.652 2.471 4.376 3.946 7.285 3.946h.4C12.998 191.397 1.591 213.15 1.591 239.494c0 7.72 6.28 14 14 14h131.52c3.408 0 6.663-1.247 9.178-3.434a71.2 71.2 0 0 0 26.514 5.11c39.483 0 71.605-32.123 71.605-71.606 0-55.922-61.562-90.18-108.975-61.052zm37.37-2.553c16.098 0 30.808 6.023 42.024 15.919l-7.485 7.485c-2.223-5.719-6.438-10.072-11.889-12.047-6.972-2.526-14.886-.794-21.168 4.635a2.115 2.115 0 0 1-2.783-.005c-6.234-5.384-14.098-7.133-21.029-4.678-6.902 2.444-11.887 8.704-13.332 16.747-.171.949-.976 1.671-1.958 1.756-8.528.737-15.489 7.041-17.733 16.059-3.408 13.69 4.487 29.95 16.896 34.796.994.388 1.623 1.381 1.495 2.359a29.693 29.693 0 0 0 .699 11.191l-11.418 11.417c-36.132-40.939-6.928-105.634 47.681-105.634zm27.15 84.754a21.944 21.944 0 0 1-1.627 10.588c-3.491 8.296-11.766 13.657-21.08 13.657h-10.873c-8.988 0-17.138-5.094-20.761-12.978-1.732-3.77-2.368-7.905-1.84-11.961.604-4.649-2.076-9.109-6.519-10.844-15.618-6.1-17.314-34.055-1.383-35.432 4.574-.396 8.334-3.813 9.142-8.311.945-5.256 3.908-9.127 8.129-10.621 4.611-1.633 9.401-.03 13.131 3.191 3.839 3.316 9.409 3.316 13.242.003 8.645-7.468 19.459-3.579 21.314 7.708a10.141 10.141 0 0 0 9.02 8.445c4.555.442 7.203 3.218 8.623 5.47 2.915 4.625 3.28 11.163.978 17.491-2.313 6.354-6.971 11.271-12.156 12.833-4.719 1.421-7.806 5.946-7.34 10.761zm-71.769-77.093c-11.903 9.512-20.724 22.724-24.678 37.89a79.567 79.567 0 0 0-13.155-4.462v-13.045c18.19-7.404 31.122-25.099 31.534-45.818l2.6 9.068c.013.044.026.091.041.135.024.073 2.224 6.914 3.658 16.232zm-56.832 16.1c-18.171 0-33.711-11.454-39.799-27.518l39.46-14.357c.222-.081.465-.08.685 0l39.462 14.358c-6.09 16.064-21.633 27.517-39.808 27.517zm11 6.781v9.026a78.893 78.893 0 0 0-22-.002V150.5a50.22 50.22 0 0 0 22 .001zm-52.913-42.043a42.61 42.61 0 0 1-.637-7.289V83.551c18.904-1.681 33.971-8.627 41.567-26.017 5.424 12.594 16.292 23.567 43.542 25.897v17.739a42.61 42.61 0 0 1-.638 7.289L84.432 94.328a9.004 9.004 0 0 0-6.153 0zm-12.421-33.5V52.833c0-24.264 19.74-44.004 44.004-44.004h20.667c24.264 0 44.004 19.74 44.004 44.004v22.056c0 .565-.468 1.003-1.019 1.003h-.004a135.855 135.855 0 0 1-6.7-.186c-.02 0-.039-.006-.059-.006l-.024.002C94.459 73.904 88.118 59.471 84.295 43.51c-.976-4.08-6.784-4.091-7.776-.014-4.964 20.399-15.581 32.755-48.498 32.466a1.01 1.01 0 0 1-1.003-1.004zM30.44 168.8c-.239 0-.465-.14-.633-.391-9.918-14.857-6.421-39.914-1.392-57.158l2.427-8.473c.644 20.462 13.498 37.889 31.509 45.224v13.056a79.26 79.26 0 0 0-19.765 7.743H30.44zm-14.848 76.695c-3.309 0-6-2.691-6-6 0-55.367 56.101-87.676 102.316-65.921-4.196 29.917 10.622 57.734 35.017 71.921zm167.211 1.676c-16.099 0-30.81-6.024-42.026-15.92l9.089-9.089c5.448 9.074 15.515 14.796 26.507 14.796h10.873c12.542 0 23.711-7.283 28.453-18.555a29.972 29.972 0 0 0 2.217-14.461c-.101-1.042.592-2 1.684-2.33 7.668-2.31 14.161-8.948 17.368-17.758 3.143-8.635 2.496-17.792-1.729-24.493-3.157-5.007-7.939-8.183-13.55-9.032l8.795-8.795c9.899 11.217 15.924 25.93 15.924 42.031 0 35.073-28.533 63.606-63.605 63.606z"/><path d="M197.125 187.509c-3.194-5.533-8.916-8.837-15.306-8.837s-12.112 3.304-15.307 8.837l-6.034 10.453c-3.195 5.535-3.195 12.142 0 17.674 3.194 5.534 8.917 8.838 15.306 8.838h12.07c6.388 0 12.109-3.303 15.306-8.837 3.195-5.534 3.194-12.142 0-17.675zm-.893 24.127c-1.75 3.029-4.882 4.837-8.378 4.837h-12.07c-3.497 0-6.629-1.809-8.378-4.838-1.749-3.028-1.749-6.644 0-9.673l6.034-10.453c1.749-3.029 4.881-4.837 8.379-4.837 3.497 0 6.629 1.808 8.378 4.837l6.035 10.453c1.748 3.028 1.748 6.645 0 9.674zM173.592 167.798c3.872-1.41 5.238-7.833 2.984-14.029-2.178-5.982-6.514-9.111-9.672-9.111-5.004 0-7.205 7.192-4.616 14.313 2.321 6.375 7.526 10.203 11.304 8.827zM141.298 170.444c-.265 1.771-.315 4.607.94 8.057 2.343 6.439 7.564 10.191 11.303 8.829 3.872-1.41 5.238-7.834 2.984-14.03-3.653-10.034-13.733-12.858-15.227-2.856zM203.505 158.969c1.155-3.174 1.415-6.432.731-9.171-3.15-12.686-18.933.376-15.752 13.146 2.237 8.972 11.657 5.265 15.021-3.975zM223.355 178.901c2.66-7.305.283-14.312-4.616-14.312-6.187 0-12.401 10.269-10.403 18.283 2.183 8.794 11.57 5.508 15.019-3.971zM58.429 82.25c-3.445 0-6.237 2.792-6.237 6.237s2.792 6.237 6.237 6.237 6.237-2.792 6.237-6.237-2.792-6.237-6.237-6.237z"/><circle cx="104.28" cy="88.487" r="6.237"/><path d="M104.904 29.752a26.48 26.48 0 0 1 13.788 16.397 4 4 0 0 0 3.84 2.889c2.667 0 4.584-2.561 3.844-5.113a34.488 34.488 0 0 0-17.96-21.361 4 4 0 0 0-3.512 7.188zM119.732 58.353v3.393a4 4 0 0 0 8 0v-3.393a4 4 0 0 0-8 0z"/><circle cx="81.355" cy="198.245" r="6.25"/><circle cx="81.355" cy="224.495" r="6.25"/><path d="M89.145 112.357h-15.58a4 4 0 0 0 0 8h15.58a4 4 0 0 0 0-8zM89.145 126.496h-15.58a4 4 0 0 0 0 8h15.58a4 4 0 0 0 0-8z"/></g></svg>