<svg height="512" viewBox="0 0 256 256" width="512" xmlns="http://www.w3.org/2000/svg"><path d="M187.369 80.161c0-9.389-7.611-17-17-17h-13.291l9.398-9.398c6.639-6.639 6.639-17.403 0-24.042s-17.403-6.639-24.042 0l-9.398 9.398V25.828c0-9.389-7.611-17-17-17s-17 7.611-17 17v13.291l-9.398-9.398c-6.639-6.639-17.403-6.639-24.042 0s-6.639 17.403 0 24.042l9.398 9.398H61.703c-9.389 0-17 7.611-17 17s7.611 17 17 17h13.291l-9.398 9.398c-6.639 6.639-6.639 17.403 0 24.042s17.403 6.639 24.042 0l9.398-9.398v13.291c0 9.389 7.611 17 17 17s17-7.611 17-17v-13.291l9.398 9.398c6.639 6.639 17.403 6.639 24.042 0s6.639-17.403 0-24.042l-9.398-9.398h13.291c9.389 0 17-7.611 17-17z" fill="#ffe2e2"/><circle cx="116.036" cy="80.161" fill="#f9d335" r="40.771"/><path d="M156.811 80.16c0 22.52-18.26 40.77-40.77 40.77-2.56 0-5.07-.24-7.5-.69 18.93-3.52 33.27-20.13 33.27-40.08s-14.34-36.56-33.27-40.08c2.43-.45 4.94-.69 7.5-.69 22.51 0 40.77 18.25 40.77 40.77z" fill="#f2c300"/><path d="M123.541 120.24c-2.43.45-4.94.69-7.5.69-22.52 0-40.78-18.25-40.78-40.77s18.26-40.77 40.78-40.77c2.56 0 5.07.24 7.5.69-18.94 3.52-33.28 20.12-33.28 40.08s14.34 36.56 33.28 40.08z" fill="#f9e27d"/><g fill="#5f266d"><path d="M170.369 59.161h-3.635l2.571-2.57c8.187-8.188 8.187-21.511-.001-29.699-8.188-8.186-21.511-8.187-29.698.001l-2.57 2.569v-3.634c0-11.579-9.421-21-21-21-11.58 0-21 9.421-21 21v3.634l-2.57-2.569c-8.188-8.188-21.51-8.188-29.699 0-8.187 8.188-8.188 21.51 0 29.699l2.57 2.569h-3.635c-11.58 0-21 9.421-21 21 0 10.98 8.475 20.004 19.225 20.91a122.37 122.37 0 0 0-37.188 37.699 122.398 122.398 0 0 0-18.751 65.148v43.093a4 4 0 0 0 8 0v-43.093c0-36.059 17.334-69.934 45.509-91.343-6.202 20.913 19.67 36.149 34.968 20.854l2.57-2.57v3.634c0 11.579 9.42 21 21 21 11.579 0 21-9.421 21-21v-3.634l2.57 2.569c8.187 8.188 21.51 8.188 29.698 0s8.188-21.51 0-29.699l-2.569-2.568h3.634c11.579 0 21-9.421 21-21s-9.42-21-20.999-21zm-25.106-26.612c5.068-5.068 13.315-5.068 18.386 0 5.068 5.068 5.068 13.316.001 18.385l-8.135 8.135a45.08 45.08 0 0 0-18.385-18.386zm-42.227-6.721c0-7.168 5.832-13 13-13s13 5.832 13 13v11.493a44.716 44.716 0 0 0-26 0zm-34.611 6.721c5.069-5.068 13.317-5.069 18.385.001l8.134 8.133a45.083 45.083 0 0 0-18.385 18.385l-8.134-8.134c-5.068-5.068-5.069-13.316 0-18.385zm-6.722 60.612c-7.168 0-13-5.832-13-13s5.832-13 13-13h11.493a44.717 44.717 0 0 0 0 26zm25.106 34.612c-5.068 5.068-13.316 5.068-18.384 0-5.069-5.068-5.068-13.316 0-18.386l8.134-8.134a45.083 45.083 0 0 0 18.385 18.385zm42.227 6.721c0 7.168-5.832 13-13 13s-13-5.832-13-13v-11.493a44.716 44.716 0 0 0 26 0zm-13-17.562c-20.275 0-36.771-16.496-36.771-36.771S95.761 43.39 116.036 43.39s36.771 16.495 36.771 36.771-16.495 36.771-36.771 36.771zm47.613 10.84c-5.069 5.068-13.316 5.068-18.386.001l-8.134-8.134a45.083 45.083 0 0 0 18.385-18.385l8.134 8.133c5.069 5.069 5.069 13.317.001 18.385zm6.72-34.611h-11.494a44.609 44.609 0 0 0 1.931-13.001c0-4.52-.679-8.883-1.931-12.999h11.493c7.168 0 13 5.832 13 13s-5.831 13-12.999 13zM223.094 38.379c5.776 0 10.458-4.682 10.458-10.458s-4.682-10.458-10.458-10.458-10.458 4.683-10.458 10.458 4.682 10.458 10.458 10.458zM223.094 97.161c-5.776 0-10.458 4.682-10.458 10.458s4.682 10.458 10.458 10.458 10.458-4.682 10.458-10.458c.001-5.776-4.682-10.458-10.458-10.458zM241.553 191.128c-5.776 0-10.458 4.683-10.458 10.458s4.682 10.458 10.458 10.458 10.458-4.682 10.458-10.458-4.682-10.458-10.458-10.458zM174.953 161.628c-5.776 0-10.458 4.683-10.458 10.458s4.682 10.458 10.458 10.458 10.458-4.682 10.458-10.458-4.682-10.458-10.458-10.458zM164.494 230.255c-5.776 0-10.458 4.682-10.458 10.458s4.682 10.458 10.458 10.458 10.458-4.682 10.458-10.458c.001-5.776-4.682-10.458-10.458-10.458zM104.744 202.006c-5.776 0-10.458 4.683-10.458 10.458s4.682 10.458 10.458 10.458 10.458-4.682 10.458-10.458-4.682-10.458-10.458-10.458z"/><path d="M137.365 87.736a3.999 3.999 0 0 0-5.229 2.157 54.03 54.03 0 0 1-.999 2.25 4 4 0 0 0 7.236 3.412 60.25 60.25 0 0 0 1.149-2.59 4 4 0 0 0-2.157-5.229zM137.573 61.011c-1.567-1.558-4.122-1.574-5.68-.006-1.557 1.566-1.572 4.076-.005 5.634.127.135 3.117 3.395 3.146 10.255.017 3.794 4.218 4.073 4.017 3.983a4 4 0 0 0 3.983-4.017c-.042-10.171-4.906-15.298-5.461-15.849z"/></g></svg>