<svg height="512" viewBox="0 0 256 256" width="512" xmlns="http://www.w3.org/2000/svg"><path d="m138.325 110.15-8.501-29.681H33.068l-8.501 29.681s-12.623 38.703 1.913 60.479c.926 1.388 2.411 2.171 3.96 2.171h102.012c1.548 0 3.033-.783 3.96-2.171 14.536-21.775 1.913-60.479 1.913-60.479z" fill="#87828e"/><path d="M45.44 172.8h-15c-1.55 0-3.03-.78-3.96-2.17-14.54-21.78-1.91-60.48-1.91-60.48l8.5-29.68h15l-8.5 29.68s-12.63 38.7 1.91 60.48c.93 1.39 2.41 2.17 3.96 2.17z" fill="#a4a4a5"/><path d="M136.41 170.63c-.92 1.39-2.41 2.17-3.96 2.17h-15c1.55 0 3.04-.78 3.96-2.17 14.54-21.78 1.92-60.48 1.92-60.48l-8.51-29.68h15l8.51 29.68s12.62 38.7-1.92 60.48z" fill="#796e84"/><path d="M66.353 145.216h30v34.28h-30z" fill="#ffbb98"/><path d="M66.35 145.22h15v34.28h-15z" fill="#ffcaa6"/><path d="M157.113 238.525v.97c0 5.523-4.477 10-10 10H15.593c-5.048 0-10-3.674-10-10.97 0-24.04 11.19-45.47 28.65-59.34 1.18-.94 2.38-1.84 3.61-2.7 12.31-8.65 27.3-13.73 43.49-13.73h.02c16.19 0 31.18 5.08 43.49 13.73 1.23.86 2.44 1.76 3.61 2.7 2.26 1.79 4.42 3.72 6.46 5.76 13.71 13.71 22.19 32.65 22.19 53.58z" fill="#ffe2e2"/><path d="M88.847 163.123c-13.31 1.3-25.6 6.06-35.99 13.36-1.23.86-2.43 1.76-3.61 2.7-17.374 13.802-28.65 34.869-28.65 60.31 0 5.52 4.48 10 10 10h-15c-5.01 0-10-3.644-10-10.97 0-24.04 11.19-45.47 28.65-59.34 1.18-.94 2.38-1.84 3.61-2.7 12.31-8.65 27.3-13.73 43.49-13.73h.02c2.52 0 5.02.12 7.48.37z" fill="#ffefee"/><path d="M218.141 136.532h-21.119V60.975h21.119z" fill="#b76c6c"/><path d="M222.686 7.068c-1.161-.677-2.62.167-2.597 1.511.35 20.898.954 36.06-1.092 24.977-2.705-14.623-16.208-23.526-20.077-25.806a4.25 4.25 0 0 0-2.161-.584h-69.135c38.834 0 43.508 43.5 43.508 43.5h74.727c-.001-.001-2.908-31.789-23.173-43.598z" fill="#87828e"/><path d="M81.353 147.72c-25.605 0-46.554-20.949-46.554-46.554v-41.62c0-3.462 2.833-6.295 6.295-6.295h80.516c3.462 0 6.295 2.833 6.295 6.295v41.62c.002 25.605-20.947 46.554-46.552 46.554z" fill="#ffbb98"/><path d="M127.91 59.55v41.62c0 25.6-20.95 46.55-46.56 46.55-2.55 0-5.05-.21-7.49-.61 22.07-3.61 39.05-22.89 39.05-45.94V59.55c0-3.47-2.84-6.3-6.3-6.3h15c3.46 0 6.3 2.83 6.3 6.3z" fill="#ffaa80"/><path d="M88.86 147.11c-2.45.4-4.95.61-7.51.61-25.6 0-46.55-20.95-46.55-46.55V59.55c0-3.47 2.83-6.3 6.29-6.3h15c-3.46 0-6.29 2.83-6.29 6.3v41.62c0 23.05 16.98 42.33 39.06 45.94z" fill="#ffcaa6"/><path d="M91.687 4.829H71.02c-26.512 0-48.004 21.492-48.004 48.004v22.125a5.01 5.01 0 0 0 4.971 5.004c40.648.333 48.405-19.037 52.417-35.521 3.955 16.512 11.072 35.302 54.251 35.451 2.773.01 5.036-2.23 5.036-5.003V52.833c-.001-26.512-21.493-48.004-48.004-48.004z" fill="#87828e"/><path d="M139.69 52.83v22.06c0 2.77-2.26 5.01-5.04 5-4.56-.01-8.72-.24-12.51-.65a5.004 5.004 0 0 0 2.55-4.35V52.83c0-26.51-21.49-48-48-48h15c26.51 0 48 21.49 48 48z" fill="#796e84"/><path d="M38.02 52.83v22.13c0 1.88 1.04 3.52 2.58 4.38-3.81.44-8 .66-12.61.62a5.002 5.002 0 0 1-4.97-5V52.83c0-26.51 21.49-48 48-48h15c-26.51 0-48 21.49-48 48zM186.13 50.67h-15s-4.67-43.5-43.51-43.5h15c38.84 0 43.51 43.5 43.51 43.5z" fill="#a4a4a5"/><path d="M245.86 50.67h-15s-1.59-17.32-10.57-31.14c-.06-3.36-.13-7.06-.2-10.95-.02-1.35 1.44-2.19 2.6-1.51 20.26 11.81 23.17 43.6 23.17 43.6z" fill="#796e84"/><path d="M197.02 60.98h11v75.55h-11z" fill="#c98585"/><path d="M170.557 50.666h74.049a5 5 0 0 1 5 5v12.787a5 5 0 0 1-5 5h-74.049a5 5 0 0 1-5-5V55.666a5 5 0 0 1 5-5z" fill="#ff4a73"/><path d="M249.61 55.67v12.78c0 2.76-2.24 5-5 5h-15c2.76 0 5-2.24 5-5V55.67c0-2.77-2.24-5-5-5h15c2.76 0 5 2.23 5 5z" fill="#ea2a6a"/><path d="M185.56 73.45h-15c-2.76 0-5-2.24-5-5V55.67c0-2.77 2.24-5 5-5h15c-2.76 0-5 2.23-5 5v12.78c0 2.76 2.24 5 5 5z" fill="#f973a3"/><circle cx="182.801" cy="183.565" fill="#ff4a73" r="67.606"/><path d="M225.799 174.86c3.861-11.184-2.075-23.38-13.259-27.242-6.754-2.332-13.874-1.086-19.307 2.725-4.453-5.399-11.194-8.841-18.739-8.841-13.409 0-24.279 10.87-24.279 24.279 0 1.574.155 3.112.441 4.603-6.629-.19-12.897 3.897-15.176 10.497-2.81 8.138 1.51 17.012 9.647 19.822 1.71.59 3.45.849 5.161.84a24.533 24.533 0 0 0-.074 1.807c0 13.409 10.87 24.279 24.279 24.279 8.603 0 16.155-4.479 20.468-11.228a21.646 21.646 0 0 0 3.595 1.629c11.184 3.861 23.38-2.075 27.242-13.259 2.732-7.913.555-16.329-4.911-21.945a21.325 21.325 0 0 0 4.912-7.966z" fill="#87828e"/><path d="M250.41 183.57c0 37.33-30.27 67.6-67.61 67.6-2.54 0-5.04-.14-7.5-.42 33.81-3.72 60.11-32.39 60.11-67.18 0-34.8-26.3-63.47-60.11-67.19 2.46-.28 4.96-.42 7.5-.42 37.34 0 67.61 30.27 67.61 67.61z" fill="#ea2a6a"/><path d="M190.3 250.75c-2.46.28-4.96.42-7.5.42-37.34 0-67.61-30.27-67.61-67.6 0-37.34 30.27-67.61 67.61-67.61 2.54 0 5.04.14 7.5.42-33.81 3.72-60.11 32.39-60.11 67.19 0 34.79 26.3 63.46 60.11 67.18z" fill="#f973a3"/><path d="M220.89 182.83c5.46 5.61 7.64 14.03 4.91 21.94-3.86 11.18-16.06 17.12-27.24 13.26-.17-.06-.34-.12-.5-.19a21.378 21.378 0 0 0 12.74-13.07c2.73-7.91.55-16.33-4.91-21.94 2.14-2.2 3.84-4.88 4.91-7.97 3.8-11-1.9-23-12.74-27.05a21.28 21.28 0 0 1 14.48-.19c11.18 3.86 17.12 16.06 13.26 27.24a21.453 21.453 0 0 1-4.91 7.97z" fill="#796e84"/><path d="M165.22 165.78c0 1.58.15 3.11.44 4.6-6.63-.19-12.9 3.9-15.18 10.5-2.81 8.14 1.51 17.01 9.65 19.82 1.71.59 3.45.85 5.16.84-.04.6-.07 1.2-.07 1.81 0 10.79 7.04 19.94 16.78 23.1-2.36.76-4.89 1.18-7.51 1.18-13.4 0-24.27-10.87-24.27-24.28 0-.61.03-1.21.07-1.81-1.71.01-3.45-.25-5.16-.84-8.14-2.81-12.46-11.68-9.65-19.82 2.28-6.6 8.55-10.69 15.18-10.5-.29-1.49-.44-3.02-.44-4.6 0-13.41 10.87-24.28 24.27-24.28 2.62 0 5.14.41 7.51 1.18-9.74 3.16-16.78 12.31-16.78 23.1z" fill="#a4a4a5"/><path d="M126.18 113.72c-4.85 17.2-19.41 30.46-37.33 33.39-2.45.4-4.95.61-7.5.61-2.53 0-5.01-.2-7.43-.6-.02 0-.04 0-.06-.01-17.92-2.93-32.48-16.18-37.33-33.39l1.52-.5 12.36-4.5 29.23-10.63c1.11-.41 2.32-.41 3.42 0l29.23 10.64c.06.02.12.04.19.06l12.17 4.43z" fill="#5fcdff"/><path d="M126.18 113.72c-4.85 17.2-19.41 30.46-37.33 33.39-2.45.4-4.95.61-7.5.61-2.53 0-5.01-.2-7.43-.6-.02 0-.04 0-.06-.01 19.61-3.21 35.2-18.78 38.43-38.38.06.02.12.04.19.06l12.17 4.43z" fill="#30b6ff"/><path d="M88.85 147.11c-2.45.4-4.95.61-7.5.61-21.26 0-39.31-14.45-44.82-34l1.52-.5 12.36-4.5c3.24 19.6 18.83 35.18 38.44 38.39z" fill="#73d7f9"/><g fill="#5f266d"><circle cx="58.429" cy="88.487" transform="rotate(-9.25 58.437 88.623)" r="6.237"/><circle cx="104.28" cy="88.487" r="6.237"/><path d="M104.905 29.752a26.478 26.478 0 0 1 13.787 16.397c1.474 5.091 9.166 2.892 7.685-2.225a34.49 34.49 0 0 0-17.961-21.361 4.001 4.001 0 0 0-3.511 7.189zM119.733 58.353v3.393a4 4 0 0 0 8 0v-3.393a4 4 0 0 0-8 0z"/><circle cx="81.355" cy="198.245" r="6.25"/><circle cx="81.355" cy="224.495" r="6.25"/><path d="M222.142 123.776V77.454h22.466c4.963 0 9-4.038 9-9V55.666c0-3.122-1.6-5.876-4.021-7.491-1.067-7.645-6.007-33.563-24.884-44.564-3.849-2.241-8.686.582-8.61 5.034.061 3.657.162 8.895.172 9.305-5.461-7.378-12.487-11.981-15.312-13.646a8.261 8.261 0 0 0-4.192-1.139h-69.135a4 4 0 0 0 0 8c28.98 0 36.993 26.672 38.956 36.439-2.971 1.472-5.023 4.528-5.023 8.061v12.788c0 4.962 4.037 9 9 9h22.463V112.7c-16.676-2.394-33.39 1.089-47.589 9.812-1.393-7.533-3.044-12.805-3.275-13.528l-7.199-25.105a8.955 8.955 0 0 0 6.087-2.619 8.934 8.934 0 0 0 2.646-6.371V52.833c0-28.675-23.329-52.004-52.004-52.004H71.021c-28.675 0-52.004 23.329-52.004 52.004v22.125c0 4.909 3.985 8.936 8.892 9.001l-7.166 25.023c-.805 2.494-12.852 41.009 2.412 63.873 1.653 2.47 4.376 3.945 7.284 3.945h.401c-17.842 14.599-29.248 36.35-29.248 62.695 0 7.72 6.28 14 14 14h131.52c3.408 0 6.663-1.247 9.178-3.434a71.2 71.2 0 0 0 26.514 5.11c39.483 0 71.605-32.123 71.605-71.606-.001-24.961-12.847-46.969-32.267-59.789zm-68.401-112.61h8.797c3.296 1.932 15.806 10.043 18.222 23.117a4 4 0 1 0 7.867-1.455c-1.758-9.51-7.461-16.76-12.777-21.663h.355c2.451 1.037 11.86 5.582 14.378 15.091a4.004 4.004 0 0 0 4.891 2.843 4 4 0 0 0 2.843-4.891c-1.477-5.575-4.549-9.855-7.854-13.043h6.295a.26.26 0 0 1 .131.031c3.66 2.157 15.79 10.196 18.174 23.086.641 3.464 1.374 7.389 5.377 6.984 3.995-.405 4.001-4.079 4.012-9.641.007-3.586-.091-8.625-.203-14.458l-.081-4.241c11.331 9.066 15.613 25.817 17.055 33.739h-66.721c-1.532-7.518-6.516-25.137-20.761-35.499zm16.818 58.288c-.552 0-1-.449-1-1V55.666c0-.551.448-1 1-1h74.049c.552 0 1 .449 1 1v12.788c0 .551-.448 1-1 1h-74.049zm43.583 8v41.743a71.075 71.075 0 0 0-13.12-4.881V77.454zm-31.339 42.505c16.099 0 30.809 6.023 42.025 15.92l-8.818 8.824a25.655 25.655 0 0 0-2.163-.866c-6.566-2.268-13.777-1.714-19.898 1.417a28.176 28.176 0 0 0-19.453-7.752c-15.955 0-28.824 13.271-28.261 29.275-6.667 1.366-12.231 6.13-14.533 12.797-3.868 11.202 3.026 23.235 14.572 25.576.17 2.685.72 5.267 1.59 7.699l-12.745 12.745c-36.129-40.94-6.926-105.635 47.684-105.635zm35.22 65.656c4.626 4.752 6.157 11.592 3.996 17.85-3.514 10.18-15.487 14.892-25.084 9.456a4.001 4.001 0 0 0-5.343 1.326c-11.275 17.649-38.868 8.572-37.313-12.411a4 4 0 0 0-3.989-4.293c-15.874 0-15.035-23.624.254-23.16 2.571.065 4.524-2.252 4.042-4.755a20.388 20.388 0 0 1-.369-3.847c0-11.182 9.097-20.278 20.278-20.278a20.222 20.222 0 0 1 15.652 7.386 4.001 4.001 0 0 0 5.383.73c4.573-3.207 10.444-4.037 15.705-2.219a17.31 17.31 0 0 1 9.98 8.844 17.307 17.307 0 0 1 .803 13.311 17.261 17.261 0 0 1-3.992 6.477 4 4 0 0 0-.003 5.583zm-79.839-57.995c-11.903 9.512-20.724 22.724-24.678 37.889a79.588 79.588 0 0 0-13.154-4.462v-13.045c18.19-7.404 31.122-25.099 31.534-45.818l2.6 9.068c.013.044.026.091.041.135.023.074 2.223 6.915 3.657 16.233zm-56.832 16.1c-18.171 0-33.711-11.454-39.799-27.518l39.46-14.357c.222-.08.464-.08.684 0l39.463 14.358c-6.09 16.064-21.633 27.517-39.808 27.517zm11 6.781v9.026a79.997 79.997 0 0 0-11.01-.772c-3.686 0-7.358.265-10.99.77V150.5c3.544.79 7.222 1.22 11 1.22s7.456-.43 11-1.219zm-52.913-42.043a42.608 42.608 0 0 1-.637-7.288V83.551c13.82-1.229 24.295-5.216 31.829-12.089 4.542-4.142 7.576-8.978 9.738-13.928 5.425 12.594 16.294 23.568 43.543 25.897v17.739a42.61 42.61 0 0 1-.638 7.289L84.432 94.328a9.01 9.01 0 0 0-6.155 0zm-12.421-33.5V52.833c0-24.264 19.74-44.004 44.004-44.004h20.667c24.264 0 44.004 19.74 44.004 44.004v22.056c0 .34-.16.57-.294.704a1.02 1.02 0 0 1-.725.299h-.004a135.779 135.779 0 0 1-6.699-.186c-.02 0-.039-.006-.059-.006l-.025.003C94.46 73.904 88.119 59.471 84.295 43.51a4 4 0 0 0-3.883-3.068h-.007a4.001 4.001 0 0 0-3.887 3.054c-3.862 15.868-11.141 32.77-48.498 32.466a1.01 1.01 0 0 1-1.002-1.004zM30.44 168.8c-.24 0-.465-.14-.633-.391-13.279-19.891-1.554-56.651-1.434-57.018.015-.046.029-.093.042-.14l2.427-8.476c.643 20.463 13.497 37.891 31.509 45.226v13.056a79.26 79.26 0 0 0-19.765 7.743zm-14.848 76.695c-3.309 0-6-2.691-6-6 0-28.568 15.049-51.558 36.889-63.707 10.594-5.91 22.649-9.033 34.881-9.033a71.952 71.952 0 0 1 30.546 6.819c-4.197 29.915 10.621 57.733 35.017 71.921zm167.211 1.676c-16.099 0-30.81-6.024-42.026-15.92l11.038-11.038c10.99 14.743 32.772 15.256 44.419 1.22 13.332 5.279 28.607-1.631 33.348-15.356 2.751-7.967 1.401-16.58-3.468-23.25a25.258 25.258 0 0 0 3.468-6.662c2.216-6.419 1.8-13.317-1.172-19.423a25.385 25.385 0 0 0-5.598-7.529l7.672-7.678c9.899 11.217 15.924 25.929 15.924 42.03 0 35.073-28.533 63.606-63.605 63.606z"/><path d="M177.591 162.365h-6.422a4 4 0 0 0 0 8h6.422a4 4 0 0 0 0-8zM205.427 194.246h-6.423a4 4 0 0 0 0 8h6.423a4 4 0 0 0 0-8zM166.263 181.565h-6.422a4 4 0 0 0 0 8h6.422a4 4 0 0 0 0-8zM89.145 112.357H73.564a4 4 0 0 0 0 8h15.581a4 4 0 0 0 0-8zM89.145 126.496H73.564a4 4 0 0 0 0 8h15.581a4 4 0 0 0 0-8z"/></g></svg>