<svg height="512" viewBox="0 0 256 256" width="512" xmlns="http://www.w3.org/2000/svg"><circle cx="128" cy="64.065" fill="#87828e" r="25.226"/><path d="M153.23 64.069c0 13.93-11.3 25.22-25.23 25.22-2.61 0-5.13-.4-7.5-1.13 10.27-3.2 17.73-12.77 17.73-24.09 0-11.33-7.46-20.9-17.73-24.1 2.37-.73 4.89-1.13 7.5-1.13 13.93 0 25.23 11.29 25.23 25.23z" fill="#796e84"/><path d="M135.5 88.159c-2.37.73-4.89 1.13-7.5 1.13-13.93 0-25.23-11.29-25.23-25.22 0-13.94 11.3-25.23 25.23-25.23 2.61 0 5.13.4 7.5 1.13-10.27 3.2-17.73 12.77-17.73 24.1 0 11.32 7.46 20.89 17.73 24.09z" fill="#a4a4a5"/><path d="M196.167 170.855c0 42.605-30.519 77.144-68.167 77.144s-68.167-34.538-68.167-77.144S90.353 69.35 128 69.35s68.167 58.9 68.167 101.505z" fill="#87828e"/><path d="M196.17 170.859c0 42.6-30.52 77.14-68.17 77.14-2.53 0-5.04-.16-7.5-.47 34.12-4.22 60.67-36.94 60.67-76.67 0-39.74-26.55-93.65-60.67-100.73 2.46-.51 4.97-.78 7.5-.78 37.65 0 68.17 58.9 68.17 101.51z" fill="#796e84"/><path d="M135.5 247.529c-2.46.31-4.97.47-7.5.47-37.65 0-68.17-34.54-68.17-77.14 0-42.61 30.52-101.51 68.17-101.51 2.53 0 5.04.27 7.5.78-34.12 7.08-60.67 60.99-60.67 100.73 0 39.73 26.55 72.45 60.67 76.67z" fill="#a4a4a5"/><g fill="#5f266d"><path d="M253.099 67.275c-.012-3.794-4.338-4.132-4.013-3.987a4 4 0 0 0-3.987 4.013c.079 24.304-6.015 42.428-18.11 53.87-12.682 11.996-28.507 13.012-32.901 13.052-2.923-9.361-6.814-18.579-11.493-27.041 26.759-14.994 40.05-47.49 17.536-92.378a4 4 0 0 0-7.15 3.587c20.498 40.871 8.973 68.737-14.47 81.892-7.043-11.048-14.928-19.658-23.289-25.564a29.164 29.164 0 0 0-7.133-31.853c8.054-6.666 16.8-19.711 9.55-36.455a4 4 0 0 0-7.342 3.179c6.644 15.344-4.803 25.354-9.076 28.424a29.112 29.112 0 0 0-26.44 0c-4.272-3.069-15.721-13.077-9.076-28.424a4 4 0 0 0-7.342-3.179c-7.25 16.744 1.496 29.789 9.55 36.455a29.163 29.163 0 0 0-7.133 31.853c-8.361 5.906-16.245 14.516-23.288 25.564C54.09 87.153 42.498 59.311 63.021 18.39a4 4 0 0 0-7.15-3.587c-22.443 44.745-9.344 77.316 17.536 92.378-4.68 8.463-8.57 17.68-11.494 27.042-4.394-.038-20.219-1.056-32.901-13.052-12.096-11.441-18.189-29.566-18.11-53.87a4 4 0 0 0-3.987-4.013h-.013a4 4 0 0 0-4 3.987c-.16 49.765 25.801 73.324 56.772 74.894-4.909 19.536-5.597 38.368.858 57.446-8.09.398-29.18 4.219-35.917 32.623a3.999 3.999 0 1 0 7.783 1.846c6.706-28.271 29.562-26.584 30.57-26.498.242.023.479.016.713-.004 2.919 6.436 6.563 12.388 10.838 17.693-7.239 1.712-16.073 7.47-19.327 21.838a4 4 0 1 0 7.803 1.767c3.807-16.81 15.986-16.278 17.387-16.159.329.032.649.011.963-.035 26.952 25.75 66.357 25.758 93.318-.004.31.047.626.069.952.04 1.375-.119 13.579-.678 17.393 16.159a4.001 4.001 0 0 0 7.803-1.767c-3.254-14.366-12.094-20.122-19.329-21.836 4.275-5.306 7.92-11.259 10.839-17.695.239.02.482.026.729.002.971-.094 23.792-2.012 30.555 26.499a4.002 4.002 0 0 0 3.889 3.078c2.58 0 4.491-2.409 3.895-4.924-6.738-28.408-27.827-32.227-35.917-32.624 6.455-19.08 5.766-37.912.857-57.445 30.741-1.558 56.931-24.863 56.77-74.894zM128 42.839c11.706 0 21.23 9.524 21.23 21.23 0 2.185-.341 4.349-.992 6.407-13.256-6.793-27.063-6.874-40.477 0-4.354-13.757 5.999-27.637 20.239-27.637zm0 201.16c-35.382 0-64.167-32.812-64.167-73.144 0-59.777 59.527-144.985 108.962-64.633 11.949 19.422 19.372 44.188 19.372 64.633 0 40.332-28.785 73.144-64.167 73.144z"/><path d="M158.211 124.421a4.001 4.001 0 0 0-1.789 5.367c.073.145 7.292 14.741 10.188 34.17a4 4 0 0 0 7.912-1.18c-3.082-20.676-10.625-35.93-10.944-36.569a4.002 4.002 0 0 0-5.367-1.788zM167.792 178.353c-.005.346.083 3.852-.279 8.324a4 4 0 0 0 7.974.644c.395-4.886.299-8.682.305-9.05a4 4 0 0 0-8 .082z"/></g></svg>