<svg height="512" viewBox="0 0 256 256" width="512" xmlns="http://www.w3.org/2000/svg"><circle cx="128" cy="128" fill="#ff4a73" r="121"/><path d="m127.727 97.347-5.749 5.603v-8.611l.051.011V60.434c0-6.498-4.726-11.766-10.556-11.766-5.83 0-10.556 5.268-10.556 11.766V50.11c0-6.498-4.726-11.766-10.556-11.766-5.83 0-10.556 5.268-10.556 11.766v10.286c0-6.478-4.711-11.729-10.523-11.729-5.849 0-10.59 5.285-10.59 11.804v16.102h-.005c-.051-5.218-3.858-9.431-8.552-9.431s-8.5 4.214-8.552 9.431v.004c0 .034-.005.067-.005.102l.005.001v61.387h-.005v41.744a5 5 0 0 0 5 5h75.399v-37.373c0-6.022 2.467-11.821 6.905-16.23l16.303-16.02c4.959-4.873 4.981-12.858.048-17.758-4.832-4.803-12.626-4.84-17.506-.083z" fill="#f9d335"/><path d="M249 128c0 66.83-54.17 121-121 121-2.52 0-5.02-.08-7.5-.24C183.84 244.9 234 192.31 234 128S183.84 11.1 120.5 7.24c2.48-.16 4.98-.24 7.5-.24 66.83 0 121 54.17 121 121z" fill="#ea2a6a"/><path d="M135.5 248.76c-2.48.16-4.98.24-7.5.24C61.17 249 7 194.83 7 128S61.17 7 128 7c2.52 0 5.02.08 7.5.24C72.16 11.1 22 63.69 22 128s50.16 116.9 113.5 120.76z" fill="#f973a3"/><path d="m116.273 118.18 5.749 5.603v-8.611l-.051.011V81.267c0-6.498 4.726-11.766 10.556-11.766 5.83 0 10.556 5.268 10.556 11.766V70.944c0-6.498 4.726-11.766 10.556-11.766 5.83 0 10.556 5.268 10.556 11.766V81.23c0-6.478 4.711-11.729 10.523-11.729 5.849 0 10.59 5.285 10.59 11.804v16.102h.005c.051-5.218 3.858-9.431 8.552-9.431s8.5 4.214 8.552 9.431v.004c0 .034.005.067.005.102l-.005.001v61.387h.005v41.744a5 5 0 0 1-5 5h-70.399a5 5 0 0 1-5-5v-32.373c0-6.022-2.467-11.821-6.905-16.23l-16.303-16.02c-4.959-4.873-4.981-12.858-.048-17.758 4.832-4.803 12.626-4.84 17.506-.084z" fill="#f9d335"/><path d="M61.58 184.81h-15c-2.76 0-5-2.24-5-5V76.57c.05-5.21 3.86-9.43 8.55-9.43 2.35 0 4.48 1.05 6.02 2.76a9.88 9.88 0 0 1 1.49 2.18c-.67 1.34-1.05 2.86-1.06 4.49v103.24c0 2.76 2.24 5 5 5z" fill="#f9e27d"/><path d="M202.42 97.41v103.24c0 2.76-2.24 5-5 5h-15c2.76 0 5-2.24 5-5V97.41c-.01-1.63-.39-3.16-1.05-4.49.4-.81.9-1.54 1.48-2.18 1.54-1.71 3.67-2.76 6.02-2.76 4.69 0 8.5 4.21 8.55 9.43z" fill="#f2c300"/><path d="M142.02 205.65h-15c-2.76 0-5-2.24-5-5v-32.38c0-6.02-2.46-11.82-6.9-16.23l-16.3-16.02c-4.96-4.87-4.99-12.86-.05-17.76 2.43-2.42 5.61-3.63 8.79-3.63 2.64 0 5.29.83 7.5 2.51-.45.34-.88.71-1.29 1.12-4.94 4.9-4.91 12.89.05 17.76l16.3 16.02c4.44 4.41 6.9 10.21 6.9 16.23v32.38c0 2.76 2.24 5 5 5z" fill="#f9e27d"/><path d="M128 3C59.07 3 3 59.07 3 128s56.07 125 125 125 125-56.07 125-125S196.93 3 128 3zm0 242c-30.82 0-58.89-11.98-79.81-31.53l24.66-24.66h45.17v11.84c0 4.96 4.04 9 9 9h70.4c4.96 0 9-4.04 9-9V97.28c-.153-9.359-8.996-15.823-17.11-12.37 0-3.847.269-6.933-1.66-10.9l25.82-25.82C233.02 69.11 245 97.18 245 128c0 64.51-52.49 117-117 117zM11 128C11 63.49 63.49 11 128 11c30.82 0 58.89 11.98 79.81 31.53L182.44 67.9c-4.423-3.001-10.01-3.209-14.62-.51-3.46-16.231-24.913-16.209-28.37.01-4.151-2.438-9.172-2.549-13.42-.23v-6.74c0-12.057-12.002-19.493-21.48-13.87-3.456-16.215-24.92-16.255-28.37 0-8.096-4.779-21.49-1.21-21.49 17.49-8.176-3.43-17.021 3.089-17.11 12.52v103.24c0 4.96 4.04 9 9 9h14.95l-19 19C22.98 186.89 11 158.82 11 128zm35.58 52.81c-.55 0-1-.45-1-1v-9.26c.396.047 72.001.03 72.4.03v10.23zM62.7 96.97c0-19.257-.01-17.246-.01-36.5 0-10.259 13.12-10.346 13.12-.07v36.57c0 5.285 8 5.293 8 0V50.11c0-10.249 13.11-10.293 13.11 0v46.86c0 5.285 8 5.293 8 0V60.43c0-10.201 13.11-10.273 13.11 0 0 1.497-.06 52.412-.06 53.91-16.941-13.375-36.383 10.395-21.96 24.54l16.29 16c2.259 2.258 3.823 4.768 4.8 7.7-.358 0-71.167-.022-71.52.04V76.61c.072-7.239 9.018-7.194 9.11.01 0 .07 0 .14.01.21v20.14c0 5.285 8 5.293 8 0zm63.32 94.45c.399 0 72.003.017 72.4-.03v9.26c0 .55-.45 1-1 1h-70.4c-.55 0-1-.45-1-1zm72.4-7.96c-.353-.062-72.042-.04-72.4-.04v-15.15c0-5.706-2.541-13.69-8.1-19.08l-16.3-16.02c-7.895-7.749 3.802-20.178 11.86-12.12l5.75 5.6c2.549 2.469 6.79.664 6.79-2.87l-.01-43.41c.948-9.634 13.07-8.824 13.07.9v36.53c0 5.285 8 5.293 8 0V70.94c0-10.245 13.11-10.281 13.11 0v46.86c0 5.285 8 5.293 8 0V81.23c0-10.532 13.12-9.724 13.12.08 0 4.489-.01 13.044-.01 36.49 0 5.285 8 5.293 8 0V97.65c.01-.06.01-.13.01-.2.072-7.243 9.038-7.212 9.11-.04z" fill="#5f266d"/></svg>