<?xml version="1.0" encoding="UTF-8" standalone="no"?>
<svg
   id="Layer_1"
   enable-background="new 0 0 256 256"
   height="512"
   viewBox="0 0 256 256"
   width="512"
   version="1.1"
   sodipodi:docname="1.svg"
   inkscape:version="1.1 (c68e22c387, 2021-05-23)"
   xmlns:inkscape="http://www.inkscape.org/namespaces/inkscape"
   xmlns:sodipodi="http://sodipodi.sourceforge.net/DTD/sodipodi-0.dtd"
   xmlns="http://www.w3.org/2000/svg"
   xmlns:svg="http://www.w3.org/2000/svg">
  <defs
     id="defs41" />
  <sodipodi:namedview
     id="namedview39"
     pagecolor="#505050"
     bordercolor="#ffffff"
     borderopacity="1"
     inkscape:pageshadow="0"
     inkscape:pageopacity="0"
     inkscape:pagecheckerboard="1"
     showgrid="false"
     inkscape:zoom="1.3515625"
     inkscape:cx="255.63006"
     inkscape:cy="256.36994"
     inkscape:window-width="1538"
     inkscape:window-height="877"
     inkscape:window-x="54"
     inkscape:window-y="-8"
     inkscape:window-maximized="1"
     inkscape:current-layer="Layer_1" />
  <g
     id="g36">
    <path
       d="m187.384 172.438 19.698 34.118c8.755 15.163-2.189 34.118-19.698 34.118-17.509 0-28.452-18.954-19.698-34.118z"
       fill="#5fcdff"
       id="path2" />
    <path
       d="m61.549 157.616v79.981c0 7.425 6.019 13.444 13.444 13.444 7.425 0 13.444-6.019 13.444-13.444v-89.926z"
       fill="#44c7b6"
       id="path4" />
    <path
       d="m88.44 157.62v42.81c0 3.71 1.5 7.08 3.94 9.51 2.43 2.44 5.79 3.94 9.5 3.94 7.43 0 13.45-6.02 13.45-13.45v-15.06z"
       fill="#44c7b6"
       id="path6" />
    <path
       d="m82.49 248.75c-2.14 1.45-4.73 2.29-7.5 2.29-3.71 0-7.07-1.5-9.5-3.94-1.08-1.09-1.99-2.36-2.65-3.77-.83-1.74-1.29-3.68-1.29-5.73v-79.98l15-5.55v85.53c0 3.71 1.51 7.07 3.94 9.5.61.61 1.28 1.17 2 1.65z"
       fill="#4bdbc3"
       id="path8" />
    <path
       d="m109.39 211.59c-2.14 1.45-4.72 2.29-7.51 2.29-3.71 0-7.07-1.5-9.5-3.94-2.44-2.43-3.94-5.8-3.94-9.51v-42.81l15 15.48v27.33c0 3.71 1.5 7.08 3.94 9.51.62.62 1.29 1.17 2.01 1.65z"
       fill="#4bdbc3"
       id="path10" />
    <path
       d="m210.16 217.9c0 11.87-9.5 22.77-22.78 22.77-2.67 0-5.18-.44-7.5-1.25 9.21-3.17 15.28-12.03 15.28-21.52 0-3.79-.96-7.68-3.08-11.34l-12.2-21.13 7.5-12.99 19.7 34.12c2.12 3.66 3.08 7.55 3.08 11.34z"
       fill="#30b6ff"
       id="path12" />
    <path
       d="m194.88 239.42c-2.32.81-4.83 1.25-7.5 1.25-13.28 0-22.77-10.89-22.77-22.77 0-3.79.96-7.67 3.08-11.34l19.69-34.12 7.5 12.99-12.19 21.13c-2.12 3.67-3.08 7.55-3.08 11.34 0 9.49 6.06 18.35 15.27 21.52z"
       fill="#73d7f9"
       id="path14" />
    <path
       d="m206.72 102.516c-5.84-5.85-13.9-9.46-22.82-9.46h-3.29l-19.91-59.69-2.13-6.38c-9.81-29.37-51.33-29.37-61.13 0l-2.14 6.38-19.91 59.69h-2.55c-17.71 0-32.66 13.94-33.01 31.64-.18 9.16 3.47 17.48 9.45 23.47 5.84 5.84 13.9 9.45 22.82 9.45h17.548c4.341 17.138 19.864 29.82 38.352 29.82s34.01-12.682 38.352-29.82h16.808c17.71 0 32.66-13.95 33.01-31.64.18-9.16-3.47-17.48-9.45-23.46z"
       fill="#ffbb98"
       id="path16" />
    <path
       d="m216.17 125.98c-.35 17.69-15.3 31.64-33.01 31.64h-15c17.71 0 32.66-13.95 33.01-31.64.18-9.16-3.47-17.48-9.45-23.46-5.84-5.85-13.9-9.46-22.82-9.46h-3.29l-19.91-59.69-2.13-6.38c-3.95-11.8-13-18.86-23.07-21.18 14.98-3.45 32.2 3.61 38.07 21.18l2.13 6.38 19.91 59.69h3.29c8.92 0 16.98 3.61 22.82 9.46 5.98 5.98 9.63 14.3 9.45 23.46z"
       fill="#ffaa80"
       id="path18" />
    <path
       d="m135.5 5.81c-10.07 2.32-19.12 9.38-23.06 21.18l-2.14 6.38-19.91 59.69h-2.55c-17.71 0-32.66 13.94-33.01 31.64-.18 9.16 3.47 17.48 9.45 23.47 5.84 5.84 13.9 9.45 22.82 9.45h-15c-8.92 0-16.98-3.61-22.82-9.45-5.98-5.99-9.63-14.31-9.45-23.47.35-17.7 15.3-31.64 33.01-31.64h2.55l19.91-59.69 2.14-6.38c5.86-17.57 23.08-24.63 38.06-21.18z"
       fill="#ffcaa6"
       id="path20" />
    <path
       d="m167.56 133.17v14.7c0 21.85-17.71 39.57-39.56 39.57-2.56 0-5.07-.24-7.5-.71 18.27-3.51 32.06-19.58 32.06-38.86v-14.7z"
       fill="#ffaa80"
       id="path22" />
    <path
       d="m135.5 186.73c-2.43.47-4.94.71-7.5.71-21.85 0-39.56-17.72-39.56-39.57v-14.7h15v14.7c0 19.28 13.79 35.35 32.06 38.86z"
       fill="#ffcaa6"
       id="path24" />
    <g
       fill="#5f266d"
       id="g34">
      <path
         d="m183.16 161.62c20.02 0 36.62-15.96 37.01-35.57.389-20.372-15.973-36.99-36.27-36.99h-.41l-21.13-63.34c-5.016-15.03-18.504-24.76-34.36-24.76-15.85 0-29.34 9.72-34.35 24.75l-21.14 63.35c-19.87.17-36.29 16.06-36.68 35.56-.294 15.385 8.946 28.4 21.72 33.96v79.02c0 9.62 7.82 17.44 17.44 17.44s17.45-7.82 17.45-17.44v-22.5c11.389 7.415 26.89-.763 26.89-14.67v-9.86c2.8.57 5.7.87 8.67.87 19.22 0 35.57-12.51 41.34-29.82zm-98.72 75.98c0 5.2-4.24 9.44-9.45 9.44-5.2 0-9.44-4.24-9.44-9.44v-76.57c2.14.39 4.33.59 6.55.59h12.34v38.81zm26.89-37.17c0 8.404-10.208 12.602-16.13 6.68-1.78-1.78-2.76-4.15-2.76-6.68v-27.42c4.72 6.66 11.26 11.94 18.89 15.11zm16.67-16.99c-16.53 0-30.46-11.34-34.43-26.64 0-.02 0-.03-.01-.05-.73-2.84-1.12-5.81-1.12-8.88v-.2-14.5c0-2.21-1.79-4-4-4h-21.15c-5.285 0-5.293 8 0 8h17.15v10.5.2 5.75h-12.34c-15.75 0-28.579-12.895-28.27-28.84.3-15.29 13.32-27.72 29.01-27.72 2.08 0 5.275.476 6.34-2.74 22.637-67.854 19.196-57.548 22.05-66.07 4.194-12.581 14.989-19.29 26.77-19.29 9.83 0 22.02 5.07 26.78 19.29l22.04 66.07c1.074 3.244 4.217 2.74 7.08 2.74 15.737 0 28.579 12.867 28.27 28.84-.3 15.28-13.32 27.72-29.01 27.72h-11.98c.25-1.88.38-3.8.38-5.75v-10.7h17.15c5.285 0 5.293-8 0-8h-21.15c-2.21 0-4 1.79-4 4v14.7c0 19.61-15.95 35.57-35.56 35.57z"
         id="path26"
         style="fill:#000000" />
      <path
         d="m190.85 170.44c-1.553-2.675-5.412-2.65-6.93 0l-19.7 34.12c-4.83 8.37-4.83 18.37 0 26.74 10.309 17.828 36.014 17.84 46.33 0 4.83-8.37 4.83-18.37-.01-26.74zm12.77 56.86c-7.224 12.509-25.258 12.487-32.47 0-3.39-5.87-3.39-12.88 0-18.74l16.23-28.12 16.24 28.12c3.38 5.86 3.39 12.87 0 18.74z"
         id="path28"
         style="fill:#000000" />
      <path
         d="m110.13 32.3-5.51 18.18c-1.554 5.067 6.109 7.426 7.65 2.33l5.52-18.19c1.531-5.05-6.126-7.378-7.66-2.32z"
         id="path30"
         style="fill:#000000" />
      <path
         d="m100.26 64.84-1.56 5.14c-1.535 5.084 6.122 7.414 7.65 2.33l1.57-5.15c1.535-5.059-6.13-7.386-7.66-2.32z"
         id="path32"
         style="fill:#000000" />
    </g>
  </g>
</svg>
