<?xml version="1.0" encoding="UTF-8" standalone="no"?>
<svg
   id="Layer_1"
   enable-background="new 0 0 256 256"
   height="512"
   viewBox="0 0 256 256"
   width="512"
   version="1.1"
   sodipodi:docname="3.svg"
   inkscape:version="1.1 (c68e22c387, 2021-05-23)"
   xmlns:inkscape="http://www.inkscape.org/namespaces/inkscape"
   xmlns:sodipodi="http://sodipodi.sourceforge.net/DTD/sodipodi-0.dtd"
   xmlns="http://www.w3.org/2000/svg"
   xmlns:svg="http://www.w3.org/2000/svg">
  <defs
     id="defs57" />
  <sodipodi:namedview
     id="namedview55"
     pagecolor="#505050"
     bordercolor="#ffffff"
     borderopacity="1"
     inkscape:pageshadow="0"
     inkscape:pageopacity="0"
     inkscape:pagecheckerboard="1"
     showgrid="false"
     inkscape:zoom="1.3515625"
     inkscape:cx="255.63006"
     inkscape:cy="256.36994"
     inkscape:window-width="1538"
     inkscape:window-height="877"
     inkscape:window-x="54"
     inkscape:window-y="-8"
     inkscape:window-maximized="1"
     inkscape:current-layer="Layer_1" />
  <g
     id="g52">
    <path
       d="m184.879 110.484-8.501-29.681h-96.756l-8.501 29.681s-12.623 38.703 1.913 60.479c.926 1.388 2.411 2.171 3.96 2.171h102.012c1.548 0 3.033-.783 3.96-2.171 14.536-21.776 1.913-60.479 1.913-60.479z"
       fill="#87828e"
       id="path2" />
    <path
       d="m113 146.053h30v34.28h-30z"
       fill="#ffbb98"
       id="path4" />
    <path
       d="m182.97 170.96c-.93 1.39-2.42 2.17-3.96 2.17h-15c1.54 0 3.03-.78 3.96-2.17 14.53-21.77 1.91-60.48 1.91-60.48l-8.5-29.68h15l8.5 29.68s12.62 38.71-1.91 60.48z"
       fill="#796e84"
       id="path6" />
    <path
       d="m91.99 173.13h-15c-1.54 0-3.03-.78-3.96-2.17-14.53-21.77-1.91-60.48-1.91-60.48l8.5-29.68h15l-8.5 29.68s-12.62 38.71 1.91 60.48c.93 1.39 2.42 2.17 3.96 2.17z"
       fill="#a4a4a5"
       id="path8" />
    <path
       d="m113 146.05h15v34.28h-15z"
       fill="#ffcaa6"
       id="path10" />
    <path
       d="m128 148.558c-25.605 0-46.554-20.949-46.554-46.554v-41.62c0-3.462 2.833-6.295 6.295-6.295h80.516c3.462 0 6.295 2.833 6.295 6.295v41.62c.002 25.605-20.947 46.554-46.552 46.554z"
       fill="#ffbb98"
       id="path12" />
    <path
       d="m140.822 125.463h-25.644v-4.104c0-7.081 5.741-12.822 12.822-12.822 7.081 0 12.822 5.741 12.822 12.822z"
       fill="#ff4a73"
       id="path14" />
    <path
       d="m174.55 60.38v41.62c0 25.61-20.95 46.56-46.55 46.56-2.55 0-5.06-.21-7.5-.61 22.07-3.61 39.05-22.89 39.05-45.95v-41.62c0-3.46-2.83-6.29-6.29-6.29h15c3.46 0 6.29 2.83 6.29 6.29z"
       fill="#ffaa80"
       id="path16" />
    <path
       d="m135.5 147.95c-2.44.4-4.95.61-7.5.61-25.6 0-46.55-20.95-46.55-46.56v-41.62c0-3.46 2.83-6.29 6.29-6.29h15c-3.46 0-6.29 2.83-6.29 6.29v41.62c0 23.06 16.98 42.34 39.05 45.95z"
       fill="#ffcaa6"
       id="path18" />
    <path
       d="m138.333 5.667h-8.587-3.25-8.829c-26.512 0-48.004 21.492-48.004 48.004v22.125c0 2.748 2.223 4.981 4.971 5.004 40.648.333 48.405-19.037 52.417-35.521 3.955 16.512 11.072 35.302 54.251 35.451 2.773.01 5.036-2.23 5.036-5.003v-22.056c-.001-26.512-21.493-48.004-48.005-48.004z"
       fill="#87828e"
       id="path20" />
    <path
       d="m84.66 53.67v22.13c0 1.88 1.05 3.52 2.59 4.38-3.81.44-8 .66-12.62.62-2.74-.02-4.97-2.26-4.97-5v-22.13c0-26.51 21.49-48 48.01-48h15c-26.52 0-48.01 21.49-48.01 48z"
       fill="#a4a4a5"
       id="path22" />
    <path
       d="m186.34 53.67v22.06c0 2.77-2.27 5.01-5.04 5-4.56-.01-8.72-.24-12.51-.65 1.52-.86 2.55-2.49 2.55-4.35v-22.06c0-26.51-21.49-48-48.01-48h15c26.52 0 48.01 21.49 48.01 48z"
       fill="#796e84"
       id="path24" />
    <path
       d="m133.5 109.79c-4.33 2.05-7.32 6.46-7.32 11.57v4.1h-11v-4.1c0-7.08 5.74-12.82 12.82-12.82 1.97 0 3.84.45 5.5 1.25z"
       fill="#f973a3"
       id="path26" />
    <path
       d="m203.76 239.363v.97c0 5.523-4.477 10-10 10h-131.52c-5.523 0-10-4.477-10-10v-.97c0-24.04 11.19-45.47 28.65-59.34 1.18-.94 2.38-1.84 3.61-2.7 12.31-8.65 27.3-13.73 43.49-13.73h.02c16.19 0 31.18 5.08 43.49 13.73 1.23.86 2.44 1.76 3.61 2.7 2.26 1.79 4.42 3.72 6.46 5.76 13.71 13.71 22.19 32.65 22.19 53.58z"
       fill="#ffe2e2"
       id="path28" />
    <path
       d="m203.76 239.36v.97c0 5.53-4.48 10-10 10h-15c5.52 0 10-4.47 10-10v-.97c0-25.53-12.695-48.362-32.26-62.04-10.39-7.3-22.68-12.06-36-13.36 2.46-.25 4.96-.37 7.49-.37h.02c16.19 0 31.18 5.08 43.49 13.73 1.23.86 2.44 1.76 3.61 2.7 2.26 1.79 4.42 3.72 6.46 5.76 13.71 13.71 22.19 32.65 22.19 53.58z"
       fill="#ffcfcf"
       id="path30" />
    <path
       d="m135.5 163.96c-13.32 1.3-25.61 6.06-36 13.36-19.38 13.548-32.26 36.281-32.26 62.04v.97c0 5.53 4.48 10 10 10h-15c-5.52 0-10-4.47-10-10v-.97c0-24.04 11.19-45.47 28.65-59.34 1.18-.94 2.38-1.84 3.61-2.7 12.31-8.65 27.3-13.73 43.49-13.73h.02c2.53 0 5.03.12 7.49.37z"
       fill="#ffefee"
       id="path32" />
    <g
       fill="#5f266d"
       id="g50">
      <path
         d="m184.4 182.96c-2.08-2.09-4.27-4.05-6.51-5.83h1.12c2.91 0 5.63-1.48 7.29-3.95 15.25-22.85 3.21-61.38 2.41-63.87l-7.04-24.59c4.82-.169 8.67-4.139 8.67-8.99v-22.06c0-28.67-23.33-52-52.01-52h-20.66c-28.68 0-52.01 23.33-52.01 52v22.13c0 4.82 3.85 8.8 8.65 8.99l-7.02 24.52c-.8 2.49-12.84 41.02 2.42 63.87 1.65 2.47 4.37 3.95 7.28 3.95h1.12c-18.99 15.22-29.87 37.89-29.87 62.23v.97c0 7.72 6.28 14 14 14h131.52c7.72 0 14-6.28 14-14v-.97c0-21.31-8.3-41.34-23.36-56.4zm-4.75-14.22c-.17.25-.4.39-.64.39h-13.15c-5.97-3.23-12.3-5.67-18.86-7.26v-13.02c2.55-1.03 5-2.27 7.32-3.7l8.02 5.15c4.457 2.86 8.764-3.877 4.32-6.72l-5.44-3.5c10.41-9.1 17.07-22.36 17.32-37.19l2.49 8.69c.02.05.03.09.05.14.12.37 11.83 37.14-1.43 57.02zm-62.65-8.4v-8.99c2.32.52 4.71.88 7.15 1.06 1.078 3.878 6.619 3.888 7.7 0 2.44-.18 4.83-.54 7.15-1.06v8.99c-7.239-1-14.775-1.001-22 0zm-11.16-27.37-4 2.57c-9.97-7.79-16.39-19.93-16.39-33.54v-17.61c13.82-1.23 24.3-5.22 31.83-12.09 4.54-4.14 7.57-8.98 9.73-13.93 5.43 12.6 16.29 23.58 43.54 25.9v17.73c0 13.61-6.42 25.75-16.39 33.54l-4-2.57c-4.435-2.861-8.774 3.857-4.32 6.73l.84.54c-4.358 2.135-9.375 3.637-14.68 4.13v-8.04c0-5.285-8-5.293-8 0v8.04c-5.05-.469-10.091-1.882-14.68-4.13l.84-.54c4.459-2.876.1-9.597-4.32-6.73zm-32.18-57.17v-22.13c0-24.26 19.74-44 44.01-44h20.66c24.27 0 44.01 19.74 44.01 44v22.06c0 .538-.446 1-1.02 1 0 0 0 0-.01 0-36.491-.165-45.63-12.576-50.37-32.38-.979-4.099-6.783-4.077-7.78-.02-5.044 20.77-15.509 32.47-48.49 32.47-.56 0-1.01-.45-1.01-1zm3.33 93.33c-.24 0-.47-.14-.63-.39-13.27-19.88-1.56-56.65-1.44-57.02.02-.05.03-.09.05-.14l2.49-8.69c.25 14.83 6.91 28.09 17.32 37.19l-5.44 3.5c-4.417 2.826-.156 9.592 4.32 6.72l8.02-5.15c2.32 1.43 4.77 2.67 7.32 3.7v13.02c-6.56 1.59-12.89 4.03-18.85 7.26zm122.77 71.2c0 3.31-2.69 6-6 6h-131.52c-3.31 0-6-2.69-6-6v-.97c0-22.02 9.89-42.5 27.14-56.21 29.565-23.338 70.351-19.548 95.36 5.46 13.56 13.56 21.02 31.58 21.02 50.75z"
         id="path34"
         style="fill:#000000" />
      <circle
         cx="128"
         cy="199.08"
         r="6.25"
         id="circle36"
         style="fill:#000000" />
      <circle
         cx="128"
         cy="225.33"
         r="6.25"
         id="circle38"
         style="fill:#000000" />
      <path
         d="m151.46 30.09c6.69 3.26 11.71 9.24 13.78 16.39 1.487 5.103 9.158 2.882 7.69-2.22-2.7-9.32-9.25-17.11-17.96-21.36-4.76-2.32-8.263 4.874-3.51 7.19z"
         id="path40"
         style="fill:#000000" />
      <path
         d="m166.28 58.69v3.39c0 5.281 8 5.294 8 0v-3.39c0-5.305-8-5.275-8 0z"
         id="path42"
         style="fill:#000000" />
      <path
         d="m115.18 129.46h25.64c2.21 0 4-1.79 4-4v-4.1c0-22.224-33.64-22.241-33.64 0v4.1c0 2.21 1.79 4 4 4zm4-8.1c0-11.652 17.64-11.664 17.64 0v.1h-17.64z"
         id="path44"
         style="fill:#000000" />
      <path
         d="m143.75 100.13h14.5c5.285 0 5.293-8 0-8h-4.85l3.43-3.43c3.725-3.725-1.893-9.403-5.66-5.66-10.523 10.533-10.859 10.649-11.24 11.9-.809 2.429 1.028 5.19 3.82 5.19z"
         id="path46"
         style="fill:#000000" />
      <path
         d="m115.79 94.27c-.398-.798-3.561-3.824-10.96-11.23-3.768-3.744-9.385 1.935-5.66 5.66l3.43 3.43h-4.85c-5.285 0-5.293 8 0 8h14.5c3.034 0 4.927-3.214 3.54-5.86z"
         id="path48"
         style="fill:#000000" />
    </g>
  </g>
</svg>
