<?xml version="1.0" encoding="UTF-8" standalone="no"?>
<svg
   id="Layer_1"
   enable-background="new 0 0 256 256"
   height="512"
   viewBox="0 0 256 256"
   width="512"
   version="1.1"
   sodipodi:docname="4.svg"
   inkscape:version="1.1 (c68e22c387, 2021-05-23)"
   xmlns:inkscape="http://www.inkscape.org/namespaces/inkscape"
   xmlns:sodipodi="http://sodipodi.sourceforge.net/DTD/sodipodi-0.dtd"
   xmlns="http://www.w3.org/2000/svg"
   xmlns:svg="http://www.w3.org/2000/svg">
  <defs
     id="defs91" />
  <sodipodi:namedview
     id="namedview89"
     pagecolor="#505050"
     bordercolor="#ffffff"
     borderopacity="1"
     inkscape:pageshadow="0"
     inkscape:pageopacity="0"
     inkscape:pagecheckerboard="1"
     showgrid="false"
     inkscape:zoom="1.3515625"
     inkscape:cx="255.63006"
     inkscape:cy="256.36994"
     inkscape:window-width="1538"
     inkscape:window-height="877"
     inkscape:window-x="54"
     inkscape:window-y="-8"
     inkscape:window-maximized="1"
     inkscape:current-layer="Layer_1" />
  <g
     id="g86">
    <path
       d="m183.54 110.485-8.501-29.681h-96.756l-8.501 29.681s-12.623 38.703 1.913 60.479c.926 1.388 2.411 2.171 3.96 2.171h37.127 27.758 8.371 28.756c1.548 0 3.033-.783 3.96-2.171 14.536-21.776 1.913-60.479 1.913-60.479z"
       fill="#87828e"
       id="path2" />
    <path
       d="m126.661 148.559c-25.605 0-46.554-20.949-46.554-46.554v-41.62c0-3.462 2.833-6.295 6.295-6.295h80.516c3.462 0 6.295 2.833 6.295 6.295v41.62c.002 25.605-20.947 46.554-46.552 46.554z"
       fill="#ffbb98"
       id="path4" />
    <path
       d="m111.661 146.054h30v34.28h-30z"
       fill="#ffbb98"
       id="path6" />
    <path
       d="m131.197 136.037h-9.072c-4.576 0-8.286-3.71-8.286-8.286v-10.928c0-7.081 5.741-12.822 12.822-12.822 7.081 0 12.822 5.741 12.822 12.822v10.928c.001 4.576-3.709 8.286-8.286 8.286z"
       fill="#ff4a73"
       id="path8" />
    <path
       d="m181.631 170.961c-.93 1.39-2.42 2.17-3.96 2.17h-15c1.54 0 3.03-.78 3.96-2.17 14.53-21.77 1.91-60.48 1.91-60.48l-8.5-29.68h15l8.5 29.68s12.62 38.71-1.91 60.48z"
       fill="#796e84"
       id="path10" />
    <path
       d="m90.651 173.131h-15c-1.54 0-3.03-.78-3.96-2.17-14.53-21.77-1.91-60.48-1.91-60.48l8.5-29.68h15l-8.5 29.68s-12.62 38.71 1.91 60.48c.93 1.39 2.42 2.17 3.96 2.17z"
       fill="#a4a4a5"
       id="path12" />
    <path
       d="m173.211 60.381v41.62c0 25.61-20.95 46.56-46.55 46.56-2.55 0-5.06-.21-7.5-.61 22.07-3.61 39.05-22.89 39.05-45.95v-41.62c0-3.46-2.83-6.29-6.29-6.29h15c3.46 0 6.29 2.83 6.29 6.29z"
       fill="#ffaa80"
       id="path14" />
    <path
       d="m134.161 147.951c-2.44.4-4.95.61-7.5.61-25.6 0-46.55-20.95-46.55-46.56v-41.62c0-3.46 2.83-6.29 6.29-6.29h15c-3.46 0-6.29 2.83-6.29 6.29v41.62c0 23.06 16.98 42.34 39.05 45.95z"
       fill="#ffcaa6"
       id="path16" />
    <path
       d="m133.161 135.801c-.63.16-1.29.24-1.96.24h-9.08c-4.57 0-8.28-3.71-8.28-8.29v-10.93c0-7.08 5.74-12.82 12.82-12.82 2.38 0 4.6.65 6.5 1.78-3.79 2.22-6.32 6.34-6.32 11.04v10.93c0 3.9 2.7 7.18 6.32 8.05z"
       fill="#f973a3"
       id="path18" />
    <path
       d="m111.661 146.051h15v34.28h-15z"
       fill="#ffcaa6"
       id="path20" />
    <path
       d="m136.995 5.668h-8.587-3.25-8.829c-26.512 0-48.004 21.492-48.004 48.004v22.125c0 2.748 2.223 4.981 4.971 5.004 40.648.333 48.405-19.037 52.417-35.521 3.955 16.512 11.072 35.302 54.251 35.451 2.773.01 5.036-2.23 5.036-5.003v-22.056c-.001-26.512-21.493-48.004-48.005-48.004z"
       fill="#87828e"
       id="path22" />
    <path
       d="m185.002 53.671v22.06c0 2.77-2.27 5.01-5.04 5-4.56-.01-8.72-.24-12.51-.65 1.52-.86 2.55-2.49 2.55-4.35v-22.06c0-26.51-21.49-48-48.01-48h15c26.519 0 48.01 21.49 48.01 48z"
       fill="#796e84"
       id="path24" />
    <path
       d="m83.321 53.671v22.13c0 1.88 1.05 3.52 2.59 4.38-3.81.44-8 .66-12.62.62-2.74-.02-4.97-2.26-4.97-5v-22.13c0-26.51 21.49-48 48.01-48h15c-26.52 0-48.01 21.49-48.01 48z"
       fill="#a4a4a5"
       id="path26" />
    <path
       d="m202.421 239.361v.97c0 5.53-4.48 10-10 10h-131.52c-5.52 0-10-4.47-10-10v-.97c0-24.04 11.19-45.47 28.65-59.34 1.18-.94 2.38-1.84 3.61-2.7 12.31-8.65 27.3-13.73 43.49-13.73h.02c16.19 0 31.18 5.08 43.49 13.73 1.23.86 2.44 1.76 3.61 2.7 2.26 1.79 4.42 3.72 6.46 5.76 12.08 12.08 20.1 28.22 21.83 46.21.24 2.43.36 4.88.36 7.37z"
       fill="#ffe2e2"
       id="path28" />
    <path
       d="m202.421 239.361v.97c0 5.53-4.48 10-10 10h-5.95l-2.91-2.11c2.35-1.83 3.86-4.68 3.86-7.89v-.97c0-2.49-.12-4.94-.36-7.37-.41-4.29-1.18-8.48-2.28-12.53-3.51-12.93-10.35-24.48-19.55-33.68-2.04-2.04-4.2-3.97-6.46-5.76-1.17-.94-2.38-1.84-3.61-2.7-10.39-7.3-22.68-12.06-36-13.36 2.46-.25 4.96-.37 7.49-.37h.02c16.19 0 31.18 5.08 43.49 13.73 1.23.86 2.44 1.76 3.61 2.7 2.26 1.79 4.42 3.72 6.46 5.76 12.08 12.08 20.1 28.22 21.83 46.21.24 2.43.36 4.88.36 7.37z"
       fill="#ffcfcf"
       id="path30" />
    <path
       d="m134.161 163.961c-13.32 1.3-25.61 6.06-36 13.36-1.23.86-2.43 1.76-3.61 2.7-17.46 13.87-28.65 35.3-28.65 59.34v.97c0 5.53 4.48 10 10 10h-15c-5.52 0-10-4.47-10-10v-.97c0-24.04 11.19-45.47 28.65-59.34 1.18-.94 2.38-1.84 3.61-2.7 12.31-8.65 27.3-13.73 43.49-13.73h.02c2.53 0 5.03.12 7.49.37z"
       fill="#ffefee"
       id="path32" />
    <path
       d="m134.791 184.101-66.24 66.23h-7.65c-5.52 0-10-4.47-10-10v-.97c0-1.86.07-3.7.21-5.53l66.7-66.71c4.69-4.68 12.29-4.68 16.97 0l.01.01c4.68 4.68 4.68 12.28 0 16.97z"
       fill="#ffe2e2"
       id="path34" />
    <path
       d="m133.801 166.241c-.34.27-.67.56-.99.88l-14.45 14.46-65.15 65.15c-1.44-1.72-2.31-3.96-2.31-6.4v-.97c0-1.86.07-3.7.21-5.53l66.7-66.71c4.38-4.37 11.28-4.66 15.99-.88z"
       fill="#ffefee"
       id="path36" />
    <path
       d="m134.791 184.101-12.52 12.51-16.97-16.97 12.51-12.52c2.8-2.8 6.64-3.92 10.27-3.38.16.03.32.05.47.08.07.01.15.03.23.05.16.03.32.07.48.11.4.1.79.22 1.17.36.13.05.26.1.38.15 1.06.42 2.07 1.01 2.99 1.75.34.27.67.57.98.88l.01.01c4.68 4.68 4.68 12.28 0 16.97z"
       fill="#ffbb98"
       id="path38" />
    <path
       d="m133.801 166.241c-.34.27-.67.56-.99.88l-14.45 14.46-5.56 5.56-7.5-7.5 12.51-12.52c2.8-2.8 6.64-3.92 10.27-3.38.16.03.32.05.47.08.07.01.15.03.23.05.16.03.32.07.48.11.4.1.79.22 1.17.36.13.05.26.1.38.15 1.06.42 2.07 1.01 2.99 1.75z"
       fill="#ffcaa6"
       id="path40" />
    <path
       d="m224.189 58.918-3.983 18.54 17.187 9.239 4.222-18.931c.381-.82.029-1.801-.796-2.182l-14.39-7.733c-.677-.314-1.453-.133-1.925.395-.167.186-.267.424-.315.672z"
       fill="#3193f3"
       id="path42" />
    <path
       d="m232.441 61.081-4.42 20.58-7.82-4.2 3.99-18.54c.05-.25.15-.49.31-.68.47-.52 1.25-.71 1.93-.39z"
       fill="#35b1fc"
       id="path44" />
    <path
       d="m168.075 157.797h10.527v-18.919h-10.527c-2.761 0-5 2.239-5 5v8.919c0 2.762 2.239 5 5 5z"
       fill="#3193f3"
       id="path46" />
    <path
       d="m175.665 136.071c0-1.316 1.067-2.382 2.382-2.382h24.763l11.071-57.101c.301-1.554 2.007-2.388 3.418-1.671l23.165 11.769c.954.485 1.468 1.546 1.256 2.595l-14.243 70.631c-.809 1.734-2.502 2.887-4.412 2.998-9.35.543-36.839.165-45.055.038-1.301-.02-2.345-1.08-2.345-2.382z"
       fill="#87828e"
       id="path48" />
    <path
       d="m190.661 136.071v24.49c0 1.15.8 2.28 1.88 2.56-6.17-.05-11.59-.13-14.53-.17-1.3-.02-2.35-1.08-2.35-2.39v-24.49c0-1.32 1.07-2.38 2.39-2.38h15c-1.32 0-2.39 1.06-2.39 2.38z"
       fill="#a4a4a5"
       id="path50" />
    <path
       d="m204.747 250.331h-4.652c-5.523 0-10-4.477-10-10v-79.254c0-6.807 5.519-12.326 12.326-12.326 6.807 0 12.326 5.519 12.326 12.326v79.254c0 5.523-4.477 10-10 10z"
       fill="#ffe2e2"
       id="path52" />
    <path
       d="m209.921 248.891c-1.51.91-3.28 1.44-5.17 1.44h-4.66c-5.52 0-10-4.48-10-10v-79.25c0-6.81 5.52-12.33 12.33-12.33 2.82 0 5.42.95 7.5 2.54-2.94 2.26-4.83 5.8-4.83 9.79v79.25c0 3.63 1.93 6.8 4.83 8.56z"
       fill="#ffefee"
       id="path54" />
    <path
       d="m214.751 161.081v18.92h-24.66v-18.92c0-11.044 13.368-16.402 21.05-8.72 2.23 2.23 3.61 5.32 3.61 8.72z"
       fill="#ffbb98"
       id="path56" />
    <path
       d="m209.921 151.291c-2.94 2.26-4.83 5.8-4.83 9.79v18.92h-15v-18.92c0-10.02 11.344-15.961 19.71-9.88.04.03.08.06.12.09z"
       fill="#ffcaa6"
       id="path58" />
    <path
       d="m228.141 80.421-9.365 48.293c-.56 2.89-3.091 4.977-6.035 4.977h-9.93l11.07-57.1c.3-1.56 2.01-2.39 3.42-1.67z"
       fill="#a4a4a5"
       id="path60" />
    <path
       d="m174.411 157.801h-6.34c-2.76 0-5-2.24-5-5v-8.92c0-2.76 2.24-5 5-5h6.34c-2.76 0-5 2.24-5 5v8.92c0 2.76 2.24 5 5 5z"
       fill="#35b1fc"
       id="path62" />
    <g
       fill="#5f266d"
       id="g84">
      <path
         d="m150.118 30.087c6.691 3.268 11.716 9.244 13.788 16.397.507 1.751 2.105 2.889 3.84 2.889.368 0 .743-.051 1.114-.159 2.122-.615 3.344-2.833 2.73-4.955-2.698-9.319-9.245-17.104-17.961-21.361-1.985-.968-4.38-.146-5.35 1.839-.969 1.985-.146 4.38 1.839 5.35z"
         id="path64"
         style="fill:#000000" />
      <path
         d="m164.946 58.687v3.393c0 2.209 1.791 4 4 4s4-1.791 4-4v-3.393c0-2.209-1.791-4-4-4s-4 1.791-4 4z"
         id="path66"
         style="fill:#000000" />
      <path
         d="m143.484 116.823c0-9.276-7.546-16.822-16.822-16.822s-16.822 7.546-16.822 16.822v10.928c0 6.774 5.512 12.286 12.286 12.286h9.072c6.774 0 12.286-5.512 12.286-12.286zm-8 10.928c0 2.363-1.923 4.286-4.286 4.286h-9.072c-2.363 0-4.286-1.923-4.286-4.286v-10.928c0-4.865 3.958-8.822 8.822-8.822s8.822 3.958 8.822 8.822z"
         id="path68"
         style="fill:#000000" />
      <path
         d="m156.911 100.128c2.209 0 4-1.791 4-4s-1.791-4-4-4h-4.843l3.424-3.424c1.562-1.563 1.562-4.095 0-5.657-1.563-1.562-4.095-1.562-5.657 0l-10.253 10.253c-.016.016-.027.036-.043.052-1.524 1.575-1.477 4.025 0 5.553 2.059 2.152 4.04.811 17.372 1.223z"
         id="path70"
         style="fill:#000000" />
      <path
         d="m113.74 93.299-10.253-10.253c-1.563-1.562-4.095-1.562-5.657 0-1.562 1.563-1.562 4.095 0 5.657l3.424 3.424h-4.843c-2.209 0-4 1.791-4 4s1.791 4 4 4h14.5c3.613.001 5.301-4.375 2.829-6.828z"
         id="path72"
         style="fill:#000000" />
      <circle
         cx="126.661"
         cy="225.334"
         r="6.25"
         id="circle74"
         style="fill:#000000" />
      <path
         d="m23.575 141.487c2.539 0 2.668-.37 23.1-4.733 2.158-.471 3.526-2.603 3.054-4.761-.471-2.159-2.6-3.525-4.761-3.054l-20.267 4.427c-6.462 1.413-9.174-8.002-2.927-10.229l2.398-.855c2.081-.742 3.167-3.03 2.424-5.111-.742-2.082-3.029-3.166-5.111-2.424l-2.397.854c-6.621 2.359-10.282 9.498-8.333 16.251 1.671 5.792 7.004 9.635 12.82 9.635z"
         id="path76"
         style="fill:#000000" />
      <path
         d="m57.112 151.062c-.466-2.16-2.595-3.53-4.753-3.067l-12.75 2.75c-4.68 1.01-3.911 7.911.839 7.911.795 0 .237.009 13.597-2.841 2.16-.466 3.533-2.594 3.067-4.753z"
         id="path78"
         style="fill:#000000" />
      <path
         d="m29.183 167.849-12.75 2.75c-2.16.466-3.533 2.594-3.067 4.753.462 2.143 2.574 3.535 4.753 3.067l12.75-2.75c2.16-.466 3.533-2.594 3.067-4.753-.465-2.159-2.594-3.531-4.753-3.067z"
         id="path80"
         style="fill:#000000" />
      <path
         d="m242.289 83.125 3.159-14.19c.933-2.642-.236-5.642-2.808-6.917l-14.316-7.69c-.062-.033-.125-.065-.189-.095-3.294-1.552-7.156.364-7.855 3.848l-2.736 12.723c-3.395-.732-6.898 1.426-7.59 5.026l-10.442 53.861h-7.794c-1.423-11.043-4.047-19.431-4.35-20.376l-7.045-24.6c2.277-.085 4.407-.999 6.03-2.616 1.707-1.701 2.646-3.964 2.646-6.371v-22.056c0-28.675-23.329-52.004-52.004-52.004h-20.667c-28.675 0-52.004 23.329-52.004 52.004v22.125c0 4.829 3.859 8.797 8.656 8.987l-7.025 24.529c-.802 2.49-12.842 41.017 2.412 63.872 1.653 2.47 4.376 3.945 7.285 3.945h1.116c-18.114 14.529-29.662 36.075-29.866 63.2 0 7.72 6.28 14 14 14h131.52c1.319 0 2.603-.19 3.842-.546 2.891.825 4.662.442 8.484.546 7.72 0 14-6.28 14-14v-73.258c1.848-.043 3.354-.099 4.544-.169 4.174-.241 7.56-3.469 8.11-6.203l14.242-70.636c.558-2.788-.821-5.638-3.355-6.939zm-14.867-20.201 9.976 5.358-2.472 11.102-9.956-5.056zm-43.771 66.767h-5.6c-3.116 0-5.714 2.239-6.275 5.19h-3.705c-1.356 0-2.638.31-3.792.85 7.957-8.871 12.708-20.461 12.915-32.884l2.502 8.735c.013.045.027.093.042.137.028.087 2.499 7.768 3.913 17.972zm27.096 46.31h-16.652v-14.924c0-4.591 3.735-8.326 8.326-8.326s8.326 3.735 8.326 8.326zm-24.651 10.172c-.985-1.101-1.994-2.178-3.036-3.221-2.077-2.077-4.271-4.036-6.503-5.821h1.115c2.909 0 5.632-1.475 7.285-3.945.396-.592.773-1.206 1.14-1.831v14.818zm-7.789-17.436c-.168.251-.4.395-.636.395h-13.157c-5.968-3.229-12.294-5.654-18.853-7.255v-13.053c5.313-2.164 10.128-5.16 14.301-8.818-.565 1.176-.89 2.488-.89 3.877v8.92c0 4.962 4.038 9 9 9h3.713c.576 2.888 3.121 5.103 6.164 5.15.425.007.919.014 1.442.022-.346.605-.705 1.196-1.084 1.762zm-62.646-8.382v-9.019c7.267 1.633 14.724 1.634 22 0v9.02c-7.416-1.021-14.609-1.018-22-.001zm16.302 20.918-9.687 9.686-11.322-11.322 9.682-9.684c3.124-3.117 8.201-3.119 11.326.007 3.115 3.114 3.115 8.188.001 11.313zm-19.005-38.996c-17.254-5.912-28.846-22.097-28.846-40.276v-17.611c13.818-1.229 24.293-5.217 31.826-12.089 4.541-4.142 7.576-8.979 9.737-13.927 5.424 12.593 16.291 23.565 43.536 25.896v17.731c0 18.179-11.592 34.364-28.851 40.277-8.806 3.03-18.587 3.031-27.402-.001zm54.114 10.524v-8.92c0-.551.449-1 1-1h3.59v10.92h-3.59c-.552 0-1-.449-1-1zm-94.748-77.004v-22.125c0-24.264 19.74-44.004 44.004-44.004h20.667c24.264 0 44.004 19.74 44.004 44.004v22.057c0 .554-.456 1.003-1.019 1.003-.001 0-.002 0-.004 0-36.555-.128-45.672-12.75-50.375-32.383-.431-1.797-2.035-3.065-3.883-3.068-.002 0-.005 0-.007 0-1.844 0-3.45 1.261-3.887 3.054-4.925 20.237-15.404 32.758-48.498 32.467-.552-.005-1.002-.456-1.002-1.005zm3.328 93.334c-.236 0-.468-.144-.633-.391-11.468-17.183-5.048-46.187 1.11-65.894.339 20.29 12.812 38.354 31.533 45.976v13.052c-6.559 1.601-12.886 4.028-18.854 7.257zm34 .494-52.727 52.735c6.432-26.599 27.375-46.581 52.727-52.735zm-48.75 76.706c-3.309 0-6-2.691-6-6 .006-.568-.03-2.293.103-4.736l50.293-50.301 11.321 11.321-49.723 49.716zm17.307 0 59.41-59.401.003-.003c4.834-4.844 5.898-12.033 3.226-17.93 18.065 3.617 34.414 14.192 45.247 30.168v41.167c0 2.149.501 4.178 1.37 6h-109.256zm126.538 0c-4.062-.107-5.177.277-6.947-.458-.023-.01-.046-.02-.069-.029-2.136-.92-3.636-3.044-3.636-5.513v-56.33h16.652v56.33c0 3.309-2.691 6-6 6zm18.942-87.851c-.214.255-.527.419-.862.438-1.094.064-2.493.116-4.215.156-.992-8.059-7.867-14.323-16.19-14.323-8.318 0-15.189 6.257-16.188 14.309-2.563-.029-4.821-.059-6.572-.084v-1.175c0-2.899 0-15.661 0-20.11h23.15c1.916 0 3.563-1.358 3.927-3.239l10.661-54.994 20.158 10.234z"
         id="path82"
         style="fill:#000000" />
    </g>
  </g>
</svg>
