<?xml version="1.0" encoding="UTF-8" standalone="no"?>
<svg
   id="Layer_1"
   enable-background="new 0 0 256 256"
   height="512"
   viewBox="0 0 256 256"
   width="512"
   version="1.1"
   sodipodi:docname="5.svg"
   inkscape:version="1.1 (c68e22c387, 2021-05-23)"
   xmlns:inkscape="http://www.inkscape.org/namespaces/inkscape"
   xmlns:sodipodi="http://sodipodi.sourceforge.net/DTD/sodipodi-0.dtd"
   xmlns="http://www.w3.org/2000/svg"
   xmlns:svg="http://www.w3.org/2000/svg">
  <defs
     id="defs39" />
  <sodipodi:namedview
     id="namedview37"
     pagecolor="#505050"
     bordercolor="#ffffff"
     borderopacity="1"
     inkscape:pageshadow="0"
     inkscape:pageopacity="0"
     inkscape:pagecheckerboard="1"
     showgrid="false"
     inkscape:zoom="1.3515625"
     inkscape:cx="255.63006"
     inkscape:cy="256.36994"
     inkscape:window-width="1538"
     inkscape:window-height="877"
     inkscape:window-x="54"
     inkscape:window-y="-8"
     inkscape:window-maximized="1"
     inkscape:current-layer="Layer_1" />
  <g
     id="g34">
    <path
       d="m173.19 120.326 55.614-32.108-55.614-32.108c-34.414-19.869-76.813-19.869-111.227 0l-55.614 32.108 55.614 32.108c34.414 19.869 76.813 19.869 111.227 0z"
       fill="#ffe2e2"
       id="path2" />
    <path
       d="m228.803 88.218 19.698 34.118c8.755 15.163-2.189 34.118-19.698 34.118-17.509 0-28.452-18.954-19.698-34.118z"
       fill="#5fcdff"
       id="path4" />
    <path
       d="m228.808 88.219-55.62 32.11c-17.2 9.94-36.41 14.9-55.61 14.9-3.34 0-6.67-.15-10-.45 15.82-1.42 31.4-6.24 45.61-14.45l55.62-32.11-55.62-32.11c-14.21-8.21-29.79-13.03-45.61-14.45 3.33-.3 6.66-.45 10-.45 19.2 0 38.41 4.96 55.61 14.9z"
       fill="#ffcfcf"
       id="path6" />
    <path
       d="m81.968 120.329c14.21 8.21 29.79 13.03 45.61 14.45-3.33.3-6.66.45-10 .45-19.2 0-38.41-4.96-55.61-14.9l-55.62-32.11 55.62-32.11c17.2-9.94 36.41-14.9 55.61-14.9 3.34 0 6.67.15 10 .45-15.82 1.42-31.4 6.24-45.61 14.45l-55.62 32.11z"
       fill="#ffefee"
       id="path8" />
    <circle
       cx="117.576"
       cy="88.218"
       fill="#b76c6c"
       r="43.731"
       id="circle10" />
    <path
       d="m161.308 88.219c0 24.15-19.58 43.73-43.73 43.73-2.56 0-5.06-.22-7.5-.64 20.58-3.56 36.23-21.5 36.23-43.09s-15.65-39.53-36.23-43.09c2.44-.42 4.94-.64 7.5-.64 24.15 0 43.73 19.58 43.73 43.73z"
       fill="#965959"
       id="path12" />
    <path
       d="m125.078 131.309c-2.44.42-4.94.64-7.5.64-24.15 0-43.73-19.58-43.73-43.73s19.58-43.73 43.73-43.73c2.56 0 5.06.22 7.5.64-20.58 3.56-36.23 21.5-36.23 43.09s15.65 39.53 36.23 43.09z"
       fill="#c98585"
       id="path14" />
    <path
       d="m251.578 133.679c0 11.87-9.5 22.77-22.77 22.77-2.67 0-5.18-.44-7.5-1.25 9.21-3.17 15.27-12.04 15.27-21.52 0-3.79-.96-7.68-3.08-11.34l-12.19-21.13 7.5-12.99 19.69 34.12c2.12 3.66 3.08 7.55 3.08 11.34z"
       fill="#30b6ff"
       id="path16" />
    <path
       d="m236.308 155.199c-2.32.81-4.83 1.25-7.5 1.25-13.28 0-22.78-10.9-22.78-22.77 0-3.79.96-7.68 3.08-11.34l19.7-34.12 7.5 12.99-12.2 21.13c-2.12 3.66-3.08 7.55-3.08 11.34 0 9.49 6.07 18.35 15.28 21.52z"
       fill="#73d7f9"
       id="path18" />
    <g
       fill="#5f266d"
       id="g32">
      <path
         d="m6.433 68.668 49.653-28.667c37.929-21.897 85.052-21.897 122.98 0l49.653 28.667c4.613 2.661 8.544-4.305 4-6.928l-49.653-28.667c-40.395-23.323-90.584-23.323-130.98 0l-49.653 28.667c-4.577 2.642-.585 9.573 4 6.928z"
         id="path20"
         style="fill:#000000" />
      <circle
         cx="117.578"
         cy="88.219"
         r="16.05"
         id="circle22"
         style="fill:#000000" />
      <path
         d="m251.968 120.339-19.7-34.12c-.633-.823-.677-.99-1.56-1.52l-55.52-32.05c-35.54-20.52-79.69-20.52-115.22 0l-27.73 16.01-27.89 16.1c-2.662 1.524-2.665 5.394 0 6.92l55.62 32.11c17.76 10.26 37.69 15.39 57.61 15.39s39.84-5.13 57.61-15.39l42.69-24.64-12.24 21.19c-10.291 17.833 2.555 40.11 23.17 40.11 20.592 0 33.452-22.274 23.16-40.11zm-174.12-32.12c0-21.91 17.82-39.73 39.73-39.73s39.73 17.82 39.73 39.73-17.82 39.73-39.73 39.73-39.73-17.82-39.73-39.73zm-13.88 28.64-49.62-28.64 19.22-11.1 11.07 10.51 4.48 9.73c2.202 4.798 9.494 1.508 7.27-3.35l-3.06-6.65 6.78-2.79c4.883-2.035 1.836-9.412-3.05-7.4l-8.24 3.4-8.03-7.62 23.18-13.38c8.57-4.94 17.68-8.61 27.05-10.99-12.76 8.57-21.17 23.14-21.17 39.64s8.41 31.07 21.17 39.64c-9.37-2.38-18.48-6.05-27.05-11zm107.22 0c-8.57 4.95-17.68 8.62-27.05 11 12.76-8.57 21.17-23.14 21.17-39.64s-8.41-31.07-21.17-39.64c9.37 2.38 18.48 6.05 27.05 10.99l25.35 14.64-7.93 4.92-12.89.81c-5.123.303-4.874 7.99.25 7.99.08 0 .17 0 .25-.01l5.92-.37-6.96 10.63c-2.933 4.46 3.845 8.76 6.69 4.38l10.85-16.57 10.83-6.71c.28-.17.53-.37.74-.6l16.52 9.54zm57.62 35.59c-14.432 0-23.464-15.601-16.24-28.11l16.24-28.12 16.23 28.12c7.225 12.51-1.812 28.11-16.23 28.11z"
         id="path24"
         style="fill:#000000" />
      <path
         d="m53.493 169.018-13.226-2.317 14.162-21.088c2.946-4.388-3.692-8.854-6.642-4.46l-17.592 26.196c-4.426 6.59 7.778 7.072 15.856 8.487l-16.35 24.346c-2.989 4.452 3.732 8.792 6.642 4.46l19.78-29.454c1.612-2.399.218-5.671-2.63-6.17z"
         id="path26"
         style="fill:#000000" />
      <path
         d="m189.101 175.836 13.226-2.317c2.847-.498 4.243-3.769 2.63-6.17l-17.592-26.196c-2.946-4.387-9.592.066-6.642 4.46l14.162 21.088-13.226 2.317c-2.847.498-4.243 3.769-2.63 6.17l19.78 29.454c2.934 4.37 9.62-.024 6.642-4.46z"
         id="path28"
         style="fill:#000000" />
      <path
         d="m124.648 198.316-11.768 5.226v-24.514c0-5.285-8-5.292-8 0v30.667c0 2.889 2.979 4.83 5.624 3.656l11.768-5.226v28.328c0 5.285 8 5.292 8 0v-34.48c0-2.89-2.98-4.831-5.624-3.657z"
         id="path30"
         style="fill:#000000" />
    </g>
  </g>
</svg>
