<?xml version="1.0" encoding="UTF-8" standalone="no"?>
<svg
   id="Layer_1"
   enable-background="new 0 0 256 256"
   height="512"
   viewBox="0 0 256 256"
   width="512"
   version="1.1"
   sodipodi:docname="6.svg"
   inkscape:version="1.1 (c68e22c387, 2021-05-23)"
   xmlns:inkscape="http://www.inkscape.org/namespaces/inkscape"
   xmlns:sodipodi="http://sodipodi.sourceforge.net/DTD/sodipodi-0.dtd"
   xmlns="http://www.w3.org/2000/svg"
   xmlns:svg="http://www.w3.org/2000/svg">
  <defs
     id="defs71" />
  <sodipodi:namedview
     id="namedview69"
     pagecolor="#505050"
     bordercolor="#ffffff"
     borderopacity="1"
     inkscape:pageshadow="0"
     inkscape:pageopacity="0"
     inkscape:pagecheckerboard="1"
     showgrid="false"
     inkscape:zoom="1.3515625"
     inkscape:cx="255.63006"
     inkscape:cy="256.36994"
     inkscape:window-width="1538"
     inkscape:window-height="877"
     inkscape:window-x="54"
     inkscape:window-y="-8"
     inkscape:window-maximized="1"
     inkscape:current-layer="Layer_1" />
  <g
     id="g66">
    <g
       id="g36">
      <path
         d="m194.57 127.536-6.534-22.83-3.416-11.935h-113.241l-9.949 34.765s-14.773 45.333 2.239 70.838c1.084 1.625 2.822 2.542 4.634 2.542h54.447 11.75.687 52.509c1.812 0 3.55-.917 4.634-2.542 17.013-25.505 2.24-70.838 2.24-70.838z"
         fill="#87828e"
         id="path2" />
      <path
         d="m159.134 185.852c0-8.538-4.911-15.588-11.308-16.811v-16.874h-39.654v16.874c-6.396 1.223-11.308 8.272-11.308 16.811s4.911 15.588 11.308 16.811v19.005h39.654v-19.005c6.397-1.224 11.308-8.273 11.308-16.811z"
         fill="#ffbb98"
         id="path4" />
      <path
         d="m83.3 200.917h-15c-1.81 0-3.55-.92-4.63-2.54-17.01-25.51-2.24-70.84-2.24-70.84l9.95-34.77h15l-9.95 34.77s-14.77 45.33 2.24 70.84c1.08 1.62 2.82 2.54 4.63 2.54z"
         fill="#a4a4a5"
         id="path6" />
      <path
         d="m192.33 198.377c-1.08 1.62-2.82 2.54-4.63 2.54h-15c1.81 0 3.55-.92 4.63-2.54 17.01-25.51 2.24-70.84 2.24-70.84l-6.53-22.83-3.42-11.94h15l3.42 11.94 6.53 22.83s14.77 45.33-2.24 70.84z"
         fill="#796e84"
         id="path8" />
      <path
         d="m159.13 185.847c0 8.54-4.91 15.59-11.3 16.82v19h-15v-19c6.39-1.23 11.3-8.28 11.3-16.82 0-8.53-4.91-15.58-11.3-16.81v-16.87h15v16.87c6.39 1.23 11.3 8.28 11.3 16.81z"
         fill="#ffaa80"
         id="path10" />
      <path
         d="m111.87 185.847c0 8.54 4.91 15.59 11.3 16.82v19h-15v-19c-6.39-1.23-11.3-8.28-11.3-16.82 0-8.53 4.91-15.58 11.3-16.81v-16.87h15v16.87c-6.39 1.23-11.3 8.28-11.3 16.81z"
         fill="#ffcaa6"
         id="path12" />
      <path
         d="m128 172.071c-29.967 0-54.486-24.518-54.486-54.485v-48.712c0-4.052 3.316-7.368 7.368-7.368h94.235c4.052 0 7.368 3.316 7.368 7.368v48.712c.001 29.967-24.518 54.485-54.485 54.485z"
         fill="#ffbb98"
         id="path14" />
      <path
         d="m182.49 68.877v48.71c0 29.97-24.52 54.48-54.49 54.48-2.54 0-5.05-.18-7.5-.52 26.46-3.68 46.99-26.53 46.99-53.96v-48.71c0-4.06-3.32-7.37-7.37-7.37h15c4.05 0 7.37 3.31 7.37 7.37z"
         fill="#ffaa80"
         id="path16" />
      <path
         d="m135.5 171.547c-2.45.34-4.96.52-7.5.52-29.97 0-54.49-24.51-54.49-54.48v-48.71c0-4.06 3.32-7.37 7.37-7.37h15c-4.05 0-7.37 3.31-7.37 7.37v48.71c0 27.43 20.53 50.28 46.99 53.96z"
         fill="#ffcaa6"
         id="path18" />
      <path
         d="m140.094 4.833h-10.05-3.804-10.334c-31.029 0-56.183 25.154-56.183 56.183v25.895c0 3.216 2.602 5.83 5.818 5.856 47.573.39 56.653-22.281 61.348-41.573 4.629 19.325 12.958 41.317 63.494 41.492 3.245.011 5.894-2.61 5.894-5.856v-25.814c0-31.029-25.154-56.183-56.183-56.183z"
         fill="#87828e"
         id="path20" />
      <path
         d="m196.28 61.017v25.81c0 3.25-2.65 5.87-5.9 5.86-4.49-.02-8.65-.2-12.5-.55 2.01-.93 3.4-2.96 3.4-5.31v-25.81c0-31.03-25.16-56.18-56.19-56.18h15c31.03 0 56.19 25.15 56.19 56.18z"
         fill="#796e84"
         id="path22" />
      <path
         d="m74.72 61.017v25.89c0 2.39 1.43 4.44 3.49 5.35-3.89.37-8.1.55-12.67.51-3.21-.03-5.82-2.64-5.82-5.86v-25.89c0-31.03 25.16-56.18 56.19-56.18h15c-31.03 0-56.19 25.15-56.19 56.18z"
         fill="#a4a4a5"
         id="path24" />
      <path
         d="m192.398 251.167h-128.789c-3.641 0-6.065-3.769-4.555-7.082 4.992-10.949 12.523-20.503 21.836-27.898 1.18-.94 2.38-1.84 3.61-2.7 12.31-8.65 27.3-13.73 43.49-13.73h.02c16.19 0 31.18 5.08 43.49 13.73 1.23.86 2.44 1.76 3.61 2.7 2.26 1.79 4.42 3.72 6.46 5.76 6.363 6.363 11.6 13.848 15.382 22.137 1.512 3.312-.913 7.083-4.554 7.083z"
         fill="#ffe2e2"
         id="path26" />
      <path
         d="m192.4 251.167h-15c3.64 0 6.06-3.77 4.55-7.08-3.78-8.29-9.02-15.78-15.38-22.14-2.04-2.04-4.2-3.97-6.46-5.76-1.17-.94-2.38-1.84-3.61-2.7-10.39-7.3-22.68-12.06-36-13.36 2.46-.25 4.96-.37 7.49-.37h.02c16.19 0 31.18 5.08 43.49 13.73 1.23.86 2.44 1.76 3.61 2.7 2.26 1.79 4.42 3.72 6.46 5.76 6.36 6.36 11.6 13.85 15.38 22.14 1.51 3.31-.91 7.08-4.55 7.08z"
         fill="#ffcfcf"
         id="path28" />
      <path
         d="m135.5 200.127c-13.32 1.3-25.61 6.06-36 13.36-1.23.86-2.43 1.76-3.61 2.7-9.31 7.4-16.84 16.95-21.84 27.9-1.51 3.31.92 7.08 4.56 7.08h-15c-3.64 0-6.07-3.77-4.56-7.08 5-10.95 12.53-20.5 21.84-27.9 1.18-.94 2.38-1.84 3.61-2.7 12.31-8.65 27.3-13.73 43.49-13.73h.02c2.53 0 5.03.12 7.49.37z"
         fill="#ffefee"
         id="path30" />
      <path
         d="m143.007 145.041h-30.014v-4.804c0-8.288 6.719-15.007 15.007-15.007 8.288 0 15.007 6.719 15.007 15.007z"
         fill="#ff4a73"
         id="path32" />
      <path
         d="m135 126.957c-4.77 2.52-8.01 7.52-8.01 13.28v4.8h-14v-4.8c0-8.29 6.72-15.01 15.01-15.01 2.53 0 4.91.63 7 1.73z"
         fill="#f973a3"
         id="path34" />
    </g>
    <g
       fill="#5f266d"
       id="g64">
      <path
         d="m155.75 32.8c8.01 3.91 14.02 11.06 16.5 19.61 1.455 5.094 9.151 2.894 7.68-2.22-3.11-10.72-10.64-19.68-20.67-24.58-4.731-2.317-8.275 4.856-3.51 7.19z"
         id="path38"
         style="fill:#000000" />
      <path
         d="m173.49 66.89v3.97c0 5.284 8 5.295 8 0v-3.97c0-5.284-8-5.295-8 0z"
         id="path40"
         style="fill:#000000" />
      <path
         d="m108.99 145.04c0 2.21 1.79 4 4 4h30.02c2.21 0 4-1.79 4-4v-4.8c0-25.121-38.02-25.123-38.02 0zm8-4.8c0-14.549 22.02-14.552 22.02 0v.8h-22.02z"
         id="path42"
         style="fill:#000000" />
      <path
         d="m146.43 114.71h16.97c5.285 0 5.293-8 0-8h-7.32l5.18-5.18c3.732-3.733-1.912-9.387-5.65-5.65l-11.73 11.74c-3.119 3.001-.785 7.09 2.55 7.09z"
         id="path44"
         style="fill:#000000" />
      <path
         d="m109.57 114.71c3.531 0 5.361-4.296 2.83-6.83l-12-12c-3.767-3.743-9.384 1.926-5.66 5.65l5.18 5.18h-7.32c-5.285 0-5.293 8 0 8z"
         id="path46"
         style="fill:#000000" />
      <path
         d="m165.15 204.92h22.55c3.19 0 6.16-1.62 7.96-4.33 17.7-26.53 3.63-71.44 2.74-74.22l-8.49-29.68h.49c5.356 0 9.88-4.327 9.88-9.86v-25.81c0-33.19-27-60.19-60.19-60.19h-24.18c-33.19 0-60.19 27-60.19 60.19v25.89c0 5.39 4.39 9.81 9.79 9.86h.56l-8.47 29.6c-.89 2.78-14.96 47.69 2.74 74.21 1.8 2.72 4.77 4.34 7.96 4.34h22.55c-16.059 8.49-28.325 21.911-35.44 37.51-2.71 5.976 1.674 12.74 8.2 12.74h128.79c6.545 0 10.914-6.792 8.19-12.75-7.483-16.401-20.211-29.476-35.44-37.5zm-58.83-7.27c-7.147-3.486-8.223-21.575 2.81-24.73 12.152 4.198 25.56 4.208 37.74 0 11.307 3.233 10.214 22.018 1.45 25.45-.01 0-.01 0-.01 0-19.421-5.114-41.99-.72-41.99-.72zm-28.81-101.3c30.18-2.46 42.82-15.6 49.33-31.65 6.1 15.27 18.55 28.83 51.65 31.51 0 17.149 4.656 53.826-32.07 68.36-.07.02-.13.05-.2.07-11.643 4.576-24.792 4.578-36.44 0-.07-.02-.13-.05-.2-.07-36.394-14.402-32.07-50.636-32.07-68.22zm113.21 32.29c.02.05.03.09.05.14.14.43 13.98 43.76-1.77 67.38-.32.48-.8.76-1.3.76h-27.16c1.67-3.26 2.59-7.08 2.59-11.07 0-6.97-2.75-13.18-7.09-17 18.438-10.172 30.45-28.67 30.45-54.99zm-125.15-39.87c-1.02-.01-1.85-.84-1.85-1.86v-25.89c0-28.78 23.41-52.19 52.19-52.19h24.18c28.78 0 52.19 23.41 52.19 52.19v25.81c0 1.031-.857 1.86-1.88 1.86-50.46-.18-55.97-23.2-59.62-38.43-.974-4.055-6.77-4.12-7.78-.01-5.334 21.921-16.057 38.841-57.43 38.52zm2.73 108.15c-.5 0-.98-.28-1.3-.77-15.72-23.57-1.91-66.94-1.77-67.37.02-.05.03-.09.05-.14l4.23-14.78c0 26.392 12.076 44.853 30.45 54.99-4.34 3.82-7.09 10.03-7.09 17 0 3.99.92 7.81 2.58 11.07zm124.1 50.25h-128.79c-.726 0-1.217-.737-.92-1.43 8.731-19.123 25.54-33.574 45.71-39.28 15.391-2.889 18.63-4.414 39.2 0 19.993 5.656 36.902 19.982 45.71 39.28.308.681-.187 1.43-.91 1.43z"
         id="path48"
         style="fill:#000000" />
      <path
         d="m89.18 165.36-15.01-9.73c-4.436-2.878-8.784 3.844-4.35 6.72l15.01 9.72c4.418 2.901 8.776-3.839 4.35-6.71z"
         id="path50"
         style="fill:#000000" />
      <path
         d="m84.83 175.47-15.01 9.72c-4.392 2.849-.132 9.596 4.35 6.72l15.01-9.73c4.428-2.872.094-9.593-4.35-6.71z"
         id="path52"
         style="fill:#000000" />
      <path
         d="m186.18 185.19-15.01-9.72c-4.439-2.879-8.784 3.834-4.35 6.71l15.01 9.73c4.479 2.874 8.745-3.869 4.35-6.72z"
         id="path54"
         style="fill:#000000" />
      <path
         d="m181.83 155.63-15.01 9.73c-4.419 2.867-.076 9.616 4.35 6.71l15.01-9.72c4.436-2.878.085-9.597-4.35-6.72z"
         id="path56"
         style="fill:#000000" />
      <circle
         cx="111.69"
         cy="182.77"
         r="3.81"
         id="circle58"
         style="fill:#000000" />
      <circle
         cx="143.15"
         cy="182.74"
         r="5"
         id="circle60"
         style="fill:#000000" />
      <path
         d="m131.28 186.08c-1.95 0-3.53 1.58-3.53 3.53s1.58 3.54 3.53 3.54c1.96 0 3.54-1.59 3.54-3.54s-1.58-3.53-3.54-3.53z"
         id="path62"
         style="fill:#000000" />
    </g>
  </g>
</svg>
