<?xml version="1.0" encoding="UTF-8" standalone="no"?>
<svg
   id="Layer_1"
   enable-background="new 0 0 256 256"
   height="512"
   viewBox="0 0 256 256"
   width="512"
   version="1.1"
   sodipodi:docname="7.svg"
   inkscape:version="1.1 (c68e22c387, 2021-05-23)"
   xmlns:inkscape="http://www.inkscape.org/namespaces/inkscape"
   xmlns:sodipodi="http://sodipodi.sourceforge.net/DTD/sodipodi-0.dtd"
   xmlns="http://www.w3.org/2000/svg"
   xmlns:svg="http://www.w3.org/2000/svg">
  <defs
     id="defs55" />
  <sodipodi:namedview
     id="namedview53"
     pagecolor="#505050"
     bordercolor="#ffffff"
     borderopacity="1"
     inkscape:pageshadow="0"
     inkscape:pageopacity="0"
     inkscape:pagecheckerboard="1"
     showgrid="false"
     inkscape:zoom="1.3515625"
     inkscape:cx="255.63006"
     inkscape:cy="256.36994"
     inkscape:window-width="1538"
     inkscape:window-height="877"
     inkscape:window-x="54"
     inkscape:window-y="-8"
     inkscape:window-maximized="1"
     inkscape:current-layer="Layer_1" />
  <g
     id="g50">
    <path
       d="m187.256 67.599.008-.002c0-.056-.007-.11-.008-.166v-.007c-.084-8.555-6.326-15.464-14.021-15.464-7.696 0-13.937 6.908-14.021 15.464h-.008v-26.4c0-10.689-7.774-19.353-17.363-19.353-9.529 0-17.253 8.61-17.253 19.231v-16.866c0-10.655-7.749-19.292-17.308-19.292-9.559 0-17.308 8.637-17.308 19.292v16.927c0-10.655-7.749-19.292-17.308-19.292-9.559 0-17.308 8.637-17.308 19.292v55.609l.084-.019v14.118l-14.902-14.803c-8.003-7.95-20.978-7.95-28.981 0-8.003 7.95-8.003 20.839 0 28.789l32.561 32.345c7.277 7.228 11.322 16.736 11.322 26.611v23.242c0 11.046 8.954 20 20 20h111.822v-58.605h-.008z"
       fill="#ffbb98"
       id="path2" />
    <path
       d="m187.26 67.422v159.43h-15v-159.43c-.04-4.28-1.63-8.14-4.16-10.94-.72-.79-1.51-1.49-2.37-2.09 2.16-1.54 4.74-2.43 7.5-2.43 3.85 0 7.33 1.73 9.87 4.52 2.53 2.8 4.12 6.66 4.16 10.94z"
       fill="#ffaa80"
       id="path4" />
    <path
       d="m90.44 226.852h-15c-11.04 0-20-8.95-20-20v-23.24c0-9.87-4.04-19.38-11.32-26.61l-32.56-32.34c-4-3.98-6-9.18-6-14.4 0-5.2 2-10.42 6-14.39 5.94-5.91 14.64-7.42 21.99-4.55-2.55.99-4.93 2.51-6.99 4.55-4 3.97-6 9.19-6 14.39 0 5.22 2 10.42 6 14.4l32.56 32.34c7.28 7.23 11.32 16.74 11.32 26.61v23.24c0 11.05 8.96 20 20 20z"
       fill="#ffcaa6"
       id="path6" />
    <circle
       cx="183.158"
       cy="183.455"
       fill="#ff4a73"
       r="67.606"
       id="circle8" />
    <path
       d="m183.158 225.222c-12.847 0-23.261-10.414-23.261-23.261v-37.013c0-12.847 10.414-23.261 23.261-23.261 12.847 0 23.261 10.414 23.261 23.261v37.013c0 12.847-10.414 23.261-23.261 23.261z"
       fill="#44c7b6"
       id="path10" />
    <path
       d="m250.76 183.452c0 37.34-30.26 67.61-67.6 67.61-2.54 0-5.04-.14-7.5-.42 33.81-3.72 60.1-32.39 60.1-67.19s-26.29-63.46-60.1-67.18c2.46-.28 4.96-.42 7.5-.42 37.34 0 67.6 30.26 67.6 67.6z"
       fill="#ea2a6a"
       id="path12" />
    <path
       d="m190.66 250.642c-2.46.28-4.96.42-7.5.42-37.34 0-67.61-30.27-67.61-67.61s30.27-67.6 67.61-67.6c2.54 0 5.04.14 7.5.42-33.81 3.72-60.11 32.38-60.11 67.18s26.3 63.47 60.11 67.19z"
       fill="#f973a3"
       id="path14" />
    <path
       d="m206.42 164.952v37.01c0 12.85-10.42 23.26-23.26 23.26-2.62 0-5.15-.43-7.5-1.24 9.16-3.11 15.76-11.8 15.76-22.02v-37.01c0-6.43-2.6-12.24-6.82-16.45-2.48-2.5-5.53-4.43-8.94-5.58 2.35-.81 4.88-1.24 7.5-1.24 6.42 0 12.24 2.6 16.44 6.82 4.22 4.21 6.82 10.02 6.82 16.45z"
       fill="#3bb2a0"
       id="path16" />
    <path
       d="m190.66 223.982c-2.35.81-4.88 1.24-7.5 1.24-12.85 0-23.26-10.41-23.26-23.26v-37.01c0-12.85 10.41-23.27 23.26-23.27 2.62 0 5.15.43 7.5 1.24-9.17 3.12-15.76 11.81-15.76 22.03v37.01c0 10.22 6.59 18.91 15.76 22.02z"
       fill="#4bdbc3"
       id="path18" />
    <circle
       cx="183.158"
       cy="199.748"
       fill="#b76c6c"
       r="8.819"
       id="circle20" />
    <circle
       cx="183.158"
       cy="167.163"
       fill="#b76c6c"
       r="8.819"
       id="circle22" />
    <g
       fill="#5f266d"
       id="g48">
      <path
         d="m69.09 139.102v6.39c0 5.285 8 5.293 8 0v-6.39c0-5.285-8-5.293-8 0z"
         id="path24"
         style="fill:#000000" />
      <path
         d="m111.77 117.812c0-5.285-8-5.293-8 0v6.39c0 5.285 8 5.293 8 0z"
         id="path26"
         style="fill:#000000" />
      <path
         d="m141.84 77.892c2.21 0 4-1.79 4-4v-6.39c0-2.2-1.79-4-4-4s-4 1.8-4 4v6.39c0 2.21 1.79 4 4 4z"
         id="path28"
         style="fill:#000000" />
      <path
         d="m177.63 91.412v-6.39c0-5.288-8-5.284-8 0v6.39c0 5.281 8 5.295 8 0z"
         id="path30"
         style="fill:#000000" />
      <path
         d="m107.77 47.752c2.21 0 4-1.79 4-4v-6.38c0-2.21-1.79-4-4-4s-4 1.79-4 4v6.38c0 2.21 1.79 4 4 4z"
         id="path32"
         style="fill:#000000" />
      <path
         d="m73.09 65.872c-2.21 0-4 1.79-4 4v6.39c0 2.21 1.79 4 4 4s4-1.79 4-4v-6.39c0-2.21-1.79-4-4-4z"
         id="path34"
         style="fill:#000000" />
      <path
         d="m30.53 111.772v6.39c0 5.278 8 5.294 8 0v-6.39c0-5.303-8-5.276-8 0z"
         id="path36"
         style="fill:#000000" />
      <path
         d="m85.97 165.752v6.38c0 5.303 8 5.276 8 0v-6.38c0-5.281-8-5.294-8 0z"
         id="path38"
         style="fill:#000000" />
      <path
         d="m69.09 200.692v6.38c0 5.285 8 5.293 8 0v-6.38c0-5.285-8-5.293-8 0z"
         id="path40"
         style="fill:#000000" />
      <path
         d="m191.26 112.312v-44.93c-.151-15.436-16.081-24.879-28.05-16.08v-10.28c0-19.565-20.815-30.403-34.65-18.24-1.426-29.146-41.174-29.116-42.56.03-13.975-12.329-34.64-1.255-34.64 18.15 0 63.948.08 59.829.08 60.1l-8.08-8.03c-22.816-22.673-57.509 11.68-34.62 34.47l32.56 32.34c6.54 6.49 10.14 14.93 10.14 23.77v23.24c0 13.23 10.77 24 24 24h54.09c13.13 14.84 32.3 24.21 53.63 24.21 39.48 0 71.6-32.12 71.6-71.61 0-36.74-27.82-67.11-63.5-71.14zm-67.89 110.54h-47.93c-8.82 0-16-7.18-16-16v-23.24c0-10.98-4.44-21.44-12.5-29.45l-32.56-32.34c-15.388-15.289 7.961-38.394 23.34-23.11l14.9 14.8c2.511 2.489 6.82.719 6.82-2.84 0-1.769-.08-24.866-.08-69.71 0-20.14 26.61-20.212 26.61 0v59.9c0 5.303 8 5.276 8 0v-59.9-.4-16.53c0-20.143 26.62-20.208 26.62 0v16.27c-.01.07-.01.13-.01.2v60.36c0 5.285 8 5.293 8 0v-59.75c.01-.07.01-.14.01-.21 0-20.234 26.62-20.098 26.62.12 0 6.168-.01 22.298-.01 59.84 0 5.285 8 5.293 8 0v-33.19c.01-.07.01-.14.01-.21.168-15.203 19.906-15.135 20.05-.02v44.41h-.1c-55.818 0-91.427 61.965-59.79 111zm59.79-103c15.485 0 30.364 5.603 42.03 15.91l-17.44 17.44c-.31-.66-.66-1.31-1.03-1.94l7.59-7.59c3.744-3.768-1.935-9.385-5.66-5.66l-6.96 6.96c-3.94-3.66-8.96-6.17-14.53-6.99v-10.31c0-5.285-8-5.293-8 0v10.31c-5.54.82-10.54 3.3-14.47 6.95l-6.92-6.92c-3.726-3.726-9.402 1.894-5.66 5.66l7.53 7.52c-1.5 2.54-2.59 5.35-3.19 8.33h-10.57c-5.287 0-5.283 8 0 8h10.02v11.93h-10.02c-5.288 0-5.285 8 0 8h10.02v11.94h-10.02c-5.288 0-5.285 8 0 8h7.68l-18.1 18.1c-37.493-42.616-5.118-105.64 47.7-105.64zm-19.26 82.11v-37.01c0-24.783 38.52-26.11 38.52 0v37.01c0 25.45-38.52 25.459-38.52 0zm19.26 45.1c-16.1 0-30.82-6.02-42.04-15.91l17.44-17.44c.39.79.8 1.57 1.26 2.32l-7.71 7.71c-3.796 3.796 1.983 9.327 5.66 5.65l7.18-7.17c3.89 3.51 8.79 5.91 14.21 6.71v10.3c0 5.285 8 5.293 8 0v-10.3c5.45-.81 10.37-3.23 14.27-6.75l7.22 7.21c3.732 3.732 9.39-1.92 5.66-5.65l-7.77-7.77c1.57-2.61 2.71-5.5 3.33-8.58h10.56c5.285 0 5.293-8 0-8h-10.01v-11.94h10.01c5.285 0 5.293-8 0-8h-10.01v-11.93h10.01c5.281 0 5.294-8 0-8h-7.68l18.1-18.1c36.114 40.929 6.916 105.64-47.69 105.64z"
         id="path42"
         style="fill:#000000" />
      <path
         d="m183.16 186.932c-7.07 0-12.82 5.75-12.82 12.82 0 7.06 5.75 12.81 12.82 12.81s12.82-5.75 12.82-12.81c0-7.07-5.75-12.82-12.82-12.82zm0 17.63c-2.66 0-4.82-2.16-4.82-4.81 0-2.66 2.16-4.82 4.82-4.82 2.65 0 4.82 2.16 4.82 4.82 0 2.65-2.17 4.81-4.82 4.81z"
         id="path44"
         style="fill:#000000" />
      <path
         d="m183.16 154.342c-7.07 0-12.82 5.75-12.82 12.82s5.75 12.82 12.82 12.82 12.82-5.75 12.82-12.82-5.75-12.82-12.82-12.82zm0 17.64c-2.66 0-4.82-2.16-4.82-4.82s2.16-4.82 4.82-4.82c2.65 0 4.82 2.16 4.82 4.82s-2.17 4.82-4.82 4.82z"
         id="path46"
         style="fill:#000000" />
    </g>
  </g>
</svg>
