<?xml version="1.0" encoding="UTF-8" standalone="no"?>
<svg
   id="Layer_1"
   enable-background="new 0 0 256 256"
   height="512"
   viewBox="0 0 256 256"
   width="512"
   version="1.1"
   sodipodi:docname="8.svg"
   inkscape:version="1.1 (c68e22c387, 2021-05-23)"
   xmlns:inkscape="http://www.inkscape.org/namespaces/inkscape"
   xmlns:sodipodi="http://sodipodi.sourceforge.net/DTD/sodipodi-0.dtd"
   xmlns="http://www.w3.org/2000/svg"
   xmlns:svg="http://www.w3.org/2000/svg">
  <defs
     id="defs75" />
  <sodipodi:namedview
     id="namedview73"
     pagecolor="#505050"
     bordercolor="#ffffff"
     borderopacity="1"
     inkscape:pageshadow="0"
     inkscape:pageopacity="0"
     inkscape:pagecheckerboard="1"
     showgrid="false"
     inkscape:zoom="1.3515625"
     inkscape:cx="255.63006"
     inkscape:cy="256.36994"
     inkscape:window-width="1538"
     inkscape:window-height="877"
     inkscape:window-x="54"
     inkscape:window-y="-8"
     inkscape:window-maximized="1"
     inkscape:current-layer="Layer_1" />
  <g
     id="g70">
    <path
       d="m184.875 110.484-8.501-29.681c-9.096 0-86.009 0-96.752 0l-8.501 29.681s-12.623 38.703 1.913 60.479c.926 1.388 2.411 2.171 3.96 2.171h102.008c1.548 0 3.033-.783 3.959-2.171 14.537-21.776 1.914-60.479 1.914-60.479z"
       fill="#87828e"
       id="path2" />
    <path
       d="m91.99 173.13h-15c-1.54 0-3.03-.78-3.96-2.17-14.53-21.77-1.91-60.48-1.91-60.48l8.5-29.68h15l-8.5 29.68s-12.62 38.71 1.91 60.48c.93 1.39 2.42 2.17 3.96 2.17z"
       fill="#a4a4a5"
       id="path4" />
    <path
       d="m182.96 170.96c-.92 1.39-2.41 2.17-3.96 2.17h-15c1.55 0 3.04-.78 3.96-2.17 14.54-21.77 1.92-60.48 1.92-60.48l-8.51-29.68h15l8.51 29.68s12.62 38.71-1.92 60.48z"
       fill="#796e84"
       id="path6" />
    <path
       d="m113 137.333h30v43h-30z"
       fill="#ffbb98"
       id="path8" />
    <path
       d="m113 137.33h15v43h-15z"
       fill="#ffcaa6"
       id="path10" />
    <path
       d="m128 148.558c-25.605 0-46.554-20.949-46.554-46.554v-41.62c0-3.462 2.833-6.295 6.295-6.295h80.516c3.462 0 6.295 2.833 6.295 6.295v41.62c.002 25.605-20.947 46.554-46.552 46.554z"
       fill="#ffbb98"
       id="path12" />
    <path
       d="m203.76 239.363c0 7.22-4.89 10.97-10 10.97h-131.52c-5.048 0-10-3.674-10-10.97 0-41.925 33.999-75.77 75.75-75.77h.02c41.668 0 75.75 33.739 75.75 75.77z"
       fill="#ffe2e2"
       id="path14" />
    <path
       d="m135.5 147.95c-2.44.4-4.95.61-7.5.61-25.6 0-46.55-20.95-46.55-46.56v-41.62c0-3.46 2.83-6.29 6.29-6.29h15c-3.46 0-6.29 2.83-6.29 6.29v41.62c0 23.06 16.98 42.34 39.05 45.95z"
       fill="#ffcaa6"
       id="path16" />
    <path
       d="m174.55 60.38v41.62c0 25.61-20.95 46.56-46.55 46.56-2.55 0-5.06-.21-7.5-.61 22.07-3.61 39.05-22.89 39.05-45.95v-41.62c0-3.46-2.83-6.29-6.29-6.29h15c3.46 0 6.29 2.83 6.29 6.29z"
       fill="#ffaa80"
       id="path18" />
    <path
       d="m138.333 5.667c-.624 0-21.285 0-20.667 0-26.512 0-48.004 21.492-48.004 48.004v22.125c0 2.748 2.223 4.981 4.971 5.004 40.648.333 48.405-19.037 52.417-35.521 3.955 16.512 11.072 35.302 54.251 35.451 2.773.01 5.036-2.23 5.036-5.003v-22.056c0-26.512-21.492-48.004-48.004-48.004z"
       fill="#87828e"
       id="path20" />
    <path
       d="m186.34 53.67v22.06c0 2.77-2.27 5.01-5.04 5-4.56-.01-8.72-.24-12.51-.65 1.52-.86 2.55-2.49 2.55-4.35v-22.06c0-26.51-21.49-48-48.01-48h15c26.52 0 48.01 21.49 48.01 48z"
       fill="#796e84"
       id="path22" />
    <path
       d="m84.66 53.67v22.13c0 1.88 1.05 3.52 2.59 4.38-3.81.44-8 .66-12.62.62-2.74-.02-4.97-2.26-4.97-5v-22.13c0-26.51 21.49-48 48.01-48h14.99c-26.52.01-48 21.49-48 48z"
       fill="#a4a4a5"
       id="path24" />
    <path
       d="m203.76 240.33c0 5.53-4.48 10-10 10h-15c5.52 0 10-4.47 10-10 0-41.915-31.19-72.73-68.26-76.37 2.46-.25 4.96-.37 7.49-.37h.02c40.338 0 75.75 32.032 75.75 76.74z"
       fill="#ffcfcf"
       id="path26" />
    <path
       d="m67.24 240.33c0 5.53 4.48 10 10 10h-15c-4.786 0-10-3.422-10-10.97 0-41.92 34-75.77 75.75-75.77h.02c2.53 0 5.02.12 7.49.37-36.983 3.635-68.26 34.411-68.26 76.37z"
       fill="#ffefee"
       id="path28" />
    <g
       fill="#5f266d"
       id="g68">
      <path
         d="m105.074 83.088c-3.445 0-6.237 2.792-6.237 6.237s2.792 6.237 6.237 6.237 6.237-2.792 6.237-6.237-2.792-6.237-6.237-6.237z"
         id="path30"
         style="fill:#000000" />
      <path
         d="m150.926 95.562c3.445 0 6.237-2.792 6.237-6.237s-2.792-6.237-6.237-6.237-6.237 2.792-6.237 6.237 2.792 6.237 6.237 6.237z"
         id="path32"
         style="fill:#000000" />
      <path
         d="m184.398 182.955c-2.074-2.074-4.27-4.035-6.508-5.825h1.119c2.909 0 5.633-1.475 7.287-3.949 15.252-22.851 3.212-61.378 2.409-63.868l-7.044-24.599c2.276-.085 4.406-.999 6.029-2.616 1.706-1.701 2.646-3.963 2.646-6.371v-22.057c0-28.675-23.329-52.004-52.004-52.004h-20.676c-.001 0-.002 0-.003 0-28.669.006-51.99 23.333-51.99 52.004v22.125c0 4.829 3.859 8.797 8.655 8.987l-7.024 24.529c-.803 2.49-12.843 41.017 2.411 63.871 1.652 2.471 4.376 3.946 7.285 3.946h1.12c-18.432 14.781-29.87 36.852-29.87 63.204 0 7.72 6.28 14 14 14h131.52c6.996 0 14-5.234 14-14.97 0-21.31-8.297-41.342-23.362-56.407zm-4.753-14.219c-.167.25-.398.394-.635.394h-13.163c-5.966-3.227-12.29-5.651-18.846-7.252v-13.038c18.238-7.428 31.19-25.207 31.529-46.008 2.839 9.918 14.607 45.691 1.115 65.904zm-94.195-66.736v-17.611c13.818-1.229 24.293-5.217 31.826-12.089 4.541-4.142 7.575-8.978 9.737-13.927 5.424 12.592 16.292 23.565 43.536 25.896v17.731c0 18.684-12.104 34.583-28.877 40.293-26.517 9.385-56.222-10.555-56.222-40.293zm53.55 49.34v9.018c-7.414-1.021-14.611-1.018-22-.001v-9.017c7.294 1.626 14.7 1.627 22 0zm-65.337-75.544v-22.126c0-24.264 19.74-44.004 44.004-44.004h20.666c24.264 0 44.004 19.74 44.004 44.004v22.057c0 .555-.458 1.003-1.018 1.003-.001 0-.003 0-.004 0-38.708-.134-46.148-14.732-50.375-32.383-.976-4.08-6.783-4.091-7.776-.014-3.827 15.727-10.982 32.471-47.504 32.471-1 0-1.997.078-1.997-1.008zm3.327 93.334c-.236 0-.468-.144-.633-.391-9.912-14.85-6.417-39.929-1.392-57.158l2.505-8.749c.339 20.8 13.29 38.579 31.529 46.008v13.036c-6.556 1.601-12.882 4.026-18.848 7.253h-13.161zm116.77 77.203h-131.52c-3.309 0-6-2.691-6-6 0-42.682 33.772-72.74 71.77-72.74 38.105 0 71.75 30.197 71.75 72.74 0 3.309-2.692 6-6 6z"
         id="path34"
         style="fill:#000000" />
      <circle
         cx="128"
         cy="199.083"
         r="6.25"
         id="circle36"
         style="fill:#000000" />
      <circle
         cx="128"
         cy="225.333"
         r="6.25"
         id="circle38"
         style="fill:#000000" />
      <path
         d="m141.893 123.241c1.974-.992 2.771-3.396 1.778-5.37-2.737-5.448-8.226-8.832-14.322-8.832h-2.697c-6.097 0-11.585 3.384-14.322 8.832-.992 1.974-.195 4.378 1.778 5.37 1.972.992 4.379.195 5.37-1.778 1.371-2.729 4.12-4.424 7.174-4.424h2.697c3.054 0 5.803 1.695 7.174 4.424.702 1.398 2.113 2.205 3.577 2.205.603-.001 1.216-.138 1.793-.427z"
         id="path40"
         style="fill:#000000" />
      <path
         d="m151.457 30.085c6.691 3.268 11.717 9.244 13.786 16.397.507 1.75 2.105 2.889 3.841 2.889.368 0 .743-.051 1.114-.159 2.122-.614 3.344-2.833 2.73-4.955-2.697-9.318-9.244-17.104-17.962-21.361-1.983-.969-4.379-.146-5.35 1.839-.968 1.986-.144 4.381 1.841 5.35z"
         id="path42"
         style="fill:#000000" />
      <path
         d="m166.285 58.686v3.393c0 2.209 1.791 4 4 4s4-1.791 4-4v-3.393c0-2.209-1.791-4-4-4s-4 1.791-4 4z"
         id="path44"
         style="fill:#000000" />
      <circle
         cx="131.125"
         cy="83.927"
         r="3.125"
         id="circle46"
         style="fill:#000000" />
      <circle
         cx="123.319"
         cy="95.562"
         r="3.125"
         id="circle48"
         style="fill:#000000" />
      <circle
         cx="147.814"
         cy="105.25"
         r="3.125"
         id="circle50"
         style="fill:#000000" />
      <circle
         cx="162.796"
         cy="108.375"
         r="3.125"
         id="circle52"
         style="fill:#000000" />
      <circle
         cx="95.712"
         cy="113.038"
         r="3.125"
         id="circle54"
         style="fill:#000000" />
      <circle
         cx="105.074"
         cy="105.25"
         r="3.125"
         id="circle56"
         style="fill:#000000" />
      <path
         d="m101.949 124.292c0 1.726 1.399 3.125 3.125 3.125s3.125-1.399 3.125-3.125c0-4.129-6.25-4.135-6.25 0z"
         id="path58"
         style="fill:#000000" />
      <path
         d="m119.155 133.872c-1.628.574-2.482 2.359-1.908 3.986 1.374 3.894 7.269 1.819 5.894-2.079-.574-1.628-2.359-2.482-3.986-1.907z"
         id="path60"
         style="fill:#000000" />
      <path
         d="m130.085 127.147c-1.627.574-2.482 2.359-1.907 3.986.574 1.628 2.359 2.482 3.987 1.908 1.627-.574 2.482-2.359 1.907-3.987-.574-1.627-2.359-2.481-3.987-1.907z"
         id="path62"
         style="fill:#000000" />
      <path
         d="m144.04 136.167c1.627-.574 2.482-2.359 1.907-3.986-.574-1.628-2.359-2.482-3.987-1.908-1.627.574-2.482 2.359-1.907 3.987.574 1.627 2.359 2.481 3.987 1.907z"
         id="path64"
         style="fill:#000000" />
      <path
         d="m154.051 114.917c-1.726 0-3.125 1.399-3.125 3.125 0 4.129 6.25 4.135 6.25 0 0-1.726-1.4-3.125-3.125-3.125z"
         id="path66"
         style="fill:#000000" />
    </g>
  </g>
</svg>
